<?xml version="1.0" encoding="utf-8" standalone="no"?>
<!DOCTYPE svg PUBLIC "-//W3C//DTD SVG 1.1//EN"
  "http://www.w3.org/Graphics/SVG/1.1/DTD/svg11.dtd">
<svg xmlns:xlink="http://www.w3.org/1999/xlink" width="720pt" height="432pt" viewBox="0 0 720 432" xmlns="http://www.w3.org/2000/svg" version="1.1">
 <metadata>
  <rdf:RDF xmlns:dc="http://purl.org/dc/elements/1.1/" xmlns:cc="http://creativecommons.org/ns#" xmlns:rdf="http://www.w3.org/1999/02/22-rdf-syntax-ns#">
   <cc:Work>
    <dc:type rdf:resource="http://purl.org/dc/dcmitype/StillImage"/>
    <dc:date>2024-10-17T19:38:28.885001</dc:date>
    <dc:format>image/svg+xml</dc:format>
    <dc:creator>
     <cc:Agent>
      <dc:title>Matplotlib v3.7.5, https://matplotlib.org/</dc:title>
     </cc:Agent>
    </dc:creator>
   </cc:Work>
  </rdf:RDF>
 </metadata>
 <defs>
  <style type="text/css">*{stroke-linejoin: round; stroke-linecap: butt}</style>
 </defs>
 <g id="figure_1">
  <g id="patch_1">
   <path d="M 0 432 
L 720 432 
L 720 0 
L 0 0 
z
" style="fill: #ffffff"/>
  </g>
  <g id="axes_1">
   <g id="patch_2">
    <path d="M 54.92 382.84 
L 709.2 382.84 
L 709.2 33.36 
L 54.92 33.36 
z
" style="fill: #ffffff"/>
   </g>
   <g id="matplotlib.axis_1">
    <g id="xtick_1">
     <g id="line2d_1">
      <defs>
       <path id="ma46e4d637f" d="M 0 0 
L 0 3.5 
" style="stroke: #000000; stroke-width: 0.8"/>
      </defs>
      <g>
       <use xlink:href="#ma46e4d637f" x="84.66" y="382.84" style="stroke: #000000; stroke-width: 0.8"/>
      </g>
     </g>
     <g id="text_1">
      <!-- 0 -->
      <g transform="translate(81.47875 397.438438) scale(0.1 -0.1)">
       <defs>
        <path id="DejaVuSans-30" d="M 2034 4250 
Q 1547 4250 1301 3770 
Q 1056 3291 1056 2328 
Q 1056 1369 1301 889 
Q 1547 409 2034 409 
Q 2525 409 2770 889 
Q 3016 1369 3016 2328 
Q 3016 3291 2770 3770 
Q 2525 4250 2034 4250 
z
M 2034 4750 
Q 2819 4750 3233 4129 
Q 3647 3509 3647 2328 
Q 3647 1150 3233 529 
Q 2819 -91 2034 -91 
Q 1250 -91 836 529 
Q 422 1150 422 2328 
Q 422 3509 836 4129 
Q 1250 4750 2034 4750 
z
" transform="scale(0.015625)"/>
       </defs>
       <use xlink:href="#DejaVuSans-30"/>
      </g>
     </g>
    </g>
    <g id="xtick_2">
     <g id="line2d_2">
      <g>
       <use xlink:href="#ma46e4d637f" x="202.64076" y="382.84" style="stroke: #000000; stroke-width: 0.8"/>
      </g>
     </g>
     <g id="text_2">
      <!-- 2000 -->
      <g transform="translate(189.91576 397.438438) scale(0.1 -0.1)">
       <defs>
        <path id="DejaVuSans-32" d="M 1228 531 
L 3431 531 
L 3431 0 
L 469 0 
L 469 531 
Q 828 903 1448 1529 
Q 2069 2156 2228 2338 
Q 2531 2678 2651 2914 
Q 2772 3150 2772 3378 
Q 2772 3750 2511 3984 
Q 2250 4219 1831 4219 
Q 1534 4219 1204 4116 
Q 875 4013 500 3803 
L 500 4441 
Q 881 4594 1212 4672 
Q 1544 4750 1819 4750 
Q 2544 4750 2975 4387 
Q 3406 4025 3406 3419 
Q 3406 3131 3298 2873 
Q 3191 2616 2906 2266 
Q 2828 2175 2409 1742 
Q 1991 1309 1228 531 
z
" transform="scale(0.015625)"/>
       </defs>
       <use xlink:href="#DejaVuSans-32"/>
       <use xlink:href="#DejaVuSans-30" x="63.623047"/>
       <use xlink:href="#DejaVuSans-30" x="127.246094"/>
       <use xlink:href="#DejaVuSans-30" x="190.869141"/>
      </g>
     </g>
    </g>
    <g id="xtick_3">
     <g id="line2d_3">
      <g>
       <use xlink:href="#ma46e4d637f" x="320.621519" y="382.84" style="stroke: #000000; stroke-width: 0.8"/>
      </g>
     </g>
     <g id="text_3">
      <!-- 4000 -->
      <g transform="translate(307.896519 397.438438) scale(0.1 -0.1)">
       <defs>
        <path id="DejaVuSans-34" d="M 2419 4116 
L 825 1625 
L 2419 1625 
L 2419 4116 
z
M 2253 4666 
L 3047 4666 
L 3047 1625 
L 3713 1625 
L 3713 1100 
L 3047 1100 
L 3047 0 
L 2419 0 
L 2419 1100 
L 313 1100 
L 313 1709 
L 2253 4666 
z
" transform="scale(0.015625)"/>
       </defs>
       <use xlink:href="#DejaVuSans-34"/>
       <use xlink:href="#DejaVuSans-30" x="63.623047"/>
       <use xlink:href="#DejaVuSans-30" x="127.246094"/>
       <use xlink:href="#DejaVuSans-30" x="190.869141"/>
      </g>
     </g>
    </g>
    <g id="xtick_4">
     <g id="line2d_4">
      <g>
       <use xlink:href="#ma46e4d637f" x="438.602279" y="382.84" style="stroke: #000000; stroke-width: 0.8"/>
      </g>
     </g>
     <g id="text_4">
      <!-- 6000 -->
      <g transform="translate(425.877279 397.438438) scale(0.1 -0.1)">
       <defs>
        <path id="DejaVuSans-36" d="M 2113 2584 
Q 1688 2584 1439 2293 
Q 1191 2003 1191 1497 
Q 1191 994 1439 701 
Q 1688 409 2113 409 
Q 2538 409 2786 701 
Q 3034 994 3034 1497 
Q 3034 2003 2786 2293 
Q 2538 2584 2113 2584 
z
M 3366 4563 
L 3366 3988 
Q 3128 4100 2886 4159 
Q 2644 4219 2406 4219 
Q 1781 4219 1451 3797 
Q 1122 3375 1075 2522 
Q 1259 2794 1537 2939 
Q 1816 3084 2150 3084 
Q 2853 3084 3261 2657 
Q 3669 2231 3669 1497 
Q 3669 778 3244 343 
Q 2819 -91 2113 -91 
Q 1303 -91 875 529 
Q 447 1150 447 2328 
Q 447 3434 972 4092 
Q 1497 4750 2381 4750 
Q 2619 4750 2861 4703 
Q 3103 4656 3366 4563 
z
" transform="scale(0.015625)"/>
       </defs>
       <use xlink:href="#DejaVuSans-36"/>
       <use xlink:href="#DejaVuSans-30" x="63.623047"/>
       <use xlink:href="#DejaVuSans-30" x="127.246094"/>
       <use xlink:href="#DejaVuSans-30" x="190.869141"/>
      </g>
     </g>
    </g>
    <g id="xtick_5">
     <g id="line2d_5">
      <g>
       <use xlink:href="#ma46e4d637f" x="556.583039" y="382.84" style="stroke: #000000; stroke-width: 0.8"/>
      </g>
     </g>
     <g id="text_5">
      <!-- 8000 -->
      <g transform="translate(543.858039 397.438438) scale(0.1 -0.1)">
       <defs>
        <path id="DejaVuSans-38" d="M 2034 2216 
Q 1584 2216 1326 1975 
Q 1069 1734 1069 1313 
Q 1069 891 1326 650 
Q 1584 409 2034 409 
Q 2484 409 2743 651 
Q 3003 894 3003 1313 
Q 3003 1734 2745 1975 
Q 2488 2216 2034 2216 
z
M 1403 2484 
Q 997 2584 770 2862 
Q 544 3141 544 3541 
Q 544 4100 942 4425 
Q 1341 4750 2034 4750 
Q 2731 4750 3128 4425 
Q 3525 4100 3525 3541 
Q 3525 3141 3298 2862 
Q 3072 2584 2669 2484 
Q 3125 2378 3379 2068 
Q 3634 1759 3634 1313 
Q 3634 634 3220 271 
Q 2806 -91 2034 -91 
Q 1263 -91 848 271 
Q 434 634 434 1313 
Q 434 1759 690 2068 
Q 947 2378 1403 2484 
z
M 1172 3481 
Q 1172 3119 1398 2916 
Q 1625 2713 2034 2713 
Q 2441 2713 2670 2916 
Q 2900 3119 2900 3481 
Q 2900 3844 2670 4047 
Q 2441 4250 2034 4250 
Q 1625 4250 1398 4047 
Q 1172 3844 1172 3481 
z
" transform="scale(0.015625)"/>
       </defs>
       <use xlink:href="#DejaVuSans-38"/>
       <use xlink:href="#DejaVuSans-30" x="63.623047"/>
       <use xlink:href="#DejaVuSans-30" x="127.246094"/>
       <use xlink:href="#DejaVuSans-30" x="190.869141"/>
      </g>
     </g>
    </g>
    <g id="xtick_6">
     <g id="line2d_6">
      <g>
       <use xlink:href="#ma46e4d637f" x="674.563798" y="382.84" style="stroke: #000000; stroke-width: 0.8"/>
      </g>
     </g>
     <g id="text_6">
      <!-- 10000 -->
      <g transform="translate(658.657548 397.438438) scale(0.1 -0.1)">
       <defs>
        <path id="DejaVuSans-31" d="M 794 531 
L 1825 531 
L 1825 4091 
L 703 3866 
L 703 4441 
L 1819 4666 
L 2450 4666 
L 2450 531 
L 3481 531 
L 3481 0 
L 794 0 
L 794 531 
z
" transform="scale(0.015625)"/>
       </defs>
       <use xlink:href="#DejaVuSans-31"/>
       <use xlink:href="#DejaVuSans-30" x="63.623047"/>
       <use xlink:href="#DejaVuSans-30" x="127.246094"/>
       <use xlink:href="#DejaVuSans-30" x="190.869141"/>
       <use xlink:href="#DejaVuSans-30" x="254.492188"/>
      </g>
     </g>
    </g>
    <g id="text_7">
     <!-- Timesteps -->
     <g transform="translate(335.882969 417.195312) scale(0.18 -0.18)">
      <defs>
       <path id="DejaVuSans-54" d="M -19 4666 
L 3928 4666 
L 3928 4134 
L 2272 4134 
L 2272 0 
L 1638 0 
L 1638 4134 
L -19 4134 
L -19 4666 
z
" transform="scale(0.015625)"/>
       <path id="DejaVuSans-69" d="M 603 3500 
L 1178 3500 
L 1178 0 
L 603 0 
L 603 3500 
z
M 603 4863 
L 1178 4863 
L 1178 4134 
L 603 4134 
L 603 4863 
z
" transform="scale(0.015625)"/>
       <path id="DejaVuSans-6d" d="M 3328 2828 
Q 3544 3216 3844 3400 
Q 4144 3584 4550 3584 
Q 5097 3584 5394 3201 
Q 5691 2819 5691 2113 
L 5691 0 
L 5113 0 
L 5113 2094 
Q 5113 2597 4934 2840 
Q 4756 3084 4391 3084 
Q 3944 3084 3684 2787 
Q 3425 2491 3425 1978 
L 3425 0 
L 2847 0 
L 2847 2094 
Q 2847 2600 2669 2842 
Q 2491 3084 2119 3084 
Q 1678 3084 1418 2786 
Q 1159 2488 1159 1978 
L 1159 0 
L 581 0 
L 581 3500 
L 1159 3500 
L 1159 2956 
Q 1356 3278 1631 3431 
Q 1906 3584 2284 3584 
Q 2666 3584 2933 3390 
Q 3200 3197 3328 2828 
z
" transform="scale(0.015625)"/>
       <path id="DejaVuSans-65" d="M 3597 1894 
L 3597 1613 
L 953 1613 
Q 991 1019 1311 708 
Q 1631 397 2203 397 
Q 2534 397 2845 478 
Q 3156 559 3463 722 
L 3463 178 
Q 3153 47 2828 -22 
Q 2503 -91 2169 -91 
Q 1331 -91 842 396 
Q 353 884 353 1716 
Q 353 2575 817 3079 
Q 1281 3584 2069 3584 
Q 2775 3584 3186 3129 
Q 3597 2675 3597 1894 
z
M 3022 2063 
Q 3016 2534 2758 2815 
Q 2500 3097 2075 3097 
Q 1594 3097 1305 2825 
Q 1016 2553 972 2059 
L 3022 2063 
z
" transform="scale(0.015625)"/>
       <path id="DejaVuSans-73" d="M 2834 3397 
L 2834 2853 
Q 2591 2978 2328 3040 
Q 2066 3103 1784 3103 
Q 1356 3103 1142 2972 
Q 928 2841 928 2578 
Q 928 2378 1081 2264 
Q 1234 2150 1697 2047 
L 1894 2003 
Q 2506 1872 2764 1633 
Q 3022 1394 3022 966 
Q 3022 478 2636 193 
Q 2250 -91 1575 -91 
Q 1294 -91 989 -36 
Q 684 19 347 128 
L 347 722 
Q 666 556 975 473 
Q 1284 391 1588 391 
Q 1994 391 2212 530 
Q 2431 669 2431 922 
Q 2431 1156 2273 1281 
Q 2116 1406 1581 1522 
L 1381 1569 
Q 847 1681 609 1914 
Q 372 2147 372 2553 
Q 372 3047 722 3315 
Q 1072 3584 1716 3584 
Q 2034 3584 2315 3537 
Q 2597 3491 2834 3397 
z
" transform="scale(0.015625)"/>
       <path id="DejaVuSans-74" d="M 1172 4494 
L 1172 3500 
L 2356 3500 
L 2356 3053 
L 1172 3053 
L 1172 1153 
Q 1172 725 1289 603 
Q 1406 481 1766 481 
L 2356 481 
L 2356 0 
L 1766 0 
Q 1100 0 847 248 
Q 594 497 594 1153 
L 594 3053 
L 172 3053 
L 172 3500 
L 594 3500 
L 594 4494 
L 1172 4494 
z
" transform="scale(0.015625)"/>
       <path id="DejaVuSans-70" d="M 1159 525 
L 1159 -1331 
L 581 -1331 
L 581 3500 
L 1159 3500 
L 1159 2969 
Q 1341 3281 1617 3432 
Q 1894 3584 2278 3584 
Q 2916 3584 3314 3078 
Q 3713 2572 3713 1747 
Q 3713 922 3314 415 
Q 2916 -91 2278 -91 
Q 1894 -91 1617 61 
Q 1341 213 1159 525 
z
M 3116 1747 
Q 3116 2381 2855 2742 
Q 2594 3103 2138 3103 
Q 1681 3103 1420 2742 
Q 1159 2381 1159 1747 
Q 1159 1113 1420 752 
Q 1681 391 2138 391 
Q 2594 391 2855 752 
Q 3116 1113 3116 1747 
z
" transform="scale(0.015625)"/>
      </defs>
      <use xlink:href="#DejaVuSans-54"/>
      <use xlink:href="#DejaVuSans-69" x="57.958984"/>
      <use xlink:href="#DejaVuSans-6d" x="85.742188"/>
      <use xlink:href="#DejaVuSans-65" x="183.154297"/>
      <use xlink:href="#DejaVuSans-73" x="244.677734"/>
      <use xlink:href="#DejaVuSans-74" x="296.777344"/>
      <use xlink:href="#DejaVuSans-65" x="335.986328"/>
      <use xlink:href="#DejaVuSans-70" x="397.509766"/>
      <use xlink:href="#DejaVuSans-73" x="460.986328"/>
     </g>
    </g>
   </g>
   <g id="matplotlib.axis_2">
    <g id="ytick_1">
     <g id="line2d_7">
      <defs>
       <path id="m16617660fa" d="M 0 0 
L -3.5 0 
" style="stroke: #000000; stroke-width: 0.8"/>
      </defs>
      <g>
       <use xlink:href="#m16617660fa" x="54.92" y="366.954545" style="stroke: #000000; stroke-width: 0.8"/>
      </g>
     </g>
     <g id="text_8">
      <!-- 0.0 -->
      <g transform="translate(32.016875 370.753764) scale(0.1 -0.1)">
       <defs>
        <path id="DejaVuSans-2e" d="M 684 794 
L 1344 794 
L 1344 0 
L 684 0 
L 684 794 
z
" transform="scale(0.015625)"/>
       </defs>
       <use xlink:href="#DejaVuSans-30"/>
       <use xlink:href="#DejaVuSans-2e" x="63.623047"/>
       <use xlink:href="#DejaVuSans-30" x="95.410156"/>
      </g>
     </g>
    </g>
    <g id="ytick_2">
     <g id="line2d_8">
      <g>
       <use xlink:href="#m16617660fa" x="54.92" y="296.926685" style="stroke: #000000; stroke-width: 0.8"/>
      </g>
     </g>
     <g id="text_9">
      <!-- 0.2 -->
      <g transform="translate(32.016875 300.725904) scale(0.1 -0.1)">
       <use xlink:href="#DejaVuSans-30"/>
       <use xlink:href="#DejaVuSans-2e" x="63.623047"/>
       <use xlink:href="#DejaVuSans-32" x="95.410156"/>
      </g>
     </g>
    </g>
    <g id="ytick_3">
     <g id="line2d_9">
      <g>
       <use xlink:href="#m16617660fa" x="54.92" y="226.898825" style="stroke: #000000; stroke-width: 0.8"/>
      </g>
     </g>
     <g id="text_10">
      <!-- 0.4 -->
      <g transform="translate(32.016875 230.698043) scale(0.1 -0.1)">
       <use xlink:href="#DejaVuSans-30"/>
       <use xlink:href="#DejaVuSans-2e" x="63.623047"/>
       <use xlink:href="#DejaVuSans-34" x="95.410156"/>
      </g>
     </g>
    </g>
    <g id="ytick_4">
     <g id="line2d_10">
      <g>
       <use xlink:href="#m16617660fa" x="54.92" y="156.870964" style="stroke: #000000; stroke-width: 0.8"/>
      </g>
     </g>
     <g id="text_11">
      <!-- 0.6 -->
      <g transform="translate(32.016875 160.670183) scale(0.1 -0.1)">
       <use xlink:href="#DejaVuSans-30"/>
       <use xlink:href="#DejaVuSans-2e" x="63.623047"/>
       <use xlink:href="#DejaVuSans-36" x="95.410156"/>
      </g>
     </g>
    </g>
    <g id="ytick_5">
     <g id="line2d_11">
      <g>
       <use xlink:href="#m16617660fa" x="54.92" y="86.843104" style="stroke: #000000; stroke-width: 0.8"/>
      </g>
     </g>
     <g id="text_12">
      <!-- 0.8 -->
      <g transform="translate(32.016875 90.642322) scale(0.1 -0.1)">
       <use xlink:href="#DejaVuSans-30"/>
       <use xlink:href="#DejaVuSans-2e" x="63.623047"/>
       <use xlink:href="#DejaVuSans-38" x="95.410156"/>
      </g>
     </g>
    </g>
    <g id="text_13">
     <!-- meter -->
     <g transform="translate(24.273438 235.170312) rotate(-90) scale(0.18 -0.18)">
      <defs>
       <path id="DejaVuSans-72" d="M 2631 2963 
Q 2534 3019 2420 3045 
Q 2306 3072 2169 3072 
Q 1681 3072 1420 2755 
Q 1159 2438 1159 1844 
L 1159 0 
L 581 0 
L 581 3500 
L 1159 3500 
L 1159 2956 
Q 1341 3275 1631 3429 
Q 1922 3584 2338 3584 
Q 2397 3584 2469 3576 
Q 2541 3569 2628 3553 
L 2631 2963 
z
" transform="scale(0.015625)"/>
      </defs>
      <use xlink:href="#DejaVuSans-6d"/>
      <use xlink:href="#DejaVuSans-65" x="97.412109"/>
      <use xlink:href="#DejaVuSans-74" x="158.935547"/>
      <use xlink:href="#DejaVuSans-65" x="198.144531"/>
      <use xlink:href="#DejaVuSans-72" x="259.667969"/>
     </g>
    </g>
   </g>
   <g id="line2d_12">
    <path d="M 84.66 49.245455 
L 85.131923 49.431615 
L 85.367885 50.067402 
L 85.544856 50.350644 
L 85.780817 50.489237 
L 85.957788 50.934099 
L 86.016779 50.895997 
L 86.19375 51.085425 
L 86.25274 51.033573 
L 86.606683 51.588438 
L 86.724663 51.721786 
L 86.842644 51.841254 
L 88.730336 53.939753 
L 88.907307 54.304984 
L 89.025288 54.32817 
L 89.202259 54.626007 
L 89.497211 54.885061 
L 89.792163 55.372947 
L 90.028125 55.45378 
L 90.323076 56.03466 
L 90.500048 56.138168 
L 90.91298 56.653195 
L 91.089951 56.840814 
L 91.266923 57.036688 
L 91.915817 57.927888 
L 92.092788 57.989932 
L 92.38774 58.463103 
L 92.505721 58.48743 
L 92.800672 58.91445 
L 92.859663 58.889697 
L 93.154615 59.345758 
L 93.331586 59.494739 
L 93.508557 59.754319 
L 93.567547 59.756533 
L 93.685528 59.953673 
L 93.744518 59.927929 
L 93.98048 60.312696 
L 94.157451 60.507298 
L 94.216442 60.516569 
L 94.511393 60.916011 
L 94.570384 60.921973 
L 94.806345 61.174661 
L 94.865336 61.194162 
L 95.101297 61.598894 
L 95.691201 62.325117 
L 95.868172 62.437166 
L 96.222114 62.931764 
L 96.812018 63.620377 
L 96.988989 63.70654 
L 97.165961 64.015474 
L 97.342932 64.175035 
L 97.578893 64.464518 
L 97.637884 64.464293 
L 97.873845 64.824989 
L 98.286778 65.408122 
L 98.404759 65.525939 
L 98.463749 65.542433 
L 98.64072 65.863564 
L 98.876682 65.97725 
L 99.171633 66.381358 
L 99.230624 66.33911 
L 99.525576 66.783927 
L 99.879518 67.094731 
L 100.17447 67.516621 
L 100.351441 67.611195 
L 100.587403 67.961175 
L 100.823364 68.269609 
L 100.882354 68.226103 
L 101.177306 68.680436 
L 101.236297 68.666702 
L 101.531249 69.052674 
L 101.590239 69.073035 
L 101.76721 69.36472 
L 101.944181 69.51586 
L 102.180143 69.803396 
L 102.357114 69.943812 
L 102.770047 70.495331 
L 102.947018 70.626234 
L 103.182979 70.909733 
L 103.24197 70.912952 
L 103.418941 71.159619 
L 103.477931 71.17455 
L 103.772883 71.665606 
L 103.890864 71.755867 
L 104.067835 71.88763 
L 104.244806 72.097053 
L 104.480768 72.412077 
L 104.77572 72.744177 
L 104.83471 72.756036 
L 105.011681 73.062224 
L 105.070671 73.061013 
L 105.306633 73.363963 
L 105.483604 73.499547 
L 105.778556 73.950263 
L 105.955527 74.021966 
L 106.42745 74.640558 
L 106.486441 74.645911 
L 106.663412 74.922213 
L 106.781392 75.064974 
L 108.197162 76.537916 
L 108.315142 76.648887 
L 108.374133 76.663548 
L 108.669085 77.142345 
L 108.728075 77.163984 
L 108.905046 77.434736 
L 109.258988 77.760787 
L 109.55394 78.125563 
L 109.612931 78.161704 
L 109.789902 78.470296 
L 109.966873 78.553764 
L 110.438796 79.177708 
L 110.615767 79.301645 
L 110.910719 79.674318 
L 110.969709 79.679843 
L 111.146681 79.942982 
L 111.205671 79.927025 
L 111.382642 80.160871 
L 111.500623 80.178019 
L 111.736584 80.479933 
L 112.031536 80.873764 
L 112.090527 80.88042 
L 112.326488 81.171849 
L 112.62144 81.587794 
L 112.857402 81.713551 
L 113.034373 82.014656 
L 113.093363 82.022858 
L 113.388315 82.446624 
L 113.565286 82.597131 
L 113.801248 82.852901 
L 113.860238 82.855727 
L 114.15519 83.282823 
L 114.332161 83.341084 
L 114.568123 83.798412 
L 114.981055 84.23461 
L 115.040046 84.23577 
L 115.158026 84.339581 
L 115.217017 84.350486 
L 115.393988 84.602023 
L 115.452978 84.60874 
L 115.68894 84.894238 
L 116.101872 85.442185 
L 116.337834 85.620904 
L 116.632786 86.027274 
L 116.809757 86.156541 
L 117.104709 86.633388 
L 117.22269 86.748385 
L 117.34067 86.780494 
L 117.635622 87.218975 
L 117.753603 87.301689 
L 117.930574 87.461072 
L 118.107545 87.665259 
L 118.343507 87.823147 
L 118.638459 88.248027 
L 118.81543 88.434924 
L 119.110382 88.813382 
L 119.346343 88.957549 
L 119.641295 89.373289 
L 119.818266 89.561934 
L 119.995238 89.817294 
L 120.172209 89.971284 
L 120.34918 90.149541 
L 120.644132 90.556848 
L 120.762112 90.662286 
L 120.821103 90.677959 
L 120.998074 90.894446 
L 121.116055 90.921732 
L 121.411007 91.33964 
L 121.469997 91.353986 
L 121.764949 91.831849 
L 121.88293 91.953305 
L 123.298699 93.587596 
L 123.357689 93.596352 
L 123.652641 94.064601 
L 123.888603 94.220359 
L 124.183554 94.636607 
L 124.242545 94.642312 
L 124.419516 94.915247 
L 124.478506 94.916506 
L 124.773458 95.358579 
L 125.00942 95.470615 
L 125.186391 95.800262 
L 125.894276 96.574764 
L 125.953266 96.573499 
L 126.130237 96.893072 
L 126.248218 96.997808 
L 129.433698 100.572603 
L 129.610669 100.831129 
L 129.72865 100.825246 
L 129.905621 101.116321 
L 129.964612 101.120738 
L 130.141583 101.434888 
L 130.200573 101.448446 
L 130.495525 101.908177 
L 130.731487 102.045077 
L 130.908458 102.294217 
L 130.967448 102.300448 
L 131.144419 102.615503 
L 131.32139 102.715635 
L 131.793313 103.346336 
L 131.970285 103.458543 
L 132.147256 103.698466 
L 132.206246 103.706254 
L 132.501198 104.153547 
L 132.678169 104.288698 
L 132.73716 104.300759 
L 132.914131 104.62476 
L 133.681006 105.44674 
L 133.916967 105.725261 
L 134.034948 105.848439 
L 134.211919 106.015974 
L 134.38889 106.317063 
L 134.565861 106.464393 
L 134.801823 106.772135 
L 134.860813 106.772119 
L 135.037784 107.000226 
L 135.096775 107.003288 
L 135.450717 107.47455 
L 135.509707 107.487123 
L 135.804659 107.888088 
L 135.86365 107.896153 
L 136.099611 108.215604 
L 136.276582 108.417278 
L 136.335573 108.425328 
L 136.571534 108.77452 
L 136.689515 108.927613 
L 136.866486 109.024208 
L 137.102448 109.398781 
L 137.45639 109.828887 
L 137.692351 110.104551 
L 137.751342 110.099003 
L 138.046294 110.533851 
L 138.105284 110.537615 
L 138.400236 110.936092 
L 138.459226 110.933973 
L 138.695188 111.199427 
L 138.754178 111.199806 
L 138.931149 111.436512 
L 138.99014 111.442999 
L 139.344082 111.982109 
L 141.054803 113.857305 
L 141.113794 113.845261 
L 141.290765 114.126178 
L 141.349755 114.122518 
L 141.526726 114.463465 
L 141.585717 114.451557 
L 141.821678 114.747857 
L 141.998649 114.830252 
L 142.293601 115.336988 
L 142.470572 115.461838 
L 142.647543 115.706072 
L 142.824515 115.810979 
L 143.060476 116.176541 
L 143.237447 116.322336 
L 143.827351 117.032367 
L 144.004322 117.188739 
L 144.181293 117.459652 
L 144.240284 117.455607 
L 144.417255 117.735978 
L 144.476245 117.736071 
L 144.771197 118.1793 
L 145.007159 118.313136 
L 145.30211 118.776211 
L 145.597062 119.022256 
L 145.951005 119.494047 
L 146.186966 119.711792 
L 146.363937 119.837137 
L 146.658889 120.313358 
L 146.83586 120.447144 
L 147.130812 120.870793 
L 147.366774 121.003118 
L 148.841533 122.640278 
L 149.018504 123.031771 
L 149.254466 123.13469 
L 149.549418 123.570169 
L 149.608408 123.558638 
L 149.785379 123.759427 
L 149.84437 123.755861 
L 150.021341 124.085788 
L 150.080331 124.095836 
L 150.316293 124.409653 
L 150.375283 124.429799 
L 150.552254 124.723331 
L 150.611245 124.742141 
L 150.788216 125.012624 
L 150.847206 125.024505 
L 151.024177 125.288095 
L 151.142158 125.413546 
L 151.37812 125.552515 
L 151.555091 125.985263 
L 151.732062 126.060793 
L 151.909033 126.330938 
L 151.968023 126.332787 
L 152.262975 126.84885 
L 152.498937 126.977092 
L 152.675908 127.144687 
L 152.852879 127.270704 
L 153.02985 127.650088 
L 153.206821 127.767714 
L 153.914706 128.708332 
L 154.091677 128.795673 
L 154.268648 129.02923 
L 154.445619 129.148174 
L 154.917542 129.742953 
L 154.976533 129.738758 
L 155.271485 130.199296 
L 155.507446 130.345185 
L 155.802398 130.71575 
L 155.861388 130.733408 
L 156.09735 131.115398 
L 156.451292 131.484943 
L 156.510283 131.504299 
L 156.687254 131.793676 
L 156.864225 131.907545 
L 157.100186 132.308532 
L 158.338984 133.675047 
L 158.397975 133.670947 
L 158.633936 134.045879 
L 159.813744 135.495307 
L 159.931725 135.582972 
L 160.108696 135.725963 
L 160.226677 136.01947 
L 160.285667 136.015992 
L 160.462638 136.216554 
L 160.639609 136.279211 
L 160.934561 136.821185 
L 160.993552 136.81599 
L 161.170523 137.14834 
L 161.347494 137.226019 
L 161.524465 137.432882 
L 161.701436 137.746212 
L 161.760426 137.73882 
L 161.937398 137.932074 
L 162.114369 138.057705 
L 162.35033 138.476385 
L 162.527301 138.581641 
L 162.881244 138.9601 
L 163.058215 139.169559 
L 163.117205 139.16678 
L 163.412157 139.705202 
L 163.648119 139.779965 
L 163.82509 140.062026 
L 163.88408 140.069386 
L 164.061051 140.289776 
L 164.120042 140.294751 
L 164.297013 140.608908 
L 164.356003 140.608689 
L 164.591965 140.918629 
L 164.709945 141.0396 
L 164.886917 141.160805 
L 165.063888 141.541286 
L 165.122878 141.5542 
L 165.299849 141.74097 
L 165.47682 141.78518 
L 165.653792 142.151518 
L 165.771772 142.142275 
L 166.007734 142.502867 
L 166.420666 143.168212 
L 166.597638 143.236927 
L 166.715618 143.443926 
L 166.774609 143.454818 
L 166.95158 143.769751 
L 167.128551 143.861737 
L 167.423503 144.322125 
L 167.600474 144.4077 
L 167.836436 144.821246 
L 167.954416 144.90479 
L 168.131387 145.079819 
L 168.839272 145.915013 
L 168.898262 145.911607 
L 169.075234 146.213278 
L 169.134224 146.22041 
L 169.311195 146.429274 
L 169.488166 146.454981 
L 169.724128 146.758794 
L 169.842108 147.222358 
L 170.13706 147.299374 
L 170.432012 147.733771 
L 170.491003 147.738072 
L 170.785955 148.189251 
L 170.903935 148.235374 
L 171.139897 148.39731 
L 171.316868 148.753039 
L 171.375858 148.760451 
L 171.55283 149.031478 
L 171.729801 149.060455 
L 171.906772 149.352901 
L 172.083743 149.457332 
L 172.142733 149.472723 
L 172.437685 149.958724 
L 172.614656 149.929586 
L 172.909608 150.580044 
L 173.263551 150.655747 
L 173.617493 151.248732 
L 173.794464 151.382185 
L 173.971435 151.522008 
L 174.148406 151.930776 
L 174.620329 152.048411 
L 175.092252 152.773678 
L 175.210233 152.793931 
L 175.328214 153.062037 
L 175.387204 153.068468 
L 175.564175 153.343204 
L 175.741146 153.440334 
L 175.918118 153.794107 
L 175.977108 153.810291 
L 176.154079 154.041047 
L 176.390041 154.125848 
L 176.567012 154.43037 
L 176.743983 154.532626 
L 176.979944 154.931959 
L 177.156916 155.225493 
L 177.333887 155.322472 
L 177.569848 155.427524 
L 177.628839 155.428231 
L 177.80581 155.93219 
L 177.8648 155.931832 
L 178.041771 156.190384 
L 178.218742 156.206696 
L 178.395714 156.63999 
L 178.749656 156.64097 
L 178.926627 157.076614 
L 179.221579 157.181147 
L 179.634512 157.924264 
L 179.870473 158.030013 
L 180.047444 158.466238 
L 180.106435 158.459367 
L 180.401386 158.838458 
L 180.460377 158.850408 
L 180.637348 159.150795 
L 181.109271 159.497436 
L 181.286242 159.849338 
L 181.345233 159.851347 
L 181.522204 160.114278 
L 181.581194 160.111041 
L 181.699175 160.312919 
L 181.758165 160.298869 
L 182.171098 160.832992 
L 182.348069 160.889137 
L 182.643021 161.42894 
L 182.878982 161.546769 
L 182.996963 161.730652 
L 183.173934 161.784702 
L 183.232925 161.776249 
L 183.409896 162.23877 
L 183.527877 162.31187 
L 183.704848 162.398415 
L 183.881819 162.63122 
L 184.11778 162.8412 
L 184.412732 163.203489 
L 184.471723 163.2006 
L 184.648694 163.486289 
L 184.707684 163.465302 
L 184.884655 163.616707 
L 185.002636 163.63902 
L 185.356578 164.06097 
L 185.474559 164.063983 
L 185.65153 164.461617 
L 185.828501 164.484152 
L 186.005473 164.820344 
L 186.241434 164.933236 
L 186.418405 165.224817 
L 186.713357 165.368298 
L 186.949319 165.819884 
L 187.18528 165.892014 
L 187.244271 165.908866 
L 187.421242 166.21648 
L 187.716194 166.314159 
L 187.893165 166.745879 
L 188.247107 166.797181 
L 188.424078 167.193945 
L 188.601049 167.303972 
L 188.896001 167.760986 
L 189.072972 167.732962 
L 189.190953 167.72023 
L 189.426915 168.04519 
L 189.485905 168.037953 
L 189.662876 168.250598 
L 189.839847 168.355366 
L 190.075809 168.734958 
L 190.429751 168.986692 
L 190.606722 169.384726 
L 190.724703 169.38887 
L 190.901674 169.51437 
L 191.019655 169.57157 
L 191.078645 169.586931 
L 191.314607 169.927339 
L 191.609559 170.291031 
L 191.727539 170.283953 
L 192.081482 170.695542 
L 192.317443 170.874599 
L 192.435424 170.85652 
L 192.494414 171.183517 
L 192.553405 171.17236 
L 192.671386 171.168015 
L 192.789366 171.438093 
L 192.907347 171.468719 
L 193.084318 171.610715 
L 193.32028 171.683236 
L 193.497251 171.973235 
L 193.556241 171.956846 
L 193.851193 172.531781 
L 194.677058 172.879733 
L 194.736049 173.346383 
L 194.795039 173.335127 
L 195.148981 173.254772 
L 195.266962 173.467274 
L 195.325953 173.472135 
L 195.443933 173.8095 
L 195.561914 173.802551 
L 195.856866 174.25741 
L 195.915856 174.267408 
L 196.092828 174.447842 
L 196.151818 174.470475 
L 196.387779 174.828177 
L 196.44677 174.819225 
L 196.564751 174.958105 
L 196.682731 174.936896 
L 197.095664 175.451953 
L 197.154654 175.445362 
L 197.331626 175.845246 
L 197.685568 175.886369 
L 197.862539 176.092291 
L 197.921529 176.084454 
L 198.0985 176.382431 
L 198.157491 176.36761 
L 198.393452 176.633672 
L 198.452443 176.63402 
L 198.570423 177.110254 
L 198.688404 177.036722 
L 198.806385 177.19627 
L 199.101337 177.202617 
L 199.160327 177.196996 
L 199.278308 177.456665 
L 199.337298 177.440411 
L 199.51427 177.82372 
L 199.691241 177.82026 
L 199.868212 178.211249 
L 199.927202 178.211826 
L 200.104173 178.505877 
L 200.222154 178.556595 
L 200.399125 178.540522 
L 200.694077 179.09472 
L 200.930039 179.105285 
L 201.048019 178.995844 
L 201.224991 179.558867 
L 201.342971 179.646497 
L 201.401962 179.654676 
L 201.519942 179.804417 
L 201.637923 179.733746 
L 201.755904 180.026881 
L 201.814894 180.022111 
L 201.932875 180.259909 
L 202.168837 180.228014 
L 202.345808 180.525868 
L 202.404798 180.534875 
L 202.581769 180.790916 
L 202.817731 180.892538 
L 202.994702 181.179117 
L 203.289654 181.213899 
L 203.466625 181.512235 
L 203.761577 181.557709 
L 203.879558 181.814503 
L 203.997538 181.880734 
L 204.17451 181.943267 
L 204.2335 182.16532 
L 204.29249 182.142527 
L 204.528452 182.253698 
L 204.646433 182.452557 
L 204.764413 182.431033 
L 205.059365 182.818468 
L 205.413308 182.894263 
L 205.76725 183.479626 
L 205.82624 183.436789 
L 206.003211 183.467306 
L 206.180182 183.719443 
L 206.416144 183.709881 
L 206.593115 184.087793 
L 206.888067 184.151564 
L 207.477971 184.847208 
L 207.595952 184.916155 
L 207.654942 184.958686 
L 207.772923 185.193287 
L 207.890904 185.133142 
L 208.95273 186.167592 
L 209.129701 186.238762 
L 209.424653 186.663449 
L 209.778596 186.711219 
L 209.955567 187.036114 
L 210.073548 187.093885 
L 210.368499 187.278351 
L 210.545471 187.417827 
L 210.604461 187.42153 
L 210.840422 187.687698 
L 211.017394 187.73598 
L 211.194365 187.848057 
L 211.253355 187.82963 
L 211.312346 188.016022 
L 211.371336 187.982395 
L 211.607297 188.03568 
L 212.02023 188.460132 
L 212.256192 188.617247 
L 212.433163 188.810492 
L 212.728115 188.950589 
L 212.905086 189.116661 
L 213.023067 189.133172 
L 213.200038 189.449924 
L 213.49499 189.663786 
L 213.61297 189.802918 
L 213.730951 189.685874 
L 213.848932 189.715831 
L 214.025903 190.069594 
L 214.379845 190.110111 
L 214.615807 190.505796 
L 214.792778 190.672519 
L 214.910759 190.67418 
L 215.205711 190.993945 
L 215.382682 190.981236 
L 215.795614 191.335461 
L 216.031576 191.415787 
L 216.208547 191.722717 
L 216.503499 191.759033 
L 216.62148 191.990617 
L 216.68047 191.985597 
L 216.857441 192.23809 
L 217.034412 192.2264 
L 217.388355 192.496532 
L 217.565326 192.459964 
L 217.742297 192.732107 
L 218.037249 192.667226 
L 218.15523 193.039291 
L 218.27321 193.004141 
L 218.450181 193.137921 
L 218.686143 193.260515 
L 218.863114 193.577514 
L 219.040085 193.632192 
L 219.80696 193.904718 
L 219.983931 194.150408 
L 220.337874 194.25419 
L 220.514845 194.386203 
L 220.691816 194.431357 
L 220.868787 194.634436 
L 221.045758 194.596139 
L 221.222729 195.035328 
L 221.34071 195.028343 
L 221.517681 195.196895 
L 221.576672 195.195231 
L 221.694652 195.045884 
L 221.812633 195.049414 
L 221.989604 195.449987 
L 222.343547 195.533287 
L 222.520518 195.864255 
L 222.579508 195.868676 
L 222.697489 195.760078 
L 222.81547 195.778444 
L 223.051431 196.17592 
L 223.228402 196.219177 
L 223.346383 196.082811 
L 223.641335 196.723166 
L 223.818306 196.670187 
L 223.936287 196.588488 
L 224.054268 196.620814 
L 224.172248 196.823767 
L 224.349219 196.771678 
L 224.526191 197.008322 
L 224.703162 197.085611 
L 224.880133 197.499729 
L 224.939123 197.49574 
L 225.116094 197.368282 
L 225.411046 197.739281 
L 225.588017 197.673132 
L 225.764989 197.890496 
L 226.118931 197.952419 
L 226.295902 198.062145 
L 226.590854 198.039729 
L 226.708835 198.284285 
L 227.239748 198.275198 
L 227.357729 198.468791 
L 227.47571 198.487254 
L 227.652681 198.873213 
L 228.065613 199.049293 
L 228.183594 199.189336 
L 228.478546 199.022463 
L 228.596527 198.992656 
L 228.773498 199.30787 
L 228.832488 199.316014 
L 229.009459 199.556708 
L 229.06845 199.556938 
L 229.186431 199.739184 
L 229.599363 199.733843 
L 229.776334 200.138973 
L 230.248257 200.186124 
L 230.425229 200.398529 
L 230.720181 200.330793 
L 230.838161 200.632963 
L 230.956142 200.716037 
L 231.015132 200.727146 
L 231.133113 200.959629 
L 231.192104 200.921902 
L 231.251094 200.925932 
L 231.369075 201.061649 
L 231.487055 201.044734 
L 231.605036 201.286138 
L 232.13595 201.273397 
L 232.312921 201.677088 
L 232.725853 201.688742 
L 232.843834 201.837411 
L 232.902825 201.820324 
L 233.079796 201.994517 
L 233.492728 202.100818 
L 233.669699 202.13018 
L 233.78768 202.140702 
L 233.964651 202.401631 
L 234.023642 202.403444 
L 234.141623 202.597639 
L 234.259603 202.558302 
L 234.436574 202.749993 
L 234.672536 202.665038 
L 234.849507 202.601977 
L 234.908497 202.61181 
L 235.026478 202.95563 
L 235.498401 202.93059 
L 236.088305 203.283986 
L 236.147295 203.272274 
L 236.324267 203.624275 
L 236.383257 203.633188 
L 236.560228 203.834487 
L 237.032151 203.833111 
L 237.209122 204.216119 
L 237.386093 204.172108 
L 237.504074 204.08347 
L 237.622055 204.114207 
L 237.799026 204.493844 
L 238.270949 204.529556 
L 238.44792 204.867238 
L 239.037824 204.900922 
L 239.214795 205.357691 
L 239.391766 205.306545 
L 239.686718 205.135953 
L 239.804699 205.219503 
L 239.98167 205.785326 
L 240.571574 205.891192 
L 240.748545 206.100164 
L 241.043497 206.205604 
L 241.161478 206.325084 
L 241.279458 206.164954 
L 241.51542 206.573749 
L 241.692391 206.513435 
L 241.928353 206.564851 
L 242.105324 206.838505 
L 242.577247 206.885671 
L 242.754218 207.238849 
L 243.462103 207.391466 
L 243.639074 207.5494 
L 243.934026 207.641853 
L 244.052006 207.771962 
L 244.169987 207.719831 
L 244.287968 207.84203 
L 244.58292 207.813136 
L 244.759891 208.074398 
L 245.054843 208.004699 
L 245.172824 208.266378 
L 245.349795 208.192408 
L 245.585756 208.310068 
L 245.821718 208.355092 
L 246.17566 208.455378 
L 246.352631 208.455673 
L 246.411622 208.443348 
L 246.529602 208.628932 
L 246.824554 208.640512 
L 247.001525 208.753898 
L 247.178496 208.751936 
L 247.296477 208.9503 
L 247.591429 208.971182 
L 247.7684 209.082158 
L 247.945371 209.082327 
L 248.122343 209.249577 
L 248.417294 209.372603 
L 248.653256 209.450186 
L 248.830227 209.554566 
L 249.007198 209.630366 
L 249.24316 209.698119 
L 249.597102 209.828338 
L 250.010035 210.052475 
L 250.304987 210.056173 
L 250.540948 210.23333 
L 250.8359 210.150617 
L 251.012871 210.369144 
L 251.425804 210.481895 
L 251.602775 210.609371 
L 251.838736 210.524754 
L 252.015708 210.758135 
L 252.31066 210.789331 
L 252.42864 210.921623 
L 252.546621 210.855294 
L 252.900563 210.997035 
L 253.018544 211.063316 
L 253.313496 211.085104 
L 253.9034 211.293145 
L 254.198352 211.313649 
L 254.670275 211.48681 
L 255.319169 211.585989 
L 255.49614 211.731355 
L 256.675948 212.009238 
L 256.9709 212.02794 
L 257.147871 212.058927 
L 257.265851 212.222709 
L 257.442823 212.16711 
L 257.678784 212.370408 
L 257.796765 212.29474 
L 257.973736 212.321903 
L 258.268688 212.385014 
L 258.386669 212.581664 
L 259.271524 212.634243 
L 259.389505 212.834998 
L 259.802438 212.832569 
L 259.920419 212.996892 
L 260.274361 212.986244 
L 260.510322 213.120614 
L 260.805274 213.134535 
L 260.923255 213.255188 
L 261.159217 213.244506 
L 261.277197 213.453887 
L 261.926091 213.392117 
L 262.044072 213.556684 
L 262.810947 213.670502 
L 262.928928 213.7852 
L 263.164889 213.878549 
L 263.459841 213.92398 
L 263.695803 213.956393 
L 263.872774 214.123072 
L 264.285707 214.160585 
L 264.462678 214.302674 
L 264.934601 214.384256 
L 265.111572 214.475412 
L 265.524505 214.554446 
L 265.760466 214.703943 
L 265.937437 214.694415 
L 266.114408 214.844853 
L 266.40936 214.910688 
L 266.527341 215.012231 
L 266.763303 214.95877 
L 266.999264 215.115251 
L 267.294216 215.13642 
L 267.530178 215.236019 
L 267.766139 215.263148 
L 268.297052 215.32559 
L 268.474024 215.478543 
L 268.592004 215.567014 
L 268.768976 215.63189 
L 269.122918 215.671392 
L 269.41787 215.72511 
L 269.594841 215.903419 
L 269.830802 215.890785 
L 270.066764 216.026819 
L 270.184745 216.131084 
L 270.302725 216.109286 
L 270.597677 216.371625 
L 271.01061 216.372956 
L 271.246571 216.626965 
L 271.541523 216.646516 
L 271.718494 216.850757 
L 272.013446 216.855601 
L 272.190418 217.091208 
L 272.308398 217.091768 
L 272.485369 217.238947 
L 273.016283 217.395636 
L 273.193254 217.658858 
L 273.429216 217.720547 
L 273.665177 217.956639 
L 274.1371 218.191982 
L 274.255081 218.268228 
L 274.432052 218.337577 
L 274.609023 218.497844 
L 274.785994 218.55563 
L 274.962965 218.676752 
L 275.021956 218.674296 
L 275.198927 218.906849 
L 275.552869 218.915333 
L 275.72984 219.08495 
L 275.906811 219.160016 
L 276.142773 219.332608 
L 276.378735 219.311739 
L 276.496715 219.434234 
L 276.555706 219.41458 
L 276.732677 219.642447 
L 277.086619 219.767118 
L 277.145609 219.753001 
L 277.322581 219.950277 
L 277.499552 220.042063 
L 277.735513 220.185147 
L 277.912484 220.233522 
L 278.502388 220.593696 
L 278.620369 220.537352 
L 278.73835 220.805114 
L 279.151282 220.906865 
L 279.800177 221.219402 
L 279.918157 221.199947 
L 280.095128 221.4484 
L 280.508061 221.605133 
L 280.744023 221.693506 
L 280.920994 221.670027 
L 281.097965 221.954201 
L 281.392917 222.025507 
L 281.569888 222.20875 
L 281.687869 222.293417 
L 281.746859 222.282285 
L 281.86484 222.418647 
L 281.92383 222.403308 
L 282.100801 222.52077 
L 282.513734 222.638814 
L 282.690705 222.787606 
L 282.808686 222.888666 
L 283.044647 222.976914 
L 283.221619 223.186876 
L 283.51657 223.193138 
L 283.693542 223.359843 
L 283.811522 223.341676 
L 283.988494 223.591513 
L 284.165465 223.610092 
L 284.342436 223.820637 
L 284.519407 223.89372 
L 284.696378 224.066731 
L 285.05032 224.162219 
L 285.227291 224.34629 
L 285.522243 224.364655 
L 285.699215 224.603159 
L 285.876186 224.683594 
L 286.112147 224.774647 
L 286.289118 224.803746 
L 286.466089 225.05534 
L 286.702051 225.166144 
L 286.761041 225.172711 
L 286.938012 225.382157 
L 286.997003 225.374752 
L 287.114984 225.564516 
L 287.409936 225.629317 
L 287.586907 225.762096 
L 287.763878 225.790893 
L 287.940849 226.023145 
L 288.11782 226.086278 
L 288.530753 226.198918 
L 288.707724 226.530141 
L 288.825705 226.583669 
L 289.002676 226.622465 
L 289.120657 226.749323 
L 289.415608 226.787445 
L 289.65157 227.038725 
L 290.123493 227.053252 
L 290.182483 227.324657 
L 290.241474 227.311804 
L 290.300464 227.319743 
L 290.477435 227.531396 
L 290.654406 227.547657 
L 290.890368 227.751568 
L 291.126329 227.793109 
L 291.421281 227.922793 
L 291.775224 228.036959 
L 291.952195 228.241069 
L 292.129166 228.332798 
L 292.424118 228.507314 
L 292.483108 228.49525 
L 292.660079 228.697115 
L 292.896041 228.729226 
L 293.073012 228.917991 
L 293.367964 228.989478 
L 293.544935 229.167607 
L 293.780897 229.187027 
L 293.957868 229.408432 
L 294.016858 229.403809 
L 294.134839 229.511997 
L 294.31181 229.510396 
L 294.3708 229.502873 
L 294.547771 229.794627 
L 294.901714 229.866931 
L 295.019695 230.028695 
L 295.491618 230.169946 
L 295.727579 230.375263 
L 295.90455 230.377975 
L 296.258493 230.632519 
L 296.553444 230.81055 
L 296.612435 230.805865 
L 296.730416 230.978096 
L 296.907387 231.059486 
L 297.910223 231.591217 
L 298.087194 231.716236 
L 298.146185 231.704032 
L 298.323156 231.919178 
L 298.382146 231.918939 
L 298.559117 232.044562 
L 298.618108 232.047881 
L 298.736088 232.258232 
L 299.03104 232.259019 
L 299.208012 232.490453 
L 299.325992 232.579457 
L 299.738925 232.707014 
L 299.856906 232.949342 
L 300.269838 233.026953 
L 300.682771 233.422135 
L 300.918733 233.469948 
L 301.331665 233.795233 
L 301.508636 233.8457 
L 301.744598 233.979418 
L 301.803588 233.977597 
L 301.980559 234.142338 
L 302.15753 234.173751 
L 302.275511 234.303139 
L 302.511473 234.318749 
L 302.688444 234.551098 
L 302.924405 234.588146 
L 303.101377 234.711727 
L 303.160367 234.706934 
L 303.337338 234.928334 
L 303.455319 235.010739 
L 303.63229 235.114182 
L 303.986232 235.271728 
L 304.163203 235.332247 
L 304.340175 235.517793 
L 304.635126 235.599487 
L 304.812098 235.701222 
L 305.284021 236.003744 
L 305.755944 236.327733 
L 305.814934 236.322823 
L 305.991905 236.515414 
L 306.050896 236.50354 
L 306.227867 236.680909 
L 306.522819 236.753349 
L 306.69979 237.019362 
L 307.053732 237.043686 
L 307.230703 237.287316 
L 307.407674 237.371081 
L 307.584645 237.446632 
L 307.643636 237.440489 
L 307.820607 237.535621 
L 308.115559 237.894698 
L 308.29253 237.943706 
L 308.469501 238.085983 
L 308.646472 238.180142 
L 308.882434 238.350081 
L 309.059405 238.325161 
L 309.236376 238.462072 
L 309.354357 238.55562 
L 309.413347 238.56016 
L 309.531328 238.694874 
L 309.649309 238.683249 
L 309.82628 238.893632 
L 309.88527 238.88431 
L 310.062241 239.012572 
L 310.298203 239.147747 
L 311.242049 239.671945 
L 311.301039 239.660494 
L 311.478011 239.892482 
L 311.537001 239.917422 
L 311.654982 240.147812 
L 311.713972 240.100528 
L 312.008924 240.184848 
L 312.185895 240.385859 
L 312.421857 240.419078 
L 312.716808 240.70127 
L 312.89378 240.769123 
L 313.306712 241.049219 
L 313.365703 241.040686 
L 313.424693 241.285357 
L 313.483683 241.260152 
L 313.778635 241.305503 
L 314.014597 241.541774 
L 314.132578 241.52358 
L 314.309549 241.680947 
L 314.48652 241.739743 
L 314.663491 242.017292 
L 314.899453 242.008891 
L 315.135414 242.250434 
L 315.371376 242.365665 
L 315.548347 242.518045 
L 315.725318 242.624832 
L 315.843299 242.720312 
L 315.902289 242.702611 
L 316.07926 242.875588 
L 316.138251 242.857757 
L 316.315222 243.096562 
L 316.492193 243.108029 
L 316.669164 243.285104 
L 317.023106 243.3625 
L 317.200077 243.654063 
L 317.436039 243.716368 
L 317.495029 243.716811 
L 317.672 243.932126 
L 317.848972 243.972861 
L 318.084933 244.147886 
L 318.261904 244.23596 
L 319.08777 244.832893 
L 319.264741 244.899732 
L 319.441712 244.991633 
L 319.618683 245.094716 
L 319.795654 245.273365 
L 320.975462 245.960722 
L 321.211423 246.171126 
L 321.388394 246.372687 
L 321.624356 246.36695 
L 321.919308 246.613419 
L 321.978298 246.61008 
L 322.155269 246.798833 
L 322.450221 246.950495 
L 322.686183 247.156223 
L 322.863154 247.160106 
L 323.040125 247.297385 
L 323.099115 247.286365 
L 323.276086 247.476043 
L 323.453058 247.52685 
L 323.630029 247.76924 
L 323.983971 247.964186 
L 324.160942 248.108158 
L 324.337913 248.193429 
L 324.514884 248.352655 
L 324.573875 248.33822 
L 324.750846 248.499179 
L 324.809836 248.500219 
L 325.045798 248.847545 
L 325.222769 248.828294 
L 325.281759 248.95396 
L 325.34075 248.913232 
L 325.812673 249.130498 
L 325.989644 249.369909 
L 326.166615 249.486839 
L 326.402577 249.583187 
L 326.461567 249.563711 
L 326.520557 249.739651 
L 326.579548 249.691617 
L 328.290269 250.892913 
L 328.46724 251.060529 
L 328.585221 251.058335 
L 328.762192 251.259168 
L 328.939163 251.299933 
L 329.588057 251.78536 
L 329.647048 251.767137 
L 329.824019 251.8913 
L 330.118971 252.163457 
L 330.295942 252.180363 
L 330.472913 252.383608 
L 330.649884 252.435502 
L 330.885845 252.604798 
L 330.944836 252.562317 
L 331.121807 252.876862 
L 331.298778 252.895653 
L 331.416759 252.902136 
L 331.59373 253.130404 
L 331.65272 253.079631 
L 331.829692 253.249043 
L 331.888682 253.246031 
L 332.006663 253.364456 
L 332.183634 253.446858 
L 332.360605 253.604484 
L 332.537576 253.621804 
L 332.714547 253.842773 
L 332.773538 253.832923 
L 332.950509 254.019612 
L 333.304451 254.08633 
L 333.540413 254.345847 
L 333.717384 254.44651 
L 333.776374 254.427223 
L 333.953345 254.616841 
L 334.071326 254.602494 
L 334.248297 254.780445 
L 334.425268 254.852855 
L 334.72022 255.197436 
L 334.897191 255.20318 
L 335.192143 255.38371 
L 335.900028 255.902077 
L 336.018009 255.984648 
L 336.19498 256.07346 
L 336.489932 256.33412 
L 336.843874 256.461696 
L 337.020845 256.645572 
L 337.079835 256.642438 
L 337.256807 256.905314 
L 337.374787 256.96298 
L 337.669739 257.046815 
L 337.78772 257.167266 
L 337.84671 257.158522 
L 338.141662 257.49298 
L 338.200653 257.477167 
L 338.377624 257.645898 
L 338.613585 257.67647 
L 340.501277 258.981729 
L 340.619258 259.072621 
L 347.580123 263.745303 
L 347.816084 263.897235 
L 348.288008 264.188351 
L 348.582959 264.463088 
L 348.64195 264.45555 
L 348.818921 264.641021 
L 349.054882 264.665888 
L 349.290844 264.848442 
L 349.526806 265.046964 
L 349.821757 265.333744 
L 350.057719 265.38812 
L 350.883584 265.987062 
L 351.060555 266.054066 
L 351.237527 266.24513 
L 351.414498 266.255877 
L 351.591469 266.435302 
L 351.76844 266.528067 
L 351.945411 266.688915 
L 352.063392 266.687944 
L 352.240363 266.892779 
L 352.535315 267.00322 
L 353.715122 267.937802 
L 353.892094 267.965318 
L 354.246036 268.297939 
L 354.423007 268.313505 
L 354.83594 268.706622 
L 357.254545 270.30474 
L 357.490507 270.504731 
L 357.785459 270.614135 
L 357.96243 270.725237 
L 358.139401 270.80104 
L 358.552334 271.175477 
L 358.788295 271.227552 
L 359.673151 271.916451 
L 359.732141 271.901446 
L 359.909112 272.068624 
L 360.145074 272.164942 
L 360.322045 272.308772 
L 360.381035 272.311803 
L 360.558007 272.486742 
L 360.734978 272.55262 
L 361.02993 272.77997 
L 361.265891 272.8452 
L 361.619833 273.177276 
L 361.796805 273.312571 
L 361.855795 273.295036 
L 362.032766 273.492704 
L 362.209737 273.529603 
L 362.386708 273.727991 
L 362.504689 273.734863 
L 362.68166 273.856008 
L 362.858631 273.95101 
L 363.153583 274.204175 
L 363.330554 274.245524 
L 363.566516 274.48973 
L 363.802477 274.680261 
L 363.920458 274.751441 
L 364.097429 274.838289 
L 364.2744 274.9803 
L 364.451372 275.021868 
L 364.628343 275.268449 
L 364.805314 275.337404 
L 365.041275 275.478662 
L 365.218247 275.530409 
L 365.513198 275.761499 
L 365.572189 275.755707 
L 365.74916 275.94157 
L 365.80815 275.940419 
L 365.985121 276.128576 
L 366.221083 276.24156 
L 366.457045 276.425634 
L 367.046948 276.687042 
L 367.3419 277.004737 
L 368.167766 277.457983 
L 368.462717 277.750436 
L 368.580698 277.729093 
L 368.757669 277.906636 
L 368.93464 277.93555 
L 369.111612 278.131463 
L 369.170602 278.114032 
L 369.406564 278.310275 
L 369.701515 278.548242 
L 369.819496 278.5335 
L 369.996467 278.700312 
L 370.055458 278.648241 
L 370.114448 278.722587 
L 370.173438 278.713774 
L 370.35041 278.959174 
L 370.527381 279.021708 
L 370.704352 279.207815 
L 370.940313 279.277883 
L 373.240938 280.852212 
L 373.299929 280.835797 
L 373.53589 281.053509 
L 373.889832 281.290038 
L 374.066804 281.37874 
L 374.479736 281.660456 
L 374.656707 281.705315 
L 374.833678 281.872641 
L 375.06964 281.92335 
L 375.246611 282.206673 
L 375.305602 282.19625 
L 375.482573 282.382291 
L 375.659544 282.416396 
L 375.954496 282.691721 
L 376.131467 282.760243 
L 376.308438 282.888621 
L 376.485409 282.965949 
L 376.66238 283.036001 
L 377.370265 283.53551 
L 377.547236 283.593167 
L 377.724207 283.813663 
L 377.901178 283.869294 
L 378.13714 284.062802 
L 378.314111 284.116611 
L 378.491082 284.289836 
L 378.550072 284.27779 
L 378.727044 284.470446 
L 378.845024 284.505615 
L 379.198967 284.822863 
L 379.375938 284.830731 
L 379.78887 285.202851 
L 379.906851 285.245782 
L 380.142813 285.33328 
L 380.201803 285.32636 
L 380.378774 285.487353 
L 380.555745 285.538218 
L 380.732716 285.720115 
L 380.850697 285.808499 
L 381.32262 286.019949 
L 381.617572 286.289002 
L 381.794543 286.375154 
L 382.030505 286.624248 
L 382.325457 286.848113 
L 382.561418 286.915871 
L 382.738389 287.145361 
L 382.915361 287.178965 
L 383.092332 287.347377 
L 383.269303 287.426584 
L 383.505264 287.538473 
L 383.682235 287.621874 
L 383.977187 287.913592 
L 384.095168 288.003519 
L 384.39012 288.145586 
L 384.567091 288.30912 
L 384.803053 288.422645 
L 385.098005 288.681009 
L 385.274976 288.785439 
L 385.451947 288.874368 
L 385.510937 288.875645 
L 385.746899 289.100083 
L 385.92387 289.129001 
L 386.218822 289.301948 
L 386.395793 289.359544 
L 386.690745 289.622085 
L 387.044687 289.764872 
L 387.221658 289.971387 
L 387.280649 289.963519 
L 387.45762 290.13506 
L 387.634591 290.185795 
L 387.870552 290.415147 
L 387.988533 290.504076 
L 388.047524 290.457865 
L 388.224495 290.653692 
L 388.401466 290.744508 
L 388.755408 291.02855 
L 388.99137 291.131283 
L 389.10935 291.233629 
L 389.168341 291.223551 
L 389.345312 291.373379 
L 389.404302 291.374916 
L 389.581273 291.551572 
L 389.640264 291.543288 
L 389.935216 291.89715 
L 390.171177 291.905527 
L 390.348148 292.084011 
L 390.52512 292.113806 
L 390.761081 292.332322 
L 390.997043 292.534635 
L 391.115023 292.590448 
L 391.291994 292.642979 
L 391.468966 292.8008 
L 391.527956 292.792748 
L 391.704927 293.025947 
L 391.881898 293.071704 
L 392.17685 293.336916 
L 392.294831 293.31634 
L 392.471802 293.496408 
L 392.766754 293.616195 
L 392.943725 293.768628 
L 393.002715 293.76102 
L 393.120696 293.884344 
L 393.297667 293.908985 
L 393.474639 294.139804 
L 393.65161 294.139616 
L 393.828581 294.286861 
L 393.887571 294.288537 
L 394.064542 294.512718 
L 394.241513 294.627059 
L 394.418485 294.694552 
L 394.595456 294.860521 
L 394.654446 294.841849 
L 394.831417 295.092821 
L 395.008388 295.126842 
L 395.126369 295.218382 
L 395.18536 295.189222 
L 395.362331 295.370024 
L 395.421321 295.366678 
L 395.598292 295.523874 
L 395.775263 295.512614 
L 395.952234 295.731364 
L 396.011225 295.706817 
L 396.247186 295.905818 
L 398.37084 297.287558 
L 398.547811 297.39046 
L 398.724782 297.563019 
L 398.901753 297.664674 
L 399.078725 297.793705 
L 399.432667 297.965893 
L 399.727619 298.274307 
L 400.022571 298.368603 
L 400.848436 298.892921 
L 400.907426 298.882299 
L 401.084398 299.16604 
L 401.320359 299.292973 
L 401.43834 299.266531 
L 401.615311 299.431745 
L 401.674301 299.424042 
L 401.851272 299.613256 
L 402.028244 299.619604 
L 402.264205 299.895927 
L 402.382186 299.933702 
L 402.736128 300.194448 
L 402.795119 300.173056 
L 402.97209 300.309441 
L 403.974926 300.955677 
L 404.092907 300.914548 
L 404.328868 301.192411 
L 404.56483 301.405788 
L 405.567666 302.091254 
L 405.744638 302.180505 
L 405.921609 302.264585 
L 406.09858 302.350356 
L 406.275551 302.589308 
L 406.511512 302.678376 
L 406.747474 302.775435 
L 406.983435 302.991079 
L 407.455359 303.325578 
L 407.927282 303.609559 
L 408.104253 303.624067 
L 408.281224 303.88561 
L 408.458195 303.89323 
L 408.635166 304.081211 
L 408.694157 304.063325 
L 408.812137 304.215463 
L 409.107089 304.340453 
L 409.402041 304.609547 
L 409.579012 304.617653 
L 409.755983 304.811194 
L 409.873964 304.840685 
L 410.050935 304.978396 
L 410.227906 305.044453 
L 410.404878 305.248996 
L 410.522858 305.318735 
L 410.876801 305.466753 
L 411.053772 305.704729 
L 411.230743 305.766374 
L 411.407714 305.911398 
L 411.466704 305.90562 
L 411.584685 305.99868 
L 411.761656 306.041776 
L 413.059445 306.940485 
L 413.118435 306.932203 
L 413.295406 307.214452 
L 413.472377 307.220684 
L 413.590358 307.35962 
L 413.767329 307.433965 
L 414.062281 307.679217 
L 414.534204 307.858718 
L 414.770166 308.152077 
L 415.124108 308.3185 
L 416.008964 308.866792 
L 416.303916 309.118505 
L 416.421896 309.160011 
L 416.598867 309.215837 
L 416.775839 309.397588 
L 417.129781 309.522877 
L 417.306752 309.696198 
L 417.424733 309.772695 
L 417.719685 309.920604 
L 417.955646 310.121997 
L 418.132617 310.129187 
L 418.427569 310.44008 
L 418.60454 310.463896 
L 418.899492 310.710854 
L 419.017473 310.697714 
L 419.194444 310.888941 
L 419.371415 310.953234 
L 419.548386 311.203212 
L 419.725358 311.260084 
L 420.020309 311.493452 
L 420.256271 311.561437 
L 420.433242 311.734212 
L 420.492232 311.741884 
L 420.669204 311.918945 
L 420.728194 311.894444 
L 420.905165 312.080397 
L 420.964156 312.054896 
L 421.141127 312.235817 
L 421.259107 312.289849 
L 421.73103 312.48408 
L 421.908002 312.700572 
L 422.025982 312.749758 
L 422.202953 312.876102 
L 422.438915 313.07765 
L 422.615886 313.082478 
L 422.910838 313.334387 
L 422.969828 313.331641 
L 423.087809 313.466296 
L 423.323771 313.532687 
L 423.500742 313.661229 
L 423.972665 313.944745 
L 424.149636 314.155117 
L 424.503578 314.275654 
L 424.680549 314.449314 
L 424.857521 314.523923 
L 425.329444 314.906084 
L 425.860357 315.096708 
L 426.155309 315.370052 
L 426.214299 315.356373 
L 426.39127 315.500739 
L 426.509251 315.601894 
L 426.686222 315.6578 
L 426.922184 315.887419 
L 427.099155 315.897785 
L 428.043001 316.604149 
L 428.219972 316.594892 
L 428.455934 316.791075 
L 428.927857 317.156139 
L 428.986847 317.145554 
L 429.163818 317.329654 
L 429.576751 317.551404 
L 429.753722 317.693624 
L 429.930693 317.774104 
L 430.166655 317.92689 
L 430.461607 318.004199 
L 430.697568 318.267976 
L 430.815549 318.304318 
L 430.93353 318.354675 
L 430.99252 318.346438 
L 431.169491 318.542551 
L 431.877376 318.812392 
L 432.054347 319.079603 
L 432.349299 319.174736 
L 432.52627 319.326443 
L 432.644251 319.303867 
L 432.939203 319.696487 
L 433.234155 319.663744 
L 433.529106 319.942937 
L 433.765068 320.004665 
L 433.942039 320.254919 
L 434.531943 320.513222 
L 434.708914 320.725834 
L 434.885885 320.728116 
L 435.062856 320.942164 
L 435.416799 321.049975 
L 435.59377 321.248688 
L 435.770741 321.318058 
L 436.006702 321.523601 
L 436.242664 321.661912 
L 437.18651 322.218276 
L 437.363481 322.280235 
L 437.540452 322.566649 
L 437.776414 322.584752 
L 440.430981 324.264006 
L 440.489971 324.244245 
L 440.666942 324.535971 
L 440.961894 324.597504 
L 441.138865 324.660016 
L 441.256846 324.700289 
L 441.374827 324.962701 
L 441.610788 324.975912 
L 441.78776 325.194901 
L 442.023721 325.213617 
L 442.259683 325.388755 
L 442.377663 325.383844 
L 442.554635 325.567762 
L 442.731606 325.628823 
L 442.908577 325.855212 
L 443.144538 325.855176 
L 443.262519 325.853445 
L 443.43949 326.06481 
L 443.616461 326.031973 
L 443.852423 326.422023 
L 444.147375 326.453195 
L 445.03223 327.142061 
L 445.268192 327.14026 
L 445.445163 327.363598 
L 445.740115 327.48766 
L 445.917086 327.723996 
L 446.153048 327.730099 
L 446.330019 327.986038 
L 446.50699 328.038422 
L 446.683961 328.147689 
L 446.742952 328.132799 
L 446.860932 328.239125 
L 447.096894 328.330536 
L 447.214875 328.444203 
L 447.273865 328.434099 
L 447.509826 328.656814 
L 447.981749 328.916152 
L 448.09973 329.024155 
L 448.276701 329.012529 
L 448.453673 329.19461 
L 448.866605 329.39222 
L 449.043576 329.578191 
L 449.220547 329.617326 
L 449.397519 329.711585 
L 449.57449 329.885352 
L 449.810451 329.940342 
L 449.869442 329.931598 
L 449.987422 330.090081 
L 450.164394 330.104405 
L 450.636317 330.441658 
L 450.931268 330.540785 
L 451.10824 330.818121 
L 451.521172 330.857451 
L 451.698143 331.033076 
L 452.347038 331.421274 
L 452.582999 331.492811 
L 453.231893 331.84533 
L 453.290884 331.825115 
L 453.408864 331.916755 
L 453.467855 331.915517 
L 453.644826 332.13877 
L 454.057759 332.211322 
L 454.352711 332.548891 
L 454.647662 332.494266 
L 454.706653 332.670789 
L 454.765643 332.634535 
L 455.060595 332.708118 
L 455.296557 332.921257 
L 457.715162 333.957817 
L 457.833143 333.921397 
L 458.010114 334.023961 
L 458.187085 334.147126 
L 458.423047 334.202651 
L 459.130931 334.510694 
L 459.307902 334.509014 
L 459.543864 334.632243 
L 462.257421 335.586268 
L 462.493383 335.636361 
L 462.670354 335.712929 
L 462.965306 335.776379 
L 467.153623 336.786434 
L 467.330594 336.790681 
L 467.920498 336.918647 
L 469.86718 337.249991 
L 470.162132 337.233108 
L 470.339103 337.358799 
L 471.046988 337.376324 
L 471.518911 337.446614 
L 471.813863 337.403016 
L 472.108815 337.517894 
L 474.940353 337.802507 
L 475.058334 337.85451 
L 475.235305 337.780982 
L 475.471266 337.850794 
L 475.884199 337.980309 
L 476.179151 337.966969 
L 485.912564 338.503912 
L 486.089535 338.464981 
L 486.384487 338.527609 
L 486.797419 338.584995 
L 487.092371 338.517639 
L 487.623285 338.58662 
L 487.918237 338.582908 
L 488.154198 338.707381 
L 488.567131 338.608167 
L 488.980063 338.651558 
L 489.098044 338.495608 
L 489.275015 338.621214 
L 489.451987 338.66584 
L 489.687948 338.691416 
L 490.690784 338.708906 
L 490.867756 338.725676 
L 491.457659 338.733992 
L 492.047563 338.778915 
L 493.522323 338.846425 
L 493.817275 338.873809 
L 494.112227 338.787136 
L 494.466169 338.849372 
L 494.70213 338.778961 
L 495.351024 338.872771 
L 495.645976 338.80169 
L 495.822948 338.802178 
L 495.999919 338.902767 
L 496.471842 338.891776 
L 496.648813 338.89644 
L 498.241553 338.912318 
L 498.359534 338.821558 
L 498.595495 338.94297 
L 499.067418 338.994634 
L 499.36237 338.952736 
L 499.657322 338.942652 
L 500.660159 339.039575 
L 501.132082 339.033635 
L 501.309053 339.030632 
L 501.486024 338.958576 
L 501.839966 339.059261 
L 502.193909 339.017733 
L 502.37088 339.017851 
L 503.196745 339.085231 
L 503.432707 339.056313 
L 503.845639 339.094901 
L 504.081601 339.063918 
L 504.789485 339.102266 
L 505.320399 339.150031 
L 506.146264 339.173283 
L 507.326072 339.169585 
L 507.503043 339.248709 
L 507.739004 339.148342 
L 507.974966 339.235423 
L 508.387898 339.161735 
L 508.918812 339.207885 
L 509.272754 339.222321 
L 510.865494 339.279638 
L 510.983475 339.313904 
L 511.514389 339.309938 
L 512.930158 339.267815 
L 513.22511 339.291468 
L 514.227946 339.306454 
L 514.404917 339.330864 
L 521.778715 339.47634 
L 521.955686 339.524484 
L 522.427609 339.511498 
L 522.722561 339.531966 
L 525.318137 339.547185 
L 525.495109 339.596659 
L 527.087849 339.64099 
L 527.26482 339.640224 
L 527.795733 339.610491 
L 529.093522 339.602902 
L 529.211503 339.600807 
L 529.447464 339.674392 
L 529.860397 339.620411 
L 530.273329 339.623677 
L 530.568281 339.626087 
L 530.863233 339.706962 
L 531.630108 339.617748 
L 531.92506 339.664282 
L 532.161022 339.69868 
L 532.396983 339.656948 
L 532.632945 339.746643 
L 532.927896 339.796004 
L 533.340829 339.7606 
L 533.694771 339.725282 
L 534.579627 339.763531 
L 534.756598 339.775469 
L 534.99256 339.774107 
L 535.346502 339.757729 
L 535.641454 339.817395 
L 535.818425 339.788769 
L 536.172367 339.747517 
L 536.703281 339.753329 
L 536.880252 339.782104 
L 537.234194 339.828327 
L 537.647127 339.837463 
L 537.824098 339.804032 
L 538.11905 339.814812 
L 538.355011 339.809802 
L 538.649963 339.817172 
L 539.062896 339.890721 
L 539.416838 339.801097 
L 539.593809 339.828043 
L 541.776453 339.82197 
L 542.071405 339.815287 
L 542.7203 339.850946 
L 543.074242 339.833888 
L 543.369194 339.868296 
L 543.487174 339.8254 
L 543.723136 339.92113 
L 544.31304 339.811921 
L 545.079915 339.904875 
L 545.551838 339.891393 
L 545.84679 339.912715 
L 546.495684 339.90966 
L 546.613665 339.878217 
L 546.967607 339.887181 
L 547.911453 339.923775 
L 549.091261 339.973098 
L 549.268232 339.924015 
L 549.445203 339.947195 
L 549.622174 339.933881 
L 549.858135 339.958125 
L 550.271068 339.983883 
L 550.448039 339.950991 
L 550.860972 339.962481 
L 551.214914 340.021914 
L 551.450876 340.026435 
L 551.568856 339.949996 
L 551.863808 340.045156 
L 553.751501 340.070397 
L 553.987462 340.090524 
L 555.403231 340.093723 
L 555.639193 340.120798 
L 556.111116 340.144056 
L 556.583039 340.123371 
L 557.231933 340.158091 
L 559.119625 340.157889 
L 559.296596 340.252407 
L 560.181452 340.184835 
L 583.305681 340.60642 
L 583.482652 340.644118 
L 583.718614 340.738498 
L 584.013565 340.692495 
L 584.190537 340.761 
L 584.66246 340.749927 
L 584.898421 340.802773 
L 585.252363 340.757439 
L 585.429335 340.775505 
L 586.137219 340.834122 
L 586.31419 340.788301 
L 586.550152 340.85313 
L 586.727123 340.840877 
L 587.022075 340.82401 
L 587.965921 340.842569 
L 588.142892 340.835207 
L 588.496834 340.919579 
L 588.909767 340.831254 
L 589.145728 340.881123 
L 589.38169 340.841504 
L 589.912603 340.879118 
L 592.390199 340.946883 
L 592.56717 340.979879 
L 592.803132 340.953698 
L 593.157074 340.948338 
L 593.452026 341.014019 
L 593.746978 340.990485 
L 593.923949 341.026824 
L 594.159911 340.962602 
L 594.454863 341.038645 
L 594.631834 341.065543 
L 595.044766 341.060871 
L 596.401545 341.057294 
L 596.637507 341.050706 
L 597.22741 341.076338 
L 597.581353 341.112478 
L 598.348228 341.13745 
L 598.525199 341.084913 
L 599.115103 341.161144 
L 599.292074 341.158327 
L 599.999958 341.127282 
L 600.648853 341.17068 
L 608.199621 341.408776 
L 608.376592 341.475622 
L 608.612554 341.430112 
L 609.084477 341.396497 
L 609.261448 341.448068 
L 610.795198 341.428993 
L 610.972169 341.542729 
L 611.444092 341.444304 
L 611.621063 341.507904 
L 611.975005 341.531649 
L 612.151977 341.5365 
L 612.446928 341.458439 
L 612.859861 341.488337 
L 613.803707 341.56567 
L 613.980678 341.530998 
L 614.15765 341.553106 
L 614.983515 341.551558 
L 615.219476 341.575098 
L 615.396447 341.579087 
L 615.691399 341.545317 
L 615.868371 341.604317 
L 621.295485 341.731504 
L 621.413466 341.737495 
L 621.649428 341.731847 
L 622.06236 341.724578 
L 622.298322 341.757889 
L 624.068033 341.861557 
L 624.303995 341.815754 
L 624.598947 341.871007 
L 624.716928 341.826242 
L 625.011879 341.9437 
L 625.247841 341.842337 
L 626.899572 341.891562 
L 627.076543 341.919469 
L 627.666446 342.015019 
L 628.079379 341.9395 
L 628.315341 341.980939 
L 628.787264 342.008867 
L 629.023225 342.035218 
L 629.495148 341.955589 
L 629.73111 341.973062 
L 656.748704 342.680668 
L 657.515579 342.716631 
L 657.69255 342.731246 
L 657.928511 342.718077 
L 658.105482 342.751822 
L 658.577406 342.816823 
L 658.813367 342.754824 
L 659.816204 342.81689 
L 660.406107 342.794682 
L 660.87803 342.879646 
L 661.113992 342.78584 
L 661.703896 342.83019 
L 661.880867 342.865158 
L 662.41178 342.868093 
L 662.765723 342.865342 
L 663.001684 342.913113 
L 663.94553 342.989918 
L 664.181492 342.946254 
L 665.243318 343.000704 
L 665.42029 342.958108 
L 665.656251 343.009544 
L 665.892213 343.032543 
L 666.128174 343.04262 
L 666.364136 343.052759 
L 666.659088 343.130108 
L 666.836059 343.11504 
L 668.369809 343.083079 
L 668.54678 343.136274 
L 669.431635 343.119931 
L 669.608607 343.157164 
L 669.962549 343.10493 
L 670.257501 343.157461 
L 670.552453 343.08736 
L 670.788414 343.210587 
L 671.142356 343.12327 
L 671.73226 343.107232 
L 671.850241 343.111666 
L 672.027212 343.189499 
L 672.322164 343.114507 
L 672.735097 343.171717 
L 672.971058 343.170606 
L 673.148029 343.242687 
L 673.325 343.161366 
L 674.268847 343.264081 
L 674.445818 343.274646 
L 674.74077 343.232114 
L 674.976731 343.292646 
L 675.389664 343.250474 
L 675.625625 343.286042 
L 675.979568 343.29875 
L 676.215529 343.326143 
L 676.451491 343.278184 
L 676.746443 343.365086 
L 676.982404 343.298718 
L 677.277356 343.420225 
L 677.572308 343.300216 
L 677.92625 343.414361 
L 678.221202 343.311671 
L 678.575144 343.436979 
L 679.224038 343.432029 
L 679.46 343.378927 
L 679.46 343.378927 
" clip-path="url(#p34d820bb78)" style="fill: none; stroke: #0000ff; stroke-width: 1.5; stroke-linecap: square"/>
   </g>
   <g id="line2d_13">
    <path d="M 54.92 366.954545 
L 709.2 366.954545 
" clip-path="url(#p34d820bb78)" style="fill: none; stroke-dasharray: 0.37,0.16; stroke-dashoffset: 0; stroke: #000000; stroke-width: 0.1"/>
   </g>
   <g id="patch_3">
    <path d="M 54.92 382.84 
L 54.92 33.36 
" style="fill: none; stroke: #000000; stroke-width: 0.8; stroke-linejoin: miter; stroke-linecap: square"/>
   </g>
   <g id="patch_4">
    <path d="M 709.2 382.84 
L 709.2 33.36 
" style="fill: none; stroke: #000000; stroke-width: 0.8; stroke-linejoin: miter; stroke-linecap: square"/>
   </g>
   <g id="patch_5">
    <path d="M 54.92 382.84 
L 709.2 382.84 
" style="fill: none; stroke: #000000; stroke-width: 0.8; stroke-linejoin: miter; stroke-linecap: square"/>
   </g>
   <g id="patch_6">
    <path d="M 54.92 33.36 
L 709.2 33.36 
" style="fill: none; stroke: #000000; stroke-width: 0.8; stroke-linejoin: miter; stroke-linecap: square"/>
   </g>
   <g id="text_14">
    <!-- Closest Points -->
    <g transform="translate(305.520625 27.36) scale(0.22 -0.22)">
     <defs>
      <path id="DejaVuSans-43" d="M 4122 4306 
L 4122 3641 
Q 3803 3938 3442 4084 
Q 3081 4231 2675 4231 
Q 1875 4231 1450 3742 
Q 1025 3253 1025 2328 
Q 1025 1406 1450 917 
Q 1875 428 2675 428 
Q 3081 428 3442 575 
Q 3803 722 4122 1019 
L 4122 359 
Q 3791 134 3420 21 
Q 3050 -91 2638 -91 
Q 1578 -91 968 557 
Q 359 1206 359 2328 
Q 359 3453 968 4101 
Q 1578 4750 2638 4750 
Q 3056 4750 3426 4639 
Q 3797 4528 4122 4306 
z
" transform="scale(0.015625)"/>
      <path id="DejaVuSans-6c" d="M 603 4863 
L 1178 4863 
L 1178 0 
L 603 0 
L 603 4863 
z
" transform="scale(0.015625)"/>
      <path id="DejaVuSans-6f" d="M 1959 3097 
Q 1497 3097 1228 2736 
Q 959 2375 959 1747 
Q 959 1119 1226 758 
Q 1494 397 1959 397 
Q 2419 397 2687 759 
Q 2956 1122 2956 1747 
Q 2956 2369 2687 2733 
Q 2419 3097 1959 3097 
z
M 1959 3584 
Q 2709 3584 3137 3096 
Q 3566 2609 3566 1747 
Q 3566 888 3137 398 
Q 2709 -91 1959 -91 
Q 1206 -91 779 398 
Q 353 888 353 1747 
Q 353 2609 779 3096 
Q 1206 3584 1959 3584 
z
" transform="scale(0.015625)"/>
      <path id="DejaVuSans-20" transform="scale(0.015625)"/>
      <path id="DejaVuSans-50" d="M 1259 4147 
L 1259 2394 
L 2053 2394 
Q 2494 2394 2734 2622 
Q 2975 2850 2975 3272 
Q 2975 3691 2734 3919 
Q 2494 4147 2053 4147 
L 1259 4147 
z
M 628 4666 
L 2053 4666 
Q 2838 4666 3239 4311 
Q 3641 3956 3641 3272 
Q 3641 2581 3239 2228 
Q 2838 1875 2053 1875 
L 1259 1875 
L 1259 0 
L 628 0 
L 628 4666 
z
" transform="scale(0.015625)"/>
      <path id="DejaVuSans-6e" d="M 3513 2113 
L 3513 0 
L 2938 0 
L 2938 2094 
Q 2938 2591 2744 2837 
Q 2550 3084 2163 3084 
Q 1697 3084 1428 2787 
Q 1159 2491 1159 1978 
L 1159 0 
L 581 0 
L 581 3500 
L 1159 3500 
L 1159 2956 
Q 1366 3272 1645 3428 
Q 1925 3584 2291 3584 
Q 2894 3584 3203 3211 
Q 3513 2838 3513 2113 
z
" transform="scale(0.015625)"/>
     </defs>
     <use xlink:href="#DejaVuSans-43"/>
     <use xlink:href="#DejaVuSans-6c" x="69.824219"/>
     <use xlink:href="#DejaVuSans-6f" x="97.607422"/>
     <use xlink:href="#DejaVuSans-73" x="158.789062"/>
     <use xlink:href="#DejaVuSans-65" x="210.888672"/>
     <use xlink:href="#DejaVuSans-73" x="272.412109"/>
     <use xlink:href="#DejaVuSans-74" x="324.511719"/>
     <use xlink:href="#DejaVuSans-20" x="363.720703"/>
     <use xlink:href="#DejaVuSans-50" x="395.507812"/>
     <use xlink:href="#DejaVuSans-6f" x="452.185547"/>
     <use xlink:href="#DejaVuSans-69" x="513.367188"/>
     <use xlink:href="#DejaVuSans-6e" x="541.150391"/>
     <use xlink:href="#DejaVuSans-74" x="604.529297"/>
     <use xlink:href="#DejaVuSans-73" x="643.738281"/>
    </g>
   </g>
  </g>
 </g>
 <defs>
  <clipPath id="p34d820bb78">
   <rect x="54.92" y="33.36" width="654.28" height="349.48"/>
  </clipPath>
 </defs>
</svg>
