<?xml version="1.0" encoding="utf-8" standalone="no"?>
<!DOCTYPE svg PUBLIC "-//W3C//DTD SVG 1.1//EN"
  "http://www.w3.org/Graphics/SVG/1.1/DTD/svg11.dtd">
<svg xmlns:xlink="http://www.w3.org/1999/xlink" width="720pt" height="432pt" viewBox="0 0 720 432" xmlns="http://www.w3.org/2000/svg" version="1.1">
 <metadata>
  <rdf:RDF xmlns:dc="http://purl.org/dc/elements/1.1/" xmlns:cc="http://creativecommons.org/ns#" xmlns:rdf="http://www.w3.org/1999/02/22-rdf-syntax-ns#">
   <cc:Work>
    <dc:type rdf:resource="http://purl.org/dc/dcmitype/StillImage"/>
    <dc:date>2024-10-17T20:59:42.225529</dc:date>
    <dc:format>image/svg+xml</dc:format>
    <dc:creator>
     <cc:Agent>
      <dc:title>Matplotlib v3.7.5, https://matplotlib.org/</dc:title>
     </cc:Agent>
    </dc:creator>
   </cc:Work>
  </rdf:RDF>
 </metadata>
 <defs>
  <style type="text/css">*{stroke-linejoin: round; stroke-linecap: butt}</style>
 </defs>
 <g id="figure_1">
  <g id="patch_1">
   <path d="M 0 432 
L 720 432 
L 720 0 
L 0 0 
z
" style="fill: #ffffff"/>
  </g>
  <g id="axes_1">
   <g id="patch_2">
    <path d="M 64.91 375.64 
L 709.2 375.64 
L 709.2 36.24 
L 64.91 36.24 
z
" style="fill: #ffffff"/>
   </g>
   <g id="matplotlib.axis_1">
    <g id="xtick_1">
     <g id="line2d_1">
      <defs>
       <path id="m8a2c656c25" d="M 0 0 
L 0 3.5 
" style="stroke: #000000; stroke-width: 0.8"/>
      </defs>
      <g>
       <use xlink:href="#m8a2c656c25" x="94.195909" y="375.64" style="stroke: #000000; stroke-width: 0.8"/>
      </g>
     </g>
     <g id="text_1">
      <!-- 0 -->
      <g transform="translate(89.742159 393.277812) scale(0.14 -0.14)">
       <defs>
        <path id="DejaVuSans-30" d="M 2034 4250 
Q 1547 4250 1301 3770 
Q 1056 3291 1056 2328 
Q 1056 1369 1301 889 
Q 1547 409 2034 409 
Q 2525 409 2770 889 
Q 3016 1369 3016 2328 
Q 3016 3291 2770 3770 
Q 2525 4250 2034 4250 
z
M 2034 4750 
Q 2819 4750 3233 4129 
Q 3647 3509 3647 2328 
Q 3647 1150 3233 529 
Q 2819 -91 2034 -91 
Q 1250 -91 836 529 
Q 422 1150 422 2328 
Q 422 3509 836 4129 
Q 1250 4750 2034 4750 
z
" transform="scale(0.015625)"/>
       </defs>
       <use xlink:href="#DejaVuSans-30"/>
      </g>
     </g>
    </g>
    <g id="xtick_2">
     <g id="line2d_2">
      <g>
       <use xlink:href="#m8a2c656c25" x="210.375257" y="375.64" style="stroke: #000000; stroke-width: 0.8"/>
      </g>
     </g>
     <g id="text_2">
      <!-- 2000 -->
      <g transform="translate(192.560257 393.277812) scale(0.14 -0.14)">
       <defs>
        <path id="DejaVuSans-32" d="M 1228 531 
L 3431 531 
L 3431 0 
L 469 0 
L 469 531 
Q 828 903 1448 1529 
Q 2069 2156 2228 2338 
Q 2531 2678 2651 2914 
Q 2772 3150 2772 3378 
Q 2772 3750 2511 3984 
Q 2250 4219 1831 4219 
Q 1534 4219 1204 4116 
Q 875 4013 500 3803 
L 500 4441 
Q 881 4594 1212 4672 
Q 1544 4750 1819 4750 
Q 2544 4750 2975 4387 
Q 3406 4025 3406 3419 
Q 3406 3131 3298 2873 
Q 3191 2616 2906 2266 
Q 2828 2175 2409 1742 
Q 1991 1309 1228 531 
z
" transform="scale(0.015625)"/>
       </defs>
       <use xlink:href="#DejaVuSans-32"/>
       <use xlink:href="#DejaVuSans-30" x="63.623047"/>
       <use xlink:href="#DejaVuSans-30" x="127.246094"/>
       <use xlink:href="#DejaVuSans-30" x="190.869141"/>
      </g>
     </g>
    </g>
    <g id="xtick_3">
     <g id="line2d_3">
      <g>
       <use xlink:href="#m8a2c656c25" x="326.554605" y="375.64" style="stroke: #000000; stroke-width: 0.8"/>
      </g>
     </g>
     <g id="text_3">
      <!-- 4000 -->
      <g transform="translate(308.739605 393.277812) scale(0.14 -0.14)">
       <defs>
        <path id="DejaVuSans-34" d="M 2419 4116 
L 825 1625 
L 2419 1625 
L 2419 4116 
z
M 2253 4666 
L 3047 4666 
L 3047 1625 
L 3713 1625 
L 3713 1100 
L 3047 1100 
L 3047 0 
L 2419 0 
L 2419 1100 
L 313 1100 
L 313 1709 
L 2253 4666 
z
" transform="scale(0.015625)"/>
       </defs>
       <use xlink:href="#DejaVuSans-34"/>
       <use xlink:href="#DejaVuSans-30" x="63.623047"/>
       <use xlink:href="#DejaVuSans-30" x="127.246094"/>
       <use xlink:href="#DejaVuSans-30" x="190.869141"/>
      </g>
     </g>
    </g>
    <g id="xtick_4">
     <g id="line2d_4">
      <g>
       <use xlink:href="#m8a2c656c25" x="442.733952" y="375.64" style="stroke: #000000; stroke-width: 0.8"/>
      </g>
     </g>
     <g id="text_4">
      <!-- 6000 -->
      <g transform="translate(424.918952 393.277812) scale(0.14 -0.14)">
       <defs>
        <path id="DejaVuSans-36" d="M 2113 2584 
Q 1688 2584 1439 2293 
Q 1191 2003 1191 1497 
Q 1191 994 1439 701 
Q 1688 409 2113 409 
Q 2538 409 2786 701 
Q 3034 994 3034 1497 
Q 3034 2003 2786 2293 
Q 2538 2584 2113 2584 
z
M 3366 4563 
L 3366 3988 
Q 3128 4100 2886 4159 
Q 2644 4219 2406 4219 
Q 1781 4219 1451 3797 
Q 1122 3375 1075 2522 
Q 1259 2794 1537 2939 
Q 1816 3084 2150 3084 
Q 2853 3084 3261 2657 
Q 3669 2231 3669 1497 
Q 3669 778 3244 343 
Q 2819 -91 2113 -91 
Q 1303 -91 875 529 
Q 447 1150 447 2328 
Q 447 3434 972 4092 
Q 1497 4750 2381 4750 
Q 2619 4750 2861 4703 
Q 3103 4656 3366 4563 
z
" transform="scale(0.015625)"/>
       </defs>
       <use xlink:href="#DejaVuSans-36"/>
       <use xlink:href="#DejaVuSans-30" x="63.623047"/>
       <use xlink:href="#DejaVuSans-30" x="127.246094"/>
       <use xlink:href="#DejaVuSans-30" x="190.869141"/>
      </g>
     </g>
    </g>
    <g id="xtick_5">
     <g id="line2d_5">
      <g>
       <use xlink:href="#m8a2c656c25" x="558.9133" y="375.64" style="stroke: #000000; stroke-width: 0.8"/>
      </g>
     </g>
     <g id="text_5">
      <!-- 8000 -->
      <g transform="translate(541.0983 393.277812) scale(0.14 -0.14)">
       <defs>
        <path id="DejaVuSans-38" d="M 2034 2216 
Q 1584 2216 1326 1975 
Q 1069 1734 1069 1313 
Q 1069 891 1326 650 
Q 1584 409 2034 409 
Q 2484 409 2743 651 
Q 3003 894 3003 1313 
Q 3003 1734 2745 1975 
Q 2488 2216 2034 2216 
z
M 1403 2484 
Q 997 2584 770 2862 
Q 544 3141 544 3541 
Q 544 4100 942 4425 
Q 1341 4750 2034 4750 
Q 2731 4750 3128 4425 
Q 3525 4100 3525 3541 
Q 3525 3141 3298 2862 
Q 3072 2584 2669 2484 
Q 3125 2378 3379 2068 
Q 3634 1759 3634 1313 
Q 3634 634 3220 271 
Q 2806 -91 2034 -91 
Q 1263 -91 848 271 
Q 434 634 434 1313 
Q 434 1759 690 2068 
Q 947 2378 1403 2484 
z
M 1172 3481 
Q 1172 3119 1398 2916 
Q 1625 2713 2034 2713 
Q 2441 2713 2670 2916 
Q 2900 3119 2900 3481 
Q 2900 3844 2670 4047 
Q 2441 4250 2034 4250 
Q 1625 4250 1398 4047 
Q 1172 3844 1172 3481 
z
" transform="scale(0.015625)"/>
       </defs>
       <use xlink:href="#DejaVuSans-38"/>
       <use xlink:href="#DejaVuSans-30" x="63.623047"/>
       <use xlink:href="#DejaVuSans-30" x="127.246094"/>
       <use xlink:href="#DejaVuSans-30" x="190.869141"/>
      </g>
     </g>
    </g>
    <g id="xtick_6">
     <g id="line2d_6">
      <g>
       <use xlink:href="#m8a2c656c25" x="675.092648" y="375.64" style="stroke: #000000; stroke-width: 0.8"/>
      </g>
     </g>
     <g id="text_6">
      <!-- 10000 -->
      <g transform="translate(652.823898 393.277812) scale(0.14 -0.14)">
       <defs>
        <path id="DejaVuSans-31" d="M 794 531 
L 1825 531 
L 1825 4091 
L 703 3866 
L 703 4441 
L 1819 4666 
L 2450 4666 
L 2450 531 
L 3481 531 
L 3481 0 
L 794 0 
L 794 531 
z
" transform="scale(0.015625)"/>
       </defs>
       <use xlink:href="#DejaVuSans-31"/>
       <use xlink:href="#DejaVuSans-30" x="63.623047"/>
       <use xlink:href="#DejaVuSans-30" x="127.246094"/>
       <use xlink:href="#DejaVuSans-30" x="190.869141"/>
       <use xlink:href="#DejaVuSans-30" x="254.492188"/>
      </g>
     </g>
    </g>
    <g id="text_7">
     <!-- Timesteps -->
     <g transform="translate(330.616406 416.905937) scale(0.22 -0.22)">
      <defs>
       <path id="DejaVuSans-54" d="M -19 4666 
L 3928 4666 
L 3928 4134 
L 2272 4134 
L 2272 0 
L 1638 0 
L 1638 4134 
L -19 4134 
L -19 4666 
z
" transform="scale(0.015625)"/>
       <path id="DejaVuSans-69" d="M 603 3500 
L 1178 3500 
L 1178 0 
L 603 0 
L 603 3500 
z
M 603 4863 
L 1178 4863 
L 1178 4134 
L 603 4134 
L 603 4863 
z
" transform="scale(0.015625)"/>
       <path id="DejaVuSans-6d" d="M 3328 2828 
Q 3544 3216 3844 3400 
Q 4144 3584 4550 3584 
Q 5097 3584 5394 3201 
Q 5691 2819 5691 2113 
L 5691 0 
L 5113 0 
L 5113 2094 
Q 5113 2597 4934 2840 
Q 4756 3084 4391 3084 
Q 3944 3084 3684 2787 
Q 3425 2491 3425 1978 
L 3425 0 
L 2847 0 
L 2847 2094 
Q 2847 2600 2669 2842 
Q 2491 3084 2119 3084 
Q 1678 3084 1418 2786 
Q 1159 2488 1159 1978 
L 1159 0 
L 581 0 
L 581 3500 
L 1159 3500 
L 1159 2956 
Q 1356 3278 1631 3431 
Q 1906 3584 2284 3584 
Q 2666 3584 2933 3390 
Q 3200 3197 3328 2828 
z
" transform="scale(0.015625)"/>
       <path id="DejaVuSans-65" d="M 3597 1894 
L 3597 1613 
L 953 1613 
Q 991 1019 1311 708 
Q 1631 397 2203 397 
Q 2534 397 2845 478 
Q 3156 559 3463 722 
L 3463 178 
Q 3153 47 2828 -22 
Q 2503 -91 2169 -91 
Q 1331 -91 842 396 
Q 353 884 353 1716 
Q 353 2575 817 3079 
Q 1281 3584 2069 3584 
Q 2775 3584 3186 3129 
Q 3597 2675 3597 1894 
z
M 3022 2063 
Q 3016 2534 2758 2815 
Q 2500 3097 2075 3097 
Q 1594 3097 1305 2825 
Q 1016 2553 972 2059 
L 3022 2063 
z
" transform="scale(0.015625)"/>
       <path id="DejaVuSans-73" d="M 2834 3397 
L 2834 2853 
Q 2591 2978 2328 3040 
Q 2066 3103 1784 3103 
Q 1356 3103 1142 2972 
Q 928 2841 928 2578 
Q 928 2378 1081 2264 
Q 1234 2150 1697 2047 
L 1894 2003 
Q 2506 1872 2764 1633 
Q 3022 1394 3022 966 
Q 3022 478 2636 193 
Q 2250 -91 1575 -91 
Q 1294 -91 989 -36 
Q 684 19 347 128 
L 347 722 
Q 666 556 975 473 
Q 1284 391 1588 391 
Q 1994 391 2212 530 
Q 2431 669 2431 922 
Q 2431 1156 2273 1281 
Q 2116 1406 1581 1522 
L 1381 1569 
Q 847 1681 609 1914 
Q 372 2147 372 2553 
Q 372 3047 722 3315 
Q 1072 3584 1716 3584 
Q 2034 3584 2315 3537 
Q 2597 3491 2834 3397 
z
" transform="scale(0.015625)"/>
       <path id="DejaVuSans-74" d="M 1172 4494 
L 1172 3500 
L 2356 3500 
L 2356 3053 
L 1172 3053 
L 1172 1153 
Q 1172 725 1289 603 
Q 1406 481 1766 481 
L 2356 481 
L 2356 0 
L 1766 0 
Q 1100 0 847 248 
Q 594 497 594 1153 
L 594 3053 
L 172 3053 
L 172 3500 
L 594 3500 
L 594 4494 
L 1172 4494 
z
" transform="scale(0.015625)"/>
       <path id="DejaVuSans-70" d="M 1159 525 
L 1159 -1331 
L 581 -1331 
L 581 3500 
L 1159 3500 
L 1159 2969 
Q 1341 3281 1617 3432 
Q 1894 3584 2278 3584 
Q 2916 3584 3314 3078 
Q 3713 2572 3713 1747 
Q 3713 922 3314 415 
Q 2916 -91 2278 -91 
Q 1894 -91 1617 61 
Q 1341 213 1159 525 
z
M 3116 1747 
Q 3116 2381 2855 2742 
Q 2594 3103 2138 3103 
Q 1681 3103 1420 2742 
Q 1159 2381 1159 1747 
Q 1159 1113 1420 752 
Q 1681 391 2138 391 
Q 2594 391 2855 752 
Q 3116 1113 3116 1747 
z
" transform="scale(0.015625)"/>
      </defs>
      <use xlink:href="#DejaVuSans-54"/>
      <use xlink:href="#DejaVuSans-69" x="57.958984"/>
      <use xlink:href="#DejaVuSans-6d" x="85.742188"/>
      <use xlink:href="#DejaVuSans-65" x="183.154297"/>
      <use xlink:href="#DejaVuSans-73" x="244.677734"/>
      <use xlink:href="#DejaVuSans-74" x="296.777344"/>
      <use xlink:href="#DejaVuSans-65" x="335.986328"/>
      <use xlink:href="#DejaVuSans-70" x="397.509766"/>
      <use xlink:href="#DejaVuSans-73" x="460.986328"/>
     </g>
    </g>
   </g>
   <g id="matplotlib.axis_2">
    <g id="ytick_1">
     <g id="line2d_7">
      <defs>
       <path id="m1e5753df5f" d="M 0 0 
L -3.5 0 
" style="stroke: #000000; stroke-width: 0.8"/>
      </defs>
      <g>
       <use xlink:href="#m1e5753df5f" x="64.91" y="360.212727" style="stroke: #000000; stroke-width: 0.8"/>
      </g>
     </g>
     <g id="text_8">
      <!-- 0.0 -->
      <g transform="translate(35.645625 365.531634) scale(0.14 -0.14)">
       <defs>
        <path id="DejaVuSans-2e" d="M 684 794 
L 1344 794 
L 1344 0 
L 684 0 
L 684 794 
z
" transform="scale(0.015625)"/>
       </defs>
       <use xlink:href="#DejaVuSans-30"/>
       <use xlink:href="#DejaVuSans-2e" x="63.623047"/>
       <use xlink:href="#DejaVuSans-30" x="95.410156"/>
      </g>
     </g>
    </g>
    <g id="ytick_2">
     <g id="line2d_8">
      <g>
       <use xlink:href="#m1e5753df5f" x="64.91" y="294.169844" style="stroke: #000000; stroke-width: 0.8"/>
      </g>
     </g>
     <g id="text_9">
      <!-- 0.2 -->
      <g transform="translate(35.645625 299.48875) scale(0.14 -0.14)">
       <use xlink:href="#DejaVuSans-30"/>
       <use xlink:href="#DejaVuSans-2e" x="63.623047"/>
       <use xlink:href="#DejaVuSans-32" x="95.410156"/>
      </g>
     </g>
    </g>
    <g id="ytick_3">
     <g id="line2d_9">
      <g>
       <use xlink:href="#m1e5753df5f" x="64.91" y="228.126961" style="stroke: #000000; stroke-width: 0.8"/>
      </g>
     </g>
     <g id="text_10">
      <!-- 0.4 -->
      <g transform="translate(35.645625 233.445867) scale(0.14 -0.14)">
       <use xlink:href="#DejaVuSans-30"/>
       <use xlink:href="#DejaVuSans-2e" x="63.623047"/>
       <use xlink:href="#DejaVuSans-34" x="95.410156"/>
      </g>
     </g>
    </g>
    <g id="ytick_4">
     <g id="line2d_10">
      <g>
       <use xlink:href="#m1e5753df5f" x="64.91" y="162.084078" style="stroke: #000000; stroke-width: 0.8"/>
      </g>
     </g>
     <g id="text_11">
      <!-- 0.6 -->
      <g transform="translate(35.645625 167.402984) scale(0.14 -0.14)">
       <use xlink:href="#DejaVuSans-30"/>
       <use xlink:href="#DejaVuSans-2e" x="63.623047"/>
       <use xlink:href="#DejaVuSans-36" x="95.410156"/>
      </g>
     </g>
    </g>
    <g id="ytick_5">
     <g id="line2d_11">
      <g>
       <use xlink:href="#m1e5753df5f" x="64.91" y="96.041194" style="stroke: #000000; stroke-width: 0.8"/>
      </g>
     </g>
     <g id="text_12">
      <!-- 0.8 -->
      <g transform="translate(35.645625 101.360101) scale(0.14 -0.14)">
       <use xlink:href="#DejaVuSans-30"/>
       <use xlink:href="#DejaVuSans-2e" x="63.623047"/>
       <use xlink:href="#DejaVuSans-38" x="95.410156"/>
      </g>
     </g>
    </g>
    <g id="text_13">
     <!-- meter -->
     <g transform="translate(27.070313 239.025937) rotate(-90) scale(0.22 -0.22)">
      <defs>
       <path id="DejaVuSans-72" d="M 2631 2963 
Q 2534 3019 2420 3045 
Q 2306 3072 2169 3072 
Q 1681 3072 1420 2755 
Q 1159 2438 1159 1844 
L 1159 0 
L 581 0 
L 581 3500 
L 1159 3500 
L 1159 2956 
Q 1341 3275 1631 3429 
Q 1922 3584 2338 3584 
Q 2397 3584 2469 3576 
Q 2541 3569 2628 3553 
L 2631 2963 
z
" transform="scale(0.015625)"/>
      </defs>
      <use xlink:href="#DejaVuSans-6d"/>
      <use xlink:href="#DejaVuSans-65" x="97.412109"/>
      <use xlink:href="#DejaVuSans-74" x="158.935547"/>
      <use xlink:href="#DejaVuSans-65" x="198.144531"/>
      <use xlink:href="#DejaVuSans-72" x="259.667969"/>
     </g>
    </g>
   </g>
   <g id="line2d_12">
    <path d="M 94.195909 51.667273 
L 94.660626 51.84284 
L 94.951075 52.634598 
L 95.183434 52.72681 
L 95.706241 53.402539 
L 95.76433 53.353637 
L 96.112868 53.876927 
L 96.229048 54.002687 
L 96.403317 54.176288 
L 96.635675 54.447988 
L 96.868034 54.652529 
L 97.042303 54.875468 
L 97.216572 55.008816 
L 97.448931 55.358939 
L 97.507021 55.359374 
L 97.68129 55.588178 
L 97.739379 55.602391 
L 97.913648 55.801576 
L 98.087917 55.909813 
L 98.378366 56.438887 
L 98.494545 56.460753 
L 98.668814 56.741642 
L 98.959262 56.985954 
L 99.249711 57.446076 
L 99.482069 57.52231 
L 99.772518 58.070135 
L 99.946787 58.167752 
L 100.353415 58.653471 
L 100.527684 58.830414 
L 100.701953 59.015141 
L 101.340939 59.855627 
L 101.515208 59.91414 
L 101.805656 60.360386 
L 102.038015 60.514716 
L 102.677001 61.307198 
L 102.851271 61.468965 
L 103.083629 61.766134 
L 103.141719 61.741855 
L 103.432167 62.216805 
L 103.606436 62.296998 
L 103.896885 62.673709 
L 104.071154 62.792714 
L 104.303512 63.11865 
L 104.361602 63.094379 
L 104.593961 63.457458 
L 108.485969 67.828047 
L 108.544059 67.788203 
L 108.834507 68.207708 
L 109.183045 68.500825 
L 109.473493 68.898708 
L 109.647762 68.9879 
L 109.880121 69.317964 
L 110.11248 69.608847 
L 110.170569 69.567816 
L 110.461018 69.996295 
L 110.519107 69.983343 
L 110.809556 70.347351 
L 110.867645 70.366553 
L 111.041915 70.641639 
L 111.216184 70.784178 
L 111.448542 71.055352 
L 111.622811 71.187778 
L 112.029439 71.707912 
L 112.203708 71.831366 
L 112.436067 72.098732 
L 112.494156 72.101768 
L 112.668425 72.334399 
L 112.726515 72.34848 
L 113.016963 72.811592 
L 113.133143 72.896717 
L 113.307412 73.020982 
L 113.53977 73.361176 
L 113.59786 73.368871 
L 113.772129 73.605677 
L 113.946398 73.699119 
L 114.236847 74.128735 
L 114.294936 74.127593 
L 114.527295 74.413303 
L 114.701564 74.541172 
L 114.992012 74.966239 
L 115.166281 75.033862 
L 115.630999 75.617252 
L 115.689088 75.622301 
L 115.863357 75.88288 
L 115.979537 76.017517 
L 117.373689 77.40664 
L 117.489868 77.511296 
L 117.547958 77.525124 
L 117.838406 77.976674 
L 117.896496 77.997081 
L 118.070765 78.252426 
L 118.535482 78.704152 
L 118.825931 79.102486 
L 118.88402 79.084457 
L 119.05829 79.285784 
L 119.232559 79.430842 
L 119.464917 79.761402 
L 119.523007 79.765361 
L 119.697276 80.00051 
L 119.871545 80.126374 
L 120.045814 80.364563 
L 120.103904 80.369774 
L 120.394352 80.732974 
L 120.626711 80.839601 
L 120.859069 81.124335 
L 121.149518 81.495755 
L 121.207607 81.502032 
L 121.439966 81.776877 
L 121.730415 82.169152 
L 121.962773 82.287753 
L 122.195132 82.579459 
L 122.48558 82.97911 
L 122.659849 83.121052 
L 122.892208 83.362267 
L 122.950298 83.364932 
L 123.240746 83.767724 
L 123.531194 84.024485 
L 123.763553 84.334164 
L 128.817355 89.689519 
L 129.049713 89.945149 
L 129.282072 90.235035 
L 129.456341 90.366879 
L 129.74679 90.727255 
L 129.921059 90.866429 
L 130.385776 91.366063 
L 130.560045 91.509898 
L 130.908583 92.01426 
L 131.779928 92.952438 
L 131.954197 93.110932 
L 132.244645 93.486098 
L 132.302735 93.494356 
L 132.593184 93.935958 
L 132.825542 94.082853 
L 133.115991 94.475415 
L 133.17408 94.480795 
L 133.348349 94.738198 
L 133.406439 94.739386 
L 133.696887 95.156302 
L 133.929246 95.261962 
L 134.103515 95.572851 
L 135.207219 96.762559 
L 135.381488 96.835964 
L 136.891819 98.605654 
L 137.066088 98.719026 
L 137.240357 98.970571 
L 137.472716 99.101063 
L 137.646985 99.377529 
L 137.705075 99.383752 
L 137.879344 99.628666 
L 137.937434 99.64709 
L 138.111703 99.925592 
L 138.227882 100.027759 
L 138.692599 100.457464 
L 138.983048 100.886835 
L 139.157317 101.026687 
L 139.447765 101.454625 
L 139.563944 101.462301 
L 139.738213 101.697264 
L 139.796303 101.70314 
L 139.970572 102.000267 
L 140.144841 102.094701 
L 140.609559 102.689512 
L 140.783828 102.795333 
L 140.958097 103.021603 
L 141.016186 103.028948 
L 141.306635 103.450787 
L 141.538993 103.589622 
L 141.713262 103.895186 
L 142.875056 105.067063 
L 143.165504 105.491187 
L 143.339773 105.630134 
L 143.572132 105.920363 
L 143.630222 105.920348 
L 143.804491 106.135475 
L 143.92067 106.248056 
L 144.094939 106.409674 
L 144.269208 106.594664 
L 144.559656 106.972812 
L 144.617746 106.980418 
L 144.850105 107.28169 
L 145.024374 107.471888 
L 145.082463 107.47948 
L 145.314822 107.808801 
L 145.489091 107.949118 
L 146.418526 109.063146 
L 146.476616 109.057914 
L 146.767064 109.468016 
L 146.825154 109.471566 
L 147.115602 109.847367 
L 147.173692 109.84537 
L 147.40605 110.095717 
L 147.46414 110.096075 
L 147.638409 110.319311 
L 147.696499 110.325428 
L 148.045037 110.83386 
L 150.600982 113.519594 
L 150.659072 113.519928 
L 150.94952 113.997828 
L 151.12379 114.115573 
L 151.298059 114.345909 
L 151.472328 114.444846 
L 151.704686 114.789605 
L 151.878955 114.927104 
L 152.459852 115.596731 
L 152.634121 115.744204 
L 152.80839 115.999701 
L 152.86648 115.995885 
L 153.040749 116.260302 
L 153.098838 116.260389 
L 153.389287 116.678396 
L 153.621645 116.804617 
L 153.912094 117.24134 
L 154.202542 117.473384 
L 154.55108 117.918327 
L 154.783439 118.123682 
L 154.957708 118.241893 
L 155.306246 118.698511 
L 155.712874 119.216729 
L 155.945232 119.341523 
L 157.513654 121.129306 
L 157.687923 121.325935 
L 157.920281 121.476919 
L 158.09455 121.762495 
L 158.15264 121.75162 
L 158.326909 121.940983 
L 158.384999 121.93762 
L 158.559268 122.248773 
L 158.617357 122.258249 
L 158.849716 122.554208 
L 158.907806 122.573207 
L 159.082075 122.850035 
L 159.140164 122.867775 
L 159.314434 123.122866 
L 159.372523 123.134071 
L 159.546792 123.382661 
L 159.662972 123.500973 
L 159.89533 123.632035 
L 160.127689 124.04355 
L 160.592406 124.519796 
L 160.766675 124.8546 
L 160.999034 124.975545 
L 161.173303 125.133603 
L 161.347572 125.252449 
L 161.521841 125.610243 
L 161.69611 125.721176 
L 162.451276 126.602045 
L 163.032173 127.113851 
L 163.090262 127.13054 
L 163.264531 127.525028 
L 163.55498 127.719058 
L 163.845428 128.162921 
L 163.961607 128.151975 
L 164.252056 128.501452 
L 164.310145 128.518105 
L 164.542504 128.878359 
L 164.891042 129.226874 
L 164.949132 129.245128 
L 165.123401 129.518038 
L 165.29767 129.625428 
L 165.588118 130.072201 
L 165.646208 130.079137 
L 165.820477 130.254162 
L 166.343284 130.909689 
L 166.517553 131.007647 
L 166.691822 131.220784 
L 168.318333 133.091702 
L 168.492602 133.226556 
L 168.608781 133.503361 
L 168.666871 133.500081 
L 168.84114 133.68923 
L 169.015409 133.748322 
L 169.305857 134.259454 
L 169.363947 134.254555 
L 169.538216 134.567992 
L 169.712485 134.641251 
L 169.886754 134.836342 
L 170.061023 135.131841 
L 170.119113 135.12487 
L 170.293382 135.307127 
L 170.467651 135.425609 
L 170.70001 135.820463 
L 170.874279 135.91973 
L 171.222817 136.276653 
L 171.397086 136.474192 
L 171.455175 136.471571 
L 171.745624 136.979354 
L 171.977982 137.049862 
L 172.152251 137.315873 
L 172.210341 137.322814 
L 172.38461 137.530663 
L 172.4427 137.535354 
L 172.616969 137.831635 
L 172.675059 137.831427 
L 172.907417 138.12373 
L 173.023597 138.237818 
L 173.197866 138.352125 
L 173.372135 138.710955 
L 173.546404 138.852872 
L 174.18539 139.463678 
L 174.359659 139.744243 
L 174.533928 139.885091 
L 174.708197 140.245299 
L 174.882466 140.310104 
L 175.114825 140.743351 
L 175.405273 140.899359 
L 175.695722 141.333549 
L 175.869991 141.414254 
L 176.102349 141.804267 
L 176.218529 141.883057 
L 176.392798 142.048125 
L 177.089874 142.835792 
L 177.147963 142.83258 
L 177.322232 143.117084 
L 177.380322 143.12381 
L 177.554591 143.320789 
L 177.72886 143.345033 
L 177.961219 143.631558 
L 178.077398 144.068742 
L 178.367847 144.141375 
L 178.658295 144.551053 
L 178.716385 144.555109 
L 179.006833 144.980613 
L 179.123012 145.024112 
L 179.355371 145.176833 
L 179.52964 145.512319 
L 179.58773 145.519309 
L 179.820088 145.763712 
L 179.936268 145.802241 
L 180.110537 146.078045 
L 180.284806 146.176533 
L 180.342895 146.191048 
L 180.633344 146.649393 
L 180.807613 146.621914 
L 181.098061 147.235357 
L 181.446599 147.306752 
L 181.795137 147.865993 
L 181.969406 147.991851 
L 182.143675 148.123718 
L 182.317944 148.509225 
L 182.782662 148.620166 
L 183.247379 149.304161 
L 183.363559 149.323261 
L 183.537828 149.582176 
L 183.712097 149.841277 
L 183.886366 149.93288 
L 184.060635 150.266521 
L 184.118724 150.281785 
L 184.292993 150.499409 
L 184.525352 150.579385 
L 184.699621 150.866577 
L 184.87389 150.963015 
L 185.106249 151.339624 
L 185.280518 151.616453 
L 185.454787 151.707914 
L 185.687145 151.806988 
L 185.745235 151.807655 
L 185.919504 152.282936 
L 185.977594 152.282598 
L 186.151863 152.526437 
L 186.326132 152.541821 
L 186.500401 152.950458 
L 186.848939 152.951383 
L 187.023208 153.362236 
L 187.313656 153.46082 
L 187.720284 154.16165 
L 187.952643 154.261381 
L 188.126912 154.672782 
L 188.185001 154.666302 
L 188.47545 155.023821 
L 188.533539 155.035091 
L 188.707809 155.318384 
L 189.172526 155.645299 
L 189.346795 155.977176 
L 189.404885 155.97907 
L 189.579154 156.227039 
L 189.637243 156.223987 
L 189.753423 156.414377 
L 189.869602 156.495728 
L 189.927692 156.511795 
L 190.101961 156.792479 
L 190.392409 156.957804 
L 190.682857 157.46689 
L 190.915216 157.578014 
L 191.031395 157.751433 
L 191.205664 157.802407 
L 191.263754 157.794435 
L 191.438023 158.230636 
L 191.554203 158.299576 
L 191.728472 158.381197 
L 191.902741 158.600753 
L 192.135099 158.798784 
L 192.425548 159.140458 
L 192.483637 159.137732 
L 192.657906 159.407165 
L 192.715996 159.387371 
L 192.890265 159.530161 
L 193.006444 159.551204 
L 193.354982 159.949143 
L 193.471162 159.951984 
L 193.645431 160.32699 
L 193.8197 160.348243 
L 193.993969 160.665304 
L 194.226328 160.771772 
L 194.400597 161.04676 
L 194.691045 161.182076 
L 194.923404 161.607964 
L 195.155762 161.67599 
L 195.213852 161.691883 
L 195.388121 161.981992 
L 195.678569 162.074112 
L 195.852838 162.481265 
L 196.201376 162.529648 
L 196.375645 162.903834 
L 196.549914 163.007599 
L 196.840363 163.438607 
L 197.246991 163.521942 
L 197.42126 163.699813 
L 197.595529 163.900357 
L 197.769798 163.999163 
L 198.002156 164.357155 
L 198.350694 164.594564 
L 198.524963 164.969948 
L 198.641143 164.973855 
L 198.815412 165.092214 
L 198.989681 165.160645 
L 199.222039 165.481682 
L 199.512488 165.824679 
L 199.744847 165.906553 
L 199.919116 166.20811 
L 200.093385 166.302658 
L 200.209564 166.375038 
L 200.325743 166.357988 
L 200.441923 166.655855 
L 200.558102 166.651757 
L 200.674281 166.906467 
L 200.790461 166.935349 
L 200.96473 167.069265 
L 201.197088 167.137659 
L 201.371357 167.411156 
L 201.429447 167.395699 
L 201.719895 167.937917 
L 202.533151 168.266069 
L 202.591241 168.706164 
L 202.64933 168.695548 
L 202.997868 168.619766 
L 203.114048 168.820176 
L 203.172137 168.82476 
L 203.288317 169.142927 
L 203.404496 169.136374 
L 203.694944 169.565348 
L 203.753034 169.574778 
L 203.927303 169.744943 
L 203.985393 169.766288 
L 204.217751 170.103636 
L 204.275841 170.095193 
L 204.39202 170.22617 
L 204.5082 170.206168 
L 204.914828 170.691915 
L 204.972917 170.685699 
L 205.147186 171.062827 
L 205.495724 171.101611 
L 205.669993 171.295814 
L 205.728083 171.288424 
L 205.902352 171.569443 
L 205.960442 171.555466 
L 206.1928 171.806387 
L 206.25089 171.806716 
L 206.367069 172.255849 
L 206.483249 172.186502 
L 206.599428 172.33697 
L 206.947966 172.337655 
L 207.064145 172.582548 
L 207.122235 172.567218 
L 207.296504 172.928715 
L 207.470773 172.925452 
L 207.645042 173.294192 
L 207.703132 173.294736 
L 207.877401 173.572054 
L 208.05167 173.611302 
L 208.167849 173.604727 
L 208.458298 174.127388 
L 208.690656 174.137352 
L 208.806836 174.034139 
L 208.981105 174.565123 
L 209.097284 174.647766 
L 209.155374 174.655479 
L 209.271553 174.7967 
L 209.387732 174.73005 
L 209.503912 175.006504 
L 209.562001 175.002005 
L 209.678181 175.226271 
L 209.910539 175.196192 
L 210.084808 175.477096 
L 210.142898 175.48559 
L 210.317167 175.727061 
L 210.549526 175.822901 
L 210.723795 176.093171 
L 211.014243 176.125974 
L 211.188512 176.407333 
L 211.478961 176.450219 
L 211.65323 176.680085 
L 212.059857 177.029522 
L 212.234126 177.106603 
L 212.350306 177.294145 
L 212.466485 177.273846 
L 212.756933 177.639234 
L 213.105472 177.710716 
L 213.45401 178.262768 
L 213.512099 178.222369 
L 213.686368 178.251149 
L 213.860637 178.488938 
L 214.092996 178.47992 
L 214.267265 178.836327 
L 214.557713 178.896469 
L 215.13861 179.552527 
L 215.254789 179.617551 
L 215.312879 179.657662 
L 215.429058 179.878912 
L 215.603328 179.882291 
L 215.661417 179.896796 
L 215.835686 180.27225 
L 216.009955 180.332492 
L 216.765121 180.864895 
L 217.055569 181.265414 
L 217.404107 181.310465 
L 217.578376 181.616872 
L 217.694556 181.671356 
L 217.985004 181.845325 
L 218.159273 181.976864 
L 218.217363 181.980356 
L 218.449722 182.231378 
L 218.623991 182.276912 
L 218.79826 182.382612 
L 218.856349 182.365233 
L 218.914439 182.541018 
L 218.972529 182.509304 
L 219.204887 182.559558 
L 219.611515 182.959856 
L 219.843874 183.10803 
L 220.018143 183.290279 
L 220.308591 183.422403 
L 220.48286 183.579025 
L 220.599039 183.594596 
L 220.773308 183.893323 
L 221.063757 184.095015 
L 221.179936 184.226229 
L 221.296116 184.115847 
L 221.412295 184.144099 
L 221.586564 184.47773 
L 221.935102 184.515942 
L 222.167461 184.88911 
L 222.34173 185.046346 
L 222.574088 185.130416 
L 222.748357 185.349481 
L 222.980716 185.405599 
L 223.038806 185.401851 
L 223.213075 185.682268 
L 223.561613 185.747318 
L 223.735882 186.036782 
L 224.02633 186.071031 
L 224.14251 186.289436 
L 224.200599 186.284702 
L 224.374868 186.522827 
L 224.549137 186.511802 
L 224.897675 186.766562 
L 225.071944 186.732075 
L 225.246213 186.988731 
L 225.536662 186.927542 
L 225.652841 187.278435 
L 225.76902 187.245285 
L 225.943289 187.371453 
L 226.175648 187.48707 
L 226.349917 187.78603 
L 226.582276 187.850256 
L 226.814635 187.833344 
L 226.930814 188.018573 
L 227.163173 187.939014 
L 227.395531 188.280986 
L 227.744069 188.427711 
L 227.918338 188.518683 
L 228.499235 188.74669 
L 228.673504 189.160886 
L 228.789683 189.154299 
L 228.963953 189.313259 
L 229.022042 189.31169 
L 229.138222 189.170841 
L 229.254401 189.174171 
L 229.42867 189.551949 
L 229.777208 189.630509 
L 229.951477 189.942643 
L 230.358105 190.011089 
L 230.532374 190.279745 
L 230.648553 190.277368 
L 230.764732 190.148761 
L 231.055181 190.752677 
L 231.22945 190.702712 
L 231.403719 190.65891 
L 231.461808 190.656149 
L 231.577988 190.847553 
L 231.752257 190.798428 
L 231.984616 191.036037 
L 232.333154 191.481287 
L 232.391243 191.355684 
L 232.623602 191.461701 
L 232.797871 191.710969 
L 232.97214 191.648585 
L 233.146409 191.853579 
L 233.494947 191.911979 
L 233.669216 192.015461 
L 233.959664 191.99432 
L 234.075844 192.224959 
L 234.598651 192.21639 
L 234.77292 192.413752 
L 234.83101 192.416378 
L 235.005279 192.780375 
L 235.411906 192.946434 
L 235.528086 193.078508 
L 235.876624 192.894135 
L 235.934713 192.89302 
L 236.108982 193.190297 
L 236.167072 193.197977 
L 236.341341 193.424974 
L 236.399431 193.425192 
L 236.5737 193.583131 
L 236.864148 193.596879 
L 236.922238 193.59203 
L 237.096507 193.974106 
L 237.561224 194.018573 
L 237.735493 194.218891 
L 238.025942 194.15501 
L 238.142121 194.439985 
L 238.2583 194.518331 
L 238.37448 194.646953 
L 238.432569 194.748062 
L 238.490659 194.712481 
L 238.548749 194.716282 
L 238.664928 194.844276 
L 238.781107 194.828324 
L 238.897287 195.055991 
L 239.420094 195.043974 
L 239.594363 195.424693 
L 240.000991 195.435683 
L 240.11717 195.575893 
L 240.17526 195.559778 
L 240.349529 195.724058 
L 240.756156 195.82431 
L 240.930425 195.852002 
L 241.046605 195.861925 
L 241.220874 196.108005 
L 241.278963 196.109715 
L 241.395143 196.29286 
L 241.511322 196.255761 
L 241.685591 196.436543 
L 241.91795 196.356423 
L 242.092219 196.296951 
L 242.150308 196.306224 
L 242.266488 196.630478 
L 242.731205 196.606864 
L 243.312102 196.94015 
L 243.370192 196.929104 
L 243.544461 197.261074 
L 243.60255 197.26948 
L 243.776819 197.459324 
L 244.241537 197.458026 
L 244.415806 197.819239 
L 244.590075 197.777733 
L 244.706254 197.694139 
L 244.822433 197.723126 
L 244.996703 198.08116 
L 245.46142 198.11484 
L 245.635689 198.433306 
L 246.216586 198.465073 
L 246.390855 198.895849 
L 246.623213 198.791053 
L 246.971751 198.765525 
L 247.14602 199.299149 
L 247.726917 199.398991 
L 247.901186 199.596071 
L 248.191635 199.695511 
L 248.307814 199.808192 
L 248.423993 199.657175 
L 248.656352 200.042706 
L 248.830621 199.985825 
L 249.06298 200.034315 
L 249.237249 200.292396 
L 249.701966 200.336879 
L 249.876235 200.669959 
L 250.573311 200.813891 
L 250.74758 200.962837 
L 251.038029 201.05003 
L 251.154208 201.172735 
L 251.270387 201.12357 
L 251.386567 201.238815 
L 251.677015 201.211565 
L 251.851284 201.457961 
L 252.141732 201.392227 
L 252.257912 201.639015 
L 252.432181 201.569255 
L 252.664539 201.680219 
L 252.896898 201.722681 
L 253.245436 201.81726 
L 253.419705 201.817539 
L 253.477795 201.805915 
L 253.593974 201.980938 
L 253.884423 201.991859 
L 254.058692 202.098793 
L 254.232961 202.096943 
L 254.34914 202.284019 
L 254.639588 202.303712 
L 254.813857 202.408373 
L 254.988126 202.408533 
L 255.162395 202.566265 
L 255.452844 202.68229 
L 255.685203 202.755459 
L 255.859472 202.853898 
L 256.033741 202.925385 
L 256.440368 202.967375 
L 256.614637 203.112091 
L 257.021265 203.323474 
L 257.311713 203.326961 
L 257.544072 203.494037 
L 257.83452 203.416031 
L 258.008789 203.622123 
L 258.415417 203.728458 
L 258.589686 203.84868 
L 258.822045 203.768877 
L 258.996314 203.988978 
L 259.286762 204.018398 
L 259.402942 204.143163 
L 259.519121 204.080607 
L 259.867659 204.214283 
L 259.983838 204.276793 
L 260.274287 204.29734 
L 260.971363 204.51957 
L 261.261811 204.53918 
L 261.319901 204.652353 
L 261.377991 204.588475 
L 261.784618 204.711502 
L 261.900798 204.749228 
L 262.249336 204.769722 
L 262.423605 204.906816 
L 263.585398 205.168886 
L 263.875847 205.186524 
L 264.050116 205.215748 
L 264.166295 205.370209 
L 264.398654 205.403336 
L 264.456743 205.401446 
L 264.572923 205.509504 
L 264.689102 205.438141 
L 264.863371 205.463758 
L 265.153819 205.523278 
L 265.328088 205.711954 
L 265.792806 205.739923 
L 265.967075 205.783648 
L 266.141344 205.758325 
L 266.257523 205.947655 
L 266.664151 205.945364 
L 266.83842 206.084423 
L 267.128868 206.090295 
L 267.361227 206.217019 
L 267.651675 206.230147 
L 267.767855 206.343934 
L 268.000213 206.33386 
L 268.116393 206.531326 
L 268.755379 206.473072 
L 268.929648 206.635616 
L 269.626724 206.735615 
L 269.742904 206.843785 
L 269.975262 206.931823 
L 270.265711 206.974668 
L 270.498069 207.005236 
L 270.730428 207.153209 
L 272.298849 207.569257 
L 272.531208 207.710247 
L 272.705477 207.701261 
L 272.879746 207.843138 
L 273.170194 207.905227 
L 273.286374 208.000991 
L 273.518732 207.950573 
L 273.751091 208.098149 
L 274.041539 208.118113 
L 274.273898 208.212045 
L 274.506257 208.23763 
L 275.029064 208.296519 
L 275.377602 208.606931 
L 275.78423 208.567871 
L 276.016588 208.651796 
L 277.120292 209.120771 
L 277.236472 209.292138 
L 277.701189 209.284284 
L 277.933548 209.523838 
L 278.223996 209.542277 
L 278.398265 209.734895 
L 278.688713 209.739463 
L 278.862982 209.961663 
L 278.979162 209.962191 
L 279.153431 210.100995 
L 279.676238 210.248768 
L 279.850507 210.497011 
L 280.082866 210.555189 
L 280.315224 210.777846 
L 280.779942 210.999797 
L 280.954211 211.077354 
L 281.244659 211.288254 
L 281.418928 211.342752 
L 281.593197 211.456981 
L 281.651287 211.454664 
L 281.825556 211.673984 
L 282.174094 211.681985 
L 282.348363 211.84195 
L 282.522632 211.912745 
L 282.754991 212.075515 
L 282.987349 212.055834 
L 283.103529 212.171358 
L 283.161618 212.152822 
L 283.335887 212.367722 
L 283.684425 212.485299 
L 283.742515 212.471986 
L 283.916784 212.658035 
L 284.091053 212.744598 
L 284.323412 212.879539 
L 284.497681 212.925162 
L 285.078577 213.264841 
L 285.194757 213.211702 
L 285.369026 213.467322 
L 286.41464 213.853375 
L 286.47273 213.836592 
L 286.646999 214.070906 
L 287.053626 214.218721 
L 287.285985 214.302064 
L 287.460254 214.279922 
L 287.634523 214.547925 
L 287.924972 214.615173 
L 288.099241 214.787988 
L 288.27351 214.857339 
L 288.389689 214.985941 
L 288.505868 215.066888 
L 288.796317 215.078948 
L 288.912496 215.186898 
L 289.086765 215.274734 
L 289.377213 215.434853 
L 289.667662 215.66191 
L 289.841931 215.696563 
L 290.0162 215.71636 
L 290.190469 215.873578 
L 290.306648 215.856445 
L 290.480917 216.092065 
L 290.655186 216.109586 
L 290.829455 216.30815 
L 291.003724 216.377074 
L 291.177993 216.54024 
L 291.526531 216.630294 
L 291.7008 216.80389 
L 291.991249 216.82121 
L 292.165518 217.046142 
L 292.339787 217.122 
L 292.572145 217.207871 
L 292.746414 217.235314 
L 292.920683 217.472592 
L 293.211132 217.583284 
L 293.385401 217.780811 
L 293.443491 217.773827 
L 293.55967 217.952793 
L 293.850118 218.013906 
L 294.024387 218.139129 
L 294.198656 218.166288 
L 294.372925 218.385323 
L 294.547194 218.444864 
L 294.953822 218.551094 
L 295.128091 218.863468 
L 295.24427 218.91395 
L 295.418539 218.950539 
L 295.592808 219.05738 
L 295.825167 219.106131 
L 296.057526 219.343111 
L 296.522243 219.356811 
L 296.638423 219.600651 
L 296.696512 219.608137 
L 296.870781 219.807747 
L 297.04505 219.823082 
L 297.277409 220.015389 
L 297.509768 220.054566 
L 297.800216 220.17687 
L 298.148754 220.28454 
L 298.323023 220.477035 
L 298.613472 220.601297 
L 298.787741 220.728129 
L 298.84583 220.716751 
L 299.020099 220.907129 
L 299.252458 220.937413 
L 299.484817 221.107917 
L 300.356162 221.573609 
L 300.472341 221.67564 
L 300.64661 221.67413 
L 300.7047 221.667036 
L 300.878969 221.942186 
L 301.227507 222.010376 
L 301.401776 222.173962 
L 301.634135 222.207908 
L 301.924583 222.378518 
L 302.040762 222.489781 
L 302.215031 222.492339 
L 302.621659 222.791375 
L 302.679749 222.7919 
L 302.854018 222.900298 
L 302.912107 222.89588 
L 303.086376 223.057324 
L 303.260645 223.160636 
L 303.434914 223.190953 
L 303.609183 223.36013 
L 303.783452 223.409335 
L 304.30626 223.727571 
L 304.654798 223.945614 
L 304.829067 224.064088 
L 304.887156 224.067218 
L 305.061425 224.269126 
L 305.293784 224.266341 
L 305.468053 224.484605 
L 305.584232 224.568544 
L 305.99086 224.688842 
L 306.107039 224.917381 
L 306.513667 224.990576 
L 306.920295 225.363269 
L 307.152654 225.408362 
L 307.559281 225.715136 
L 307.73355 225.762731 
L 307.965909 225.88884 
L 308.140178 225.986615 
L 308.488716 226.194139 
L 308.779164 226.327988 
L 309.127702 226.462927 
L 309.301972 226.579477 
L 309.360061 226.574956 
L 309.53433 226.783757 
L 309.65051 226.861473 
L 309.824779 226.959029 
L 310.173317 227.10761 
L 310.347586 227.164685 
L 310.521855 227.339673 
L 310.812303 227.416718 
L 310.986572 227.512664 
L 311.509379 227.847021 
L 311.683648 227.881431 
L 311.799827 228.020946 
L 311.857917 228.003329 
L 312.090276 228.220779 
L 312.496904 228.495426 
L 312.671173 228.504919 
L 312.845442 228.755794 
L 313.19398 228.778734 
L 313.426338 229.013691 
L 313.658697 229.154121 
L 313.949145 229.242675 
L 314.239594 229.581318 
L 314.413863 229.627537 
L 314.588132 229.761718 
L 314.762401 229.850519 
L 314.99476 230.010787 
L 315.169029 229.987286 
L 315.343298 230.116406 
L 315.517567 230.208912 
L 315.633746 230.335959 
L 315.749925 230.324996 
L 315.924194 230.523407 
L 315.982284 230.514616 
L 316.156553 230.635579 
L 316.447001 230.801191 
L 316.62127 230.866425 
L 316.969808 231.134226 
L 317.202167 231.176876 
L 317.434526 231.377233 
L 317.608795 231.488938 
L 317.724974 231.706218 
L 317.783064 231.661624 
L 318.073512 231.741146 
L 318.247781 231.930718 
L 318.48014 231.962047 
L 318.886768 232.296037 
L 319.061037 232.369051 
L 319.235306 232.508509 
L 319.409575 232.548282 
L 319.467664 232.77903 
L 319.525754 232.755259 
L 319.816202 232.798029 
L 320.048561 233.020855 
L 320.164741 233.003697 
L 320.33901 233.152109 
L 320.513279 233.207558 
L 320.687548 233.469313 
L 320.919906 233.461391 
L 321.210355 233.745971 
L 321.500803 233.809079 
L 321.675072 234.048846 
L 321.907431 234.115634 
L 322.0817 234.278768 
L 322.139789 234.261952 
L 322.314058 234.487167 
L 322.488327 234.497982 
L 322.662596 234.66498 
L 323.011135 234.737972 
L 323.185404 235.012943 
L 323.417762 235.071703 
L 323.475852 235.072121 
L 323.650121 235.275183 
L 323.82439 235.3136 
L 324.056749 235.478665 
L 324.231018 235.561727 
L 325.160452 236.205188 
L 325.334721 236.262215 
L 325.56708 236.371615 
L 325.741349 236.540098 
L 326.903143 237.18834 
L 327.135501 237.386771 
L 327.30977 237.576863 
L 327.542129 237.571451 
L 327.832577 237.803895 
L 327.890667 237.800747 
L 328.064936 237.978758 
L 328.355385 238.12179 
L 328.587743 238.315811 
L 328.762012 238.319473 
L 328.936281 238.44894 
L 328.994371 238.438547 
L 329.16864 238.617431 
L 329.342909 238.665347 
L 329.517178 238.893944 
L 329.865716 239.077796 
L 330.039985 239.213575 
L 330.214254 239.293994 
L 330.388523 239.444159 
L 330.446613 239.430545 
L 330.620882 239.582345 
L 330.678971 239.583325 
L 330.91133 239.910887 
L 331.085599 239.892732 
L 331.143689 240.011247 
L 331.201779 239.972836 
L 331.666496 240.177738 
L 331.840765 240.403525 
L 332.015034 240.513801 
L 332.247393 240.604666 
L 332.305482 240.586299 
L 332.363572 240.752227 
L 332.421662 240.706926 
L 334.106262 241.839862 
L 334.280531 241.99794 
L 334.396711 241.995871 
L 334.57098 242.185275 
L 334.745249 242.22372 
L 335.384235 242.681524 
L 335.442325 242.664338 
L 335.616594 242.781436 
L 335.907042 243.038105 
L 336.081311 243.054049 
L 336.25558 243.245729 
L 336.429849 243.294669 
L 336.662208 243.454331 
L 336.720298 243.414268 
L 336.894567 243.710913 
L 337.068836 243.728635 
L 337.185015 243.734749 
L 337.359284 243.950027 
L 337.417374 243.902143 
L 337.591643 244.061915 
L 337.649732 244.059075 
L 337.765912 244.17076 
L 337.940181 244.248473 
L 338.11445 244.39713 
L 338.288719 244.413464 
L 338.462988 244.621858 
L 338.521077 244.612569 
L 338.695346 244.788634 
L 339.043885 244.851556 
L 339.276243 245.096305 
L 339.566692 245.271225 
L 339.79905 245.338347 
L 339.973319 245.506172 
L 340.147588 245.574462 
L 340.438037 245.899434 
L 340.670395 245.96841 
L 340.786575 245.961832 
L 340.960844 246.123281 
L 341.018933 246.111962 
L 341.193202 246.349283 
L 341.367471 246.370386 
L 341.59983 246.563977 
L 341.774099 246.637406 
L 341.948368 246.797216 
L 342.122637 246.85086 
L 342.296906 247.041452 
L 342.471175 247.095873 
L 342.587355 247.197658 
L 342.761624 247.262207 
L 342.935893 247.510123 
L 343.052072 247.564508 
L 343.34252 247.643572 
L 343.4587 247.75717 
L 343.632969 247.843042 
L 343.807238 248.064348 
L 343.865327 248.049435 
L 344.039596 248.208565 
L 344.271955 248.237396 
L 346.363183 249.615687 
L 346.479363 249.603726 
L 346.653632 249.847213 
L 346.827901 249.889086 
L 347.00217 250.050897 
L 347.176439 250.148782 
L 347.350708 250.282852 
L 347.466887 250.252836 
L 347.699246 250.456696 
L 347.989694 250.710861 
L 348.163963 250.725636 
L 348.338232 250.955614 
L 348.512501 250.962644 
L 348.628681 251.020816 
L 349.267667 251.460531 
L 349.383846 251.547817 
L 349.558116 251.605696 
L 350.139012 252.002774 
L 350.313281 252.09221 
L 350.48755 252.270821 
L 350.661819 252.324044 
L 350.952268 252.55224 
L 351.184626 252.614199 
L 351.358895 252.830832 
L 351.475075 252.870724 
L 352.230241 253.350134 
L 352.40451 253.396738 
L 352.636868 253.564796 
L 352.927317 253.72345 
L 353.159675 254.039632 
L 353.450124 254.117883 
L 353.624393 254.268746 
L 353.682482 254.259559 
L 353.972931 254.593763 
L 354.1472 254.63071 
L 354.321469 254.805626 
L 354.553827 254.829078 
L 354.786186 255.001243 
L 355.018545 255.188468 
L 355.367083 255.456784 
L 355.541352 255.510211 
L 356.354607 256.075069 
L 356.528876 256.138261 
L 356.761235 256.312226 
L 360.072346 258.437331 
L 360.246616 258.639871 
L 362.628292 260.147048 
L 362.860651 260.335658 
L 363.151099 260.438836 
L 363.325368 260.543616 
L 363.499637 260.615105 
L 363.906265 260.968235 
L 364.138624 261.017346 
L 365.009969 261.667043 
L 365.068058 261.652892 
L 365.242327 261.810557 
L 365.474686 261.901394 
L 365.648955 262.037039 
L 365.707045 262.039898 
L 365.881314 262.204882 
L 366.055583 262.267011 
L 366.346031 262.481423 
L 366.57839 262.542941 
L 366.985018 262.934542 
L 367.159287 262.967179 
L 367.333556 263.153599 
L 367.507825 263.188397 
L 367.682094 263.375496 
L 367.798273 263.381978 
L 367.972542 263.496228 
L 368.146811 263.585824 
L 368.43726 263.824582 
L 368.611529 263.863579 
L 368.843887 264.093888 
L 369.076246 264.273577 
L 369.192425 264.340707 
L 369.366694 264.422612 
L 369.540963 264.556542 
L 369.715232 264.595745 
L 369.889501 264.828294 
L 370.06377 264.893325 
L 370.296129 265.026545 
L 370.470398 265.075346 
L 370.760846 265.293286 
L 370.818936 265.287824 
L 370.993205 265.463111 
L 371.051295 265.462025 
L 371.225564 265.639474 
L 371.457923 265.746029 
L 371.690281 265.919628 
L 372.271178 266.16616 
L 372.561626 266.465777 
L 373.374882 266.893231 
L 373.66533 267.169042 
L 373.78151 267.148913 
L 373.955779 267.316353 
L 374.130048 267.343622 
L 374.304317 267.528386 
L 374.420496 267.605493 
L 374.710944 267.744662 
L 374.885213 267.921448 
L 375.001393 267.907545 
L 375.175662 268.064864 
L 375.233751 268.015757 
L 375.291841 268.085872 
L 375.349931 268.077561 
L 375.5242 268.308996 
L 375.698469 268.367971 
L 375.872738 268.543488 
L 376.163186 268.65024 
L 376.221276 268.657422 
L 376.395545 268.853151 
L 376.453635 268.830502 
L 376.627904 269.005128 
L 376.685993 268.996384 
L 376.860262 269.194558 
L 377.092621 269.216639 
L 377.26689 269.42805 
L 377.441159 269.435186 
L 377.615428 269.582726 
L 377.789697 269.68899 
L 377.963966 269.869295 
L 378.080145 269.872806 
L 378.254414 270.037605 
L 379.706656 270.902017 
L 379.880925 270.977291 
L 380.113284 271.114289 
L 380.171374 271.104493 
L 380.403732 271.361864 
L 380.578001 271.537318 
L 380.75227 271.569483 
L 381.042719 271.82914 
L 381.216988 271.893763 
L 381.391257 272.014835 
L 381.565526 272.087763 
L 381.739795 272.153828 
L 382.436871 272.624913 
L 382.61114 272.679289 
L 382.785409 272.887237 
L 382.959678 272.939703 
L 383.192037 273.122199 
L 383.366306 273.172945 
L 383.540575 273.336314 
L 383.598664 273.324952 
L 383.772933 273.506646 
L 383.889113 273.539813 
L 384.237651 273.839008 
L 384.41192 273.846428 
L 384.818548 274.197372 
L 384.934727 274.237861 
L 385.167086 274.32038 
L 385.225175 274.313854 
L 385.399444 274.465685 
L 385.573713 274.513655 
L 385.747982 274.685202 
L 385.864162 274.768556 
L 386.445058 275.041979 
L 386.619327 275.221715 
L 386.793596 275.302965 
L 387.025955 275.537884 
L 387.316404 275.74901 
L 387.548762 275.812912 
L 387.723031 276.029343 
L 387.8973 276.061035 
L 388.129659 276.211047 
L 388.303928 276.344804 
L 388.536287 276.394437 
L 388.710556 276.566433 
L 388.768645 276.563456 
L 388.942914 276.753857 
L 389.059094 276.838667 
L 389.63999 277.125333 
L 389.81426 277.312439 
L 389.988529 277.41838 
L 390.278977 277.641722 
L 390.453246 277.661165 
L 390.685605 277.87283 
L 390.859874 277.900102 
L 391.150322 278.063208 
L 391.324591 278.117526 
L 391.615039 278.365127 
L 391.963577 278.499789 
L 392.137846 278.694552 
L 392.195936 278.687132 
L 392.370205 278.848911 
L 392.544474 278.896759 
L 392.776833 279.113059 
L 392.893012 279.196928 
L 392.951102 279.153347 
L 393.183461 279.332995 
L 393.35773 279.488909 
L 393.473909 279.612176 
L 394.287164 280.018213 
L 394.461433 280.184816 
L 394.519523 280.177003 
L 394.809971 280.510729 
L 395.04233 280.518628 
L 395.216599 280.686956 
L 395.390868 280.715055 
L 395.623227 280.921137 
L 395.971765 281.164574 
L 396.146034 281.214116 
L 396.320303 281.362955 
L 396.378393 281.355362 
L 396.552662 281.575291 
L 396.726931 281.618443 
L 397.017379 281.868564 
L 397.133558 281.849159 
L 397.307827 282.01898 
L 397.598276 282.131951 
L 397.772545 282.275709 
L 397.830635 282.268534 
L 397.946814 282.38484 
L 398.121083 282.408079 
L 398.295352 282.625763 
L 398.469621 282.625585 
L 398.64389 282.764451 
L 398.70198 282.766033 
L 398.876249 282.977456 
L 399.108607 283.09522 
L 399.689504 283.522302 
L 400.212311 283.782821 
L 400.38658 283.931072 
L 400.560849 283.920453 
L 400.735118 284.126754 
L 400.851298 284.196202 
L 401.025567 284.29128 
L 403.116795 285.594393 
L 403.291064 285.691439 
L 403.465333 285.854178 
L 403.639602 285.950048 
L 403.813871 286.071736 
L 404.162409 286.234126 
L 404.452857 286.52499 
L 404.743306 286.61392 
L 405.556561 287.108401 
L 405.614651 287.098383 
L 405.78892 287.365978 
L 406.079368 287.465228 
L 406.137458 287.460751 
L 406.311727 287.616563 
L 406.369817 287.609298 
L 406.544086 287.787745 
L 406.718355 287.793731 
L 406.950713 288.054331 
L 407.124982 288.144646 
L 408.693404 289.032935 
L 408.751493 289.014986 
L 408.983852 289.277037 
L 409.216211 289.478271 
L 410.436094 290.295699 
L 410.610363 290.299728 
L 411.01699 290.680469 
L 411.19126 290.689042 
L 411.307439 290.798556 
L 411.365529 290.769978 
L 411.597887 290.973351 
L 412.062605 291.288815 
L 412.527322 291.556635 
L 412.701591 291.570318 
L 412.87586 291.816978 
L 413.050129 291.824164 
L 413.224398 292.001449 
L 413.282488 291.98458 
L 413.398667 292.128061 
L 413.689115 292.245938 
L 413.979564 292.499719 
L 414.153833 292.507364 
L 414.328102 292.689891 
L 414.444281 292.717704 
L 414.67664 292.849698 
L 415.199447 293.229497 
L 415.315626 293.206589 
L 415.606075 293.532579 
L 415.780344 293.590716 
L 415.954613 293.727487 
L 416.186971 293.798244 
L 416.36124 293.894587 
L 416.535509 293.970056 
L 416.709779 294.227897 
L 416.884048 294.24197 
L 417.058317 294.472116 
L 417.290675 294.493959 
L 417.464944 294.662494 
L 417.639213 294.690203 
L 417.813482 294.956391 
L 417.987751 294.962267 
L 418.16202 295.084578 
L 418.394379 295.232739 
L 418.742917 295.481703 
L 419.207634 295.775948 
L 419.439993 295.92213 
L 419.730442 296.010938 
L 419.904711 296.220571 
L 420.137069 296.31694 
L 420.485607 296.514703 
L 420.776056 296.752092 
L 420.950325 296.801629 
L 423.157732 298.099308 
L 423.332001 298.253827 
L 423.448181 298.241435 
L 423.62245 298.42178 
L 423.796719 298.482415 
L 423.970988 298.718167 
L 424.145257 298.771803 
L 424.435705 298.991891 
L 424.668064 299.056008 
L 424.842333 299.218951 
L 424.900423 299.226186 
L 425.074692 299.393171 
L 425.132781 299.370065 
L 425.30705 299.545436 
L 425.36514 299.521386 
L 425.539409 299.692011 
L 425.713678 299.755829 
L 426.120306 299.926147 
L 426.294575 300.130319 
L 426.468844 300.183909 
L 426.759292 300.499568 
L 426.991651 300.490492 
L 427.282099 300.728067 
L 427.340189 300.725477 
L 427.456368 300.852469 
L 427.688727 300.915082 
L 427.862996 301.036309 
L 428.327713 301.303692 
L 428.501982 301.502093 
L 428.85052 301.61577 
L 429.024789 301.779549 
L 429.199058 301.849911 
L 429.663776 302.210325 
L 430.302762 302.472232 
L 430.6513 302.755892 
L 430.999838 302.919265 
L 431.232197 303.135817 
L 431.406466 303.145593 
L 432.335901 303.811761 
L 432.51017 303.80303 
L 432.742529 303.98805 
L 433.207246 304.33234 
L 433.265336 304.322357 
L 433.439605 304.495981 
L 433.846232 304.705112 
L 434.020501 304.839238 
L 434.19477 304.915139 
L 434.427129 305.05923 
L 434.717577 305.13214 
L 435.008026 305.433962 
L 435.240384 305.454904 
L 435.414654 305.639857 
L 436.11173 305.894343 
L 436.285999 306.146348 
L 436.576447 306.236068 
L 436.750716 306.379141 
L 436.866895 306.35785 
L 437.157344 306.728128 
L 437.447792 306.697248 
L 437.73824 306.960553 
L 437.970599 307.018769 
L 438.144868 307.254782 
L 438.725765 307.498386 
L 438.900034 307.698899 
L 439.074303 307.701051 
L 439.248572 307.902919 
L 439.59711 308.004595 
L 439.771379 308.192 
L 439.945648 308.257422 
L 440.178007 308.451268 
L 440.410365 308.581709 
L 441.3398 309.106413 
L 441.514069 309.164846 
L 441.688338 309.434961 
L 441.920697 309.452034 
L 444.534732 311.035729 
L 444.592822 311.017093 
L 444.767091 311.292218 
L 445.057539 311.350249 
L 445.289898 311.44144 
L 445.347988 311.447185 
L 445.464167 311.694665 
L 445.696526 311.707124 
L 445.870795 311.913651 
L 446.103154 311.931302 
L 446.335512 312.096474 
L 446.451692 312.091842 
L 446.625961 312.265294 
L 446.80023 312.322881 
L 446.974499 312.536386 
L 447.206857 312.536352 
L 447.323037 312.53472 
L 447.497306 312.734058 
L 447.671575 312.703089 
L 447.903933 313.070943 
L 448.252471 313.151572 
L 448.310561 313.159149 
L 448.48483 313.34332 
L 449.762803 314.075939 
L 449.937072 314.298826 
L 450.169431 314.304582 
L 450.3437 314.545957 
L 450.517969 314.59536 
L 450.808417 314.807997 
L 450.982686 314.775511 
L 451.215045 314.97805 
L 451.273134 314.968521 
L 451.505493 315.178562 
L 451.970211 315.423142 
L 452.14448 315.520923 
L 452.493018 315.702258 
L 452.667287 315.806601 
L 452.783466 315.866831 
L 452.957735 315.985372 
L 453.190094 316.084415 
L 453.82908 316.380804 
L 453.945259 316.530268 
L 454.119529 316.543777 
L 454.642336 316.882006 
L 454.816605 316.954476 
L 454.874694 316.955324 
L 455.048963 317.216878 
L 455.455591 317.25397 
L 455.62986 317.419602 
L 456.268846 317.785709 
L 456.501205 317.853175 
L 457.314461 318.252994 
L 457.37255 318.251827 
L 457.546819 318.462376 
L 458.069626 318.617911 
L 458.360075 318.834839 
L 458.534344 318.797641 
L 458.592433 318.964119 
L 458.650523 318.929928 
L 458.940971 318.999324 
L 459.17333 319.200334 
L 461.555007 320.177908 
L 461.671186 320.14356 
L 461.845455 320.240289 
L 462.484442 320.447433 
L 462.658711 320.620824 
L 463.820504 320.983233 
L 464.227132 321.04662 
L 464.45949 321.219533 
L 464.749939 321.302777 
L 465.098477 321.377456 
L 465.272746 321.490318 
L 465.505105 321.49433 
L 465.795553 321.676252 
L 466.202181 321.717104 
L 466.550719 321.872564 
L 467.073526 322.004579 
L 469.339023 322.542082 
L 469.455202 322.563054 
L 470.036099 322.687224 
L 470.326548 322.752106 
L 470.965534 322.856563 
L 471.197893 322.933525 
L 471.66261 322.982475 
L 471.778789 322.983306 
L 471.953058 323.079403 
L 472.359686 323.069646 
L 472.650134 323.139331 
L 475.26417 323.443416 
L 475.554618 323.47093 
L 475.845067 323.573943 
L 476.077425 323.559964 
L 476.484053 323.558412 
L 476.716412 323.603461 
L 477.06495 323.647912 
L 478.633371 323.852858 
L 478.80764 323.783513 
L 479.039999 323.849353 
L 479.446626 323.971498 
L 479.737075 323.958917 
L 489.321871 324.465305 
L 489.49614 324.428589 
L 489.844678 324.50838 
L 492.342534 324.604549 
L 492.458713 324.457474 
L 492.632982 324.575932 
L 492.807251 324.618018 
L 493.03961 324.642139 
L 494.027134 324.658633 
L 494.201403 324.674449 
L 494.89848 324.669095 
L 496.292632 324.731645 
L 496.52499 324.708242 
L 496.757349 324.777646 
L 497.222067 324.778018 
L 497.454425 324.752612 
L 498.093412 324.721395 
L 498.32577 324.814011 
L 500.12655 324.78336 
L 500.300819 324.781779 
L 500.475088 324.831645 
L 500.707447 324.839144 
L 500.881716 324.899188 
L 502.101599 324.861885 
L 503.902379 324.95891 
L 504.076648 324.935063 
L 504.889903 324.937654 
L 505.122262 324.99359 
L 505.4708 324.918346 
L 505.761249 324.990527 
L 506.109787 324.988327 
L 506.342145 325.013544 
L 506.574504 324.986271 
L 506.981132 325.022664 
L 507.21349 324.993444 
L 507.910567 325.02961 
L 508.433374 325.074656 
L 509.246629 325.096585 
L 510.408423 325.093097 
L 510.582692 325.167718 
L 510.81505 325.073063 
L 511.047409 325.155188 
L 511.454037 325.085694 
L 511.976844 325.129218 
L 512.383471 325.142946 
L 512.848189 325.202804 
L 512.964368 325.224168 
L 513.254817 325.142805 
L 513.545265 325.153278 
L 514.242341 325.21786 
L 515.113686 325.242567 
L 515.404134 325.279095 
L 515.520314 325.217632 
L 515.694583 325.284074 
L 515.985031 325.170749 
L 516.333569 325.205556 
L 516.624018 325.202813 
L 516.914466 325.284876 
L 517.321094 325.192387 
L 517.495363 325.258396 
L 517.96008 325.265283 
L 518.134349 325.295617 
L 518.947605 325.241535 
L 519.179963 325.319841 
L 519.76086 325.216373 
L 524.698482 325.436074 
L 524.872751 325.413801 
L 525.221289 325.404992 
L 525.860276 325.41717 
L 534.399458 325.506042 
L 534.573727 325.545802 
L 535.038444 325.590981 
L 535.154624 325.610045 
L 535.386982 325.626728 
L 558.100045 326.030279 
L 558.332403 325.993942 
L 559.02948 325.96079 
L 559.378018 326.010918 
L 559.668466 326.000237 
L 560.075094 326.011079 
L 560.597901 325.99801 
L 560.830259 326.024459 
L 561.004528 326.074984 
L 561.527336 326.091068 
L 561.759694 326.068597 
L 562.050143 326.011932 
L 562.398681 326.046463 
L 564.141371 326.083422 
L 564.31564 326.107649 
L 564.606088 326.125076 
L 564.838447 326.114357 
L 573.668077 326.223645 
L 573.900436 326.248939 
L 574.074705 326.302069 
L 575.468857 326.34923 
L 575.759306 326.371704 
L 576.514471 326.289307 
L 577.734355 326.366124 
L 578.024803 326.385126 
L 579.360865 326.389612 
L 579.535134 326.379295 
L 579.883672 326.41642 
L 580.232211 326.399764 
L 580.871197 326.425299 
L 581.103556 326.370226 
L 581.974901 326.439529 
L 582.846246 326.499826 
L 582.962425 326.534749 
L 583.194784 326.441196 
L 583.775681 326.454448 
L 583.89186 326.441529 
L 584.124219 326.564797 
L 584.414667 326.487508 
L 584.763205 326.561024 
L 584.879384 326.597474 
L 585.111743 326.512422 
L 585.460281 326.534237 
L 585.69264 326.555142 
L 585.924999 326.529345 
L 586.099268 326.593952 
L 586.563985 326.583509 
L 586.796344 326.633348 
L 587.144882 326.590593 
L 587.319151 326.607631 
L 588.016227 326.662913 
L 588.248586 326.608642 
L 588.655213 326.645234 
L 589.061841 326.66599 
L 589.758917 326.715982 
L 589.991276 326.663936 
L 590.339814 326.743507 
L 590.746441 326.660208 
L 590.9788 326.70724 
L 591.211159 326.669875 
L 591.733966 326.705348 
L 594.231822 326.816032 
L 594.58036 326.775684 
L 594.928898 326.770629 
L 595.219346 326.832573 
L 595.509795 326.810378 
L 595.684064 326.844649 
L 595.974512 326.783988 
L 597.310575 326.866222 
L 597.542933 326.847269 
L 597.949561 326.827078 
L 598.646637 326.869921 
L 599.227534 326.932038 
L 599.86652 326.967915 
L 599.9827 327.005129 
L 600.215058 326.899432 
L 602.190107 326.969928 
L 602.364376 326.981456 
L 602.538645 326.992917 
L 602.712914 327.022446 
L 603.003363 326.995146 
L 603.40999 327.023089 
L 603.758528 327.048981 
L 603.932797 327.018414 
L 604.223246 327.11149 
L 604.513694 327.04702 
L 604.687963 327.111091 
L 605.26886 327.045548 
L 605.443129 327.081333 
L 605.675488 327.042089 
L 606.082115 327.02598 
L 606.314474 327.07708 
L 606.604922 327.117579 
L 606.895371 327.114575 
L 607.12773 327.140796 
L 607.360088 327.031334 
L 607.824806 327.143983 
L 609.799855 327.259988 
L 609.916034 327.267908 
L 610.148393 327.224987 
L 610.61311 327.193286 
L 610.787379 327.241922 
L 612.297711 327.223932 
L 612.47198 327.331196 
L 612.936697 327.238372 
L 613.110966 327.298353 
L 613.459504 327.320747 
L 613.633773 327.325322 
L 613.924221 327.251703 
L 614.330849 327.2799 
L 615.260284 327.352832 
L 615.725001 327.342597 
L 617.119153 327.333637 
L 617.293422 327.389279 
L 622.637672 327.509229 
L 622.753852 327.514879 
L 622.98621 327.509552 
L 623.392838 327.502697 
L 623.625197 327.534112 
L 625.367887 327.631882 
L 625.600246 327.588685 
L 625.890694 327.640793 
L 626.006874 327.598576 
L 626.297322 327.709349 
L 626.529681 327.613755 
L 629.027537 327.722637 
L 629.259895 327.664014 
L 629.550344 327.74447 
L 630.015061 327.770809 
L 630.305509 327.776283 
L 630.944496 327.737041 
L 658.71136 328.439661 
L 658.885629 328.471485 
L 659.350346 328.532787 
L 659.582705 328.474316 
L 660.860678 328.560933 
L 661.441575 328.624616 
L 661.615844 328.592035 
L 661.848202 328.503567 
L 662.429099 328.545393 
L 662.661458 328.588351 
L 663.068085 328.646539 
L 663.300444 328.537728 
L 666.843914 328.722975 
L 667.018183 328.755297 
L 667.308632 328.828244 
L 667.482901 328.814034 
L 668.993232 328.783891 
L 669.167501 328.834059 
L 670.038846 328.818646 
L 670.213115 328.853761 
L 670.561653 328.804499 
L 670.852102 328.854041 
L 671.14255 328.787929 
L 671.374909 328.904143 
L 671.723447 328.821795 
L 672.652882 328.854797 
L 672.827151 328.809372 
L 676.312531 328.956181 
L 677.009607 328.999003 
L 677.241966 329.049851 
L 677.474325 328.98726 
L 677.764773 329.101853 
L 678.055221 328.988673 
L 678.403759 329.096322 
L 678.694208 328.999475 
L 679.042746 329.117653 
L 679.739822 329.10688 
L 679.856001 329.11613 
L 679.914091 329.062904 
L 679.914091 329.062904 
" clip-path="url(#pb5d4b64ab8)" style="fill: none; stroke: #0000ff; stroke-width: 1.5; stroke-linecap: square"/>
   </g>
   <g id="line2d_13">
    <path d="M 64.91 360.212727 
L 709.2 360.212727 
" clip-path="url(#pb5d4b64ab8)" style="fill: none; stroke-dasharray: 0.37,0.16; stroke-dashoffset: 0; stroke: #000000; stroke-width: 0.1"/>
   </g>
   <g id="patch_3">
    <path d="M 64.91 375.64 
L 64.91 36.24 
" style="fill: none; stroke: #000000; stroke-width: 0.8; stroke-linejoin: miter; stroke-linecap: square"/>
   </g>
   <g id="patch_4">
    <path d="M 709.2 375.64 
L 709.2 36.24 
" style="fill: none; stroke: #000000; stroke-width: 0.8; stroke-linejoin: miter; stroke-linecap: square"/>
   </g>
   <g id="patch_5">
    <path d="M 64.91 375.64 
L 709.2 375.64 
" style="fill: none; stroke: #000000; stroke-width: 0.8; stroke-linejoin: miter; stroke-linecap: square"/>
   </g>
   <g id="patch_6">
    <path d="M 64.91 36.24 
L 709.2 36.24 
" style="fill: none; stroke: #000000; stroke-width: 0.8; stroke-linejoin: miter; stroke-linecap: square"/>
   </g>
   <g id="text_14">
    <!-- Closest Points -->
    <g transform="translate(296.599375 30.24) scale(0.26 -0.26)">
     <defs>
      <path id="DejaVuSans-43" d="M 4122 4306 
L 4122 3641 
Q 3803 3938 3442 4084 
Q 3081 4231 2675 4231 
Q 1875 4231 1450 3742 
Q 1025 3253 1025 2328 
Q 1025 1406 1450 917 
Q 1875 428 2675 428 
Q 3081 428 3442 575 
Q 3803 722 4122 1019 
L 4122 359 
Q 3791 134 3420 21 
Q 3050 -91 2638 -91 
Q 1578 -91 968 557 
Q 359 1206 359 2328 
Q 359 3453 968 4101 
Q 1578 4750 2638 4750 
Q 3056 4750 3426 4639 
Q 3797 4528 4122 4306 
z
" transform="scale(0.015625)"/>
      <path id="DejaVuSans-6c" d="M 603 4863 
L 1178 4863 
L 1178 0 
L 603 0 
L 603 4863 
z
" transform="scale(0.015625)"/>
      <path id="DejaVuSans-6f" d="M 1959 3097 
Q 1497 3097 1228 2736 
Q 959 2375 959 1747 
Q 959 1119 1226 758 
Q 1494 397 1959 397 
Q 2419 397 2687 759 
Q 2956 1122 2956 1747 
Q 2956 2369 2687 2733 
Q 2419 3097 1959 3097 
z
M 1959 3584 
Q 2709 3584 3137 3096 
Q 3566 2609 3566 1747 
Q 3566 888 3137 398 
Q 2709 -91 1959 -91 
Q 1206 -91 779 398 
Q 353 888 353 1747 
Q 353 2609 779 3096 
Q 1206 3584 1959 3584 
z
" transform="scale(0.015625)"/>
      <path id="DejaVuSans-20" transform="scale(0.015625)"/>
      <path id="DejaVuSans-50" d="M 1259 4147 
L 1259 2394 
L 2053 2394 
Q 2494 2394 2734 2622 
Q 2975 2850 2975 3272 
Q 2975 3691 2734 3919 
Q 2494 4147 2053 4147 
L 1259 4147 
z
M 628 4666 
L 2053 4666 
Q 2838 4666 3239 4311 
Q 3641 3956 3641 3272 
Q 3641 2581 3239 2228 
Q 2838 1875 2053 1875 
L 1259 1875 
L 1259 0 
L 628 0 
L 628 4666 
z
" transform="scale(0.015625)"/>
      <path id="DejaVuSans-6e" d="M 3513 2113 
L 3513 0 
L 2938 0 
L 2938 2094 
Q 2938 2591 2744 2837 
Q 2550 3084 2163 3084 
Q 1697 3084 1428 2787 
Q 1159 2491 1159 1978 
L 1159 0 
L 581 0 
L 581 3500 
L 1159 3500 
L 1159 2956 
Q 1366 3272 1645 3428 
Q 1925 3584 2291 3584 
Q 2894 3584 3203 3211 
Q 3513 2838 3513 2113 
z
" transform="scale(0.015625)"/>
     </defs>
     <use xlink:href="#DejaVuSans-43"/>
     <use xlink:href="#DejaVuSans-6c" x="69.824219"/>
     <use xlink:href="#DejaVuSans-6f" x="97.607422"/>
     <use xlink:href="#DejaVuSans-73" x="158.789062"/>
     <use xlink:href="#DejaVuSans-65" x="210.888672"/>
     <use xlink:href="#DejaVuSans-73" x="272.412109"/>
     <use xlink:href="#DejaVuSans-74" x="324.511719"/>
     <use xlink:href="#DejaVuSans-20" x="363.720703"/>
     <use xlink:href="#DejaVuSans-50" x="395.507812"/>
     <use xlink:href="#DejaVuSans-6f" x="452.185547"/>
     <use xlink:href="#DejaVuSans-69" x="513.367188"/>
     <use xlink:href="#DejaVuSans-6e" x="541.150391"/>
     <use xlink:href="#DejaVuSans-74" x="604.529297"/>
     <use xlink:href="#DejaVuSans-73" x="643.738281"/>
    </g>
   </g>
  </g>
 </g>
 <defs>
  <clipPath id="pb5d4b64ab8">
   <rect x="64.91" y="36.24" width="644.29" height="339.4"/>
  </clipPath>
 </defs>
</svg>
