<?xml version="1.0" encoding="utf-8" standalone="no"?>
<!DOCTYPE svg PUBLIC "-//W3C//DTD SVG 1.1//EN"
  "http://www.w3.org/Graphics/SVG/1.1/DTD/svg11.dtd">
<svg xmlns:xlink="http://www.w3.org/1999/xlink" width="720pt" height="432pt" viewBox="0 0 720 432" xmlns="http://www.w3.org/2000/svg" version="1.1">
 <metadata>
  <rdf:RDF xmlns:dc="http://purl.org/dc/elements/1.1/" xmlns:cc="http://creativecommons.org/ns#" xmlns:rdf="http://www.w3.org/1999/02/22-rdf-syntax-ns#">
   <cc:Work>
    <dc:type rdf:resource="http://purl.org/dc/dcmitype/StillImage"/>
    <dc:date>2024-10-17T20:00:24.360925</dc:date>
    <dc:format>image/svg+xml</dc:format>
    <dc:creator>
     <cc:Agent>
      <dc:title>Matplotlib v3.7.5, https://matplotlib.org/</dc:title>
     </cc:Agent>
    </dc:creator>
   </cc:Work>
  </rdf:RDF>
 </metadata>
 <defs>
  <style type="text/css">*{stroke-linejoin: round; stroke-linecap: butt}</style>
 </defs>
 <g id="figure_1">
  <g id="patch_1">
   <path d="M 0 432 
L 720 432 
L 720 0 
L 0 0 
z
" style="fill: #ffffff"/>
  </g>
  <g id="axes_1">
   <g id="patch_2">
    <path d="M 64.91 375.64 
L 709.2 375.64 
L 709.2 36.24 
L 64.91 36.24 
z
" style="fill: #ffffff"/>
   </g>
   <g id="matplotlib.axis_1">
    <g id="xtick_1">
     <g id="line2d_1">
      <defs>
       <path id="m4d79a3c76c" d="M 0 0 
L 0 3.5 
" style="stroke: #000000; stroke-width: 0.8"/>
      </defs>
      <g>
       <use xlink:href="#m4d79a3c76c" x="94.195909" y="375.64" style="stroke: #000000; stroke-width: 0.8"/>
      </g>
     </g>
     <g id="text_1">
      <!-- 0 -->
      <g transform="translate(89.742159 393.277812) scale(0.14 -0.14)">
       <defs>
        <path id="DejaVuSans-30" d="M 2034 4250 
Q 1547 4250 1301 3770 
Q 1056 3291 1056 2328 
Q 1056 1369 1301 889 
Q 1547 409 2034 409 
Q 2525 409 2770 889 
Q 3016 1369 3016 2328 
Q 3016 3291 2770 3770 
Q 2525 4250 2034 4250 
z
M 2034 4750 
Q 2819 4750 3233 4129 
Q 3647 3509 3647 2328 
Q 3647 1150 3233 529 
Q 2819 -91 2034 -91 
Q 1250 -91 836 529 
Q 422 1150 422 2328 
Q 422 3509 836 4129 
Q 1250 4750 2034 4750 
z
" transform="scale(0.015625)"/>
       </defs>
       <use xlink:href="#DejaVuSans-30"/>
      </g>
     </g>
    </g>
    <g id="xtick_2">
     <g id="line2d_2">
      <g>
       <use xlink:href="#m4d79a3c76c" x="210.375257" y="375.64" style="stroke: #000000; stroke-width: 0.8"/>
      </g>
     </g>
     <g id="text_2">
      <!-- 2000 -->
      <g transform="translate(192.560257 393.277812) scale(0.14 -0.14)">
       <defs>
        <path id="DejaVuSans-32" d="M 1228 531 
L 3431 531 
L 3431 0 
L 469 0 
L 469 531 
Q 828 903 1448 1529 
Q 2069 2156 2228 2338 
Q 2531 2678 2651 2914 
Q 2772 3150 2772 3378 
Q 2772 3750 2511 3984 
Q 2250 4219 1831 4219 
Q 1534 4219 1204 4116 
Q 875 4013 500 3803 
L 500 4441 
Q 881 4594 1212 4672 
Q 1544 4750 1819 4750 
Q 2544 4750 2975 4387 
Q 3406 4025 3406 3419 
Q 3406 3131 3298 2873 
Q 3191 2616 2906 2266 
Q 2828 2175 2409 1742 
Q 1991 1309 1228 531 
z
" transform="scale(0.015625)"/>
       </defs>
       <use xlink:href="#DejaVuSans-32"/>
       <use xlink:href="#DejaVuSans-30" x="63.623047"/>
       <use xlink:href="#DejaVuSans-30" x="127.246094"/>
       <use xlink:href="#DejaVuSans-30" x="190.869141"/>
      </g>
     </g>
    </g>
    <g id="xtick_3">
     <g id="line2d_3">
      <g>
       <use xlink:href="#m4d79a3c76c" x="326.554605" y="375.64" style="stroke: #000000; stroke-width: 0.8"/>
      </g>
     </g>
     <g id="text_3">
      <!-- 4000 -->
      <g transform="translate(308.739605 393.277812) scale(0.14 -0.14)">
       <defs>
        <path id="DejaVuSans-34" d="M 2419 4116 
L 825 1625 
L 2419 1625 
L 2419 4116 
z
M 2253 4666 
L 3047 4666 
L 3047 1625 
L 3713 1625 
L 3713 1100 
L 3047 1100 
L 3047 0 
L 2419 0 
L 2419 1100 
L 313 1100 
L 313 1709 
L 2253 4666 
z
" transform="scale(0.015625)"/>
       </defs>
       <use xlink:href="#DejaVuSans-34"/>
       <use xlink:href="#DejaVuSans-30" x="63.623047"/>
       <use xlink:href="#DejaVuSans-30" x="127.246094"/>
       <use xlink:href="#DejaVuSans-30" x="190.869141"/>
      </g>
     </g>
    </g>
    <g id="xtick_4">
     <g id="line2d_4">
      <g>
       <use xlink:href="#m4d79a3c76c" x="442.733952" y="375.64" style="stroke: #000000; stroke-width: 0.8"/>
      </g>
     </g>
     <g id="text_4">
      <!-- 6000 -->
      <g transform="translate(424.918952 393.277812) scale(0.14 -0.14)">
       <defs>
        <path id="DejaVuSans-36" d="M 2113 2584 
Q 1688 2584 1439 2293 
Q 1191 2003 1191 1497 
Q 1191 994 1439 701 
Q 1688 409 2113 409 
Q 2538 409 2786 701 
Q 3034 994 3034 1497 
Q 3034 2003 2786 2293 
Q 2538 2584 2113 2584 
z
M 3366 4563 
L 3366 3988 
Q 3128 4100 2886 4159 
Q 2644 4219 2406 4219 
Q 1781 4219 1451 3797 
Q 1122 3375 1075 2522 
Q 1259 2794 1537 2939 
Q 1816 3084 2150 3084 
Q 2853 3084 3261 2657 
Q 3669 2231 3669 1497 
Q 3669 778 3244 343 
Q 2819 -91 2113 -91 
Q 1303 -91 875 529 
Q 447 1150 447 2328 
Q 447 3434 972 4092 
Q 1497 4750 2381 4750 
Q 2619 4750 2861 4703 
Q 3103 4656 3366 4563 
z
" transform="scale(0.015625)"/>
       </defs>
       <use xlink:href="#DejaVuSans-36"/>
       <use xlink:href="#DejaVuSans-30" x="63.623047"/>
       <use xlink:href="#DejaVuSans-30" x="127.246094"/>
       <use xlink:href="#DejaVuSans-30" x="190.869141"/>
      </g>
     </g>
    </g>
    <g id="xtick_5">
     <g id="line2d_5">
      <g>
       <use xlink:href="#m4d79a3c76c" x="558.9133" y="375.64" style="stroke: #000000; stroke-width: 0.8"/>
      </g>
     </g>
     <g id="text_5">
      <!-- 8000 -->
      <g transform="translate(541.0983 393.277812) scale(0.14 -0.14)">
       <defs>
        <path id="DejaVuSans-38" d="M 2034 2216 
Q 1584 2216 1326 1975 
Q 1069 1734 1069 1313 
Q 1069 891 1326 650 
Q 1584 409 2034 409 
Q 2484 409 2743 651 
Q 3003 894 3003 1313 
Q 3003 1734 2745 1975 
Q 2488 2216 2034 2216 
z
M 1403 2484 
Q 997 2584 770 2862 
Q 544 3141 544 3541 
Q 544 4100 942 4425 
Q 1341 4750 2034 4750 
Q 2731 4750 3128 4425 
Q 3525 4100 3525 3541 
Q 3525 3141 3298 2862 
Q 3072 2584 2669 2484 
Q 3125 2378 3379 2068 
Q 3634 1759 3634 1313 
Q 3634 634 3220 271 
Q 2806 -91 2034 -91 
Q 1263 -91 848 271 
Q 434 634 434 1313 
Q 434 1759 690 2068 
Q 947 2378 1403 2484 
z
M 1172 3481 
Q 1172 3119 1398 2916 
Q 1625 2713 2034 2713 
Q 2441 2713 2670 2916 
Q 2900 3119 2900 3481 
Q 2900 3844 2670 4047 
Q 2441 4250 2034 4250 
Q 1625 4250 1398 4047 
Q 1172 3844 1172 3481 
z
" transform="scale(0.015625)"/>
       </defs>
       <use xlink:href="#DejaVuSans-38"/>
       <use xlink:href="#DejaVuSans-30" x="63.623047"/>
       <use xlink:href="#DejaVuSans-30" x="127.246094"/>
       <use xlink:href="#DejaVuSans-30" x="190.869141"/>
      </g>
     </g>
    </g>
    <g id="xtick_6">
     <g id="line2d_6">
      <g>
       <use xlink:href="#m4d79a3c76c" x="675.092648" y="375.64" style="stroke: #000000; stroke-width: 0.8"/>
      </g>
     </g>
     <g id="text_6">
      <!-- 10000 -->
      <g transform="translate(652.823898 393.277812) scale(0.14 -0.14)">
       <defs>
        <path id="DejaVuSans-31" d="M 794 531 
L 1825 531 
L 1825 4091 
L 703 3866 
L 703 4441 
L 1819 4666 
L 2450 4666 
L 2450 531 
L 3481 531 
L 3481 0 
L 794 0 
L 794 531 
z
" transform="scale(0.015625)"/>
       </defs>
       <use xlink:href="#DejaVuSans-31"/>
       <use xlink:href="#DejaVuSans-30" x="63.623047"/>
       <use xlink:href="#DejaVuSans-30" x="127.246094"/>
       <use xlink:href="#DejaVuSans-30" x="190.869141"/>
       <use xlink:href="#DejaVuSans-30" x="254.492188"/>
      </g>
     </g>
    </g>
    <g id="text_7">
     <!-- Timesteps -->
     <g transform="translate(330.616406 416.905937) scale(0.22 -0.22)">
      <defs>
       <path id="DejaVuSans-54" d="M -19 4666 
L 3928 4666 
L 3928 4134 
L 2272 4134 
L 2272 0 
L 1638 0 
L 1638 4134 
L -19 4134 
L -19 4666 
z
" transform="scale(0.015625)"/>
       <path id="DejaVuSans-69" d="M 603 3500 
L 1178 3500 
L 1178 0 
L 603 0 
L 603 3500 
z
M 603 4863 
L 1178 4863 
L 1178 4134 
L 603 4134 
L 603 4863 
z
" transform="scale(0.015625)"/>
       <path id="DejaVuSans-6d" d="M 3328 2828 
Q 3544 3216 3844 3400 
Q 4144 3584 4550 3584 
Q 5097 3584 5394 3201 
Q 5691 2819 5691 2113 
L 5691 0 
L 5113 0 
L 5113 2094 
Q 5113 2597 4934 2840 
Q 4756 3084 4391 3084 
Q 3944 3084 3684 2787 
Q 3425 2491 3425 1978 
L 3425 0 
L 2847 0 
L 2847 2094 
Q 2847 2600 2669 2842 
Q 2491 3084 2119 3084 
Q 1678 3084 1418 2786 
Q 1159 2488 1159 1978 
L 1159 0 
L 581 0 
L 581 3500 
L 1159 3500 
L 1159 2956 
Q 1356 3278 1631 3431 
Q 1906 3584 2284 3584 
Q 2666 3584 2933 3390 
Q 3200 3197 3328 2828 
z
" transform="scale(0.015625)"/>
       <path id="DejaVuSans-65" d="M 3597 1894 
L 3597 1613 
L 953 1613 
Q 991 1019 1311 708 
Q 1631 397 2203 397 
Q 2534 397 2845 478 
Q 3156 559 3463 722 
L 3463 178 
Q 3153 47 2828 -22 
Q 2503 -91 2169 -91 
Q 1331 -91 842 396 
Q 353 884 353 1716 
Q 353 2575 817 3079 
Q 1281 3584 2069 3584 
Q 2775 3584 3186 3129 
Q 3597 2675 3597 1894 
z
M 3022 2063 
Q 3016 2534 2758 2815 
Q 2500 3097 2075 3097 
Q 1594 3097 1305 2825 
Q 1016 2553 972 2059 
L 3022 2063 
z
" transform="scale(0.015625)"/>
       <path id="DejaVuSans-73" d="M 2834 3397 
L 2834 2853 
Q 2591 2978 2328 3040 
Q 2066 3103 1784 3103 
Q 1356 3103 1142 2972 
Q 928 2841 928 2578 
Q 928 2378 1081 2264 
Q 1234 2150 1697 2047 
L 1894 2003 
Q 2506 1872 2764 1633 
Q 3022 1394 3022 966 
Q 3022 478 2636 193 
Q 2250 -91 1575 -91 
Q 1294 -91 989 -36 
Q 684 19 347 128 
L 347 722 
Q 666 556 975 473 
Q 1284 391 1588 391 
Q 1994 391 2212 530 
Q 2431 669 2431 922 
Q 2431 1156 2273 1281 
Q 2116 1406 1581 1522 
L 1381 1569 
Q 847 1681 609 1914 
Q 372 2147 372 2553 
Q 372 3047 722 3315 
Q 1072 3584 1716 3584 
Q 2034 3584 2315 3537 
Q 2597 3491 2834 3397 
z
" transform="scale(0.015625)"/>
       <path id="DejaVuSans-74" d="M 1172 4494 
L 1172 3500 
L 2356 3500 
L 2356 3053 
L 1172 3053 
L 1172 1153 
Q 1172 725 1289 603 
Q 1406 481 1766 481 
L 2356 481 
L 2356 0 
L 1766 0 
Q 1100 0 847 248 
Q 594 497 594 1153 
L 594 3053 
L 172 3053 
L 172 3500 
L 594 3500 
L 594 4494 
L 1172 4494 
z
" transform="scale(0.015625)"/>
       <path id="DejaVuSans-70" d="M 1159 525 
L 1159 -1331 
L 581 -1331 
L 581 3500 
L 1159 3500 
L 1159 2969 
Q 1341 3281 1617 3432 
Q 1894 3584 2278 3584 
Q 2916 3584 3314 3078 
Q 3713 2572 3713 1747 
Q 3713 922 3314 415 
Q 2916 -91 2278 -91 
Q 1894 -91 1617 61 
Q 1341 213 1159 525 
z
M 3116 1747 
Q 3116 2381 2855 2742 
Q 2594 3103 2138 3103 
Q 1681 3103 1420 2742 
Q 1159 2381 1159 1747 
Q 1159 1113 1420 752 
Q 1681 391 2138 391 
Q 2594 391 2855 752 
Q 3116 1113 3116 1747 
z
" transform="scale(0.015625)"/>
      </defs>
      <use xlink:href="#DejaVuSans-54"/>
      <use xlink:href="#DejaVuSans-69" x="57.958984"/>
      <use xlink:href="#DejaVuSans-6d" x="85.742188"/>
      <use xlink:href="#DejaVuSans-65" x="183.154297"/>
      <use xlink:href="#DejaVuSans-73" x="244.677734"/>
      <use xlink:href="#DejaVuSans-74" x="296.777344"/>
      <use xlink:href="#DejaVuSans-65" x="335.986328"/>
      <use xlink:href="#DejaVuSans-70" x="397.509766"/>
      <use xlink:href="#DejaVuSans-73" x="460.986328"/>
     </g>
    </g>
   </g>
   <g id="matplotlib.axis_2">
    <g id="ytick_1">
     <g id="line2d_7">
      <defs>
       <path id="m05f6c81205" d="M 0 0 
L -3.5 0 
" style="stroke: #000000; stroke-width: 0.8"/>
      </defs>
      <g>
       <use xlink:href="#m05f6c81205" x="64.91" y="360.212727" style="stroke: #000000; stroke-width: 0.8"/>
      </g>
     </g>
     <g id="text_8">
      <!-- 0.0 -->
      <g transform="translate(35.645625 365.531634) scale(0.14 -0.14)">
       <defs>
        <path id="DejaVuSans-2e" d="M 684 794 
L 1344 794 
L 1344 0 
L 684 0 
L 684 794 
z
" transform="scale(0.015625)"/>
       </defs>
       <use xlink:href="#DejaVuSans-30"/>
       <use xlink:href="#DejaVuSans-2e" x="63.623047"/>
       <use xlink:href="#DejaVuSans-30" x="95.410156"/>
      </g>
     </g>
    </g>
    <g id="ytick_2">
     <g id="line2d_8">
      <g>
       <use xlink:href="#m05f6c81205" x="64.91" y="292.20467" style="stroke: #000000; stroke-width: 0.8"/>
      </g>
     </g>
     <g id="text_9">
      <!-- 0.2 -->
      <g transform="translate(35.645625 297.523576) scale(0.14 -0.14)">
       <use xlink:href="#DejaVuSans-30"/>
       <use xlink:href="#DejaVuSans-2e" x="63.623047"/>
       <use xlink:href="#DejaVuSans-32" x="95.410156"/>
      </g>
     </g>
    </g>
    <g id="ytick_3">
     <g id="line2d_9">
      <g>
       <use xlink:href="#m05f6c81205" x="64.91" y="224.196613" style="stroke: #000000; stroke-width: 0.8"/>
      </g>
     </g>
     <g id="text_10">
      <!-- 0.4 -->
      <g transform="translate(35.645625 229.515519) scale(0.14 -0.14)">
       <use xlink:href="#DejaVuSans-30"/>
       <use xlink:href="#DejaVuSans-2e" x="63.623047"/>
       <use xlink:href="#DejaVuSans-34" x="95.410156"/>
      </g>
     </g>
    </g>
    <g id="ytick_4">
     <g id="line2d_10">
      <g>
       <use xlink:href="#m05f6c81205" x="64.91" y="156.188556" style="stroke: #000000; stroke-width: 0.8"/>
      </g>
     </g>
     <g id="text_11">
      <!-- 0.6 -->
      <g transform="translate(35.645625 161.507462) scale(0.14 -0.14)">
       <use xlink:href="#DejaVuSans-30"/>
       <use xlink:href="#DejaVuSans-2e" x="63.623047"/>
       <use xlink:href="#DejaVuSans-36" x="95.410156"/>
      </g>
     </g>
    </g>
    <g id="ytick_5">
     <g id="line2d_11">
      <g>
       <use xlink:href="#m05f6c81205" x="64.91" y="88.180498" style="stroke: #000000; stroke-width: 0.8"/>
      </g>
     </g>
     <g id="text_12">
      <!-- 0.8 -->
      <g transform="translate(35.645625 93.499405) scale(0.14 -0.14)">
       <use xlink:href="#DejaVuSans-30"/>
       <use xlink:href="#DejaVuSans-2e" x="63.623047"/>
       <use xlink:href="#DejaVuSans-38" x="95.410156"/>
      </g>
     </g>
    </g>
    <g id="text_13">
     <!-- meter -->
     <g transform="translate(27.070313 239.025937) rotate(-90) scale(0.22 -0.22)">
      <defs>
       <path id="DejaVuSans-72" d="M 2631 2963 
Q 2534 3019 2420 3045 
Q 2306 3072 2169 3072 
Q 1681 3072 1420 2755 
Q 1159 2438 1159 1844 
L 1159 0 
L 581 0 
L 581 3500 
L 1159 3500 
L 1159 2956 
Q 1341 3275 1631 3429 
Q 1922 3584 2338 3584 
Q 2397 3584 2469 3576 
Q 2541 3569 2628 3553 
L 2631 2963 
z
" transform="scale(0.015625)"/>
      </defs>
      <use xlink:href="#DejaVuSans-6d"/>
      <use xlink:href="#DejaVuSans-65" x="97.412109"/>
      <use xlink:href="#DejaVuSans-74" x="158.935547"/>
      <use xlink:href="#DejaVuSans-65" x="198.144531"/>
      <use xlink:href="#DejaVuSans-72" x="259.667969"/>
     </g>
    </g>
   </g>
   <g id="line2d_12">
    <path d="M 94.195909 51.667273 
L 94.660626 51.848064 
L 94.951075 52.663382 
L 95.183434 52.758338 
L 95.706241 53.454173 
L 95.76433 53.403816 
L 96.112868 53.942678 
L 96.229048 54.07218 
L 96.403317 54.250947 
L 96.635675 54.530731 
L 96.868034 54.741358 
L 97.042303 54.970932 
L 97.216572 55.108247 
L 97.448931 55.468789 
L 97.507021 55.469237 
L 97.68129 55.704848 
L 97.739379 55.719484 
L 97.913648 55.924597 
L 98.087917 56.036054 
L 98.378366 56.580871 
L 98.494545 56.603388 
L 98.668814 56.892635 
L 98.959262 57.144217 
L 99.249711 57.618031 
L 99.482069 57.696533 
L 99.772518 58.260659 
L 99.946787 58.36118 
L 100.353415 58.861353 
L 100.527684 59.04356 
L 100.701953 59.233785 
L 101.340939 60.09928 
L 101.515208 60.159534 
L 101.805656 60.619058 
L 101.979925 60.763774 
L 102.154194 60.875597 
L 102.328463 61.170366 
L 102.444643 61.291865 
L 103.548347 62.604293 
L 103.606436 62.613296 
L 103.896885 63.001217 
L 103.954974 63.007007 
L 104.187333 63.252407 
L 104.245423 63.271346 
L 104.477781 63.664404 
L 105.058678 64.369681 
L 105.232947 64.478498 
L 105.581485 64.95883 
L 106.220472 65.643525 
L 108.021251 67.813549 
L 108.19552 67.916476 
L 108.485969 68.308928 
L 108.544059 68.267898 
L 108.834507 68.699885 
L 109.183045 69.001725 
L 109.473493 69.411447 
L 109.647762 69.503293 
L 109.880121 69.843179 
L 110.11248 70.142717 
L 110.170569 70.100465 
L 110.461018 70.541694 
L 110.519107 70.528356 
L 110.809556 70.903195 
L 110.867645 70.922969 
L 111.041915 71.206241 
L 111.216184 71.353022 
L 111.448542 71.632264 
L 111.622811 71.768631 
L 112.029439 72.304242 
L 112.203708 72.431369 
L 112.436067 72.706691 
L 112.494156 72.709818 
L 112.668425 72.949371 
L 112.726515 72.96387 
L 113.016963 73.440763 
L 113.133143 73.528421 
L 113.307412 73.656383 
L 113.481681 73.859766 
L 113.71404 74.165703 
L 114.004488 74.488225 
L 114.062578 74.499742 
L 114.236847 74.797099 
L 114.294936 74.795923 
L 114.527295 75.090134 
L 114.701564 75.221808 
L 114.992012 75.659524 
L 115.166281 75.729159 
L 115.630999 76.329909 
L 115.689088 76.335108 
L 115.863357 76.60344 
L 115.979537 76.742084 
L 117.373689 78.172542 
L 117.489868 78.280312 
L 117.547958 78.294551 
L 117.838406 78.759537 
L 117.896496 78.780552 
L 118.070765 79.043495 
L 118.535482 79.508662 
L 118.825931 79.918849 
L 118.88402 79.900284 
L 119.05829 80.107602 
L 119.232559 80.256976 
L 119.464917 80.597371 
L 119.523007 80.601449 
L 119.697276 80.843594 
L 119.871545 80.973204 
L 120.045814 81.21848 
L 120.103904 81.223846 
L 120.394352 81.597854 
L 120.626711 81.707654 
L 120.859069 82.00086 
L 121.149518 82.383332 
L 121.207607 82.389796 
L 121.439966 82.672819 
L 121.730415 83.076767 
L 121.962773 83.198897 
L 122.195132 83.499283 
L 122.48558 83.910826 
L 122.659849 84.056992 
L 122.892208 84.305384 
L 122.950298 84.308129 
L 123.240746 84.722906 
L 123.531194 84.987307 
L 123.763553 85.306201 
L 128.817355 90.82091 
L 129.049713 91.084147 
L 129.282072 91.382658 
L 129.456341 91.518426 
L 129.74679 91.889524 
L 129.921059 92.032841 
L 130.385776 92.547342 
L 130.443866 92.561274 
L 130.734314 93.025354 
L 130.850493 93.143307 
L 132.244645 94.73046 
L 132.302735 94.738963 
L 132.593184 95.193707 
L 132.825542 95.344973 
L 133.115991 95.749215 
L 133.17408 95.754756 
L 133.348349 96.019818 
L 133.406439 96.021041 
L 133.696887 96.450363 
L 133.929246 96.559167 
L 134.103515 96.879307 
L 134.800591 97.63147 
L 134.858681 97.630242 
L 135.03295 97.940597 
L 135.149129 98.042312 
L 138.285972 101.514 
L 138.460241 101.765069 
L 138.57642 101.759356 
L 138.750689 102.042035 
L 138.808779 102.046325 
L 138.983048 102.351414 
L 139.157317 102.495427 
L 139.447765 102.936099 
L 139.563944 102.944003 
L 139.738213 103.185958 
L 139.796303 103.192008 
L 139.970572 103.497977 
L 140.144841 103.595221 
L 140.609559 104.207731 
L 140.783828 104.316701 
L 140.958097 104.549704 
L 141.016186 104.557268 
L 141.306635 104.991659 
L 141.480904 105.122912 
L 141.538993 105.134625 
L 141.713262 105.449281 
L 142.875056 106.656029 
L 143.165504 107.092773 
L 143.339773 107.235854 
L 143.572132 107.53472 
L 143.630222 107.534704 
L 143.804491 107.756232 
L 143.92067 107.872163 
L 143.97876 107.891199 
L 144.211118 108.216875 
L 144.269208 108.229085 
L 144.559656 108.618485 
L 144.617746 108.626317 
L 144.850105 108.936555 
L 145.024374 109.132412 
L 145.082463 109.14023 
L 145.314822 109.47935 
L 145.489091 109.623842 
L 146.418526 110.77102 
L 146.476616 110.765631 
L 146.767064 111.187937 
L 146.825154 111.191593 
L 147.115602 111.578576 
L 147.173692 111.576519 
L 147.40605 111.834316 
L 147.46414 111.834684 
L 147.638409 112.064563 
L 147.696499 112.070862 
L 148.045037 112.594423 
L 149.729637 114.415533 
L 149.787727 114.403836 
L 149.961996 114.676651 
L 150.020086 114.673097 
L 150.194355 115.004209 
L 150.252444 114.992645 
L 150.484803 115.280399 
L 150.659072 115.360417 
L 150.94952 115.852538 
L 151.12379 115.973787 
L 151.298059 116.210976 
L 151.472328 116.312858 
L 151.704686 116.667875 
L 151.878955 116.809465 
L 152.459852 117.499017 
L 152.634121 117.650879 
L 152.80839 117.913979 
L 152.86648 117.910049 
L 153.040749 118.182334 
L 153.098838 118.182424 
L 153.389287 118.612869 
L 153.621645 118.742846 
L 153.912094 119.192564 
L 154.202542 119.431513 
L 154.55108 119.889696 
L 154.783439 120.10116 
L 154.957708 120.222889 
L 155.306246 120.693094 
L 155.712874 121.226732 
L 155.945232 121.35524 
L 157.397474 122.94518 
L 157.571743 123.325381 
L 157.804102 123.425332 
L 158.09455 123.848251 
L 158.15264 123.837052 
L 158.326909 124.03205 
L 158.384999 124.028587 
L 158.559268 124.348998 
L 158.617357 124.358756 
L 158.849716 124.663521 
L 158.907806 124.683086 
L 159.082075 124.968152 
L 159.140164 124.986419 
L 159.314434 125.2491 
L 159.372523 125.260639 
L 159.546792 125.516627 
L 159.662972 125.638459 
L 159.89533 125.77342 
L 160.127689 126.197181 
L 160.592406 126.687598 
L 160.766675 127.032365 
L 160.999034 127.156908 
L 161.173303 127.319669 
L 161.347572 127.442052 
L 161.521841 127.810493 
L 161.69611 127.924726 
L 162.451276 128.831807 
L 163.032173 129.358841 
L 163.090262 129.376028 
L 163.264531 129.782253 
L 163.55498 129.982057 
L 163.845428 130.439128 
L 163.961607 130.427856 
L 164.252056 130.787733 
L 164.310145 130.804881 
L 164.542504 131.175854 
L 164.891042 131.534739 
L 164.949132 131.553537 
L 165.123401 131.834568 
L 165.29767 131.945153 
L 165.588118 132.405221 
L 165.646208 132.412363 
L 165.820477 132.592596 
L 166.343284 133.267629 
L 166.517553 133.368502 
L 166.691822 133.58798 
L 168.318333 135.51457 
L 168.492602 135.653437 
L 168.608781 135.938478 
L 168.666871 135.935101 
L 168.84114 136.129878 
L 169.015409 136.190728 
L 169.305857 136.71707 
L 169.363947 136.712024 
L 169.538216 137.034789 
L 169.712485 137.110227 
L 169.886754 137.311123 
L 170.061023 137.615416 
L 170.119113 137.608237 
L 170.293382 137.795917 
L 170.467651 137.917924 
L 170.70001 138.324528 
L 170.874279 138.426749 
L 171.222817 138.794292 
L 171.397086 138.99771 
L 171.455175 138.99501 
L 171.745624 139.517903 
L 171.977982 139.590509 
L 172.152251 139.864435 
L 172.210341 139.871583 
L 172.38461 140.085616 
L 172.4427 140.090448 
L 172.616969 140.395544 
L 172.675059 140.39533 
L 172.907417 140.696331 
L 173.023597 140.813813 
L 173.197866 140.931522 
L 173.372135 141.301029 
L 173.546404 141.44717 
L 174.18539 142.07615 
L 174.359659 142.365064 
L 174.533928 142.510103 
L 174.708197 142.88103 
L 174.882466 142.947763 
L 174.998645 143.148792 
L 175.056735 143.159369 
L 175.231004 143.465218 
L 175.405273 143.554552 
L 175.695722 144.001661 
L 175.869991 144.084768 
L 176.102349 144.486386 
L 176.218529 144.56752 
L 176.392798 144.737501 
L 177.089874 145.548605 
L 177.147963 145.545298 
L 177.322232 145.838268 
L 177.380322 145.845194 
L 177.554591 146.048033 
L 177.72886 146.072999 
L 177.961219 146.36805 
L 178.077398 146.818242 
L 178.367847 146.893037 
L 178.658295 147.314905 
L 178.716385 147.319082 
L 179.006833 147.757248 
L 179.123012 147.80204 
L 179.355371 147.959306 
L 179.52964 148.304775 
L 179.58773 148.311973 
L 179.820088 148.563649 
L 179.936268 148.603324 
L 180.110537 148.887335 
L 180.284806 148.988753 
L 180.342895 149.0037 
L 180.633344 149.475684 
L 180.807613 149.447387 
L 181.098061 150.079083 
L 181.446599 150.152603 
L 181.795137 150.728485 
L 181.969406 150.858088 
L 182.143675 150.993879 
L 182.317944 151.390857 
L 182.782662 151.505099 
L 183.247379 152.209447 
L 183.363559 152.229115 
L 183.537828 152.495735 
L 183.712097 152.762546 
L 183.886366 152.856874 
L 184.060635 153.200443 
L 184.118724 153.216161 
L 184.292993 153.440261 
L 184.525352 153.522616 
L 184.699621 153.818355 
L 184.87389 153.917662 
L 185.106249 154.305477 
L 185.280518 154.590544 
L 185.454787 154.684726 
L 185.687145 154.786749 
L 185.745235 154.787435 
L 185.919504 155.276859 
L 185.977594 155.276511 
L 186.151863 155.527605 
L 186.326132 155.543447 
L 186.500401 155.964244 
L 186.848939 155.965196 
L 187.023208 156.388274 
L 187.313656 156.489792 
L 187.720284 157.211475 
L 187.952643 157.314174 
L 188.126912 157.737817 
L 188.185001 157.731145 
L 188.47545 158.099302 
L 188.533539 158.110906 
L 188.707809 158.40263 
L 189.172526 158.739273 
L 189.346795 159.081025 
L 189.404885 159.082975 
L 189.579154 159.338323 
L 189.637243 159.33518 
L 189.753423 159.531235 
L 189.869602 159.615007 
L 189.927692 159.631552 
L 190.101961 159.920588 
L 190.392409 160.090832 
L 190.682857 160.615067 
L 190.915216 160.729497 
L 191.031395 160.908076 
L 191.205664 160.960567 
L 191.263754 160.952358 
L 191.438023 161.401539 
L 191.554203 161.47253 
L 191.728472 161.556579 
L 191.902741 161.782669 
L 192.135099 161.986593 
L 192.425548 162.338433 
L 192.483637 162.335626 
L 192.657906 162.613076 
L 192.715996 162.592694 
L 192.890265 162.739733 
L 193.006444 162.761402 
L 193.354982 163.171182 
L 193.471162 163.174107 
L 193.645431 163.560272 
L 193.8197 163.582157 
L 193.993969 163.908653 
L 194.226328 164.018288 
L 194.400597 164.301459 
L 194.691045 164.440802 
L 194.923404 164.879363 
L 195.155762 164.949412 
L 195.213852 164.965779 
L 195.388121 165.26452 
L 195.678569 165.359381 
L 195.852838 165.77865 
L 196.201376 165.828472 
L 196.375645 166.213792 
L 196.549914 166.320646 
L 196.840363 166.764478 
L 197.246991 166.850293 
L 197.42126 167.033457 
L 197.595529 167.239968 
L 197.769798 167.341714 
L 198.002156 167.710358 
L 198.350694 167.954832 
L 198.524963 168.341385 
L 198.641143 168.345409 
L 198.815412 168.467289 
L 198.931591 168.522839 
L 198.989681 168.537757 
L 199.222039 168.868347 
L 199.512488 169.22155 
L 199.744847 169.30586 
L 199.919116 169.616391 
L 200.093385 169.713752 
L 200.209564 169.788285 
L 200.325743 169.770728 
L 200.383833 170.088294 
L 200.441923 170.077458 
L 200.558102 170.073239 
L 200.674281 170.335527 
L 200.790461 170.365269 
L 200.96473 170.50317 
L 201.197088 170.573599 
L 201.371357 170.855234 
L 201.429447 170.839318 
L 201.719895 171.39767 
L 202.533151 171.735586 
L 202.591241 172.188777 
L 202.64933 172.177845 
L 202.997868 172.099807 
L 203.114048 172.306181 
L 203.172137 172.310901 
L 203.288317 172.638536 
L 203.404496 172.631788 
L 203.694944 173.073527 
L 203.753034 173.083237 
L 203.927303 173.258466 
L 203.985393 173.280446 
L 204.217751 173.627831 
L 204.275841 173.619137 
L 204.39202 173.754012 
L 204.5082 173.733414 
L 204.914828 174.233616 
L 204.972917 174.227215 
L 205.147186 174.615565 
L 205.495724 174.655502 
L 205.669993 174.855484 
L 205.728083 174.847874 
L 205.902352 175.137256 
L 205.960442 175.122863 
L 206.1928 175.38125 
L 206.25089 175.381589 
L 206.367069 175.844087 
L 206.483249 175.772676 
L 206.599428 175.927621 
L 206.889876 175.933786 
L 206.947966 175.928327 
L 207.064145 176.180507 
L 207.122235 176.164721 
L 207.296504 176.536975 
L 207.470773 176.533614 
L 207.645042 176.913326 
L 207.703132 176.913886 
L 207.877401 177.199456 
L 208.05167 177.239872 
L 208.167849 177.233101 
L 208.458298 177.771315 
L 208.690656 177.781575 
L 208.806836 177.675291 
L 208.981105 178.222075 
L 209.097284 178.307177 
L 209.155374 178.31512 
L 209.271553 178.460542 
L 209.387732 178.39191 
L 209.503912 178.67659 
L 209.562001 178.671957 
L 209.678181 178.902897 
L 209.910539 178.871922 
L 210.084808 179.161185 
L 210.142898 179.169932 
L 210.317167 179.418588 
L 210.549526 179.517279 
L 210.723795 179.795592 
L 211.014243 179.829371 
L 211.188512 180.119102 
L 211.478961 180.163264 
L 211.59514 180.412651 
L 211.711319 180.476973 
L 211.885588 180.537702 
L 212.059857 180.759805 
L 212.234126 180.839179 
L 212.350306 181.032302 
L 212.466485 181.011399 
L 212.756933 181.387659 
L 213.105472 181.461268 
L 213.45401 182.029747 
L 213.512099 181.988146 
L 213.686368 182.017783 
L 213.860637 182.262648 
L 214.092996 182.253361 
L 214.267265 182.620374 
L 214.557713 182.682305 
L 215.13861 183.357885 
L 215.254789 183.424843 
L 215.312879 183.466148 
L 215.429058 183.693982 
L 215.545238 183.635572 
L 216.590852 184.640185 
L 216.765121 184.709303 
L 217.055569 185.12174 
L 217.404107 185.168132 
L 217.578376 185.483656 
L 217.694556 185.539762 
L 217.985004 185.718907 
L 218.159273 185.85436 
L 218.217363 185.857956 
L 218.449722 186.116447 
L 218.623991 186.163336 
L 218.79826 186.272181 
L 218.856349 186.254286 
L 218.914439 186.435301 
L 218.972529 186.402644 
L 219.204887 186.454393 
L 219.611515 186.866602 
L 219.843874 187.019185 
L 220.018143 187.206857 
L 220.308591 187.342913 
L 220.48286 187.504195 
L 220.599039 187.520229 
L 220.773308 187.827845 
L 221.063757 188.035539 
L 221.179936 188.170658 
L 221.296116 188.05699 
L 221.412295 188.086083 
L 221.586564 188.429642 
L 221.935102 188.468991 
L 222.167461 188.853263 
L 222.34173 189.015178 
L 222.457909 189.01679 
L 222.748357 189.327332 
L 222.922626 189.31499 
L 223.329254 189.658999 
L 223.561613 189.737007 
L 223.735882 190.035085 
L 224.02633 190.070353 
L 224.14251 190.295257 
L 224.200599 190.290383 
L 224.374868 190.535593 
L 224.549137 190.52424 
L 224.897675 190.786581 
L 225.071944 190.751067 
L 225.246213 191.015361 
L 225.536662 190.952351 
L 225.652841 191.313684 
L 225.76902 191.279549 
L 225.943289 191.409471 
L 226.175648 191.528528 
L 226.349917 191.836383 
L 226.524186 191.889485 
L 227.279352 192.15415 
L 227.453621 192.392754 
L 227.802159 192.493543 
L 227.976428 192.621748 
L 228.150697 192.665599 
L 228.324966 192.862821 
L 228.499235 192.825629 
L 228.673504 193.25215 
L 228.789683 193.245367 
L 228.963953 193.409057 
L 229.022042 193.407441 
L 229.138222 193.262402 
L 229.254401 193.265831 
L 229.42867 193.654849 
L 229.777208 193.735747 
L 229.951477 194.057169 
L 230.067656 193.95483 
L 230.241925 193.973833 
L 230.474284 194.359844 
L 230.648553 194.401854 
L 230.764732 194.269421 
L 231.055181 194.891306 
L 231.22945 194.839855 
L 231.403719 194.79475 
L 231.461808 194.791907 
L 231.577988 194.989005 
L 231.752257 194.938419 
L 231.926526 195.168238 
L 232.100795 195.243297 
L 232.275064 195.645471 
L 232.333154 195.641597 
L 232.507423 195.517816 
L 232.797871 195.878113 
L 232.97214 195.813873 
L 233.146409 196.024967 
L 233.494947 196.085104 
L 233.669216 196.191665 
L 233.959664 196.169896 
L 234.075844 196.407398 
L 234.598651 196.398573 
L 234.71483 196.586583 
L 234.83101 196.604513 
L 235.005279 196.97934 
L 235.411906 197.150341 
L 235.528086 197.286345 
L 235.876624 197.096486 
L 235.934713 197.095338 
L 236.108982 197.40146 
L 236.167072 197.409369 
L 236.341341 197.643121 
L 236.399431 197.643345 
L 236.5737 197.805983 
L 236.806058 197.735195 
L 237.212686 198.183572 
L 237.445045 198.108413 
L 237.619314 198.376061 
L 238.025942 198.394879 
L 238.142121 198.688334 
L 238.2583 198.769012 
L 238.37448 198.90146 
L 238.432569 199.005578 
L 238.490659 198.968938 
L 238.548749 198.972853 
L 238.664928 199.104655 
L 238.781107 199.088228 
L 238.897287 199.32267 
L 239.420094 199.310296 
L 239.594363 199.702343 
L 240.000991 199.713661 
L 240.11717 199.858042 
L 240.17526 199.841448 
L 240.349529 200.010616 
L 240.756156 200.113851 
L 240.930425 200.142367 
L 241.046605 200.152585 
L 241.220874 200.405988 
L 241.278963 200.407749 
L 241.395143 200.596343 
L 241.511322 200.558141 
L 241.685591 200.744302 
L 241.91795 200.661797 
L 242.092219 200.600556 
L 242.150308 200.610105 
L 242.266488 200.944008 
L 242.731205 200.91969 
L 243.312102 201.262894 
L 243.370192 201.25152 
L 243.544461 201.593368 
L 243.60255 201.602023 
L 243.776819 201.797516 
L 244.241537 201.79618 
L 244.415806 202.168141 
L 244.590075 202.1254 
L 244.706254 202.039318 
L 244.822433 202.069169 
L 244.996703 202.437856 
L 245.46142 202.472538 
L 245.635689 202.80048 
L 246.216586 202.833192 
L 246.390855 203.276787 
L 246.623213 203.168872 
L 246.971751 203.142585 
L 247.14602 203.692087 
L 247.726917 203.794901 
L 247.901186 203.997845 
L 248.191635 204.100244 
L 248.307814 204.216277 
L 248.423993 204.060766 
L 248.656352 204.45777 
L 248.830621 204.399196 
L 249.06298 204.449129 
L 249.237249 204.71489 
L 249.701966 204.760696 
L 249.876235 205.103687 
L 250.573311 205.251902 
L 250.74758 205.405281 
L 251.038029 205.495067 
L 251.154208 205.621424 
L 251.270387 205.570796 
L 251.386567 205.689471 
L 251.677015 205.66141 
L 251.851284 205.915137 
L 252.141732 205.847447 
L 252.257912 206.101579 
L 252.432181 206.029742 
L 252.664539 206.144009 
L 252.896898 206.187734 
L 253.245436 206.285128 
L 253.419705 206.285415 
L 253.477795 206.273444 
L 253.593974 206.453676 
L 253.884423 206.464922 
L 254.058692 206.575038 
L 254.232961 206.573133 
L 254.34914 206.765775 
L 254.639588 206.786054 
L 254.813857 206.89383 
L 254.988126 206.893994 
L 255.162395 207.05642 
L 255.452844 207.175898 
L 255.685203 207.251243 
L 255.859472 207.352612 
L 256.033741 207.426226 
L 256.440368 207.469465 
L 256.614637 207.618488 
L 257.021265 207.83616 
L 257.311713 207.839751 
L 257.544072 208.011798 
L 257.83452 207.931472 
L 258.008789 208.143696 
L 258.415417 208.253195 
L 258.589686 208.376994 
L 258.822045 208.294817 
L 258.996314 208.521467 
L 259.286762 208.551763 
L 259.402942 208.68024 
L 259.519121 208.615823 
L 259.867659 208.753476 
L 259.983838 208.817846 
L 260.274287 208.839005 
L 260.971363 209.067848 
L 261.261811 209.088041 
L 261.319901 209.204582 
L 261.377991 209.138803 
L 261.784618 209.265491 
L 261.900798 209.304339 
L 262.249336 209.325443 
L 262.423605 209.466617 
L 263.585398 209.736484 
L 263.875847 209.754647 
L 264.050116 209.784741 
L 264.166295 209.943798 
L 264.398654 209.977911 
L 264.456743 209.975965 
L 264.572923 210.087238 
L 264.689102 210.013751 
L 264.863371 210.040131 
L 265.153819 210.101422 
L 265.328088 210.295712 
L 265.792806 210.324514 
L 265.967075 210.369539 
L 266.141344 210.343463 
L 266.257523 210.538427 
L 266.664151 210.536068 
L 266.78033 210.695651 
L 267.128868 210.685311 
L 267.361227 210.815806 
L 267.651675 210.829324 
L 267.767855 210.946498 
L 268.000213 210.936123 
L 268.116393 211.139466 
L 268.755379 211.079477 
L 268.871558 211.239298 
L 269.626724 211.349833 
L 269.742904 211.461222 
L 269.975262 211.551879 
L 270.265711 211.596 
L 270.498069 211.627478 
L 270.730428 211.779853 
L 272.298849 212.208281 
L 272.531208 212.353466 
L 272.705477 212.344213 
L 272.879746 212.490312 
L 273.170194 212.554249 
L 273.286374 212.652862 
L 273.518732 212.600944 
L 273.751091 212.752911 
L 274.041539 212.773469 
L 274.273898 212.870195 
L 274.506257 212.896543 
L 275.029064 212.957183 
L 275.377602 213.276832 
L 275.78423 213.23661 
L 276.016588 213.323032 
L 276.771754 213.638187 
L 276.887933 213.739445 
L 277.004113 213.718276 
L 277.294561 213.973047 
L 277.701189 213.97434 
L 277.933548 214.221023 
L 278.223996 214.24001 
L 278.398265 214.43836 
L 278.688713 214.443064 
L 278.862982 214.671876 
L 278.979162 214.67242 
L 279.153431 214.815354 
L 279.676238 214.967523 
L 279.850507 215.223153 
L 280.082866 215.283063 
L 280.315224 215.512345 
L 280.779942 215.7409 
L 280.954211 215.820765 
L 281.244659 216.03794 
L 281.418928 216.09406 
L 281.593197 216.211688 
L 281.651287 216.209303 
L 281.825556 216.435149 
L 282.174094 216.443388 
L 282.348363 216.608113 
L 282.522632 216.681014 
L 282.754991 216.848627 
L 282.987349 216.828361 
L 283.103529 216.947323 
L 283.161618 216.928235 
L 283.335887 217.14953 
L 283.684425 217.270605 
L 283.742515 217.256896 
L 283.916784 217.448481 
L 284.091053 217.53762 
L 284.323412 217.676576 
L 284.497681 217.723556 
L 285.078577 218.073343 
L 285.194757 218.018623 
L 285.369026 218.281849 
L 286.41464 218.67939 
L 286.47273 218.662107 
L 286.646999 218.903394 
L 287.053626 219.055607 
L 287.285985 219.14143 
L 287.460254 219.118629 
L 287.634523 219.394607 
L 287.924972 219.463856 
L 288.099241 219.641813 
L 288.27351 219.713228 
L 288.389689 219.845656 
L 288.505868 219.929012 
L 288.796317 219.941431 
L 288.912496 220.052593 
L 289.086765 220.143042 
L 289.377213 220.307926 
L 289.667662 220.541739 
L 289.841931 220.577424 
L 290.0162 220.597809 
L 290.190469 220.759706 
L 290.306648 220.742063 
L 290.480917 220.984694 
L 290.655186 221.002736 
L 290.829455 221.207209 
L 291.003724 221.278184 
L 291.177993 221.446205 
L 291.526531 221.538938 
L 291.7008 221.7177 
L 291.991249 221.735536 
L 292.165518 221.967161 
L 292.339787 222.045276 
L 292.572145 222.133702 
L 292.746414 222.161962 
L 292.920683 222.4063 
L 293.211132 222.520286 
L 293.385401 222.72369 
L 293.443491 222.716499 
L 293.55967 222.90079 
L 293.850118 222.963721 
L 294.024387 223.092671 
L 294.198656 223.120637 
L 294.372925 223.34619 
L 294.547194 223.407503 
L 294.953822 223.516894 
L 295.128091 223.838563 
L 295.24427 223.890547 
L 295.418539 223.928224 
L 295.592808 224.038245 
L 295.825167 224.088446 
L 296.057526 224.332478 
L 296.522243 224.346586 
L 296.638423 224.597681 
L 296.696512 224.605391 
L 296.870781 224.81094 
L 297.04505 224.826731 
L 297.277409 225.024761 
L 297.509768 225.065103 
L 297.800216 225.191047 
L 298.148754 225.30192 
L 298.323023 225.500143 
L 298.613472 225.628102 
L 298.787741 225.758709 
L 298.84583 225.746992 
L 299.020099 225.943035 
L 299.252458 225.97422 
L 299.484817 226.149798 
L 300.356162 226.629347 
L 300.472341 226.734414 
L 300.64661 226.732859 
L 300.7047 226.725554 
L 300.878969 227.008892 
L 301.227507 227.079111 
L 301.343686 227.236208 
L 301.808404 227.373386 
L 302.040762 227.572781 
L 302.215031 227.575414 
L 302.563569 227.822617 
L 302.854018 227.995513 
L 302.912107 227.990963 
L 303.086376 228.157211 
L 303.260645 228.263598 
L 303.434914 228.294817 
L 303.609183 228.469028 
L 303.783452 228.519697 
L 304.24817 228.860092 
L 304.422439 228.863224 
L 304.596708 229.072165 
L 304.654798 229.071933 
L 304.829067 229.193932 
L 304.887156 229.197155 
L 305.061425 229.405072 
L 305.293784 229.402204 
L 305.468053 229.626963 
L 305.584232 229.713399 
L 305.99086 229.837277 
L 306.107039 230.072616 
L 306.513667 230.147989 
L 306.920295 230.531772 
L 307.152654 230.578207 
L 307.559281 230.894109 
L 307.73355 230.94312 
L 307.965909 231.072982 
L 308.023999 231.071213 
L 308.198268 231.231202 
L 308.372537 231.261709 
L 308.546806 231.392081 
L 308.721075 231.402526 
L 308.895344 231.628173 
L 309.127702 231.664152 
L 309.301972 231.784169 
L 309.360061 231.779515 
L 309.53433 231.994529 
L 309.65051 232.074557 
L 309.824779 232.175016 
L 310.173317 232.328018 
L 310.347586 232.386792 
L 310.521855 232.566986 
L 310.812303 232.646323 
L 310.986572 232.745124 
L 311.509379 233.089431 
L 311.683648 233.124865 
L 311.799827 233.268531 
L 311.857917 233.25039 
L 312.090276 233.47431 
L 312.496904 233.75713 
L 312.671173 233.766905 
L 312.845442 234.025245 
L 313.19398 234.048868 
L 313.368249 234.28547 
L 313.542518 234.36682 
L 313.716787 234.440192 
L 313.832966 234.538064 
L 314.065325 234.611582 
L 314.239594 234.875334 
L 314.413863 234.922928 
L 314.588132 235.061102 
L 314.762401 235.152545 
L 314.99476 235.317582 
L 315.169029 235.293381 
L 315.343298 235.426344 
L 315.459477 235.517193 
L 315.517567 235.521602 
L 315.633746 235.65243 
L 315.749925 235.641141 
L 315.924194 235.845456 
L 315.982284 235.836403 
L 316.156553 235.960966 
L 316.447001 236.131506 
L 316.62127 236.19868 
L 316.969808 236.47445 
L 317.202167 236.518369 
L 317.434526 236.724688 
L 317.608795 236.839716 
L 317.724974 237.063462 
L 317.783064 237.017541 
L 318.073512 237.09943 
L 318.247781 237.294642 
L 318.48014 237.326904 
L 318.886768 237.670832 
L 319.061037 237.746019 
L 319.235306 237.889627 
L 319.409575 237.930583 
L 319.467664 238.168197 
L 319.525754 238.143718 
L 319.816202 238.187761 
L 320.048561 238.417218 
L 320.164741 238.399549 
L 320.33901 238.552377 
L 320.513279 238.609476 
L 320.687548 238.87902 
L 320.919906 238.870862 
L 321.210355 239.163911 
L 321.500803 239.228896 
L 321.675072 239.475797 
L 321.733162 239.469038 
L 321.849341 239.561763 
L 321.907431 239.544573 
L 322.0817 239.712561 
L 322.139789 239.695244 
L 322.314058 239.927161 
L 322.488327 239.938298 
L 322.662596 240.110265 
L 323.011135 240.185429 
L 323.185404 240.468583 
L 323.417762 240.529091 
L 323.475852 240.529521 
L 323.650121 240.738625 
L 323.82439 240.778186 
L 324.056749 240.948162 
L 324.231018 241.033696 
L 325.044273 241.613412 
L 325.218542 241.678323 
L 325.392811 241.767573 
L 325.56708 241.867682 
L 325.741349 242.041179 
L 326.903143 242.70871 
L 327.135501 242.913046 
L 327.30977 243.108794 
L 327.542129 243.103222 
L 327.832577 243.342582 
L 327.890667 243.33934 
L 328.064936 243.522648 
L 328.355385 243.669936 
L 328.587743 243.869731 
L 328.762012 243.873501 
L 328.936281 244.00682 
L 328.994371 243.996119 
L 329.16864 244.180326 
L 329.342909 244.229667 
L 329.517178 244.465066 
L 329.865716 244.654389 
L 330.039985 244.794209 
L 330.214254 244.87702 
L 330.388523 245.031654 
L 330.446613 245.017635 
L 330.620882 245.173951 
L 330.678971 245.174961 
L 330.91133 245.51227 
L 331.085599 245.493574 
L 331.143689 245.615615 
L 331.201779 245.576062 
L 331.666496 245.787061 
L 331.840765 246.019567 
L 332.015034 246.133124 
L 332.247393 246.226693 
L 332.305482 246.207779 
L 332.363572 246.378644 
L 332.421662 246.331996 
L 334.106262 247.498644 
L 334.280531 247.661425 
L 334.396711 247.659294 
L 334.57098 247.854334 
L 334.745249 247.893923 
L 335.384235 248.365349 
L 335.442325 248.347652 
L 335.616594 248.468234 
L 335.907042 248.732542 
L 336.081311 248.748959 
L 336.25558 248.946343 
L 336.429849 248.99674 
L 336.662208 249.161153 
L 336.720298 249.119897 
L 336.894567 249.42537 
L 337.068836 249.443619 
L 337.185015 249.449915 
L 337.359284 249.671599 
L 337.417374 249.62229 
L 337.591643 249.786816 
L 337.649732 249.783891 
L 337.765912 249.8989 
L 337.940181 249.978925 
L 338.11445 250.132005 
L 338.288719 250.148825 
L 338.462988 250.363421 
L 338.521077 250.353855 
L 338.695346 250.535159 
L 339.043885 250.599953 
L 339.276243 250.851985 
L 339.450512 250.949744 
L 339.508602 250.931013 
L 339.682871 251.115162 
L 339.79905 251.101229 
L 339.973319 251.274048 
L 340.147588 251.34437 
L 340.438037 251.679012 
L 340.612306 251.68459 
L 340.902754 251.859913 
L 341.59983 252.363329 
L 341.71601 252.443518 
L 341.890279 252.529769 
L 342.180727 252.78291 
L 342.529265 252.906807 
L 342.703534 253.085379 
L 342.761624 253.082336 
L 342.935893 253.337629 
L 343.052072 253.393632 
L 343.34252 253.475049 
L 343.4587 253.592026 
L 343.574879 253.686834 
L 343.632969 253.680454 
L 343.807238 253.908345 
L 343.865327 253.892988 
L 344.039596 254.056853 
L 344.271955 254.086543 
L 346.363183 255.505845 
L 346.479363 255.493529 
L 346.653632 255.744261 
L 346.827901 255.78738 
L 347.00217 255.954006 
L 347.176439 256.054804 
L 347.350708 256.192863 
L 347.466887 256.161954 
L 347.699246 256.37188 
L 347.989694 256.633608 
L 348.163963 256.648823 
L 348.338232 256.885644 
L 348.512501 256.892883 
L 348.628681 256.952786 
L 349.267667 257.405585 
L 349.383846 257.495469 
L 349.500026 257.55166 
L 349.674295 257.607783 
L 349.848564 257.809031 
L 350.022833 257.863129 
L 350.255192 258.05834 
L 350.313281 258.056061 
L 350.48755 258.239986 
L 350.661819 258.294793 
L 350.952268 258.529779 
L 351.184626 258.593581 
L 351.358895 258.816661 
L 351.475075 258.85774 
L 352.114061 259.290936 
L 352.40451 259.399406 
L 352.520689 259.474944 
L 352.578779 259.450194 
L 352.811137 259.730914 
L 353.043496 259.895106 
L 353.333944 260.127884 
L 353.798662 260.410603 
L 354.08911 260.677416 
L 354.1472 260.670096 
L 354.321469 260.850217 
L 354.553827 260.874367 
L 354.786186 261.051655 
L 355.018545 261.244451 
L 355.308993 261.52296 
L 355.541352 261.575768 
L 356.354607 262.157434 
L 356.528876 262.222506 
L 356.761235 262.401648 
L 360.072346 264.589987 
L 360.246616 264.798554 
L 362.628292 266.350578 
L 362.860651 266.544801 
L 363.151099 266.651049 
L 363.325368 266.758946 
L 363.499637 266.832563 
L 363.906265 267.1962 
L 364.138624 267.246773 
L 365.009969 267.915803 
L 365.068058 267.901231 
L 365.242327 268.063587 
L 365.474686 268.157126 
L 365.648955 268.296808 
L 365.707045 268.299752 
L 365.881314 268.469645 
L 366.055583 268.533623 
L 366.346031 268.754415 
L 366.57839 268.817764 
L 366.985018 269.221017 
L 367.159287 269.254625 
L 367.333556 269.446592 
L 367.507825 269.482426 
L 367.682094 269.675092 
L 367.798273 269.681767 
L 367.972542 269.799417 
L 368.146811 269.891679 
L 368.43726 270.137542 
L 368.611529 270.177698 
L 368.843887 270.414861 
L 369.076246 270.599897 
L 369.192425 270.669024 
L 369.366694 270.753366 
L 369.540963 270.891282 
L 369.715232 270.931651 
L 369.889501 271.17112 
L 370.06377 271.238086 
L 370.296129 271.37527 
L 370.470398 271.425523 
L 370.760846 271.649948 
L 370.818936 271.644324 
L 370.993205 271.824826 
L 371.051295 271.823708 
L 371.225564 272.006438 
L 371.457923 272.116163 
L 371.690281 272.294928 
L 372.271178 272.548796 
L 372.561626 272.857328 
L 373.374882 273.297501 
L 373.66533 273.581519 
L 373.78151 273.560791 
L 373.955779 273.733213 
L 374.130048 273.761294 
L 374.304317 273.951555 
L 374.420496 274.030958 
L 374.710944 274.174267 
L 374.885213 274.356313 
L 375.001393 274.341997 
L 375.175662 274.503997 
L 375.233751 274.453429 
L 375.291841 274.52563 
L 375.349931 274.517072 
L 375.5242 274.755394 
L 375.698469 274.816124 
L 375.872738 274.996863 
L 376.163186 275.106791 
L 376.221276 275.114187 
L 376.395545 275.31574 
L 376.453635 275.292418 
L 376.627904 275.472239 
L 376.685993 275.463236 
L 376.860262 275.667306 
L 377.092621 275.690044 
L 377.26689 275.907746 
L 377.441159 275.915094 
L 377.615428 276.067025 
L 377.789697 276.176451 
L 377.963966 276.36212 
L 378.080145 276.365736 
L 378.254414 276.535439 
L 379.706656 277.425573 
L 379.880925 277.503086 
L 380.113284 277.644161 
L 380.171374 277.634074 
L 380.403732 277.899103 
L 380.578001 278.079778 
L 380.75227 278.112899 
L 381.042719 278.380283 
L 381.216988 278.446829 
L 381.391257 278.571504 
L 381.565526 278.646602 
L 381.739795 278.714633 
L 382.436871 279.199735 
L 382.61114 279.255729 
L 382.785409 279.469865 
L 382.959678 279.523892 
L 383.192037 279.711818 
L 383.366306 279.764075 
L 383.540575 279.932304 
L 383.598664 279.920605 
L 383.772933 280.107705 
L 383.889113 280.141859 
L 384.237651 280.449956 
L 384.41192 280.457598 
L 384.818548 280.818985 
L 384.934727 280.860678 
L 385.167086 280.945652 
L 385.225175 280.938932 
L 385.399444 281.095281 
L 385.573713 281.144679 
L 385.747982 281.32133 
L 385.864162 281.407165 
L 386.445058 281.688723 
L 386.619327 281.873808 
L 386.793596 281.957476 
L 387.025955 282.199384 
L 387.316404 282.416793 
L 387.548762 282.482596 
L 387.723031 282.705467 
L 387.8973 282.738102 
L 388.129659 282.892578 
L 388.303928 283.030315 
L 388.536287 283.081425 
L 388.710556 283.258539 
L 388.768645 283.255474 
L 388.942914 283.451541 
L 389.059094 283.538873 
L 389.349542 283.676843 
L 389.523811 283.83566 
L 389.75617 283.94591 
L 390.046618 284.196823 
L 390.220887 284.29824 
L 390.395156 284.384605 
L 390.569425 284.493258 
L 390.685605 284.603809 
L 390.859874 284.631893 
L 391.150322 284.799852 
L 391.324591 284.855787 
L 391.615039 285.110755 
L 391.963577 285.249424 
L 392.137846 285.449982 
L 392.195936 285.442341 
L 392.370205 285.608935 
L 392.544474 285.658207 
L 392.776833 285.880943 
L 392.893012 285.967307 
L 392.951102 285.922429 
L 393.183461 286.107423 
L 393.35773 286.267977 
L 393.473909 286.394911 
L 394.287164 286.81303 
L 394.461433 286.98459 
L 394.519523 286.976546 
L 394.809971 287.320201 
L 395.04233 287.328336 
L 395.216599 287.501673 
L 395.390868 287.530608 
L 395.623227 287.742822 
L 395.971765 287.993503 
L 396.146034 288.044518 
L 396.320303 288.197787 
L 396.378393 288.189968 
L 396.552662 288.41644 
L 396.726931 288.460877 
L 397.017379 288.71844 
L 397.133558 288.698458 
L 397.307827 288.873332 
L 397.598276 288.989664 
L 397.772545 289.137701 
L 397.830635 289.130312 
L 397.946814 289.250079 
L 398.121083 289.274009 
L 398.295352 289.498171 
L 398.469621 289.497988 
L 398.64389 289.640986 
L 398.70198 289.642614 
L 398.876249 289.860329 
L 399.108607 289.981597 
L 399.689504 290.421387 
L 400.212311 290.689658 
L 400.38658 290.84232 
L 400.560849 290.831385 
L 400.735118 291.043825 
L 400.851298 291.11534 
L 401.025567 291.213247 
L 403.116795 292.555135 
L 403.291064 292.655069 
L 403.465333 292.82265 
L 403.639602 292.921373 
L 403.813871 293.046683 
L 404.162409 293.213905 
L 404.452857 293.513423 
L 404.743306 293.604999 
L 405.556561 294.114194 
L 405.614651 294.103879 
L 405.78892 294.379436 
L 406.079368 294.481639 
L 406.137458 294.477029 
L 406.311727 294.637477 
L 406.369817 294.629996 
L 406.544086 294.813753 
L 406.718355 294.819917 
L 406.950713 295.088271 
L 407.124982 295.181274 
L 408.693404 296.095994 
L 408.751493 296.077512 
L 408.983852 296.347361 
L 409.216211 296.554582 
L 410.436094 297.396334 
L 410.610363 297.400482 
L 411.01699 297.792553 
L 411.19126 297.801381 
L 411.307439 297.914153 
L 411.365529 297.884726 
L 411.597887 298.09415 
L 412.062605 298.419001 
L 412.527322 298.694791 
L 412.701591 298.70888 
L 412.87586 298.96288 
L 413.050129 298.97028 
L 413.224398 299.152839 
L 413.282488 299.135469 
L 413.398667 299.283219 
L 413.689115 299.404604 
L 413.979564 299.665936 
L 414.153833 299.673809 
L 414.328102 299.861767 
L 414.444281 299.890408 
L 414.67664 300.026329 
L 415.199447 300.41743 
L 415.315626 300.39384 
L 415.606075 300.72953 
L 415.780344 300.789397 
L 415.954613 300.930238 
L 416.186971 301.0031 
L 416.36124 301.10231 
L 416.535509 301.180025 
L 416.709779 301.445538 
L 416.884048 301.460029 
L 417.058317 301.697024 
L 417.290675 301.719517 
L 417.464944 301.893067 
L 417.639213 301.9216 
L 417.813482 302.195709 
L 417.987751 302.201761 
L 418.16202 302.32771 
L 418.394379 302.48028 
L 418.742917 302.736653 
L 419.207634 303.039653 
L 419.439993 303.190185 
L 419.614262 303.267912 
L 420.485607 303.800391 
L 420.776056 304.044843 
L 420.950325 304.095854 
L 423.157732 305.432147 
L 423.332001 305.591264 
L 423.448181 305.578503 
L 423.62245 305.764215 
L 423.796719 305.826654 
L 423.970988 306.069421 
L 424.145257 306.124653 
L 424.435705 306.35129 
L 424.668064 306.417314 
L 424.842333 306.585106 
L 424.900423 306.592556 
L 425.074692 306.76451 
L 425.132781 306.740716 
L 425.30705 306.921306 
L 425.36514 306.896541 
L 425.539409 307.072243 
L 425.713678 307.137959 
L 426.120306 307.313345 
L 426.294575 307.523593 
L 426.410754 307.571361 
L 426.585023 307.694061 
L 426.817382 307.889795 
L 426.991651 307.894484 
L 427.282099 308.139127 
L 427.340189 308.136461 
L 427.456368 308.267231 
L 427.688727 308.331707 
L 427.862996 308.456542 
L 428.327713 308.731881 
L 428.501982 308.936185 
L 428.85052 309.053245 
L 429.024789 309.221897 
L 429.199058 309.294353 
L 429.663776 309.665492 
L 430.302762 309.935192 
L 430.6513 310.227293 
L 430.999838 310.395526 
L 431.232197 310.618522 
L 431.406466 310.62859 
L 432.335901 311.31458 
L 432.51017 311.30559 
L 432.742529 311.496114 
L 433.207246 311.850649 
L 433.265336 311.840369 
L 433.439605 312.019159 
L 433.846232 312.234513 
L 434.020501 312.372631 
L 434.19477 312.45079 
L 434.427129 312.599169 
L 434.717577 312.674248 
L 434.949936 312.930417 
L 435.066115 312.965711 
L 435.240384 313.006617 
L 435.414654 313.197073 
L 436.11173 313.459131 
L 436.285999 313.718635 
L 436.576447 313.811024 
L 436.750716 313.958355 
L 436.866895 313.93643 
L 437.157344 314.317726 
L 437.447792 314.285928 
L 437.73824 314.557068 
L 437.970599 314.617016 
L 438.144868 314.860052 
L 438.725765 315.110904 
L 438.900034 315.317384 
L 439.074303 315.3196 
L 439.248572 315.527474 
L 439.59711 315.632176 
L 439.771379 315.825157 
L 439.945648 315.892527 
L 440.178007 316.092141 
L 440.410365 316.226463 
L 441.3398 316.76678 
L 441.514069 316.826951 
L 441.688338 317.105104 
L 441.920697 317.122685 
L 444.534732 318.753504 
L 444.592822 318.734314 
L 444.767091 319.017626 
L 445.057539 319.077383 
L 445.231808 319.138092 
L 445.347988 319.177204 
L 445.464167 319.432048 
L 445.696526 319.444878 
L 445.870795 319.65755 
L 446.103154 319.675726 
L 446.335512 319.845813 
L 446.451692 319.841043 
L 446.625961 320.019656 
L 446.80023 320.078957 
L 446.974499 320.298815 
L 447.206857 320.298781 
L 447.323037 320.2971 
L 447.497306 320.502369 
L 447.671575 320.470478 
L 447.903933 320.849279 
L 448.194382 320.879551 
L 449.065727 321.548548 
L 449.298086 321.546799 
L 449.472355 321.763695 
L 449.762803 321.884179 
L 449.937072 322.113698 
L 450.169431 322.119626 
L 450.3437 322.368183 
L 450.517969 322.419056 
L 450.692238 322.525171 
L 450.750327 322.510711 
L 450.866507 322.61397 
L 451.098865 322.702745 
L 451.215045 322.813133 
L 451.273134 322.803321 
L 451.505493 323.019612 
L 451.970211 323.27147 
L 452.14448 323.37216 
L 452.493018 323.558891 
L 452.667287 323.666338 
L 452.783466 323.728361 
L 452.957735 323.850429 
L 453.190094 323.95242 
L 453.82908 324.257628 
L 453.945259 324.41154 
L 454.119529 324.42545 
L 454.584246 324.752976 
L 454.874694 324.849243 
L 455.048963 325.11858 
L 455.455591 325.156776 
L 455.62986 325.327336 
L 456.268846 325.704337 
L 456.501205 325.77381 
L 457.140192 326.116162 
L 457.198281 326.09653 
L 457.314461 326.185527 
L 457.37255 326.184325 
L 457.546819 326.401139 
L 457.953447 326.471598 
L 458.243895 326.79943 
L 458.534344 326.74638 
L 458.592433 326.917812 
L 458.650523 326.882604 
L 458.940971 326.954065 
L 459.17333 327.161055 
L 461.555007 328.167718 
L 461.671186 328.132349 
L 461.845455 328.231955 
L 462.484442 328.445263 
L 462.658711 328.623814 
L 463.413876 328.844635 
L 463.646235 328.916408 
L 464.169042 329.071391 
L 464.343311 329.148683 
L 464.51758 329.276809 
L 465.272746 329.519181 
L 465.505105 329.523312 
L 465.795553 329.710647 
L 466.202181 329.752715 
L 466.550719 329.912801 
L 467.015436 330.043752 
L 467.712512 330.207023 
L 468.235319 330.370405 
L 468.525768 330.444897 
L 469.164754 330.522217 
L 469.513292 330.626036 
L 470.036099 330.751702 
L 470.326548 330.818515 
L 470.965534 330.92608 
L 471.197893 331.005331 
L 471.66261 331.055738 
L 471.778789 331.056594 
L 471.953058 331.15555 
L 472.359686 331.145503 
L 472.650134 331.217262 
L 475.26417 331.530395 
L 475.554618 331.558728 
L 475.845067 331.664806 
L 476.077425 331.650411 
L 476.425963 331.627827 
L 476.890681 331.680899 
L 478.633371 331.95202 
L 478.80764 331.880612 
L 479.039999 331.948411 
L 479.446626 332.07419 
L 479.737075 332.061235 
L 489.321871 332.582691 
L 489.49614 332.544883 
L 489.786588 332.605705 
L 490.193216 332.661436 
L 490.483664 332.596022 
L 491.006471 332.663014 
L 491.29692 332.659409 
L 491.529278 332.780291 
L 491.935906 332.683939 
L 492.342534 332.726079 
L 492.458713 332.574627 
L 492.632982 332.69661 
L 492.807251 332.739949 
L 493.03961 332.764787 
L 494.027134 332.781772 
L 494.201403 332.798059 
L 494.84039 332.799789 
L 495.247018 332.842868 
L 495.595556 332.808075 
L 509.653257 333.159374 
L 509.827526 333.184008 
L 510.001795 333.237102 
L 510.234153 333.224177 
L 510.989319 333.291097 
L 515.868852 333.364478 
L 516.101211 333.326956 
L 516.449749 333.298108 
L 516.624018 333.342145 
L 516.914466 333.42665 
L 517.321094 333.331408 
L 517.495363 333.399382 
L 517.96008 333.406473 
L 518.134349 333.43771 
L 518.889515 333.388278 
L 519.412322 333.439189 
L 519.528501 333.447117 
L 519.70277 333.348155 
L 520.922653 333.450744 
L 521.096922 333.385562 
L 522.200626 333.44352 
L 522.491075 333.478907 
L 523.130061 333.548408 
L 523.420509 333.470899 
L 525.918365 333.564235 
L 526.208814 333.562999 
L 526.441172 333.577908 
L 526.673531 333.481247 
L 526.90589 333.571571 
L 528.764759 333.615281 
L 529.171387 333.623518 
L 529.752284 333.620033 
L 529.926553 333.714506 
L 530.39127 333.632396 
L 531.204526 333.729398 
L 531.378795 333.672308 
L 531.785422 333.648037 
L 539.220901 333.792188 
L 539.627528 333.856737 
L 539.859887 333.868906 
L 540.266515 333.877779 
L 540.440784 333.845312 
L 540.731232 333.855781 
L 540.963591 333.850916 
L 541.254039 333.858073 
L 541.660667 333.9295 
L 542.009205 333.842462 
L 542.183474 333.868631 
L 544.332792 333.862733 
L 544.62324 333.856243 
L 545.262227 333.890873 
L 545.668855 333.900669 
L 545.843124 333.930523 
L 546.133572 333.918019 
L 546.365931 333.951791 
L 547.992442 333.887939 
L 548.2248 333.982911 
L 548.515249 333.955424 
L 548.747607 333.947318 
L 548.979966 333.947894 
L 549.096145 333.917357 
L 549.502773 333.921633 
L 549.735132 333.997675 
L 550.141759 333.912692 
L 550.316028 333.955416 
L 551.245463 333.964661 
L 551.419732 333.993502 
L 551.652091 333.974282 
L 551.942539 334.00864 
L 552.407257 334.012287 
L 552.581526 333.99179 
L 553.220512 334.015589 
L 553.452871 334.01968 
L 553.743319 334.09242 
L 554.266126 334.079481 
L 556.589713 334.130046 
L 556.763982 334.12332 
L 558.100045 334.194233 
L 558.332403 334.156815 
L 558.97139 334.148721 
L 559.203749 334.13441 
L 559.610376 334.187615 
L 559.842735 334.171737 
L 560.133183 334.18541 
L 564.37373 334.294563 
L 564.547999 334.270282 
L 564.896537 334.282184 
L 566.11642 334.296503 
L 566.406868 334.270992 
L 566.755406 334.37685 
L 567.162034 334.311397 
L 568.962814 334.363512 
L 569.253262 334.412409 
L 569.427531 334.396656 
L 569.71798 334.376526 
L 569.892249 334.413243 
L 570.415056 334.407992 
L 571.286401 334.422121 
L 573.26145 334.423685 
L 573.551898 334.461508 
L 575.178409 334.451673 
L 575.875485 334.510602 
L 576.398292 334.459072 
L 577.618175 334.526473 
L 577.908624 334.581098 
L 578.140982 334.572247 
L 578.48952 334.54006 
L 578.663789 334.616828 
L 578.838058 334.561732 
L 579.070417 334.63683 
L 579.244686 334.600758 
L 579.651314 334.606996 
L 579.825583 334.611425 
L 580.232211 334.574712 
L 580.871197 334.601007 
L 581.103556 334.544295 
L 581.974901 334.61566 
L 582.846246 334.677752 
L 582.962425 334.713714 
L 583.194784 334.617377 
L 583.775681 334.631023 
L 583.89186 334.61772 
L 584.124219 334.744656 
L 584.414667 334.665067 
L 584.763205 334.74077 
L 584.879384 334.778306 
L 585.111743 334.690723 
L 585.460281 334.713187 
L 585.63455 334.752826 
L 585.924999 334.708149 
L 586.099268 334.774678 
L 586.563985 334.763925 
L 586.796344 334.815247 
L 587.144882 334.77122 
L 587.319151 334.788765 
L 588.016227 334.845692 
L 588.190496 334.801192 
L 588.422855 334.864151 
L 588.597124 334.852251 
L 588.887572 334.835871 
L 589.817007 334.853895 
L 589.991276 334.846745 
L 590.339814 334.928683 
L 590.746441 334.842906 
L 590.9788 334.891337 
L 591.211159 334.85286 
L 591.733966 334.889389 
L 594.173732 334.9552 
L 594.406091 335.004314 
L 594.754629 334.968843 
L 594.986988 334.989792 
L 595.161257 335.035466 
L 595.509795 334.997545 
L 595.684064 335.032836 
L 595.916422 334.970466 
L 596.206871 335.044315 
L 596.38114 335.070438 
L 596.787768 335.065901 
L 598.12383 335.062426 
L 598.356189 335.056028 
L 598.937086 335.080921 
L 599.285624 335.116019 
L 600.040789 335.14027 
L 600.273148 335.08923 
L 600.737865 335.137087 
L 601.028314 335.149046 
L 601.202583 335.166125 
L 601.376852 335.10657 
L 601.72539 335.143268 
L 602.190107 335.161842 
L 602.364376 335.173714 
L 602.538645 335.185515 
L 602.712914 335.215922 
L 603.003363 335.187811 
L 603.40999 335.216585 
L 603.758528 335.243248 
L 603.932797 335.211771 
L 604.223246 335.307616 
L 604.513694 335.241228 
L 604.687963 335.307206 
L 605.21077 335.211671 
L 605.501219 335.234503 
L 606.256384 335.238277 
L 606.604922 335.313887 
L 606.895371 335.310793 
L 607.12773 335.337794 
L 607.360088 335.225075 
L 607.824806 335.341076 
L 609.799855 335.460533 
L 609.916034 335.468689 
L 610.148393 335.424491 
L 610.61311 335.391846 
L 610.787379 335.44193 
L 612.297711 335.423404 
L 612.47198 335.53386 
L 612.936697 335.438274 
L 613.110966 335.50004 
L 613.459504 335.5231 
L 613.633773 335.527811 
L 613.924221 335.452002 
L 614.330849 335.481037 
L 615.260284 335.55614 
L 615.434553 335.522467 
L 615.608822 335.543938 
L 616.422077 335.542434 
L 616.654436 335.565295 
L 616.828705 335.56917 
L 617.119153 335.536373 
L 617.293422 335.593672 
L 622.637672 335.717191 
L 622.753852 335.723009 
L 622.98621 335.717523 
L 623.392838 335.710464 
L 623.625197 335.742814 
L 625.367887 335.843493 
L 625.600246 335.79901 
L 625.890694 335.852669 
L 626.006874 335.809196 
L 626.297322 335.923266 
L 626.529681 335.824827 
L 628.156191 335.872632 
L 628.33046 335.899734 
L 628.911357 335.992528 
L 629.317985 335.919187 
L 629.550344 335.959431 
L 630.015061 335.986554 
L 630.305509 335.992191 
L 630.944496 335.951781 
L 658.71136 336.675308 
L 658.885629 336.70808 
L 659.350346 336.771206 
L 659.582705 336.710995 
L 660.57023 336.771271 
L 661.151126 336.749703 
L 661.615844 336.832217 
L 661.848202 336.741116 
L 662.429099 336.784187 
L 662.661458 336.828422 
L 663.068085 336.888343 
L 663.300444 336.776294 
L 666.843914 336.967053 
L 667.018183 337.000336 
L 667.308632 337.075454 
L 667.482901 337.060821 
L 668.993232 337.029782 
L 669.167501 337.081443 
L 670.038846 337.065571 
L 670.213115 337.10173 
L 670.561653 337.051003 
L 670.852102 337.102018 
L 671.14255 337.03394 
L 671.374909 337.153612 
L 671.723447 337.068814 
L 672.304344 337.053239 
L 672.420523 337.057544 
L 672.594792 337.133132 
L 672.88524 337.060304 
L 673.291868 337.115864 
L 673.524227 337.114785 
L 673.698496 337.184787 
L 673.930854 337.107065 
L 674.279393 337.21271 
L 676.42871 337.211708 
L 676.719159 337.265835 
L 676.951518 337.21926 
L 677.241966 337.303655 
L 677.474325 337.239202 
L 677.764773 337.357204 
L 678.055221 337.240656 
L 678.403759 337.351509 
L 678.694208 337.25178 
L 679.042746 337.373475 
L 679.739822 337.362381 
L 679.856001 337.371906 
L 679.914091 337.317097 
L 679.914091 337.317097 
" clip-path="url(#p2394244e49)" style="fill: none; stroke: #0000ff; stroke-width: 1.5; stroke-linecap: square"/>
   </g>
   <g id="line2d_13">
    <path d="M 64.91 360.212727 
L 709.2 360.212727 
" clip-path="url(#p2394244e49)" style="fill: none; stroke-dasharray: 0.37,0.16; stroke-dashoffset: 0; stroke: #000000; stroke-width: 0.1"/>
   </g>
   <g id="patch_3">
    <path d="M 64.91 375.64 
L 64.91 36.24 
" style="fill: none; stroke: #000000; stroke-width: 0.8; stroke-linejoin: miter; stroke-linecap: square"/>
   </g>
   <g id="patch_4">
    <path d="M 709.2 375.64 
L 709.2 36.24 
" style="fill: none; stroke: #000000; stroke-width: 0.8; stroke-linejoin: miter; stroke-linecap: square"/>
   </g>
   <g id="patch_5">
    <path d="M 64.91 375.64 
L 709.2 375.64 
" style="fill: none; stroke: #000000; stroke-width: 0.8; stroke-linejoin: miter; stroke-linecap: square"/>
   </g>
   <g id="patch_6">
    <path d="M 64.91 36.24 
L 709.2 36.24 
" style="fill: none; stroke: #000000; stroke-width: 0.8; stroke-linejoin: miter; stroke-linecap: square"/>
   </g>
   <g id="text_14">
    <!-- Closest Points -->
    <g transform="translate(296.599375 30.24) scale(0.26 -0.26)">
     <defs>
      <path id="DejaVuSans-43" d="M 4122 4306 
L 4122 3641 
Q 3803 3938 3442 4084 
Q 3081 4231 2675 4231 
Q 1875 4231 1450 3742 
Q 1025 3253 1025 2328 
Q 1025 1406 1450 917 
Q 1875 428 2675 428 
Q 3081 428 3442 575 
Q 3803 722 4122 1019 
L 4122 359 
Q 3791 134 3420 21 
Q 3050 -91 2638 -91 
Q 1578 -91 968 557 
Q 359 1206 359 2328 
Q 359 3453 968 4101 
Q 1578 4750 2638 4750 
Q 3056 4750 3426 4639 
Q 3797 4528 4122 4306 
z
" transform="scale(0.015625)"/>
      <path id="DejaVuSans-6c" d="M 603 4863 
L 1178 4863 
L 1178 0 
L 603 0 
L 603 4863 
z
" transform="scale(0.015625)"/>
      <path id="DejaVuSans-6f" d="M 1959 3097 
Q 1497 3097 1228 2736 
Q 959 2375 959 1747 
Q 959 1119 1226 758 
Q 1494 397 1959 397 
Q 2419 397 2687 759 
Q 2956 1122 2956 1747 
Q 2956 2369 2687 2733 
Q 2419 3097 1959 3097 
z
M 1959 3584 
Q 2709 3584 3137 3096 
Q 3566 2609 3566 1747 
Q 3566 888 3137 398 
Q 2709 -91 1959 -91 
Q 1206 -91 779 398 
Q 353 888 353 1747 
Q 353 2609 779 3096 
Q 1206 3584 1959 3584 
z
" transform="scale(0.015625)"/>
      <path id="DejaVuSans-20" transform="scale(0.015625)"/>
      <path id="DejaVuSans-50" d="M 1259 4147 
L 1259 2394 
L 2053 2394 
Q 2494 2394 2734 2622 
Q 2975 2850 2975 3272 
Q 2975 3691 2734 3919 
Q 2494 4147 2053 4147 
L 1259 4147 
z
M 628 4666 
L 2053 4666 
Q 2838 4666 3239 4311 
Q 3641 3956 3641 3272 
Q 3641 2581 3239 2228 
Q 2838 1875 2053 1875 
L 1259 1875 
L 1259 0 
L 628 0 
L 628 4666 
z
" transform="scale(0.015625)"/>
      <path id="DejaVuSans-6e" d="M 3513 2113 
L 3513 0 
L 2938 0 
L 2938 2094 
Q 2938 2591 2744 2837 
Q 2550 3084 2163 3084 
Q 1697 3084 1428 2787 
Q 1159 2491 1159 1978 
L 1159 0 
L 581 0 
L 581 3500 
L 1159 3500 
L 1159 2956 
Q 1366 3272 1645 3428 
Q 1925 3584 2291 3584 
Q 2894 3584 3203 3211 
Q 3513 2838 3513 2113 
z
" transform="scale(0.015625)"/>
     </defs>
     <use xlink:href="#DejaVuSans-43"/>
     <use xlink:href="#DejaVuSans-6c" x="69.824219"/>
     <use xlink:href="#DejaVuSans-6f" x="97.607422"/>
     <use xlink:href="#DejaVuSans-73" x="158.789062"/>
     <use xlink:href="#DejaVuSans-65" x="210.888672"/>
     <use xlink:href="#DejaVuSans-73" x="272.412109"/>
     <use xlink:href="#DejaVuSans-74" x="324.511719"/>
     <use xlink:href="#DejaVuSans-20" x="363.720703"/>
     <use xlink:href="#DejaVuSans-50" x="395.507812"/>
     <use xlink:href="#DejaVuSans-6f" x="452.185547"/>
     <use xlink:href="#DejaVuSans-69" x="513.367188"/>
     <use xlink:href="#DejaVuSans-6e" x="541.150391"/>
     <use xlink:href="#DejaVuSans-74" x="604.529297"/>
     <use xlink:href="#DejaVuSans-73" x="643.738281"/>
    </g>
   </g>
  </g>
 </g>
 <defs>
  <clipPath id="p2394244e49">
   <rect x="64.91" y="36.24" width="644.29" height="339.4"/>
  </clipPath>
 </defs>
</svg>
