<?xml version="1.0" encoding="utf-8" standalone="no"?>
<!DOCTYPE svg PUBLIC "-//W3C//DTD SVG 1.1//EN"
  "http://www.w3.org/Graphics/SVG/1.1/DTD/svg11.dtd">
<svg xmlns:xlink="http://www.w3.org/1999/xlink" width="460.8pt" height="345.6pt" viewBox="0 0 460.8 345.6" xmlns="http://www.w3.org/2000/svg" version="1.1">
 <metadata>
  <rdf:RDF xmlns:dc="http://purl.org/dc/elements/1.1/" xmlns:cc="http://creativecommons.org/ns#" xmlns:rdf="http://www.w3.org/1999/02/22-rdf-syntax-ns#">
   <cc:Work>
    <dc:type rdf:resource="http://purl.org/dc/dcmitype/StillImage"/>
    <dc:date>2024-10-17T18:48:05.371200</dc:date>
    <dc:format>image/svg+xml</dc:format>
    <dc:creator>
     <cc:Agent>
      <dc:title>Matplotlib v3.7.5, https://matplotlib.org/</dc:title>
     </cc:Agent>
    </dc:creator>
   </cc:Work>
  </rdf:RDF>
 </metadata>
 <defs>
  <style type="text/css">*{stroke-linejoin: round; stroke-linecap: butt}</style>
 </defs>
 <g id="figure_1">
  <g id="patch_1">
   <path d="M 0 345.6 
L 460.8 345.6 
L 460.8 0 
L 0 0 
z
" style="fill: #ffffff"/>
  </g>
  <g id="axes_1">
   <g id="patch_2">
    <path d="M 64.91 289.24 
L 446.810179 289.24 
L 446.810179 36.24 
L 64.91 36.24 
z
" style="fill: #ffffff"/>
   </g>
   <g id="matplotlib.axis_1">
    <g id="xtick_1">
     <g id="line2d_1">
      <defs>
       <path id="m1842bcca04" d="M 0 0 
L 0 3.5 
" style="stroke: #000000; stroke-width: 0.8"/>
      </defs>
      <g>
       <use xlink:href="#m1842bcca04" x="82.269099" y="289.24" style="stroke: #000000; stroke-width: 0.8"/>
      </g>
     </g>
     <g id="text_1">
      <!-- 0 -->
      <g transform="translate(77.815349 306.877813) scale(0.14 -0.14)">
       <defs>
        <path id="DejaVuSans-30" d="M 2034 4250 
Q 1547 4250 1301 3770 
Q 1056 3291 1056 2328 
Q 1056 1369 1301 889 
Q 1547 409 2034 409 
Q 2525 409 2770 889 
Q 3016 1369 3016 2328 
Q 3016 3291 2770 3770 
Q 2525 4250 2034 4250 
z
M 2034 4750 
Q 2819 4750 3233 4129 
Q 3647 3509 3647 2328 
Q 3647 1150 3233 529 
Q 2819 -91 2034 -91 
Q 1250 -91 836 529 
Q 422 1150 422 2328 
Q 422 3509 836 4129 
Q 1250 4750 2034 4750 
z
" transform="scale(0.015625)"/>
       </defs>
       <use xlink:href="#DejaVuSans-30"/>
      </g>
     </g>
    </g>
    <g id="xtick_2">
     <g id="line2d_2">
      <g>
       <use xlink:href="#m1842bcca04" x="151.133917" y="289.24" style="stroke: #000000; stroke-width: 0.8"/>
      </g>
     </g>
     <g id="text_2">
      <!-- 2000 -->
      <g transform="translate(133.318917 306.877813) scale(0.14 -0.14)">
       <defs>
        <path id="DejaVuSans-32" d="M 1228 531 
L 3431 531 
L 3431 0 
L 469 0 
L 469 531 
Q 828 903 1448 1529 
Q 2069 2156 2228 2338 
Q 2531 2678 2651 2914 
Q 2772 3150 2772 3378 
Q 2772 3750 2511 3984 
Q 2250 4219 1831 4219 
Q 1534 4219 1204 4116 
Q 875 4013 500 3803 
L 500 4441 
Q 881 4594 1212 4672 
Q 1544 4750 1819 4750 
Q 2544 4750 2975 4387 
Q 3406 4025 3406 3419 
Q 3406 3131 3298 2873 
Q 3191 2616 2906 2266 
Q 2828 2175 2409 1742 
Q 1991 1309 1228 531 
z
" transform="scale(0.015625)"/>
       </defs>
       <use xlink:href="#DejaVuSans-32"/>
       <use xlink:href="#DejaVuSans-30" x="63.623047"/>
       <use xlink:href="#DejaVuSans-30" x="127.246094"/>
       <use xlink:href="#DejaVuSans-30" x="190.869141"/>
      </g>
     </g>
    </g>
    <g id="xtick_3">
     <g id="line2d_3">
      <g>
       <use xlink:href="#m1842bcca04" x="219.998735" y="289.24" style="stroke: #000000; stroke-width: 0.8"/>
      </g>
     </g>
     <g id="text_3">
      <!-- 4000 -->
      <g transform="translate(202.183735 306.877813) scale(0.14 -0.14)">
       <defs>
        <path id="DejaVuSans-34" d="M 2419 4116 
L 825 1625 
L 2419 1625 
L 2419 4116 
z
M 2253 4666 
L 3047 4666 
L 3047 1625 
L 3713 1625 
L 3713 1100 
L 3047 1100 
L 3047 0 
L 2419 0 
L 2419 1100 
L 313 1100 
L 313 1709 
L 2253 4666 
z
" transform="scale(0.015625)"/>
       </defs>
       <use xlink:href="#DejaVuSans-34"/>
       <use xlink:href="#DejaVuSans-30" x="63.623047"/>
       <use xlink:href="#DejaVuSans-30" x="127.246094"/>
       <use xlink:href="#DejaVuSans-30" x="190.869141"/>
      </g>
     </g>
    </g>
    <g id="xtick_4">
     <g id="line2d_4">
      <g>
       <use xlink:href="#m1842bcca04" x="288.863553" y="289.24" style="stroke: #000000; stroke-width: 0.8"/>
      </g>
     </g>
     <g id="text_4">
      <!-- 6000 -->
      <g transform="translate(271.048553 306.877813) scale(0.14 -0.14)">
       <defs>
        <path id="DejaVuSans-36" d="M 2113 2584 
Q 1688 2584 1439 2293 
Q 1191 2003 1191 1497 
Q 1191 994 1439 701 
Q 1688 409 2113 409 
Q 2538 409 2786 701 
Q 3034 994 3034 1497 
Q 3034 2003 2786 2293 
Q 2538 2584 2113 2584 
z
M 3366 4563 
L 3366 3988 
Q 3128 4100 2886 4159 
Q 2644 4219 2406 4219 
Q 1781 4219 1451 3797 
Q 1122 3375 1075 2522 
Q 1259 2794 1537 2939 
Q 1816 3084 2150 3084 
Q 2853 3084 3261 2657 
Q 3669 2231 3669 1497 
Q 3669 778 3244 343 
Q 2819 -91 2113 -91 
Q 1303 -91 875 529 
Q 447 1150 447 2328 
Q 447 3434 972 4092 
Q 1497 4750 2381 4750 
Q 2619 4750 2861 4703 
Q 3103 4656 3366 4563 
z
" transform="scale(0.015625)"/>
       </defs>
       <use xlink:href="#DejaVuSans-36"/>
       <use xlink:href="#DejaVuSans-30" x="63.623047"/>
       <use xlink:href="#DejaVuSans-30" x="127.246094"/>
       <use xlink:href="#DejaVuSans-30" x="190.869141"/>
      </g>
     </g>
    </g>
    <g id="xtick_5">
     <g id="line2d_5">
      <g>
       <use xlink:href="#m1842bcca04" x="357.728372" y="289.24" style="stroke: #000000; stroke-width: 0.8"/>
      </g>
     </g>
     <g id="text_5">
      <!-- 8000 -->
      <g transform="translate(339.913372 306.877813) scale(0.14 -0.14)">
       <defs>
        <path id="DejaVuSans-38" d="M 2034 2216 
Q 1584 2216 1326 1975 
Q 1069 1734 1069 1313 
Q 1069 891 1326 650 
Q 1584 409 2034 409 
Q 2484 409 2743 651 
Q 3003 894 3003 1313 
Q 3003 1734 2745 1975 
Q 2488 2216 2034 2216 
z
M 1403 2484 
Q 997 2584 770 2862 
Q 544 3141 544 3541 
Q 544 4100 942 4425 
Q 1341 4750 2034 4750 
Q 2731 4750 3128 4425 
Q 3525 4100 3525 3541 
Q 3525 3141 3298 2862 
Q 3072 2584 2669 2484 
Q 3125 2378 3379 2068 
Q 3634 1759 3634 1313 
Q 3634 634 3220 271 
Q 2806 -91 2034 -91 
Q 1263 -91 848 271 
Q 434 634 434 1313 
Q 434 1759 690 2068 
Q 947 2378 1403 2484 
z
M 1172 3481 
Q 1172 3119 1398 2916 
Q 1625 2713 2034 2713 
Q 2441 2713 2670 2916 
Q 2900 3119 2900 3481 
Q 2900 3844 2670 4047 
Q 2441 4250 2034 4250 
Q 1625 4250 1398 4047 
Q 1172 3844 1172 3481 
z
" transform="scale(0.015625)"/>
       </defs>
       <use xlink:href="#DejaVuSans-38"/>
       <use xlink:href="#DejaVuSans-30" x="63.623047"/>
       <use xlink:href="#DejaVuSans-30" x="127.246094"/>
       <use xlink:href="#DejaVuSans-30" x="190.869141"/>
      </g>
     </g>
    </g>
    <g id="xtick_6">
     <g id="line2d_6">
      <g>
       <use xlink:href="#m1842bcca04" x="426.59319" y="289.24" style="stroke: #000000; stroke-width: 0.8"/>
      </g>
     </g>
     <g id="text_6">
      <!-- 10000 -->
      <g transform="translate(404.32444 306.877813) scale(0.14 -0.14)">
       <defs>
        <path id="DejaVuSans-31" d="M 794 531 
L 1825 531 
L 1825 4091 
L 703 3866 
L 703 4441 
L 1819 4666 
L 2450 4666 
L 2450 531 
L 3481 531 
L 3481 0 
L 794 0 
L 794 531 
z
" transform="scale(0.015625)"/>
       </defs>
       <use xlink:href="#DejaVuSans-31"/>
       <use xlink:href="#DejaVuSans-30" x="63.623047"/>
       <use xlink:href="#DejaVuSans-30" x="127.246094"/>
       <use xlink:href="#DejaVuSans-30" x="190.869141"/>
       <use xlink:href="#DejaVuSans-30" x="254.492188"/>
      </g>
     </g>
    </g>
    <g id="text_7">
     <!-- Timesteps -->
     <g transform="translate(199.421496 330.505937) scale(0.22 -0.22)">
      <defs>
       <path id="DejaVuSans-54" d="M -19 4666 
L 3928 4666 
L 3928 4134 
L 2272 4134 
L 2272 0 
L 1638 0 
L 1638 4134 
L -19 4134 
L -19 4666 
z
" transform="scale(0.015625)"/>
       <path id="DejaVuSans-69" d="M 603 3500 
L 1178 3500 
L 1178 0 
L 603 0 
L 603 3500 
z
M 603 4863 
L 1178 4863 
L 1178 4134 
L 603 4134 
L 603 4863 
z
" transform="scale(0.015625)"/>
       <path id="DejaVuSans-6d" d="M 3328 2828 
Q 3544 3216 3844 3400 
Q 4144 3584 4550 3584 
Q 5097 3584 5394 3201 
Q 5691 2819 5691 2113 
L 5691 0 
L 5113 0 
L 5113 2094 
Q 5113 2597 4934 2840 
Q 4756 3084 4391 3084 
Q 3944 3084 3684 2787 
Q 3425 2491 3425 1978 
L 3425 0 
L 2847 0 
L 2847 2094 
Q 2847 2600 2669 2842 
Q 2491 3084 2119 3084 
Q 1678 3084 1418 2786 
Q 1159 2488 1159 1978 
L 1159 0 
L 581 0 
L 581 3500 
L 1159 3500 
L 1159 2956 
Q 1356 3278 1631 3431 
Q 1906 3584 2284 3584 
Q 2666 3584 2933 3390 
Q 3200 3197 3328 2828 
z
" transform="scale(0.015625)"/>
       <path id="DejaVuSans-65" d="M 3597 1894 
L 3597 1613 
L 953 1613 
Q 991 1019 1311 708 
Q 1631 397 2203 397 
Q 2534 397 2845 478 
Q 3156 559 3463 722 
L 3463 178 
Q 3153 47 2828 -22 
Q 2503 -91 2169 -91 
Q 1331 -91 842 396 
Q 353 884 353 1716 
Q 353 2575 817 3079 
Q 1281 3584 2069 3584 
Q 2775 3584 3186 3129 
Q 3597 2675 3597 1894 
z
M 3022 2063 
Q 3016 2534 2758 2815 
Q 2500 3097 2075 3097 
Q 1594 3097 1305 2825 
Q 1016 2553 972 2059 
L 3022 2063 
z
" transform="scale(0.015625)"/>
       <path id="DejaVuSans-73" d="M 2834 3397 
L 2834 2853 
Q 2591 2978 2328 3040 
Q 2066 3103 1784 3103 
Q 1356 3103 1142 2972 
Q 928 2841 928 2578 
Q 928 2378 1081 2264 
Q 1234 2150 1697 2047 
L 1894 2003 
Q 2506 1872 2764 1633 
Q 3022 1394 3022 966 
Q 3022 478 2636 193 
Q 2250 -91 1575 -91 
Q 1294 -91 989 -36 
Q 684 19 347 128 
L 347 722 
Q 666 556 975 473 
Q 1284 391 1588 391 
Q 1994 391 2212 530 
Q 2431 669 2431 922 
Q 2431 1156 2273 1281 
Q 2116 1406 1581 1522 
L 1381 1569 
Q 847 1681 609 1914 
Q 372 2147 372 2553 
Q 372 3047 722 3315 
Q 1072 3584 1716 3584 
Q 2034 3584 2315 3537 
Q 2597 3491 2834 3397 
z
" transform="scale(0.015625)"/>
       <path id="DejaVuSans-74" d="M 1172 4494 
L 1172 3500 
L 2356 3500 
L 2356 3053 
L 1172 3053 
L 1172 1153 
Q 1172 725 1289 603 
Q 1406 481 1766 481 
L 2356 481 
L 2356 0 
L 1766 0 
Q 1100 0 847 248 
Q 594 497 594 1153 
L 594 3053 
L 172 3053 
L 172 3500 
L 594 3500 
L 594 4494 
L 1172 4494 
z
" transform="scale(0.015625)"/>
       <path id="DejaVuSans-70" d="M 1159 525 
L 1159 -1331 
L 581 -1331 
L 581 3500 
L 1159 3500 
L 1159 2969 
Q 1341 3281 1617 3432 
Q 1894 3584 2278 3584 
Q 2916 3584 3314 3078 
Q 3713 2572 3713 1747 
Q 3713 922 3314 415 
Q 2916 -91 2278 -91 
Q 1894 -91 1617 61 
Q 1341 213 1159 525 
z
M 3116 1747 
Q 3116 2381 2855 2742 
Q 2594 3103 2138 3103 
Q 1681 3103 1420 2742 
Q 1159 2381 1159 1747 
Q 1159 1113 1420 752 
Q 1681 391 2138 391 
Q 2594 391 2855 752 
Q 3116 1113 3116 1747 
z
" transform="scale(0.015625)"/>
      </defs>
      <use xlink:href="#DejaVuSans-54"/>
      <use xlink:href="#DejaVuSans-69" x="57.958984"/>
      <use xlink:href="#DejaVuSans-6d" x="85.742188"/>
      <use xlink:href="#DejaVuSans-65" x="183.154297"/>
      <use xlink:href="#DejaVuSans-73" x="244.677734"/>
      <use xlink:href="#DejaVuSans-74" x="296.777344"/>
      <use xlink:href="#DejaVuSans-65" x="335.986328"/>
      <use xlink:href="#DejaVuSans-70" x="397.509766"/>
      <use xlink:href="#DejaVuSans-73" x="460.986328"/>
     </g>
    </g>
   </g>
   <g id="matplotlib.axis_2">
    <g id="ytick_1">
     <g id="line2d_7">
      <defs>
       <path id="m24bec7a287" d="M 0 0 
L -3.5 0 
" style="stroke: #000000; stroke-width: 0.8"/>
      </defs>
      <g>
       <use xlink:href="#m24bec7a287" x="64.91" y="277.74" style="stroke: #000000; stroke-width: 0.8"/>
      </g>
     </g>
     <g id="text_8">
      <!-- 0.0 -->
      <g transform="translate(35.645625 283.058906) scale(0.14 -0.14)">
       <defs>
        <path id="DejaVuSans-2e" d="M 684 794 
L 1344 794 
L 1344 0 
L 684 0 
L 684 794 
z
" transform="scale(0.015625)"/>
       </defs>
       <use xlink:href="#DejaVuSans-30"/>
       <use xlink:href="#DejaVuSans-2e" x="63.623047"/>
       <use xlink:href="#DejaVuSans-30" x="95.410156"/>
      </g>
     </g>
    </g>
    <g id="ytick_2">
     <g id="line2d_8">
      <g>
       <use xlink:href="#m24bec7a287" x="64.91" y="227.044542" style="stroke: #000000; stroke-width: 0.8"/>
      </g>
     </g>
     <g id="text_9">
      <!-- 0.2 -->
      <g transform="translate(35.645625 232.363448) scale(0.14 -0.14)">
       <use xlink:href="#DejaVuSans-30"/>
       <use xlink:href="#DejaVuSans-2e" x="63.623047"/>
       <use xlink:href="#DejaVuSans-32" x="95.410156"/>
      </g>
     </g>
    </g>
    <g id="ytick_3">
     <g id="line2d_9">
      <g>
       <use xlink:href="#m24bec7a287" x="64.91" y="176.349084" style="stroke: #000000; stroke-width: 0.8"/>
      </g>
     </g>
     <g id="text_10">
      <!-- 0.4 -->
      <g transform="translate(35.645625 181.66799) scale(0.14 -0.14)">
       <use xlink:href="#DejaVuSans-30"/>
       <use xlink:href="#DejaVuSans-2e" x="63.623047"/>
       <use xlink:href="#DejaVuSans-34" x="95.410156"/>
      </g>
     </g>
    </g>
    <g id="ytick_4">
     <g id="line2d_10">
      <g>
       <use xlink:href="#m24bec7a287" x="64.91" y="125.653626" style="stroke: #000000; stroke-width: 0.8"/>
      </g>
     </g>
     <g id="text_11">
      <!-- 0.6 -->
      <g transform="translate(35.645625 130.972532) scale(0.14 -0.14)">
       <use xlink:href="#DejaVuSans-30"/>
       <use xlink:href="#DejaVuSans-2e" x="63.623047"/>
       <use xlink:href="#DejaVuSans-36" x="95.410156"/>
      </g>
     </g>
    </g>
    <g id="ytick_5">
     <g id="line2d_11">
      <g>
       <use xlink:href="#m24bec7a287" x="64.91" y="74.958168" style="stroke: #000000; stroke-width: 0.8"/>
      </g>
     </g>
     <g id="text_12">
      <!-- 0.8 -->
      <g transform="translate(35.645625 80.277074) scale(0.14 -0.14)">
       <use xlink:href="#DejaVuSans-30"/>
       <use xlink:href="#DejaVuSans-2e" x="63.623047"/>
       <use xlink:href="#DejaVuSans-38" x="95.410156"/>
      </g>
     </g>
    </g>
    <g id="text_13">
     <!-- meter -->
     <g transform="translate(27.070313 195.825937) rotate(-90) scale(0.22 -0.22)">
      <defs>
       <path id="DejaVuSans-72" d="M 2631 2963 
Q 2534 3019 2420 3045 
Q 2306 3072 2169 3072 
Q 1681 3072 1420 2755 
Q 1159 2438 1159 1844 
L 1159 0 
L 581 0 
L 581 3500 
L 1159 3500 
L 1159 2956 
Q 1341 3275 1631 3429 
Q 1922 3584 2338 3584 
Q 2397 3584 2469 3576 
Q 2541 3569 2628 3553 
L 2631 2963 
z
" transform="scale(0.015625)"/>
      </defs>
      <use xlink:href="#DejaVuSans-6d"/>
      <use xlink:href="#DejaVuSans-65" x="97.412109"/>
      <use xlink:href="#DejaVuSans-74" x="158.935547"/>
      <use xlink:href="#DejaVuSans-65" x="198.144531"/>
      <use xlink:href="#DejaVuSans-72" x="259.667969"/>
     </g>
    </g>
   </g>
   <g id="line2d_12">
    <path d="M 82.269099 47.74 
L 82.544558 47.874768 
L 82.751153 48.488808 
L 84.541638 50.997768 
L 84.57607 50.996634 
L 84.782665 51.412106 
L 84.817097 51.419544 
L 84.989259 51.751929 
L 85.092557 51.822696 
L 85.299151 52.183099 
L 86.57315 54.073077 
L 86.642015 54.171372 
L 86.745312 54.280676 
L 86.917474 54.531423 
L 87.43396 55.347711 
L 87.468393 55.349313 
L 87.674987 55.73837 
L 87.847149 55.899529 
L 88.088176 56.282907 
L 88.191473 56.375943 
L 88.225906 56.39006 
L 88.4325 56.790314 
L 92.42666 62.505609 
L 92.529957 62.63491 
L 92.770984 63.018643 
L 92.874281 63.137282 
L 93.14974 63.53977 
L 93.253038 63.615189 
L 93.494064 64.036024 
L 93.597362 64.131411 
L 93.803956 64.502529 
L 93.976118 64.651959 
L 94.217145 65.084689 
L 94.423739 65.298331 
L 94.664766 65.67878 
L 94.768064 65.758206 
L 94.940226 66.026225 
L 95.215685 66.479482 
L 96.179792 67.737774 
L 96.420819 68.147143 
L 96.834008 68.673419 
L 97.00617 68.940363 
L 97.109467 69.051711 
L 97.316062 69.408937 
L 97.488224 69.585611 
L 97.694818 69.883209 
L 97.901413 70.129647 
L 98.00471 70.247657 
L 98.245737 70.636768 
L 98.349034 70.741363 
L 98.590061 71.153677 
L 98.727791 71.244717 
L 98.934385 71.566092 
L 99.278709 72.069529 
L 99.347574 72.17569 
L 100.414979 73.618958 
L 100.518276 73.736968 
L 100.72487 74.056826 
L 100.828168 74.176537 
L 101.069194 74.572395 
L 101.103627 74.581835 
L 101.275789 74.889597 
L 101.413518 75.017478 
L 101.585681 75.290153 
L 101.688978 75.405535 
L 101.895572 75.658916 
L 101.998869 75.798879 
L 102.239896 76.19672 
L 102.343194 76.307021 
L 102.618653 76.685191 
L 102.72195 76.806594 
L 102.997409 77.222759 
L 103.100707 77.351806 
L 103.410598 77.82919 
L 103.548328 77.91082 
L 103.789355 78.32086 
L 103.892652 78.432934 
L 104.064814 78.76625 
L 104.202544 78.891463 
L 104.44357 79.312745 
L 104.512435 79.418932 
L 104.650165 79.552743 
L 104.891192 79.952915 
L 104.925624 79.964554 
L 105.097786 80.288374 
L 105.235516 80.39791 
L 105.476543 80.801856 
L 105.545408 80.891144 
L 105.820867 81.203905 
L 105.993029 81.53311 
L 106.165191 81.688897 
L 106.406218 82.127447 
L 106.509515 82.245416 
L 106.922704 82.826735 
L 107.026001 82.955799 
L 107.370325 83.537791 
L 107.542487 83.683748 
L 107.783514 84.050686 
L 107.921244 84.150853 
L 108.127838 84.484446 
L 108.506595 85.084556 
L 108.57546 85.080297 
L 108.782054 85.432101 
L 109.091946 85.957481 
L 109.195243 86.064341 
L 109.29854 86.148244 
L 109.470702 86.445209 
L 109.573999 86.521162 
L 109.780594 86.905397 
L 109.883891 86.986627 
L 110.124918 87.397832 
L 110.262648 87.501294 
L 110.572539 88.001878 
L 110.675837 88.103141 
L 110.951296 88.526857 
L 111.054593 88.634334 
L 111.364485 89.171384 
L 111.398917 89.162661 
L 111.605512 89.495594 
L 111.777674 89.651177 
L 111.984268 89.997652 
L 112.15643 90.199158 
L 112.363025 90.52109 
L 113.568159 92.287302 
L 113.671456 92.398336 
L 113.878051 92.690128 
L 113.981348 92.766836 
L 114.222375 93.206277 
L 114.256807 93.208743 
L 114.428969 93.470551 
L 114.842158 93.99123 
L 115.01432 94.325308 
L 115.15205 94.448264 
L 115.634103 95.159331 
L 115.737401 95.218979 
L 115.978428 95.674309 
L 116.01286 95.676205 
L 116.185022 95.919621 
L 116.253887 96.048999 
L 116.460481 96.299148 
L 117.0114 97.122488 
L 117.045832 97.11956 
L 117.217994 97.412397 
L 117.252427 97.412298 
L 117.390156 97.653119 
L 117.493454 97.740353 
L 117.73448 98.160068 
L 117.837778 98.253709 
L 118.113237 98.669177 
L 118.216534 98.767073 
L 118.595291 99.370294 
L 118.629723 99.361663 
L 118.801885 99.603507 
L 119.180642 100.189766 
L 119.215074 100.193606 
L 119.387236 100.402636 
L 119.903722 101.210981 
L 120.041452 101.326879 
L 120.213614 101.625236 
L 120.385776 101.848064 
L 120.833397 102.52051 
L 121.143289 102.965871 
L 121.212154 102.981176 
L 121.384316 103.336521 
L 121.487613 103.463416 
L 121.831937 104.019309 
L 121.935234 104.085076 
L 125.894961 109.824845 
L 126.101556 110.156016 
L 126.30815 110.346068 
L 126.44588 110.665799 
L 126.618042 110.746583 
L 126.859069 111.257096 
L 126.893501 111.252061 
L 127.065663 111.574006 
L 127.134528 111.581762 
L 127.341122 111.921273 
L 127.478852 112.034092 
L 127.685447 112.408689 
L 127.857609 112.506408 
L 128.029771 112.839 
L 128.098635 112.94483 
L 128.133068 112.950148 
L 128.270798 113.232608 
L 128.374095 113.280892 
L 128.580689 113.615815 
L 128.856148 113.995898 
L 129.028311 114.209414 
L 129.407067 114.738786 
L 129.441499 114.732533 
L 129.579229 115.004782 
L 129.613661 114.991046 
L 129.854688 115.45125 
L 129.889121 115.457254 
L 130.02685 115.730859 
L 130.199012 115.941239 
L 130.336742 116.164622 
L 130.956525 117.116953 
L 131.059823 117.1828 
L 131.231985 117.490523 
L 131.335282 117.598699 
L 131.541876 117.938178 
L 131.645174 118.052255 
L 131.920633 118.333095 
L 132.058363 118.68651 
L 132.230525 118.840569 
L 132.402687 119.132993 
L 132.437119 119.128319 
L 132.540416 119.36865 
L 132.574849 119.356401 
L 134.399766 121.781341 
L 134.537496 122.082179 
L 134.709658 122.150624 
L 134.847388 122.247136 
L 134.985117 122.597066 
L 135.260577 123.039597 
L 135.398306 123.158567 
L 135.432739 123.17008 
L 135.604901 123.542937 
L 135.777063 123.65425 
L 135.88036 123.794683 
L 136.052522 124.017601 
L 136.086954 124.023206 
L 136.259116 124.462415 
L 136.431278 124.580164 
L 136.534576 124.609184 
L 136.706738 125.108529 
L 136.8789 125.17274 
L 137.016629 125.490896 
L 137.188791 125.487126 
L 137.326521 125.813556 
L 139.254736 128.550994 
L 139.358033 128.687554 
L 139.530195 129.012662 
L 139.59906 129.038594 
L 139.73679 129.174419 
L 139.874519 129.42929 
L 140.046681 129.66636 
L 140.081114 129.655128 
L 140.218843 129.841096 
L 140.322141 129.975675 
L 140.632032 130.442676 
L 140.666465 130.427482 
L 140.700897 130.528043 
L 140.907492 130.608913 
L 141.010789 130.866572 
L 141.045221 130.858706 
L 141.114086 130.860887 
L 141.286248 131.174758 
L 141.320681 131.165061 
L 141.45841 131.417054 
L 141.561707 131.490168 
L 141.699437 131.706053 
L 141.837167 131.805123 
L 142.009329 132.125032 
L 142.147058 132.196459 
L 142.31922 132.475213 
L 142.422518 132.489863 
L 142.560247 132.816355 
L 142.732409 132.839539 
L 142.904571 133.205694 
L 143.007869 133.306864 
L 143.145598 133.546862 
L 143.283328 133.507764 
L 143.524355 133.85948 
L 143.868679 134.268412 
L 144.109706 134.712747 
L 144.247435 134.782212 
L 144.45403 134.973958 
L 144.660624 135.378699 
L 144.832786 135.431699 
L 144.970516 135.66169 
L 145.108246 135.791315 
L 145.142678 135.759407 
L 145.17711 135.778227 
L 145.349272 136.190712 
L 145.693597 136.376714 
L 145.865759 136.708815 
L 145.934623 136.833446 
L 146.037921 137.004504 
L 146.072353 136.981025 
L 146.210083 137.027046 
L 146.347812 137.151315 
L 146.485542 137.242897 
L 146.588839 137.573871 
L 146.623272 137.5538 
L 146.761001 137.5144 
L 146.933163 137.915986 
L 147.070893 138.003245 
L 147.243055 138.363166 
L 147.346352 138.394487 
L 147.552947 138.74289 
L 147.690676 138.802055 
L 147.793973 139.071413 
L 147.828406 139.025083 
L 147.931703 139.10024 
L 148.069433 139.384782 
L 148.241595 139.419499 
L 148.482622 139.778615 
L 148.551486 139.866479 
L 148.689216 139.960748 
L 148.758081 140.305509 
L 148.826946 140.252277 
L 148.964675 140.355455 
L 149.102405 140.368305 
L 149.274567 140.754952 
L 149.687756 141.369924 
L 149.825486 141.340927 
L 150.03208 141.74825 
L 150.204242 141.67055 
L 150.376404 142.141579 
L 150.548566 142.204742 
L 150.720728 142.585648 
L 150.858458 142.562558 
L 151.03062 142.902076 
L 151.133917 142.977416 
L 151.374944 143.248977 
L 151.512674 143.276272 
L 151.684836 143.488049 
L 151.788133 143.525167 
L 151.925863 143.759016 
L 152.02916 143.804286 
L 152.166889 143.971203 
L 152.407916 144.234694 
L 152.442349 144.22792 
L 152.580078 144.443449 
L 152.75224 144.492743 
L 153.062132 144.890707 
L 153.165429 145.032061 
L 153.268727 145.107051 
L 153.303159 145.081372 
L 153.337591 145.083195 
L 153.509753 145.382219 
L 153.681915 145.492076 
L 153.854077 145.898308 
L 154.02624 145.956456 
L 154.336131 146.347958 
L 154.508293 146.533026 
L 154.646023 146.628075 
L 154.818185 146.862413 
L 154.921482 146.913935 
L 155.162509 147.258235 
L 155.369103 147.40019 
L 155.541266 147.554558 
L 155.575698 147.548577 
L 155.74786 147.767499 
L 155.88559 147.863697 
L 156.057752 148.059227 
L 156.161049 148.065616 
L 156.195481 148.200551 
L 156.264346 148.169184 
L 156.367643 148.214783 
L 156.643103 148.541634 
L 156.7464 148.635798 
L 156.918562 148.824705 
L 157.021859 148.877115 
L 157.262886 149.173933 
L 157.538345 149.494144 
L 157.676075 149.431099 
L 157.779372 149.687199 
L 157.813805 149.680684 
L 157.985967 149.716531 
L 158.192561 150.114428 
L 158.433588 150.288292 
L 158.60575 150.399445 
L 158.640182 150.396568 
L 158.777912 150.608145 
L 158.950074 150.661753 
L 159.087804 150.88636 
L 159.776452 151.43774 
L 159.845317 151.417667 
L 159.983046 151.620558 
L 160.120776 151.56771 
L 160.189641 151.83706 
L 160.258506 151.811614 
L 160.396235 151.918427 
L 160.499532 151.997212 
L 160.671694 152.26166 
L 160.878289 152.263016 
L 160.947154 152.405201 
L 161.016019 152.373588 
L 161.084883 152.34413 
L 161.291478 152.646006 
L 161.498072 152.790106 
L 161.670234 152.844822 
L 161.807964 152.996396 
L 161.876829 152.964114 
L 162.014558 153.281724 
L 162.083423 153.378756 
L 162.32445 153.292254 
L 162.46218 153.57927 
L 162.599909 153.621242 
L 162.634342 153.642546 
L 162.772071 153.885345 
L 162.909801 153.820023 
L 163.116396 154.142846 
L 163.288558 154.186665 
L 163.426287 154.503831 
L 163.632882 154.429842 
L 163.701746 154.576766 
L 163.770611 154.537 
L 163.873909 154.636236 
L 164.149368 155.063229 
L 164.252665 154.970959 
L 164.459259 155.234166 
L 164.528124 155.19165 
L 164.665854 155.347118 
L 164.769151 155.406033 
L 165.113475 155.457041 
L 165.216772 155.632691 
L 165.251205 155.619743 
L 165.32007 155.670884 
L 165.354502 155.627489 
L 165.492232 155.627505 
L 165.664394 155.959876 
L 165.733259 156.060427 
L 165.974285 156.187897 
L 166.04315 156.289279 
L 166.077583 156.246679 
L 166.284177 156.146896 
L 166.456339 156.517578 
L 166.559636 156.555398 
L 166.628501 156.687332 
L 166.697366 156.660676 
L 166.869528 156.683465 
L 167.007258 156.977099 
L 167.04169 156.958102 
L 167.17942 156.902076 
L 167.351582 157.164653 
L 167.523744 157.115617 
L 167.661474 157.394508 
L 167.730338 157.493239 
L 167.9025 157.644707 
L 167.971365 157.632463 
L 168.109095 157.8056 
L 168.246824 157.783091 
L 168.350122 157.797999 
L 168.522284 158.128308 
L 168.797743 158.193937 
L 168.935473 158.322416 
L 169.004337 158.251261 
L 169.03877 158.322901 
L 169.314229 158.425869 
L 169.486391 158.762078 
L 169.589688 158.728184 
L 169.727418 158.867448 
L 169.830715 158.805453 
L 169.968445 158.76692 
L 170.03731 159.015822 
L 170.106175 159.002156 
L 170.416066 159.03053 
L 170.588228 159.261874 
L 170.76039 159.40066 
L 170.932552 159.652055 
L 171.208012 159.65106 
L 171.345741 159.93195 
L 171.552336 159.854554 
L 171.690065 160.131539 
L 171.931092 160.155239 
L 172.068822 160.400136 
L 172.447578 160.648248 
L 172.516443 160.755231 
L 172.585308 160.717726 
L 172.75747 160.594229 
L 173.136227 161.11627 
L 173.273956 161.140972 
L 173.411686 161.294345 
L 173.480551 161.236956 
L 173.583848 161.465074 
L 173.61828 161.45508 
L 173.687145 161.339157 
L 173.721578 161.470748 
L 173.75601 161.47249 
L 173.824875 161.635097 
L 173.89374 161.593467 
L 174.065902 161.628655 
L 174.203631 161.827075 
L 174.341361 161.88502 
L 174.444658 161.860908 
L 174.582388 162.121113 
L 174.651253 162.050638 
L 174.720117 162.09678 
L 174.788982 162.22604 
L 174.857847 162.183763 
L 175.098874 162.341174 
L 176.372873 162.923672 
L 176.510603 162.999544 
L 176.682765 162.988561 
L 176.820494 163.153843 
L 177.130386 163.211958 
L 177.268116 163.392233 
L 177.509143 163.438119 
L 178.266656 163.828636 
L 178.438818 163.880114 
L 178.576547 164.023665 
L 178.748709 164.102355 
L 178.920871 164.162046 
L 179.024169 164.216205 
L 179.127466 164.272388 
L 179.161898 164.241272 
L 179.33406 164.346437 
L 179.575087 164.462569 
L 179.850546 164.495359 
L 179.988276 164.661962 
L 180.057141 164.622711 
L 180.091573 164.682291 
L 180.3326 164.763801 
L 180.47033 164.837258 
L 180.573627 164.876548 
L 180.814654 164.948023 
L 180.986816 165.001767 
L 181.158978 165.061066 
L 181.606599 165.218931 
L 181.744329 165.256658 
L 181.882058 165.263621 
L 182.019788 165.375022 
L 182.088653 165.327887 
L 182.226383 165.482355 
L 182.364112 165.460276 
L 182.605139 165.502096 
L 182.777301 165.605837 
L 183.121625 165.684314 
L 183.259355 165.831488 
L 183.293787 165.781056 
L 183.603679 165.842061 
L 183.741409 165.982789 
L 183.982435 166.008362 
L 184.120165 166.026012 
L 184.18903 166.022487 
L 184.292327 166.161955 
L 184.326759 166.150154 
L 184.843246 166.32297 
L 184.980975 166.361434 
L 185.531894 166.549071 
L 185.738488 166.571137 
L 185.876218 166.697961 
L 186.220542 166.770069 
L 186.392704 166.845356 
L 186.564866 166.959225 
L 186.771461 166.979634 
L 186.943623 167.103518 
L 187.115785 167.127456 
L 187.253514 167.230368 
L 187.77 167.354256 
L 187.976595 167.52081 
L 188.148757 167.58129 
L 188.424216 167.74399 
L 188.561946 167.705288 
L 188.734108 167.807571 
L 188.940702 167.866409 
L 189.112864 167.931633 
L 189.457188 167.970841 
L 189.698215 168.194015 
L 190.111404 168.260066 
L 190.283566 168.406277 
L 190.490161 168.478484 
L 190.662323 168.599455 
L 190.696755 168.603548 
L 190.800052 168.7281 
L 190.834485 168.717673 
L 191.075512 168.801565 
L 191.213241 168.909883 
L 191.454268 169.074959 
L 191.62643 169.078466 
L 191.76416 169.248823 
L 191.901889 169.355983 
L 192.211781 169.469415 
L 192.349511 169.664763 
L 192.452808 169.704628 
L 192.659402 169.914238 
L 193.589078 170.551361 
L 193.692375 170.569573 
L 193.864537 170.758528 
L 193.967834 170.785788 
L 194.105564 170.849505 
L 194.381023 171.095955 
L 194.897509 171.429929 
L 195.069671 171.523853 
L 195.413995 171.784595 
L 195.448428 171.747327 
L 195.48286 171.743806 
L 195.62059 171.960394 
L 195.792752 172.011309 
L 196.205941 172.236363 
L 196.240373 172.22348 
L 196.378103 172.408183 
L 196.584697 172.516808 
L 196.756859 172.579384 
L 196.825724 172.563787 
L 196.963454 172.767955 
L 197.101183 172.82113 
L 197.273345 173.015079 
L 197.34221 173.108934 
L 197.617669 173.17713 
L 197.789831 173.327418 
L 197.961993 173.450328 
L 198.168588 173.661883 
L 198.34075 173.666416 
L 198.47848 173.780376 
L 198.512912 173.773948 
L 198.650642 173.952246 
L 200.234532 175.099494 
L 200.406695 175.392434 
L 200.613289 175.430046 
L 200.716586 175.526169 
L 200.751019 175.502764 
L 200.992045 175.76923 
L 201.19864 175.781507 
L 201.611829 176.240855 
L 201.783991 176.268453 
L 201.956153 176.452672 
L 202.19718 176.460879 
L 202.334909 176.751066 
L 203.299017 177.327615 
L 203.505611 177.506947 
L 203.746638 177.634879 
L 204.05653 177.86585 
L 204.159827 177.944052 
L 204.435286 178.165871 
L 204.676313 178.23424 
L 204.814043 178.443041 
L 205.640421 178.911899 
L 205.743718 179.064587 
L 205.77815 179.052027 
L 206.122474 179.372256 
L 206.294636 179.404021 
L 206.432366 179.52474 
L 206.638961 179.680638 
L 206.742258 179.74606 
L 206.91442 179.919275 
L 207.017717 179.983309 
L 207.224312 180.228934 
L 207.396474 180.229504 
L 207.568636 180.461479 
L 207.809662 180.553822 
L 207.947392 180.742043 
L 208.188419 180.840206 
L 208.360581 181.071522 
L 208.498311 181.106135 
L 208.808202 181.380964 
L 209.014797 181.473639 
L 209.186959 181.618121 
L 209.359121 181.713435 
L 209.496851 181.81965 
L 209.63458 181.913839 
L 209.806742 182.00163 
L 209.910039 182.161908 
L 209.944472 182.152074 
L 210.151066 182.351957 
L 210.392093 182.454314 
L 210.564255 182.668245 
L 210.839714 182.76271 
L 211.149606 183.015361 
L 211.184039 183.004499 
L 211.321768 183.174979 
L 211.425065 183.264987 
L 211.700525 183.470156 
L 211.838254 183.60059 
L 211.975984 183.693567 
L 212.148146 183.786835 
L 212.320308 183.992743 
L 212.458038 184.057944 
L 212.595767 184.112747 
L 212.699065 184.309356 
L 212.733497 184.299287 
L 213.043389 184.578295 
L 213.249983 184.620983 
L 213.422145 184.787819 
L 213.594307 184.880214 
L 213.766469 185.108001 
L 214.041929 185.243098 
L 214.214091 185.37645 
L 214.248523 185.365898 
L 214.386253 185.485514 
L 214.661712 185.755618 
L 214.730577 185.900025 
L 214.937171 185.980839 
L 215.040468 186.046414 
L 215.178198 186.143115 
L 215.281495 186.182774 
L 215.453657 186.393213 
L 215.556955 186.44926 
L 215.729117 186.593017 
L 215.763549 186.58684 
L 215.797981 186.763965 
L 215.901279 186.74296 
L 216.004576 186.778549 
L 216.176738 186.93833 
L 216.280035 187.007538 
L 216.624359 187.289072 
L 216.727656 187.363134 
L 216.899818 187.548667 
L 217.003116 187.554646 
L 217.175278 187.813584 
L 217.313007 187.859059 
L 217.554034 188.08301 
L 217.657331 188.164301 
L 217.863926 188.268961 
L 217.898358 188.267677 
L 218.001656 188.478749 
L 218.036088 188.470123 
L 218.518142 188.836244 
L 218.621439 188.900003 
L 219.275655 189.437708 
L 219.413384 189.521684 
L 219.585546 189.769385 
L 219.688844 189.827362 
L 219.826573 189.878572 
L 220.0676 190.048504 
L 220.239762 190.172458 
L 220.274195 190.163708 
L 220.446357 190.44685 
L 220.652951 190.486542 
L 220.825113 190.718333 
L 220.997275 190.791366 
L 221.20387 191.014077 
L 221.307167 191.016888 
L 221.479329 191.193909 
L 221.582626 191.246064 
L 221.92695 191.605519 
L 222.030247 191.680671 
L 222.512301 192.122223 
L 222.650031 192.265732 
L 222.684463 192.224544 
L 222.753328 192.286034 
L 223.028787 192.443319 
L 223.200949 192.688666 
L 223.545273 192.904755 
L 223.7863 193.156146 
L 223.889598 193.149816 
L 224.06176 193.375164 
L 236.2164 203.426935 
L 236.388562 203.617425 
L 236.595156 203.689896 
L 236.836183 203.927694 
L 237.490399 204.521428 
L 237.593696 204.568068 
L 237.731426 204.697539 
L 237.834723 204.766191 
L 238.006885 204.931436 
L 238.110182 204.972482 
L 238.316777 205.160101 
L 238.385642 205.258882 
L 238.626669 205.381967 
L 239.384182 206.083177 
L 239.521911 206.142371 
L 239.694073 206.345285 
L 239.79737 206.387077 
L 240.003965 206.641605 
L 240.141695 206.705647 
L 240.589316 207.055272 
L 240.761478 207.248807 
L 240.899208 207.302071 
L 241.140234 207.579331 
L 241.243532 207.61556 
L 241.518991 207.916825 
L 241.691153 207.996026 
L 241.93218 208.183346 
L 242.035477 208.240645 
L 242.207639 208.448824 
L 242.414234 208.568946 
L 242.724125 208.887934 
L 242.827422 208.927953 
L 242.965152 209.051956 
L 243.068449 209.118707 
L 243.275044 209.333945 
L 243.79153 209.701923 
L 243.963692 209.911766 
L 244.066989 209.936818 
L 244.239151 210.111287 
L 244.342448 210.177476 
L 244.514611 210.33599 
L 244.721205 210.429845 
L 244.893367 210.628676 
L 244.996664 210.712302 
L 245.168826 210.866287 
L 245.409853 211.13235 
L 245.51315 211.16042 
L 246.064069 211.609778 
L 246.167366 211.671297 
L 246.51169 211.991422 
L 246.614987 212.069904 
L 246.78715 212.21714 
L 246.856014 212.315022 
L 247.097041 212.392402 
L 247.303636 212.642041 
L 247.475798 212.70201 
L 247.716825 212.952837 
L 247.820122 213.016745 
L 247.957851 213.150047 
L 248.061149 213.209233 
L 248.302176 213.438066 
L 248.405473 213.51365 
L 248.6465 213.739786 
L 248.784229 213.815536 
L 249.404013 214.299217 
L 249.50731 214.403599 
L 249.817202 214.717043 
L 249.954931 214.733993 
L 250.127093 214.932692 
L 250.23039 214.963764 
L 250.609147 215.331382 
L 251.435525 215.99282 
L 251.538822 216.025294 
L 251.710984 216.18587 
L 251.848714 216.289538 
L 252.020876 216.515379 
L 252.193038 216.593983 
L 252.537362 216.948621 
L 252.571794 216.891993 
L 252.640659 216.93738 
L 252.881686 217.188715 
L 253.019416 217.244221 
L 253.191578 217.391534 
L 253.294875 217.485917 
L 253.535902 217.718101 
L 253.811361 217.887593 
L 254.017955 218.107756 
L 254.258982 218.262431 
L 255.774008 219.485546 
L 255.980603 219.711886 
L 256.531521 220.167001 
L 256.738116 220.243773 
L 256.979143 220.519669 
L 257.08244 220.601934 
L 257.323467 220.806005 
L 257.461196 220.888189 
L 257.736656 221.150827 
L 258.012115 221.378609 
L 258.115412 221.399543 
L 258.356439 221.562572 
L 258.459736 221.618242 
L 258.597466 221.760785 
L 258.666331 221.826311 
L 259.630438 222.626333 
L 259.8026 222.78701 
L 259.905897 222.849061 
L 260.078059 222.995516 
L 264.65757 226.740584 
L 264.692002 226.699736 
L 264.760867 226.768215 
L 264.967462 226.991709 
L 265.311786 227.271197 
L 265.415083 227.307638 
L 265.587245 227.505205 
L 265.690542 227.578796 
L 265.897137 227.757242 
L 266.000434 227.796859 
L 266.207028 228.02045 
L 266.413623 228.116472 
L 266.551352 228.268365 
L 266.65465 228.316401 
L 266.826812 228.467964 
L 266.861244 228.460275 
L 266.998974 228.702148 
L 267.37773 228.931972 
L 267.653189 229.194073 
L 267.756487 229.263401 
L 273.23124 233.677137 
L 273.334537 233.735069 
L 273.506699 233.972093 
L 273.541131 233.943793 
L 273.575564 234.042673 
L 273.678861 234.11689 
L 275.81367 235.805375 
L 275.985832 235.933955 
L 276.157994 236.077922 
L 276.295724 236.165333 
L 276.399021 236.225071 
L 276.640048 236.457379 
L 276.743345 236.529389 
L 276.881075 236.609572 
L 276.984372 236.68363 
L 277.190967 236.844571 
L 277.397561 237.01133 
L 277.500858 237.111577 
L 278.086209 237.65474 
L 278.223939 237.728935 
L 278.843722 238.240535 
L 279.015884 238.307049 
L 279.188046 238.499382 
L 279.291344 238.590847 
L 279.497938 238.744515 
L 279.601235 238.825083 
L 279.80783 239.018107 
L 279.945559 239.06617 
L 280.083289 239.183169 
L 280.324316 239.364472 
L 280.462046 239.526923 
L 280.634208 239.604028 
L 280.80637 239.784975 
L 280.978532 239.864422 
L 281.116261 240.060417 
L 281.495018 240.26146 
L 281.736045 240.490907 
L 281.839342 240.567225 
L 282.114801 240.783782 
L 282.218098 240.819671 
L 282.390261 241.036559 
L 282.803449 241.283 
L 283.044476 241.567285 
L 283.147774 241.645898 
L 283.3888 241.830426 
L 283.595395 241.97545 
L 283.767557 242.146177 
L 283.905287 242.208551 
L 284.318475 242.520509 
L 284.421773 242.551002 
L 284.593935 242.729287 
L 284.697232 242.763143 
L 284.834962 242.85321 
L 284.938259 242.888321 
L 285.110421 243.105716 
L 285.213718 243.150634 
L 285.351448 243.250947 
L 285.454745 243.324511 
L 285.592475 243.519264 
L 285.626907 243.502171 
L 285.799069 243.577156 
L 285.936799 243.700196 
L 286.040096 243.751447 
L 286.177826 243.9494 
L 286.349988 244.025312 
L 286.418852 244.122289 
L 286.52215 244.246946 
L 288.209338 245.50999 
L 288.347067 245.613422 
L 288.450365 245.657846 
L 288.519229 245.76159 
L 288.588094 245.737176 
L 290.275282 247.125272 
L 290.413012 247.150762 
L 290.516309 247.336603 
L 290.550741 247.325302 
L 291.23939 247.814382 
L 291.273822 247.822958 
L 291.377119 247.986848 
L 291.411552 247.967519 
L 291.583714 247.985569 
L 291.721443 248.13497 
L 292.719983 248.929492 
L 292.754416 248.917137 
L 292.892145 249.09147 
L 292.995443 249.147217 
L 293.339767 249.444324 
L 293.511929 249.615808 
L 293.82182 249.778817 
L 294.028415 250.010411 
L 294.200577 250.076725 
L 294.372739 250.289454 
L 294.510469 250.272533 
L 294.682631 250.475928 
L 294.785928 250.482694 
L 294.992522 250.666315 
L 295.095819 250.728384 
L 295.302414 250.893766 
L 295.577873 251.064948 
L 295.68117 251.127346 
L 295.853332 251.314992 
L 296.059927 251.378888 
L 296.197657 251.582977 
L 296.335386 251.56665 
L 296.576413 251.773555 
L 296.714143 251.840807 
L 296.886305 252.016303 
L 297.092899 252.086963 
L 297.402791 252.323291 
L 297.54052 252.374102 
L 297.712683 252.582768 
L 297.988142 252.706079 
L 298.160304 252.821977 
L 298.229169 252.793077 
L 298.366898 252.936738 
L 298.470196 252.947891 
L 298.642358 253.121884 
L 298.745655 253.130639 
L 298.917817 253.316858 
L 299.193276 253.364122 
L 299.296573 253.474708 
L 299.331006 253.46141 
L 300.53614 254.073043 
L 300.570572 254.05948 
L 300.708302 254.210269 
L 300.846032 254.252835 
L 301.018194 254.298789 
L 301.259221 254.410687 
L 301.947869 254.713246 
L 302.120031 254.773379 
L 302.292193 254.874441 
L 302.429923 254.899792 
L 302.567652 254.99944 
L 302.739814 255.029335 
L 303.221868 255.189112 
L 303.39403 255.334135 
L 303.600624 255.32369 
L 303.841651 255.462504 
L 304.39257 255.568796 
L 304.633597 255.667362 
L 304.736894 255.6851 
L 305.081218 255.806539 
L 306.25192 256.06065 
L 306.527379 256.110234 
L 306.871703 256.162774 
L 307.11273 256.235902 
L 307.319325 256.284347 
L 309.419702 256.536955 
L 309.557431 256.53809 
L 309.832891 256.601032 
L 310.005053 256.59868 
L 310.142782 256.673533 
L 310.280512 256.613032 
L 310.900295 256.762684 
L 315.996292 257.142284 
L 316.202886 257.145858 
L 316.581643 257.115473 
L 316.82267 257.179913 
L 317.235858 257.158311 
L 317.476885 257.203531 
L 317.68348 257.240158 
L 317.821209 257.270053 
L 318.062236 257.230452 
L 318.40656 257.179152 
L 318.613155 257.294728 
L 319.232938 257.278864 
L 319.577262 257.299759 
L 321.505477 257.362192 
L 321.815369 257.411328 
L 323.674719 257.439314 
L 323.743584 257.37361 
L 323.778016 257.427039 
L 324.053475 257.448077 
L 325.465204 257.524966 
L 325.637366 257.491638 
L 325.947258 257.528523 
L 326.188285 257.545608 
L 333.246929 257.730742 
L 333.315794 257.672719 
L 333.350226 257.70328 
L 333.591253 257.771851 
L 333.763415 257.744932 
L 336.483575 257.859932 
L 337.172223 257.828381 
L 337.344385 257.837558 
L 337.998601 257.886788 
L 338.170763 257.875331 
L 338.377358 257.895676 
L 338.54952 257.84147 
L 338.756114 257.8808 
L 339.892384 257.902147 
L 340.064546 257.894383 
L 340.27114 257.930078 
L 340.443302 257.916925 
L 340.615464 257.966269 
L 341.063086 257.943092 
L 341.682869 257.939251 
L 341.820599 257.979412 
L 342.096058 257.959197 
L 342.543679 257.956035 
L 342.750274 258.015233 
L 343.197895 257.942541 
L 343.335625 257.983686 
L 343.507787 257.979477 
L 349.154702 258.079089 
L 349.292431 258.101392 
L 349.533458 258.103852 
L 350.015512 258.131379 
L 350.153242 258.139053 
L 350.359836 258.178548 
L 350.84189 258.126711 
L 351.048484 258.147228 
L 351.289511 258.148099 
L 351.530538 258.16633 
L 362.27345 258.446773 
L 362.445612 258.44317 
L 362.686638 258.412859 
L 363.030963 258.45889 
L 363.168692 258.474317 
L 363.685178 258.471139 
L 363.960638 258.495845 
L 364.167232 258.51793 
L 364.373826 258.494943 
L 366.302041 258.532675 
L 366.439771 258.54116 
L 366.577501 258.499795 
L 366.921825 258.51457 
L 367.197284 258.517563 
L 367.541608 258.589784 
L 367.748203 258.595539 
L 368.126959 258.548624 
L 368.609013 258.588846 
L 368.815607 258.592615 
L 369.332093 258.602743 
L 369.435391 258.659969 
L 369.469823 258.619807 
L 373.050794 258.75236 
L 373.119658 258.78034 
L 373.154091 258.739763 
L 373.360685 258.654366 
L 373.532847 258.751948 
L 373.980469 258.767974 
L 374.187063 258.802007 
L 374.496955 258.807646 
L 374.634684 258.826235 
L 374.875711 258.843916 
L 375.185603 258.800497 
L 375.323333 258.835461 
L 375.564359 258.808542 
L 375.770954 258.833405 
L 375.908684 258.841787 
L 376.011981 258.871308 
L 376.046413 258.836686 
L 376.184143 258.850737 
L 376.735061 258.864597 
L 376.976088 258.805787 
L 377.217115 258.863172 
L 377.630304 258.90251 
L 377.905763 258.911001 
L 378.318952 258.895146 
L 378.766573 258.948814 
L 379.042033 258.906715 
L 379.971708 258.985966 
L 380.14387 258.992332 
L 382.106517 259.05016 
L 382.278679 259.008978 
L 382.450841 259.016699 
L 384.99884 259.143068 
L 385.205434 259.124288 
L 385.343164 259.120404 
L 385.825217 259.148492 
L 386.031812 259.163559 
L 386.410568 259.144429 
L 386.513866 259.158528 
L 386.72046 259.199848 
L 392.608402 259.443025 
L 392.780564 259.425039 
L 392.952726 259.416526 
L 393.29705 259.449093 
L 393.503645 259.405492 
L 393.985698 259.489452 
L 394.226725 259.405994 
L 394.605482 259.470501 
L 395.397427 259.485312 
L 395.776184 259.474305 
L 397.187912 259.554538 
L 397.325642 259.565281 
L 397.428939 259.581206 
L 397.497804 259.5488 
L 397.532236 259.578393 
L 397.807696 259.560451 
L 399.391587 259.616758 
L 399.563749 259.623933 
L 399.701478 259.618999 
L 399.839208 259.654176 
L 400.045802 259.68521 
L 400.562288 259.632214 
L 400.73445 259.663943 
L 401.044342 259.696574 
L 401.664126 259.715027 
L 401.836288 259.709569 
L 402.111747 259.736619 
L 404.694178 259.845637 
L 404.935204 259.844499 
L 405.072934 259.835044 
L 405.210664 259.835928 
L 405.72715 259.921263 
L 405.933744 259.873299 
L 406.209204 259.913195 
L 406.553528 259.868142 
L 408.068554 259.94107 
L 408.206283 259.953929 
L 408.344013 259.944365 
L 409.239256 260.022359 
L 409.44585 259.944885 
L 409.652444 260.018103 
L 409.824606 259.981361 
L 410.134498 260.019199 
L 410.30666 260.004105 
L 410.650984 260.051878 
L 410.823146 260.045681 
L 411.270768 260.009524 
L 411.44293 260.071877 
L 411.787254 260.053332 
L 412.44147 260.092341 
L 412.785794 260.093189 
L 412.957956 260.091329 
L 413.130118 260.122524 
L 413.405577 260.107579 
L 413.612171 260.14685 
L 413.749901 260.13491 
L 413.887631 260.144838 
L 414.197522 260.174236 
L 414.610711 260.17417 
L 414.851738 260.133775 
L 416.02244 260.197843 
L 416.573359 260.200397 
L 419.534546 260.290135 
L 419.74114 260.332812 
L 420.154329 260.372412 
L 420.395356 260.391222 
L 420.73968 260.415208 
L 420.946275 260.358919 
L 421.118437 260.423392 
L 421.290599 260.398223 
L 421.60049 260.449497 
L 421.772652 260.417012 
L 422.082544 260.481802 
L 423.425408 260.463679 
L 423.59757 260.485343 
L 423.7353 260.49278 
L 423.941894 260.493319 
L 424.148489 260.465958 
L 425.043731 260.516233 
L 425.147028 260.513093 
L 425.284758 260.481417 
L 425.560217 260.503799 
L 425.629082 260.469766 
L 425.663515 260.522029 
L 425.766812 260.574211 
L 425.801244 260.530251 
L 426.042271 260.581327 
L 426.180001 260.569668 
L 426.352163 260.561811 
L 426.59319 260.546535 
L 426.765352 260.603759 
L 427.247405 260.596295 
L 427.729459 260.623787 
L 427.901621 260.634834 
L 428.073783 260.683726 
L 428.245945 260.652057 
L 428.383675 260.643443 
L 428.624702 260.641012 
L 428.762431 260.655523 
L 428.969026 260.70731 
L 429.45108 260.672839 
L 429.45108 260.672839 
" clip-path="url(#p46824ac587)" style="fill: none; stroke: #0000ff; stroke-width: 1.5; stroke-linecap: square"/>
   </g>
   <g id="line2d_13">
    <path d="M 64.91 277.74 
L 446.810179 277.74 
" clip-path="url(#p46824ac587)" style="fill: none; stroke-dasharray: 0.37,0.16; stroke-dashoffset: 0; stroke: #000000; stroke-width: 0.1"/>
   </g>
   <g id="patch_3">
    <path d="M 64.91 289.24 
L 64.91 36.24 
" style="fill: none; stroke: #000000; stroke-width: 0.8; stroke-linejoin: miter; stroke-linecap: square"/>
   </g>
   <g id="patch_4">
    <path d="M 446.810179 289.24 
L 446.810179 36.24 
" style="fill: none; stroke: #000000; stroke-width: 0.8; stroke-linejoin: miter; stroke-linecap: square"/>
   </g>
   <g id="patch_5">
    <path d="M 64.91 289.24 
L 446.810179 289.24 
" style="fill: none; stroke: #000000; stroke-width: 0.8; stroke-linejoin: miter; stroke-linecap: square"/>
   </g>
   <g id="patch_6">
    <path d="M 64.91 36.24 
L 446.810179 36.24 
" style="fill: none; stroke: #000000; stroke-width: 0.8; stroke-linejoin: miter; stroke-linecap: square"/>
   </g>
   <g id="text_14">
    <!-- Closest Points -->
    <g transform="translate(165.404464 30.24) scale(0.26 -0.26)">
     <defs>
      <path id="DejaVuSans-43" d="M 4122 4306 
L 4122 3641 
Q 3803 3938 3442 4084 
Q 3081 4231 2675 4231 
Q 1875 4231 1450 3742 
Q 1025 3253 1025 2328 
Q 1025 1406 1450 917 
Q 1875 428 2675 428 
Q 3081 428 3442 575 
Q 3803 722 4122 1019 
L 4122 359 
Q 3791 134 3420 21 
Q 3050 -91 2638 -91 
Q 1578 -91 968 557 
Q 359 1206 359 2328 
Q 359 3453 968 4101 
Q 1578 4750 2638 4750 
Q 3056 4750 3426 4639 
Q 3797 4528 4122 4306 
z
" transform="scale(0.015625)"/>
      <path id="DejaVuSans-6c" d="M 603 4863 
L 1178 4863 
L 1178 0 
L 603 0 
L 603 4863 
z
" transform="scale(0.015625)"/>
      <path id="DejaVuSans-6f" d="M 1959 3097 
Q 1497 3097 1228 2736 
Q 959 2375 959 1747 
Q 959 1119 1226 758 
Q 1494 397 1959 397 
Q 2419 397 2687 759 
Q 2956 1122 2956 1747 
Q 2956 2369 2687 2733 
Q 2419 3097 1959 3097 
z
M 1959 3584 
Q 2709 3584 3137 3096 
Q 3566 2609 3566 1747 
Q 3566 888 3137 398 
Q 2709 -91 1959 -91 
Q 1206 -91 779 398 
Q 353 888 353 1747 
Q 353 2609 779 3096 
Q 1206 3584 1959 3584 
z
" transform="scale(0.015625)"/>
      <path id="DejaVuSans-20" transform="scale(0.015625)"/>
      <path id="DejaVuSans-50" d="M 1259 4147 
L 1259 2394 
L 2053 2394 
Q 2494 2394 2734 2622 
Q 2975 2850 2975 3272 
Q 2975 3691 2734 3919 
Q 2494 4147 2053 4147 
L 1259 4147 
z
M 628 4666 
L 2053 4666 
Q 2838 4666 3239 4311 
Q 3641 3956 3641 3272 
Q 3641 2581 3239 2228 
Q 2838 1875 2053 1875 
L 1259 1875 
L 1259 0 
L 628 0 
L 628 4666 
z
" transform="scale(0.015625)"/>
      <path id="DejaVuSans-6e" d="M 3513 2113 
L 3513 0 
L 2938 0 
L 2938 2094 
Q 2938 2591 2744 2837 
Q 2550 3084 2163 3084 
Q 1697 3084 1428 2787 
Q 1159 2491 1159 1978 
L 1159 0 
L 581 0 
L 581 3500 
L 1159 3500 
L 1159 2956 
Q 1366 3272 1645 3428 
Q 1925 3584 2291 3584 
Q 2894 3584 3203 3211 
Q 3513 2838 3513 2113 
z
" transform="scale(0.015625)"/>
     </defs>
     <use xlink:href="#DejaVuSans-43"/>
     <use xlink:href="#DejaVuSans-6c" x="69.824219"/>
     <use xlink:href="#DejaVuSans-6f" x="97.607422"/>
     <use xlink:href="#DejaVuSans-73" x="158.789062"/>
     <use xlink:href="#DejaVuSans-65" x="210.888672"/>
     <use xlink:href="#DejaVuSans-73" x="272.412109"/>
     <use xlink:href="#DejaVuSans-74" x="324.511719"/>
     <use xlink:href="#DejaVuSans-20" x="363.720703"/>
     <use xlink:href="#DejaVuSans-50" x="395.507812"/>
     <use xlink:href="#DejaVuSans-6f" x="452.185547"/>
     <use xlink:href="#DejaVuSans-69" x="513.367188"/>
     <use xlink:href="#DejaVuSans-6e" x="541.150391"/>
     <use xlink:href="#DejaVuSans-74" x="604.529297"/>
     <use xlink:href="#DejaVuSans-73" x="643.738281"/>
    </g>
   </g>
  </g>
 </g>
 <defs>
  <clipPath id="p46824ac587">
   <rect x="64.91" y="36.24" width="381.900179" height="253"/>
  </clipPath>
 </defs>
</svg>
