<?xml version="1.0" encoding="utf-8" standalone="no"?>
<!DOCTYPE svg PUBLIC "-//W3C//DTD SVG 1.1//EN"
  "http://www.w3.org/Graphics/SVG/1.1/DTD/svg11.dtd">
<svg xmlns:xlink="http://www.w3.org/1999/xlink" width="460.8pt" height="345.6pt" viewBox="0 0 460.8 345.6" xmlns="http://www.w3.org/2000/svg" version="1.1">
 <metadata>
  <rdf:RDF xmlns:dc="http://purl.org/dc/elements/1.1/" xmlns:cc="http://creativecommons.org/ns#" xmlns:rdf="http://www.w3.org/1999/02/22-rdf-syntax-ns#">
   <cc:Work>
    <dc:type rdf:resource="http://purl.org/dc/dcmitype/StillImage"/>
    <dc:date>2024-10-17T21:12:37.825840</dc:date>
    <dc:format>image/svg+xml</dc:format>
    <dc:creator>
     <cc:Agent>
      <dc:title>Matplotlib v3.7.5, https://matplotlib.org/</dc:title>
     </cc:Agent>
    </dc:creator>
   </cc:Work>
  </rdf:RDF>
 </metadata>
 <defs>
  <style type="text/css">*{stroke-linejoin: round; stroke-linecap: butt}</style>
 </defs>
 <g id="figure_1">
  <g id="patch_1">
   <path d="M 0 345.6 
L 460.8 345.6 
L 460.8 0 
L 0 0 
z
" style="fill: #ffffff"/>
  </g>
  <g id="axes_1">
   <g id="patch_2">
    <path d="M 64.91 289.24 
L 446.810179 289.24 
L 446.810179 36.24 
L 64.91 36.24 
z
" style="fill: #ffffff"/>
   </g>
   <g id="matplotlib.axis_1">
    <g id="xtick_1">
     <g id="line2d_1">
      <defs>
       <path id="m41d768f2a1" d="M 0 0 
L 0 3.5 
" style="stroke: #000000; stroke-width: 0.8"/>
      </defs>
      <g>
       <use xlink:href="#m41d768f2a1" x="82.269099" y="289.24" style="stroke: #000000; stroke-width: 0.8"/>
      </g>
     </g>
     <g id="text_1">
      <!-- 0 -->
      <g transform="translate(77.815349 306.877813) scale(0.14 -0.14)">
       <defs>
        <path id="DejaVuSans-30" d="M 2034 4250 
Q 1547 4250 1301 3770 
Q 1056 3291 1056 2328 
Q 1056 1369 1301 889 
Q 1547 409 2034 409 
Q 2525 409 2770 889 
Q 3016 1369 3016 2328 
Q 3016 3291 2770 3770 
Q 2525 4250 2034 4250 
z
M 2034 4750 
Q 2819 4750 3233 4129 
Q 3647 3509 3647 2328 
Q 3647 1150 3233 529 
Q 2819 -91 2034 -91 
Q 1250 -91 836 529 
Q 422 1150 422 2328 
Q 422 3509 836 4129 
Q 1250 4750 2034 4750 
z
" transform="scale(0.015625)"/>
       </defs>
       <use xlink:href="#DejaVuSans-30"/>
      </g>
     </g>
    </g>
    <g id="xtick_2">
     <g id="line2d_2">
      <g>
       <use xlink:href="#m41d768f2a1" x="151.133917" y="289.24" style="stroke: #000000; stroke-width: 0.8"/>
      </g>
     </g>
     <g id="text_2">
      <!-- 2000 -->
      <g transform="translate(133.318917 306.877813) scale(0.14 -0.14)">
       <defs>
        <path id="DejaVuSans-32" d="M 1228 531 
L 3431 531 
L 3431 0 
L 469 0 
L 469 531 
Q 828 903 1448 1529 
Q 2069 2156 2228 2338 
Q 2531 2678 2651 2914 
Q 2772 3150 2772 3378 
Q 2772 3750 2511 3984 
Q 2250 4219 1831 4219 
Q 1534 4219 1204 4116 
Q 875 4013 500 3803 
L 500 4441 
Q 881 4594 1212 4672 
Q 1544 4750 1819 4750 
Q 2544 4750 2975 4387 
Q 3406 4025 3406 3419 
Q 3406 3131 3298 2873 
Q 3191 2616 2906 2266 
Q 2828 2175 2409 1742 
Q 1991 1309 1228 531 
z
" transform="scale(0.015625)"/>
       </defs>
       <use xlink:href="#DejaVuSans-32"/>
       <use xlink:href="#DejaVuSans-30" x="63.623047"/>
       <use xlink:href="#DejaVuSans-30" x="127.246094"/>
       <use xlink:href="#DejaVuSans-30" x="190.869141"/>
      </g>
     </g>
    </g>
    <g id="xtick_3">
     <g id="line2d_3">
      <g>
       <use xlink:href="#m41d768f2a1" x="219.998735" y="289.24" style="stroke: #000000; stroke-width: 0.8"/>
      </g>
     </g>
     <g id="text_3">
      <!-- 4000 -->
      <g transform="translate(202.183735 306.877813) scale(0.14 -0.14)">
       <defs>
        <path id="DejaVuSans-34" d="M 2419 4116 
L 825 1625 
L 2419 1625 
L 2419 4116 
z
M 2253 4666 
L 3047 4666 
L 3047 1625 
L 3713 1625 
L 3713 1100 
L 3047 1100 
L 3047 0 
L 2419 0 
L 2419 1100 
L 313 1100 
L 313 1709 
L 2253 4666 
z
" transform="scale(0.015625)"/>
       </defs>
       <use xlink:href="#DejaVuSans-34"/>
       <use xlink:href="#DejaVuSans-30" x="63.623047"/>
       <use xlink:href="#DejaVuSans-30" x="127.246094"/>
       <use xlink:href="#DejaVuSans-30" x="190.869141"/>
      </g>
     </g>
    </g>
    <g id="xtick_4">
     <g id="line2d_4">
      <g>
       <use xlink:href="#m41d768f2a1" x="288.863553" y="289.24" style="stroke: #000000; stroke-width: 0.8"/>
      </g>
     </g>
     <g id="text_4">
      <!-- 6000 -->
      <g transform="translate(271.048553 306.877813) scale(0.14 -0.14)">
       <defs>
        <path id="DejaVuSans-36" d="M 2113 2584 
Q 1688 2584 1439 2293 
Q 1191 2003 1191 1497 
Q 1191 994 1439 701 
Q 1688 409 2113 409 
Q 2538 409 2786 701 
Q 3034 994 3034 1497 
Q 3034 2003 2786 2293 
Q 2538 2584 2113 2584 
z
M 3366 4563 
L 3366 3988 
Q 3128 4100 2886 4159 
Q 2644 4219 2406 4219 
Q 1781 4219 1451 3797 
Q 1122 3375 1075 2522 
Q 1259 2794 1537 2939 
Q 1816 3084 2150 3084 
Q 2853 3084 3261 2657 
Q 3669 2231 3669 1497 
Q 3669 778 3244 343 
Q 2819 -91 2113 -91 
Q 1303 -91 875 529 
Q 447 1150 447 2328 
Q 447 3434 972 4092 
Q 1497 4750 2381 4750 
Q 2619 4750 2861 4703 
Q 3103 4656 3366 4563 
z
" transform="scale(0.015625)"/>
       </defs>
       <use xlink:href="#DejaVuSans-36"/>
       <use xlink:href="#DejaVuSans-30" x="63.623047"/>
       <use xlink:href="#DejaVuSans-30" x="127.246094"/>
       <use xlink:href="#DejaVuSans-30" x="190.869141"/>
      </g>
     </g>
    </g>
    <g id="xtick_5">
     <g id="line2d_5">
      <g>
       <use xlink:href="#m41d768f2a1" x="357.728372" y="289.24" style="stroke: #000000; stroke-width: 0.8"/>
      </g>
     </g>
     <g id="text_5">
      <!-- 8000 -->
      <g transform="translate(339.913372 306.877813) scale(0.14 -0.14)">
       <defs>
        <path id="DejaVuSans-38" d="M 2034 2216 
Q 1584 2216 1326 1975 
Q 1069 1734 1069 1313 
Q 1069 891 1326 650 
Q 1584 409 2034 409 
Q 2484 409 2743 651 
Q 3003 894 3003 1313 
Q 3003 1734 2745 1975 
Q 2488 2216 2034 2216 
z
M 1403 2484 
Q 997 2584 770 2862 
Q 544 3141 544 3541 
Q 544 4100 942 4425 
Q 1341 4750 2034 4750 
Q 2731 4750 3128 4425 
Q 3525 4100 3525 3541 
Q 3525 3141 3298 2862 
Q 3072 2584 2669 2484 
Q 3125 2378 3379 2068 
Q 3634 1759 3634 1313 
Q 3634 634 3220 271 
Q 2806 -91 2034 -91 
Q 1263 -91 848 271 
Q 434 634 434 1313 
Q 434 1759 690 2068 
Q 947 2378 1403 2484 
z
M 1172 3481 
Q 1172 3119 1398 2916 
Q 1625 2713 2034 2713 
Q 2441 2713 2670 2916 
Q 2900 3119 2900 3481 
Q 2900 3844 2670 4047 
Q 2441 4250 2034 4250 
Q 1625 4250 1398 4047 
Q 1172 3844 1172 3481 
z
" transform="scale(0.015625)"/>
       </defs>
       <use xlink:href="#DejaVuSans-38"/>
       <use xlink:href="#DejaVuSans-30" x="63.623047"/>
       <use xlink:href="#DejaVuSans-30" x="127.246094"/>
       <use xlink:href="#DejaVuSans-30" x="190.869141"/>
      </g>
     </g>
    </g>
    <g id="xtick_6">
     <g id="line2d_6">
      <g>
       <use xlink:href="#m41d768f2a1" x="426.59319" y="289.24" style="stroke: #000000; stroke-width: 0.8"/>
      </g>
     </g>
     <g id="text_6">
      <!-- 10000 -->
      <g transform="translate(404.32444 306.877813) scale(0.14 -0.14)">
       <defs>
        <path id="DejaVuSans-31" d="M 794 531 
L 1825 531 
L 1825 4091 
L 703 3866 
L 703 4441 
L 1819 4666 
L 2450 4666 
L 2450 531 
L 3481 531 
L 3481 0 
L 794 0 
L 794 531 
z
" transform="scale(0.015625)"/>
       </defs>
       <use xlink:href="#DejaVuSans-31"/>
       <use xlink:href="#DejaVuSans-30" x="63.623047"/>
       <use xlink:href="#DejaVuSans-30" x="127.246094"/>
       <use xlink:href="#DejaVuSans-30" x="190.869141"/>
       <use xlink:href="#DejaVuSans-30" x="254.492188"/>
      </g>
     </g>
    </g>
    <g id="text_7">
     <!-- Timesteps -->
     <g transform="translate(199.421496 330.505937) scale(0.22 -0.22)">
      <defs>
       <path id="DejaVuSans-54" d="M -19 4666 
L 3928 4666 
L 3928 4134 
L 2272 4134 
L 2272 0 
L 1638 0 
L 1638 4134 
L -19 4134 
L -19 4666 
z
" transform="scale(0.015625)"/>
       <path id="DejaVuSans-69" d="M 603 3500 
L 1178 3500 
L 1178 0 
L 603 0 
L 603 3500 
z
M 603 4863 
L 1178 4863 
L 1178 4134 
L 603 4134 
L 603 4863 
z
" transform="scale(0.015625)"/>
       <path id="DejaVuSans-6d" d="M 3328 2828 
Q 3544 3216 3844 3400 
Q 4144 3584 4550 3584 
Q 5097 3584 5394 3201 
Q 5691 2819 5691 2113 
L 5691 0 
L 5113 0 
L 5113 2094 
Q 5113 2597 4934 2840 
Q 4756 3084 4391 3084 
Q 3944 3084 3684 2787 
Q 3425 2491 3425 1978 
L 3425 0 
L 2847 0 
L 2847 2094 
Q 2847 2600 2669 2842 
Q 2491 3084 2119 3084 
Q 1678 3084 1418 2786 
Q 1159 2488 1159 1978 
L 1159 0 
L 581 0 
L 581 3500 
L 1159 3500 
L 1159 2956 
Q 1356 3278 1631 3431 
Q 1906 3584 2284 3584 
Q 2666 3584 2933 3390 
Q 3200 3197 3328 2828 
z
" transform="scale(0.015625)"/>
       <path id="DejaVuSans-65" d="M 3597 1894 
L 3597 1613 
L 953 1613 
Q 991 1019 1311 708 
Q 1631 397 2203 397 
Q 2534 397 2845 478 
Q 3156 559 3463 722 
L 3463 178 
Q 3153 47 2828 -22 
Q 2503 -91 2169 -91 
Q 1331 -91 842 396 
Q 353 884 353 1716 
Q 353 2575 817 3079 
Q 1281 3584 2069 3584 
Q 2775 3584 3186 3129 
Q 3597 2675 3597 1894 
z
M 3022 2063 
Q 3016 2534 2758 2815 
Q 2500 3097 2075 3097 
Q 1594 3097 1305 2825 
Q 1016 2553 972 2059 
L 3022 2063 
z
" transform="scale(0.015625)"/>
       <path id="DejaVuSans-73" d="M 2834 3397 
L 2834 2853 
Q 2591 2978 2328 3040 
Q 2066 3103 1784 3103 
Q 1356 3103 1142 2972 
Q 928 2841 928 2578 
Q 928 2378 1081 2264 
Q 1234 2150 1697 2047 
L 1894 2003 
Q 2506 1872 2764 1633 
Q 3022 1394 3022 966 
Q 3022 478 2636 193 
Q 2250 -91 1575 -91 
Q 1294 -91 989 -36 
Q 684 19 347 128 
L 347 722 
Q 666 556 975 473 
Q 1284 391 1588 391 
Q 1994 391 2212 530 
Q 2431 669 2431 922 
Q 2431 1156 2273 1281 
Q 2116 1406 1581 1522 
L 1381 1569 
Q 847 1681 609 1914 
Q 372 2147 372 2553 
Q 372 3047 722 3315 
Q 1072 3584 1716 3584 
Q 2034 3584 2315 3537 
Q 2597 3491 2834 3397 
z
" transform="scale(0.015625)"/>
       <path id="DejaVuSans-74" d="M 1172 4494 
L 1172 3500 
L 2356 3500 
L 2356 3053 
L 1172 3053 
L 1172 1153 
Q 1172 725 1289 603 
Q 1406 481 1766 481 
L 2356 481 
L 2356 0 
L 1766 0 
Q 1100 0 847 248 
Q 594 497 594 1153 
L 594 3053 
L 172 3053 
L 172 3500 
L 594 3500 
L 594 4494 
L 1172 4494 
z
" transform="scale(0.015625)"/>
       <path id="DejaVuSans-70" d="M 1159 525 
L 1159 -1331 
L 581 -1331 
L 581 3500 
L 1159 3500 
L 1159 2969 
Q 1341 3281 1617 3432 
Q 1894 3584 2278 3584 
Q 2916 3584 3314 3078 
Q 3713 2572 3713 1747 
Q 3713 922 3314 415 
Q 2916 -91 2278 -91 
Q 1894 -91 1617 61 
Q 1341 213 1159 525 
z
M 3116 1747 
Q 3116 2381 2855 2742 
Q 2594 3103 2138 3103 
Q 1681 3103 1420 2742 
Q 1159 2381 1159 1747 
Q 1159 1113 1420 752 
Q 1681 391 2138 391 
Q 2594 391 2855 752 
Q 3116 1113 3116 1747 
z
" transform="scale(0.015625)"/>
      </defs>
      <use xlink:href="#DejaVuSans-54"/>
      <use xlink:href="#DejaVuSans-69" x="57.958984"/>
      <use xlink:href="#DejaVuSans-6d" x="85.742188"/>
      <use xlink:href="#DejaVuSans-65" x="183.154297"/>
      <use xlink:href="#DejaVuSans-73" x="244.677734"/>
      <use xlink:href="#DejaVuSans-74" x="296.777344"/>
      <use xlink:href="#DejaVuSans-65" x="335.986328"/>
      <use xlink:href="#DejaVuSans-70" x="397.509766"/>
      <use xlink:href="#DejaVuSans-73" x="460.986328"/>
     </g>
    </g>
   </g>
   <g id="matplotlib.axis_2">
    <g id="ytick_1">
     <g id="line2d_7">
      <defs>
       <path id="m9532306a54" d="M 0 0 
L -3.5 0 
" style="stroke: #000000; stroke-width: 0.8"/>
      </defs>
      <g>
       <use xlink:href="#m9532306a54" x="64.91" y="277.74" style="stroke: #000000; stroke-width: 0.8"/>
      </g>
     </g>
     <g id="text_8">
      <!-- 0.0 -->
      <g transform="translate(35.645625 283.058906) scale(0.14 -0.14)">
       <defs>
        <path id="DejaVuSans-2e" d="M 684 794 
L 1344 794 
L 1344 0 
L 684 0 
L 684 794 
z
" transform="scale(0.015625)"/>
       </defs>
       <use xlink:href="#DejaVuSans-30"/>
       <use xlink:href="#DejaVuSans-2e" x="63.623047"/>
       <use xlink:href="#DejaVuSans-30" x="95.410156"/>
      </g>
     </g>
    </g>
    <g id="ytick_2">
     <g id="line2d_8">
      <g>
       <use xlink:href="#m9532306a54" x="64.91" y="228.509448" style="stroke: #000000; stroke-width: 0.8"/>
      </g>
     </g>
     <g id="text_9">
      <!-- 0.2 -->
      <g transform="translate(35.645625 233.828354) scale(0.14 -0.14)">
       <use xlink:href="#DejaVuSans-30"/>
       <use xlink:href="#DejaVuSans-2e" x="63.623047"/>
       <use xlink:href="#DejaVuSans-32" x="95.410156"/>
      </g>
     </g>
    </g>
    <g id="ytick_3">
     <g id="line2d_9">
      <g>
       <use xlink:href="#m9532306a54" x="64.91" y="179.278895" style="stroke: #000000; stroke-width: 0.8"/>
      </g>
     </g>
     <g id="text_10">
      <!-- 0.4 -->
      <g transform="translate(35.645625 184.597802) scale(0.14 -0.14)">
       <use xlink:href="#DejaVuSans-30"/>
       <use xlink:href="#DejaVuSans-2e" x="63.623047"/>
       <use xlink:href="#DejaVuSans-34" x="95.410156"/>
      </g>
     </g>
    </g>
    <g id="ytick_4">
     <g id="line2d_10">
      <g>
       <use xlink:href="#m9532306a54" x="64.91" y="130.048343" style="stroke: #000000; stroke-width: 0.8"/>
      </g>
     </g>
     <g id="text_11">
      <!-- 0.6 -->
      <g transform="translate(35.645625 135.367249) scale(0.14 -0.14)">
       <use xlink:href="#DejaVuSans-30"/>
       <use xlink:href="#DejaVuSans-2e" x="63.623047"/>
       <use xlink:href="#DejaVuSans-36" x="95.410156"/>
      </g>
     </g>
    </g>
    <g id="ytick_5">
     <g id="line2d_11">
      <g>
       <use xlink:href="#m9532306a54" x="64.91" y="80.817791" style="stroke: #000000; stroke-width: 0.8"/>
      </g>
     </g>
     <g id="text_12">
      <!-- 0.8 -->
      <g transform="translate(35.645625 86.136697) scale(0.14 -0.14)">
       <use xlink:href="#DejaVuSans-30"/>
       <use xlink:href="#DejaVuSans-2e" x="63.623047"/>
       <use xlink:href="#DejaVuSans-38" x="95.410156"/>
      </g>
     </g>
    </g>
    <g id="text_13">
     <!-- meter -->
     <g transform="translate(27.070313 195.825937) rotate(-90) scale(0.22 -0.22)">
      <defs>
       <path id="DejaVuSans-72" d="M 2631 2963 
Q 2534 3019 2420 3045 
Q 2306 3072 2169 3072 
Q 1681 3072 1420 2755 
Q 1159 2438 1159 1844 
L 1159 0 
L 581 0 
L 581 3500 
L 1159 3500 
L 1159 2956 
Q 1341 3275 1631 3429 
Q 1922 3584 2338 3584 
Q 2397 3584 2469 3576 
Q 2541 3569 2628 3553 
L 2631 2963 
z
" transform="scale(0.015625)"/>
      </defs>
      <use xlink:href="#DejaVuSans-6d"/>
      <use xlink:href="#DejaVuSans-65" x="97.412109"/>
      <use xlink:href="#DejaVuSans-74" x="158.935547"/>
      <use xlink:href="#DejaVuSans-65" x="198.144531"/>
      <use xlink:href="#DejaVuSans-72" x="259.667969"/>
     </g>
    </g>
   </g>
   <g id="line2d_12">
    <path d="M 82.269099 47.74 
L 82.544558 47.870873 
L 82.751153 48.467171 
L 84.541638 50.903631 
L 84.57607 50.90253 
L 84.782665 51.305996 
L 84.817097 51.313219 
L 84.989259 51.635999 
L 85.092557 51.704721 
L 85.299151 52.054711 
L 86.57315 53.890075 
L 86.642015 53.985529 
L 86.745312 54.091675 
L 86.917474 54.335177 
L 87.43396 55.127877 
L 87.468393 55.129433 
L 87.674987 55.507247 
L 87.847149 55.663749 
L 88.088176 56.036049 
L 88.191473 56.126397 
L 88.225906 56.140107 
L 88.4325 56.528794 
L 92.42666 62.078939 
L 92.529957 62.204504 
L 92.770984 62.577148 
L 92.874281 62.692359 
L 93.14974 63.083217 
L 93.253038 63.156457 
L 93.494064 63.565131 
L 93.597362 63.657762 
L 93.803956 64.018155 
L 93.976118 64.163268 
L 94.217145 64.583494 
L 94.423739 64.790962 
L 94.664766 65.160417 
L 94.768064 65.237549 
L 94.940226 65.497822 
L 95.215685 65.937982 
L 96.179792 67.159914 
L 96.420819 67.557454 
L 96.834008 68.068522 
L 97.00617 68.327753 
L 97.109467 68.435884 
L 97.316062 68.782787 
L 97.488224 68.954356 
L 97.694818 69.243355 
L 97.901413 69.482672 
L 98.00471 69.597271 
L 98.245737 69.975138 
L 98.349034 70.076711 
L 98.590061 70.477111 
L 98.727791 70.56552 
L 98.934385 70.877609 
L 99.278709 71.366499 
L 99.347574 71.469592 
L 100.414979 72.871154 
L 100.518276 72.985754 
L 100.72487 73.29637 
L 100.828168 73.412622 
L 101.069194 73.797041 
L 101.103627 73.806208 
L 101.275789 74.105077 
L 101.413518 74.229263 
L 101.585681 74.494058 
L 101.688978 74.606107 
L 101.895572 74.852165 
L 101.998869 74.988085 
L 102.239896 75.37443 
L 102.343194 75.481543 
L 102.618653 75.848785 
L 102.72195 75.966681 
L 102.997409 76.37082 
L 103.100707 76.496137 
L 103.410598 76.959727 
L 103.548328 77.038998 
L 103.789355 77.43719 
L 103.892652 77.546025 
L 104.064814 77.86971 
L 104.202544 77.991304 
L 104.44357 78.400413 
L 104.546868 78.515329 
L 104.650165 78.633476 
L 104.891192 79.022084 
L 104.925624 79.033387 
L 105.097786 79.347849 
L 105.235516 79.454221 
L 105.476543 79.846494 
L 105.57984 79.959428 
L 105.752002 80.16687 
L 106.57838 81.35552 
L 106.681677 81.410238 
L 107.817947 83.015747 
L 107.921244 83.098718 
L 108.127838 83.422672 
L 108.506595 84.005441 
L 108.57546 84.001305 
L 108.782054 84.342943 
L 109.091946 84.853141 
L 109.195243 84.956914 
L 109.29854 85.038392 
L 109.470702 85.326776 
L 109.573999 85.400534 
L 109.780594 85.773667 
L 109.883891 85.852549 
L 110.124918 86.251872 
L 110.262648 86.352344 
L 110.572539 86.838463 
L 110.675837 86.9368 
L 110.951296 87.348272 
L 111.054593 87.452643 
L 111.364485 87.974175 
L 111.398917 87.965704 
L 111.605512 88.289017 
L 111.777674 88.440103 
L 111.984268 88.776567 
L 112.15643 88.97225 
L 112.363025 89.28488 
L 113.568159 91.000055 
L 113.671456 91.10788 
L 113.878051 91.39124 
L 113.981348 91.465732 
L 114.222375 91.892474 
L 114.256807 91.894869 
L 114.428969 92.149112 
L 114.842158 92.654745 
L 115.01432 92.97917 
L 115.15205 93.098573 
L 115.634103 93.789093 
L 115.737401 93.847018 
L 115.978428 94.28919 
L 116.081725 94.404999 
L 116.770373 95.376487 
L 116.908103 95.505066 
L 117.149129 95.889783 
L 117.252427 95.976958 
L 117.390156 96.21082 
L 117.493454 96.295534 
L 117.73448 96.70312 
L 117.837778 96.794055 
L 118.113237 97.197517 
L 118.216534 97.292585 
L 118.595291 97.878375 
L 118.629723 97.869993 
L 118.801885 98.104849 
L 119.180642 98.674167 
L 119.215074 98.677896 
L 119.387236 98.880886 
L 119.903722 99.665874 
L 120.041452 99.778422 
L 120.213614 100.068158 
L 120.385776 100.284547 
L 120.86783 101.005365 
L 120.902262 101.013718 
L 121.074424 101.287219 
L 121.212154 101.384917 
L 121.384316 101.729993 
L 121.487613 101.853221 
L 121.831937 102.393052 
L 121.935234 102.456918 
L 125.894961 108.030829 
L 126.101556 108.35243 
L 126.30815 108.536991 
L 126.44588 108.847483 
L 126.618042 108.925932 
L 126.859069 109.421693 
L 126.893501 109.416804 
L 127.065663 109.729446 
L 127.134528 109.736978 
L 127.341122 110.066678 
L 127.478852 110.176237 
L 127.685447 110.54001 
L 127.857609 110.634906 
L 128.029771 110.957887 
L 128.098635 111.060659 
L 128.133068 111.065823 
L 128.270798 111.340121 
L 128.374095 111.38701 
L 128.580689 111.712255 
L 128.856148 112.081354 
L 129.028311 112.288701 
L 129.407067 112.802776 
L 129.441499 112.796704 
L 129.579229 113.061086 
L 129.613661 113.047747 
L 129.854688 113.494652 
L 129.889121 113.500483 
L 130.02685 113.766182 
L 130.199012 113.970482 
L 130.336742 114.187411 
L 130.956525 115.112223 
L 131.059823 115.176167 
L 131.231985 115.474998 
L 131.335282 115.580049 
L 131.541876 115.909718 
L 131.645174 116.020498 
L 131.920633 116.293224 
L 132.058363 116.636426 
L 132.230525 116.786033 
L 132.402687 117.070008 
L 132.437119 117.065469 
L 132.540416 117.298854 
L 132.574849 117.286959 
L 134.399766 119.641828 
L 134.537496 119.933973 
L 134.74409 120.012819 
L 134.847388 120.094164 
L 134.985117 120.433982 
L 135.260577 120.863725 
L 135.432739 120.990438 
L 135.604901 121.352521 
L 135.777063 121.460618 
L 135.88036 121.596993 
L 136.052522 121.813469 
L 136.086954 121.818912 
L 136.259116 122.245429 
L 136.431278 122.359775 
L 136.534576 122.387957 
L 136.706738 122.872873 
L 136.8789 122.935229 
L 137.016629 123.244191 
L 137.188791 123.24053 
L 137.326521 123.557527 
L 139.254736 126.215864 
L 139.358033 126.348478 
L 139.530195 126.664191 
L 139.59906 126.689374 
L 139.73679 126.821274 
L 139.874519 127.06878 
L 140.046681 127.299 
L 140.081114 127.288093 
L 140.218843 127.468687 
L 140.322141 127.599377 
L 140.632032 128.052884 
L 140.666465 128.038129 
L 140.700897 128.135784 
L 140.907492 128.214317 
L 141.010789 128.464531 
L 141.045221 128.456892 
L 141.114086 128.45901 
L 141.286248 128.763811 
L 141.320681 128.754394 
L 141.45841 128.999105 
L 141.561707 129.070107 
L 141.699437 129.279753 
L 141.837167 129.375961 
L 142.009329 129.686625 
L 142.147058 129.755988 
L 142.31922 130.026688 
L 142.422518 130.040915 
L 142.560247 130.357972 
L 142.732409 130.380486 
L 142.904571 130.73606 
L 143.007869 130.834307 
L 143.145598 131.06737 
L 143.283328 131.029402 
L 143.524355 131.370955 
L 143.868679 131.76807 
L 144.109706 132.199566 
L 144.247435 132.267023 
L 144.45403 132.453229 
L 144.660624 132.846274 
L 144.832786 132.897743 
L 144.970516 133.121087 
L 145.108246 133.246967 
L 145.142678 133.215981 
L 145.17711 133.234257 
L 145.349272 133.634823 
L 145.693597 133.81545 
L 145.865759 134.137955 
L 145.934623 134.258985 
L 146.037921 134.4251 
L 146.072353 134.402299 
L 146.210083 134.44699 
L 146.347812 134.567668 
L 146.485542 134.656604 
L 146.588839 134.978014 
L 146.623272 134.958523 
L 146.761001 134.920261 
L 146.933163 135.310243 
L 147.070893 135.394981 
L 147.243055 135.744501 
L 147.346352 135.774917 
L 147.552947 136.113253 
L 147.690676 136.170708 
L 147.793973 136.432282 
L 147.828406 136.387292 
L 147.931703 136.460277 
L 148.069433 136.736597 
L 148.241595 136.770311 
L 148.482622 137.119049 
L 148.551486 137.204375 
L 148.689216 137.29592 
L 148.758081 137.630719 
L 148.826946 137.579025 
L 148.964675 137.679221 
L 149.102405 137.6917 
L 149.274567 138.067174 
L 149.687756 138.664376 
L 149.825486 138.636216 
L 150.03208 139.03177 
L 150.204242 138.956315 
L 150.376404 139.413733 
L 150.548566 139.47507 
L 150.720728 139.844969 
L 150.858458 139.822547 
L 151.03062 140.152254 
L 151.133917 140.225417 
L 151.374944 140.489131 
L 151.512674 140.515638 
L 151.684836 140.721295 
L 151.788133 140.757341 
L 151.925863 140.984432 
L 152.02916 141.028394 
L 152.166889 141.190487 
L 152.407916 141.446365 
L 152.442349 141.439786 
L 152.580078 141.649088 
L 152.75224 141.696957 
L 153.062132 142.083421 
L 153.165429 142.220691 
L 153.268727 142.293513 
L 153.303159 142.268577 
L 153.337591 142.270347 
L 153.509753 142.56073 
L 153.681915 142.667413 
L 153.854077 143.061907 
L 154.02624 143.118374 
L 154.336131 143.498564 
L 154.508293 143.678284 
L 154.646023 143.770586 
L 154.818185 143.998152 
L 154.921482 144.048186 
L 155.162509 144.382537 
L 155.369103 144.52039 
L 155.541266 144.670297 
L 155.575698 144.664489 
L 155.74786 144.877085 
L 155.88559 144.970503 
L 156.057752 145.160383 
L 156.161049 145.166588 
L 156.195481 145.297624 
L 156.264346 145.267163 
L 156.367643 145.311444 
L 156.643103 145.62885 
L 156.7464 145.720294 
L 156.918562 145.903741 
L 157.021859 145.954637 
L 157.262886 146.242878 
L 157.538345 146.553836 
L 157.676075 146.492613 
L 157.813805 146.734986 
L 157.985967 146.769797 
L 158.192561 147.156197 
L 158.433588 147.325037 
L 158.60575 147.432977 
L 158.640182 147.430184 
L 158.777912 147.635647 
L 158.950074 147.687706 
L 159.087804 147.905823 
L 159.776452 148.44127 
L 159.845317 148.421777 
L 159.983046 148.618806 
L 160.120776 148.567484 
L 160.189641 148.829051 
L 160.258506 148.804341 
L 160.396235 148.908067 
L 160.499532 148.984575 
L 160.671694 149.241382 
L 161.084883 149.321469 
L 161.291478 149.614621 
L 161.498072 149.754557 
L 161.670234 149.807693 
L 161.807964 149.954887 
L 161.876829 149.923537 
L 162.014558 150.23197 
L 162.117856 150.327593 
L 162.18672 150.344707 
L 162.32445 150.242196 
L 162.46218 150.520918 
L 162.599909 150.561677 
L 162.634342 150.582365 
L 162.772071 150.818148 
L 162.909801 150.754714 
L 163.116396 151.068209 
L 163.288558 151.110762 
L 163.426287 151.418763 
L 163.632882 151.346912 
L 163.701746 151.48959 
L 163.770611 151.450973 
L 163.873909 151.547341 
L 164.149368 151.961996 
L 164.252665 151.872392 
L 164.459259 152.127994 
L 164.528124 152.086706 
L 164.665854 152.237682 
L 164.769151 152.294894 
L 165.113475 152.344428 
L 165.216772 152.515003 
L 165.251205 152.502429 
L 165.32007 152.552092 
L 165.354502 152.509951 
L 165.492232 152.509966 
L 165.664394 152.832733 
L 165.733259 152.930379 
L 165.974285 153.054166 
L 166.04315 153.152618 
L 166.077583 153.111249 
L 166.284177 153.014349 
L 166.456339 153.37432 
L 166.559636 153.411047 
L 166.628501 153.539169 
L 166.697366 153.513283 
L 166.869528 153.535414 
L 167.007258 153.820562 
L 167.04169 153.802114 
L 167.17942 153.747707 
L 167.351582 154.002697 
L 167.523744 153.955078 
L 167.661474 154.22591 
L 167.730338 154.321789 
L 167.9025 154.46888 
L 167.971365 154.456989 
L 168.109095 154.625124 
L 168.246824 154.603264 
L 168.350122 154.617742 
L 168.522284 154.938506 
L 168.797743 155.002239 
L 168.935473 155.127005 
L 169.004337 155.057906 
L 169.03877 155.127477 
L 169.314229 155.227469 
L 169.486391 155.553963 
L 169.658553 155.637607 
L 169.796283 155.602012 
L 169.968445 155.558665 
L 170.03731 155.800374 
L 170.106175 155.787104 
L 170.416066 155.814657 
L 170.588228 156.039316 
L 170.76039 156.174092 
L 170.932552 156.418223 
L 171.208012 156.417256 
L 171.345741 156.69003 
L 171.552336 156.61487 
L 171.690065 156.883851 
L 171.931092 156.906867 
L 172.068822 157.144687 
L 172.447578 157.385629 
L 172.516443 157.489521 
L 172.585308 157.4531 
L 172.75747 157.333172 
L 173.136227 157.840127 
L 173.273956 157.864115 
L 173.411686 158.013056 
L 173.480551 157.957326 
L 173.583848 158.178852 
L 173.61828 158.169147 
L 173.687145 158.056574 
L 173.721578 158.184362 
L 173.75601 158.186054 
L 173.824875 158.343962 
L 173.89374 158.303535 
L 174.065902 158.337707 
L 174.203631 158.530393 
L 174.341361 158.586663 
L 174.444658 158.563248 
L 174.582388 158.815934 
L 174.651253 158.747495 
L 174.720117 158.792304 
L 174.788982 158.917829 
L 174.857847 158.876774 
L 175.098874 159.029636 
L 176.372873 159.595302 
L 176.510603 159.668982 
L 176.682765 159.658316 
L 176.820494 159.818822 
L 177.130386 159.875258 
L 177.268116 160.050323 
L 177.509143 160.094883 
L 178.266656 160.474116 
L 178.438818 160.524107 
L 178.576547 160.66351 
L 178.748709 160.739926 
L 178.920871 160.797892 
L 179.024169 160.850486 
L 179.127466 160.905045 
L 179.161898 160.874829 
L 179.33406 160.976954 
L 179.575087 161.089731 
L 179.850546 161.121573 
L 179.988276 161.283363 
L 180.126006 161.307575 
L 180.19487 161.400578 
L 180.263735 161.353947 
L 180.608059 161.519978 
L 180.917951 161.586143 
L 181.124545 161.681165 
L 181.296707 161.695782 
L 181.434437 161.745847 
L 181.641032 161.879716 
L 181.813194 161.844457 
L 182.226383 162.080049 
L 182.364112 162.058608 
L 182.605139 162.099219 
L 182.777301 162.199963 
L 183.121625 162.276172 
L 183.259355 162.419094 
L 183.293787 162.370119 
L 183.603679 162.429361 
L 183.741409 162.566022 
L 183.982435 162.590856 
L 184.120165 162.607997 
L 184.18903 162.604573 
L 184.292327 162.740012 
L 184.326759 162.728551 
L 184.843246 162.896373 
L 184.980975 162.933726 
L 185.531894 163.115941 
L 185.738488 163.137369 
L 185.876218 163.260528 
L 186.220542 163.330553 
L 186.392704 163.403665 
L 186.564866 163.514243 
L 186.771461 163.534063 
L 186.943623 163.654367 
L 187.115785 163.677613 
L 187.253514 163.777551 
L 187.77 163.89786 
L 187.976595 164.059601 
L 188.148757 164.118333 
L 188.424216 164.276331 
L 188.561946 164.238748 
L 188.734108 164.338075 
L 188.940702 164.395213 
L 189.112864 164.458552 
L 189.457188 164.496627 
L 189.698215 164.713352 
L 190.111404 164.777495 
L 190.283566 164.919481 
L 190.490161 164.989601 
L 190.662323 165.107077 
L 190.696755 165.111052 
L 190.800052 165.232004 
L 190.834485 165.221879 
L 191.075512 165.303347 
L 191.213241 165.408535 
L 191.454268 165.568841 
L 191.62643 165.572246 
L 191.76416 165.73768 
L 191.936322 165.851373 
L 192.177349 165.96357 
L 192.211781 165.951898 
L 192.349511 166.141602 
L 192.452808 166.180315 
L 192.659402 166.383868 
L 193.589078 167.00258 
L 193.692375 167.020266 
L 193.864537 167.20376 
L 193.967834 167.230233 
L 194.105564 167.292109 
L 194.381023 167.531437 
L 194.897509 167.855761 
L 195.069671 167.946971 
L 195.448428 168.163987 
L 195.48286 168.160568 
L 195.62059 168.370897 
L 195.792752 168.420341 
L 196.205941 168.638892 
L 196.240373 168.626381 
L 196.378103 168.805747 
L 196.584697 168.911233 
L 196.756859 168.972001 
L 196.825724 168.956854 
L 196.963454 169.155123 
L 197.101183 169.206761 
L 197.273345 169.395106 
L 197.411075 169.472361 
L 197.548805 169.558835 
L 197.617669 169.552475 
L 197.789831 169.69842 
L 197.961993 169.817778 
L 198.168588 170.02322 
L 198.34075 170.027622 
L 198.47848 170.138289 
L 198.512912 170.132047 
L 198.650642 170.305192 
L 200.234532 171.419289 
L 200.406695 171.703764 
L 200.613289 171.740289 
L 200.716586 171.833635 
L 200.751019 171.810906 
L 200.992045 172.069673 
L 201.19864 172.081595 
L 201.611829 172.527669 
L 201.783991 172.55447 
L 201.956153 172.733366 
L 202.19718 172.741335 
L 202.334909 173.023137 
L 203.299017 173.583026 
L 203.505611 173.757176 
L 203.746638 173.881411 
L 204.05653 174.105709 
L 204.159827 174.18165 
L 204.435286 174.39706 
L 204.676313 174.463453 
L 204.814043 174.666221 
L 205.640421 175.12153 
L 205.743718 175.269806 
L 205.77815 175.25761 
L 206.122474 175.568585 
L 206.294636 175.599432 
L 206.432366 175.716663 
L 206.638961 175.868056 
L 206.742258 175.931588 
L 206.91442 176.099797 
L 207.017717 176.161981 
L 207.224312 176.400508 
L 207.465338 176.515126 
L 207.671933 176.654348 
L 207.809662 176.716008 
L 207.947392 176.898791 
L 208.188419 176.994116 
L 208.360581 177.218748 
L 208.498311 177.252362 
L 208.808202 177.519249 
L 209.014797 177.609245 
L 209.186959 177.749553 
L 209.359121 177.842113 
L 209.496851 177.945259 
L 209.669013 178.03847 
L 209.910039 178.277627 
L 210.013337 178.336671 
L 210.219931 178.515995 
L 210.392093 178.561583 
L 210.564255 178.769332 
L 210.839714 178.861067 
L 211.252903 179.199869 
L 211.356201 179.257972 
L 211.528363 179.461724 
L 211.76939 179.560638 
L 211.907119 179.742793 
L 212.079281 179.764749 
L 212.251443 179.997618 
L 212.423605 180.043707 
L 212.664632 180.323324 
L 213.043389 180.624189 
L 213.249983 180.665643 
L 213.422145 180.827659 
L 213.594307 180.917384 
L 213.766469 181.138588 
L 214.041929 181.269782 
L 214.214091 181.399281 
L 214.248523 181.389034 
L 214.386253 181.505193 
L 214.661712 181.767492 
L 214.730577 181.907726 
L 214.937171 181.986205 
L 215.040468 182.049885 
L 215.21263 182.137696 
L 215.522522 182.426626 
L 215.763549 182.574695 
L 215.901279 182.726304 
L 216.004576 182.760864 
L 216.176738 182.916028 
L 216.280035 182.983236 
L 216.624359 183.256635 
L 216.727656 183.328556 
L 216.899818 183.508728 
L 217.003116 183.514535 
L 217.175278 183.765991 
L 217.313007 183.810152 
L 217.554034 184.027631 
L 217.657331 184.106573 
L 217.863926 184.208209 
L 217.898358 184.206962 
L 218.001656 184.411935 
L 218.036088 184.403558 
L 218.518142 184.759099 
L 218.621439 184.821016 
L 219.275655 185.343183 
L 219.413384 185.424733 
L 219.585546 185.665276 
L 219.688844 185.721578 
L 219.826573 185.771308 
L 220.0676 185.93633 
L 220.239762 186.056702 
L 220.274195 186.048205 
L 220.446357 186.323165 
L 220.652951 186.36171 
L 220.825113 186.586804 
L 220.997275 186.657726 
L 221.20387 186.874002 
L 221.307167 186.876731 
L 221.479329 187.048637 
L 221.582626 187.099285 
L 221.92695 187.448353 
L 222.030247 187.521333 
L 222.512301 187.950126 
L 222.650031 188.089488 
L 222.684463 188.049491 
L 222.753328 188.109203 
L 223.097652 188.371338 
L 223.338679 188.566615 
L 223.614138 188.766982 
L 223.820733 188.949546 
L 224.302786 189.349661 
L 224.406084 189.394647 
L 224.578246 189.618782 
L 224.681543 189.724815 
L 224.991435 189.901111 
L 225.232461 190.128348 
L 225.335759 190.193286 
L 225.507921 190.323605 
L 225.680083 190.481258 
L 225.852245 190.585408 
L 226.162137 190.875627 
L 226.299866 190.913458 
L 226.472028 191.135942 
L 226.575325 191.155221 
L 226.713055 191.289192 
L 226.954082 191.419394 
L 227.160676 191.701725 
L 227.401703 191.745962 
L 227.608298 191.976163 
L 228.193649 192.491703 
L 228.400243 192.578982 
L 228.50354 192.658038 
L 229.192189 193.237367 
L 229.295486 193.330325 
L 229.570945 193.545145 
L 229.674242 193.649197 
L 229.846404 193.804956 
L 229.949702 193.827224 
L 230.156296 194.079051 
L 232.222241 195.69469 
L 232.35997 195.783893 
L 232.463267 195.837829 
L 232.635429 196.070751 
L 232.773159 196.124598 
L 232.876456 196.202694 
L 233.014186 196.30137 
L 233.117483 196.369725 
L 234.012726 197.092869 
L 234.322617 197.378076 
L 234.425915 197.444969 
L 234.839104 197.809242 
L 234.942401 197.851491 
L 235.114563 197.998333 
L 235.390022 198.170506 
L 235.424455 198.152589 
L 235.458887 198.2411 
L 235.734346 198.536353 
L 235.906508 198.662962 
L 236.009806 198.726557 
L 236.560724 199.190862 
L 236.664021 199.241864 
L 236.905048 199.507177 
L 236.939481 199.475002 
L 236.973913 199.583949 
L 237.07721 199.651451 
L 237.249372 199.729724 
L 237.421534 199.948743 
L 237.593696 200.036334 
L 237.731426 200.162063 
L 237.834723 200.228732 
L 238.006885 200.389202 
L 238.110182 200.429062 
L 238.316777 200.611259 
L 238.385642 200.707186 
L 238.626669 200.826714 
L 239.384182 201.507662 
L 239.521911 201.565145 
L 239.694073 201.762196 
L 239.79737 201.80278 
L 240.003965 202.049953 
L 240.141695 202.112144 
L 240.589316 202.451667 
L 240.761478 202.63961 
L 240.899208 202.691335 
L 241.140234 202.960583 
L 241.243532 202.995764 
L 241.518991 203.288325 
L 241.691153 203.365237 
L 241.93218 203.547144 
L 242.035477 203.602787 
L 242.207639 203.804951 
L 242.414234 203.921602 
L 242.724125 204.231372 
L 242.827422 204.270235 
L 243.034017 204.462818 
L 243.137314 204.520606 
L 243.688233 204.939746 
L 243.79153 205.02184 
L 243.963692 205.225619 
L 244.066989 205.249948 
L 244.239151 205.419374 
L 244.342448 205.483652 
L 244.514611 205.637585 
L 244.721205 205.728728 
L 244.893367 205.921813 
L 244.996664 206.003023 
L 245.168826 206.152559 
L 245.409853 206.410933 
L 245.51315 206.438192 
L 246.132934 206.927778 
L 246.236231 206.979834 
L 246.408393 207.193798 
L 246.546123 207.250773 
L 246.890447 207.555903 
L 247.131474 207.705417 
L 247.165906 207.691953 
L 247.200338 207.793951 
L 247.406933 207.911464 
L 248.164446 208.520531 
L 248.267743 208.600217 
L 248.612067 208.905237 
L 248.887526 209.065591 
L 248.956391 209.164467 
L 249.128553 209.275877 
L 249.300715 209.471007 
L 249.438445 209.491643 
L 249.610607 209.693646 
L 249.713904 209.744317 
L 249.851634 209.880205 
L 249.954931 209.908502 
L 250.127093 210.10146 
L 250.23039 210.131633 
L 250.609147 210.488629 
L 251.435525 211.130954 
L 251.538822 211.16249 
L 251.710984 211.318425 
L 251.848714 211.419098 
L 252.020876 211.638413 
L 252.193038 211.714746 
L 252.537362 212.059136 
L 252.571794 212.004144 
L 252.640659 212.04822 
L 252.881686 212.292292 
L 253.019416 212.346195 
L 253.191578 212.48925 
L 253.294875 212.580906 
L 253.535902 212.806381 
L 253.811361 212.970975 
L 254.017955 213.184776 
L 254.258982 213.334982 
L 255.774008 214.522754 
L 255.980603 214.742553 
L 256.531521 215.184517 
L 256.738116 215.259071 
L 256.979143 215.526994 
L 257.08244 215.606882 
L 257.323467 215.805056 
L 257.461196 215.884865 
L 257.736656 216.139915 
L 258.012115 216.361114 
L 258.115412 216.381443 
L 258.356439 216.539761 
L 258.459736 216.593822 
L 258.597466 216.732247 
L 258.700763 216.820669 
L 258.769628 216.82847 
L 258.94179 217.048195 
L 259.113952 217.124385 
L 259.320546 217.34814 
L 259.423844 217.383704 
L 259.664871 217.65768 
L 260.284654 218.078721 
L 260.491248 218.323783 
L 260.594546 218.333379 
L 260.697843 218.458856 
L 260.732275 218.447232 
L 261.214329 218.861096 
L 261.317626 218.895633 
L 261.558653 219.161496 
L 261.66195 219.201431 
L 261.868545 219.404405 
L 261.971842 219.462415 
L 262.144004 219.609658 
L 262.247301 219.637817 
L 262.385031 219.771443 
L 262.419463 219.741838 
L 262.453896 219.832709 
L 262.763787 220.008669 
L 262.970382 220.246655 
L 263.142544 220.361775 
L 263.486868 220.662362 
L 263.5213 220.641862 
L 263.555733 220.736398 
L 263.65903 220.766616 
L 263.831192 220.901164 
L 263.934489 220.940814 
L 264.106651 221.082226 
L 264.347678 221.338937 
L 264.51984 221.405339 
L 264.726435 221.603281 
L 264.829732 221.648264 
L 265.001894 221.85562 
L 265.105191 221.884815 
L 265.277353 222.087044 
L 265.415083 222.118817 
L 265.587245 222.310675 
L 265.690542 222.38214 
L 265.897137 222.555429 
L 266.000434 222.593901 
L 266.207028 222.811031 
L 266.585785 223.047935 
L 266.757947 223.201526 
L 266.861244 223.238147 
L 266.998974 223.473031 
L 267.37773 223.696213 
L 267.653189 223.950741 
L 267.825351 224.038524 
L 268.789459 224.778816 
L 268.996053 225.012194 
L 269.787999 225.615941 
L 269.891296 225.676238 
L 270.063458 225.908352 
L 270.166755 225.914743 
L 270.37335 226.131399 
L 270.476647 226.203659 
L 271.406322 226.880479 
L 271.544052 227.010713 
L 271.888376 227.269872 
L 271.991673 227.339581 
L 272.198267 227.523787 
L 272.301565 227.570226 
L 272.439294 227.705761 
L 272.645889 227.872096 
L 272.714754 227.953113 
L 278.430533 232.385864 
L 278.602696 232.588343 
L 278.705993 232.614637 
L 278.912587 232.770408 
L 279.015884 232.800386 
L 279.188046 232.987162 
L 279.291344 233.075984 
L 279.497938 233.225211 
L 279.601235 233.303452 
L 279.80783 233.490898 
L 279.945559 233.537572 
L 280.083289 233.65119 
L 280.324316 233.827254 
L 280.462046 233.985011 
L 280.634208 234.059888 
L 280.80637 234.235606 
L 280.978532 234.312757 
L 281.116261 234.503089 
L 281.563883 234.768156 
L 281.80491 234.992253 
L 282.011504 235.12062 
L 282.183666 235.237049 
L 282.218098 235.240403 
L 282.390261 235.451024 
L 282.872314 235.754542 
L 283.044476 235.966414 
L 283.147774 236.042755 
L 283.3888 236.221952 
L 283.595395 236.362785 
L 283.767557 236.528578 
L 283.905287 236.58915 
L 284.318475 236.892094 
L 284.421773 236.921705 
L 284.593935 237.094839 
L 284.697232 237.127716 
L 284.834962 237.215181 
L 284.938259 237.249277 
L 285.110421 237.460391 
L 285.213718 237.50401 
L 285.351448 237.601425 
L 285.454745 237.672863 
L 285.592475 237.861988 
L 285.626907 237.84539 
L 285.799069 237.918207 
L 285.936799 238.037692 
L 286.040096 238.087462 
L 286.177826 238.279695 
L 286.349988 238.353414 
L 286.487717 238.444984 
L 286.625447 238.588933 
L 287.899446 239.554698 
L 288.002743 239.630079 
L 288.209338 239.79519 
L 288.347067 239.895634 
L 288.450365 239.938774 
L 288.519229 240.03952 
L 288.588094 240.015811 
L 290.275282 241.363797 
L 290.413012 241.38855 
L 290.516309 241.56902 
L 290.550741 241.558046 
L 291.411552 242.181705 
L 291.652579 242.327019 
L 292.444524 242.90605 
L 292.651118 243.110353 
L 292.82328 243.216451 
L 293.202037 243.525578 
L 293.339767 243.615837 
L 293.511929 243.782365 
L 293.925118 244.01347 
L 294.09728 244.188444 
L 294.200577 244.229964 
L 294.372739 244.436545 
L 294.510469 244.420114 
L 294.682631 244.617631 
L 294.785928 244.624201 
L 294.992522 244.802517 
L 295.164684 244.91156 
L 295.336846 245.063581 
L 295.440144 245.066233 
L 295.577873 245.189631 
L 295.68117 245.250226 
L 295.853332 245.432449 
L 296.059927 245.494499 
L 296.197657 245.692691 
L 296.335386 245.676835 
L 296.576413 245.877762 
L 296.714143 245.943071 
L 296.886305 246.113495 
L 297.092899 246.182114 
L 297.402791 246.411613 
L 297.54052 246.460955 
L 297.712683 246.663592 
L 297.988142 246.78334 
L 298.160304 246.895888 
L 298.229169 246.867823 
L 298.366898 247.007333 
L 298.470196 247.018164 
L 298.642358 247.187129 
L 298.745655 247.195631 
L 298.917817 247.37647 
L 299.193276 247.422368 
L 299.296573 247.529758 
L 299.331006 247.516845 
L 300.53614 248.110803 
L 300.570572 248.097632 
L 300.708302 248.244065 
L 300.846032 248.2854 
L 301.018194 248.330026 
L 301.259221 248.438691 
L 301.947869 248.732507 
L 302.120031 248.790903 
L 302.292193 248.889044 
L 302.429923 248.913662 
L 302.567652 249.010431 
L 302.739814 249.039462 
L 303.221868 249.194622 
L 303.39403 249.335455 
L 303.600624 249.325312 
L 303.841651 249.460115 
L 304.39257 249.563335 
L 304.633597 249.659053 
L 304.736894 249.676278 
L 305.184515 249.785452 
L 305.459975 249.889724 
L 308.076838 250.349393 
L 308.249 250.318743 
L 308.490027 250.428237 
L 308.731053 250.425927 
L 308.903215 250.44441 
L 309.075378 250.439858 
L 309.695161 250.544695 
L 310.142782 250.636149 
L 310.280512 250.577397 
L 310.900295 250.722724 
L 315.996292 251.091355 
L 316.202886 251.094826 
L 316.581643 251.065319 
L 316.82267 251.127897 
L 317.235858 251.106919 
L 317.476885 251.150832 
L 317.68348 251.186401 
L 317.821209 251.215432 
L 318.096669 251.166124 
L 318.268831 251.196485 
L 318.337696 251.08685 
L 318.40656 251.127158 
L 318.613155 251.239394 
L 319.232938 251.223988 
L 319.611695 251.247145 
L 319.818289 251.249525 
L 320.369208 251.276698 
L 320.575802 251.288696 
L 322.090828 251.295698 
L 322.297423 251.351241 
L 323.674719 251.379802 
L 323.743584 251.315997 
L 323.778016 251.367882 
L 324.053475 251.388311 
L 325.465204 251.462979 
L 325.637366 251.430614 
L 325.947258 251.466433 
L 326.222717 251.484205 
L 326.498177 251.490519 
L 326.945798 251.508161 
L 327.11796 251.495133 
L 327.462284 251.536234 
L 327.634446 251.541092 
L 328.047635 251.567651 
L 328.219797 251.565348 
L 328.874013 251.557054 
L 329.665958 251.598402 
L 329.83812 251.613955 
L 330.320174 251.582269 
L 331.112119 251.662123 
L 331.628605 251.637343 
L 331.938497 251.699313 
L 332.076227 251.675349 
L 332.213956 251.658618 
L 332.386118 251.640795 
L 333.040334 251.637553 
L 333.453523 251.689017 
L 333.591253 251.70273 
L 333.763415 251.676589 
L 337.41325 251.776318 
L 337.55098 251.799728 
L 337.792007 251.801035 
L 337.998601 251.814346 
L 338.170763 251.80322 
L 338.377358 251.822977 
L 338.54952 251.770338 
L 338.756114 251.808531 
L 339.926816 251.805155 
L 340.477735 251.885735 
L 341.028653 251.881148 
L 341.235248 251.908465 
L 341.510707 251.873878 
L 341.820599 251.904293 
L 342.096058 251.884662 
L 342.543679 251.881592 
L 342.750274 251.93908 
L 343.197895 251.868488 
L 343.335625 251.908443 
L 343.507787 251.904356 
L 349.154702 252.00109 
L 349.292431 252.022748 
L 349.533458 252.025138 
L 350.394268 252.087239 
L 350.600863 252.022485 
L 350.738593 252.052234 
L 351.220646 252.038647 
L 352.253619 252.113869 
L 353.183294 252.093085 
L 353.389888 252.074769 
L 353.630915 252.133392 
L 353.803077 252.115019 
L 354.044104 252.133128 
L 354.181833 252.120772 
L 354.732752 252.163042 
L 354.870482 252.134316 
L 355.386968 252.180756 
L 355.55913 252.208131 
L 356.247778 252.211267 
L 356.41994 252.222035 
L 356.764264 252.199248 
L 357.005291 252.21716 
L 357.41848 252.236932 
L 357.762804 252.226325 
L 357.934966 252.231283 
L 358.382587 252.244907 
L 362.27345 252.358149 
L 362.445612 252.35465 
L 362.686638 252.325215 
L 363.030963 252.369916 
L 363.203125 252.378287 
L 363.85734 252.417207 
L 364.029502 252.380091 
L 364.511556 252.411195 
L 366.026582 252.434475 
L 366.336474 252.46956 
L 366.474203 252.403412 
L 366.611933 252.422267 
L 366.749663 252.460517 
L 367.025122 252.417303 
L 367.71377 252.51378 
L 368.264689 252.436387 
L 368.505716 252.490747 
L 370.158471 252.547114 
L 370.468363 252.526908 
L 370.915984 252.521533 
L 371.191443 252.557215 
L 373.050794 252.654906 
L 373.119658 252.682077 
L 373.154091 252.642673 
L 373.360685 252.559744 
L 373.532847 252.654506 
L 373.980469 252.670069 
L 374.221495 252.713153 
L 374.841279 252.733406 
L 375.082306 252.698645 
L 375.42663 252.698867 
L 375.633224 252.743053 
L 375.805386 252.718182 
L 379.110898 252.83517 
L 379.248627 252.857327 
L 379.420789 252.840783 
L 379.558519 252.873845 
L 379.765113 252.837958 
L 380.00614 252.859777 
L 382.00322 252.958216 
L 382.072085 252.985957 
L 382.106517 252.944101 
L 382.278679 252.904108 
L 382.519706 252.941797 
L 382.760733 252.977642 
L 383.105057 252.946271 
L 383.552678 252.95681 
L 383.759273 252.991674 
L 383.931435 252.96252 
L 384.103597 252.999344 
L 384.344624 252.995186 
L 387.856729 253.134847 
L 387.960027 253.181841 
L 387.994459 253.152489 
L 388.132189 253.137177 
L 388.304351 253.054047 
L 388.545378 253.135144 
L 388.71754 253.131271 
L 388.924134 253.147127 
L 389.061864 253.151507 
L 389.234026 253.146667 
L 389.371755 253.14906 
L 389.509485 253.210691 
L 389.71608 253.166109 
L 390.025971 253.176234 
L 390.129268 253.251085 
L 390.163701 253.224639 
L 390.404728 253.182232 
L 390.921214 253.215209 
L 391.231106 253.220771 
L 391.403268 253.237516 
L 392.505105 253.28866 
L 392.780564 253.308147 
L 392.952726 253.29988 
L 393.29705 253.331506 
L 393.503645 253.289165 
L 393.985698 253.370698 
L 394.226725 253.289652 
L 394.605482 253.352296 
L 395.397427 253.366678 
L 395.845048 253.350519 
L 396.15494 253.41036 
L 396.29267 253.386763 
L 396.533697 253.406261 
L 397.325642 253.444337 
L 397.428939 253.459802 
L 397.497804 253.428332 
L 397.532236 253.45707 
L 397.807696 253.439647 
L 399.391587 253.494326 
L 399.563749 253.501293 
L 399.701478 253.496503 
L 399.839208 253.530663 
L 400.045802 253.5608 
L 400.562288 253.509336 
L 400.73445 253.540148 
L 401.044342 253.571836 
L 401.664126 253.589756 
L 401.836288 253.584455 
L 402.146179 253.610779 
L 402.318341 253.611625 
L 402.490503 253.608264 
L 402.903692 253.616225 
L 403.179152 253.660725 
L 403.316881 253.623425 
L 403.489043 253.654835 
L 403.798935 253.632336 
L 404.280989 253.686989 
L 404.694178 253.716592 
L 404.935204 253.715486 
L 405.072934 253.706304 
L 405.210664 253.707163 
L 405.72715 253.790032 
L 405.968177 253.759454 
L 406.381366 253.792729 
L 406.622392 253.730088 
L 406.863419 253.794053 
L 407.070014 253.786989 
L 408.171851 253.790125 
L 408.344013 253.812466 
L 409.239256 253.888206 
L 409.44585 253.812971 
L 409.652444 253.884074 
L 409.824606 253.848393 
L 410.134498 253.885139 
L 410.30666 253.87048 
L 410.650984 253.916873 
L 410.857579 253.902927 
L 411.16747 253.885443 
L 411.44293 253.936294 
L 411.787254 253.918285 
L 412.44147 253.956166 
L 412.785794 253.95699 
L 412.957956 253.955184 
L 413.130118 253.985478 
L 413.405577 253.970964 
L 413.612171 254.009101 
L 413.749901 253.997506 
L 413.887631 254.007146 
L 414.197522 254.035695 
L 414.610711 254.035631 
L 414.851738 253.996403 
L 416.056872 254.052295 
L 416.642223 254.054287 
L 416.814385 254.074694 
L 417.124277 254.081711 
L 417.365304 254.090298 
L 417.744061 254.092778 
L 417.916223 254.118462 
L 423.45984 254.302087 
L 423.59757 254.337812 
L 423.7353 254.345034 
L 423.941894 254.345558 
L 424.148489 254.318987 
L 425.043731 254.367809 
L 425.181461 254.321035 
L 425.697947 254.411523 
L 425.766812 254.424112 
L 425.801244 254.381423 
L 426.042271 254.431023 
L 426.214433 254.392609 
L 426.971946 254.437484 
L 429.45108 254.51989 
L 429.45108 254.51989 
" clip-path="url(#pa083530061)" style="fill: none; stroke: #0000ff; stroke-width: 1.5; stroke-linecap: square"/>
   </g>
   <g id="line2d_13">
    <path d="M 64.91 277.74 
L 446.810179 277.74 
" clip-path="url(#pa083530061)" style="fill: none; stroke-dasharray: 0.37,0.16; stroke-dashoffset: 0; stroke: #000000; stroke-width: 0.1"/>
   </g>
   <g id="patch_3">
    <path d="M 64.91 289.24 
L 64.91 36.24 
" style="fill: none; stroke: #000000; stroke-width: 0.8; stroke-linejoin: miter; stroke-linecap: square"/>
   </g>
   <g id="patch_4">
    <path d="M 446.810179 289.24 
L 446.810179 36.24 
" style="fill: none; stroke: #000000; stroke-width: 0.8; stroke-linejoin: miter; stroke-linecap: square"/>
   </g>
   <g id="patch_5">
    <path d="M 64.91 289.24 
L 446.810179 289.24 
" style="fill: none; stroke: #000000; stroke-width: 0.8; stroke-linejoin: miter; stroke-linecap: square"/>
   </g>
   <g id="patch_6">
    <path d="M 64.91 36.24 
L 446.810179 36.24 
" style="fill: none; stroke: #000000; stroke-width: 0.8; stroke-linejoin: miter; stroke-linecap: square"/>
   </g>
   <g id="text_14">
    <!-- Closest Points -->
    <g transform="translate(165.404464 30.24) scale(0.26 -0.26)">
     <defs>
      <path id="DejaVuSans-43" d="M 4122 4306 
L 4122 3641 
Q 3803 3938 3442 4084 
Q 3081 4231 2675 4231 
Q 1875 4231 1450 3742 
Q 1025 3253 1025 2328 
Q 1025 1406 1450 917 
Q 1875 428 2675 428 
Q 3081 428 3442 575 
Q 3803 722 4122 1019 
L 4122 359 
Q 3791 134 3420 21 
Q 3050 -91 2638 -91 
Q 1578 -91 968 557 
Q 359 1206 359 2328 
Q 359 3453 968 4101 
Q 1578 4750 2638 4750 
Q 3056 4750 3426 4639 
Q 3797 4528 4122 4306 
z
" transform="scale(0.015625)"/>
      <path id="DejaVuSans-6c" d="M 603 4863 
L 1178 4863 
L 1178 0 
L 603 0 
L 603 4863 
z
" transform="scale(0.015625)"/>
      <path id="DejaVuSans-6f" d="M 1959 3097 
Q 1497 3097 1228 2736 
Q 959 2375 959 1747 
Q 959 1119 1226 758 
Q 1494 397 1959 397 
Q 2419 397 2687 759 
Q 2956 1122 2956 1747 
Q 2956 2369 2687 2733 
Q 2419 3097 1959 3097 
z
M 1959 3584 
Q 2709 3584 3137 3096 
Q 3566 2609 3566 1747 
Q 3566 888 3137 398 
Q 2709 -91 1959 -91 
Q 1206 -91 779 398 
Q 353 888 353 1747 
Q 353 2609 779 3096 
Q 1206 3584 1959 3584 
z
" transform="scale(0.015625)"/>
      <path id="DejaVuSans-20" transform="scale(0.015625)"/>
      <path id="DejaVuSans-50" d="M 1259 4147 
L 1259 2394 
L 2053 2394 
Q 2494 2394 2734 2622 
Q 2975 2850 2975 3272 
Q 2975 3691 2734 3919 
Q 2494 4147 2053 4147 
L 1259 4147 
z
M 628 4666 
L 2053 4666 
Q 2838 4666 3239 4311 
Q 3641 3956 3641 3272 
Q 3641 2581 3239 2228 
Q 2838 1875 2053 1875 
L 1259 1875 
L 1259 0 
L 628 0 
L 628 4666 
z
" transform="scale(0.015625)"/>
      <path id="DejaVuSans-6e" d="M 3513 2113 
L 3513 0 
L 2938 0 
L 2938 2094 
Q 2938 2591 2744 2837 
Q 2550 3084 2163 3084 
Q 1697 3084 1428 2787 
Q 1159 2491 1159 1978 
L 1159 0 
L 581 0 
L 581 3500 
L 1159 3500 
L 1159 2956 
Q 1366 3272 1645 3428 
Q 1925 3584 2291 3584 
Q 2894 3584 3203 3211 
Q 3513 2838 3513 2113 
z
" transform="scale(0.015625)"/>
     </defs>
     <use xlink:href="#DejaVuSans-43"/>
     <use xlink:href="#DejaVuSans-6c" x="69.824219"/>
     <use xlink:href="#DejaVuSans-6f" x="97.607422"/>
     <use xlink:href="#DejaVuSans-73" x="158.789062"/>
     <use xlink:href="#DejaVuSans-65" x="210.888672"/>
     <use xlink:href="#DejaVuSans-73" x="272.412109"/>
     <use xlink:href="#DejaVuSans-74" x="324.511719"/>
     <use xlink:href="#DejaVuSans-20" x="363.720703"/>
     <use xlink:href="#DejaVuSans-50" x="395.507812"/>
     <use xlink:href="#DejaVuSans-6f" x="452.185547"/>
     <use xlink:href="#DejaVuSans-69" x="513.367188"/>
     <use xlink:href="#DejaVuSans-6e" x="541.150391"/>
     <use xlink:href="#DejaVuSans-74" x="604.529297"/>
     <use xlink:href="#DejaVuSans-73" x="643.738281"/>
    </g>
   </g>
  </g>
 </g>
 <defs>
  <clipPath id="pa083530061">
   <rect x="64.91" y="36.24" width="381.900179" height="253"/>
  </clipPath>
 </defs>
</svg>
