<?xml version="1.0" encoding="utf-8" standalone="no"?>
<!DOCTYPE svg PUBLIC "-//W3C//DTD SVG 1.1//EN"
  "http://www.w3.org/Graphics/SVG/1.1/DTD/svg11.dtd">
<svg xmlns:xlink="http://www.w3.org/1999/xlink" width="460.8pt" height="345.6pt" viewBox="0 0 460.8 345.6" xmlns="http://www.w3.org/2000/svg" version="1.1">
 <metadata>
  <rdf:RDF xmlns:dc="http://purl.org/dc/elements/1.1/" xmlns:cc="http://creativecommons.org/ns#" xmlns:rdf="http://www.w3.org/1999/02/22-rdf-syntax-ns#">
   <cc:Work>
    <dc:type rdf:resource="http://purl.org/dc/dcmitype/StillImage"/>
    <dc:date>2024-10-17T23:16:07.946886</dc:date>
    <dc:format>image/svg+xml</dc:format>
    <dc:creator>
     <cc:Agent>
      <dc:title>Matplotlib v3.7.5, https://matplotlib.org/</dc:title>
     </cc:Agent>
    </dc:creator>
   </cc:Work>
  </rdf:RDF>
 </metadata>
 <defs>
  <style type="text/css">*{stroke-linejoin: round; stroke-linecap: butt}</style>
 </defs>
 <g id="figure_1">
  <g id="patch_1">
   <path d="M 0 345.6 
L 460.8 345.6 
L 460.8 0 
L 0 0 
z
" style="fill: #ffffff"/>
  </g>
  <g id="axes_1">
   <g id="patch_2">
    <path d="M 65 289.24 
L 446.810179 289.24 
L 446.810179 36.24 
L 65 36.24 
z
" style="fill: #ffffff"/>
   </g>
   <g id="matplotlib.axis_1">
    <g id="xtick_1">
     <g id="line2d_1">
      <defs>
       <path id="md701581941" d="M 0 0 
L 0 3.5 
" style="stroke: #000000; stroke-width: 0.8"/>
      </defs>
      <g>
       <use xlink:href="#md701581941" x="82.355008" y="289.24" style="stroke: #000000; stroke-width: 0.8"/>
      </g>
     </g>
     <g id="text_1">
      <!-- 0 -->
      <g transform="translate(77.901258 306.877813) scale(0.14 -0.14)">
       <defs>
        <path id="DejaVuSans-30" d="M 2034 4250 
Q 1547 4250 1301 3770 
Q 1056 3291 1056 2328 
Q 1056 1369 1301 889 
Q 1547 409 2034 409 
Q 2525 409 2770 889 
Q 3016 1369 3016 2328 
Q 3016 3291 2770 3770 
Q 2525 4250 2034 4250 
z
M 2034 4750 
Q 2819 4750 3233 4129 
Q 3647 3509 3647 2328 
Q 3647 1150 3233 529 
Q 2819 -91 2034 -91 
Q 1250 -91 836 529 
Q 422 1150 422 2328 
Q 422 3509 836 4129 
Q 1250 4750 2034 4750 
z
" transform="scale(0.015625)"/>
       </defs>
       <use xlink:href="#DejaVuSans-30"/>
      </g>
     </g>
    </g>
    <g id="xtick_2">
     <g id="line2d_2">
      <g>
       <use xlink:href="#md701581941" x="151.203597" y="289.24" style="stroke: #000000; stroke-width: 0.8"/>
      </g>
     </g>
     <g id="text_2">
      <!-- 2000 -->
      <g transform="translate(133.388597 306.877813) scale(0.14 -0.14)">
       <defs>
        <path id="DejaVuSans-32" d="M 1228 531 
L 3431 531 
L 3431 0 
L 469 0 
L 469 531 
Q 828 903 1448 1529 
Q 2069 2156 2228 2338 
Q 2531 2678 2651 2914 
Q 2772 3150 2772 3378 
Q 2772 3750 2511 3984 
Q 2250 4219 1831 4219 
Q 1534 4219 1204 4116 
Q 875 4013 500 3803 
L 500 4441 
Q 881 4594 1212 4672 
Q 1544 4750 1819 4750 
Q 2544 4750 2975 4387 
Q 3406 4025 3406 3419 
Q 3406 3131 3298 2873 
Q 3191 2616 2906 2266 
Q 2828 2175 2409 1742 
Q 1991 1309 1228 531 
z
" transform="scale(0.015625)"/>
       </defs>
       <use xlink:href="#DejaVuSans-32"/>
       <use xlink:href="#DejaVuSans-30" x="63.623047"/>
       <use xlink:href="#DejaVuSans-30" x="127.246094"/>
       <use xlink:href="#DejaVuSans-30" x="190.869141"/>
      </g>
     </g>
    </g>
    <g id="xtick_3">
     <g id="line2d_3">
      <g>
       <use xlink:href="#md701581941" x="220.052187" y="289.24" style="stroke: #000000; stroke-width: 0.8"/>
      </g>
     </g>
     <g id="text_3">
      <!-- 4000 -->
      <g transform="translate(202.237187 306.877813) scale(0.14 -0.14)">
       <defs>
        <path id="DejaVuSans-34" d="M 2419 4116 
L 825 1625 
L 2419 1625 
L 2419 4116 
z
M 2253 4666 
L 3047 4666 
L 3047 1625 
L 3713 1625 
L 3713 1100 
L 3047 1100 
L 3047 0 
L 2419 0 
L 2419 1100 
L 313 1100 
L 313 1709 
L 2253 4666 
z
" transform="scale(0.015625)"/>
       </defs>
       <use xlink:href="#DejaVuSans-34"/>
       <use xlink:href="#DejaVuSans-30" x="63.623047"/>
       <use xlink:href="#DejaVuSans-30" x="127.246094"/>
       <use xlink:href="#DejaVuSans-30" x="190.869141"/>
      </g>
     </g>
    </g>
    <g id="xtick_4">
     <g id="line2d_4">
      <g>
       <use xlink:href="#md701581941" x="288.900776" y="289.24" style="stroke: #000000; stroke-width: 0.8"/>
      </g>
     </g>
     <g id="text_4">
      <!-- 6000 -->
      <g transform="translate(271.085776 306.877813) scale(0.14 -0.14)">
       <defs>
        <path id="DejaVuSans-36" d="M 2113 2584 
Q 1688 2584 1439 2293 
Q 1191 2003 1191 1497 
Q 1191 994 1439 701 
Q 1688 409 2113 409 
Q 2538 409 2786 701 
Q 3034 994 3034 1497 
Q 3034 2003 2786 2293 
Q 2538 2584 2113 2584 
z
M 3366 4563 
L 3366 3988 
Q 3128 4100 2886 4159 
Q 2644 4219 2406 4219 
Q 1781 4219 1451 3797 
Q 1122 3375 1075 2522 
Q 1259 2794 1537 2939 
Q 1816 3084 2150 3084 
Q 2853 3084 3261 2657 
Q 3669 2231 3669 1497 
Q 3669 778 3244 343 
Q 2819 -91 2113 -91 
Q 1303 -91 875 529 
Q 447 1150 447 2328 
Q 447 3434 972 4092 
Q 1497 4750 2381 4750 
Q 2619 4750 2861 4703 
Q 3103 4656 3366 4563 
z
" transform="scale(0.015625)"/>
       </defs>
       <use xlink:href="#DejaVuSans-36"/>
       <use xlink:href="#DejaVuSans-30" x="63.623047"/>
       <use xlink:href="#DejaVuSans-30" x="127.246094"/>
       <use xlink:href="#DejaVuSans-30" x="190.869141"/>
      </g>
     </g>
    </g>
    <g id="xtick_5">
     <g id="line2d_5">
      <g>
       <use xlink:href="#md701581941" x="357.749365" y="289.24" style="stroke: #000000; stroke-width: 0.8"/>
      </g>
     </g>
     <g id="text_5">
      <!-- 8000 -->
      <g transform="translate(339.934365 306.877813) scale(0.14 -0.14)">
       <defs>
        <path id="DejaVuSans-38" d="M 2034 2216 
Q 1584 2216 1326 1975 
Q 1069 1734 1069 1313 
Q 1069 891 1326 650 
Q 1584 409 2034 409 
Q 2484 409 2743 651 
Q 3003 894 3003 1313 
Q 3003 1734 2745 1975 
Q 2488 2216 2034 2216 
z
M 1403 2484 
Q 997 2584 770 2862 
Q 544 3141 544 3541 
Q 544 4100 942 4425 
Q 1341 4750 2034 4750 
Q 2731 4750 3128 4425 
Q 3525 4100 3525 3541 
Q 3525 3141 3298 2862 
Q 3072 2584 2669 2484 
Q 3125 2378 3379 2068 
Q 3634 1759 3634 1313 
Q 3634 634 3220 271 
Q 2806 -91 2034 -91 
Q 1263 -91 848 271 
Q 434 634 434 1313 
Q 434 1759 690 2068 
Q 947 2378 1403 2484 
z
M 1172 3481 
Q 1172 3119 1398 2916 
Q 1625 2713 2034 2713 
Q 2441 2713 2670 2916 
Q 2900 3119 2900 3481 
Q 2900 3844 2670 4047 
Q 2441 4250 2034 4250 
Q 1625 4250 1398 4047 
Q 1172 3844 1172 3481 
z
" transform="scale(0.015625)"/>
       </defs>
       <use xlink:href="#DejaVuSans-38"/>
       <use xlink:href="#DejaVuSans-30" x="63.623047"/>
       <use xlink:href="#DejaVuSans-30" x="127.246094"/>
       <use xlink:href="#DejaVuSans-30" x="190.869141"/>
      </g>
     </g>
    </g>
    <g id="xtick_6">
     <g id="line2d_6">
      <g>
       <use xlink:href="#md701581941" x="426.597954" y="289.24" style="stroke: #000000; stroke-width: 0.8"/>
      </g>
     </g>
     <g id="text_6">
      <!-- 10000 -->
      <g transform="translate(404.329204 306.877813) scale(0.14 -0.14)">
       <defs>
        <path id="DejaVuSans-31" d="M 794 531 
L 1825 531 
L 1825 4091 
L 703 3866 
L 703 4441 
L 1819 4666 
L 2450 4666 
L 2450 531 
L 3481 531 
L 3481 0 
L 794 0 
L 794 531 
z
" transform="scale(0.015625)"/>
       </defs>
       <use xlink:href="#DejaVuSans-31"/>
       <use xlink:href="#DejaVuSans-30" x="63.623047"/>
       <use xlink:href="#DejaVuSans-30" x="127.246094"/>
       <use xlink:href="#DejaVuSans-30" x="190.869141"/>
       <use xlink:href="#DejaVuSans-30" x="254.492188"/>
      </g>
     </g>
    </g>
    <g id="text_7">
     <!-- Timesteps -->
     <g transform="translate(199.466496 330.505937) scale(0.22 -0.22)">
      <defs>
       <path id="DejaVuSans-54" d="M -19 4666 
L 3928 4666 
L 3928 4134 
L 2272 4134 
L 2272 0 
L 1638 0 
L 1638 4134 
L -19 4134 
L -19 4666 
z
" transform="scale(0.015625)"/>
       <path id="DejaVuSans-69" d="M 603 3500 
L 1178 3500 
L 1178 0 
L 603 0 
L 603 3500 
z
M 603 4863 
L 1178 4863 
L 1178 4134 
L 603 4134 
L 603 4863 
z
" transform="scale(0.015625)"/>
       <path id="DejaVuSans-6d" d="M 3328 2828 
Q 3544 3216 3844 3400 
Q 4144 3584 4550 3584 
Q 5097 3584 5394 3201 
Q 5691 2819 5691 2113 
L 5691 0 
L 5113 0 
L 5113 2094 
Q 5113 2597 4934 2840 
Q 4756 3084 4391 3084 
Q 3944 3084 3684 2787 
Q 3425 2491 3425 1978 
L 3425 0 
L 2847 0 
L 2847 2094 
Q 2847 2600 2669 2842 
Q 2491 3084 2119 3084 
Q 1678 3084 1418 2786 
Q 1159 2488 1159 1978 
L 1159 0 
L 581 0 
L 581 3500 
L 1159 3500 
L 1159 2956 
Q 1356 3278 1631 3431 
Q 1906 3584 2284 3584 
Q 2666 3584 2933 3390 
Q 3200 3197 3328 2828 
z
" transform="scale(0.015625)"/>
       <path id="DejaVuSans-65" d="M 3597 1894 
L 3597 1613 
L 953 1613 
Q 991 1019 1311 708 
Q 1631 397 2203 397 
Q 2534 397 2845 478 
Q 3156 559 3463 722 
L 3463 178 
Q 3153 47 2828 -22 
Q 2503 -91 2169 -91 
Q 1331 -91 842 396 
Q 353 884 353 1716 
Q 353 2575 817 3079 
Q 1281 3584 2069 3584 
Q 2775 3584 3186 3129 
Q 3597 2675 3597 1894 
z
M 3022 2063 
Q 3016 2534 2758 2815 
Q 2500 3097 2075 3097 
Q 1594 3097 1305 2825 
Q 1016 2553 972 2059 
L 3022 2063 
z
" transform="scale(0.015625)"/>
       <path id="DejaVuSans-73" d="M 2834 3397 
L 2834 2853 
Q 2591 2978 2328 3040 
Q 2066 3103 1784 3103 
Q 1356 3103 1142 2972 
Q 928 2841 928 2578 
Q 928 2378 1081 2264 
Q 1234 2150 1697 2047 
L 1894 2003 
Q 2506 1872 2764 1633 
Q 3022 1394 3022 966 
Q 3022 478 2636 193 
Q 2250 -91 1575 -91 
Q 1294 -91 989 -36 
Q 684 19 347 128 
L 347 722 
Q 666 556 975 473 
Q 1284 391 1588 391 
Q 1994 391 2212 530 
Q 2431 669 2431 922 
Q 2431 1156 2273 1281 
Q 2116 1406 1581 1522 
L 1381 1569 
Q 847 1681 609 1914 
Q 372 2147 372 2553 
Q 372 3047 722 3315 
Q 1072 3584 1716 3584 
Q 2034 3584 2315 3537 
Q 2597 3491 2834 3397 
z
" transform="scale(0.015625)"/>
       <path id="DejaVuSans-74" d="M 1172 4494 
L 1172 3500 
L 2356 3500 
L 2356 3053 
L 1172 3053 
L 1172 1153 
Q 1172 725 1289 603 
Q 1406 481 1766 481 
L 2356 481 
L 2356 0 
L 1766 0 
Q 1100 0 847 248 
Q 594 497 594 1153 
L 594 3053 
L 172 3053 
L 172 3500 
L 594 3500 
L 594 4494 
L 1172 4494 
z
" transform="scale(0.015625)"/>
       <path id="DejaVuSans-70" d="M 1159 525 
L 1159 -1331 
L 581 -1331 
L 581 3500 
L 1159 3500 
L 1159 2969 
Q 1341 3281 1617 3432 
Q 1894 3584 2278 3584 
Q 2916 3584 3314 3078 
Q 3713 2572 3713 1747 
Q 3713 922 3314 415 
Q 2916 -91 2278 -91 
Q 1894 -91 1617 61 
Q 1341 213 1159 525 
z
M 3116 1747 
Q 3116 2381 2855 2742 
Q 2594 3103 2138 3103 
Q 1681 3103 1420 2742 
Q 1159 2381 1159 1747 
Q 1159 1113 1420 752 
Q 1681 391 2138 391 
Q 2594 391 2855 752 
Q 3116 1113 3116 1747 
z
" transform="scale(0.015625)"/>
      </defs>
      <use xlink:href="#DejaVuSans-54"/>
      <use xlink:href="#DejaVuSans-69" x="57.958984"/>
      <use xlink:href="#DejaVuSans-6d" x="85.742188"/>
      <use xlink:href="#DejaVuSans-65" x="183.154297"/>
      <use xlink:href="#DejaVuSans-73" x="244.677734"/>
      <use xlink:href="#DejaVuSans-74" x="296.777344"/>
      <use xlink:href="#DejaVuSans-65" x="335.986328"/>
      <use xlink:href="#DejaVuSans-70" x="397.509766"/>
      <use xlink:href="#DejaVuSans-73" x="460.986328"/>
     </g>
    </g>
   </g>
   <g id="matplotlib.axis_2">
    <g id="ytick_1">
     <g id="line2d_7">
      <defs>
       <path id="m0134ac70d1" d="M 0 0 
L -3.5 0 
" style="stroke: #000000; stroke-width: 0.8"/>
      </defs>
      <g>
       <use xlink:href="#m0134ac70d1" x="65" y="277.74" style="stroke: #000000; stroke-width: 0.8"/>
      </g>
     </g>
     <g id="text_8">
      <!-- 0.0 -->
      <g transform="translate(35.735625 283.058906) scale(0.14 -0.14)">
       <defs>
        <path id="DejaVuSans-2e" d="M 684 794 
L 1344 794 
L 1344 0 
L 684 0 
L 684 794 
z
" transform="scale(0.015625)"/>
       </defs>
       <use xlink:href="#DejaVuSans-30"/>
       <use xlink:href="#DejaVuSans-2e" x="63.623047"/>
       <use xlink:href="#DejaVuSans-30" x="95.410156"/>
      </g>
     </g>
    </g>
    <g id="ytick_2">
     <g id="line2d_8">
      <g>
       <use xlink:href="#m0134ac70d1" x="65" y="242.843847" style="stroke: #000000; stroke-width: 0.8"/>
      </g>
     </g>
     <g id="text_9">
      <!-- 0.1 -->
      <g transform="translate(35.735625 248.162753) scale(0.14 -0.14)">
       <use xlink:href="#DejaVuSans-30"/>
       <use xlink:href="#DejaVuSans-2e" x="63.623047"/>
       <use xlink:href="#DejaVuSans-31" x="95.410156"/>
      </g>
     </g>
    </g>
    <g id="ytick_3">
     <g id="line2d_9">
      <g>
       <use xlink:href="#m0134ac70d1" x="65" y="207.947694" style="stroke: #000000; stroke-width: 0.8"/>
      </g>
     </g>
     <g id="text_10">
      <!-- 0.2 -->
      <g transform="translate(35.735625 213.2666) scale(0.14 -0.14)">
       <use xlink:href="#DejaVuSans-30"/>
       <use xlink:href="#DejaVuSans-2e" x="63.623047"/>
       <use xlink:href="#DejaVuSans-32" x="95.410156"/>
      </g>
     </g>
    </g>
    <g id="ytick_4">
     <g id="line2d_10">
      <g>
       <use xlink:href="#m0134ac70d1" x="65" y="173.051541" style="stroke: #000000; stroke-width: 0.8"/>
      </g>
     </g>
     <g id="text_11">
      <!-- 0.3 -->
      <g transform="translate(35.735625 178.370447) scale(0.14 -0.14)">
       <defs>
        <path id="DejaVuSans-33" d="M 2597 2516 
Q 3050 2419 3304 2112 
Q 3559 1806 3559 1356 
Q 3559 666 3084 287 
Q 2609 -91 1734 -91 
Q 1441 -91 1130 -33 
Q 819 25 488 141 
L 488 750 
Q 750 597 1062 519 
Q 1375 441 1716 441 
Q 2309 441 2620 675 
Q 2931 909 2931 1356 
Q 2931 1769 2642 2001 
Q 2353 2234 1838 2234 
L 1294 2234 
L 1294 2753 
L 1863 2753 
Q 2328 2753 2575 2939 
Q 2822 3125 2822 3475 
Q 2822 3834 2567 4026 
Q 2313 4219 1838 4219 
Q 1578 4219 1281 4162 
Q 984 4106 628 3988 
L 628 4550 
Q 988 4650 1302 4700 
Q 1616 4750 1894 4750 
Q 2613 4750 3031 4423 
Q 3450 4097 3450 3541 
Q 3450 3153 3228 2886 
Q 3006 2619 2597 2516 
z
" transform="scale(0.015625)"/>
       </defs>
       <use xlink:href="#DejaVuSans-30"/>
       <use xlink:href="#DejaVuSans-2e" x="63.623047"/>
       <use xlink:href="#DejaVuSans-33" x="95.410156"/>
      </g>
     </g>
    </g>
    <g id="ytick_5">
     <g id="line2d_11">
      <g>
       <use xlink:href="#m0134ac70d1" x="65" y="138.155387" style="stroke: #000000; stroke-width: 0.8"/>
      </g>
     </g>
     <g id="text_12">
      <!-- 0.4 -->
      <g transform="translate(35.735625 143.474294) scale(0.14 -0.14)">
       <use xlink:href="#DejaVuSans-30"/>
       <use xlink:href="#DejaVuSans-2e" x="63.623047"/>
       <use xlink:href="#DejaVuSans-34" x="95.410156"/>
      </g>
     </g>
    </g>
    <g id="ytick_6">
     <g id="line2d_12">
      <g>
       <use xlink:href="#m0134ac70d1" x="65" y="103.259234" style="stroke: #000000; stroke-width: 0.8"/>
      </g>
     </g>
     <g id="text_13">
      <!-- 0.5 -->
      <g transform="translate(35.735625 108.578141) scale(0.14 -0.14)">
       <defs>
        <path id="DejaVuSans-35" d="M 691 4666 
L 3169 4666 
L 3169 4134 
L 1269 4134 
L 1269 2991 
Q 1406 3038 1543 3061 
Q 1681 3084 1819 3084 
Q 2600 3084 3056 2656 
Q 3513 2228 3513 1497 
Q 3513 744 3044 326 
Q 2575 -91 1722 -91 
Q 1428 -91 1123 -41 
Q 819 9 494 109 
L 494 744 
Q 775 591 1075 516 
Q 1375 441 1709 441 
Q 2250 441 2565 725 
Q 2881 1009 2881 1497 
Q 2881 1984 2565 2268 
Q 2250 2553 1709 2553 
Q 1456 2553 1204 2497 
Q 953 2441 691 2322 
L 691 4666 
z
" transform="scale(0.015625)"/>
       </defs>
       <use xlink:href="#DejaVuSans-30"/>
       <use xlink:href="#DejaVuSans-2e" x="63.623047"/>
       <use xlink:href="#DejaVuSans-35" x="95.410156"/>
      </g>
     </g>
    </g>
    <g id="ytick_7">
     <g id="line2d_13">
      <g>
       <use xlink:href="#m0134ac70d1" x="65" y="68.363081" style="stroke: #000000; stroke-width: 0.8"/>
      </g>
     </g>
     <g id="text_14">
      <!-- 0.6 -->
      <g transform="translate(35.735625 73.681987) scale(0.14 -0.14)">
       <use xlink:href="#DejaVuSans-30"/>
       <use xlink:href="#DejaVuSans-2e" x="63.623047"/>
       <use xlink:href="#DejaVuSans-36" x="95.410156"/>
      </g>
     </g>
    </g>
    <g id="text_15">
     <!-- rad -->
     <g transform="translate(27.160313 180.98625) rotate(-90) scale(0.22 -0.22)">
      <defs>
       <path id="DejaVuSans-72" d="M 2631 2963 
Q 2534 3019 2420 3045 
Q 2306 3072 2169 3072 
Q 1681 3072 1420 2755 
Q 1159 2438 1159 1844 
L 1159 0 
L 581 0 
L 581 3500 
L 1159 3500 
L 1159 2956 
Q 1341 3275 1631 3429 
Q 1922 3584 2338 3584 
Q 2397 3584 2469 3576 
Q 2541 3569 2628 3553 
L 2631 2963 
z
" transform="scale(0.015625)"/>
       <path id="DejaVuSans-61" d="M 2194 1759 
Q 1497 1759 1228 1600 
Q 959 1441 959 1056 
Q 959 750 1161 570 
Q 1363 391 1709 391 
Q 2188 391 2477 730 
Q 2766 1069 2766 1631 
L 2766 1759 
L 2194 1759 
z
M 3341 1997 
L 3341 0 
L 2766 0 
L 2766 531 
Q 2569 213 2275 61 
Q 1981 -91 1556 -91 
Q 1019 -91 701 211 
Q 384 513 384 1019 
Q 384 1609 779 1909 
Q 1175 2209 1959 2209 
L 2766 2209 
L 2766 2266 
Q 2766 2663 2505 2880 
Q 2244 3097 1772 3097 
Q 1472 3097 1187 3025 
Q 903 2953 641 2809 
L 641 3341 
Q 956 3463 1253 3523 
Q 1550 3584 1831 3584 
Q 2591 3584 2966 3190 
Q 3341 2797 3341 1997 
z
" transform="scale(0.015625)"/>
       <path id="DejaVuSans-64" d="M 2906 2969 
L 2906 4863 
L 3481 4863 
L 3481 0 
L 2906 0 
L 2906 525 
Q 2725 213 2448 61 
Q 2172 -91 1784 -91 
Q 1150 -91 751 415 
Q 353 922 353 1747 
Q 353 2572 751 3078 
Q 1150 3584 1784 3584 
Q 2172 3584 2448 3432 
Q 2725 3281 2906 2969 
z
M 947 1747 
Q 947 1113 1208 752 
Q 1469 391 1925 391 
Q 2381 391 2643 752 
Q 2906 1113 2906 1747 
Q 2906 2381 2643 2742 
Q 2381 3103 1925 3103 
Q 1469 3103 1208 2742 
Q 947 2381 947 1747 
z
" transform="scale(0.015625)"/>
      </defs>
      <use xlink:href="#DejaVuSans-72"/>
      <use xlink:href="#DejaVuSans-61" x="41.113281"/>
      <use xlink:href="#DejaVuSans-64" x="102.392578"/>
     </g>
    </g>
   </g>
   <g id="line2d_14">
    <path d="M 82.355008 47.74 
L 82.664827 48.077797 
L 82.699251 48.11598 
L 82.974645 49.222695 
L 83.00907 49.265229 
L 83.215615 50.176432 
L 85.005679 57.602696 
L 85.040103 57.54429 
L 85.453195 59.206414 
L 85.487619 59.228539 
L 85.728589 60.351267 
L 85.831862 60.673266 
L 86.141681 62.088075 
L 86.210529 62.174942 
L 95.367391 98.724112 
L 95.573937 99.499627 
L 95.67721 99.801579 
L 95.987029 101.282818 
L 96.021453 101.330028 
L 96.227999 102.210743 
L 96.468969 103.114001 
L 96.675515 103.916203 
L 96.709939 103.941313 
L 96.916485 104.941767 
L 97.983638 109.216858 
L 98.018062 109.243726 
L 98.259032 110.302969 
L 98.293457 110.338346 
L 98.534427 111.338664 
L 98.568851 111.362534 
L 98.844245 112.594718 
L 98.87867 112.600139 
L 99.11964 113.693803 
L 99.222912 114.06968 
L 100.152368 117.677706 
L 100.255641 118.042396 
L 100.56546 119.396583 
L 100.772006 120.049068 
L 101.081824 121.535818 
L 101.116249 121.559333 
L 101.322794 122.401123 
L 101.667037 123.887041 
L 101.701462 123.909605 
L 101.908007 124.847735 
L 102.114553 125.641305 
L 102.217826 125.944535 
L 102.49322 127.037214 
L 102.527645 127.078412 
L 102.837463 128.47211 
L 102.940736 128.907198 
L 103.147282 129.787998 
L 103.250555 130.082566 
L 103.525949 131.146255 
L 103.939041 132.824035 
L 104.042314 133.227551 
L 104.248859 133.984426 
L 104.283284 134.037678 
L 104.524254 135.152399 
L 104.558678 135.195003 
L 104.799648 136.122069 
L 105.109467 137.507232 
L 105.247164 137.877433 
L 105.45371 138.756772 
L 105.763528 140.120328 
L 105.901226 140.411654 
L 106.107771 141.319694 
L 115.402331 177.56913 
L 115.436755 177.593796 
L 115.746574 178.822179 
L 115.884271 179.266148 
L 116.125241 180.393663 
L 116.228514 180.616065 
L 116.503908 181.742775 
L 117.123546 184.045976 
L 117.295667 184.772175 
L 117.330091 184.824633 
L 117.467789 185.394096 
L 117.502213 185.372949 
L 117.743183 186.546173 
L 117.984153 187.297104 
L 118.190699 188.067594 
L 118.225123 188.138295 
L 118.397245 188.934187 
L 118.500517 189.248887 
L 118.741488 190.347093 
L 118.879185 190.581973 
L 119.08573 191.429376 
L 119.498822 193.158719 
L 119.533246 193.17908 
L 119.980762 195.021538 
L 120.049611 195.079795 
L 120.290581 196.178253 
L 120.462702 196.660949 
L 120.875794 198.278567 
L 120.979067 198.524979 
L 121.185612 199.337653 
L 121.392158 200.208217 
L 121.495431 200.437544 
L 121.667553 201.179183 
L 121.701977 201.226375 
L 121.874098 202.018717 
L 122.080644 202.648212 
L 122.390463 203.962874 
L 122.941251 205.860936 
L 123.147797 206.609267 
L 123.182222 206.653526 
L 123.388767 207.498913 
L 123.801859 209.090541 
L 123.836283 209.101885 
L 125.764044 216.130588 
L 126.108287 217.439326 
L 127.003318 220.567693 
L 127.106591 220.810606 
L 127.278713 221.429894 
L 127.554107 222.320847 
L 127.726228 223.137724 
L 127.829501 223.344174 
L 128.070471 224.195371 
L 128.483563 225.685885 
L 128.586836 225.876348 
L 128.758957 226.597711 
L 129.172049 227.879271 
L 129.34417 228.631059 
L 129.516292 228.976124 
L 129.688413 229.737854 
L 129.722837 229.664449 
L 129.757262 229.702351 
L 129.929383 230.477363 
L 129.963808 230.538946 
L 130.101505 231.113323 
L 130.170353 231.225346 
L 130.342475 231.984364 
L 130.376899 231.907592 
L 130.411323 231.948253 
L 130.583445 232.67358 
L 130.617869 232.711814 
L 130.755566 233.25952 
L 130.824415 233.406582 
L 130.962112 233.931997 
L 131.134234 234.439523 
L 131.340779 235.31035 
L 131.375204 235.276098 
L 131.409628 235.312052 
L 131.616174 236.019993 
L 131.719447 236.253966 
L 131.891568 236.850699 
L 131.925992 236.893498 
L 132.06369 237.508364 
L 132.166962 237.699096 
L 132.407932 238.524211 
L 132.511205 238.796552 
L 132.717751 239.471179 
L 132.752175 239.496194 
L 133.02757 240.40678 
L 133.096418 240.535081 
L 133.50951 241.783826 
L 133.75048 242.46464 
L 133.922601 243.094989 
L 133.957026 243.076554 
L 134.129147 243.505896 
L 134.301269 244.178459 
L 134.47339 244.56384 
L 134.611087 245.046847 
L 134.71436 245.258786 
L 134.95533 246.036087 
L 135.299573 246.875939 
L 135.471695 247.345378 
L 135.643816 247.805565 
L 135.781513 248.230943 
L 138.466608 254.86885 
L 138.501033 254.886617 
L 138.707578 255.438283 
L 139.292791 256.665386 
L 139.36164 256.700327 
L 139.568186 257.259311 
L 139.60261 257.227324 
L 139.637034 257.283674 
L 140.187823 258.382032 
L 140.359945 258.753617 
L 141.186128 260.140045 
L 141.323825 260.420192 
L 141.392673 260.40073 
L 141.461522 260.719725 
L 141.530371 260.64664 
L 141.564795 260.628607 
L 141.702492 261.157887 
L 141.805765 261.072963 
L 141.840189 261.057266 
L 141.977886 261.417516 
L 142.012311 261.377414 
L 142.046735 261.454253 
L 142.184432 261.593676 
L 142.666372 262.284896 
L 142.700797 262.288361 
L 142.872918 262.580161 
L 142.907342 262.531758 
L 142.941767 262.585646 
L 143.079464 262.896976 
L 143.113888 262.803638 
L 143.148312 262.832747 
L 143.217161 263.098613 
L 143.28601 263.036825 
L 143.320434 262.956204 
L 143.354858 263.064062 
L 143.52698 263.398018 
L 143.561404 263.392156 
L 143.733525 263.715817 
L 143.802374 263.571287 
L 143.940071 263.819939 
L 144.077768 263.930996 
L 144.146617 264.182736 
L 144.215466 264.051944 
L 144.353163 264.252707 
L 144.387587 264.234793 
L 144.422011 264.197935 
L 144.456436 264.256522 
L 144.594133 264.522034 
L 144.628557 264.46575 
L 144.800679 264.450636 
L 144.903951 264.533651 
L 145.041649 264.765887 
L 145.076073 264.628629 
L 145.110497 264.702473 
L 145.282619 264.94537 
L 145.317043 264.930925 
L 145.351467 264.791666 
L 145.420316 264.951031 
L 145.489164 265.012378 
L 145.523589 264.904293 
L 145.558013 265.08206 
L 145.69571 265.171282 
L 145.764559 265.065387 
L 145.798983 265.129203 
L 145.833407 265.229881 
L 145.902256 265.192144 
L 145.93668 265.103489 
L 145.971105 265.216584 
L 146.143226 265.271688 
L 146.17765 265.199639 
L 146.212075 265.238594 
L 146.349772 265.478031 
L 146.384196 265.263631 
L 146.453045 265.324818 
L 146.694015 265.493675 
L 146.797288 265.321727 
L 147.003833 265.70315 
L 147.072682 265.47366 
L 147.107106 265.620185 
L 147.279228 265.65853 
L 147.348076 265.743855 
L 147.382501 265.572308 
L 147.451349 265.610702 
L 147.485773 265.622942 
L 147.554622 265.939209 
L 147.589046 265.906909 
L 147.692319 265.74211 
L 147.726744 265.791804 
L 147.864441 265.838041 
L 147.933289 265.702732 
L 147.967714 265.836276 
L 148.070987 265.725145 
L 148.174259 265.609357 
L 148.243108 265.815234 
L 148.311957 265.73433 
L 148.346381 265.56222 
L 148.415229 265.687954 
L 148.449654 265.654178 
L 148.484078 265.760805 
L 148.518502 265.838385 
L 148.621775 265.500599 
L 148.6562 265.617524 
L 148.828321 265.748951 
L 148.89717 265.576234 
L 148.966018 265.831976 
L 149.000442 265.635036 
L 149.034867 265.64862 
L 149.069291 265.520281 
L 149.13814 265.610152 
L 149.62008 265.502925 
L 149.688928 265.574276 
L 149.723353 265.463935 
L 149.86105 265.295558 
L 149.895474 265.334122 
L 149.964323 265.473246 
L 150.033171 265.386252 
L 150.136444 265.414504 
L 150.205293 265.455537 
L 150.239717 265.15518 
L 150.308566 265.203947 
L 150.34299 265.295499 
L 150.411839 265.246372 
L 150.58396 264.963339 
L 150.652809 265.147242 
L 150.790506 265.121003 
L 150.962627 264.965216 
L 151.0659 264.954984 
L 151.134749 265.069152 
L 151.169173 264.93438 
L 151.203597 264.967686 
L 151.238022 264.870954 
L 151.582265 264.78937 
L 151.754386 264.633114 
L 151.960932 264.602586 
L 151.995356 264.452193 
L 152.098629 264.475943 
L 152.133053 264.593259 
L 152.167478 264.487588 
L 152.305175 264.286683 
L 152.339599 264.447216 
L 152.374023 264.400432 
L 152.477296 264.160089 
L 152.511721 264.212022 
L 152.649418 264.134905 
L 152.855963 263.892529 
L 153.028085 264.052244 
L 153.131358 263.75343 
L 153.165782 263.807835 
L 153.234631 263.808013 
L 153.372328 263.576552 
L 153.406752 263.546504 
L 153.441176 263.609346 
L 153.475601 263.650652 
L 153.578874 263.353196 
L 153.613298 263.402982 
L 153.716571 263.257768 
L 153.750995 263.50333 
L 153.819844 263.235163 
L 153.888692 263.417178 
L 153.957541 263.32757 
L 154.095238 263.164932 
L 154.129662 263.360113 
L 154.198511 263.294349 
L 154.301784 262.958435 
L 154.336208 263.02103 
L 154.370632 262.892891 
L 154.405057 263.064715 
L 154.473905 262.935283 
L 154.680451 262.689214 
L 154.714875 262.772511 
L 154.783724 262.720972 
L 155.093543 262.421926 
L 155.127967 262.505046 
L 155.162391 262.357248 
L 155.196815 262.378772 
L 155.368937 262.153075 
L 155.541058 261.940865 
L 155.575483 262.008452 
L 155.747604 261.636153 
L 155.850877 261.692029 
L 156.057423 261.392149 
L 156.160696 261.435991 
L 156.229544 261.177537 
L 156.298393 261.231262 
L 156.573787 260.935356 
L 156.91803 260.572493 
L 156.952455 260.640088 
L 156.986879 260.522253 
L 157.021303 260.574654 
L 157.193425 260.221418 
L 157.331122 260.270987 
L 157.503243 260.083555 
L 157.537668 260.150046 
L 157.572092 259.977994 
L 157.606516 260.026349 
L 157.744213 259.81384 
L 159.258882 258.271263 
L 159.431004 258.045988 
L 159.465428 258.106422 
L 159.499852 258.008819 
L 159.603125 257.866824 
L 160.222762 257.340789 
L 160.257187 257.403372 
L 160.326035 257.187188 
L 160.394884 257.243572 
L 160.429308 257.277346 
L 160.60143 256.893247 
L 160.635854 256.961446 
L 160.670278 256.830956 
L 161.117794 256.419789 
L 161.358764 256.31682 
L 161.56531 255.957085 
L 162.253796 255.52037 
L 162.391493 255.308772 
L 162.460342 255.398769 
L 162.52919 255.332582 
L 162.666887 255.105102 
L 162.701312 255.140882 
L 162.77016 255.06784 
L 163.079979 254.830959 
L 163.114403 254.910506 
L 163.148828 254.797157 
L 163.183252 254.822432 
L 163.217676 254.82331 
L 163.320949 254.620773 
L 163.355373 254.662323 
L 163.527495 254.484519 
L 163.561919 254.543073 
L 163.596343 254.401351 
L 163.630768 254.427583 
L 163.665192 254.288393 
L 163.768465 254.321145 
L 163.906162 254.192924 
L 164.009435 254.14859 
L 164.181556 254.007519 
L 164.215981 254.045502 
L 164.353678 253.860034 
L 164.629072 253.67754 
L 164.766769 253.530765 
L 164.870042 253.687475 
L 165.042164 253.383477 
L 165.386407 253.306966 
L 165.48968 253.177167 
L 165.524104 253.20936 
L 165.696225 253.22604 
L 165.868347 253.047129 
L 166.522408 252.889205 
L 166.969924 252.784046 
L 167.314167 252.611504 
L 167.348591 252.671101 
L 167.692834 252.662548 
L 167.727259 252.535752 
L 167.796107 252.617723 
L 168.519017 252.358796 
L 168.828836 252.346627 
L 169.104231 252.209043 
L 169.138655 252.275411 
L 169.207503 252.230105 
L 169.930414 252.083753 
L 170.033686 252.081332 
L 170.136959 252.104829 
L 170.309081 252.059877 
L 170.584475 252.077249 
L 170.687748 252.10935 
L 170.791021 252.033869 
L 170.825445 252.059412 
L 172.167993 252.218711 
L 172.202417 252.239431 
L 172.340114 252.132414 
L 172.649933 252.150499 
L 172.78763 252.082469 
L 172.925327 252.185009 
L 173.0286 252.229916 
L 173.131873 252.08074 
L 173.200722 252.1526 
L 173.476116 252.207179 
L 173.613813 252.196235 
L 173.75151 252.161443 
L 173.889207 252.097921 
L 174.026905 252.170923 
L 174.199026 252.09469 
L 174.302299 252.158618 
L 174.336723 252.13909 
L 174.439996 252.121019 
L 174.612118 252.133284 
L 174.853088 252.199688 
L 174.956361 252.259071 
L 174.990785 252.216761 
L 175.197331 252.224029 
L 175.369452 252.331324 
L 175.541574 252.265394 
L 175.713695 252.236536 
L 175.885817 252.259776 
L 175.920241 252.057742 
L 176.023514 252.106792 
L 176.126787 252.17574 
L 176.161211 252.096092 
L 176.367757 252.144365 
L 176.746424 252.107401 
L 176.918545 252.052753 
L 176.95297 252.120935 
L 177.021818 252.079674 
L 177.125091 252.084931 
L 177.297213 252.117454 
L 177.572607 252.109132 
L 177.744728 252.173569 
L 177.882426 252.198749 
L 178.088971 252.257008 
L 178.15782 252.227959 
L 178.192244 252.277974 
L 178.364366 252.306036 
L 178.39879 252.234903 
L 178.433214 252.272202 
L 178.570912 252.367387 
L 179.087276 252.266981 
L 179.259397 252.323507 
L 179.397095 252.288327 
L 179.534792 252.375486 
L 179.569216 252.257223 
L 179.638065 252.301456 
L 179.775762 252.320339 
L 179.982308 252.329878 
L 180.154429 252.267703 
L 180.326551 252.32906 
L 180.360975 252.27849 
L 180.395399 252.311087 
L 180.533096 252.394795 
L 180.636369 252.288837 
L 180.739642 252.399974 
L 180.808491 251.778394 
L 180.842915 252.183418 
L 181.015036 252.33602 
L 181.049461 252.22039 
L 181.083885 252.348781 
L 181.187158 252.44962 
L 181.221582 252.364224 
L 181.256006 252.310317 
L 181.290431 252.363197 
L 181.393704 252.463964 
L 181.428128 251.957826 
L 181.496977 252.481236 
L 181.634674 251.762247 
L 181.669098 251.794219 
L 181.703522 252.441364 
L 181.806795 252.318092 
L 181.84122 252.200727 
L 181.910068 252.234562 
L 182.013341 252.297355 
L 182.151038 252.254841 
L 182.529705 252.291336 
L 182.667403 252.35626 
L 182.701827 252.259632 
L 182.770675 252.386972 
L 182.908373 252.274317 
L 182.942797 252.333197 
L 182.977221 252.31016 
L 183.114918 252.179293 
L 183.183767 252.247386 
L 183.218191 252.230859 
L 183.424737 252.206903 
L 183.596859 252.275474 
L 183.734556 252.33671 
L 183.872253 252.346843 
L 184.044374 252.35316 
L 184.904982 252.241806 
L 185.008255 252.314431 
L 185.042679 252.296142 
L 185.352498 252.378195 
L 185.386922 252.274363 
L 185.45577 252.322475 
L 185.559043 252.327235 
L 185.662316 252.233339 
L 185.69674 252.262599 
L 186.178681 252.166596 
L 186.350802 252.227429 
L 186.419651 252.283643 
L 186.488499 252.202816 
L 186.626196 252.197269 
L 186.763894 252.133338 
L 186.901591 252.214974 
L 186.936015 252.134582 
L 186.970439 252.104269 
L 187.004864 252.154524 
L 187.108137 252.2362 
L 187.176985 252.166662 
L 187.211409 252.215566 
L 187.417955 252.198819 
L 187.555652 252.10566 
L 187.590077 252.139342 
L 188.553957 252.218734 
L 188.760503 252.22577 
L 189.345716 252.030456 
L 189.448989 252.096596 
L 189.483413 252.05196 
L 189.655534 252.04492 
L 190.412869 251.850315 
L 190.447293 252.015272 
L 190.550566 251.967581 
L 191.101355 251.917627 
L 191.239052 251.950005 
L 191.376749 251.873105 
L 191.514446 252.001279 
L 191.686568 251.971383 
L 191.858689 251.994241 
L 191.927538 251.777956 
L 191.996386 251.885964 
L 192.030811 251.938857 
L 192.099659 251.864294 
L 192.512751 251.824475 
L 192.581599 251.705039 
L 192.650448 251.769531 
L 192.925842 251.881643 
L 194.337238 251.575079 
L 194.50936 251.781066 
L 194.75033 251.780271 
L 194.819179 251.859717 
L 194.853603 251.796443 
L 195.163422 251.827403 
L 195.301119 251.775928 
L 195.335543 251.791082 
L 195.369967 251.642753 
L 195.438816 251.715128 
L 195.542089 251.749309 
L 195.645362 251.698703 
L 195.783059 251.791083 
L 195.920756 251.736213 
L 196.092877 251.817618 
L 196.67809 251.708256 
L 196.712515 251.435679 
L 196.781363 251.590344 
L 196.815788 251.649966 
L 196.884636 251.405679 
L 196.919061 251.431831 
L 197.022333 251.726532 
L 197.056758 251.680613 
L 197.125606 251.709983 
L 197.160031 251.478093 
L 197.194455 251.5878 
L 197.228879 251.852334 
L 197.332152 251.804181 
L 197.469849 251.720756 
L 197.607546 251.792848 
L 197.641971 251.460269 
L 197.710819 251.822646 
L 197.917365 251.514506 
L 198.020638 251.716751 
L 198.055062 251.697357 
L 198.296032 251.75733 
L 198.468154 251.636729 
L 198.502578 251.753193 
L 198.571427 251.645728 
L 199.294337 251.755473 
L 199.328761 251.526614 
L 199.39761 251.808075 
L 199.535307 251.589788 
L 199.673004 251.659784 
L 199.707428 251.599454 
L 199.776277 251.696864 
L 199.913974 251.713257 
L 200.12052 251.741173 
L 200.189369 251.707976 
L 200.223793 251.653973 
L 200.258217 251.767331 
L 200.292641 251.70159 
L 200.395914 251.767805 
L 200.430339 251.713645 
L 200.533611 251.713186 
L 200.60246 251.688301 
L 200.671309 252.008381 
L 200.705733 251.923835 
L 200.740157 251.970601 
L 200.774582 252.054546 
L 200.809006 251.808944 
L 200.877854 251.947261 
L 200.946703 251.91229 
L 200.981127 252.072608 
L 201.049976 251.972941 
L 201.222097 251.803526 
L 201.256522 251.985063 
L 201.290946 251.787977 
L 201.32537 251.795883 
L 201.600765 251.731084 
L 201.738462 251.813889 
L 201.80731 251.718617 
L 201.841735 251.797182 
L 202.254826 251.853019 
L 202.358099 251.770922 
L 202.392523 251.805161 
L 202.564645 251.832627 
L 202.667918 251.80965 
L 202.771191 251.832751 
L 202.840039 251.77687 
L 202.874464 251.865516 
L 203.012161 251.772502 
L 203.046585 251.846832 
L 203.081009 251.892422 
L 203.115434 251.819623 
L 203.149858 251.713754 
L 203.218706 251.752425 
L 203.769495 251.944948 
L 203.803919 251.792342 
L 203.872768 251.849923 
L 204.320284 251.816326 
L 204.389132 251.700759 
L 204.457981 251.75404 
L 204.595678 251.690922 
L 204.664527 251.845663 
L 204.733375 251.799577 
L 204.905497 251.853208 
L 204.939921 251.936619 
L 205.00877 251.86408 
L 205.525134 252.016322 
L 205.697256 251.932997 
L 205.800529 252.069701 
L 205.834953 252.027477 
L 205.97265 251.888994 
L 206.007074 251.960295 
L 206.075923 251.876985 
L 206.351317 251.973396 
L 207.41847 252.087371 
L 207.521743 251.979164 
L 207.556168 252.107327 
L 207.625016 252.001608 
L 207.900411 252.086203 
L 207.969259 252.06235 
L 208.038108 252.140219 
L 208.072532 252.117826 
L 208.175805 252.145156 
L 208.210229 252.225785 
L 208.279078 252.169493 
L 208.313502 252.108225 
L 208.347926 252.267645 
L 208.382351 252.169981 
L 208.416775 252.227758 
L 208.485624 252.16484 
L 208.623321 252.130414 
L 208.864291 252.184029 
L 209.139685 252.14275 
L 209.346231 252.208288 
L 209.759322 252.247898 
L 209.793747 252.201709 
L 209.862595 252.276986 
L 210.034717 252.294211 
L 210.103565 252.377667 
L 210.241263 252.368668 
L 210.516657 252.134143 
L 210.551081 252.249502 
L 210.826476 252.291066 
L 211.170718 252.307316 
L 211.308416 252.432512 
L 211.411689 252.335215 
L 211.446113 252.372306 
L 211.859204 252.509315 
L 211.962477 252.518729 
L 212.272296 252.555193 
L 212.409993 252.478876 
L 212.54769 252.509118 
L 212.650963 252.522665 
L 212.754236 252.522518 
L 212.78866 252.453105 
L 212.857509 252.519058 
L 213.132903 252.446111 
L 213.2706 252.530905 
L 213.373873 252.489709 
L 213.511571 252.556999 
L 213.855813 252.448263 
L 213.959086 252.51874 
L 213.993511 252.49917 
L 214.096784 252.546937 
L 214.441026 252.637446 
L 214.475451 252.738323 
L 214.544299 252.643889 
L 214.647572 252.637807 
L 214.681997 252.605657 
L 214.716421 252.682571 
L 214.750845 252.738563 
L 214.785269 252.654128 
L 214.922967 252.651914 
L 215.404907 252.648977 
L 215.473755 252.764183 
L 215.50818 252.714457 
L 215.611453 252.695283 
L 215.645877 252.858068 
L 215.714725 252.788867 
L 215.921271 252.667714 
L 215.955695 252.775476 
L 216.024544 252.71829 
L 216.093393 252.693014 
L 216.265514 252.613793 
L 216.644181 252.766771 
L 216.747454 252.658516 
L 216.781879 252.695774 
L 217.126121 252.642938 
L 217.229394 252.629036 
L 217.298243 252.547704 
L 217.332667 252.674029 
L 217.401516 252.552709 
L 217.504789 252.52397 
L 217.608062 252.571002 
L 217.780183 252.523749 
L 217.91788 252.623226 
L 217.986729 252.503786 
L 218.021153 252.559853 
L 218.055577 252.691337 
L 218.124426 252.569779 
L 218.296547 252.535144 
L 218.330972 252.657262 
L 218.39982 252.571455 
L 218.503093 252.532675 
L 218.537518 252.640132 
L 218.571942 252.499963 
L 218.606366 252.556016 
L 218.709639 252.563644 
L 218.744063 252.591722 
L 218.778488 252.476032 
L 218.847336 252.527391 
L 219.811216 252.415974 
L 219.880065 252.318194 
L 219.948914 252.382656 
L 219.983338 252.442062 
L 220.017762 252.380734 
L 220.086611 252.34138 
L 220.189884 252.444872 
L 220.224308 252.368704 
L 220.293157 252.410302 
L 220.327581 252.427147 
L 220.430854 252.294981 
L 220.534127 252.44015 
L 220.6374 252.287521 
L 220.706248 252.324723 
L 220.947218 252.297679 
L 220.981642 252.401162 
L 221.016067 252.284896 
L 221.153764 252.25862 
L 221.325885 252.26793 
L 221.36031 252.134773 
L 221.429158 252.180758 
L 221.463583 252.249426 
L 221.532431 252.194204 
L 221.566855 252.113865 
L 221.635704 252.189246 
L 221.670128 252.220617 
L 221.704553 252.160097 
L 221.773401 252.016983 
L 221.807826 252.123961 
L 221.84225 252.210384 
L 221.911098 252.090207 
L 222.014371 252.0995 
L 222.117644 252.190686 
L 222.152068 252.169545 
L 222.289766 252.178783 
L 222.32419 252.241287 
L 222.393039 252.199621 
L 222.530736 252.230993 
L 222.634009 252.475027 
L 222.599584 252.188114 
L 222.668433 252.439132 
L 222.702857 252.493863 
L 222.840554 252.189953 
L 223.115949 252.010075 
L 223.219222 252.071646 
L 223.253646 251.991598 
L 223.356919 252.040617 
L 223.460192 251.98654 
L 223.494616 252.269894 
L 223.52904 251.944807 
L 223.597889 252.292999 
L 223.77001 252.260669 
L 223.804435 251.926459 
L 223.873283 252.259915 
L 223.907707 252.317216 
L 223.976556 251.911944 
L 224.045405 251.958674 
L 224.217526 251.969737 
L 224.389648 251.89336 
L 224.424072 251.938471 
L 224.492921 251.845583 
L 224.527345 251.819727 
L 224.561769 252.174875 
L 224.665042 252.159826 
L 224.837163 252.095868 
L 225.009285 252.062536 
L 225.250255 251.90614 
L 225.284679 251.96109 
L 225.353528 251.879701 
L 225.456801 251.860256 
L 225.491225 251.953167 
L 225.560074 251.871225 
L 225.732195 251.815269 
L 225.835468 251.766153 
L 225.869892 250.837237 
L 225.938741 251.744746 
L 226.042014 251.717028 
L 226.076438 251.408856 
L 226.145287 251.732229 
L 226.179711 251.763612 
L 226.214135 251.650433 
L 226.282984 251.679018 
L 226.351832 251.382568 
L 226.420681 251.360176 
L 226.455105 251.662482 
L 226.48953 251.349578 
L 226.558378 251.605934 
L 226.833773 251.511335 
L 226.97147 251.106783 
L 227.143591 251.131448 
L 227.866501 250.878149 
L 227.93535 250.798096 
L 227.969774 250.885889 
L 228.073047 250.867724 
L 228.107471 251.084359 
L 228.141896 250.779765 
L 228.210744 250.835276 
L 228.245169 251.056577 
L 228.279593 250.7818 
L 228.451714 250.731083 
L 228.727109 250.641667 
L 229.1402 250.360859 
L 229.174625 250.725932 
L 229.243473 250.523627 
L 229.656565 250.305335 
L 229.759838 250.497129 
L 229.794262 250.414234 
L 230.207353 250.17259 
L 230.241778 250.29732 
L 230.310626 250.182202 
L 230.448323 250.111631 
L 230.586021 249.831876 
L 230.620445 249.86107 
L 230.654869 249.780303 
L 230.895839 249.624843 
L 230.930264 249.697944 
L 230.964688 249.862691 
L 231.033536 249.818649 
L 231.274507 249.673877 
L 231.412204 249.630624 
L 231.687598 249.583404 
L 231.722022 249.244107 
L 231.825295 249.325903 
L 231.894144 249.247225 
L 231.962992 249.278774 
L 232.272811 249.446309 
L 232.58263 249.228053 
L 232.685903 249.299046 
L 232.8236 249.205597 
L 232.858024 249.266199 
L 232.926873 249.199315 
L 232.961297 249.172078 
L 233.133418 248.735455 
L 233.167843 248.963729 
L 233.202267 248.667506 
L 233.236691 248.549783 
L 233.30554 248.609006 
L 233.374389 248.61709 
L 233.443237 248.424073 
L 233.54651 248.71723 
L 233.580934 248.68676 
L 233.718631 248.60883 
L 233.856329 248.611155 
L 234.02845 248.433243 
L 234.062874 248.540699 
L 234.131723 248.423827 
L 234.51039 247.993092 
L 234.579239 247.965263 
L 234.682512 247.834838 
L 234.716936 247.851112 
L 234.75136 247.872423 
L 234.785785 247.815661 
L 234.820209 247.727768 
L 234.923482 247.984365 
L 234.957906 247.943039 
L 235.130028 247.638229 
L 235.164452 247.795163 
L 235.198876 247.607574 
L 235.2333 247.677002 
L 235.47427 247.483961 
L 235.646392 247.460325 
L 235.680816 247.366067 
L 235.749665 247.459912 
L 236.059483 247.551825 
L 236.300454 247.540977 
L 236.438151 247.393944 
L 236.472575 247.415186 
L 236.506999 247.422944 
L 236.644697 247.310368 
L 236.747969 247.186508 
L 236.782394 247.230056 
L 236.885667 246.87968 
L 236.920091 247.153968 
L 236.988939 246.915753 
L 237.023364 247.077049 
L 237.092212 247.012963 
L 237.298758 246.937429 
L 237.746274 246.629875 
L 237.918395 246.561406 
L 237.95282 246.556528 
L 238.090517 246.239274 
L 238.400336 246.092748 
L 238.67573 245.981556 
L 238.710154 245.912793 
L 238.847851 246.146126 
L 239.192094 246.031509 
L 239.329791 245.751098 
L 239.570762 245.655356 
L 239.915004 245.447979 
L 239.949429 245.649481 
L 240.052702 245.600703 
L 240.706763 245.215687 
L 240.84446 244.958706 
L 240.913309 244.978883 
L 240.947733 244.941145 
L 241.085431 244.860301 
L 241.119855 244.886452 
L 241.188703 245.097165 
L 241.223128 245.049051 
L 241.567371 244.85183 
L 241.601795 244.910344 
L 241.636219 244.792685 
L 241.705068 244.644766 
L 241.773916 244.688117 
L 241.877189 244.625713 
L 241.911614 244.338677 
L 242.014886 244.356698 
L 242.152584 244.294226 
L 242.634524 244.004101 
L 242.668948 244.246611 
L 242.737797 244.203309 
L 242.909918 244.035224 
L 243.288585 243.804852 
L 243.32301 243.884441 
L 243.460707 243.517603 
L 243.495131 243.568018 
L 243.529555 243.472299 
L 243.770525 243.316522 
L 243.80495 243.24594 
L 243.873798 243.500625 
L 243.908223 243.420198 
L 244.183617 243.308026 
L 244.734406 243.012258 
L 244.837679 242.752847 
L 244.872103 242.75783 
L 244.975376 242.704923 
L 245.078649 242.887494 
L 245.113073 242.879472 
L 245.319619 242.744988 
L 245.457316 242.74938 
L 245.595013 242.636923 
L 246.558893 241.748196 
L 246.627742 241.763833 
L 246.662166 241.94417 
L 246.765439 241.89527 
L 247.453925 241.203101 
L 247.867017 240.994579 
L 248.004714 240.879797 
L 248.280108 240.994362 
L 248.6932 240.866965 
L 248.865321 240.849178 
L 249.003018 240.451954 
L 249.037443 240.48331 
L 249.140715 240.429536 
L 249.17514 240.354401 
L 249.209564 240.779401 
L 249.278413 240.487663 
L 249.519383 240.334693 
L 249.622656 240.305919 
L 249.65708 240.183516 
L 249.725928 240.255843 
L 249.932474 240.110801 
L 250.104596 239.963115 
L 250.173444 239.897454 
L 250.311141 239.586653 
L 250.483263 239.912329 
L 250.552112 239.673752 
L 250.689809 239.546396 
L 250.724233 239.797682 
L 250.793082 239.490329 
L 250.86193 239.380647 
L 250.896354 239.459463 
L 250.930779 239.650929 
L 250.965203 239.399453 
L 251.447143 239.150039 
L 251.58484 238.874113 
L 251.653689 238.84252 
L 251.722538 238.719281 
L 251.791386 238.752771 
L 251.82581 238.720349 
L 251.860235 238.834348 
L 252.307751 238.702657 
L 252.342175 238.763168 
L 252.411023 238.706378 
L 252.548721 238.654345 
L 252.583145 238.834802 
L 252.720842 238.300918 
L 253.168358 238.009249 
L 253.271631 238.232974 
L 253.443752 238.036402 
L 253.547025 238.046181 
L 253.787995 237.888753 
L 253.925692 238.138783 
L 253.994541 238.07255 
L 254.06339 238.081776 
L 254.132238 237.582071 
L 254.201087 238.05893 
L 254.269935 237.952081 
L 254.30436 237.957431 
L 254.338784 237.433901 
L 254.407633 237.9069 
L 254.442057 237.855432 
L 254.510905 237.879262 
L 254.54533 237.330199 
L 254.579754 237.852531 
L 254.614178 237.31486 
L 254.683027 237.783837 
L 254.820724 237.37045 
L 254.889573 237.615591 
L 254.923997 237.367938 
L 255.233816 237.146621 
L 255.26824 237.186646 
L 255.302664 237.102954 
L 255.646907 236.773459 
L 255.887877 236.961862 
L 255.922301 237.119617 
L 255.99115 237.00384 
L 256.025574 236.951963 
L 256.059999 237.062194 
L 256.197696 236.98924 
L 256.369817 236.61175 
L 256.404242 236.627932 
L 256.438666 236.835952 
L 256.47309 236.789422 
L 256.541939 236.531674 
L 256.610787 236.560077 
L 256.817333 236.391484 
L 256.851757 236.358867 
L 256.886182 236.518691 
L 256.95503 236.353536 
L 257.058303 236.327383 
L 257.092727 236.284575 
L 257.127152 236.47101 
L 257.196 236.430618 
L 257.368122 236.322466 
L 257.471395 236.345608 
L 257.609092 236.206509 
L 257.746789 236.244494 
L 257.850062 236.121889 
L 258.022183 235.985532 
L 258.228729 235.900426 
L 258.263154 235.871283 
L 258.400851 235.277692 
L 258.538548 235.313926 
L 258.710669 235.177538 
L 258.779518 235.118356 
L 258.848367 235.407889 
L 258.951639 235.29044 
L 258.986064 235.347312 
L 259.054912 235.298429 
L 259.295882 235.058783 
L 259.364731 235.243456 
L 259.399155 235.065251 
L 259.468004 234.949192 
L 259.502428 235.079677 
L 259.605701 235.163555 
L 259.640125 235.107701 
L 259.743398 235.139834 
L 259.91552 234.860004 
L 260.190914 234.905348 
L 260.500733 234.715665 
L 260.604006 234.76343 
L 260.810551 234.531377 
L 260.982673 234.421625 
L 261.017097 234.341423 
L 261.085946 234.436297 
L 261.189219 234.306989 
L 261.326916 234.266478 
L 261.36134 233.967549 
L 261.430189 234.171373 
L 261.774432 233.971902 
L 261.808856 234.076093 
L 261.877704 234.020252 
L 261.980977 233.913757 
L 262.015402 233.981608 
L 262.221947 233.780084 
L 262.256372 233.810003 
L 262.32522 233.778856 
L 262.497342 233.490783 
L 262.56619 233.633061 
L 262.600615 233.5264 
L 262.772736 233.38193 
L 262.80716 233.435926 
L 262.841585 233.340968 
L 262.944858 233.276904 
L 262.979282 233.529745 
L 263.04813 233.438542 
L 263.254676 233.340531 
L 263.289101 233.587325 
L 263.357949 233.478384 
L 263.564495 233.398679 
L 263.771041 233.28171 
L 263.805465 233.398905 
L 263.874314 233.303741 
L 263.977586 232.999107 
L 264.012011 233.027892 
L 264.184132 232.856976 
L 264.218556 232.885748 
L 264.356254 232.719709 
L 264.700497 232.643093 
L 264.734921 232.34394 
L 264.803769 232.541724 
L 265.010315 232.256168 
L 265.04474 232.456803 
L 265.148012 232.423183 
L 265.251285 232.525694 
L 265.28571 232.480356 
L 265.52668 232.339806 
L 265.561104 232.383817 
L 265.629953 232.31577 
L 265.76765 232.271708 
L 265.836498 232.166477 
L 265.870923 232.183231 
L 265.905347 232.230043 
L 265.974195 232.155458 
L 266.043044 232.180951 
L 266.111893 231.933666 
L 266.146317 231.872525 
L 266.180741 231.910977 
L 266.215166 232.001357 
L 266.24959 231.87209 
L 266.318438 231.795995 
L 266.352863 231.983901 
L 266.387287 231.970185 
L 266.421711 231.716152 
L 266.49056 231.829325 
L 266.559409 231.660119 
L 266.628257 231.798344 
L 266.662681 231.817469 
L 266.697106 231.545753 
L 266.765954 231.750881 
L 266.903651 231.645795 
L 266.9725 231.685876 
L 267.110197 231.400346 
L 267.144622 231.573499 
L 267.247894 231.534975 
L 267.385592 231.421892 
L 267.867532 231.263087 
L 268.005229 231.21329 
L 268.074077 231.112151 
L 268.108502 230.95389 
L 268.142926 231.1755 
L 268.17735 231.086481 
L 268.211775 231.12334 
L 268.349472 230.677189 
L 268.383896 230.783885 
L 268.487169 230.989491 
L 268.521593 230.787318 
L 268.590442 230.912926 
L 268.624866 230.99764 
L 268.65929 230.734631 
L 268.762563 230.799459 
L 268.831412 230.872767 
L 268.900261 230.839968 
L 268.934685 230.89058 
L 269.072382 230.562772 
L 269.210079 230.803911 
L 269.278928 230.656913 
L 269.347776 230.725691 
L 269.519898 230.524878 
L 269.554322 230.631516 
L 269.623171 230.60315 
L 269.795292 230.377951 
L 269.829716 230.41171 
L 269.864141 230.491124 
L 269.932989 230.426404 
L 269.967414 230.434194 
L 270.070687 230.257726 
L 270.105111 230.441629 
L 270.173959 230.362663 
L 270.277232 230.43036 
L 270.311657 230.360162 
L 270.449354 230.252813 
L 270.552627 230.25369 
L 270.6559 230.133729 
L 270.724748 230.227377 
L 270.759172 230.16326 
L 271.172264 229.96061 
L 271.206688 230.026458 
L 271.275537 229.963089 
L 271.447658 229.834097 
L 271.585356 229.8496 
L 271.791901 229.725378 
L 271.826326 229.45898 
L 271.929598 229.526425 
L 272.10172 229.396256 
L 272.136144 229.631158 
L 272.204993 229.395058 
L 272.273841 229.563407 
L 272.34269 229.460661 
L 272.686933 229.384315 
L 272.82463 229.356343 
L 273.237722 229.194153 
L 273.30657 229.003789 
L 273.340995 229.153796 
L 273.375419 229.162826 
L 273.409843 228.94694 
L 273.444267 229.152209 
L 273.478692 229.239824 
L 273.513116 229.122187 
L 273.754086 229.071298 
L 274.545845 228.899363 
L 274.580269 228.80603 
L 274.649118 228.86641 
L 274.717966 228.873368 
L 274.821239 228.748348 
L 274.855664 228.774958 
L 275.165482 228.60617 
L 275.199906 228.694216 
L 275.268755 228.592022 
L 275.372028 228.569135 
L 275.509725 228.362602 
L 275.544149 228.4084 
L 275.578574 228.29258 
L 275.750695 228.167551 
L 275.819544 228.127621 
L 275.922817 228.318732 
L 275.957241 228.192594 
L 276.02609 228.234212 
L 276.060514 228.275348 
L 276.129362 228.197765 
L 276.26706 228.186514 
L 276.404757 228.095503 
L 276.50803 228.056743 
L 276.852273 227.900501 
L 276.98997 227.699242 
L 277.127667 227.832884 
L 277.334213 227.656495 
L 277.368637 227.703859 
L 277.95385 227.528186 
L 278.091547 227.601514 
L 278.229244 227.500821 
L 280.329126 226.577796 
L 280.363551 226.656261 
L 280.432399 226.56929 
L 280.535672 226.584381 
L 280.570096 226.601426 
L 280.604521 226.482615 
L 280.673369 226.530137 
L 281.258582 226.362132 
L 281.465128 226.24153 
L 281.499552 226.306405 
L 281.568401 226.210678 
L 281.706098 226.177269 
L 282.050341 226.033374 
L 282.084765 226.081197 
L 282.153614 226.025313 
L 282.669978 225.947804 
L 282.704403 225.869421 
L 282.738827 225.992055 
L 282.773251 225.921295 
L 282.945373 225.924784 
L 283.08307 225.742078 
L 283.117494 225.741315 
L 283.186343 225.683636 
L 283.220767 225.859371 
L 283.392889 225.679138 
L 283.496161 225.803336 
L 283.599434 225.649383 
L 283.633859 225.734668 
L 283.909253 225.546087 
L 284.012526 225.550041 
L 284.184647 225.374463 
L 284.219072 225.426079 
L 284.253496 225.268169 
L 284.322345 225.351389 
L 285.492771 224.772477 
L 285.561619 224.982965 
L 285.630468 224.930419 
L 285.733741 224.78814 
L 285.768165 224.818618 
L 286.146832 224.66773 
L 286.215681 224.723103 
L 286.250105 224.67665 
L 286.353378 224.600914 
L 286.422226 224.659774 
L 286.525499 224.536217 
L 286.559924 224.574508 
L 286.663197 224.61165 
L 286.697621 224.573055 
L 286.732045 224.475684 
L 286.766469 224.616798 
L 286.800894 224.556342 
L 286.869742 224.648824 
L 286.904167 224.598069 
L 287.041864 224.535237 
L 287.076288 224.646073 
L 287.145137 224.545377 
L 287.179561 224.58447 
L 287.24841 224.408469 
L 287.317258 224.452234 
L 287.386107 224.491756 
L 287.420531 224.457593 
L 287.661501 224.337003 
L 287.833623 224.277034 
L 287.936895 224.282861 
L 288.040168 224.122618 
L 288.074593 224.233831 
L 288.143441 224.167873 
L 288.246714 224.053454 
L 288.281138 224.162806 
L 288.349987 224.096303 
L 288.45326 224.030805 
L 288.487684 224.090565 
L 288.556533 224.040229 
L 288.763079 223.776077 
L 288.625381 224.096036 
L 288.797503 223.836624 
L 288.831927 224.049434 
L 288.900776 223.981466 
L 289.451564 223.84677 
L 289.485989 223.913676 
L 289.554837 223.830965 
L 289.726959 223.751712 
L 289.761383 223.823959 
L 289.830232 223.773914 
L 290.071202 223.603465 
L 290.105626 223.659274 
L 290.174475 223.720818 
L 290.208899 223.3173 
L 290.277747 223.555588 
L 290.312172 223.620156 
L 290.346596 223.347562 
L 290.415445 223.550607 
L 290.62199 223.591764 
L 290.725263 223.470287 
L 290.794112 223.385177 
L 290.828536 223.570802 
L 290.931809 223.304552 
L 290.966233 223.316723 
L 291.035082 223.439416 
L 291.069506 223.311891 
L 291.207203 223.338324 
L 291.379325 223.203194 
L 291.413749 223.308066 
L 291.482598 223.2519 
L 291.654719 222.979542 
L 291.757992 223.047344 
L 291.792416 223.005915 
L 291.826841 222.720889 
L 291.861265 223.054447 
L 291.895689 223.094252 
L 291.930114 222.986864 
L 292.067811 223.034467 
L 292.239932 223.032162 
L 292.515327 222.994992 
L 292.584175 223.032873 
L 292.6186 222.976247 
L 292.653024 222.853721 
L 292.721872 222.880068 
L 292.756297 222.966833 
L 292.825145 222.879228 
L 293.272661 222.927569 
L 293.307085 222.835572 
L 293.375934 222.950222 
L 293.479207 223.016828 
L 293.513631 222.955629 
L 293.651328 222.848024 
L 293.754601 222.91675 
L 293.892298 222.806916 
L 294.133268 222.777738 
L 294.270966 222.67659 
L 294.649633 222.592713 
L 294.684057 222.650605 
L 294.718481 222.501993 
L 294.752906 222.43588 
L 294.78733 222.564938 
L 294.821754 222.481853 
L 294.890603 222.553918 
L 295.0283 222.377422 
L 295.234846 222.419611 
L 295.338119 222.416768 
L 295.406967 222.360306 
L 295.51024 222.461109 
L 295.716786 222.342552 
L 295.820059 222.447889 
L 295.923332 222.25452 
L 295.957756 222.377248 
L 296.061029 222.309504 
L 296.129878 222.259135 
L 296.23315 222.389855 
L 296.336423 222.252092 
L 296.370848 222.292398 
L 296.474121 222.437864 
L 296.577393 222.337241 
L 296.542969 222.482042 
L 296.611818 222.370937 
L 296.749515 222.530751 
L 296.783939 222.37021 
L 296.852788 222.554361 
L 296.956061 222.571131 
L 296.990485 222.368225 
L 297.093758 222.412756 
L 297.197031 222.316482 
L 297.231455 222.531778 
L 297.300304 222.36571 
L 297.369152 222.457315 
L 297.403576 222.344501 
L 297.472425 222.315683 
L 297.506849 222.458129 
L 297.541274 222.32204 
L 297.610122 222.416813 
L 297.644547 222.283214 
L 297.782244 222.420212 
L 297.988789 222.237312 
L 298.023214 222.265734 
L 298.057638 222.262303 
L 298.092062 222.495564 
L 298.160911 222.248331 
L 298.298608 222.403444 
L 298.333032 222.267374 
L 298.401881 222.374532 
L 299.021518 222.391978 
L 299.159215 222.326578 
L 299.228064 222.400237 
L 299.262488 222.32987 
L 299.296913 222.273893 
L 299.365761 222.35519 
L 299.503458 222.362225 
L 299.606731 222.320905 
L 299.710004 222.349217 
L 299.744428 222.316172 
L 299.778853 222.449041 
L 299.813277 222.327697 
L 299.847701 222.243984 
L 299.882126 222.306583 
L 299.985399 222.439033 
L 300.088671 222.21255 
L 300.123096 222.225717 
L 300.260793 222.323975 
L 300.295217 222.247359 
L 300.329642 222.299439 
L 300.364066 222.422116 
L 300.432914 222.376377 
L 301.500068 222.39927 
L 301.60334 222.382437 
L 301.706613 222.390811 
L 301.878735 222.566695 
L 301.982008 222.494318 
L 302.016432 222.535147 
L 302.222978 222.694673 
L 302.257402 222.61905 
L 302.395099 222.585824 
L 302.429523 222.734545 
L 302.532796 222.705092 
L 302.670494 222.670319 
L 302.808191 222.767037 
L 303.324555 222.625864 
L 303.496677 222.749647 
L 303.531101 222.658301 
L 303.599949 222.765251 
L 303.634374 222.768167 
L 303.703222 223.008436 
L 303.772071 222.958796 
L 304.667103 223.052658 
L 304.701527 222.815972 
L 304.770376 223.03013 
L 305.080194 223.100319 
L 305.114618 223.040302 
L 305.149043 223.143285 
L 305.183467 223.110011 
L 305.321164 223.179874 
L 305.355589 223.257986 
L 305.390013 223.128032 
L 305.424437 223.163552 
L 305.562134 223.211848 
L 305.665407 223.073385 
L 305.699831 223.136123 
L 305.76868 223.146778 
L 305.803104 223.204924 
L 305.871953 223.143809 
L 306.112923 223.02062 
L 306.216196 223.168737 
L 306.319469 223.13676 
L 306.49159 223.149757 
L 306.526015 223.111777 
L 306.594863 223.175152 
L 307.111228 223.120252 
L 307.248925 223.222716 
L 307.317773 223.003263 
L 307.421046 223.357611 
L 307.45547 223.327563 
L 307.489895 223.021296 
L 307.524319 223.350121 
L 307.558743 223.319775 
L 307.627592 223.304318 
L 307.662016 222.969853 
L 307.696441 223.321283 
L 307.765289 223.001517 
L 307.937411 223.12564 
L 308.040683 223.015286 
L 308.075108 223.125481 
L 308.109532 223.157833 
L 308.143956 223.083168 
L 308.247229 223.067707 
L 308.384926 223.121993 
L 308.557048 223.074288 
L 308.591472 223.156004 
L 308.625897 223.031599 
L 308.660321 223.063676 
L 308.798018 222.975719 
L 309.176685 223.011159 
L 310.17499 223.150101 
L 310.209414 223.260013 
L 310.278263 223.207062 
L 310.41596 223.16725 
L 310.65693 223.627094 
L 310.691354 223.502776 
L 310.760203 223.558943 
L 310.794627 223.613034 
L 310.829051 223.495774 
L 310.863476 223.533083 
L 310.8979 223.416371 
L 310.966749 223.529213 
L 311.001173 223.569749 
L 311.104446 223.167719 
L 311.13887 223.278994 
L 311.242143 223.302588 
L 311.345416 223.212286 
L 311.37984 223.30751 
L 311.448689 223.270804 
L 311.483113 223.20978 
L 311.517537 223.320274 
L 311.551962 223.288621 
L 311.792932 223.246079 
L 311.827356 223.441104 
L 311.930629 223.414333 
L 311.999477 223.350327 
L 312.033902 223.790658 
L 312.10275 223.428641 
L 312.137175 223.400647 
L 312.206023 223.71664 
L 312.240447 223.4723 
L 312.274872 223.355588 
L 312.378145 223.392881 
L 312.481417 223.330628 
L 312.515842 223.443787 
L 312.58469 223.328262 
L 312.722388 223.423502 
L 312.997782 223.315279 
L 313.101055 223.410035 
L 313.135479 223.392622 
L 313.169903 223.330261 
L 313.238752 223.415624 
L 313.720692 223.485107 
L 313.755116 223.441981 
L 313.789541 223.582489 
L 313.892814 223.553755 
L 314.064935 223.578757 
L 314.133784 223.523779 
L 314.168208 223.618306 
L 314.237057 223.685654 
L 314.340329 223.469279 
L 314.512451 223.594473 
L 314.615724 223.504873 
L 314.650148 223.594282 
L 314.718997 223.54368 
L 314.959967 223.565458 
L 314.994391 223.436686 
L 315.06324 223.489279 
L 315.166512 223.504771 
L 315.200937 223.375477 
L 315.269785 223.440269 
L 315.373058 223.603941 
L 315.407483 223.49983 
L 315.476331 223.562921 
L 315.682877 223.621199 
L 315.78615 223.506435 
L 315.889423 223.614532 
L 315.923847 223.520751 
L 315.958271 223.681826 
L 315.992696 223.599562 
L 316.164817 223.794665 
L 316.199241 223.61139 
L 316.302514 223.64337 
L 316.371363 223.656589 
L 316.405787 223.559082 
L 316.474636 223.620659 
L 316.543484 223.751751 
L 316.612333 223.728209 
L 316.681181 223.68263 
L 316.715606 223.720487 
L 316.887727 223.762932 
L 316.922151 223.683676 
L 316.956576 223.871215 
L 316.991 223.797171 
L 317.025424 223.88698 
L 317.059849 223.733778 
L 317.094273 223.815845 
L 317.163122 223.85895 
L 317.197546 223.749422 
L 317.335243 223.896772 
L 317.541789 223.965701 
L 317.645062 223.822571 
L 317.679486 223.845896 
L 317.748335 224.012021 
L 317.817183 223.917213 
L 317.95488 223.849761 
L 318.161426 223.890866 
L 318.19585 223.887564 
L 318.230275 223.763753 
L 318.264699 223.931145 
L 318.299123 223.817295 
L 318.333548 223.883955 
L 318.402396 223.833039 
L 318.505669 223.767135 
L 318.540093 223.886346 
L 318.608942 223.838778 
L 318.712215 223.891976 
L 318.953185 224.037705 
L 318.987609 223.943809 
L 319.090882 223.926812 
L 319.125306 224.054467 
L 319.194155 224.023042 
L 319.297428 223.902897 
L 319.435125 223.943926 
L 319.538398 223.935186 
L 319.641671 223.98421 
L 319.676095 223.877464 
L 319.744944 223.926251 
L 319.882641 223.959284 
L 320.158035 224.066927 
L 320.261308 223.964368 
L 320.43343 224.084518 
L 320.571127 223.980624 
L 320.708824 224.126255 
L 320.743248 224.106009 
L 320.812097 224.135694 
L 320.846521 224.035959 
L 321.018643 224.161037 
L 321.190764 224.135786 
L 321.294037 223.719259 
L 321.328461 223.762041 
L 321.500583 223.736303 
L 321.535007 223.875294 
L 321.603856 223.7509 
L 321.741553 223.791609 
L 321.982523 223.85075 
L 322.085796 223.649588 
L 322.189069 223.802203 
L 322.292341 223.666642 
L 322.326766 223.818929 
L 322.395614 223.78714 
L 322.498887 223.631004 
L 322.533312 223.688417 
L 322.671009 223.603908 
L 322.808706 223.698249 
L 322.911979 223.711256 
L 323.0841 223.679115 
L 323.118525 223.718139 
L 323.152949 223.652442 
L 323.256222 223.545759 
L 323.290646 223.672138 
L 323.428343 223.751758 
L 323.462767 223.623863 
L 323.531616 223.734342 
L 323.703738 223.710824 
L 323.944708 223.79495 
L 323.979132 223.664183 
L 324.04798 223.695399 
L 324.151253 223.824337 
L 324.254526 223.70049 
L 324.288951 223.727628 
L 324.495496 223.63478 
L 324.529921 223.698126 
L 324.633193 223.823404 
L 324.667618 223.648147 
L 324.736466 223.770056 
L 324.770891 223.719006 
L 324.839739 223.769261 
L 325.080709 223.784133 
L 325.562649 223.813567 
L 325.665922 223.683269 
L 325.700347 223.794678 
L 325.769195 223.753338 
L 326.04459 223.756643 
L 326.216711 223.751894 
L 326.28556 223.844611 
L 326.319984 223.745094 
L 326.492105 223.879186 
L 326.52653 223.775755 
L 326.595378 223.827132 
L 327.318288 223.815603 
L 327.455986 223.890673 
L 327.800229 223.940166 
L 327.97235 223.881018 
L 328.144472 223.963289 
L 329.693565 224.01921 
L 329.727989 224.103557 
L 329.796838 223.993149 
L 330.003383 223.920125 
L 330.037808 223.971313 
L 330.072232 223.94485 
L 330.106656 223.855906 
L 330.141081 223.991489 
L 330.175505 223.921792 
L 330.313202 223.989412 
L 330.450899 223.996552 
L 330.519748 224.142427 
L 330.554172 224.026295 
L 330.691869 224.022403 
L 330.760718 223.972055 
L 330.795142 224.071933 
L 330.863991 223.998216 
L 330.932839 224.041076 
L 331.104961 224.10789 
L 331.242658 223.953739 
L 331.277082 224.10091 
L 331.345931 224.018152 
L 331.380355 223.913568 
L 331.41478 224.052163 
L 331.449204 223.983772 
L 331.483628 224.132205 
L 331.518052 223.922516 
L 331.552477 224.009436 
L 331.724598 223.848972 
L 331.862295 223.958816 
L 331.965568 223.843129 
L 331.999993 223.896744 
L 332.240963 223.849872 
L 332.447508 223.852458 
L 332.550781 223.899883 
L 332.61963 223.795296 
L 332.688478 223.837151 
L 332.963873 223.875606 
L 333.170419 223.917745 
L 333.239267 223.97297 
L 333.273691 223.888884 
L 333.549086 223.998866 
L 333.652359 223.946052 
L 333.721207 224.005602 
L 333.755632 223.934391 
L 333.82448 223.850533 
L 333.858904 223.903513 
L 333.927753 223.960431 
L 334.06545 223.823894 
L 334.203147 223.940138 
L 334.30642 223.803991 
L 334.409693 223.926813 
L 334.512966 223.715718 
L 334.54739 223.910957 
L 334.616239 223.855683 
L 334.650663 223.676081 
L 334.719512 223.736802 
L 334.857209 223.838781 
L 335.02933 223.769 
L 335.132603 223.89663 
L 335.235876 223.769554 
L 335.270301 223.911713 
L 335.339149 223.753491 
L 335.373573 223.70243 
L 335.476846 223.917254 
L 335.580119 223.763055 
L 335.821089 224.015171 
L 335.958786 223.970229 
L 336.062059 224.035688 
L 336.130908 224.121647 
L 336.234181 223.999491 
L 336.303029 224.066808 
L 336.337454 224.022699 
L 336.371878 223.951287 
L 336.406302 224.072545 
L 336.440727 223.991508 
L 336.819394 223.983008 
L 336.922667 223.848417 
L 337.02594 223.994107 
L 337.163637 223.877047 
L 337.301334 223.910304 
L 337.611153 223.971685 
L 337.714425 223.877291 
L 337.74885 223.988497 
L 337.817698 223.876477 
L 337.955395 223.894556 
L 337.98982 223.830498 
L 338.058668 223.872809 
L 338.196366 224.002467 
L 338.265214 223.838062 
L 338.334063 223.902526 
L 338.506184 224.035189 
L 338.643881 223.840134 
L 338.781579 224.015471 
L 338.850427 223.617868 
L 338.884851 223.668487 
L 338.919276 223.963532 
L 338.9537 223.567825 
L 338.988124 223.924107 
L 339.125822 223.532951 
L 339.160246 223.686251 
L 339.229094 223.613205 
L 340.227399 223.609679 
L 340.296248 223.656658 
L 340.330672 223.521715 
L 340.433945 223.593657 
L 340.537218 223.536101 
L 340.571642 223.674468 
L 340.64049 223.634348 
L 340.674915 223.546123 
L 340.743763 223.618147 
L 340.778188 223.680782 
L 340.812612 223.567436 
L 340.847036 223.619868 
L 340.950309 223.663871 
L 341.019158 223.607378 
L 341.053582 223.708791 
L 341.191279 223.621662 
L 341.466674 223.605307 
L 341.604371 223.608287 
L 341.707644 223.680936 
L 341.742068 223.603721 
L 341.810916 223.652417 
L 341.879765 223.621054 
L 341.914189 223.72893 
L 341.948614 223.608185 
L 341.983038 223.768362 
L 342.017462 223.650038 
L 342.120735 223.707101 
L 342.224008 223.56883 
L 342.189584 223.734205 
L 342.258432 223.632423 
L 342.361705 223.563448 
L 342.396129 223.697314 
L 342.464978 223.603852 
L 342.6371 223.588501 
L 342.843645 223.789803 
L 342.946918 223.441233 
L 342.981343 223.556228 
L 343.222313 223.534739 
L 343.256737 223.31977 
L 343.291161 223.554738 
L 343.325585 223.41555 
L 343.394434 223.523957 
L 343.428858 223.50352 
L 343.497707 223.565296 
L 343.532131 223.404231 
L 343.60098 223.684801 
L 343.635404 223.591849 
L 343.669828 223.945523 
L 343.738677 223.644806 
L 343.876374 223.763655 
L 343.910798 224.288056 
L 344.014071 224.262144 
L 344.151769 223.976352 
L 344.220617 224.023227 
L 344.289466 223.915828 
L 344.358314 223.894701 
L 344.461587 223.592259 
L 344.496011 223.619425 
L 344.633709 223.643396 
L 344.668133 223.533748 
L 344.702557 223.668378 
L 344.771406 223.707911 
L 344.80583 223.639666 
L 344.874679 223.560217 
L 344.909103 223.703308 
L 344.977952 223.666895 
L 345.0468 223.57604 
L 345.115649 223.659524 
L 345.322195 223.52177 
L 345.425467 223.628252 
L 345.52874 223.527163 
L 345.632013 223.666831 
L 345.735286 223.509608 
L 345.76971 223.673071 
L 345.804135 223.494447 
L 345.838559 223.593169 
L 345.976256 223.535661 
L 346.148378 223.612957 
L 346.286075 223.98196 
L 346.423772 223.883454 
L 346.458196 224.000857 
L 346.527045 223.930039 
L 347.353228 224.058479 
L 347.387652 223.789136 
L 347.422077 224.07352 
L 347.490925 224.208856 
L 347.559774 224.119532 
L 347.731895 224.018537 
L 347.766319 224.179342 
L 347.835168 224.053843 
L 348.213835 224.041113 
L 348.24826 223.963433 
L 348.317108 224.042102 
L 348.799048 223.965651 
L 348.902321 224.09122 
L 348.936745 224.052288 
L 349.040018 224.00598 
L 349.074443 224.057155 
L 349.108867 223.95934 
L 349.246564 223.887507 
L 349.349837 224.134493 
L 349.45311 223.868164 
L 349.487534 223.90323 
L 349.69408 223.956588 
L 349.831777 224.058844 
L 349.900626 224.037598 
L 350.003899 224.204302 
L 350.038323 224.168171 
L 350.072747 224.083933 
L 350.141596 224.189117 
L 350.348142 224.157342 
L 350.451414 224.135193 
L 350.485839 224.031099 
L 350.554687 224.065294 
L 350.589112 224.074521 
L 350.623536 223.965674 
L 350.692384 224.036513 
L 350.726809 224.086929 
L 350.761233 223.983517 
L 350.795657 224.010779 
L 350.830082 223.960012 
L 350.89893 224.01396 
L 350.933355 224.060098 
L 351.002203 224.006364 
L 351.38087 223.861939 
L 351.415295 224.109679 
L 351.484143 224.007033 
L 351.828386 223.996718 
L 351.862811 223.826159 
L 351.931659 223.962868 
L 352.000508 224.013966 
L 352.034932 223.838385 
L 352.138205 223.910118 
L 352.241478 223.786906 
L 352.310326 223.877702 
L 352.344751 223.812638 
L 352.448024 223.750213 
L 352.551296 223.722465 
L 352.585721 223.930504 
L 352.620145 223.820391 
L 352.688994 223.853936 
L 352.792266 223.981225 
L 352.826691 223.822626 
L 352.895539 223.874735 
L 352.964388 223.856045 
L 352.998812 223.990268 
L 353.067661 223.942684 
L 353.274207 223.903109 
L 353.377479 224.288095 
L 353.411904 223.870861 
L 353.480752 223.924809 
L 353.652874 224.28727 
L 353.721722 223.951779 
L 353.756147 224.251899 
L 353.893844 224.220874 
L 353.997117 223.896797 
L 354.031541 224.012161 
L 354.065965 224.134315 
L 354.10039 223.954825 
L 354.134814 223.862733 
L 354.169238 224.049629 
L 354.203663 223.890236 
L 354.375784 223.967347 
L 354.410208 223.842215 
L 354.479057 223.906776 
L 354.651178 223.920818 
L 354.685603 223.993114 
L 354.754451 223.947083 
L 354.788876 223.815585 
L 354.857724 223.931859 
L 354.892148 223.898555 
L 354.926573 223.946583 
L 355.06427 224.013314 
L 355.201967 223.945029 
L 355.236391 223.99035 
L 355.270816 224.240081 
L 355.30524 223.877164 
L 355.339664 223.955183 
L 355.477361 224.117382 
L 355.511786 223.925165 
L 355.54621 224.116168 
L 355.649483 224.220347 
L 355.683907 224.163127 
L 356.26912 224.099398 
L 356.303545 224.214557 
L 356.372393 224.109738 
L 356.406817 223.823004 
L 356.441242 224.209613 
L 356.475666 224.073147 
L 356.613363 224.179534 
L 356.716636 224.11297 
L 356.75106 224.227607 
L 356.819909 224.147934 
L 356.854333 224.054762 
L 356.888758 224.178293 
L 356.923182 224.172173 
L 357.026455 224.193564 
L 357.129728 224.135465 
L 357.164152 224.16067 
L 357.267425 224.213432 
L 357.301849 224.27258 
L 357.336273 224.117028 
L 357.405122 224.059638 
L 357.439546 224.145945 
L 357.542819 224.155365 
L 357.646092 224.18908 
L 357.749365 224.195504 
L 357.887062 224.127384 
L 358.059184 224.117392 
L 358.093608 224.014762 
L 358.162456 224.091068 
L 358.437851 224.228197 
L 358.472275 224.126461 
L 358.506699 223.997477 
L 358.575548 224.146558 
L 358.747669 223.988459 
L 358.850942 224.132981 
L 358.885367 223.969525 
L 358.954215 224.099153 
L 359.023064 224.155176 
L 359.057488 224.092151 
L 359.091912 223.907138 
L 359.160761 224.055808 
L 359.298458 224.014537 
L 359.436155 224.154345 
L 359.47058 224.027364 
L 359.539428 224.143608 
L 359.814823 224.035504 
L 359.849247 224.092612 
L 359.918095 224.042234 
L 360.19349 224.033637 
L 360.227914 224.156812 
L 360.296763 224.133573 
L 360.400036 224.135685 
L 360.43446 224.194444 
L 360.468884 224.096116 
L 360.503308 224.056915 
L 360.537733 224.204359 
L 360.606581 224.12603 
L 360.744279 224.183665 
L 360.881976 224.086853 
L 360.9164 224.286062 
L 360.985249 224.154927 
L 361.054097 224.256301 
L 361.122946 224.143366 
L 361.15737 223.974164 
L 361.260643 224.010194 
L 361.536037 224.051248 
L 361.673734 223.917445 
L 361.742583 224.04468 
L 361.811432 224.009062 
L 362.052402 223.974866 
L 362.086826 224.064052 
L 362.155675 223.9563 
L 362.36222 224.047226 
L 362.396645 224.101058 
L 362.431069 224.038925 
L 362.534342 223.985361 
L 362.568766 224.010448 
L 362.60319 224.078808 
L 362.672039 224.04161 
L 362.706463 223.951577 
L 362.775312 224.063734 
L 362.878585 224.128519 
L 363.016282 224.045397 
L 363.050706 224.044035 
L 363.153979 224.23987 
L 363.222828 224.096587 
L 363.257252 224.111643 
L 363.360525 224.150201 
L 363.498222 224.115012 
L 364.014587 224.204101 
L 364.083435 224.153905 
L 364.117859 224.074255 
L 364.186708 224.140517 
L 364.565375 224.167375 
L 364.5998 224.13142 
L 364.634224 224.203769 
L 364.668648 224.308421 
L 364.737497 224.170756 
L 364.875194 224.156319 
L 365.288285 224.204396 
L 365.357134 224.096224 
L 365.391558 224.137411 
L 365.494831 224.204536 
L 365.666953 224.080509 
L 365.701377 224.228952 
L 365.770226 224.183498 
L 366.04562 224.18544 
L 366.080044 224.224163 
L 366.114468 224.129265 
L 366.252166 224.075435 
L 366.28659 224.211406 
L 366.389863 224.173717 
L 366.493136 224.114077 
L 366.630833 223.959606 
L 366.76853 224.188062 
L 366.906227 224.053771 
L 366.940652 224.186792 
L 366.975076 224.139757 
L 367.0095 223.971686 
L 367.078349 224.095655 
L 367.525865 224.156296 
L 367.629137 224.197288 
L 367.904532 223.987399 
L 367.938956 224.106489 
L 368.007805 224.070248 
L 368.111078 224.018933 
L 368.145502 224.07011 
L 368.317623 224.057089 
L 368.489745 224.117377 
L 368.558593 224.183155 
L 368.593018 223.989809 
L 368.765139 224.200504 
L 368.799563 224.039504 
L 368.833988 224.232535 
L 368.868412 224.134815 
L 368.937261 224.180594 
L 369.040534 224.266017 
L 369.074958 224.100739 
L 369.143806 224.176605 
L 369.281504 224.096802 
L 369.315928 224.181769 
L 369.419201 224.409944 
L 369.453625 224.364577 
L 369.591322 224.075546 
L 369.763444 224.436241 
L 369.969989 224.171505 
L 369.832292 224.504775 
L 370.004414 224.229899 
L 370.142111 224.324473 
L 370.314232 224.029891 
L 370.417505 224.10408 
L 370.45193 223.968197 
L 370.520778 224.015837 
L 370.761748 223.996265 
L 370.830597 223.965701 
L 370.865021 224.003351 
L 371.243688 224.000015 
L 371.278113 223.941535 
L 371.346961 224.034611 
L 371.450234 223.96779 
L 371.484658 224.038142 
L 371.622356 224.11705 
L 371.65678 223.964127 
L 371.691204 224.29506 
L 371.725628 224.209979 
L 371.794477 224.241611 
L 371.828901 224.251791 
L 371.89775 224.329825 
L 371.932174 224.148095 
L 371.966599 224.282882 
L 372.035447 224.14616 
L 372.069871 224.139022 
L 372.104296 224.271827 
L 372.13872 224.110212 
L 372.173144 224.132762 
L 372.345266 224.054148 
L 372.414114 224.312049 
L 372.448539 224.112843 
L 372.482963 224.114082 
L 372.517387 223.907358 
L 372.586236 223.965526 
L 372.689509 224.275953 
L 372.723933 224.109406 
L 372.792782 224.181865 
L 372.999327 224.160354 
L 373.068176 224.08045 
L 373.1026 224.148693 
L 373.137025 224.255727 
L 373.171449 224.076639 
L 373.205873 224.168109 
L 373.240297 224.017785 
L 373.309146 224.127159 
L 373.34357 224.145785 
L 373.446843 223.854883 
L 373.515692 224.122437 
L 373.550116 224.070574 
L 373.58454 223.988273 
L 373.653389 224.042492 
L 373.687813 224.141419 
L 373.722238 223.971058 
L 373.756662 224.043924 
L 374.376299 224.19586 
L 374.410723 224.145083 
L 374.445148 224.248063 
L 374.479572 224.202359 
L 374.513996 224.301766 
L 374.548421 224.151613 
L 374.582845 224.206007 
L 374.617269 224.167854 
L 374.651694 224.239144 
L 374.686118 224.280676 
L 374.754966 224.206127 
L 374.927088 224.090577 
L 374.961512 224.208261 
L 375.030361 224.100819 
L 375.168058 224.157053 
L 375.202482 223.956967 
L 375.271331 224.184752 
L 375.340179 224.186358 
L 375.443452 223.914006 
L 375.512301 224.00916 
L 375.546725 224.187827 
L 375.581149 223.9878 
L 375.615574 224.062703 
L 375.649998 224.030944 
L 375.684422 224.17454 
L 375.718847 223.994349 
L 375.753271 224.119543 
L 375.856544 223.981441 
L 375.959817 224.069944 
L 375.994241 224.049902 
L 376.235211 224.023617 
L 376.269635 224.054247 
L 376.30406 223.953784 
L 376.338484 223.891988 
L 376.372908 224.066384 
L 376.441757 223.953843 
L 376.648303 223.928506 
L 376.751576 224.049501 
L 376.854848 223.867832 
L 376.889273 223.911546 
L 376.958121 224.014193 
L 376.992546 223.820849 
L 377.061394 223.921949 
L 377.233516 224.0501 
L 377.371213 223.992392 
L 377.74988 224.184137 
L 377.887577 224.115142 
L 377.922002 224.239189 
L 377.99085 224.097027 
L 378.128547 224.08598 
L 378.197396 224.105597 
L 378.335093 223.922158 
L 378.369517 223.968136 
L 378.507215 224.026077 
L 378.644912 223.906738 
L 378.679336 223.979669 
L 378.920306 223.940002 
L 379.264549 223.993685 
L 379.367822 223.896913 
L 379.471095 223.963952 
L 379.505519 223.944704 
L 379.539943 223.935079 
L 379.643216 224.16173 
L 379.746489 223.933053 
L 379.918611 224.10466 
L 380.090732 223.910097 
L 380.297278 224.02025 
L 380.434975 223.923824 
L 380.503824 223.930257 
L 380.538248 223.747521 
L 380.607097 223.881071 
L 380.675945 223.915861 
L 380.710369 223.831835 
L 380.813642 223.752482 
L 380.848067 223.911419 
L 380.916915 223.774471 
L 380.951339 223.668816 
L 381.020188 223.739439 
L 381.261158 223.900714 
L 381.364431 223.809355 
L 381.398855 223.824162 
L 381.639825 223.951875 
L 381.67425 223.871605 
L 381.708674 224.010361 
L 381.743098 223.942136 
L 381.846371 223.95444 
L 381.91522 224.044 
L 382.018493 223.766573 
L 382.052917 223.964238 
L 382.121765 223.921779 
L 382.225038 223.683092 
L 382.259463 223.846941 
L 382.328311 223.787077 
L 382.362736 223.693355 
L 382.431584 223.72173 
L 382.466008 223.981001 
L 382.534857 223.826056 
L 382.569281 223.751333 
L 382.603706 223.798241 
L 382.672554 223.753568 
L 382.775827 223.966369 
L 382.947949 223.624608 
L 383.051221 223.787729 
L 383.085646 223.745973 
L 383.188919 223.72946 
L 383.257767 223.763141 
L 383.292191 223.851343 
L 383.326616 223.746289 
L 383.395464 223.70745 
L 383.429889 223.949613 
L 383.498737 223.873559 
L 383.533162 223.707979 
L 383.60201 223.776474 
L 383.670859 223.886214 
L 383.705283 223.871646 
L 383.808556 223.74339 
L 383.911829 223.946693 
L 383.980677 224.030003 
L 384.049526 223.753093 
L 384.152799 223.975192 
L 384.187223 223.922164 
L 384.221647 223.725765 
L 384.256072 224.017746 
L 384.738012 223.966572 
L 384.772436 223.909905 
L 384.80686 223.966261 
L 384.841285 224.048397 
L 384.875709 223.934166 
L 384.944558 223.841856 
L 384.978982 223.997959 
L 385.047831 223.906185 
L 385.082255 223.741828 
L 385.151103 223.809627 
L 385.323225 223.850762 
L 385.460922 223.682046 
L 385.701892 223.711184 
L 385.736316 223.646425 
L 385.770741 223.715806 
L 385.908438 223.818845 
L 385.942862 223.699765 
L 385.977286 223.874254 
L 386.011711 223.809739 
L 386.183832 223.873796 
L 386.355954 223.9371 
L 386.459227 223.694484 
L 386.493651 223.902474 
L 386.596924 223.778669 
L 386.700197 223.957739 
L 386.734621 223.893937 
L 386.837894 223.795457 
L 386.872318 223.881801 
L 386.906742 223.752421 
L 387.04444 223.737201 
L 387.078864 223.937651 
L 387.147712 223.684099 
L 387.250985 223.765896 
L 387.28541 223.796571 
L 387.319834 223.621645 
L 387.388683 223.641186 
L 387.560804 223.710616 
L 387.595228 223.595333 
L 387.664077 223.742821 
L 387.801774 223.618323 
L 387.939471 223.984583 
L 387.973896 223.876889 
L 388.00832 223.705195 
L 388.077168 223.766589 
L 388.111593 223.883485 
L 388.180441 223.793543 
L 388.214866 223.785472 
L 388.24929 223.938672 
L 388.283714 223.763391 
L 388.352563 223.896353 
L 388.421411 223.938605 
L 388.455836 224.066042 
L 388.524684 223.979358 
L 388.559109 223.977226 
L 388.593533 223.787027 
L 388.696806 223.820886 
L 388.834503 223.969342 
L 388.868927 223.659312 
L 388.937776 223.93437 
L 389.075473 223.782415 
L 389.109897 223.926466 
L 389.178746 223.81522 
L 389.316443 223.867948 
L 389.385292 223.761582 
L 389.45414 223.787551 
L 389.522989 223.949624 
L 389.557413 223.771479 
L 389.729535 223.921616 
L 389.763959 223.825266 
L 389.832807 223.882019 
L 389.901656 223.998347 
L 389.93608 223.871239 
L 390.073778 223.938222 
L 390.108202 224.044891 
L 390.17705 223.920018 
L 390.211475 223.934172 
L 390.245899 223.709561 
L 390.314748 223.947542 
L 390.452445 223.710534 
L 390.555718 223.912113 
L 390.590142 223.865838 
L 390.727839 223.850218 
L 390.762263 223.791609 
L 390.796688 223.932299 
L 390.865536 223.809284 
L 390.934385 223.890184 
L 391.003233 224.022722 
L 391.037658 223.759777 
L 391.106506 223.922915 
L 391.140931 223.981858 
L 391.209779 223.906681 
L 391.278628 223.73784 
L 391.313052 223.809762 
L 391.381901 223.919815 
L 391.416325 223.883397 
L 391.588446 223.701466 
L 391.760568 223.843051 
L 391.794992 223.741502 
L 391.863841 223.773264 
L 391.932689 223.820126 
L 391.967114 223.721287 
L 392.035962 223.76254 
L 392.070387 223.846859 
L 392.104811 223.767094 
L 392.173659 223.670041 
L 392.276932 224.179353 
L 392.311357 224.063497 
L 392.449054 223.911509 
L 392.586751 223.994296 
L 392.6556 224.030164 
L 392.690024 223.930636 
L 392.724448 224.035314 
L 392.793297 224.011325 
L 392.89657 223.82494 
L 392.930994 224.096491 
L 392.999843 223.922362 
L 393.13754 224.078931 
L 393.171964 223.786096 
L 393.240813 223.899656 
L 393.309661 223.941812 
L 393.412934 223.834065 
L 393.447358 223.879593 
L 393.516207 223.809161 
L 393.550631 223.74174 
L 393.585056 223.890142 
L 393.757177 223.853982 
L 393.894874 223.852386 
L 394.204693 223.803003 
L 394.307966 223.668333 
L 394.376814 224.056397 
L 394.411239 223.823213 
L 394.445663 223.742441 
L 394.480087 224.094324 
L 394.548936 224.067883 
L 394.686633 223.99503 
L 394.755482 224.056518 
L 394.858754 224.08065 
L 394.996452 224.020844 
L 395.134149 224.162326 
L 395.168573 223.921427 
L 395.237422 223.937429 
L 395.340695 224.066849 
L 395.478392 223.947556 
L 395.512816 224.009891 
L 395.54724 223.755745 
L 395.616089 223.812814 
L 395.650513 224.024747 
L 395.719362 223.802976 
L 395.925908 223.868379 
L 395.960332 223.809419 
L 396.02918 223.861848 
L 396.063605 223.902976 
L 396.132453 223.842654 
L 396.201302 223.921103 
L 396.304575 223.783569 
L 396.407848 223.76841 
L 396.442272 223.667601 
L 396.476696 223.813534 
L 396.579969 223.735171 
L 396.717666 223.740654 
L 396.752091 224.004832 
L 396.855364 223.950158 
L 397.199606 223.998542 
L 397.234031 223.729131 
L 397.302879 223.811539 
L 397.371728 223.886344 
L 397.406152 224.027169 
L 397.440577 223.90934 
L 397.475001 223.81035 
L 397.509425 223.857389 
L 397.612698 223.821053 
L 397.647122 223.979212 
L 397.681547 223.995098 
L 397.715971 223.756333 
L 397.78482 223.959443 
L 397.888092 223.84045 
L 397.922517 223.850944 
L 398.060214 223.94656 
L 398.094638 223.786431 
L 398.163487 223.842722 
L 398.26676 223.933664 
L 398.301184 223.702956 
L 398.370033 223.854771 
L 398.473305 223.898656 
L 398.50773 223.75038 
L 398.576578 223.912512 
L 398.611003 223.910077 
L 398.645427 224.019412 
L 398.679851 223.858675 
L 398.783124 223.894169 
L 398.817548 223.769097 
L 398.851973 223.879974 
L 398.886397 223.740371 
L 398.920821 223.808515 
L 398.955246 223.804361 
L 399.058518 224.071287 
L 399.092943 223.895793 
L 399.161791 223.963135 
L 399.265064 224.057426 
L 399.299488 223.959525 
L 399.437186 223.690667 
L 399.47161 223.785505 
L 399.540459 223.730195 
L 399.574883 223.604151 
L 399.609307 223.787472 
L 399.643731 223.89488 
L 399.71258 223.7866 
L 399.850277 223.72027 
L 399.987974 223.914023 
L 400.228944 223.58952 
L 400.263369 223.839214 
L 400.332217 223.686069 
L 400.469914 223.73658 
L 400.573187 223.596161 
L 400.67646 223.816267 
L 400.710885 223.582575 
L 400.779733 223.621796 
L 400.883006 223.78914 
L 400.986279 223.67111 
L 401.020703 223.836152 
L 401.123976 223.795947 
L 401.1584 223.722642 
L 401.192825 223.837237 
L 401.330522 223.936655 
L 401.364946 223.703552 
L 401.433795 223.830701 
L 401.468219 223.904185 
L 401.502643 223.690441 
L 401.571492 223.781447 
L 401.743613 223.708641 
L 401.778038 223.898751 
L 401.846886 223.761297 
L 401.950159 223.623821 
L 401.915735 223.810618 
L 401.984583 223.681332 
L 402.019008 223.830621 
L 402.087856 223.803737 
L 402.191129 223.834061 
L 402.225554 223.585692 
L 402.328826 223.852816 
L 402.363251 223.574839 
L 402.432099 223.58516 
L 402.500948 223.726236 
L 402.535372 223.686137 
L 402.569796 223.6147 
L 402.604221 223.839049 
L 402.673069 223.741414 
L 402.776342 223.610637 
L 402.879615 223.781144 
L 402.914039 223.702428 
L 403.086161 223.773424 
L 403.120585 223.606822 
L 403.155009 223.70404 
L 403.189434 223.930942 
L 403.223858 223.591695 
L 403.258282 223.763407 
L 403.430404 223.500914 
L 403.464828 223.76906 
L 403.533677 223.702254 
L 403.705798 223.57213 
L 403.740222 223.755881 
L 403.809071 223.586778 
L 404.050041 223.858997 
L 404.084465 223.663549 
L 404.153314 223.746224 
L 404.325435 223.880472 
L 404.394284 223.91665 
L 404.428708 223.771217 
L 404.463133 223.995487 
L 404.497557 223.741992 
L 404.669678 223.618648 
L 404.772951 223.857747 
L 404.807376 223.651776 
L 404.876224 223.772866 
L 404.979497 223.8293 
L 405.08277 223.670144 
L 405.186043 223.896539 
L 405.289316 223.71553 
L 405.427013 223.904626 
L 405.461437 223.900818 
L 405.530286 223.917845 
L 405.56471 223.765799 
L 405.702407 223.932033 
L 405.943377 223.819666 
L 406.012226 223.966666 
L 406.081075 223.921658 
L 406.115499 223.991528 
L 406.149923 223.852552 
L 406.184347 223.955649 
L 406.356469 223.811296 
L 406.494166 223.975473 
L 406.631863 223.795252 
L 406.872833 223.985745 
L 406.941682 223.902314 
L 406.976106 224.012524 
L 407.113803 223.969712 
L 407.217076 223.8744 
L 407.182652 224.02638 
L 407.251501 223.904333 
L 407.354773 223.971253 
L 407.389198 224.106644 
L 407.458046 223.939614 
L 407.939986 223.955683 
L 408.077684 224.026975 
L 408.249805 224.04291 
L 408.318654 223.714749 
L 408.387502 223.764199 
L 408.628472 223.960922 
L 408.662897 223.924168 
L 408.697321 224.070504 
L 408.766169 223.99798 
L 408.800594 223.97852 
L 408.835018 223.676752 
L 408.938291 223.723722 
L 409.075988 224.004228 
L 409.282534 224.041829 
L 409.316958 223.717324 
L 409.420231 223.76673 
L 409.454655 223.7071 
L 409.592353 224.062613 
L 409.73005 223.811038 
L 409.764474 223.847057 
L 409.798898 223.948082 
L 409.867747 223.923311 
L 410.039868 223.799001 
L 410.143141 223.970019 
L 410.177566 223.858869 
L 410.246414 223.83781 
L 410.280838 223.895421 
L 410.521809 223.916596 
L 410.556233 223.780379 
L 410.625081 223.914841 
L 410.659506 223.970584 
L 410.69393 223.835224 
L 410.728354 223.893842 
L 410.762779 223.832552 
L 410.797203 224.00869 
L 410.866051 223.977336 
L 410.969324 223.879839 
L 411.072597 224.066073 
L 411.107022 224.012485 
L 411.279143 223.871295 
L 411.313567 224.00075 
L 411.382416 223.961598 
L 411.41684 223.877087 
L 411.485689 223.937674 
L 411.520113 223.973512 
L 411.588962 223.904472 
L 411.726659 223.847814 
L 411.829932 223.990976 
L 411.864356 223.830382 
L 411.933205 223.890947 
L 412.036477 224.066145 
L 412.13975 223.770385 
L 412.174175 223.933577 
L 412.243023 223.885286 
L 412.346296 223.723543 
L 412.38072 223.759796 
L 412.828236 223.754711 
L 413.000358 223.894867 
L 413.138055 223.884048 
L 413.275752 224.034437 
L 413.482298 223.845869 
L 413.585571 224.08073 
L 413.619995 223.803801 
L 413.723268 223.861062 
L 413.792116 223.959681 
L 413.826541 223.74052 
L 413.860965 224.008797 
L 413.895389 223.857845 
L 414.067511 223.956822 
L 414.205208 223.755561 
L 414.239632 224.024068 
L 414.308481 223.854113 
L 414.652724 224.003265 
L 414.687148 223.825913 
L 414.790421 223.867744 
L 414.928118 223.818272 
L 415.134664 223.977806 
L 415.169088 223.826864 
L 415.237937 223.90843 
L 415.513331 223.812381 
L 415.891998 223.835856 
L 415.995271 223.902113 
L 416.132969 223.750958 
L 416.201817 223.793827 
L 416.236241 223.662017 
L 416.30509 223.786459 
L 416.442787 223.612671 
L 416.477211 223.706271 
L 416.683757 223.727554 
L 416.718182 223.662051 
L 416.752606 223.728751 
L 416.78703 223.801914 
L 416.855879 223.711033 
L 417.028 223.733715 
L 417.062424 223.785397 
L 417.096849 223.668009 
L 417.234546 223.660962 
L 417.26897 223.832447 
L 417.337819 223.715149 
L 417.406667 223.700885 
L 417.441092 223.733799 
L 417.716486 223.839282 
L 417.819759 223.811876 
L 417.854183 223.916717 
L 417.923032 223.837653 
L 418.026305 223.812455 
L 418.060729 223.952612 
L 418.129578 223.853033 
L 418.23285 223.831721 
L 418.267275 223.975457 
L 418.336123 223.813092 
L 418.508245 223.873614 
L 418.542669 223.833715 
L 418.577093 224.030078 
L 418.645942 223.786134 
L 418.783639 223.81617 
L 418.886912 223.68673 
L 418.990185 223.834897 
L 419.024609 223.747271 
L 419.059034 223.775704 
L 419.093458 223.673361 
L 419.127882 223.504276 
L 419.162306 223.747524 
L 419.196731 223.694773 
L 419.437701 223.779466 
L 419.472125 223.840236 
L 419.506549 223.688418 
L 419.540974 223.74196 
L 419.713095 223.700183 
L 419.781944 223.649819 
L 419.816368 223.760903 
L 419.850792 223.678143 
L 419.885217 223.776038 
L 419.954065 223.965306 
L 420.022914 223.949955 
L 420.057338 223.94916 
L 420.160611 224.057858 
L 420.298308 224.008948 
L 420.436005 224.10326 
L 420.573703 223.931455 
L 420.676975 224.123588 
L 420.7114 224.032488 
L 420.814673 224.054757 
L 420.95237 223.983401 
L 421.124491 224.110275 
L 421.227764 223.935613 
L 421.331037 224.121871 
L 421.43431 223.968634 
L 421.468734 224.149114 
L 421.537583 224.062058 
L 421.606431 224.148271 
L 421.640856 223.967088 
L 421.709704 224.106127 
L 421.744129 224.018847 
L 421.778553 224.139545 
L 421.950674 224.344181 
L 421.985099 224.432169 
L 422.019523 224.115723 
L 422.088371 224.409796 
L 422.15722 224.171261 
L 422.226069 224.255105 
L 422.329342 224.424262 
L 422.432614 224.190393 
L 422.535887 224.420651 
L 422.570312 224.408022 
L 422.63916 224.24575 
L 422.673584 224.346721 
L 422.742433 224.292555 
L 422.811282 224.258989 
L 422.845706 224.490251 
L 422.88013 224.28682 
L 422.948979 224.316773 
L 423.052252 224.378529 
L 423.086676 224.311493 
L 423.155525 224.365314 
L 423.224373 224.207036 
L 423.36207 224.388479 
L 423.465343 224.230033 
L 423.499768 224.264198 
L 424.188253 224.362711 
L 424.222678 224.530823 
L 424.291526 224.458831 
L 424.360375 224.279103 
L 424.429224 224.331743 
L 424.463648 224.3583 
L 424.566921 224.240129 
L 424.670194 224.376206 
L 424.773466 224.219334 
L 424.807891 224.270355 
L 424.911164 224.224641 
L 424.945588 224.259059 
L 425.014437 224.023071 
L 425.048861 224.188602 
L 425.117709 224.301126 
L 425.152134 224.210928 
L 425.220982 224.062849 
L 425.289831 224.129723 
L 425.565225 224.231833 
L 425.59965 224.114484 
L 425.634074 224.17118 
L 425.737347 224.436839 
L 425.771771 224.381393 
L 425.806195 224.227327 
L 425.875044 224.289124 
L 425.909468 224.284411 
L 425.943892 224.480612 
L 426.012741 224.437332 
L 426.047165 224.291204 
L 426.116014 224.336439 
L 426.150438 224.486418 
L 426.219287 224.306684 
L 426.391408 224.347864 
L 426.529105 224.424263 
L 426.632378 224.24439 
L 426.735651 224.529404 
L 426.873348 224.297649 
L 427.011046 224.397439 
L 427.114319 224.420716 
L 427.217591 224.484134 
L 427.28644 224.36989 
L 427.355289 224.398419 
L 427.596259 224.372425 
L 427.76838 224.266063 
L 427.940502 224.348068 
L 427.974926 224.230173 
L 428.00935 224.364127 
L 428.043774 224.476901 
L 428.078199 224.370616 
L 428.147047 224.214976 
L 428.181472 224.320167 
L 428.525715 224.382533 
L 428.560139 224.51486 
L 428.628987 224.429985 
L 428.697836 224.24456 
L 428.766685 224.314702 
L 428.801109 224.461808 
L 428.869958 224.41665 
L 428.904382 224.309149 
L 428.938806 224.444322 
L 428.97323 224.35285 
L 429.042079 224.43967 
L 429.076503 224.397181 
L 429.145352 224.328484 
L 429.179776 224.425959 
L 429.248625 224.367812 
L 429.283049 224.294799 
L 429.351898 224.37539 
L 429.455171 224.337831 
L 429.455171 224.337831 
" clip-path="url(#p0b26e8d857)" style="fill: none; stroke: #0000ff; stroke-width: 1.5; stroke-linecap: square"/>
   </g>
   <g id="line2d_15">
    <path d="M 65 277.74 
L 446.810179 277.74 
" clip-path="url(#p0b26e8d857)" style="fill: none; stroke-dasharray: 0.37,0.16; stroke-dashoffset: 0; stroke: #000000; stroke-width: 0.1"/>
   </g>
   <g id="patch_3">
    <path d="M 65 289.24 
L 65 36.24 
" style="fill: none; stroke: #000000; stroke-width: 0.8; stroke-linejoin: miter; stroke-linecap: square"/>
   </g>
   <g id="patch_4">
    <path d="M 446.810179 289.24 
L 446.810179 36.24 
" style="fill: none; stroke: #000000; stroke-width: 0.8; stroke-linejoin: miter; stroke-linecap: square"/>
   </g>
   <g id="patch_5">
    <path d="M 65 289.24 
L 446.810179 289.24 
" style="fill: none; stroke: #000000; stroke-width: 0.8; stroke-linejoin: miter; stroke-linecap: square"/>
   </g>
   <g id="patch_6">
    <path d="M 65 36.24 
L 446.810179 36.24 
" style="fill: none; stroke: #000000; stroke-width: 0.8; stroke-linejoin: miter; stroke-linecap: square"/>
   </g>
   <g id="text_16">
    <!-- Quaternion Differences -->
    <g transform="translate(105.096964 30.24) scale(0.26 -0.26)">
     <defs>
      <path id="DejaVuSans-51" d="M 2522 4238 
Q 1834 4238 1429 3725 
Q 1025 3213 1025 2328 
Q 1025 1447 1429 934 
Q 1834 422 2522 422 
Q 3209 422 3611 934 
Q 4013 1447 4013 2328 
Q 4013 3213 3611 3725 
Q 3209 4238 2522 4238 
z
M 3406 84 
L 4238 -825 
L 3475 -825 
L 2784 -78 
Q 2681 -84 2626 -87 
Q 2572 -91 2522 -91 
Q 1538 -91 948 567 
Q 359 1225 359 2328 
Q 359 3434 948 4092 
Q 1538 4750 2522 4750 
Q 3503 4750 4090 4092 
Q 4678 3434 4678 2328 
Q 4678 1516 4351 937 
Q 4025 359 3406 84 
z
" transform="scale(0.015625)"/>
      <path id="DejaVuSans-75" d="M 544 1381 
L 544 3500 
L 1119 3500 
L 1119 1403 
Q 1119 906 1312 657 
Q 1506 409 1894 409 
Q 2359 409 2629 706 
Q 2900 1003 2900 1516 
L 2900 3500 
L 3475 3500 
L 3475 0 
L 2900 0 
L 2900 538 
Q 2691 219 2414 64 
Q 2138 -91 1772 -91 
Q 1169 -91 856 284 
Q 544 659 544 1381 
z
M 1991 3584 
L 1991 3584 
z
" transform="scale(0.015625)"/>
      <path id="DejaVuSans-6e" d="M 3513 2113 
L 3513 0 
L 2938 0 
L 2938 2094 
Q 2938 2591 2744 2837 
Q 2550 3084 2163 3084 
Q 1697 3084 1428 2787 
Q 1159 2491 1159 1978 
L 1159 0 
L 581 0 
L 581 3500 
L 1159 3500 
L 1159 2956 
Q 1366 3272 1645 3428 
Q 1925 3584 2291 3584 
Q 2894 3584 3203 3211 
Q 3513 2838 3513 2113 
z
" transform="scale(0.015625)"/>
      <path id="DejaVuSans-6f" d="M 1959 3097 
Q 1497 3097 1228 2736 
Q 959 2375 959 1747 
Q 959 1119 1226 758 
Q 1494 397 1959 397 
Q 2419 397 2687 759 
Q 2956 1122 2956 1747 
Q 2956 2369 2687 2733 
Q 2419 3097 1959 3097 
z
M 1959 3584 
Q 2709 3584 3137 3096 
Q 3566 2609 3566 1747 
Q 3566 888 3137 398 
Q 2709 -91 1959 -91 
Q 1206 -91 779 398 
Q 353 888 353 1747 
Q 353 2609 779 3096 
Q 1206 3584 1959 3584 
z
" transform="scale(0.015625)"/>
      <path id="DejaVuSans-20" transform="scale(0.015625)"/>
      <path id="DejaVuSans-44" d="M 1259 4147 
L 1259 519 
L 2022 519 
Q 2988 519 3436 956 
Q 3884 1394 3884 2338 
Q 3884 3275 3436 3711 
Q 2988 4147 2022 4147 
L 1259 4147 
z
M 628 4666 
L 1925 4666 
Q 3281 4666 3915 4102 
Q 4550 3538 4550 2338 
Q 4550 1131 3912 565 
Q 3275 0 1925 0 
L 628 0 
L 628 4666 
z
" transform="scale(0.015625)"/>
      <path id="DejaVuSans-66" d="M 2375 4863 
L 2375 4384 
L 1825 4384 
Q 1516 4384 1395 4259 
Q 1275 4134 1275 3809 
L 1275 3500 
L 2222 3500 
L 2222 3053 
L 1275 3053 
L 1275 0 
L 697 0 
L 697 3053 
L 147 3053 
L 147 3500 
L 697 3500 
L 697 3744 
Q 697 4328 969 4595 
Q 1241 4863 1831 4863 
L 2375 4863 
z
" transform="scale(0.015625)"/>
      <path id="DejaVuSans-63" d="M 3122 3366 
L 3122 2828 
Q 2878 2963 2633 3030 
Q 2388 3097 2138 3097 
Q 1578 3097 1268 2742 
Q 959 2388 959 1747 
Q 959 1106 1268 751 
Q 1578 397 2138 397 
Q 2388 397 2633 464 
Q 2878 531 3122 666 
L 3122 134 
Q 2881 22 2623 -34 
Q 2366 -91 2075 -91 
Q 1284 -91 818 406 
Q 353 903 353 1747 
Q 353 2603 823 3093 
Q 1294 3584 2113 3584 
Q 2378 3584 2631 3529 
Q 2884 3475 3122 3366 
z
" transform="scale(0.015625)"/>
     </defs>
     <use xlink:href="#DejaVuSans-51"/>
     <use xlink:href="#DejaVuSans-75" x="78.710938"/>
     <use xlink:href="#DejaVuSans-61" x="142.089844"/>
     <use xlink:href="#DejaVuSans-74" x="203.369141"/>
     <use xlink:href="#DejaVuSans-65" x="242.578125"/>
     <use xlink:href="#DejaVuSans-72" x="304.101562"/>
     <use xlink:href="#DejaVuSans-6e" x="343.464844"/>
     <use xlink:href="#DejaVuSans-69" x="406.84375"/>
     <use xlink:href="#DejaVuSans-6f" x="434.626953"/>
     <use xlink:href="#DejaVuSans-6e" x="495.808594"/>
     <use xlink:href="#DejaVuSans-20" x="559.1875"/>
     <use xlink:href="#DejaVuSans-44" x="590.974609"/>
     <use xlink:href="#DejaVuSans-69" x="667.976562"/>
     <use xlink:href="#DejaVuSans-66" x="695.759766"/>
     <use xlink:href="#DejaVuSans-66" x="730.964844"/>
     <use xlink:href="#DejaVuSans-65" x="766.169922"/>
     <use xlink:href="#DejaVuSans-72" x="827.693359"/>
     <use xlink:href="#DejaVuSans-65" x="866.556641"/>
     <use xlink:href="#DejaVuSans-6e" x="928.080078"/>
     <use xlink:href="#DejaVuSans-63" x="991.458984"/>
     <use xlink:href="#DejaVuSans-65" x="1046.439453"/>
     <use xlink:href="#DejaVuSans-73" x="1107.962891"/>
    </g>
   </g>
  </g>
 </g>
 <defs>
  <clipPath id="p0b26e8d857">
   <rect x="65" y="36.24" width="381.810179" height="253"/>
  </clipPath>
 </defs>
</svg>
