<?xml version="1.0" encoding="utf-8" standalone="no"?>
<!DOCTYPE svg PUBLIC "-//W3C//DTD SVG 1.1//EN"
  "http://www.w3.org/Graphics/SVG/1.1/DTD/svg11.dtd">
<svg xmlns:xlink="http://www.w3.org/1999/xlink" width="460.8pt" height="345.6pt" viewBox="0 0 460.8 345.6" xmlns="http://www.w3.org/2000/svg" version="1.1">
 <metadata>
  <rdf:RDF xmlns:dc="http://purl.org/dc/elements/1.1/" xmlns:cc="http://creativecommons.org/ns#" xmlns:rdf="http://www.w3.org/1999/02/22-rdf-syntax-ns#">
   <cc:Work>
    <dc:type rdf:resource="http://purl.org/dc/dcmitype/StillImage"/>
    <dc:date>2024-10-24T15:25:37.952558</dc:date>
    <dc:format>image/svg+xml</dc:format>
    <dc:creator>
     <cc:Agent>
      <dc:title>Matplotlib v3.7.5, https://matplotlib.org/</dc:title>
     </cc:Agent>
    </dc:creator>
   </cc:Work>
  </rdf:RDF>
 </metadata>
 <defs>
  <style type="text/css">*{stroke-linejoin: round; stroke-linecap: butt}</style>
 </defs>
 <g id="figure_1">
  <g id="patch_1">
   <path d="M 0 345.6 
L 460.8 345.6 
L 460.8 0 
L 0 0 
z
" style="fill: #ffffff"/>
  </g>
  <g id="axes_1">
   <g id="patch_2">
    <path d="M 64.91 289.24 
L 450 289.24 
L 450 36.24 
L 64.91 36.24 
z
" style="fill: #ffffff"/>
   </g>
   <g id="matplotlib.axis_1">
    <g id="xtick_1">
     <g id="line2d_1">
      <defs>
       <path id="ma76ed1a2d9" d="M 0 0 
L 0 3.5 
" style="stroke: #000000; stroke-width: 0.8"/>
      </defs>
      <g>
       <use xlink:href="#ma76ed1a2d9" x="82.414091" y="289.24" style="stroke: #000000; stroke-width: 0.8"/>
      </g>
     </g>
     <g id="text_1">
      <!-- 0 -->
      <g transform="translate(77.960341 306.877813) scale(0.14 -0.14)">
       <defs>
        <path id="DejaVuSans-30" d="M 2034 4250 
Q 1547 4250 1301 3770 
Q 1056 3291 1056 2328 
Q 1056 1369 1301 889 
Q 1547 409 2034 409 
Q 2525 409 2770 889 
Q 3016 1369 3016 2328 
Q 3016 3291 2770 3770 
Q 2525 4250 2034 4250 
z
M 2034 4750 
Q 2819 4750 3233 4129 
Q 3647 3509 3647 2328 
Q 3647 1150 3233 529 
Q 2819 -91 2034 -91 
Q 1250 -91 836 529 
Q 422 1150 422 2328 
Q 422 3509 836 4129 
Q 1250 4750 2034 4750 
z
" transform="scale(0.015625)"/>
       </defs>
       <use xlink:href="#DejaVuSans-30"/>
      </g>
     </g>
    </g>
    <g id="xtick_2">
     <g id="line2d_2">
      <g>
       <use xlink:href="#ma76ed1a2d9" x="126.229087" y="289.24" style="stroke: #000000; stroke-width: 0.8"/>
      </g>
     </g>
     <g id="text_2">
      <!-- 200 -->
      <g transform="translate(112.867837 306.877813) scale(0.14 -0.14)">
       <defs>
        <path id="DejaVuSans-32" d="M 1228 531 
L 3431 531 
L 3431 0 
L 469 0 
L 469 531 
Q 828 903 1448 1529 
Q 2069 2156 2228 2338 
Q 2531 2678 2651 2914 
Q 2772 3150 2772 3378 
Q 2772 3750 2511 3984 
Q 2250 4219 1831 4219 
Q 1534 4219 1204 4116 
Q 875 4013 500 3803 
L 500 4441 
Q 881 4594 1212 4672 
Q 1544 4750 1819 4750 
Q 2544 4750 2975 4387 
Q 3406 4025 3406 3419 
Q 3406 3131 3298 2873 
Q 3191 2616 2906 2266 
Q 2828 2175 2409 1742 
Q 1991 1309 1228 531 
z
" transform="scale(0.015625)"/>
       </defs>
       <use xlink:href="#DejaVuSans-32"/>
       <use xlink:href="#DejaVuSans-30" x="63.623047"/>
       <use xlink:href="#DejaVuSans-30" x="127.246094"/>
      </g>
     </g>
    </g>
    <g id="xtick_3">
     <g id="line2d_3">
      <g>
       <use xlink:href="#ma76ed1a2d9" x="170.044083" y="289.24" style="stroke: #000000; stroke-width: 0.8"/>
      </g>
     </g>
     <g id="text_3">
      <!-- 400 -->
      <g transform="translate(156.682833 306.877813) scale(0.14 -0.14)">
       <defs>
        <path id="DejaVuSans-34" d="M 2419 4116 
L 825 1625 
L 2419 1625 
L 2419 4116 
z
M 2253 4666 
L 3047 4666 
L 3047 1625 
L 3713 1625 
L 3713 1100 
L 3047 1100 
L 3047 0 
L 2419 0 
L 2419 1100 
L 313 1100 
L 313 1709 
L 2253 4666 
z
" transform="scale(0.015625)"/>
       </defs>
       <use xlink:href="#DejaVuSans-34"/>
       <use xlink:href="#DejaVuSans-30" x="63.623047"/>
       <use xlink:href="#DejaVuSans-30" x="127.246094"/>
      </g>
     </g>
    </g>
    <g id="xtick_4">
     <g id="line2d_4">
      <g>
       <use xlink:href="#ma76ed1a2d9" x="213.859079" y="289.24" style="stroke: #000000; stroke-width: 0.8"/>
      </g>
     </g>
     <g id="text_4">
      <!-- 600 -->
      <g transform="translate(200.497829 306.877813) scale(0.14 -0.14)">
       <defs>
        <path id="DejaVuSans-36" d="M 2113 2584 
Q 1688 2584 1439 2293 
Q 1191 2003 1191 1497 
Q 1191 994 1439 701 
Q 1688 409 2113 409 
Q 2538 409 2786 701 
Q 3034 994 3034 1497 
Q 3034 2003 2786 2293 
Q 2538 2584 2113 2584 
z
M 3366 4563 
L 3366 3988 
Q 3128 4100 2886 4159 
Q 2644 4219 2406 4219 
Q 1781 4219 1451 3797 
Q 1122 3375 1075 2522 
Q 1259 2794 1537 2939 
Q 1816 3084 2150 3084 
Q 2853 3084 3261 2657 
Q 3669 2231 3669 1497 
Q 3669 778 3244 343 
Q 2819 -91 2113 -91 
Q 1303 -91 875 529 
Q 447 1150 447 2328 
Q 447 3434 972 4092 
Q 1497 4750 2381 4750 
Q 2619 4750 2861 4703 
Q 3103 4656 3366 4563 
z
" transform="scale(0.015625)"/>
       </defs>
       <use xlink:href="#DejaVuSans-36"/>
       <use xlink:href="#DejaVuSans-30" x="63.623047"/>
       <use xlink:href="#DejaVuSans-30" x="127.246094"/>
      </g>
     </g>
    </g>
    <g id="xtick_5">
     <g id="line2d_5">
      <g>
       <use xlink:href="#ma76ed1a2d9" x="257.674075" y="289.24" style="stroke: #000000; stroke-width: 0.8"/>
      </g>
     </g>
     <g id="text_5">
      <!-- 800 -->
      <g transform="translate(244.312825 306.877813) scale(0.14 -0.14)">
       <defs>
        <path id="DejaVuSans-38" d="M 2034 2216 
Q 1584 2216 1326 1975 
Q 1069 1734 1069 1313 
Q 1069 891 1326 650 
Q 1584 409 2034 409 
Q 2484 409 2743 651 
Q 3003 894 3003 1313 
Q 3003 1734 2745 1975 
Q 2488 2216 2034 2216 
z
M 1403 2484 
Q 997 2584 770 2862 
Q 544 3141 544 3541 
Q 544 4100 942 4425 
Q 1341 4750 2034 4750 
Q 2731 4750 3128 4425 
Q 3525 4100 3525 3541 
Q 3525 3141 3298 2862 
Q 3072 2584 2669 2484 
Q 3125 2378 3379 2068 
Q 3634 1759 3634 1313 
Q 3634 634 3220 271 
Q 2806 -91 2034 -91 
Q 1263 -91 848 271 
Q 434 634 434 1313 
Q 434 1759 690 2068 
Q 947 2378 1403 2484 
z
M 1172 3481 
Q 1172 3119 1398 2916 
Q 1625 2713 2034 2713 
Q 2441 2713 2670 2916 
Q 2900 3119 2900 3481 
Q 2900 3844 2670 4047 
Q 2441 4250 2034 4250 
Q 1625 4250 1398 4047 
Q 1172 3844 1172 3481 
z
" transform="scale(0.015625)"/>
       </defs>
       <use xlink:href="#DejaVuSans-38"/>
       <use xlink:href="#DejaVuSans-30" x="63.623047"/>
       <use xlink:href="#DejaVuSans-30" x="127.246094"/>
      </g>
     </g>
    </g>
    <g id="xtick_6">
     <g id="line2d_6">
      <g>
       <use xlink:href="#ma76ed1a2d9" x="301.489071" y="289.24" style="stroke: #000000; stroke-width: 0.8"/>
      </g>
     </g>
     <g id="text_6">
      <!-- 1000 -->
      <g transform="translate(283.674071 306.877813) scale(0.14 -0.14)">
       <defs>
        <path id="DejaVuSans-31" d="M 794 531 
L 1825 531 
L 1825 4091 
L 703 3866 
L 703 4441 
L 1819 4666 
L 2450 4666 
L 2450 531 
L 3481 531 
L 3481 0 
L 794 0 
L 794 531 
z
" transform="scale(0.015625)"/>
       </defs>
       <use xlink:href="#DejaVuSans-31"/>
       <use xlink:href="#DejaVuSans-30" x="63.623047"/>
       <use xlink:href="#DejaVuSans-30" x="127.246094"/>
       <use xlink:href="#DejaVuSans-30" x="190.869141"/>
      </g>
     </g>
    </g>
    <g id="xtick_7">
     <g id="line2d_7">
      <g>
       <use xlink:href="#ma76ed1a2d9" x="345.304067" y="289.24" style="stroke: #000000; stroke-width: 0.8"/>
      </g>
     </g>
     <g id="text_7">
      <!-- 1200 -->
      <g transform="translate(327.489067 306.877813) scale(0.14 -0.14)">
       <use xlink:href="#DejaVuSans-31"/>
       <use xlink:href="#DejaVuSans-32" x="63.623047"/>
       <use xlink:href="#DejaVuSans-30" x="127.246094"/>
       <use xlink:href="#DejaVuSans-30" x="190.869141"/>
      </g>
     </g>
    </g>
    <g id="xtick_8">
     <g id="line2d_8">
      <g>
       <use xlink:href="#ma76ed1a2d9" x="389.119063" y="289.24" style="stroke: #000000; stroke-width: 0.8"/>
      </g>
     </g>
     <g id="text_8">
      <!-- 1400 -->
      <g transform="translate(371.304063 306.877813) scale(0.14 -0.14)">
       <use xlink:href="#DejaVuSans-31"/>
       <use xlink:href="#DejaVuSans-34" x="63.623047"/>
       <use xlink:href="#DejaVuSans-30" x="127.246094"/>
       <use xlink:href="#DejaVuSans-30" x="190.869141"/>
      </g>
     </g>
    </g>
    <g id="xtick_9">
     <g id="line2d_9">
      <g>
       <use xlink:href="#ma76ed1a2d9" x="432.934059" y="289.24" style="stroke: #000000; stroke-width: 0.8"/>
      </g>
     </g>
     <g id="text_9">
      <!-- 1600 -->
      <g transform="translate(415.119059 306.877813) scale(0.14 -0.14)">
       <use xlink:href="#DejaVuSans-31"/>
       <use xlink:href="#DejaVuSans-36" x="63.623047"/>
       <use xlink:href="#DejaVuSans-30" x="127.246094"/>
       <use xlink:href="#DejaVuSans-30" x="190.869141"/>
      </g>
     </g>
    </g>
    <g id="text_10">
     <!-- Timesteps -->
     <g transform="translate(201.016406 330.505937) scale(0.22 -0.22)">
      <defs>
       <path id="DejaVuSans-54" d="M -19 4666 
L 3928 4666 
L 3928 4134 
L 2272 4134 
L 2272 0 
L 1638 0 
L 1638 4134 
L -19 4134 
L -19 4666 
z
" transform="scale(0.015625)"/>
       <path id="DejaVuSans-69" d="M 603 3500 
L 1178 3500 
L 1178 0 
L 603 0 
L 603 3500 
z
M 603 4863 
L 1178 4863 
L 1178 4134 
L 603 4134 
L 603 4863 
z
" transform="scale(0.015625)"/>
       <path id="DejaVuSans-6d" d="M 3328 2828 
Q 3544 3216 3844 3400 
Q 4144 3584 4550 3584 
Q 5097 3584 5394 3201 
Q 5691 2819 5691 2113 
L 5691 0 
L 5113 0 
L 5113 2094 
Q 5113 2597 4934 2840 
Q 4756 3084 4391 3084 
Q 3944 3084 3684 2787 
Q 3425 2491 3425 1978 
L 3425 0 
L 2847 0 
L 2847 2094 
Q 2847 2600 2669 2842 
Q 2491 3084 2119 3084 
Q 1678 3084 1418 2786 
Q 1159 2488 1159 1978 
L 1159 0 
L 581 0 
L 581 3500 
L 1159 3500 
L 1159 2956 
Q 1356 3278 1631 3431 
Q 1906 3584 2284 3584 
Q 2666 3584 2933 3390 
Q 3200 3197 3328 2828 
z
" transform="scale(0.015625)"/>
       <path id="DejaVuSans-65" d="M 3597 1894 
L 3597 1613 
L 953 1613 
Q 991 1019 1311 708 
Q 1631 397 2203 397 
Q 2534 397 2845 478 
Q 3156 559 3463 722 
L 3463 178 
Q 3153 47 2828 -22 
Q 2503 -91 2169 -91 
Q 1331 -91 842 396 
Q 353 884 353 1716 
Q 353 2575 817 3079 
Q 1281 3584 2069 3584 
Q 2775 3584 3186 3129 
Q 3597 2675 3597 1894 
z
M 3022 2063 
Q 3016 2534 2758 2815 
Q 2500 3097 2075 3097 
Q 1594 3097 1305 2825 
Q 1016 2553 972 2059 
L 3022 2063 
z
" transform="scale(0.015625)"/>
       <path id="DejaVuSans-73" d="M 2834 3397 
L 2834 2853 
Q 2591 2978 2328 3040 
Q 2066 3103 1784 3103 
Q 1356 3103 1142 2972 
Q 928 2841 928 2578 
Q 928 2378 1081 2264 
Q 1234 2150 1697 2047 
L 1894 2003 
Q 2506 1872 2764 1633 
Q 3022 1394 3022 966 
Q 3022 478 2636 193 
Q 2250 -91 1575 -91 
Q 1294 -91 989 -36 
Q 684 19 347 128 
L 347 722 
Q 666 556 975 473 
Q 1284 391 1588 391 
Q 1994 391 2212 530 
Q 2431 669 2431 922 
Q 2431 1156 2273 1281 
Q 2116 1406 1581 1522 
L 1381 1569 
Q 847 1681 609 1914 
Q 372 2147 372 2553 
Q 372 3047 722 3315 
Q 1072 3584 1716 3584 
Q 2034 3584 2315 3537 
Q 2597 3491 2834 3397 
z
" transform="scale(0.015625)"/>
       <path id="DejaVuSans-74" d="M 1172 4494 
L 1172 3500 
L 2356 3500 
L 2356 3053 
L 1172 3053 
L 1172 1153 
Q 1172 725 1289 603 
Q 1406 481 1766 481 
L 2356 481 
L 2356 0 
L 1766 0 
Q 1100 0 847 248 
Q 594 497 594 1153 
L 594 3053 
L 172 3053 
L 172 3500 
L 594 3500 
L 594 4494 
L 1172 4494 
z
" transform="scale(0.015625)"/>
       <path id="DejaVuSans-70" d="M 1159 525 
L 1159 -1331 
L 581 -1331 
L 581 3500 
L 1159 3500 
L 1159 2969 
Q 1341 3281 1617 3432 
Q 1894 3584 2278 3584 
Q 2916 3584 3314 3078 
Q 3713 2572 3713 1747 
Q 3713 922 3314 415 
Q 2916 -91 2278 -91 
Q 1894 -91 1617 61 
Q 1341 213 1159 525 
z
M 3116 1747 
Q 3116 2381 2855 2742 
Q 2594 3103 2138 3103 
Q 1681 3103 1420 2742 
Q 1159 2381 1159 1747 
Q 1159 1113 1420 752 
Q 1681 391 2138 391 
Q 2594 391 2855 752 
Q 3116 1113 3116 1747 
z
" transform="scale(0.015625)"/>
      </defs>
      <use xlink:href="#DejaVuSans-54"/>
      <use xlink:href="#DejaVuSans-69" x="57.958984"/>
      <use xlink:href="#DejaVuSans-6d" x="85.742188"/>
      <use xlink:href="#DejaVuSans-65" x="183.154297"/>
      <use xlink:href="#DejaVuSans-73" x="244.677734"/>
      <use xlink:href="#DejaVuSans-74" x="296.777344"/>
      <use xlink:href="#DejaVuSans-65" x="335.986328"/>
      <use xlink:href="#DejaVuSans-70" x="397.509766"/>
      <use xlink:href="#DejaVuSans-73" x="460.986328"/>
     </g>
    </g>
   </g>
   <g id="matplotlib.axis_2">
    <g id="ytick_1">
     <g id="line2d_10">
      <defs>
       <path id="m8d0de879a9" d="M 0 0 
L -3.5 0 
" style="stroke: #000000; stroke-width: 0.8"/>
      </defs>
      <g>
       <use xlink:href="#m8d0de879a9" x="64.91" y="289.027277" style="stroke: #000000; stroke-width: 0.8"/>
      </g>
     </g>
     <g id="text_11">
      <!-- 0.0 -->
      <g transform="translate(35.645625 294.346183) scale(0.14 -0.14)">
       <defs>
        <path id="DejaVuSans-2e" d="M 684 794 
L 1344 794 
L 1344 0 
L 684 0 
L 684 794 
z
" transform="scale(0.015625)"/>
       </defs>
       <use xlink:href="#DejaVuSans-30"/>
       <use xlink:href="#DejaVuSans-2e" x="63.623047"/>
       <use xlink:href="#DejaVuSans-30" x="95.410156"/>
      </g>
     </g>
    </g>
    <g id="ytick_2">
     <g id="line2d_11">
      <g>
       <use xlink:href="#m8d0de879a9" x="64.91" y="238.550115" style="stroke: #000000; stroke-width: 0.8"/>
      </g>
     </g>
     <g id="text_12">
      <!-- 0.2 -->
      <g transform="translate(35.645625 243.869022) scale(0.14 -0.14)">
       <use xlink:href="#DejaVuSans-30"/>
       <use xlink:href="#DejaVuSans-2e" x="63.623047"/>
       <use xlink:href="#DejaVuSans-32" x="95.410156"/>
      </g>
     </g>
    </g>
    <g id="ytick_3">
     <g id="line2d_12">
      <g>
       <use xlink:href="#m8d0de879a9" x="64.91" y="188.072954" style="stroke: #000000; stroke-width: 0.8"/>
      </g>
     </g>
     <g id="text_13">
      <!-- 0.4 -->
      <g transform="translate(35.645625 193.39186) scale(0.14 -0.14)">
       <use xlink:href="#DejaVuSans-30"/>
       <use xlink:href="#DejaVuSans-2e" x="63.623047"/>
       <use xlink:href="#DejaVuSans-34" x="95.410156"/>
      </g>
     </g>
    </g>
    <g id="ytick_4">
     <g id="line2d_13">
      <g>
       <use xlink:href="#m8d0de879a9" x="64.91" y="137.595792" style="stroke: #000000; stroke-width: 0.8"/>
      </g>
     </g>
     <g id="text_14">
      <!-- 0.6 -->
      <g transform="translate(35.645625 142.914699) scale(0.14 -0.14)">
       <use xlink:href="#DejaVuSans-30"/>
       <use xlink:href="#DejaVuSans-2e" x="63.623047"/>
       <use xlink:href="#DejaVuSans-36" x="95.410156"/>
      </g>
     </g>
    </g>
    <g id="ytick_5">
     <g id="line2d_14">
      <g>
       <use xlink:href="#m8d0de879a9" x="64.91" y="87.118631" style="stroke: #000000; stroke-width: 0.8"/>
      </g>
     </g>
     <g id="text_15">
      <!-- 0.8 -->
      <g transform="translate(35.645625 92.437537) scale(0.14 -0.14)">
       <use xlink:href="#DejaVuSans-30"/>
       <use xlink:href="#DejaVuSans-2e" x="63.623047"/>
       <use xlink:href="#DejaVuSans-38" x="95.410156"/>
      </g>
     </g>
    </g>
    <g id="ytick_6">
     <g id="line2d_15">
      <g>
       <use xlink:href="#m8d0de879a9" x="64.91" y="36.64147" style="stroke: #000000; stroke-width: 0.8"/>
      </g>
     </g>
     <g id="text_16">
      <!-- 1.0 -->
      <g transform="translate(35.645625 41.960376) scale(0.14 -0.14)">
       <use xlink:href="#DejaVuSans-31"/>
       <use xlink:href="#DejaVuSans-2e" x="63.623047"/>
       <use xlink:href="#DejaVuSans-30" x="95.410156"/>
      </g>
     </g>
    </g>
    <g id="text_17">
     <!-- rad -->
     <g transform="translate(27.070313 180.98625) rotate(-90) scale(0.22 -0.22)">
      <defs>
       <path id="DejaVuSans-72" d="M 2631 2963 
Q 2534 3019 2420 3045 
Q 2306 3072 2169 3072 
Q 1681 3072 1420 2755 
Q 1159 2438 1159 1844 
L 1159 0 
L 581 0 
L 581 3500 
L 1159 3500 
L 1159 2956 
Q 1341 3275 1631 3429 
Q 1922 3584 2338 3584 
Q 2397 3584 2469 3576 
Q 2541 3569 2628 3553 
L 2631 2963 
z
" transform="scale(0.015625)"/>
       <path id="DejaVuSans-61" d="M 2194 1759 
Q 1497 1759 1228 1600 
Q 959 1441 959 1056 
Q 959 750 1161 570 
Q 1363 391 1709 391 
Q 2188 391 2477 730 
Q 2766 1069 2766 1631 
L 2766 1759 
L 2194 1759 
z
M 3341 1997 
L 3341 0 
L 2766 0 
L 2766 531 
Q 2569 213 2275 61 
Q 1981 -91 1556 -91 
Q 1019 -91 701 211 
Q 384 513 384 1019 
Q 384 1609 779 1909 
Q 1175 2209 1959 2209 
L 2766 2209 
L 2766 2266 
Q 2766 2663 2505 2880 
Q 2244 3097 1772 3097 
Q 1472 3097 1187 3025 
Q 903 2953 641 2809 
L 641 3341 
Q 956 3463 1253 3523 
Q 1550 3584 1831 3584 
Q 2591 3584 2966 3190 
Q 3341 2797 3341 1997 
z
" transform="scale(0.015625)"/>
       <path id="DejaVuSans-64" d="M 2906 2969 
L 2906 4863 
L 3481 4863 
L 3481 0 
L 2906 0 
L 2906 525 
Q 2725 213 2448 61 
Q 2172 -91 1784 -91 
Q 1150 -91 751 415 
Q 353 922 353 1747 
Q 353 2572 751 3078 
Q 1150 3584 1784 3584 
Q 2172 3584 2448 3432 
Q 2725 3281 2906 2969 
z
M 947 1747 
Q 947 1113 1208 752 
Q 1469 391 1925 391 
Q 2381 391 2643 752 
Q 2906 1113 2906 1747 
Q 2906 2381 2643 2742 
Q 2381 3103 1925 3103 
Q 1469 3103 1208 2742 
Q 947 2381 947 1747 
z
" transform="scale(0.015625)"/>
      </defs>
      <use xlink:href="#DejaVuSans-72"/>
      <use xlink:href="#DejaVuSans-61" x="41.113281"/>
      <use xlink:href="#DejaVuSans-64" x="102.392578"/>
     </g>
    </g>
   </g>
   <g id="line2d_16">
    <path d="M 82.414091 66.766236 
L 82.633166 64.645672 
L 82.852241 66.20303 
L 83.290391 63.671459 
L 84.166691 52.827253 
L 84.385766 52.645544 
L 84.823916 50.817768 
L 85.042991 48.098209 
L 85.262066 47.74 
L 85.481141 49.197336 
L 85.700216 48.99466 
L 85.919291 53.209304 
L 86.138366 54.712959 
L 86.357441 54.931333 
L 86.576516 53.103643 
L 86.795591 53.447177 
L 87.014665 56.597073 
L 87.23374 54.66756 
L 87.452815 56.101296 
L 87.67189 56.62815 
L 87.890965 56.452423 
L 88.11004 55.277388 
L 88.329115 55.248979 
L 88.54819 55.335631 
L 88.767265 59.282533 
L 88.98634 58.783471 
L 89.205415 55.581568 
L 89.42449 56.163064 
L 89.643565 55.436159 
L 89.86264 55.624841 
L 90.081715 59.170694 
L 90.73894 63.081999 
L 90.958015 61.430209 
L 91.396165 64.968886 
L 91.61524 67.677163 
L 91.834315 67.862387 
L 92.05339 67.342847 
L 92.272465 64.853353 
L 92.49154 64.514266 
L 92.92969 62.950695 
L 93.148765 64.279958 
L 93.36784 62.141381 
L 93.586915 61.745076 
L 93.80599 61.968128 
L 94.025065 64.882807 
L 94.68229 58.979089 
L 94.901365 60.93012 
L 95.12044 61.079625 
L 95.55859 57.064338 
L 95.777665 56.969851 
L 95.99674 58.92125 
L 96.215815 56.185033 
L 96.43489 56.521342 
L 96.653965 57.435483 
L 96.87304 56.446271 
L 97.092115 56.414326 
L 97.31119 56.688984 
L 97.530265 55.998099 
L 97.74934 57.533605 
L 97.968414 55.692845 
L 98.187489 55.206903 
L 98.406564 56.158822 
L 98.625639 59.178529 
L 98.844714 59.937226 
L 99.063789 64.731375 
L 99.282864 62.720259 
L 99.501939 62.265804 
L 99.940089 68.947193 
L 100.159164 71.626951 
L 100.597314 68.708193 
L 100.816389 69.420181 
L 101.035464 73.23345 
L 101.254539 73.61853 
L 101.692689 77.881662 
L 102.130839 77.21901 
L 102.349914 76.522428 
L 102.568989 76.978058 
L 103.007139 80.817235 
L 103.226214 79.487818 
L 103.445289 73.896988 
L 103.664364 74.113231 
L 103.883439 73.081355 
L 104.321589 75.925704 
L 104.540664 76.16762 
L 104.759739 75.943181 
L 105.197889 69.909179 
L 105.416964 70.150692 
L 105.636039 75.855546 
L 105.855114 76.655135 
L 106.074189 80.095407 
L 106.293264 77.778748 
L 106.950489 78.836617 
L 107.388639 87.657432 
L 107.607714 89.351841 
L 107.826789 86.58816 
L 108.045864 86.981131 
L 108.264939 86.72435 
L 108.484014 91.278979 
L 108.703089 88.608479 
L 109.141238 94.387878 
L 109.360313 91.763723 
L 109.579388 92.552649 
L 109.798463 91.526291 
L 110.017538 93.334867 
L 110.236613 90.962307 
L 110.455688 90.66262 
L 110.674763 89.57786 
L 111.112913 94.772256 
L 111.331988 94.600336 
L 111.551063 93.694817 
L 111.770138 96.265353 
L 111.989213 96.464863 
L 112.208288 97.655947 
L 112.646438 98.584665 
L 112.865513 93.534106 
L 113.084588 95.070093 
L 113.303663 91.130219 
L 113.522738 91.399126 
L 113.741813 94.624097 
L 113.960888 89.046927 
L 114.179963 91.472036 
L 114.399038 90.927172 
L 114.618113 92.794528 
L 114.837188 92.341635 
L 115.056263 95.328806 
L 115.275338 93.417891 
L 115.494413 94.465138 
L 115.932563 91.523655 
L 116.151638 93.575003 
L 116.370713 92.050774 
L 116.589788 91.41344 
L 116.808863 90.186932 
L 117.027938 90.755876 
L 117.247013 90.688948 
L 117.685163 93.640315 
L 117.904238 94.958515 
L 118.123313 95.212526 
L 118.342388 94.518338 
L 118.561463 92.020362 
L 118.999613 94.253786 
L 119.218688 94.059189 
L 119.437763 96.576466 
L 119.656838 94.904511 
L 119.875913 95.935768 
L 120.533137 100.688884 
L 120.752212 104.036509 
L 120.971287 104.977971 
L 121.190362 104.770447 
L 121.628512 108.282615 
L 121.847587 109.103234 
L 122.066662 107.964006 
L 122.285737 109.243023 
L 122.504812 108.724827 
L 122.723887 110.812038 
L 122.942962 111.808315 
L 123.162037 111.75973 
L 123.600187 113.684539 
L 123.819262 112.977312 
L 124.038337 115.114586 
L 124.257412 116.122662 
L 124.476487 115.752387 
L 124.695562 116.584218 
L 124.914637 114.667331 
L 125.133712 116.073688 
L 125.352787 118.678068 
L 125.571862 119.566148 
L 126.010012 117.054811 
L 126.229087 115.306769 
L 126.448162 116.388564 
L 126.667237 114.52427 
L 126.886312 114.080854 
L 127.105387 115.370454 
L 127.543537 113.173803 
L 128.419837 120.900171 
L 128.638912 120.405326 
L 128.857987 123.565292 
L 129.077062 123.001602 
L 129.296137 123.527476 
L 129.734287 125.836318 
L 129.953362 126.226113 
L 130.172437 125.109474 
L 130.391512 124.906662 
L 130.829662 129.488406 
L 131.048736 129.084013 
L 131.267811 131.975659 
L 131.486886 131.286732 
L 131.705961 131.14389 
L 131.925036 132.587646 
L 132.144111 131.372985 
L 132.363186 132.170063 
L 132.582261 134.059997 
L 132.801336 132.990629 
L 133.020411 133.309882 
L 133.239486 132.726713 
L 133.458561 132.871667 
L 133.677636 136.092426 
L 133.896711 136.873384 
L 134.115786 134.903699 
L 134.334861 135.677486 
L 134.773011 135.193175 
L 134.992086 135.194931 
L 135.211161 134.240432 
L 135.430236 135.025933 
L 135.649311 134.304528 
L 135.868386 134.128912 
L 136.306536 134.972887 
L 136.525611 133.835691 
L 136.744686 136.50906 
L 136.963761 137.635437 
L 137.182836 140.366336 
L 137.401911 141.504871 
L 137.620986 141.089974 
L 138.059136 142.002569 
L 138.278211 141.591567 
L 138.497286 142.576814 
L 138.716361 144.958309 
L 138.935436 145.277614 
L 139.373586 141.142951 
L 139.811736 145.417856 
L 140.030811 146.09891 
L 140.249886 144.944878 
L 140.688036 148.54488 
L 140.907111 147.417286 
L 141.126186 148.01296 
L 141.564336 150.810542 
L 141.783411 148.594258 
L 142.002485 147.732223 
L 142.22156 147.350735 
L 142.440635 148.43541 
L 142.65971 147.694502 
L 142.878785 146.543807 
L 143.09786 148.582777 
L 143.316935 146.606547 
L 143.53601 145.832421 
L 143.755085 147.610566 
L 143.97416 147.321235 
L 144.41231 149.402471 
L 144.631385 149.635533 
L 144.85046 150.891156 
L 145.28861 151.242225 
L 145.72676 153.038634 
L 145.945835 151.947212 
L 146.383985 153.902034 
L 146.822135 156.291366 
L 147.04121 156.580163 
L 147.260285 160.509482 
L 147.47936 159.384992 
L 147.91751 160.133855 
L 148.136585 160.063377 
L 148.35566 162.408151 
L 148.574735 161.269882 
L 148.79381 162.151821 
L 149.012885 161.88856 
L 149.23196 162.402209 
L 149.451035 160.479149 
L 149.67011 161.655719 
L 149.889185 161.787439 
L 150.10826 162.740889 
L 150.327335 165.201165 
L 150.54641 163.927456 
L 150.765485 165.49414 
L 151.42271 167.261436 
L 151.641785 167.114465 
L 151.86086 167.426593 
L 152.29901 169.065062 
L 152.518085 168.545479 
L 153.175309 172.529083 
L 153.394384 172.4182 
L 153.613459 171.255168 
L 154.270684 176.245765 
L 154.489759 175.672565 
L 154.708834 176.380066 
L 154.927909 176.22227 
L 155.146984 174.964687 
L 155.366059 175.007838 
L 155.585134 175.192166 
L 155.804209 176.060857 
L 156.023284 175.618593 
L 156.242359 175.816297 
L 156.461434 174.333779 
L 156.680509 173.941036 
L 157.118659 174.578761 
L 157.775884 178.783353 
L 157.994959 179.234988 
L 158.214034 180.463427 
L 158.433109 179.124663 
L 158.871259 183.091717 
L 159.090334 182.389713 
L 159.309409 183.146997 
L 159.747559 183.774543 
L 159.966634 183.94032 
L 160.404784 185.43509 
L 160.623859 187.70275 
L 160.842934 188.26593 
L 161.281084 191.698991 
L 161.500159 191.105991 
L 161.938309 191.57543 
L 162.157384 191.395711 
L 162.376459 193.159229 
L 162.595534 193.898312 
L 162.814609 194.183027 
L 163.252759 193.074098 
L 163.471834 193.074427 
L 163.690909 194.040014 
L 163.909984 193.45059 
L 164.129058 193.471163 
L 164.567208 194.619719 
L 164.786283 193.326649 
L 165.005358 193.31069 
L 165.224433 194.296068 
L 165.443508 194.724978 
L 165.662583 194.047023 
L 166.100733 196.241358 
L 166.319808 195.860716 
L 166.538883 195.712733 
L 166.757958 194.625478 
L 166.977033 195.457645 
L 167.196108 195.637578 
L 167.415183 194.231979 
L 168.072408 198.042372 
L 168.291483 197.666849 
L 168.510558 197.877921 
L 168.729633 199.104839 
L 168.948708 199.45356 
L 169.386858 202.272977 
L 169.825008 204.454544 
L 170.263158 205.46893 
L 170.701308 208.010708 
L 170.920383 208.142528 
L 171.139458 209.599261 
L 171.358533 209.806232 
L 171.577608 209.465699 
L 171.796683 211.288857 
L 172.015758 210.845233 
L 172.672983 212.460894 
L 172.892058 212.179651 
L 173.330208 213.762033 
L 173.549283 213.645145 
L 173.768358 214.922548 
L 173.987433 214.673185 
L 174.425583 214.715299 
L 174.644658 215.11087 
L 174.863733 214.716184 
L 175.082807 215.139386 
L 175.301882 216.067408 
L 175.520957 215.613913 
L 175.740032 216.396784 
L 175.959107 215.626555 
L 176.178182 216.023997 
L 176.397257 217.206384 
L 176.616332 216.333008 
L 176.835407 216.394433 
L 177.054482 217.771848 
L 177.273557 218.154409 
L 177.492632 218.147517 
L 177.711707 218.980342 
L 177.930782 219.339874 
L 178.149857 220.031171 
L 178.368932 220.155569 
L 178.588007 220.016912 
L 178.807082 221.901387 
L 179.245232 221.637618 
L 179.464307 223.087821 
L 179.683382 223.18719 
L 179.902457 223.704593 
L 180.121532 223.318981 
L 180.340607 224.68346 
L 180.559682 225.288874 
L 180.778757 226.267407 
L 180.997832 226.605586 
L 181.435982 228.37105 
L 182.093207 229.480963 
L 182.312282 230.740729 
L 182.969507 230.54973 
L 183.407657 230.008503 
L 183.626732 229.281251 
L 184.064882 229.842344 
L 184.503032 229.011453 
L 184.722107 229.27935 
L 184.941182 230.223466 
L 185.160257 230.049561 
L 185.379332 230.297252 
L 185.817482 232.903385 
L 186.036556 232.659173 
L 186.255631 233.739839 
L 186.474706 234.120962 
L 186.693781 234.808888 
L 187.131931 234.041172 
L 187.351006 233.851994 
L 187.570081 234.424192 
L 187.789156 234.478039 
L 188.008231 234.226845 
L 188.227306 234.474515 
L 188.446381 234.214156 
L 188.884531 234.713408 
L 189.760831 239.483212 
L 189.979906 239.323099 
L 191.075281 241.997638 
L 191.294356 242.419363 
L 191.951581 241.683803 
L 192.170656 242.262847 
L 192.389731 242.339086 
L 193.046956 243.728763 
L 193.485106 242.845424 
L 193.923256 244.092994 
L 194.142331 244.496959 
L 194.580481 244.266766 
L 194.799556 244.058935 
L 195.675856 246.103533 
L 195.894931 245.701199 
L 196.114006 245.99353 
L 196.333081 246.023221 
L 196.552156 246.738554 
L 196.771231 247.069187 
L 196.990305 247.751982 
L 197.64753 248.370279 
L 197.866605 248.994094 
L 198.08568 249.204523 
L 198.304755 248.750401 
L 198.52383 249.116363 
L 198.742905 248.921985 
L 198.96198 249.762773 
L 199.181055 249.499135 
L 199.40013 248.970451 
L 199.619205 248.85587 
L 200.057355 248.893358 
L 200.495505 249.7165 
L 200.933655 250.193771 
L 201.15273 249.789086 
L 201.371805 249.831322 
L 201.59088 250.158488 
L 201.809955 250.095165 
L 202.02903 250.822128 
L 202.46718 251.028924 
L 202.686255 251.314805 
L 202.90533 251.894432 
L 203.34348 252.358866 
L 203.562555 252.966992 
L 203.78163 252.822513 
L 204.000705 253.160129 
L 204.21978 252.647371 
L 204.877005 253.292638 
L 205.09608 252.86803 
L 205.53423 254.015994 
L 205.753305 253.755173 
L 205.97238 254.689457 
L 206.191455 254.47747 
L 206.629605 254.78385 
L 206.84868 255.205954 
L 207.067755 254.91226 
L 207.28683 254.962081 
L 207.72498 254.760947 
L 207.944054 255.230314 
L 208.163129 255.284034 
L 208.820354 256.240381 
L 209.039429 256.255581 
L 209.915729 257.252153 
L 210.134804 257.263274 
L 210.572954 256.801009 
L 210.792029 256.800056 
L 211.230179 256.143241 
L 211.449254 256.166134 
L 211.887404 256.553988 
L 212.106479 256.335919 
L 212.763704 257.448154 
L 212.982779 257.509653 
L 213.420929 258.350643 
L 213.859079 257.974902 
L 214.078154 257.562493 
L 214.297229 257.957994 
L 214.516304 257.729153 
L 214.735379 257.71121 
L 214.954454 257.532133 
L 215.173529 257.989553 
L 215.392604 257.8559 
L 215.611679 257.867063 
L 216.049829 258.683559 
L 216.268904 258.942416 
L 216.487979 258.610482 
L 217.145204 258.97344 
L 217.364279 258.633932 
L 217.583354 258.709476 
L 218.021504 259.241043 
L 218.240579 259.300359 
L 218.459654 259.223934 
L 218.678729 259.63136 
L 218.897804 259.576487 
L 219.116878 259.654294 
L 219.555028 259.318639 
L 219.774103 259.482521 
L 219.993178 259.369958 
L 220.212253 259.055972 
L 220.431328 259.06267 
L 220.650403 259.273799 
L 220.869478 258.749241 
L 221.088553 258.720034 
L 221.526703 258.923774 
L 221.745778 259.173117 
L 221.964853 258.668448 
L 222.183928 258.497727 
L 222.403003 258.730107 
L 222.622078 258.260904 
L 222.841153 258.1131 
L 223.060228 258.603713 
L 223.279303 258.558748 
L 223.498378 258.192239 
L 223.717453 258.532972 
L 224.155603 258.833956 
L 224.374678 259.197458 
L 224.812828 258.903619 
L 225.031903 259.027612 
L 225.250978 258.553185 
L 225.470053 258.542049 
L 225.908203 258.040391 
L 226.127278 257.66293 
L 226.346353 257.555424 
L 226.565428 256.974763 
L 226.784503 257.068645 
L 227.003578 257.564901 
L 227.879878 257.849368 
L 228.318028 258.547173 
L 228.975253 259.339606 
L 229.413403 258.242512 
L 229.851553 258.136562 
L 230.070627 258.237888 
L 230.289702 257.928972 
L 230.508777 258.066395 
L 230.727852 258.041468 
L 231.166002 257.527495 
L 231.385077 257.757583 
L 231.604152 257.818709 
L 232.261377 257.337755 
L 232.699527 256.900616 
L 233.356752 256.683628 
L 233.575827 256.452906 
L 233.794902 256.842588 
L 234.013977 256.824107 
L 234.233052 256.925745 
L 234.452127 256.371552 
L 234.671202 256.747236 
L 234.890277 256.800352 
L 235.109352 256.704744 
L 235.328427 256.816599 
L 235.547502 256.785797 
L 235.766577 256.975445 
L 235.985652 256.822592 
L 236.204727 257.322651 
L 236.423802 257.169011 
L 236.642877 257.851259 
L 236.861952 257.481065 
L 237.081027 257.471119 
L 237.519177 256.935942 
L 237.738252 257.14399 
L 237.957327 256.848894 
L 238.614552 254.662129 
L 238.833627 254.707758 
L 239.052702 255.018027 
L 239.271777 254.922286 
L 239.709927 254.992991 
L 239.929002 254.705146 
L 240.367152 255.087477 
L 240.586227 255.450859 
L 240.805302 256.072032 
L 241.243451 255.380455 
L 241.900676 255.597468 
L 242.119751 255.838137 
L 242.338826 255.642876 
L 242.557901 255.977396 
L 242.996051 255.165569 
L 243.215126 255.175788 
L 243.872351 253.551824 
L 244.091426 253.501635 
L 244.310501 252.591773 
L 244.529576 252.775501 
L 244.748651 252.798266 
L 245.186801 253.114606 
L 245.405876 252.818908 
L 245.624951 253.191626 
L 245.844026 253.035711 
L 246.501251 253.6016 
L 246.720326 253.46874 
L 246.939401 253.0293 
L 247.158476 252.949894 
L 247.377551 252.45609 
L 247.596626 252.987809 
L 247.815701 253.133821 
L 248.034776 252.861337 
L 248.472926 253.470893 
L 248.911076 252.636412 
L 249.130151 252.459978 
L 250.006451 253.053112 
L 250.444601 253.024979 
L 250.663676 252.797675 
L 250.882751 252.882704 
L 251.101826 252.736152 
L 251.320901 252.891516 
L 251.539976 252.570602 
L 251.759051 252.97285 
L 252.1972 251.84763 
L 252.416275 252.227726 
L 252.63535 251.55419 
L 252.854425 251.534868 
L 253.0735 252.00861 
L 253.292575 251.642721 
L 253.51165 251.799942 
L 253.730725 252.204122 
L 253.9498 251.975316 
L 254.168875 252.320053 
L 254.38795 252.184237 
L 254.607025 251.908599 
L 254.8261 252.368522 
L 255.045175 252.30988 
L 255.26425 251.935497 
L 255.483325 252.863703 
L 255.7024 252.607661 
L 255.921475 252.738389 
L 256.14055 253.026195 
L 256.359625 252.789429 
L 256.5787 253.608093 
L 256.797775 253.876295 
L 257.01685 253.57452 
L 257.235925 254.051613 
L 257.455 254.119791 
L 257.674075 253.974098 
L 257.89315 254.308104 
L 258.112225 254.111484 
L 258.3313 254.159386 
L 258.550375 254.504647 
L 258.76945 253.673626 
L 258.988525 253.499049 
L 259.2076 254.040434 
L 259.426675 254.076877 
L 259.64575 254.557744 
L 259.864825 254.505044 
L 260.0839 254.765394 
L 260.52205 254.553242 
L 260.741125 254.716167 
L 260.9602 255.736672 
L 261.179275 255.974168 
L 261.39835 255.817853 
L 261.617425 255.851278 
L 261.8365 255.396091 
L 262.055575 255.448529 
L 262.27465 254.854789 
L 262.493725 254.979247 
L 262.7128 254.88836 
L 263.150949 254.228459 
L 263.370024 254.399041 
L 263.589099 254.718204 
L 263.808174 254.411676 
L 264.027249 254.839496 
L 264.246324 254.905998 
L 264.465399 255.403748 
L 264.684474 255.476268 
L 265.122624 255.381078 
L 265.560774 255.807351 
L 265.779849 255.566017 
L 266.656149 256.348705 
L 266.875224 256.843547 
L 267.094299 256.891363 
L 267.313374 256.689919 
L 267.532449 256.754694 
L 267.751524 256.971735 
L 267.970599 257.432587 
L 268.408749 257.232945 
L 268.846899 257.896003 
L 269.065974 257.779915 
L 269.942274 259.54633 
L 270.161349 259.461965 
L 270.380424 259.710348 
L 270.599499 259.48876 
L 270.818574 259.821038 
L 271.475799 259.61758 
L 271.913949 258.836228 
L 272.352099 258.627054 
L 272.571174 259.006645 
L 272.790249 259.065275 
L 273.228399 258.494633 
L 273.447474 258.546062 
L 274.104698 259.200558 
L 274.323773 259.15019 
L 274.761923 259.759804 
L 275.200073 260.086409 
L 276.076373 260.522556 
L 276.514523 261.3331 
L 276.952673 260.927847 
L 277.390823 261.139164 
L 277.828973 262.024685 
L 278.048048 261.934371 
L 278.705273 262.720416 
L 279.143423 262.752245 
L 279.581573 263.453033 
L 279.800648 263.343488 
L 280.238798 263.63081 
L 280.457873 263.488466 
L 280.676948 263.623132 
L 280.896023 263.401251 
L 281.553248 263.780966 
L 281.772323 263.820206 
L 281.991398 264.008439 
L 282.210473 263.797243 
L 282.429548 263.896189 
L 282.648623 264.383932 
L 282.867698 264.00232 
L 283.086773 264.009955 
L 283.963073 264.450739 
L 284.182148 264.252661 
L 284.401223 264.290292 
L 284.620298 264.506104 
L 284.839373 264.39228 
L 285.277522 265.229921 
L 285.496597 265.159691 
L 285.715672 265.379782 
L 285.934747 265.276339 
L 286.591972 266.419611 
L 286.811047 266.699031 
L 287.030122 266.755948 
L 287.249197 266.636353 
L 287.468272 266.161582 
L 287.906422 266.677689 
L 288.563647 266.201165 
L 288.782722 266.417424 
L 289.001797 265.939285 
L 289.439947 265.88846 
L 289.878097 266.513864 
L 290.097172 266.251751 
L 290.754397 267.004215 
L 290.973472 266.849952 
L 291.411622 267.728484 
L 291.630697 267.689616 
L 291.849772 267.992809 
L 292.506997 267.951669 
L 292.726072 267.683519 
L 292.945147 267.711821 
L 293.383297 267.580495 
L 293.602372 267.571745 
L 293.821447 267.870065 
L 294.040522 267.711437 
L 294.259597 267.714907 
L 294.916822 268.587979 
L 295.354972 268.745458 
L 295.793122 268.648159 
L 296.012196 268.875391 
L 296.450346 268.605389 
L 296.669421 268.13963 
L 296.888496 268.202526 
L 297.107571 268.540487 
L 297.326646 268.433433 
L 297.764796 269.111423 
L 298.422021 269.149065 
L 298.641096 269.20162 
L 298.860171 269.487524 
L 299.079246 269.38368 
L 299.298321 269.099841 
L 299.517396 269.056249 
L 299.955546 268.718859 
L 300.393696 268.8844 
L 300.612771 269.387898 
L 301.050921 269.601353 
L 301.708146 270.177292 
L 302.146296 270.48408 
L 302.584446 270.023872 
L 302.803521 269.887526 
L 303.022596 270.153641 
L 303.241671 270.195599 
L 303.460746 270.114312 
L 303.898896 270.127815 
L 304.117971 270.073411 
L 304.337046 270.24814 
L 304.556121 270.732313 
L 304.775196 270.929474 
L 304.994271 270.812542 
L 305.213346 270.824741 
L 305.432421 271.140872 
L 305.651496 270.981775 
L 306.089646 271.269053 
L 306.527796 271.616956 
L 306.965946 271.314065 
L 307.404095 271.233637 
L 307.62317 270.896461 
L 307.842245 270.979615 
L 308.280395 270.963704 
L 308.49947 270.990337 
L 308.718545 270.708338 
L 308.93762 270.703398 
L 309.156695 270.964369 
L 309.37577 270.953006 
L 310.032995 271.540102 
L 310.909295 271.400658 
L 311.12837 271.673308 
L 311.347445 271.605918 
L 311.56652 271.901239 
L 311.785595 271.880426 
L 312.00467 272.221553 
L 312.223745 271.948307 
L 312.44282 272.029861 
L 312.661895 271.854896 
L 312.88097 272.081346 
L 313.538195 272.091956 
L 314.19542 271.713373 
L 314.414495 271.973595 
L 314.63357 272.019368 
L 314.852645 272.248701 
L 315.07172 272.065548 
L 315.290795 272.096158 
L 315.50987 271.879735 
L 316.167095 271.902092 
L 316.605245 271.847016 
L 317.26247 272.337847 
L 317.70062 272.949867 
L 318.138769 273.019866 
L 318.357844 273.216583 
L 318.795994 273.130676 
L 319.015069 273.113665 
L 319.453219 272.863712 
L 319.891369 272.869098 
L 320.110444 273.150149 
L 320.767669 273.099373 
L 320.986744 273.364884 
L 322.082119 273.375378 
L 322.520269 273.076696 
L 322.958419 273.246983 
L 323.834719 272.998245 
L 324.053794 273.062371 
L 324.491944 272.944471 
L 324.711019 273.136629 
L 324.930094 272.919485 
L 325.368244 272.990035 
L 325.806394 272.81755 
L 326.025469 273.215707 
L 326.244544 273.276226 
L 326.463619 273.066438 
L 327.120844 273.287256 
L 327.558994 273.57382 
L 327.997144 273.544987 
L 328.216219 273.240703 
L 328.435294 273.19301 
L 328.873444 273.629344 
L 329.092518 273.449541 
L 329.311593 273.458181 
L 329.749743 273.144379 
L 330.406968 273.346411 
L 330.845118 272.98443 
L 331.064193 272.921694 
L 331.283268 273.140467 
L 331.721418 273.044828 
L 331.940493 273.161288 
L 332.159568 272.88129 
L 332.378643 273.080783 
L 332.597718 272.888057 
L 332.816793 273.147856 
L 333.912168 273.619688 
L 334.131243 273.47367 
L 334.350318 273.660627 
L 334.569393 273.595712 
L 334.788468 273.664404 
L 335.007543 273.456638 
L 335.226618 273.502077 
L 335.445693 273.324944 
L 335.664768 273.296854 
L 336.102918 273.018422 
L 336.321993 273.091243 
L 336.541068 273.318489 
L 336.760143 273.246738 
L 336.979218 273.357361 
L 337.417368 273.357702 
L 337.636443 273.509788 
L 337.855518 273.518181 
L 338.074593 273.746813 
L 338.293668 273.701816 
L 338.512743 273.868094 
L 338.731818 273.654218 
L 338.950893 273.72547 
L 339.169968 273.563352 
L 339.389043 273.541195 
L 339.827193 273.375191 
L 340.265342 273.3393 
L 340.484417 273.384652 
L 340.703492 273.092718 
L 341.579792 273.674704 
L 341.798867 273.621614 
L 343.332392 274.365705 
L 343.551467 274.544719 
L 343.770542 274.505243 
L 343.989617 274.778754 
L 344.208692 274.708838 
L 344.427767 274.370046 
L 344.865917 274.263138 
L 345.742217 273.321653 
L 345.961292 273.553604 
L 346.399442 273.317621 
L 346.837592 273.652469 
L 347.275742 273.653083 
L 348.590192 273.921221 
L 349.247417 273.69292 
L 349.904642 274.331782 
L 350.561867 274.263142 
L 351.000016 274.415375 
L 351.219091 274.342268 
L 351.438166 274.446022 
L 351.876316 274.089822 
L 352.095391 274.182746 
L 352.314466 274.486831 
L 352.533541 274.372746 
L 354.286141 275.259459 
L 356.695966 275.094695 
L 356.915041 275.267776 
L 357.134116 275.188309 
L 357.353191 275.319355 
L 357.572266 275.249594 
L 357.791341 275.383722 
L 358.886716 275.00647 
L 359.324866 275.008453 
L 359.543941 274.885006 
L 359.763016 275.130907 
L 359.982091 275.182283 
L 360.420241 275.395621 
L 360.858391 275.723299 
L 361.077466 275.637857 
L 361.296541 275.688335 
L 361.515616 275.524664 
L 362.17284 275.488261 
L 362.830065 275.67303 
L 363.04914 275.700863 
L 363.268215 275.920112 
L 363.48729 275.799727 
L 363.706365 276.049093 
L 363.92544 276.09465 
L 364.36359 276.048265 
L 364.80174 276.142499 
L 365.020815 276.131548 
L 365.23989 275.899712 
L 365.67804 275.963622 
L 366.11619 276.099128 
L 366.55434 276.137076 
L 366.773415 275.888735 
L 366.99249 275.909797 
L 367.649715 276.365841 
L 369.18324 276.913665 
L 369.62139 276.503756 
L 370.05954 276.673011 
L 370.278615 276.452945 
L 370.49769 276.712607 
L 370.93584 276.504134 
L 371.37399 276.504777 
L 371.593065 276.587866 
L 371.81214 276.804578 
L 372.469365 276.892028 
L 372.68844 276.709376 
L 372.907515 276.805729 
L 373.783814 276.63589 
L 374.441039 276.170807 
L 374.879189 276.145068 
L 375.317339 276.296944 
L 375.536414 276.300169 
L 375.755489 276.427034 
L 375.974564 276.384016 
L 376.631789 276.740621 
L 377.069939 276.802414 
L 377.508089 276.657492 
L 377.946239 276.691489 
L 378.165314 276.820459 
L 378.384389 276.753147 
L 378.822539 276.859742 
L 379.260689 276.836974 
L 379.917914 277.142599 
L 380.136989 277.052213 
L 380.575139 277.405247 
L 380.794214 277.267286 
L 381.013289 277.265653 
L 381.232364 277.403344 
L 382.327739 277.334378 
L 382.546814 277.091421 
L 383.204039 277.018689 
L 383.642189 276.802893 
L 384.518488 276.70762 
L 384.737563 276.865281 
L 385.175713 276.476127 
L 386.271088 277.184537 
L 386.490163 277.157875 
L 386.709238 277.256512 
L 386.928313 277.157643 
L 387.366463 277.337237 
L 388.242763 276.77458 
L 388.461838 276.696277 
L 389.119063 276.894245 
L 390.652588 277.479066 
L 390.871663 277.566913 
L 391.528888 277.368002 
L 391.747963 277.509137 
L 392.624263 277.540626 
L 393.281488 277.513908 
L 393.500563 277.348909 
L 393.719638 277.478579 
L 394.157788 276.988288 
L 394.376863 277.108706 
L 394.815013 276.908072 
L 395.034087 277.007373 
L 395.253162 276.773983 
L 395.910387 276.846285 
L 396.129462 276.880939 
L 396.348537 277.137624 
L 397.662987 277.160047 
L 398.320212 277.139125 
L 399.853737 276.814918 
L 400.072812 276.985874 
L 400.730037 276.679777 
L 400.949112 276.757347 
L 401.168187 276.714118 
L 401.387262 276.814687 
L 401.825412 277.187554 
L 402.482637 277.196285 
L 402.920787 277.490788 
L 403.358937 277.520165 
L 404.235237 277.641793 
L 404.454312 277.74 
L 404.892462 277.361162 
L 405.111537 277.227952 
L 405.549687 277.537262 
L 405.987837 277.417874 
L 406.645061 276.811454 
L 406.864136 277.081587 
L 407.521361 276.968158 
L 408.178586 277.006816 
L 408.397661 277.013008 
L 408.835811 277.240238 
L 409.054886 277.084382 
L 409.493036 277.09345 
L 409.712111 276.910189 
L 410.807486 276.870119 
L 411.464711 277.302588 
L 412.341011 277.31327 
L 412.560086 277.127588 
L 412.779161 277.24752 
L 413.655461 276.629487 
L 413.874536 276.615164 
L 414.093611 276.790406 
L 414.531761 276.616121 
L 414.969911 276.540752 
L 415.188986 276.685683 
L 415.408061 276.669751 
L 415.627136 276.782442 
L 415.846211 276.710063 
L 416.065286 276.787744 
L 416.284361 276.698312 
L 416.503436 276.772015 
L 416.722511 276.609518 
L 417.16066 276.806973 
L 417.379735 276.661085 
L 418.03696 277.01488 
L 418.256035 276.911526 
L 418.91326 277.188228 
L 419.35141 277.002514 
L 419.78956 277.380467 
L 421.10401 277.241034 
L 421.323085 277.477713 
L 422.41846 276.948193 
L 422.637535 277.078008 
L 422.85661 276.963657 
L 423.29476 277.083417 
L 423.513835 276.968635 
L 423.73291 277.141203 
L 424.828285 276.869412 
L 425.48551 276.723348 
L 426.142735 277.003113 
L 426.580885 277.15341 
L 427.457185 277.388046 
L 428.333484 277.111008 
L 429.209784 277.199912 
L 429.428859 277.226334 
L 429.867009 277.4117 
L 430.086084 277.53111 
L 430.962384 277.302121 
L 431.181459 277.000677 
L 431.400534 277.015234 
L 431.838684 276.676823 
L 432.057759 276.688657 
L 432.276834 276.334518 
L 432.495909 276.28632 
L 432.495909 276.28632 
" clip-path="url(#pc6aafdccc6)" style="fill: none; stroke: #0000ff; stroke-width: 1.5; stroke-linecap: square"/>
   </g>
   <g id="line2d_17">
    <path d="M 64.91 289.027277 
L 450 289.027277 
" clip-path="url(#pc6aafdccc6)" style="fill: none; stroke-dasharray: 0.37,0.16; stroke-dashoffset: 0; stroke: #000000; stroke-width: 0.1"/>
   </g>
   <g id="patch_3">
    <path d="M 64.91 289.24 
L 64.91 36.24 
" style="fill: none; stroke: #000000; stroke-width: 0.8; stroke-linejoin: miter; stroke-linecap: square"/>
   </g>
   <g id="patch_4">
    <path d="M 450 289.24 
L 450 36.24 
" style="fill: none; stroke: #000000; stroke-width: 0.8; stroke-linejoin: miter; stroke-linecap: square"/>
   </g>
   <g id="patch_5">
    <path d="M 64.91 289.24 
L 450 289.24 
" style="fill: none; stroke: #000000; stroke-width: 0.8; stroke-linejoin: miter; stroke-linecap: square"/>
   </g>
   <g id="patch_6">
    <path d="M 64.91 36.24 
L 450 36.24 
" style="fill: none; stroke: #000000; stroke-width: 0.8; stroke-linejoin: miter; stroke-linecap: square"/>
   </g>
   <g id="text_18">
    <!-- Quaternion Differences -->
    <g transform="translate(106.646875 30.24) scale(0.26 -0.26)">
     <defs>
      <path id="DejaVuSans-51" d="M 2522 4238 
Q 1834 4238 1429 3725 
Q 1025 3213 1025 2328 
Q 1025 1447 1429 934 
Q 1834 422 2522 422 
Q 3209 422 3611 934 
Q 4013 1447 4013 2328 
Q 4013 3213 3611 3725 
Q 3209 4238 2522 4238 
z
M 3406 84 
L 4238 -825 
L 3475 -825 
L 2784 -78 
Q 2681 -84 2626 -87 
Q 2572 -91 2522 -91 
Q 1538 -91 948 567 
Q 359 1225 359 2328 
Q 359 3434 948 4092 
Q 1538 4750 2522 4750 
Q 3503 4750 4090 4092 
Q 4678 3434 4678 2328 
Q 4678 1516 4351 937 
Q 4025 359 3406 84 
z
" transform="scale(0.015625)"/>
      <path id="DejaVuSans-75" d="M 544 1381 
L 544 3500 
L 1119 3500 
L 1119 1403 
Q 1119 906 1312 657 
Q 1506 409 1894 409 
Q 2359 409 2629 706 
Q 2900 1003 2900 1516 
L 2900 3500 
L 3475 3500 
L 3475 0 
L 2900 0 
L 2900 538 
Q 2691 219 2414 64 
Q 2138 -91 1772 -91 
Q 1169 -91 856 284 
Q 544 659 544 1381 
z
M 1991 3584 
L 1991 3584 
z
" transform="scale(0.015625)"/>
      <path id="DejaVuSans-6e" d="M 3513 2113 
L 3513 0 
L 2938 0 
L 2938 2094 
Q 2938 2591 2744 2837 
Q 2550 3084 2163 3084 
Q 1697 3084 1428 2787 
Q 1159 2491 1159 1978 
L 1159 0 
L 581 0 
L 581 3500 
L 1159 3500 
L 1159 2956 
Q 1366 3272 1645 3428 
Q 1925 3584 2291 3584 
Q 2894 3584 3203 3211 
Q 3513 2838 3513 2113 
z
" transform="scale(0.015625)"/>
      <path id="DejaVuSans-6f" d="M 1959 3097 
Q 1497 3097 1228 2736 
Q 959 2375 959 1747 
Q 959 1119 1226 758 
Q 1494 397 1959 397 
Q 2419 397 2687 759 
Q 2956 1122 2956 1747 
Q 2956 2369 2687 2733 
Q 2419 3097 1959 3097 
z
M 1959 3584 
Q 2709 3584 3137 3096 
Q 3566 2609 3566 1747 
Q 3566 888 3137 398 
Q 2709 -91 1959 -91 
Q 1206 -91 779 398 
Q 353 888 353 1747 
Q 353 2609 779 3096 
Q 1206 3584 1959 3584 
z
" transform="scale(0.015625)"/>
      <path id="DejaVuSans-20" transform="scale(0.015625)"/>
      <path id="DejaVuSans-44" d="M 1259 4147 
L 1259 519 
L 2022 519 
Q 2988 519 3436 956 
Q 3884 1394 3884 2338 
Q 3884 3275 3436 3711 
Q 2988 4147 2022 4147 
L 1259 4147 
z
M 628 4666 
L 1925 4666 
Q 3281 4666 3915 4102 
Q 4550 3538 4550 2338 
Q 4550 1131 3912 565 
Q 3275 0 1925 0 
L 628 0 
L 628 4666 
z
" transform="scale(0.015625)"/>
      <path id="DejaVuSans-66" d="M 2375 4863 
L 2375 4384 
L 1825 4384 
Q 1516 4384 1395 4259 
Q 1275 4134 1275 3809 
L 1275 3500 
L 2222 3500 
L 2222 3053 
L 1275 3053 
L 1275 0 
L 697 0 
L 697 3053 
L 147 3053 
L 147 3500 
L 697 3500 
L 697 3744 
Q 697 4328 969 4595 
Q 1241 4863 1831 4863 
L 2375 4863 
z
" transform="scale(0.015625)"/>
      <path id="DejaVuSans-63" d="M 3122 3366 
L 3122 2828 
Q 2878 2963 2633 3030 
Q 2388 3097 2138 3097 
Q 1578 3097 1268 2742 
Q 959 2388 959 1747 
Q 959 1106 1268 751 
Q 1578 397 2138 397 
Q 2388 397 2633 464 
Q 2878 531 3122 666 
L 3122 134 
Q 2881 22 2623 -34 
Q 2366 -91 2075 -91 
Q 1284 -91 818 406 
Q 353 903 353 1747 
Q 353 2603 823 3093 
Q 1294 3584 2113 3584 
Q 2378 3584 2631 3529 
Q 2884 3475 3122 3366 
z
" transform="scale(0.015625)"/>
     </defs>
     <use xlink:href="#DejaVuSans-51"/>
     <use xlink:href="#DejaVuSans-75" x="78.710938"/>
     <use xlink:href="#DejaVuSans-61" x="142.089844"/>
     <use xlink:href="#DejaVuSans-74" x="203.369141"/>
     <use xlink:href="#DejaVuSans-65" x="242.578125"/>
     <use xlink:href="#DejaVuSans-72" x="304.101562"/>
     <use xlink:href="#DejaVuSans-6e" x="343.464844"/>
     <use xlink:href="#DejaVuSans-69" x="406.84375"/>
     <use xlink:href="#DejaVuSans-6f" x="434.626953"/>
     <use xlink:href="#DejaVuSans-6e" x="495.808594"/>
     <use xlink:href="#DejaVuSans-20" x="559.1875"/>
     <use xlink:href="#DejaVuSans-44" x="590.974609"/>
     <use xlink:href="#DejaVuSans-69" x="667.976562"/>
     <use xlink:href="#DejaVuSans-66" x="695.759766"/>
     <use xlink:href="#DejaVuSans-66" x="730.964844"/>
     <use xlink:href="#DejaVuSans-65" x="766.169922"/>
     <use xlink:href="#DejaVuSans-72" x="827.693359"/>
     <use xlink:href="#DejaVuSans-65" x="866.556641"/>
     <use xlink:href="#DejaVuSans-6e" x="928.080078"/>
     <use xlink:href="#DejaVuSans-63" x="991.458984"/>
     <use xlink:href="#DejaVuSans-65" x="1046.439453"/>
     <use xlink:href="#DejaVuSans-73" x="1107.962891"/>
    </g>
   </g>
  </g>
 </g>
 <defs>
  <clipPath id="pc6aafdccc6">
   <rect x="64.91" y="36.24" width="385.09" height="253"/>
  </clipPath>
 </defs>
</svg>
