<?xml version="1.0" encoding="utf-8" standalone="no"?>
<!DOCTYPE svg PUBLIC "-//W3C//DTD SVG 1.1//EN"
  "http://www.w3.org/Graphics/SVG/1.1/DTD/svg11.dtd">
<svg xmlns:xlink="http://www.w3.org/1999/xlink" width="460.8pt" height="345.6pt" viewBox="0 0 460.8 345.6" xmlns="http://www.w3.org/2000/svg" version="1.1">
 <metadata>
  <rdf:RDF xmlns:dc="http://purl.org/dc/elements/1.1/" xmlns:cc="http://creativecommons.org/ns#" xmlns:rdf="http://www.w3.org/1999/02/22-rdf-syntax-ns#">
   <cc:Work>
    <dc:type rdf:resource="http://purl.org/dc/dcmitype/StillImage"/>
    <dc:date>2024-10-24T15:25:37.195089</dc:date>
    <dc:format>image/svg+xml</dc:format>
    <dc:creator>
     <cc:Agent>
      <dc:title>Matplotlib v3.7.5, https://matplotlib.org/</dc:title>
     </cc:Agent>
    </dc:creator>
   </cc:Work>
  </rdf:RDF>
 </metadata>
 <defs>
  <style type="text/css">*{stroke-linejoin: round; stroke-linecap: butt}</style>
 </defs>
 <g id="figure_1">
  <g id="patch_1">
   <path d="M 0 345.6 
L 460.8 345.6 
L 460.8 0 
L 0 0 
z
" style="fill: #ffffff"/>
  </g>
  <g id="axes_1">
   <g id="patch_2">
    <path d="M 76.7 289.24 
L 450 289.24 
L 450 36.24 
L 76.7 36.24 
z
" style="fill: #ffffff"/>
   </g>
   <g id="matplotlib.axis_1">
    <g id="xtick_1">
     <g id="line2d_1">
      <defs>
       <path id="mdf7066029d" d="M 0 0 
L 0 3.5 
" style="stroke: #000000; stroke-width: 0.8"/>
      </defs>
      <g>
       <use xlink:href="#mdf7066029d" x="93.668182" y="289.24" style="stroke: #000000; stroke-width: 0.8"/>
      </g>
     </g>
     <g id="text_1">
      <!-- 0 -->
      <g transform="translate(89.214432 306.877813) scale(0.14 -0.14)">
       <defs>
        <path id="DejaVuSans-30" d="M 2034 4250 
Q 1547 4250 1301 3770 
Q 1056 3291 1056 2328 
Q 1056 1369 1301 889 
Q 1547 409 2034 409 
Q 2525 409 2770 889 
Q 3016 1369 3016 2328 
Q 3016 3291 2770 3770 
Q 2525 4250 2034 4250 
z
M 2034 4750 
Q 2819 4750 3233 4129 
Q 3647 3509 3647 2328 
Q 3647 1150 3233 529 
Q 2819 -91 2034 -91 
Q 1250 -91 836 529 
Q 422 1150 422 2328 
Q 422 3509 836 4129 
Q 1250 4750 2034 4750 
z
" transform="scale(0.015625)"/>
       </defs>
       <use xlink:href="#DejaVuSans-30"/>
      </g>
     </g>
    </g>
    <g id="xtick_2">
     <g id="line2d_2">
      <g>
       <use xlink:href="#mdf7066029d" x="146.726912" y="289.24" style="stroke: #000000; stroke-width: 0.8"/>
      </g>
     </g>
     <g id="text_2">
      <!-- 250 -->
      <g transform="translate(133.365662 306.877813) scale(0.14 -0.14)">
       <defs>
        <path id="DejaVuSans-32" d="M 1228 531 
L 3431 531 
L 3431 0 
L 469 0 
L 469 531 
Q 828 903 1448 1529 
Q 2069 2156 2228 2338 
Q 2531 2678 2651 2914 
Q 2772 3150 2772 3378 
Q 2772 3750 2511 3984 
Q 2250 4219 1831 4219 
Q 1534 4219 1204 4116 
Q 875 4013 500 3803 
L 500 4441 
Q 881 4594 1212 4672 
Q 1544 4750 1819 4750 
Q 2544 4750 2975 4387 
Q 3406 4025 3406 3419 
Q 3406 3131 3298 2873 
Q 3191 2616 2906 2266 
Q 2828 2175 2409 1742 
Q 1991 1309 1228 531 
z
" transform="scale(0.015625)"/>
        <path id="DejaVuSans-35" d="M 691 4666 
L 3169 4666 
L 3169 4134 
L 1269 4134 
L 1269 2991 
Q 1406 3038 1543 3061 
Q 1681 3084 1819 3084 
Q 2600 3084 3056 2656 
Q 3513 2228 3513 1497 
Q 3513 744 3044 326 
Q 2575 -91 1722 -91 
Q 1428 -91 1123 -41 
Q 819 9 494 109 
L 494 744 
Q 775 591 1075 516 
Q 1375 441 1709 441 
Q 2250 441 2565 725 
Q 2881 1009 2881 1497 
Q 2881 1984 2565 2268 
Q 2250 2553 1709 2553 
Q 1456 2553 1204 2497 
Q 953 2441 691 2322 
L 691 4666 
z
" transform="scale(0.015625)"/>
       </defs>
       <use xlink:href="#DejaVuSans-32"/>
       <use xlink:href="#DejaVuSans-35" x="63.623047"/>
       <use xlink:href="#DejaVuSans-30" x="127.246094"/>
      </g>
     </g>
    </g>
    <g id="xtick_3">
     <g id="line2d_3">
      <g>
       <use xlink:href="#mdf7066029d" x="199.785642" y="289.24" style="stroke: #000000; stroke-width: 0.8"/>
      </g>
     </g>
     <g id="text_3">
      <!-- 500 -->
      <g transform="translate(186.424392 306.877813) scale(0.14 -0.14)">
       <use xlink:href="#DejaVuSans-35"/>
       <use xlink:href="#DejaVuSans-30" x="63.623047"/>
       <use xlink:href="#DejaVuSans-30" x="127.246094"/>
      </g>
     </g>
    </g>
    <g id="xtick_4">
     <g id="line2d_4">
      <g>
       <use xlink:href="#mdf7066029d" x="252.844371" y="289.24" style="stroke: #000000; stroke-width: 0.8"/>
      </g>
     </g>
     <g id="text_4">
      <!-- 750 -->
      <g transform="translate(239.483121 306.877813) scale(0.14 -0.14)">
       <defs>
        <path id="DejaVuSans-37" d="M 525 4666 
L 3525 4666 
L 3525 4397 
L 1831 0 
L 1172 0 
L 2766 4134 
L 525 4134 
L 525 4666 
z
" transform="scale(0.015625)"/>
       </defs>
       <use xlink:href="#DejaVuSans-37"/>
       <use xlink:href="#DejaVuSans-35" x="63.623047"/>
       <use xlink:href="#DejaVuSans-30" x="127.246094"/>
      </g>
     </g>
    </g>
    <g id="xtick_5">
     <g id="line2d_5">
      <g>
       <use xlink:href="#mdf7066029d" x="305.903101" y="289.24" style="stroke: #000000; stroke-width: 0.8"/>
      </g>
     </g>
     <g id="text_5">
      <!-- 1000 -->
      <g transform="translate(288.088101 306.877813) scale(0.14 -0.14)">
       <defs>
        <path id="DejaVuSans-31" d="M 794 531 
L 1825 531 
L 1825 4091 
L 703 3866 
L 703 4441 
L 1819 4666 
L 2450 4666 
L 2450 531 
L 3481 531 
L 3481 0 
L 794 0 
L 794 531 
z
" transform="scale(0.015625)"/>
       </defs>
       <use xlink:href="#DejaVuSans-31"/>
       <use xlink:href="#DejaVuSans-30" x="63.623047"/>
       <use xlink:href="#DejaVuSans-30" x="127.246094"/>
       <use xlink:href="#DejaVuSans-30" x="190.869141"/>
      </g>
     </g>
    </g>
    <g id="xtick_6">
     <g id="line2d_6">
      <g>
       <use xlink:href="#mdf7066029d" x="358.961831" y="289.24" style="stroke: #000000; stroke-width: 0.8"/>
      </g>
     </g>
     <g id="text_6">
      <!-- 1250 -->
      <g transform="translate(341.146831 306.877813) scale(0.14 -0.14)">
       <use xlink:href="#DejaVuSans-31"/>
       <use xlink:href="#DejaVuSans-32" x="63.623047"/>
       <use xlink:href="#DejaVuSans-35" x="127.246094"/>
       <use xlink:href="#DejaVuSans-30" x="190.869141"/>
      </g>
     </g>
    </g>
    <g id="xtick_7">
     <g id="line2d_7">
      <g>
       <use xlink:href="#mdf7066029d" x="412.020561" y="289.24" style="stroke: #000000; stroke-width: 0.8"/>
      </g>
     </g>
     <g id="text_7">
      <!-- 1500 -->
      <g transform="translate(394.205561 306.877813) scale(0.14 -0.14)">
       <use xlink:href="#DejaVuSans-31"/>
       <use xlink:href="#DejaVuSans-35" x="63.623047"/>
       <use xlink:href="#DejaVuSans-30" x="127.246094"/>
       <use xlink:href="#DejaVuSans-30" x="190.869141"/>
      </g>
     </g>
    </g>
    <g id="text_8">
     <!-- Timesteps -->
     <g transform="translate(206.911406 330.505937) scale(0.22 -0.22)">
      <defs>
       <path id="DejaVuSans-54" d="M -19 4666 
L 3928 4666 
L 3928 4134 
L 2272 4134 
L 2272 0 
L 1638 0 
L 1638 4134 
L -19 4134 
L -19 4666 
z
" transform="scale(0.015625)"/>
       <path id="DejaVuSans-69" d="M 603 3500 
L 1178 3500 
L 1178 0 
L 603 0 
L 603 3500 
z
M 603 4863 
L 1178 4863 
L 1178 4134 
L 603 4134 
L 603 4863 
z
" transform="scale(0.015625)"/>
       <path id="DejaVuSans-6d" d="M 3328 2828 
Q 3544 3216 3844 3400 
Q 4144 3584 4550 3584 
Q 5097 3584 5394 3201 
Q 5691 2819 5691 2113 
L 5691 0 
L 5113 0 
L 5113 2094 
Q 5113 2597 4934 2840 
Q 4756 3084 4391 3084 
Q 3944 3084 3684 2787 
Q 3425 2491 3425 1978 
L 3425 0 
L 2847 0 
L 2847 2094 
Q 2847 2600 2669 2842 
Q 2491 3084 2119 3084 
Q 1678 3084 1418 2786 
Q 1159 2488 1159 1978 
L 1159 0 
L 581 0 
L 581 3500 
L 1159 3500 
L 1159 2956 
Q 1356 3278 1631 3431 
Q 1906 3584 2284 3584 
Q 2666 3584 2933 3390 
Q 3200 3197 3328 2828 
z
" transform="scale(0.015625)"/>
       <path id="DejaVuSans-65" d="M 3597 1894 
L 3597 1613 
L 953 1613 
Q 991 1019 1311 708 
Q 1631 397 2203 397 
Q 2534 397 2845 478 
Q 3156 559 3463 722 
L 3463 178 
Q 3153 47 2828 -22 
Q 2503 -91 2169 -91 
Q 1331 -91 842 396 
Q 353 884 353 1716 
Q 353 2575 817 3079 
Q 1281 3584 2069 3584 
Q 2775 3584 3186 3129 
Q 3597 2675 3597 1894 
z
M 3022 2063 
Q 3016 2534 2758 2815 
Q 2500 3097 2075 3097 
Q 1594 3097 1305 2825 
Q 1016 2553 972 2059 
L 3022 2063 
z
" transform="scale(0.015625)"/>
       <path id="DejaVuSans-73" d="M 2834 3397 
L 2834 2853 
Q 2591 2978 2328 3040 
Q 2066 3103 1784 3103 
Q 1356 3103 1142 2972 
Q 928 2841 928 2578 
Q 928 2378 1081 2264 
Q 1234 2150 1697 2047 
L 1894 2003 
Q 2506 1872 2764 1633 
Q 3022 1394 3022 966 
Q 3022 478 2636 193 
Q 2250 -91 1575 -91 
Q 1294 -91 989 -36 
Q 684 19 347 128 
L 347 722 
Q 666 556 975 473 
Q 1284 391 1588 391 
Q 1994 391 2212 530 
Q 2431 669 2431 922 
Q 2431 1156 2273 1281 
Q 2116 1406 1581 1522 
L 1381 1569 
Q 847 1681 609 1914 
Q 372 2147 372 2553 
Q 372 3047 722 3315 
Q 1072 3584 1716 3584 
Q 2034 3584 2315 3537 
Q 2597 3491 2834 3397 
z
" transform="scale(0.015625)"/>
       <path id="DejaVuSans-74" d="M 1172 4494 
L 1172 3500 
L 2356 3500 
L 2356 3053 
L 1172 3053 
L 1172 1153 
Q 1172 725 1289 603 
Q 1406 481 1766 481 
L 2356 481 
L 2356 0 
L 1766 0 
Q 1100 0 847 248 
Q 594 497 594 1153 
L 594 3053 
L 172 3053 
L 172 3500 
L 594 3500 
L 594 4494 
L 1172 4494 
z
" transform="scale(0.015625)"/>
       <path id="DejaVuSans-70" d="M 1159 525 
L 1159 -1331 
L 581 -1331 
L 581 3500 
L 1159 3500 
L 1159 2969 
Q 1341 3281 1617 3432 
Q 1894 3584 2278 3584 
Q 2916 3584 3314 3078 
Q 3713 2572 3713 1747 
Q 3713 922 3314 415 
Q 2916 -91 2278 -91 
Q 1894 -91 1617 61 
Q 1341 213 1159 525 
z
M 3116 1747 
Q 3116 2381 2855 2742 
Q 2594 3103 2138 3103 
Q 1681 3103 1420 2742 
Q 1159 2381 1159 1747 
Q 1159 1113 1420 752 
Q 1681 391 2138 391 
Q 2594 391 2855 752 
Q 3116 1113 3116 1747 
z
" transform="scale(0.015625)"/>
      </defs>
      <use xlink:href="#DejaVuSans-54"/>
      <use xlink:href="#DejaVuSans-69" x="57.958984"/>
      <use xlink:href="#DejaVuSans-6d" x="85.742188"/>
      <use xlink:href="#DejaVuSans-65" x="183.154297"/>
      <use xlink:href="#DejaVuSans-73" x="244.677734"/>
      <use xlink:href="#DejaVuSans-74" x="296.777344"/>
      <use xlink:href="#DejaVuSans-65" x="335.986328"/>
      <use xlink:href="#DejaVuSans-70" x="397.509766"/>
      <use xlink:href="#DejaVuSans-73" x="460.986328"/>
     </g>
    </g>
   </g>
   <g id="matplotlib.axis_2">
    <g id="ytick_1">
     <g id="line2d_8">
      <defs>
       <path id="m266fbfe391" d="M 0 0 
L -3.5 0 
" style="stroke: #000000; stroke-width: 0.8"/>
      </defs>
      <g>
       <use xlink:href="#m266fbfe391" x="76.7" y="260.381158" style="stroke: #000000; stroke-width: 0.8"/>
      </g>
     </g>
     <g id="text_9">
      <!-- −0.8 -->
      <g transform="translate(35.704062 265.700065) scale(0.14 -0.14)">
       <defs>
        <path id="DejaVuSans-2212" d="M 678 2272 
L 4684 2272 
L 4684 1741 
L 678 1741 
L 678 2272 
z
" transform="scale(0.015625)"/>
        <path id="DejaVuSans-2e" d="M 684 794 
L 1344 794 
L 1344 0 
L 684 0 
L 684 794 
z
" transform="scale(0.015625)"/>
        <path id="DejaVuSans-38" d="M 2034 2216 
Q 1584 2216 1326 1975 
Q 1069 1734 1069 1313 
Q 1069 891 1326 650 
Q 1584 409 2034 409 
Q 2484 409 2743 651 
Q 3003 894 3003 1313 
Q 3003 1734 2745 1975 
Q 2488 2216 2034 2216 
z
M 1403 2484 
Q 997 2584 770 2862 
Q 544 3141 544 3541 
Q 544 4100 942 4425 
Q 1341 4750 2034 4750 
Q 2731 4750 3128 4425 
Q 3525 4100 3525 3541 
Q 3525 3141 3298 2862 
Q 3072 2584 2669 2484 
Q 3125 2378 3379 2068 
Q 3634 1759 3634 1313 
Q 3634 634 3220 271 
Q 2806 -91 2034 -91 
Q 1263 -91 848 271 
Q 434 634 434 1313 
Q 434 1759 690 2068 
Q 947 2378 1403 2484 
z
M 1172 3481 
Q 1172 3119 1398 2916 
Q 1625 2713 2034 2713 
Q 2441 2713 2670 2916 
Q 2900 3119 2900 3481 
Q 2900 3844 2670 4047 
Q 2441 4250 2034 4250 
Q 1625 4250 1398 4047 
Q 1172 3844 1172 3481 
z
" transform="scale(0.015625)"/>
       </defs>
       <use xlink:href="#DejaVuSans-2212"/>
       <use xlink:href="#DejaVuSans-30" x="83.789062"/>
       <use xlink:href="#DejaVuSans-2e" x="147.412109"/>
       <use xlink:href="#DejaVuSans-38" x="179.199219"/>
      </g>
     </g>
    </g>
    <g id="ytick_2">
     <g id="line2d_9">
      <g>
       <use xlink:href="#m266fbfe391" x="76.7" y="226.246726" style="stroke: #000000; stroke-width: 0.8"/>
      </g>
     </g>
     <g id="text_10">
      <!-- −0.6 -->
      <g transform="translate(35.704062 231.565632) scale(0.14 -0.14)">
       <defs>
        <path id="DejaVuSans-36" d="M 2113 2584 
Q 1688 2584 1439 2293 
Q 1191 2003 1191 1497 
Q 1191 994 1439 701 
Q 1688 409 2113 409 
Q 2538 409 2786 701 
Q 3034 994 3034 1497 
Q 3034 2003 2786 2293 
Q 2538 2584 2113 2584 
z
M 3366 4563 
L 3366 3988 
Q 3128 4100 2886 4159 
Q 2644 4219 2406 4219 
Q 1781 4219 1451 3797 
Q 1122 3375 1075 2522 
Q 1259 2794 1537 2939 
Q 1816 3084 2150 3084 
Q 2853 3084 3261 2657 
Q 3669 2231 3669 1497 
Q 3669 778 3244 343 
Q 2819 -91 2113 -91 
Q 1303 -91 875 529 
Q 447 1150 447 2328 
Q 447 3434 972 4092 
Q 1497 4750 2381 4750 
Q 2619 4750 2861 4703 
Q 3103 4656 3366 4563 
z
" transform="scale(0.015625)"/>
       </defs>
       <use xlink:href="#DejaVuSans-2212"/>
       <use xlink:href="#DejaVuSans-30" x="83.789062"/>
       <use xlink:href="#DejaVuSans-2e" x="147.412109"/>
       <use xlink:href="#DejaVuSans-36" x="179.199219"/>
      </g>
     </g>
    </g>
    <g id="ytick_3">
     <g id="line2d_10">
      <g>
       <use xlink:href="#m266fbfe391" x="76.7" y="192.112294" style="stroke: #000000; stroke-width: 0.8"/>
      </g>
     </g>
     <g id="text_11">
      <!-- −0.4 -->
      <g transform="translate(35.704062 197.4312) scale(0.14 -0.14)">
       <defs>
        <path id="DejaVuSans-34" d="M 2419 4116 
L 825 1625 
L 2419 1625 
L 2419 4116 
z
M 2253 4666 
L 3047 4666 
L 3047 1625 
L 3713 1625 
L 3713 1100 
L 3047 1100 
L 3047 0 
L 2419 0 
L 2419 1100 
L 313 1100 
L 313 1709 
L 2253 4666 
z
" transform="scale(0.015625)"/>
       </defs>
       <use xlink:href="#DejaVuSans-2212"/>
       <use xlink:href="#DejaVuSans-30" x="83.789062"/>
       <use xlink:href="#DejaVuSans-2e" x="147.412109"/>
       <use xlink:href="#DejaVuSans-34" x="179.199219"/>
      </g>
     </g>
    </g>
    <g id="ytick_4">
     <g id="line2d_11">
      <g>
       <use xlink:href="#m266fbfe391" x="76.7" y="157.977862" style="stroke: #000000; stroke-width: 0.8"/>
      </g>
     </g>
     <g id="text_12">
      <!-- −0.2 -->
      <g transform="translate(35.704062 163.296768) scale(0.14 -0.14)">
       <use xlink:href="#DejaVuSans-2212"/>
       <use xlink:href="#DejaVuSans-30" x="83.789062"/>
       <use xlink:href="#DejaVuSans-2e" x="147.412109"/>
       <use xlink:href="#DejaVuSans-32" x="179.199219"/>
      </g>
     </g>
    </g>
    <g id="ytick_5">
     <g id="line2d_12">
      <g>
       <use xlink:href="#m266fbfe391" x="76.7" y="123.84343" style="stroke: #000000; stroke-width: 0.8"/>
      </g>
     </g>
     <g id="text_13">
      <!-- 0.0 -->
      <g transform="translate(47.435625 129.162336) scale(0.14 -0.14)">
       <use xlink:href="#DejaVuSans-30"/>
       <use xlink:href="#DejaVuSans-2e" x="63.623047"/>
       <use xlink:href="#DejaVuSans-30" x="95.410156"/>
      </g>
     </g>
    </g>
    <g id="ytick_6">
     <g id="line2d_13">
      <g>
       <use xlink:href="#m266fbfe391" x="76.7" y="89.708998" style="stroke: #000000; stroke-width: 0.8"/>
      </g>
     </g>
     <g id="text_14">
      <!-- 0.2 -->
      <g transform="translate(47.435625 95.027904) scale(0.14 -0.14)">
       <use xlink:href="#DejaVuSans-30"/>
       <use xlink:href="#DejaVuSans-2e" x="63.623047"/>
       <use xlink:href="#DejaVuSans-32" x="95.410156"/>
      </g>
     </g>
    </g>
    <g id="ytick_7">
     <g id="line2d_14">
      <g>
       <use xlink:href="#m266fbfe391" x="76.7" y="55.574566" style="stroke: #000000; stroke-width: 0.8"/>
      </g>
     </g>
     <g id="text_15">
      <!-- 0.4 -->
      <g transform="translate(47.435625 60.893472) scale(0.14 -0.14)">
       <use xlink:href="#DejaVuSans-30"/>
       <use xlink:href="#DejaVuSans-2e" x="63.623047"/>
       <use xlink:href="#DejaVuSans-34" x="95.410156"/>
      </g>
     </g>
    </g>
    <g id="text_16">
     <!-- rad -->
     <g transform="translate(27.12875 180.98625) rotate(-90) scale(0.22 -0.22)">
      <defs>
       <path id="DejaVuSans-72" d="M 2631 2963 
Q 2534 3019 2420 3045 
Q 2306 3072 2169 3072 
Q 1681 3072 1420 2755 
Q 1159 2438 1159 1844 
L 1159 0 
L 581 0 
L 581 3500 
L 1159 3500 
L 1159 2956 
Q 1341 3275 1631 3429 
Q 1922 3584 2338 3584 
Q 2397 3584 2469 3576 
Q 2541 3569 2628 3553 
L 2631 2963 
z
" transform="scale(0.015625)"/>
       <path id="DejaVuSans-61" d="M 2194 1759 
Q 1497 1759 1228 1600 
Q 959 1441 959 1056 
Q 959 750 1161 570 
Q 1363 391 1709 391 
Q 2188 391 2477 730 
Q 2766 1069 2766 1631 
L 2766 1759 
L 2194 1759 
z
M 3341 1997 
L 3341 0 
L 2766 0 
L 2766 531 
Q 2569 213 2275 61 
Q 1981 -91 1556 -91 
Q 1019 -91 701 211 
Q 384 513 384 1019 
Q 384 1609 779 1909 
Q 1175 2209 1959 2209 
L 2766 2209 
L 2766 2266 
Q 2766 2663 2505 2880 
Q 2244 3097 1772 3097 
Q 1472 3097 1187 3025 
Q 903 2953 641 2809 
L 641 3341 
Q 956 3463 1253 3523 
Q 1550 3584 1831 3584 
Q 2591 3584 2966 3190 
Q 3341 2797 3341 1997 
z
" transform="scale(0.015625)"/>
       <path id="DejaVuSans-64" d="M 2906 2969 
L 2906 4863 
L 3481 4863 
L 3481 0 
L 2906 0 
L 2906 525 
Q 2725 213 2448 61 
Q 2172 -91 1784 -91 
Q 1150 -91 751 415 
Q 353 922 353 1747 
Q 353 2572 751 3078 
Q 1150 3584 1784 3584 
Q 2172 3584 2448 3432 
Q 2725 3281 2906 2969 
z
M 947 1747 
Q 947 1113 1208 752 
Q 1469 391 1925 391 
Q 2381 391 2643 752 
Q 2906 1113 2906 1747 
Q 2906 2381 2643 2742 
Q 2381 3103 1925 3103 
Q 1469 3103 1208 2742 
Q 947 2381 947 1747 
z
" transform="scale(0.015625)"/>
      </defs>
      <use xlink:href="#DejaVuSans-72"/>
      <use xlink:href="#DejaVuSans-61" x="41.113281"/>
      <use xlink:href="#DejaVuSans-64" x="102.392578"/>
     </g>
    </g>
   </g>
   <g id="line2d_15">
    <path d="M 93.668182 277.722699 
L 95.578296 277.70963 
L 97.063941 277.72119 
L 103.643223 277.720455 
L 105.765572 277.69328 
L 105.977807 277.638382 
L 106.402277 277.044311 
L 107.038982 276.300558 
L 107.251217 275.820116 
L 107.887921 275.209056 
L 108.312391 274.478818 
L 108.949096 273.753872 
L 110.010271 272.335388 
L 110.222506 271.994507 
L 110.43474 271.870099 
L 111.071445 270.946668 
L 111.920385 269.983761 
L 112.344855 269.105882 
L 112.55709 269.019431 
L 112.981559 268.446559 
L 113.618264 267.695834 
L 113.830499 267.150964 
L 114.042734 267.099018 
L 114.254969 266.662323 
L 114.467204 266.620174 
L 114.679439 266.10342 
L 114.891674 265.979201 
L 115.103909 265.469827 
L 115.528379 265.102042 
L 115.740613 264.652042 
L 115.952848 264.494186 
L 116.589553 263.698793 
L 116.801788 263.600456 
L 117.014023 263.03858 
L 117.650728 262.284134 
L 119.560842 259.804123 
L 119.773077 259.709423 
L 119.985312 259.280835 
L 120.409782 258.823256 
L 121.046486 257.966265 
L 121.258721 257.856808 
L 121.470956 257.431774 
L 121.683191 257.288019 
L 122.107661 256.631331 
L 123.381071 255.136266 
L 123.593305 254.680442 
L 123.80554 254.559293 
L 124.866715 253.103166 
L 125.07895 252.955546 
L 126.564594 250.994583 
L 126.776829 250.857994 
L 127.201299 250.080704 
L 127.413534 249.963808 
L 129.111413 247.655582 
L 129.535883 247.177761 
L 130.172588 246.226775 
L 130.384823 246.202342 
L 130.597058 245.700059 
L 130.809293 245.581693 
L 132.082702 243.709228 
L 132.294937 243.629261 
L 132.719407 243.013991 
L 132.931642 242.69314 
L 133.143877 242.636488 
L 133.356112 242.065331 
L 133.780582 241.729422 
L 133.992817 241.281277 
L 134.417286 240.862348 
L 134.841756 240.307898 
L 135.053991 240.240866 
L 135.266226 239.709896 
L 135.690696 239.42268 
L 135.902931 238.849306 
L 136.115166 238.806623 
L 136.75187 237.945402 
L 137.388575 237.158675 
L 137.60081 237.004175 
L 138.02528 236.284758 
L 138.237515 236.09065 
L 138.661985 235.498584 
L 139.29869 234.667803 
L 139.723159 234.094363 
L 141.845509 231.493693 
L 142.057743 231.322522 
L 142.269978 230.779154 
L 142.482213 230.681268 
L 143.543388 229.143825 
L 143.755623 229.030026 
L 143.967858 228.624267 
L 144.180093 228.487436 
L 144.816797 227.465411 
L 145.029032 227.315 
L 146.302442 225.662925 
L 146.939147 224.940749 
L 147.788086 223.751885 
L 148.000321 223.598813 
L 148.849261 222.374928 
L 150.12267 220.841903 
L 151.183845 219.333616 
L 151.39608 219.199859 
L 152.24502 217.881479 
L 152.457255 217.777046 
L 152.669489 217.360368 
L 152.881724 217.220353 
L 155.004074 214.502214 
L 155.640778 213.753253 
L 156.489718 212.565141 
L 156.701953 212.396733 
L 157.550893 211.158677 
L 157.763128 211.024055 
L 158.187597 210.528772 
L 159.036537 209.315305 
L 159.248772 209.141288 
L 159.461007 208.74552 
L 159.673242 208.644628 
L 160.097712 208.018275 
L 160.946651 206.826688 
L 161.583356 206.174999 
L 162.007826 205.460992 
L 162.220061 205.326686 
L 162.644531 204.782574 
L 163.91794 203.035444 
L 164.130175 202.867837 
L 164.979115 201.667097 
L 165.19135 201.556699 
L 166.040289 200.265292 
L 166.464759 199.882982 
L 166.889229 199.257933 
L 167.101464 199.114895 
L 167.738169 198.181551 
L 167.950404 198.12632 
L 168.374874 197.327873 
L 168.587108 197.201603 
L 168.799343 196.774853 
L 169.011578 196.64983 
L 169.436048 196.149658 
L 170.072753 195.295925 
L 170.709458 194.449245 
L 171.346162 193.791687 
L 171.770632 193.091831 
L 171.982867 192.921452 
L 172.195102 192.468332 
L 172.831807 191.905778 
L 173.468512 191.011304 
L 175.166391 188.929717 
L 175.803096 188.061282 
L 176.015331 187.919327 
L 176.652035 187.064983 
L 177.500975 185.923287 
L 177.71321 185.769622 
L 178.349915 184.8953 
L 178.56215 184.812638 
L 178.986619 184.115697 
L 179.198854 183.947719 
L 179.623324 183.444928 
L 180.472264 182.416987 
L 180.684499 182.276041 
L 181.108969 181.589149 
L 183.019083 179.46007 
L 183.231318 178.988921 
L 183.655788 178.716012 
L 185.778137 176.119179 
L 185.990372 175.939258 
L 186.202607 175.583606 
L 186.414842 175.524379 
L 186.839312 174.847154 
L 187.476016 174.272302 
L 187.900486 173.627776 
L 188.112721 173.564212 
L 188.537191 172.929344 
L 190.23507 171.194404 
L 190.871775 170.433885 
L 191.08401 170.349461 
L 191.50848 169.906294 
L 192.357419 168.887932 
L 192.781889 168.484436 
L 194.692004 166.560049 
L 194.904238 166.469205 
L 195.328708 165.952954 
L 195.540943 165.819525 
L 195.753178 165.514082 
L 195.965413 165.421328 
L 196.814353 164.497482 
L 197.451057 164.051532 
L 197.875527 163.633683 
L 199.148937 162.386003 
L 199.361172 162.356874 
L 199.573407 161.879591 
L 199.997877 161.661375 
L 200.210111 161.376689 
L 200.634581 161.107503 
L 206.577159 156.506762 
L 206.789394 156.454883 
L 207.213864 156.154875 
L 208.062803 155.531118 
L 208.699508 155.205118 
L 209.760683 154.524029 
L 210.821857 153.958066 
L 212.095267 153.380616 
L 212.519737 153.120947 
L 212.944207 152.993398 
L 214.005381 152.599187 
L 214.429851 152.438123 
L 215.278791 152.085886 
L 215.703261 151.974006 
L 215.915495 151.84072 
L 216.12773 151.850298 
L 216.5522 151.736117 
L 217.613375 151.405219 
L 218.037845 151.366193 
L 218.25008 151.258435 
L 218.462315 151.286762 
L 219.099019 151.097472 
L 223.555953 150.463214 
L 229.07406 150.211479 
L 229.49853 150.28785 
L 230.135235 150.289345 
L 231.62088 150.434108 
L 232.045349 150.442453 
L 232.682054 150.534613 
L 233.106524 150.541352 
L 233.743229 150.585462 
L 235.865578 150.839921 
L 237.138987 150.88458 
L 237.351222 151.010497 
L 237.775692 151.000693 
L 239.898041 151.265659 
L 240.110276 151.208374 
L 240.322511 151.349877 
L 240.746981 151.326607 
L 241.808156 151.467375 
L 242.020391 151.441106 
L 242.232626 151.556111 
L 242.657095 151.526228 
L 243.081565 151.638547 
L 244.991679 151.878073 
L 245.840619 151.943897 
L 246.052854 152.078891 
L 246.265089 151.975306 
L 246.689559 152.089392 
L 248.387438 152.317606 
L 248.811908 152.316727 
L 249.660848 152.383478 
L 249.873083 152.532123 
L 250.297552 152.503949 
L 251.995432 152.672631 
L 252.632137 152.744829 
L 253.905546 152.815721 
L 255.603425 152.916835 
L 256.24013 153.002236 
L 257.301305 153.009486 
L 258.362479 153.110092 
L 258.999184 153.101018 
L 261.970473 153.163431 
L 262.182708 153.07845 
L 262.394943 153.223201 
L 262.819413 153.150543 
L 263.031648 153.20025 
L 263.243883 153.097755 
L 263.668352 153.227833 
L 264.092822 153.126358 
L 264.517292 153.198886 
L 264.729527 153.066843 
L 264.941762 153.192119 
L 266.215171 153.100574 
L 266.427406 153.214748 
L 266.851876 153.058347 
L 267.064111 153.164796 
L 267.276346 153.036634 
L 267.700816 153.097141 
L 267.913051 152.998289 
L 268.337521 153.035679 
L 268.76199 152.940594 
L 268.974225 153.021263 
L 269.398695 152.915416 
L 269.61093 153.063023 
L 269.823165 152.89122 
L 270.247635 152.914229 
L 270.672105 152.865963 
L 271.096575 152.839126 
L 272.794454 152.821264 
L 273.006689 152.670758 
L 273.431159 152.709321 
L 273.643394 152.7326 
L 273.855629 152.633032 
L 274.067863 152.715053 
L 274.280098 152.605646 
L 274.492333 152.683397 
L 274.916803 152.596472 
L 275.341273 152.545791 
L 277.251387 152.398675 
L 277.675857 152.298 
L 278.100327 152.253097 
L 279.798206 152.067461 
L 280.010441 152.143839 
L 280.222676 152.00641 
L 280.434911 152.133849 
L 280.647146 151.948474 
L 280.859381 151.911802 
L 281.071616 151.99908 
L 281.708321 151.853384 
L 281.920555 151.852677 
L 282.13279 151.684054 
L 282.345025 151.837916 
L 282.55726 151.659949 
L 282.98173 151.730538 
L 283.193965 151.585528 
L 283.618435 151.565612 
L 288.499838 150.627748 
L 288.712073 150.775026 
L 288.924308 150.548365 
L 289.348778 150.512794 
L 289.561013 150.514996 
L 289.773247 150.367523 
L 289.985482 150.485008 
L 291.258892 150.161278 
L 294.866886 149.427764 
L 295.50359 149.301706 
L 295.715825 149.331301 
L 296.35253 149.115024 
L 296.564765 149.148817 
L 296.989235 148.942418 
L 297.20147 149.021362 
L 297.62594 148.851297 
L 297.838174 148.852072 
L 298.262644 148.694565 
L 298.687114 148.678492 
L 298.899349 148.48875 
L 299.748289 148.321042 
L 300.172759 148.164563 
L 300.597228 148.234898 
L 300.809463 148.035868 
L 301.021698 147.997419 
L 301.233933 148.092611 
L 301.446168 147.902553 
L 302.719578 147.718316 
L 303.780752 147.434319 
L 303.992987 147.47627 
L 304.205222 147.272069 
L 304.417457 147.335709 
L 304.629692 147.194465 
L 305.054162 147.256031 
L 305.478632 146.991603 
L 305.903101 147.028193 
L 306.115336 146.902213 
L 306.539806 146.886663 
L 307.388746 146.56707 
L 307.813216 146.565871 
L 308.237685 146.491867 
L 308.662155 146.412179 
L 308.87439 146.26601 
L 309.086625 146.379151 
L 309.29886 146.184571 
L 309.72333 146.304778 
L 309.935565 146.024174 
L 310.1478 146.132879 
L 310.784505 145.960931 
L 310.996739 146.035044 
L 311.208974 145.809516 
L 311.633444 145.808227 
L 312.906854 145.501248 
L 313.331324 145.454163 
L 313.543558 145.360431 
L 313.755793 145.429822 
L 314.180263 145.214847 
L 314.604733 145.325816 
L 314.816968 145.119097 
L 318.424962 144.457443 
L 318.849431 144.421224 
L 319.061666 144.30307 
L 319.486136 144.422659 
L 319.910606 144.233033 
L 320.971781 144.014763 
L 321.184016 144.16228 
L 321.82072 143.985067 
L 323.730835 143.698688 
L 323.94307 143.741101 
L 324.155304 143.562752 
L 324.367539 143.717316 
L 324.792009 143.579937 
L 325.004244 143.591405 
L 325.216479 143.454921 
L 325.853184 143.553423 
L 326.065419 143.361724 
L 326.489889 143.392477 
L 327.338828 143.30646 
L 327.551063 143.212831 
L 327.763298 143.372362 
L 328.187768 143.181672 
L 329.248943 143.253542 
L 329.461177 143.129124 
L 329.885647 143.193833 
L 330.097882 143.095532 
L 330.310117 143.237822 
L 330.734587 143.052045 
L 330.946822 143.161095 
L 331.159057 143.060893 
L 331.371292 143.150006 
L 331.583527 142.957497 
L 331.795762 143.061936 
L 332.644701 142.852695 
L 332.856936 143.029421 
L 333.281406 142.868057 
L 333.493641 143.011724 
L 333.705876 142.994321 
L 333.918111 142.851283 
L 334.342581 142.955598 
L 334.76705 142.796655 
L 334.979285 142.945097 
L 335.19152 142.727187 
L 335.828225 142.920199 
L 336.04046 142.74627 
L 336.252695 142.807669 
L 336.46493 142.656265 
L 336.8894 142.925506 
L 337.313869 142.730437 
L 337.738339 142.764077 
L 338.162809 142.81786 
L 338.375044 142.674485 
L 338.587279 142.840815 
L 339.011749 142.767737 
L 339.223984 142.679857 
L 339.436219 142.763645 
L 340.285158 142.608525 
L 340.709628 142.859559 
L 340.921863 142.610103 
L 341.346333 142.665005 
L 341.770803 142.626986 
L 341.983038 142.802309 
L 342.195273 142.589191 
L 342.407508 142.744845 
L 343.044212 142.679898 
L 343.468682 142.614257 
L 343.680917 142.569392 
L 343.893152 142.790254 
L 344.105387 142.417807 
L 344.317622 142.496856 
L 344.529857 142.803593 
L 344.742092 142.592011 
L 344.954327 142.564042 
L 345.166561 142.780171 
L 345.378796 142.402621 
L 345.591031 142.623902 
L 345.803266 142.610626 
L 346.015501 142.418748 
L 346.439971 142.644426 
L 346.652206 142.353197 
L 346.864441 142.550219 
L 347.076676 142.555755 
L 347.288911 142.298352 
L 347.713381 142.678369 
L 347.925615 142.096749 
L 348.350085 142.525507 
L 348.56232 142.138007 
L 348.98679 142.37031 
L 349.199025 142.173152 
L 349.623495 142.335345 
L 349.83573 142.000073 
L 350.047965 142.264518 
L 350.2602 142.300346 
L 350.472434 141.966219 
L 350.896904 142.172656 
L 351.321374 141.971576 
L 351.533609 142.030114 
L 351.958079 142.01838 
L 352.170314 142.043795 
L 352.382549 141.918521 
L 353.019254 141.97525 
L 353.655958 141.848736 
L 353.868193 141.961552 
L 354.292663 141.877277 
L 354.504898 141.692365 
L 354.929368 141.734714 
L 355.141603 141.613995 
L 355.353838 141.678597 
L 355.990542 141.521421 
L 357.263952 141.37631 
L 357.900657 141.252676 
L 358.112892 141.313384 
L 358.325126 141.163797 
L 358.537361 141.281211 
L 358.961831 141.058445 
L 359.174066 141.230591 
L 359.386301 141.035878 
L 359.598536 141.107124 
L 360.447476 140.90814 
L 360.659711 141.134401 
L 360.871946 140.823044 
L 361.08418 140.831 
L 361.296415 141.01347 
L 361.50865 140.961517 
L 361.720885 140.766094 
L 361.93312 140.925678 
L 362.145355 140.7021 
L 362.569825 140.775964 
L 362.78206 140.515859 
L 362.994295 140.660669 
L 368.512403 139.662333 
L 368.724638 139.719058 
L 368.936872 139.586098 
L 369.149107 139.634134 
L 369.361342 139.474353 
L 369.785812 139.45418 
L 370.846987 139.306758 
L 371.271457 139.098077 
L 371.483692 139.214659 
L 372.120396 139.143888 
L 372.332631 138.98422 
L 372.544866 139.049087 
L 373.818276 138.780279 
L 374.030511 138.829638 
L 374.242745 138.672399 
L 374.667215 138.651888 
L 375.091685 138.589053 
L 375.72839 138.552797 
L 377.638504 138.212039 
L 378.911914 138.015925 
L 379.548618 137.960989 
L 380.822028 137.805745 
L 381.034263 137.705646 
L 381.458733 137.70998 
L 382.307672 137.636287 
L 382.732142 137.550452 
L 383.581082 137.458112 
L 389.94813 136.813945 
L 391.646009 136.695742 
L 394.405063 136.503339 
L 401.408815 136.111471 
L 402.682225 136.067443 
L 405.865748 135.917337 
L 406.502453 135.906851 
L 408.412568 135.862941 
L 409.261507 135.856243 
L 411.171621 135.765613 
L 412.020561 135.749383 
L 417.326434 135.709566 
L 417.750904 135.590219 
L 417.963139 135.756706 
L 419.024313 135.651862 
L 421.571133 135.642012 
L 422.632307 135.634854 
L 424.330186 135.578133 
L 424.542421 135.657655 
L 425.179126 135.557511 
L 426.664771 135.573941 
L 432.819583 135.642888 
L 432.819583 135.642888 
" clip-path="url(#pfdb05b426b)" style="fill: none; stroke: #ff0000; stroke-width: 1.5; stroke-linecap: square"/>
   </g>
   <g id="line2d_16">
    <path d="M 93.668182 47.748025 
L 101.733109 47.741144 
L 106.190042 47.961892 
L 106.826747 48.486358 
L 107.038982 48.568298 
L 107.463452 48.872768 
L 108.312391 49.559457 
L 109.585801 50.423412 
L 111.071445 51.430503 
L 116.165083 54.384465 
L 117.438493 54.857738 
L 117.862963 55.038527 
L 118.711902 55.40431 
L 120.197547 55.897459 
L 122.107661 56.623003 
L 123.381071 57.035862 
L 123.80554 57.215146 
L 125.291185 57.714234 
L 126.564594 58.231639 
L 126.989064 58.368803 
L 127.413534 58.513027 
L 128.262474 58.892634 
L 129.535883 59.326262 
L 130.809293 59.764171 
L 131.870467 60.096845 
L 132.719407 60.352965 
L 133.780582 60.551422 
L 134.205051 60.650717 
L 140.784334 61.590678 
L 140.996569 61.680141 
L 141.421039 61.713861 
L 142.269978 61.924945 
L 142.694448 61.966309 
L 142.906683 62.07773 
L 143.118918 62.063176 
L 143.543388 62.228933 
L 143.755623 62.205778 
L 144.180093 62.354705 
L 145.453502 62.703412 
L 146.302442 62.966777 
L 146.939147 63.145688 
L 147.788086 63.510332 
L 148.424791 63.726106 
L 149.273731 64.086464 
L 149.910435 64.327328 
L 157.126423 68.211892 
L 157.550893 68.560942 
L 158.187597 68.880319 
L 161.371121 71.038408 
L 161.583356 71.118247 
L 162.007826 71.511189 
L 162.220061 71.584486 
L 162.644531 71.888733 
L 165.403585 73.909929 
L 165.61582 73.985458 
L 166.040289 74.462282 
L 166.464759 74.695654 
L 166.889229 75.08385 
L 167.101464 75.164189 
L 167.738169 75.754764 
L 167.950404 75.776298 
L 168.374874 76.260818 
L 168.587108 76.34095 
L 168.799343 76.630581 
L 169.011578 76.712509 
L 169.860518 77.445749 
L 170.072753 77.541112 
L 170.709458 78.097954 
L 170.921693 78.201243 
L 171.770632 78.972289 
L 171.982867 79.067037 
L 172.407337 79.48414 
L 173.044042 79.95763 
L 173.256277 80.222233 
L 173.680746 80.485725 
L 174.741921 81.404539 
L 174.954156 81.460154 
L 175.803096 82.28804 
L 176.015331 82.380121 
L 176.86427 83.139294 
L 177.28874 83.431577 
L 177.71321 83.8043 
L 178.349915 84.404484 
L 178.56215 84.457285 
L 179.411089 85.264987 
L 179.835559 85.547946 
L 180.260029 85.847336 
L 181.533439 86.994715 
L 181.745673 87.078144 
L 181.957908 87.341816 
L 182.170143 87.386982 
L 182.806848 87.969297 
L 183.019083 88.082782 
L 183.231318 88.40561 
L 183.655788 88.564426 
L 185.353667 89.990121 
L 185.990372 90.399699 
L 186.202607 90.643442 
L 186.414842 90.647389 
L 186.839312 91.06657 
L 187.688251 91.635537 
L 188.749426 92.352804 
L 190.022835 93.059361 
L 194.692004 95.648033 
L 194.904238 95.679198 
L 195.328708 95.939073 
L 195.540943 95.993582 
L 195.753178 96.192261 
L 196.177648 96.330638 
L 196.814353 96.675549 
L 197.451057 96.867926 
L 197.875527 97.093867 
L 199.361172 97.679925 
L 199.573407 97.965424 
L 199.997877 98.013141 
L 200.210111 98.2113 
L 200.634581 98.285398 
L 201.695756 98.721184 
L 201.907991 98.739852 
L 202.332461 98.966369 
L 203.1814 99.196034 
L 203.393635 99.392279 
L 203.818105 99.459591 
L 204.242575 99.675285 
L 205.30375 99.954021 
L 205.728219 100.118084 
L 206.577159 100.440835 
L 206.789394 100.433395 
L 207.213864 100.581175 
L 208.911743 101.085119 
L 211.458562 101.79073 
L 211.883032 101.91366 
L 212.307502 102.067715 
L 214.005381 102.473342 
L 214.429851 102.581363 
L 215.491026 102.897147 
L 217.82561 103.481435 
L 218.886784 103.71854 
L 220.372429 104.041402 
L 221.009134 104.107976 
L 221.433603 104.22859 
L 222.282543 104.354788 
L 222.707013 104.439729 
L 223.131483 104.504407 
L 224.192657 104.700124 
L 225.041597 104.843324 
L 225.466067 104.930955 
L 230.135235 105.72816 
L 230.77194 105.735042 
L 231.408645 105.793729 
L 237.987927 105.698867 
L 240.110276 105.519491 
L 240.322511 105.388051 
L 240.746981 105.384049 
L 245.840619 104.463687 
L 246.052854 104.316005 
L 246.265089 104.374775 
L 246.689559 104.221128 
L 253.056606 102.765719 
L 253.481076 102.71341 
L 254.330016 102.586967 
L 254.754486 102.637573 
L 257.08907 102.552701 
L 257.51354 102.572399 
L 257.93801 102.59802 
L 260.484829 102.829982 
L 260.697064 102.981118 
L 260.909298 102.903117 
L 261.758238 103.13336 
L 262.394943 103.207671 
L 263.456117 103.54696 
L 263.668352 103.510969 
L 264.092822 103.724072 
L 264.517292 103.750783 
L 264.729527 103.932673 
L 265.153997 104.008331 
L 265.578467 104.148997 
L 267.700816 104.799725 
L 267.913051 104.961624 
L 268.337521 105.062633 
L 268.76199 105.26806 
L 269.18646 105.400726 
L 269.398695 105.51817 
L 269.61093 105.467209 
L 269.823165 105.697929 
L 270.247635 105.826165 
L 270.672105 106.007827 
L 271.308809 106.272524 
L 272.582219 106.900232 
L 272.794454 106.895739 
L 273.006689 107.122093 
L 273.218924 107.135286 
L 273.855629 107.529193 
L 274.280098 107.750683 
L 275.129038 108.116338 
L 275.553508 108.498113 
L 275.765743 108.559936 
L 276.190213 108.839864 
L 278.524797 110.302483 
L 278.949267 110.618676 
L 282.13279 112.68455 
L 282.345025 112.659044 
L 282.769495 113.000756 
L 282.98173 113.067163 
L 283.193965 113.30202 
L 283.618435 113.522398 
L 284.25514 113.990868 
L 284.467374 114.063831 
L 284.891844 114.310457 
L 287.226428 115.823843 
L 287.438663 115.861028 
L 288.287603 116.438567 
L 292.107832 118.536551 
L 294.017946 119.486332 
L 294.654651 119.675888 
L 295.07912 119.960924 
L 302.719578 122.666783 
L 308.237685 124.146083 
L 308.662155 124.257138 
L 308.87439 124.371307 
L 309.086625 124.32904 
L 309.29886 124.469796 
L 309.72333 124.424572 
L 309.935565 124.636902 
L 310.1478 124.576086 
L 310.784505 124.759759 
L 310.996739 124.717964 
L 311.208974 124.894899 
L 311.845679 124.98423 
L 312.482384 125.143939 
L 322.24519 126.697763 
L 322.66966 126.791747 
L 323.94307 126.921177 
L 324.155304 127.034348 
L 324.367539 126.94567 
L 325.216479 127.176255 
L 325.853184 127.16612 
L 326.065419 127.292617 
L 326.489889 127.288404 
L 332.432466 127.989997 
L 332.644701 128.101879 
L 332.856936 128.002168 
L 334.130346 128.192867 
L 334.554816 128.227963 
L 334.76705 128.28378 
L 334.979285 128.213527 
L 335.19152 128.378359 
L 335.828225 128.340111 
L 336.252695 128.414201 
L 336.46493 128.503216 
L 336.8894 128.397364 
L 337.313869 128.545851 
L 339.011749 128.564027 
L 339.648454 128.659977 
L 340.285158 128.757465 
L 340.709628 128.629354 
L 340.921863 128.799967 
L 341.558568 128.817955 
L 341.770803 128.854627 
L 341.983038 128.759406 
L 342.195273 128.883159 
L 342.407508 128.810202 
L 343.044212 128.879629 
L 343.893152 128.83557 
L 344.105387 129.035523 
L 344.317622 129.000949 
L 344.529857 128.84734 
L 344.742092 128.966508 
L 345.166561 128.843566 
L 345.378796 129.051611 
L 345.803266 128.949684 
L 346.015501 129.066328 
L 346.439971 128.928449 
L 346.652206 129.05766 
L 347.076676 128.927517 
L 347.288911 129.07323 
L 347.713381 128.860642 
L 347.925615 129.165469 
L 348.350085 128.942824 
L 348.56232 129.091276 
L 348.98679 128.918023 
L 349.199025 129.000355 
L 349.623495 128.892483 
L 349.83573 129.056455 
L 350.2602 128.892435 
L 350.472434 129.071604 
L 350.896904 128.957977 
L 351.321374 129.051551 
L 351.958079 128.988012 
L 353.019254 129.004747 
L 353.655958 129.052505 
L 354.080428 128.974493 
L 357.263952 128.799403 
L 357.900657 128.731762 
L 358.112892 128.64639 
L 358.325126 128.692156 
L 358.749596 128.651828 
L 358.961831 128.703203 
L 359.174066 128.609826 
L 359.386301 128.69863 
L 360.235241 128.642061 
L 360.447476 128.704989 
L 360.659711 128.576489 
L 360.871946 128.723612 
L 361.720885 128.717978 
L 361.93312 128.60732 
L 362.145355 128.701011 
L 362.569825 128.633508 
L 362.78206 128.717902 
L 363.20653 128.591439 
L 363.630999 128.621156 
L 364.055469 128.600881 
L 367.026758 128.594886 
L 367.451228 128.542791 
L 369.785812 128.53133 
L 371.059222 128.537496 
L 371.483692 128.509968 
L 398.437526 129.492039 
L 416.901964 129.80647 
L 418.175374 129.8007 
L 418.812079 129.835602 
L 424.966891 129.871867 
L 426.240301 129.885297 
L 432.819583 129.856367 
L 432.819583 129.856367 
" clip-path="url(#pfdb05b426b)" style="fill: none; stroke: #008000; stroke-width: 1.5; stroke-linecap: square"/>
   </g>
   <g id="line2d_17">
    <path d="M 93.668182 209.012005 
L 95.366061 209.004096 
L 97.276175 209.007377 
L 103.643223 209.009423 
L 105.977807 208.945504 
L 106.826747 207.782185 
L 107.038982 207.642425 
L 107.675687 206.863359 
L 107.887921 206.679271 
L 108.312391 205.966261 
L 108.524626 205.839008 
L 108.949096 205.299978 
L 109.585801 204.54793 
L 110.222506 203.661995 
L 110.43474 203.548019 
L 110.85921 202.847032 
L 111.071445 202.751214 
L 111.70815 201.820647 
L 111.920385 201.760476 
L 112.344855 200.955183 
L 112.55709 200.8822 
L 112.981559 200.396214 
L 113.830499 199.171118 
L 114.042734 199.151525 
L 114.254969 198.646922 
L 114.467204 198.651318 
L 114.679439 198.158338 
L 114.891674 198.087241 
L 115.103909 197.555691 
L 115.528379 197.144875 
L 116.165083 196.3489 
L 116.377318 196.225968 
L 116.589553 195.872524 
L 116.801788 195.788293 
L 117.226258 195.036926 
L 117.650728 194.614549 
L 118.287432 193.812958 
L 118.499667 193.635055 
L 118.711902 193.214563 
L 118.924137 193.101778 
L 119.136372 192.662706 
L 119.348607 192.625418 
L 119.560842 192.240845 
L 119.773077 192.129907 
L 120.197547 191.58267 
L 128.050239 182.206324 
L 128.262474 181.752712 
L 128.474709 181.69778 
L 128.686944 181.275312 
L 128.899178 181.181264 
L 129.748118 180.07305 
L 129.960353 179.95403 
L 130.172588 179.536745 
L 130.384823 179.489346 
L 130.597058 179.007299 
L 130.809293 178.964449 
L 131.021528 178.555844 
L 131.233763 178.433846 
L 131.658232 177.640345 
L 131.870467 177.510088 
L 132.082702 177.17981 
L 132.294937 177.055742 
L 132.931642 176.156864 
L 133.143877 176.112471 
L 133.568347 175.419645 
L 133.780582 175.267516 
L 134.205051 174.724242 
L 135.902931 172.651223 
L 136.115166 172.562026 
L 136.539636 171.886415 
L 137.17634 171.27803 
L 138.02528 170.082097 
L 138.237515 169.950147 
L 138.661985 169.421053 
L 139.29869 168.687089 
L 139.510924 168.272433 
L 139.723159 168.166703 
L 140.147629 167.627141 
L 140.996569 166.520898 
L 141.208804 166.395826 
L 141.421039 166.012177 
L 141.633274 165.914701 
L 142.269978 165.038771 
L 142.482213 164.877022 
L 143.331153 163.655492 
L 143.755623 163.301594 
L 144.392328 162.489363 
L 144.604563 162.337095 
L 144.816797 161.912276 
L 145.453502 161.339433 
L 145.877972 160.655946 
L 146.939147 159.497338 
L 153.518429 151.628416 
L 154.367369 150.661588 
L 154.579604 150.262358 
L 154.791839 150.186324 
L 155.216308 149.670395 
L 156.065248 148.515596 
L 156.277483 148.387285 
L 156.914188 147.625625 
L 157.126423 147.474515 
L 157.550893 146.804201 
L 157.763128 146.682099 
L 158.187597 146.236334 
L 159.036537 145.124988 
L 159.248772 144.981713 
L 159.461007 144.623239 
L 159.673242 144.541334 
L 160.097712 143.98413 
L 160.522181 143.487322 
L 161.371121 142.442219 
L 161.583356 142.282957 
L 162.432296 141.221487 
L 162.644531 141.075434 
L 163.49347 139.976798 
L 164.554645 138.915168 
L 164.979115 138.291283 
L 165.19135 138.212739 
L 166.040289 137.06001 
L 166.252524 136.980184 
L 167.738169 135.332173 
L 167.950404 135.28217 
L 168.374874 134.575848 
L 168.587108 134.474933 
L 168.799343 134.15535 
L 169.011578 134.065822 
L 169.648283 133.349905 
L 174.529686 129.045331 
L 177.500975 126.851546 
L 177.71321 126.771236 
L 177.925445 126.547871 
L 178.13768 126.503143 
L 178.349915 126.242368 
L 178.56215 126.272948 
L 178.986619 125.841139 
L 180.047794 125.215195 
L 180.260029 125.177176 
L 180.472264 124.972148 
L 180.684499 124.922584 
L 181.533439 124.276019 
L 181.745673 124.22799 
L 181.957908 124.043581 
L 182.170143 124.007718 
L 182.806848 123.672231 
L 187.476016 121.319051 
L 188.324956 120.974872 
L 188.961661 120.726725 
L 190.65954 120.145017 
L 190.871775 119.995541 
L 191.08401 120.021701 
L 191.296245 119.874839 
L 191.50848 119.87185 
L 191.93295 119.618883 
L 192.781889 119.371397 
L 193.206359 119.248127 
L 193.843064 119.031489 
L 194.479769 118.887368 
L 194.692004 118.750972 
L 194.904238 118.768683 
L 195.328708 118.587241 
L 196.177648 118.350374 
L 198.087762 117.86281 
L 198.299997 117.738732 
L 198.512232 117.753874 
L 198.724467 117.629531 
L 198.936702 117.666705 
L 199.785642 117.351477 
L 200.634581 117.15342 
L 201.059051 117.06693 
L 205.30375 116.194609 
L 205.728219 116.144261 
L 207.001629 115.814838 
L 207.850569 115.689528 
L 209.336213 115.478384 
L 209.548448 115.324234 
L 209.760683 115.40246 
L 210.397388 115.204058 
L 210.609622 115.273166 
L 210.821857 115.140865 
L 211.034092 115.200347 
L 211.246327 115.094002 
L 211.670797 115.03531 
L 213.156442 114.844269 
L 213.368676 114.688898 
L 213.580911 114.757342 
L 213.793146 114.63881 
L 214.217616 114.575169 
L 215.278791 114.391058 
L 218.25008 113.712849 
L 218.462315 113.739028 
L 219.099019 113.521542 
L 220.160194 113.329282 
L 221.009134 113.163571 
L 222.070308 112.891408 
L 222.707013 112.799391 
L 223.343718 112.680165 
L 226.739476 112.094612 
L 227.163946 112.030095 
L 227.800651 111.812118 
L 228.012886 111.91003 
L 228.225121 111.752719 
L 228.437356 111.85658 
L 228.649591 111.672755 
L 228.861826 111.757926 
L 229.07406 111.610424 
L 229.286295 111.675551 
L 229.49853 111.55912 
L 229.710765 111.60809 
L 230.34747 111.477878 
L 230.984175 111.45038 
L 231.408645 111.356558 
L 241.171451 110.575126 
L 241.383686 110.65327 
L 241.595921 110.564033 
L 242.020391 110.58109 
L 243.2938 110.574043 
L 246.689559 110.653016 
L 249.024143 110.795596 
L 249.660848 110.785696 
L 250.297552 110.857342 
L 250.509787 110.817566 
L 250.934257 110.950638 
L 251.146492 110.892355 
L 251.358727 110.97247 
L 251.995432 110.888545 
L 252.207667 110.982667 
L 252.632137 110.988053 
L 253.481076 111.010687 
L 254.966721 111.078725 
L 255.391191 111.137873 
L 257.08907 111.244613 
L 258.150244 111.259264 
L 261.546003 111.467987 
L 262.182708 111.484471 
L 262.819413 111.578454 
L 263.031648 111.510432 
L 263.456117 111.617863 
L 264.517292 111.644562 
L 264.729527 111.699802 
L 264.941762 111.633113 
L 265.366232 111.702569 
L 268.125286 111.777371 
L 268.76199 111.842451 
L 268.974225 111.746692 
L 269.18646 111.872171 
L 269.398695 111.784815 
L 269.61093 111.858988 
L 270.45987 111.74952 
L 270.672105 111.806278 
L 270.88434 111.727719 
L 271.096575 111.81146 
L 271.308809 111.737338 
L 271.521044 111.849512 
L 271.733279 111.742409 
L 272.157749 111.767036 
L 272.369984 111.819413 
L 272.582219 111.7552 
L 272.794454 111.840505 
L 273.431159 111.764261 
L 273.643394 111.840333 
L 274.492333 111.660589 
L 274.916803 111.716395 
L 275.129038 111.614666 
L 275.977978 111.734371 
L 276.190213 111.629728 
L 276.402448 111.688962 
L 276.826917 111.613821 
L 277.039152 111.566017 
L 277.251387 111.654829 
L 277.463622 111.540999 
L 277.675857 111.644329 
L 277.888092 111.495123 
L 279.161502 111.463749 
L 279.373736 111.359959 
L 279.585971 111.419654 
L 279.798206 111.304726 
L 280.222676 111.336782 
L 283.618435 110.903334 
L 283.83067 110.933105 
L 284.042905 110.82827 
L 284.467374 110.784105 
L 285.104079 110.752308 
L 285.528549 110.668996 
L 286.801959 110.390429 
L 287.014194 110.451558 
L 287.226428 110.342318 
L 287.438663 110.393275 
L 287.863133 110.24805 
L 298.687114 109.07881 
L 299.323819 109.036065 
L 299.960524 108.942685 
L 300.172759 108.983006 
L 300.384993 108.879543 
L 300.597228 108.939959 
L 300.809463 108.863863 
L 301.021698 108.910793 
L 301.233933 108.808727 
L 301.870638 108.802912 
L 303.356282 108.686177 
L 307.813216 108.284261 
L 308.662155 108.253935 
L 309.086625 108.205655 
L 311.633444 108.061399 
L 315.241438 107.824087 
L 316.302612 107.757089 
L 318.424962 107.62984 
L 319.061666 107.568191 
L 319.698371 107.599049 
L 320.122841 107.543985 
L 335.19152 107.169897 
L 336.252695 107.153063 
L 336.8894 107.12442 
L 339.436219 107.199697 
L 340.709628 107.171267 
L 341.346333 107.206889 
L 342.619742 107.288674 
L 343.044212 107.280454 
L 343.893152 107.250647 
L 344.742092 107.33791 
L 344.954327 107.233637 
L 346.015501 107.284265 
L 346.227736 107.211275 
L 346.864441 107.290403 
L 347.288911 107.351556 
L 347.713381 107.294098 
L 348.13785 107.332945 
L 348.98679 107.27018 
L 349.41126 107.298567 
L 349.623495 107.230409 
L 349.83573 107.352694 
L 352.170314 107.31198 
L 353.019254 107.448456 
L 353.868193 107.43143 
L 354.292663 107.436787 
L 354.929368 107.403464 
L 355.353838 107.390592 
L 355.990542 107.489746 
L 356.202777 107.372335 
L 356.415012 107.484115 
L 356.627247 107.399425 
L 357.263952 107.466728 
L 359.174066 107.401224 
L 359.598536 107.428001 
L 360.447476 107.469175 
L 360.659711 107.383225 
L 361.08418 107.425765 
L 361.50865 107.403179 
L 362.145355 107.429086 
L 363.20653 107.357603 
L 363.630999 107.376435 
L 364.479939 107.346169 
L 365.116644 107.329422 
L 366.177819 107.258659 
L 366.814523 107.277244 
L 368.300168 107.2181 
L 368.724638 107.225073 
L 370.210282 107.148487 
L 371.695926 107.105235 
L 372.544866 107.075558 
L 375.72839 106.952724 
L 377.214034 106.895041 
L 378.699679 106.836156 
L 379.760853 106.780108 
L 380.822028 106.734449 
L 381.883203 106.684011 
L 383.793317 106.624657 
L 386.552371 106.502274 
L 387.613545 106.472741 
L 390.160364 106.365984 
L 393.131653 106.272134 
L 405.229044 105.973006 
L 410.959387 105.880659 
L 411.808326 105.846616 
L 412.657266 105.844819 
L 417.114199 105.808339 
L 418.387609 105.799928 
L 423.269012 105.757926 
L 424.754656 105.76942 
L 426.452536 105.738937 
L 430.909469 105.731752 
L 432.607348 105.725195 
L 432.819583 105.726855 
L 432.819583 105.726855 
" clip-path="url(#pfdb05b426b)" style="fill: none; stroke: #0000ff; stroke-width: 1.5; stroke-linecap: square"/>
   </g>
   <g id="line2d_18">
    <path d="M 93.668182 125.843731 
L 94.729356 125.807244 
L 94.941591 125.735477 
L 95.153826 125.809672 
L 95.366061 125.675399 
L 95.578296 125.790924 
L 96.002766 125.791316 
L 96.215001 125.850981 
L 96.427236 125.763249 
L 96.851706 125.828825 
L 103.430988 125.847745 
L 103.855458 125.825456 
L 104.279928 125.826853 
L 104.916633 125.858687 
L 108.312391 125.851282 
L 108.736861 125.822106 
L 109.161331 125.845844 
L 109.373566 125.870614 
L 109.585801 125.749601 
L 109.798036 125.897111 
L 110.010271 125.898879 
L 110.222506 125.760923 
L 110.43474 125.799913 
L 110.646975 125.708297 
L 110.85921 125.852583 
L 111.071445 125.801567 
L 111.70815 125.927076 
L 111.920385 125.92367 
L 112.13262 125.782696 
L 115.528379 125.879614 
L 115.740613 125.792555 
L 116.165083 125.895852 
L 117.650728 125.900874 
L 118.287432 125.909949 
L 118.499667 125.772812 
L 118.711902 125.861818 
L 118.924137 125.82664 
L 119.136372 125.964874 
L 119.560842 125.871199 
L 120.197547 125.878099 
L 120.622017 125.80633 
L 120.834252 125.966237 
L 121.683191 125.835047 
L 122.319896 125.913797 
L 124.017775 125.885029 
L 124.65448 125.889041 
L 125.291185 125.814746 
L 125.92789 125.940713 
L 126.352359 125.898298 
L 127.201299 125.832092 
L 127.625769 125.898068 
L 128.050239 125.830018 
L 129.323648 125.858981 
L 129.748118 125.843321 
L 131.021528 125.859182 
L 131.658232 125.786539 
L 132.082702 125.91944 
L 132.931642 125.810611 
L 133.143877 125.917192 
L 133.568347 125.874097 
L 134.629521 125.919326 
L 134.841756 125.811917 
L 136.327401 125.922258 
L 136.964105 125.941477 
L 137.17634 126.054367 
L 137.60081 125.816462 
L 138.44975 125.881582 
L 138.87422 125.863307 
L 140.147629 125.84773 
L 140.572099 126.047531 
L 140.996569 125.854566 
L 142.694448 125.856375 
L 143.967858 126.03333 
L 144.392328 125.845143 
L 146.090207 125.850512 
L 146.514677 125.871863 
L 146.939147 126.002286 
L 147.363616 125.928679 
L 148.000321 125.906468 
L 148.637026 125.966469 
L 148.849261 125.85137 
L 150.54714 125.978278 
L 151.183845 125.898301 
L 151.608315 125.995649 
L 153.730664 125.889274 
L 153.942899 125.997813 
L 154.155134 125.856896 
L 154.579604 125.990826 
L 155.004074 125.99642 
L 155.216308 125.878677 
L 155.640778 126.011226 
L 155.853013 125.859196 
L 156.065248 125.938002 
L 156.277483 125.859474 
L 157.126423 125.972431 
L 157.975362 125.84017 
L 158.399832 125.889304 
L 159.036537 125.958755 
L 159.461007 125.878385 
L 159.885477 125.905588 
L 160.522181 125.92804 
L 160.946651 125.858495 
L 161.158886 125.831908 
L 161.583356 126.068727 
L 163.91794 125.928418 
L 166.464759 125.993442 
L 166.676994 125.832875 
L 167.313699 125.999283 
L 168.374874 125.881181 
L 168.587108 125.979124 
L 168.799343 125.89724 
L 169.223813 125.934079 
L 169.436048 125.917735 
L 169.648283 126.014393 
L 170.072753 125.831173 
L 170.709458 125.934718 
L 170.921693 125.898748 
L 171.133927 125.997678 
L 171.558397 125.882439 
L 171.770632 125.992809 
L 173.892981 125.930172 
L 174.317451 125.989063 
L 174.741921 125.960113 
L 176.015331 125.905612 
L 176.652035 126.03122 
L 177.076505 125.917488 
L 177.28874 126.135616 
L 177.500975 125.995038 
L 177.71321 126.046848 
L 178.13768 125.992298 
L 178.56215 126.010336 
L 178.986619 126.009421 
L 179.411089 125.982786 
L 179.835559 126.043052 
L 180.047794 125.91913 
L 180.896734 126.0163 
L 181.533439 125.925896 
L 181.957908 126.063345 
L 182.170143 125.881699 
L 184.080258 125.962014 
L 188.749426 125.905007 
L 189.173896 125.784851 
L 189.386131 125.941797 
L 190.23507 125.90632 
L 190.447305 125.991489 
L 190.871775 125.81734 
L 191.296245 125.871809 
L 192.145184 125.994225 
L 192.994124 125.8411 
L 193.206359 125.976781 
L 194.055299 125.861078 
L 194.267534 125.936427 
L 194.692004 125.911516 
L 194.904238 125.977988 
L 195.328708 125.955797 
L 195.540943 126.048989 
L 196.177648 125.849279 
L 196.389883 125.924005 
L 197.026588 125.84008 
L 197.451057 125.90772 
L 197.663292 126.133593 
L 197.875527 125.980626 
L 198.087762 126.033026 
L 198.724467 125.913673 
L 198.936702 125.845293 
L 199.148937 126.073513 
L 200.422346 125.884663 
L 200.846816 125.90821 
L 201.907991 125.908479 
L 202.120226 125.878872 
L 202.544696 126.041118 
L 203.393635 125.884541 
L 203.60587 125.916298 
L 203.818105 126.101921 
L 204.242575 125.990977 
L 204.87928 125.984559 
L 205.30375 126.113264 
L 205.728219 126.143655 
L 206.364924 126.013264 
L 206.577159 126.180658 
L 208.062803 125.953241 
L 208.275038 126.093728 
L 209.123978 126.132671 
L 209.336213 126.198396 
L 209.548448 125.978227 
L 209.760683 126.070264 
L 210.185153 125.968419 
L 210.397388 126.086111 
L 211.883032 126.031179 
L 212.095267 126.176018 
L 212.944207 126.036514 
L 214.005381 126.072194 
L 214.854321 126.061957 
L 215.066556 125.96081 
L 215.703261 126.117326 
L 215.915495 126.174413 
L 216.12773 125.901444 
L 217.188905 126.006274 
L 217.613375 125.954284 
L 217.82561 126.095178 
L 218.674549 125.998894 
L 219.099019 126.05752 
L 219.947959 126.164865 
L 221.221368 125.976786 
L 221.858073 125.983064 
L 222.282543 125.997668 
L 223.131483 126.172115 
L 223.343718 125.950252 
L 223.980422 126.1007 
L 224.192657 125.957266 
L 224.829362 126.061647 
L 225.678302 125.979373 
L 225.890537 126.1487 
L 226.527241 126.055838 
L 226.951711 125.93802 
L 227.376181 126.035169 
L 228.012886 126.042347 
L 228.225121 125.966998 
L 229.07406 126.099566 
L 229.49853 126.006628 
L 229.710765 126.103396 
L 230.135235 126.00886 
L 231.19641 126.034858 
L 231.833114 125.961363 
L 232.045349 126.071621 
L 232.469819 126.004851 
L 233.106524 126.147021 
L 233.318759 126.03315 
L 233.743229 126.115975 
L 234.167699 125.864161 
L 234.379933 126.061791 
L 234.804403 125.963767 
L 235.653343 126.184108 
L 235.865578 126.181979 
L 236.077813 126.025762 
L 236.290048 126.246608 
L 236.714518 126.094757 
L 237.351222 126.046315 
L 237.563457 126.20307 
L 237.775692 126.192975 
L 237.987927 125.913166 
L 240.110276 126.172908 
L 240.534746 126.119856 
L 240.959216 126.238327 
L 241.383686 126.012875 
L 241.808156 126.065768 
L 242.020391 125.960934 
L 242.232626 126.161343 
L 244.14274 126.073491 
L 244.354975 126.164243 
L 244.56721 126.075537 
L 244.779445 126.207772 
L 245.416149 126.165405 
L 246.052854 126.121297 
L 246.477324 126.153897 
L 246.901794 126.177087 
L 248.387438 126.209465 
L 248.599673 125.99192 
L 249.236378 126.2161 
L 249.660848 126.028613 
L 249.873083 126.184964 
L 250.085318 126.08599 
L 250.297552 126.218935 
L 251.146492 126.025286 
L 251.358727 126.171315 
L 252.844371 126.087575 
L 253.056606 126.240668 
L 253.481076 126.089159 
L 253.693311 125.99608 
L 253.905546 126.159725 
L 254.117781 126.095756 
L 254.542251 126.147514 
L 254.754486 126.064264 
L 255.178956 126.182309 
L 255.391191 126.183609 
L 255.603425 126.044131 
L 255.81566 126.150267 
L 256.027895 126.059297 
L 256.24013 126.209767 
L 256.6646 126.098527 
L 257.51354 126.036144 
L 257.93801 126.126891 
L 259.423654 125.972868 
L 259.635889 125.898168 
L 260.272594 126.203935 
L 260.484829 126.115608 
L 260.909298 126.158389 
L 261.121533 126.102338 
L 261.333768 126.176708 
L 261.970473 126.131247 
L 263.668352 126.043045 
L 264.729527 126.084995 
L 264.941762 125.930879 
L 265.153997 126.075186 
L 265.578467 125.916885 
L 265.790702 125.973054 
L 266.002936 126.227303 
L 266.427406 126.009036 
L 268.76199 125.987732 
L 268.974225 125.89178 
L 269.398695 126.050982 
L 269.61093 126.078363 
L 270.0354 125.893412 
L 271.096575 126.110731 
L 271.521044 125.974085 
L 271.733279 126.119249 
L 272.157749 125.951488 
L 272.369984 126.069022 
L 273.855629 125.975775 
L 274.067863 126.129478 
L 274.492333 126.06291 
L 274.916803 126.02672 
L 275.553508 125.999244 
L 275.765743 126.045201 
L 276.190213 125.99106 
L 276.614682 125.994784 
L 276.826917 126.007068 
L 277.251387 126.17064 
L 278.100327 125.990741 
L 278.524797 126.040904 
L 278.737032 125.955105 
L 279.161502 125.929675 
L 280.010441 126.006325 
L 280.222676 126.195966 
L 280.647146 126.064663 
L 281.071616 126.100631 
L 281.496086 126.028501 
L 281.708321 125.868338 
L 282.55726 125.909125 
L 282.769495 125.897103 
L 283.193965 126.076826 
L 283.4062 125.973698 
L 284.042905 126.034212 
L 284.25514 125.94793 
L 284.679609 125.963064 
L 285.104079 125.847847 
L 285.740784 125.960292 
L 286.165254 126.041298 
L 286.377489 125.900402 
L 286.801959 125.9694 
L 288.499838 125.957303 
L 288.712073 126.020392 
L 288.924308 125.88781 
L 289.348778 126.032165 
L 290.834422 125.926173 
L 291.046657 126.059225 
L 291.258892 125.947641 
L 292.107832 126.014462 
L 293.381241 126.01175 
L 294.442416 126.022184 
L 294.654651 125.694655 
L 294.866886 125.758526 
L 295.291355 126.040973 
L 295.50359 125.850824 
L 295.92806 125.984553 
L 296.140295 125.96559 
L 296.35253 126.07073 
L 296.564765 125.871203 
L 297.62594 126.053545 
L 297.838174 125.848103 
L 298.474879 126.015926 
L 298.687114 126.087712 
L 299.323819 125.94299 
L 299.536054 126.079681 
L 299.960524 125.871059 
L 300.172759 125.978533 
L 300.384993 125.889269 
L 300.597228 125.962878 
L 301.021698 125.868331 
L 301.233933 125.997314 
L 302.082873 125.787822 
L 302.295108 126.006834 
L 302.507343 125.897902 
L 302.719578 126.144694 
L 302.931812 126.126357 
L 303.144047 125.989325 
L 303.568517 125.962119 
L 303.780752 125.810448 
L 304.629692 126.090097 
L 304.841927 125.914475 
L 305.054162 125.944144 
L 305.266397 126.130914 
L 305.690866 126.152382 
L 306.115336 126.044767 
L 306.327571 126.091401 
L 306.539806 125.987971 
L 306.752041 126.087088 
L 306.964276 126.013013 
L 307.176511 126.059653 
L 307.388746 125.802124 
L 307.600981 125.99679 
L 308.237685 126.121687 
L 308.44992 125.967379 
L 308.662155 126.193473 
L 309.29886 125.969044 
L 309.511095 126.037647 
L 309.935565 125.942117 
L 310.360035 126.087427 
L 310.57227 126.116857 
L 310.996739 125.991844 
L 312.057914 126.111241 
L 312.270149 125.948217 
L 312.482384 126.047099 
L 312.694619 125.84917 
L 312.906854 126.127563 
L 313.543558 125.947878 
L 313.755793 126.054683 
L 314.180263 126.055609 
L 314.604733 126.048525 
L 315.029203 125.974434 
L 315.453673 126.010099 
L 315.878143 126.144452 
L 316.727082 126.080285 
L 317.363787 126.10048 
L 317.576022 125.901853 
L 317.788257 126.139912 
L 319.273901 125.953695 
L 319.486136 126.194835 
L 319.698371 126.097016 
L 320.122841 126.112001 
L 320.335076 126.014511 
L 320.971781 126.144646 
L 321.184016 126.14457 
L 321.39625 126.030314 
L 322.032955 126.059761 
L 322.24519 126.008645 
L 322.457425 126.125413 
L 322.881895 125.963803 
L 323.09413 126.20026 
L 323.306365 126.146 
L 323.5186 126.218172 
L 323.730835 125.715306 
L 323.94307 126.133909 
L 324.579774 126.150231 
L 324.792009 126.063054 
L 325.428714 126.197729 
L 325.853184 126.195792 
L 326.065419 126.087043 
L 326.277654 126.158956 
L 326.702123 126.114239 
L 326.914358 126.109533 
L 327.126593 125.972897 
L 327.338828 126.132268 
L 331.583527 126.0265 
L 331.795762 126.237697 
L 332.007996 126.227135 
L 332.220231 125.935966 
L 332.432466 125.859386 
L 332.644701 125.910795 
L 332.856936 126.095754 
L 333.069171 126.121997 
L 333.281406 125.995587 
L 334.76705 126.040284 
L 334.979285 126.213145 
L 335.19152 126.216403 
L 335.61599 125.876553 
L 335.828225 126.067355 
L 336.8894 125.884302 
L 337.101635 126.228408 
L 337.313869 126.288959 
L 337.526104 126.179151 
L 337.738339 126.215218 
L 338.162809 126.013514 
L 338.587279 126.167901 
L 339.011749 126.174331 
L 339.223984 126.095316 
L 339.436219 126.166095 
L 339.648454 126.080989 
L 339.860688 126.276875 
L 340.709628 126.078027 
L 340.921863 126.243546 
L 341.134098 126.239283 
L 341.346333 126.093354 
L 341.558568 126.115936 
L 341.770803 125.910624 
L 341.983038 126.100234 
L 342.195273 126.008365 
L 342.619742 126.140453 
L 342.831977 126.120393 
L 343.044212 126.222155 
L 343.256447 126.162615 
L 343.468682 125.931157 
L 344.317622 126.286874 
L 344.529857 126.120676 
L 344.954327 126.084476 
L 347.076676 126.17339 
L 347.288911 126.074616 
L 347.713381 126.197383 
L 348.56232 126.027068 
L 349.199025 126.233579 
L 350.047965 126.108025 
L 350.2602 126.208334 
L 350.684669 126.132211 
L 351.109139 126.035395 
L 351.321374 126.266745 
L 351.533609 126.166374 
L 351.745844 126.304837 
L 351.958079 126.09072 
L 352.382549 126.085976 
L 352.807019 126.084959 
L 353.019254 126.097743 
L 353.231488 125.929454 
L 353.443723 126.053646 
L 353.655958 125.97666 
L 354.080428 126.222597 
L 354.292663 126.138622 
L 354.504898 126.220703 
L 354.717133 126.062314 
L 355.566073 126.182548 
L 355.778307 125.975943 
L 356.415012 126.060585 
L 356.839482 126.215703 
L 357.051717 126.089491 
L 357.263952 126.139394 
L 357.476187 125.998274 
L 357.688422 126.280044 
L 358.112892 126.220225 
L 358.537361 126.094898 
L 358.961831 126.177894 
L 360.659711 126.065067 
L 363.20653 126.033841 
L 364.055469 125.983786 
L 364.692174 126.056816 
L 364.904409 125.963138 
L 365.541114 125.985179 
L 368.087933 125.986417 
L 368.300168 125.809517 
L 368.936872 126.039515 
L 369.573577 125.997307 
L 370.210282 126.043511 
L 370.634752 125.961165 
L 371.908161 125.990026 
L 372.969336 125.999206 
L 373.181571 126.114478 
L 374.242745 126.124605 
L 376.789565 126.140052 
L 384.642257 126.105972 
L 386.764606 126.137243 
L 388.038015 126.117613 
L 393.343888 126.132102 
L 403.318929 126.133702 
L 403.955634 126.130405 
L 407.351393 126.150816 
L 409.261507 126.139721 
L 411.171621 126.148125 
L 413.081736 126.142578 
L 419.236548 126.14074 
L 419.873253 126.101027 
L 423.481247 126.145214 
L 424.117952 126.130758 
L 426.240301 126.131323 
L 428.150415 126.126552 
L 429.636059 126.15142 
L 430.697234 126.130229 
L 432.395113 126.140886 
L 433.031818 126.128043 
L 433.031818 126.128043 
" clip-path="url(#pfdb05b426b)" style="fill: none; stroke-dasharray: 5.55,2.4; stroke-dashoffset: 0; stroke: #ff0000; stroke-width: 1.5"/>
   </g>
   <g id="line2d_19">
    <path d="M 93.668182 125.884705 
L 144.816797 125.935484 
L 145.453502 125.950083 
L 146.302442 125.956596 
L 147.575851 125.951298 
L 148.212556 125.967795 
L 150.97161 125.985395 
L 155.640778 125.981912 
L 156.277483 125.965483 
L 157.126423 125.99243 
L 159.673242 125.970262 
L 160.309947 126.014737 
L 161.158886 125.965393 
L 161.795591 126.00521 
L 162.644531 125.975216 
L 163.49347 126.010218 
L 165.19135 125.946847 
L 165.828054 126.009259 
L 168.162639 125.961357 
L 170.284988 125.970106 
L 171.133927 126.0129 
L 171.558397 125.946968 
L 206.152689 125.964451 
L 206.577159 125.971031 
L 207.001629 126.059687 
L 207.850569 125.989625 
L 210.185153 125.948431 
L 210.821857 126.024437 
L 211.246327 125.944421 
L 214.217616 125.983661 
L 214.642086 125.931726 
L 219.735724 125.966871 
L 220.160194 125.949349 
L 221.009134 125.940677 
L 230.34747 125.903401 
L 230.77194 125.957104 
L 231.19641 125.888978 
L 232.045349 125.897746 
L 232.682054 125.86015 
L 233.530994 125.860748 
L 235.653343 125.963737 
L 235.865578 125.998277 
L 236.077813 125.919593 
L 236.502283 125.975581 
L 236.926753 125.867229 
L 237.351222 125.909962 
L 237.563457 126.025179 
L 238.200162 125.906213 
L 238.624632 125.934905 
L 238.836867 125.883519 
L 239.049102 125.966865 
L 239.473572 125.911027 
L 240.746981 125.933089 
L 241.171451 125.930715 
L 242.020391 125.953689 
L 253.481076 125.983548 
L 253.905546 126.017847 
L 254.966721 125.915013 
L 257.301305 125.926052 
L 259.635889 125.916895 
L 260.060359 125.895876 
L 260.697064 125.972402 
L 261.121533 125.888736 
L 262.394943 125.934219 
L 263.880587 125.939524 
L 267.276346 125.89008 
L 268.125286 125.915815 
L 268.549756 125.90634 
L 268.974225 125.89737 
L 269.61093 125.907267 
L 270.247635 125.907678 
L 271.521044 125.903376 
L 271.945514 125.923265 
L 272.369984 125.887276 
L 273.218924 125.903478 
L 273.643394 125.916277 
L 274.280098 125.908859 
L 275.977978 125.918562 
L 276.826917 125.928002 
L 277.251387 125.936015 
L 277.675857 125.907597 
L 278.100327 125.893521 
L 279.798206 125.904609 
L 281.071616 125.921085 
L 281.708321 125.912416 
L 282.769495 125.919044 
L 285.953019 125.923087 
L 287.226428 125.906235 
L 289.348778 125.910254 
L 289.773247 125.962295 
L 289.985482 125.878335 
L 290.622187 125.919695 
L 291.471127 125.900995 
L 291.683362 126.030196 
L 292.107832 125.912917 
L 295.07912 125.901759 
L 296.777 125.889035 
L 297.62594 125.894758 
L 298.050409 125.84336 
L 299.536054 125.85499 
L 300.384993 125.864308 
L 303.992987 125.918359 
L 304.205222 125.841647 
L 304.417457 125.944902 
L 305.266397 125.843726 
L 309.72333 125.885541 
L 310.784505 125.854564 
L 313.119089 125.871137 
L 313.331324 125.787749 
L 313.755793 125.829932 
L 314.180263 125.834917 
L 323.730835 125.937616 
L 323.94307 125.768278 
L 324.367539 125.84321 
L 328.400003 125.879643 
L 328.612238 125.783945 
L 329.248943 125.794008 
L 329.673412 125.828524 
L 329.885647 125.909606 
L 330.310117 125.812755 
L 330.522352 125.886873 
L 330.734587 125.773008 
L 330.946822 125.86768 
L 331.159057 125.73587 
L 331.583527 125.791299 
L 332.007996 125.839993 
L 332.220231 125.904998 
L 332.644701 125.799939 
L 335.61599 125.72352 
L 336.04046 125.776983 
L 336.677165 125.75364 
L 337.313869 125.817128 
L 338.375044 125.787608 
L 339.011749 125.817807 
L 339.648454 125.767551 
L 340.072923 125.787645 
L 341.558568 125.775717 
L 341.983038 125.780838 
L 342.195273 125.741348 
L 342.407508 125.832727 
L 342.831977 125.784577 
L 343.256447 125.789344 
L 343.893152 125.751115 
L 344.317622 125.830242 
L 345.591031 125.727754 
L 345.803266 125.810688 
L 346.439971 125.803856 
L 348.56232 125.762146 
L 349.623495 125.771957 
L 350.2602 125.767244 
L 351.958079 125.79239 
L 352.382549 125.771277 
L 353.655958 125.681784 
L 353.868193 125.807541 
L 354.504898 125.780454 
L 355.141603 125.79387 
L 356.415012 125.743001 
L 356.839482 125.811474 
L 357.688422 125.796097 
L 372.332631 125.66447 
L 372.544866 125.717602 
L 372.969336 125.640122 
L 373.606041 125.742192 
L 375.516155 125.717097 
L 380.185323 125.692415 
L 391.646009 125.690395 
L 395.041768 125.702476 
L 397.164117 125.679613 
L 419.448783 125.68205 
L 421.358898 125.665433 
L 424.117952 125.705565 
L 426.028066 125.689124 
L 431.121704 125.677727 
L 433.031818 125.671307 
L 433.031818 125.671307 
" clip-path="url(#pfdb05b426b)" style="fill: none; stroke-dasharray: 5.55,2.4; stroke-dashoffset: 0; stroke: #008000; stroke-width: 1.5"/>
   </g>
   <g id="line2d_20">
    <path d="M 93.668182 126.931035 
L 94.517121 126.928045 
L 94.729356 126.841987 
L 94.941591 126.99487 
L 95.153826 126.890995 
L 95.366061 127.022341 
L 95.578296 126.853102 
L 95.790531 126.955957 
L 96.215001 126.915709 
L 96.427236 126.984206 
L 96.851706 126.900153 
L 104.067693 126.931787 
L 104.279928 126.838738 
L 105.128867 126.929204 
L 105.977807 126.906892 
L 106.826747 126.984383 
L 107.251217 126.896155 
L 107.463452 126.954778 
L 107.675687 126.888567 
L 107.887921 126.947188 
L 108.312391 126.881843 
L 108.949096 126.922102 
L 109.798036 126.867377 
L 110.010271 126.855394 
L 110.222506 126.961586 
L 110.85921 126.856133 
L 111.28368 126.848433 
L 113.830499 126.903963 
L 114.254969 126.840952 
L 114.467204 126.918246 
L 114.891674 126.865224 
L 115.316144 126.859201 
L 116.165083 126.873708 
L 118.287432 126.885953 
L 118.499667 126.964965 
L 118.711902 126.869207 
L 118.924137 126.924246 
L 119.348607 126.847068 
L 120.197547 126.902222 
L 121.046486 126.887491 
L 121.470956 126.896769 
L 122.319896 126.894708 
L 128.686944 126.857126 
L 129.323648 126.874074 
L 129.960353 126.845824 
L 131.021528 126.868507 
L 132.931642 126.885457 
L 133.780582 126.823351 
L 134.417286 126.887928 
L 134.629521 126.84128 
L 134.841756 126.929061 
L 135.266226 126.834496 
L 136.327401 126.842099 
L 140.147629 126.868627 
L 140.572099 126.728717 
L 140.996569 126.839908 
L 142.269978 126.880759 
L 143.118918 126.809196 
L 143.755623 126.83149 
L 143.967858 126.74556 
L 144.392328 126.841483 
L 147.363616 126.872082 
L 149.485966 126.86634 
L 152.032785 126.887057 
L 152.24502 126.802374 
L 152.669489 126.844032 
L 153.306194 126.807931 
L 166.464759 126.813813 
L 166.676994 126.895421 
L 167.101464 126.844469 
L 167.313699 126.799803 
L 167.738169 126.851128 
L 168.162639 126.868119 
L 168.587108 126.831475 
L 169.011578 126.85668 
L 170.284988 126.88461 
L 170.921693 126.866923 
L 171.346162 126.87202 
L 175.166391 126.837887 
L 176.015331 126.88225 
L 178.774385 126.793398 
L 179.411089 126.806909 
L 179.835559 126.813171 
L 180.260029 126.849905 
L 181.108969 126.840466 
L 181.745673 126.802401 
L 182.170143 126.838894 
L 183.019083 126.811011 
L 183.443553 126.911444 
L 184.292492 126.826842 
L 186.202607 126.876419 
L 186.839312 126.881956 
L 187.476016 126.831229 
L 190.871775 126.908378 
L 191.08401 126.793125 
L 191.50848 126.83948 
L 192.781889 126.856451 
L 192.994124 126.885201 
L 193.418594 126.814267 
L 194.692004 126.889678 
L 195.540943 126.802541 
L 196.177648 126.914349 
L 196.602118 126.865903 
L 196.814353 126.929439 
L 197.238823 126.864692 
L 197.451057 126.918642 
L 197.875527 126.843317 
L 200.422346 126.844455 
L 200.846816 126.92994 
L 201.483521 126.765551 
L 201.695756 126.888216 
L 204.242575 126.890853 
L 204.87928 126.906959 
L 206.577159 126.828638 
L 207.213864 126.87532 
L 208.062803 126.83046 
L 208.699508 126.878166 
L 209.336213 126.822946 
L 209.548448 126.946209 
L 209.972918 126.879975 
L 210.397388 126.854561 
L 214.005381 126.867256 
L 215.915495 126.82235 
L 216.12773 126.965797 
L 217.40114 126.863083 
L 218.037845 126.904189 
L 223.980422 126.833437 
L 224.192657 126.944216 
L 225.041597 126.854725 
L 225.466067 126.891765 
L 226.102772 126.884224 
L 226.739476 126.884368 
L 227.163946 126.896093 
L 229.49853 126.947382 
L 229.710765 126.841338 
L 230.135235 126.885419 
L 233.955464 126.921766 
L 234.167699 126.982838 
L 234.592168 126.912419 
L 236.502283 126.856552 
L 236.926753 126.91044 
L 237.563457 126.832831 
L 237.987927 126.90752 
L 242.020391 126.841977 
L 242.657095 126.85352 
L 243.081565 126.846413 
L 243.71827 126.827837 
L 244.14274 126.890887 
L 244.779445 126.778578 
L 245.416149 126.835647 
L 246.052854 126.795825 
L 246.477324 126.857632 
L 246.901794 126.805145 
L 249.660848 126.820643 
L 250.085318 126.872015 
L 250.509787 126.791338 
L 251.146492 126.932759 
L 251.570962 126.773564 
L 251.995432 126.824502 
L 266.215171 126.853032 
L 266.639641 126.938774 
L 268.337521 126.781727 
L 269.18646 126.843241 
L 269.61093 126.786839 
L 270.0354 126.86888 
L 270.88434 126.823253 
L 271.096575 126.891778 
L 271.521044 126.834297 
L 271.945514 126.801493 
L 272.157749 126.896818 
L 272.582219 126.835159 
L 275.553508 126.846949 
L 275.977978 126.788412 
L 277.888092 126.80149 
L 281.071616 126.804037 
L 281.283851 126.73447 
L 282.13279 126.863864 
L 282.55726 126.839623 
L 282.98173 126.798419 
L 283.193965 126.903102 
L 284.042905 126.775884 
L 284.467374 126.824507 
L 284.891844 126.831727 
L 286.165254 126.779017 
L 286.589724 126.823651 
L 287.014194 126.76363 
L 288.075368 126.819139 
L 288.712073 126.818462 
L 288.924308 126.872434 
L 289.561013 126.749643 
L 290.197717 126.788717 
L 290.622187 126.7866 
L 293.381241 126.77942 
L 293.805711 126.776799 
L 294.866886 126.846848 
L 295.291355 126.821567 
L 295.715825 126.823088 
L 296.564765 126.844204 
L 297.413705 126.81798 
L 298.050409 126.800939 
L 298.474879 126.845178 
L 298.899349 126.733773 
L 299.536054 126.796747 
L 299.748289 126.771727 
L 299.960524 126.887205 
L 300.384993 126.807664 
L 301.021698 126.881976 
L 301.446168 126.75172 
L 302.295108 126.777293 
L 303.568517 126.775979 
L 303.992987 126.859771 
L 304.205222 126.726085 
L 305.054162 126.761967 
L 306.327571 126.782076 
L 306.539806 126.850528 
L 307.176511 126.720424 
L 307.388746 126.888558 
L 307.600981 126.781953 
L 308.025451 126.852923 
L 308.237685 126.756091 
L 308.662155 126.767158 
L 308.87439 126.706174 
L 309.29886 126.787403 
L 309.511095 126.717955 
L 309.935565 126.803612 
L 310.784505 126.755985 
L 311.208974 126.763227 
L 311.421209 126.68954 
L 312.270149 126.779445 
L 312.482384 126.746015 
L 312.694619 126.852734 
L 313.119089 126.694028 
L 313.543558 126.814186 
L 314.180263 126.653177 
L 314.604733 126.79661 
L 315.241438 126.788349 
L 315.665908 126.725238 
L 316.090378 126.734081 
L 316.514847 126.769012 
L 316.939317 126.718967 
L 318.000492 126.729121 
L 318.424962 126.734919 
L 322.032955 126.764275 
L 322.457425 126.756101 
L 322.881895 126.817198 
L 323.09413 126.719011 
L 323.730835 126.86644 
L 323.94307 126.722524 
L 324.792009 126.781359 
L 325.004244 126.684603 
L 325.216479 126.762336 
L 325.640949 126.711671 
L 326.065419 126.780642 
L 327.551063 126.640222 
L 327.763298 126.7461 
L 328.612238 126.623465 
L 328.824473 126.77299 
L 329.248943 126.763222 
L 329.673412 126.723888 
L 330.097882 126.725507 
L 330.310117 126.69247 
L 330.522352 126.801484 
L 330.734587 126.692603 
L 330.946822 126.806205 
L 332.007996 126.636411 
L 332.432466 126.90521 
L 333.069171 126.68176 
L 334.130346 126.706151 
L 334.342581 126.686078 
L 334.76705 126.816366 
L 335.19152 126.625235 
L 335.61599 126.82544 
L 336.04046 126.76317 
L 336.252695 126.601721 
L 336.8894 126.900586 
L 337.313869 126.75061 
L 337.950574 126.771505 
L 338.375044 126.788599 
L 338.799514 126.675679 
L 339.011749 126.665351 
L 339.223984 126.802178 
L 340.497393 126.790481 
L 340.709628 126.845063 
L 341.134098 126.632748 
L 341.346333 126.730477 
L 341.558568 126.681037 
L 341.770803 126.813693 
L 342.195273 126.725642 
L 342.619742 126.794085 
L 343.256447 126.748171 
L 343.680917 126.745499 
L 343.893152 126.686718 
L 344.105387 126.770598 
L 344.317622 126.650281 
L 344.529857 126.756772 
L 345.591031 126.588628 
L 346.015501 126.758847 
L 346.439971 126.76317 
L 346.864441 126.721718 
L 347.288911 126.82878 
L 347.501146 126.653243 
L 348.774555 126.728151 
L 349.199025 126.682676 
L 349.623495 126.876966 
L 350.472434 126.720581 
L 351.109139 126.858739 
L 351.321374 126.621926 
L 351.533609 126.694884 
L 351.745844 126.577392 
L 351.958079 126.758861 
L 355.990542 126.77725 
L 356.202777 126.828689 
L 356.415012 126.670728 
L 356.627247 126.75624 
L 356.839482 126.716426 
L 357.051717 126.844473 
L 357.263952 126.767982 
L 357.476187 126.87588 
L 357.688422 126.593574 
L 358.537361 126.837433 
L 359.174066 126.731214 
L 360.023006 126.826622 
L 360.447476 126.718552 
L 361.720885 126.831391 
L 361.93312 126.686865 
L 364.055469 126.752692 
L 365.753349 126.782861 
L 365.965584 126.635359 
L 366.390053 126.705024 
L 367.238993 126.693377 
L 367.875698 126.71824 
L 368.512403 126.779218 
L 369.149107 126.737415 
L 372.544866 126.790159 
L 372.969336 126.732568 
L 373.393806 126.830216 
L 373.606041 126.740923 
L 374.45498 126.781054 
L 384.005552 126.73747 
L 386.340136 126.732135 
L 389.311425 126.744249 
L 391.858244 126.734195 
L 393.131653 126.737806 
L 397.164117 126.750989 
L 398.861996 126.738633 
L 413.718441 126.74314 
L 414.56738 126.791604 
L 414.99185 126.756831 
L 427.08924 126.738844 
L 427.51371 126.735152 
L 428.150415 126.750007 
L 429.21159 126.740283 
L 430.697234 126.739295 
L 433.031818 126.745573 
L 433.031818 126.745573 
" clip-path="url(#pfdb05b426b)" style="fill: none; stroke-dasharray: 5.55,2.4; stroke-dashoffset: 0; stroke: #0000ff; stroke-width: 1.5"/>
   </g>
   <g id="patch_3">
    <path d="M 76.7 289.24 
L 76.7 36.24 
" style="fill: none; stroke: #000000; stroke-width: 0.8; stroke-linejoin: miter; stroke-linecap: square"/>
   </g>
   <g id="patch_4">
    <path d="M 450 289.24 
L 450 36.24 
" style="fill: none; stroke: #000000; stroke-width: 0.8; stroke-linejoin: miter; stroke-linecap: square"/>
   </g>
   <g id="patch_5">
    <path d="M 76.7 289.24 
L 450 289.24 
" style="fill: none; stroke: #000000; stroke-width: 0.8; stroke-linejoin: miter; stroke-linecap: square"/>
   </g>
   <g id="patch_6">
    <path d="M 76.7 36.24 
L 450 36.24 
" style="fill: none; stroke: #000000; stroke-width: 0.8; stroke-linejoin: miter; stroke-linecap: square"/>
   </g>
   <g id="text_17">
    <!-- Orientation -->
    <g transform="translate(189.958906 30.24) scale(0.26 -0.26)">
     <defs>
      <path id="DejaVuSans-4f" d="M 2522 4238 
Q 1834 4238 1429 3725 
Q 1025 3213 1025 2328 
Q 1025 1447 1429 934 
Q 1834 422 2522 422 
Q 3209 422 3611 934 
Q 4013 1447 4013 2328 
Q 4013 3213 3611 3725 
Q 3209 4238 2522 4238 
z
M 2522 4750 
Q 3503 4750 4090 4092 
Q 4678 3434 4678 2328 
Q 4678 1225 4090 567 
Q 3503 -91 2522 -91 
Q 1538 -91 948 565 
Q 359 1222 359 2328 
Q 359 3434 948 4092 
Q 1538 4750 2522 4750 
z
" transform="scale(0.015625)"/>
      <path id="DejaVuSans-6e" d="M 3513 2113 
L 3513 0 
L 2938 0 
L 2938 2094 
Q 2938 2591 2744 2837 
Q 2550 3084 2163 3084 
Q 1697 3084 1428 2787 
Q 1159 2491 1159 1978 
L 1159 0 
L 581 0 
L 581 3500 
L 1159 3500 
L 1159 2956 
Q 1366 3272 1645 3428 
Q 1925 3584 2291 3584 
Q 2894 3584 3203 3211 
Q 3513 2838 3513 2113 
z
" transform="scale(0.015625)"/>
      <path id="DejaVuSans-6f" d="M 1959 3097 
Q 1497 3097 1228 2736 
Q 959 2375 959 1747 
Q 959 1119 1226 758 
Q 1494 397 1959 397 
Q 2419 397 2687 759 
Q 2956 1122 2956 1747 
Q 2956 2369 2687 2733 
Q 2419 3097 1959 3097 
z
M 1959 3584 
Q 2709 3584 3137 3096 
Q 3566 2609 3566 1747 
Q 3566 888 3137 398 
Q 2709 -91 1959 -91 
Q 1206 -91 779 398 
Q 353 888 353 1747 
Q 353 2609 779 3096 
Q 1206 3584 1959 3584 
z
" transform="scale(0.015625)"/>
     </defs>
     <use xlink:href="#DejaVuSans-4f"/>
     <use xlink:href="#DejaVuSans-72" x="78.710938"/>
     <use xlink:href="#DejaVuSans-69" x="119.824219"/>
     <use xlink:href="#DejaVuSans-65" x="147.607422"/>
     <use xlink:href="#DejaVuSans-6e" x="209.130859"/>
     <use xlink:href="#DejaVuSans-74" x="272.509766"/>
     <use xlink:href="#DejaVuSans-61" x="311.71875"/>
     <use xlink:href="#DejaVuSans-74" x="372.998047"/>
     <use xlink:href="#DejaVuSans-69" x="412.207031"/>
     <use xlink:href="#DejaVuSans-6f" x="439.990234"/>
     <use xlink:href="#DejaVuSans-6e" x="501.171875"/>
    </g>
   </g>
   <g id="legend_1">
    <g id="patch_7">
     <path d="M 358.081875 81.0675 
L 441.6 81.0675 
Q 444 81.0675 444 78.6675 
L 444 44.64 
Q 444 42.24 441.6 42.24 
L 358.081875 42.24 
Q 355.681875 42.24 355.681875 44.64 
L 355.681875 78.6675 
Q 355.681875 81.0675 358.081875 81.0675 
z
" style="fill: #ffffff; opacity: 0.8; stroke: #cccccc; stroke-linejoin: miter"/>
    </g>
    <g id="line2d_21">
     <path d="M 360.481875 51.958125 
L 372.481875 51.958125 
L 384.481875 51.958125 
" style="fill: none; stroke: #000000; stroke-width: 1.5; stroke-linecap: square"/>
    </g>
    <g id="text_18">
     <!-- Gripper -->
     <g transform="translate(394.081875 56.158125) scale(0.12 -0.12)">
      <defs>
       <path id="DejaVuSans-47" d="M 3809 666 
L 3809 1919 
L 2778 1919 
L 2778 2438 
L 4434 2438 
L 4434 434 
Q 4069 175 3628 42 
Q 3188 -91 2688 -91 
Q 1594 -91 976 548 
Q 359 1188 359 2328 
Q 359 3472 976 4111 
Q 1594 4750 2688 4750 
Q 3144 4750 3555 4637 
Q 3966 4525 4313 4306 
L 4313 3634 
Q 3963 3931 3569 4081 
Q 3175 4231 2741 4231 
Q 1884 4231 1454 3753 
Q 1025 3275 1025 2328 
Q 1025 1384 1454 906 
Q 1884 428 2741 428 
Q 3075 428 3337 486 
Q 3600 544 3809 666 
z
" transform="scale(0.015625)"/>
      </defs>
      <use xlink:href="#DejaVuSans-47"/>
      <use xlink:href="#DejaVuSans-72" x="77.490234"/>
      <use xlink:href="#DejaVuSans-69" x="118.603516"/>
      <use xlink:href="#DejaVuSans-70" x="146.386719"/>
      <use xlink:href="#DejaVuSans-70" x="209.863281"/>
      <use xlink:href="#DejaVuSans-65" x="273.339844"/>
      <use xlink:href="#DejaVuSans-72" x="334.863281"/>
     </g>
    </g>
    <g id="line2d_22">
     <path d="M 360.481875 69.571875 
L 372.481875 69.571875 
L 384.481875 69.571875 
" style="fill: none; stroke-dasharray: 5.55,2.4; stroke-dashoffset: 0; stroke: #000000; stroke-width: 1.5"/>
    </g>
    <g id="text_19">
     <!-- Target -->
     <g transform="translate(394.081875 73.771875) scale(0.12 -0.12)">
      <defs>
       <path id="DejaVuSans-67" d="M 2906 1791 
Q 2906 2416 2648 2759 
Q 2391 3103 1925 3103 
Q 1463 3103 1205 2759 
Q 947 2416 947 1791 
Q 947 1169 1205 825 
Q 1463 481 1925 481 
Q 2391 481 2648 825 
Q 2906 1169 2906 1791 
z
M 3481 434 
Q 3481 -459 3084 -895 
Q 2688 -1331 1869 -1331 
Q 1566 -1331 1297 -1286 
Q 1028 -1241 775 -1147 
L 775 -588 
Q 1028 -725 1275 -790 
Q 1522 -856 1778 -856 
Q 2344 -856 2625 -561 
Q 2906 -266 2906 331 
L 2906 616 
Q 2728 306 2450 153 
Q 2172 0 1784 0 
Q 1141 0 747 490 
Q 353 981 353 1791 
Q 353 2603 747 3093 
Q 1141 3584 1784 3584 
Q 2172 3584 2450 3431 
Q 2728 3278 2906 2969 
L 2906 3500 
L 3481 3500 
L 3481 434 
z
" transform="scale(0.015625)"/>
      </defs>
      <use xlink:href="#DejaVuSans-54"/>
      <use xlink:href="#DejaVuSans-61" x="44.583984"/>
      <use xlink:href="#DejaVuSans-72" x="105.863281"/>
      <use xlink:href="#DejaVuSans-67" x="145.226562"/>
      <use xlink:href="#DejaVuSans-65" x="208.703125"/>
      <use xlink:href="#DejaVuSans-74" x="270.226562"/>
     </g>
    </g>
   </g>
  </g>
 </g>
 <defs>
  <clipPath id="pfdb05b426b">
   <rect x="76.7" y="36.24" width="373.3" height="253"/>
  </clipPath>
 </defs>
</svg>
