<?xml version="1.0" encoding="utf-8" standalone="no"?>
<!DOCTYPE svg PUBLIC "-//W3C//DTD SVG 1.1//EN"
  "http://www.w3.org/Graphics/SVG/1.1/DTD/svg11.dtd">
<svg xmlns:xlink="http://www.w3.org/1999/xlink" width="460.8pt" height="345.6pt" viewBox="0 0 460.8 345.6" xmlns="http://www.w3.org/2000/svg" version="1.1">
 <metadata>
  <rdf:RDF xmlns:dc="http://purl.org/dc/elements/1.1/" xmlns:cc="http://creativecommons.org/ns#" xmlns:rdf="http://www.w3.org/1999/02/22-rdf-syntax-ns#">
   <cc:Work>
    <dc:type rdf:resource="http://purl.org/dc/dcmitype/StillImage"/>
    <dc:date>2024-10-17T23:16:07.220099</dc:date>
    <dc:format>image/svg+xml</dc:format>
    <dc:creator>
     <cc:Agent>
      <dc:title>Matplotlib v3.7.5, https://matplotlib.org/</dc:title>
     </cc:Agent>
    </dc:creator>
   </cc:Work>
  </rdf:RDF>
 </metadata>
 <defs>
  <style type="text/css">*{stroke-linejoin: round; stroke-linecap: butt}</style>
 </defs>
 <g id="figure_1">
  <g id="patch_1">
   <path d="M 0 345.6 
L 460.8 345.6 
L 460.8 0 
L 0 0 
z
" style="fill: #ffffff"/>
  </g>
  <g id="axes_1">
   <g id="patch_2">
    <path d="M 76.7 289.24 
L 446.810179 289.24 
L 446.810179 36.24 
L 76.7 36.24 
z
" style="fill: #ffffff"/>
   </g>
   <g id="matplotlib.axis_1">
    <g id="xtick_1">
     <g id="line2d_1">
      <defs>
       <path id="mc8ea51d9e7" d="M 0 0 
L 0 3.5 
" style="stroke: #000000; stroke-width: 0.8"/>
      </defs>
      <g>
       <use xlink:href="#mc8ea51d9e7" x="93.52319" y="289.24" style="stroke: #000000; stroke-width: 0.8"/>
      </g>
     </g>
     <g id="text_1">
      <!-- 0 -->
      <g transform="translate(89.06944 306.877813) scale(0.14 -0.14)">
       <defs>
        <path id="DejaVuSans-30" d="M 2034 4250 
Q 1547 4250 1301 3770 
Q 1056 3291 1056 2328 
Q 1056 1369 1301 889 
Q 1547 409 2034 409 
Q 2525 409 2770 889 
Q 3016 1369 3016 2328 
Q 3016 3291 2770 3770 
Q 2525 4250 2034 4250 
z
M 2034 4750 
Q 2819 4750 3233 4129 
Q 3647 3509 3647 2328 
Q 3647 1150 3233 529 
Q 2819 -91 2034 -91 
Q 1250 -91 836 529 
Q 422 1150 422 2328 
Q 422 3509 836 4129 
Q 1250 4750 2034 4750 
z
" transform="scale(0.015625)"/>
       </defs>
       <use xlink:href="#DejaVuSans-30"/>
      </g>
     </g>
    </g>
    <g id="xtick_2">
     <g id="line2d_2">
      <g>
       <use xlink:href="#mc8ea51d9e7" x="160.262017" y="289.24" style="stroke: #000000; stroke-width: 0.8"/>
      </g>
     </g>
     <g id="text_2">
      <!-- 2000 -->
      <g transform="translate(142.447017 306.877813) scale(0.14 -0.14)">
       <defs>
        <path id="DejaVuSans-32" d="M 1228 531 
L 3431 531 
L 3431 0 
L 469 0 
L 469 531 
Q 828 903 1448 1529 
Q 2069 2156 2228 2338 
Q 2531 2678 2651 2914 
Q 2772 3150 2772 3378 
Q 2772 3750 2511 3984 
Q 2250 4219 1831 4219 
Q 1534 4219 1204 4116 
Q 875 4013 500 3803 
L 500 4441 
Q 881 4594 1212 4672 
Q 1544 4750 1819 4750 
Q 2544 4750 2975 4387 
Q 3406 4025 3406 3419 
Q 3406 3131 3298 2873 
Q 3191 2616 2906 2266 
Q 2828 2175 2409 1742 
Q 1991 1309 1228 531 
z
" transform="scale(0.015625)"/>
       </defs>
       <use xlink:href="#DejaVuSans-32"/>
       <use xlink:href="#DejaVuSans-30" x="63.623047"/>
       <use xlink:href="#DejaVuSans-30" x="127.246094"/>
       <use xlink:href="#DejaVuSans-30" x="190.869141"/>
      </g>
     </g>
    </g>
    <g id="xtick_3">
     <g id="line2d_3">
      <g>
       <use xlink:href="#mc8ea51d9e7" x="227.000845" y="289.24" style="stroke: #000000; stroke-width: 0.8"/>
      </g>
     </g>
     <g id="text_3">
      <!-- 4000 -->
      <g transform="translate(209.185845 306.877813) scale(0.14 -0.14)">
       <defs>
        <path id="DejaVuSans-34" d="M 2419 4116 
L 825 1625 
L 2419 1625 
L 2419 4116 
z
M 2253 4666 
L 3047 4666 
L 3047 1625 
L 3713 1625 
L 3713 1100 
L 3047 1100 
L 3047 0 
L 2419 0 
L 2419 1100 
L 313 1100 
L 313 1709 
L 2253 4666 
z
" transform="scale(0.015625)"/>
       </defs>
       <use xlink:href="#DejaVuSans-34"/>
       <use xlink:href="#DejaVuSans-30" x="63.623047"/>
       <use xlink:href="#DejaVuSans-30" x="127.246094"/>
       <use xlink:href="#DejaVuSans-30" x="190.869141"/>
      </g>
     </g>
    </g>
    <g id="xtick_4">
     <g id="line2d_4">
      <g>
       <use xlink:href="#mc8ea51d9e7" x="293.739672" y="289.24" style="stroke: #000000; stroke-width: 0.8"/>
      </g>
     </g>
     <g id="text_4">
      <!-- 6000 -->
      <g transform="translate(275.924672 306.877813) scale(0.14 -0.14)">
       <defs>
        <path id="DejaVuSans-36" d="M 2113 2584 
Q 1688 2584 1439 2293 
Q 1191 2003 1191 1497 
Q 1191 994 1439 701 
Q 1688 409 2113 409 
Q 2538 409 2786 701 
Q 3034 994 3034 1497 
Q 3034 2003 2786 2293 
Q 2538 2584 2113 2584 
z
M 3366 4563 
L 3366 3988 
Q 3128 4100 2886 4159 
Q 2644 4219 2406 4219 
Q 1781 4219 1451 3797 
Q 1122 3375 1075 2522 
Q 1259 2794 1537 2939 
Q 1816 3084 2150 3084 
Q 2853 3084 3261 2657 
Q 3669 2231 3669 1497 
Q 3669 778 3244 343 
Q 2819 -91 2113 -91 
Q 1303 -91 875 529 
Q 447 1150 447 2328 
Q 447 3434 972 4092 
Q 1497 4750 2381 4750 
Q 2619 4750 2861 4703 
Q 3103 4656 3366 4563 
z
" transform="scale(0.015625)"/>
       </defs>
       <use xlink:href="#DejaVuSans-36"/>
       <use xlink:href="#DejaVuSans-30" x="63.623047"/>
       <use xlink:href="#DejaVuSans-30" x="127.246094"/>
       <use xlink:href="#DejaVuSans-30" x="190.869141"/>
      </g>
     </g>
    </g>
    <g id="xtick_5">
     <g id="line2d_5">
      <g>
       <use xlink:href="#mc8ea51d9e7" x="360.4785" y="289.24" style="stroke: #000000; stroke-width: 0.8"/>
      </g>
     </g>
     <g id="text_5">
      <!-- 8000 -->
      <g transform="translate(342.6635 306.877813) scale(0.14 -0.14)">
       <defs>
        <path id="DejaVuSans-38" d="M 2034 2216 
Q 1584 2216 1326 1975 
Q 1069 1734 1069 1313 
Q 1069 891 1326 650 
Q 1584 409 2034 409 
Q 2484 409 2743 651 
Q 3003 894 3003 1313 
Q 3003 1734 2745 1975 
Q 2488 2216 2034 2216 
z
M 1403 2484 
Q 997 2584 770 2862 
Q 544 3141 544 3541 
Q 544 4100 942 4425 
Q 1341 4750 2034 4750 
Q 2731 4750 3128 4425 
Q 3525 4100 3525 3541 
Q 3525 3141 3298 2862 
Q 3072 2584 2669 2484 
Q 3125 2378 3379 2068 
Q 3634 1759 3634 1313 
Q 3634 634 3220 271 
Q 2806 -91 2034 -91 
Q 1263 -91 848 271 
Q 434 634 434 1313 
Q 434 1759 690 2068 
Q 947 2378 1403 2484 
z
M 1172 3481 
Q 1172 3119 1398 2916 
Q 1625 2713 2034 2713 
Q 2441 2713 2670 2916 
Q 2900 3119 2900 3481 
Q 2900 3844 2670 4047 
Q 2441 4250 2034 4250 
Q 1625 4250 1398 4047 
Q 1172 3844 1172 3481 
z
" transform="scale(0.015625)"/>
       </defs>
       <use xlink:href="#DejaVuSans-38"/>
       <use xlink:href="#DejaVuSans-30" x="63.623047"/>
       <use xlink:href="#DejaVuSans-30" x="127.246094"/>
       <use xlink:href="#DejaVuSans-30" x="190.869141"/>
      </g>
     </g>
    </g>
    <g id="xtick_6">
     <g id="line2d_6">
      <g>
       <use xlink:href="#mc8ea51d9e7" x="427.217327" y="289.24" style="stroke: #000000; stroke-width: 0.8"/>
      </g>
     </g>
     <g id="text_6">
      <!-- 10000 -->
      <g transform="translate(404.948577 306.877813) scale(0.14 -0.14)">
       <defs>
        <path id="DejaVuSans-31" d="M 794 531 
L 1825 531 
L 1825 4091 
L 703 3866 
L 703 4441 
L 1819 4666 
L 2450 4666 
L 2450 531 
L 3481 531 
L 3481 0 
L 794 0 
L 794 531 
z
" transform="scale(0.015625)"/>
       </defs>
       <use xlink:href="#DejaVuSans-31"/>
       <use xlink:href="#DejaVuSans-30" x="63.623047"/>
       <use xlink:href="#DejaVuSans-30" x="127.246094"/>
       <use xlink:href="#DejaVuSans-30" x="190.869141"/>
       <use xlink:href="#DejaVuSans-30" x="254.492188"/>
      </g>
     </g>
    </g>
    <g id="text_7">
     <!-- Timesteps -->
     <g transform="translate(205.316496 330.505937) scale(0.22 -0.22)">
      <defs>
       <path id="DejaVuSans-54" d="M -19 4666 
L 3928 4666 
L 3928 4134 
L 2272 4134 
L 2272 0 
L 1638 0 
L 1638 4134 
L -19 4134 
L -19 4666 
z
" transform="scale(0.015625)"/>
       <path id="DejaVuSans-69" d="M 603 3500 
L 1178 3500 
L 1178 0 
L 603 0 
L 603 3500 
z
M 603 4863 
L 1178 4863 
L 1178 4134 
L 603 4134 
L 603 4863 
z
" transform="scale(0.015625)"/>
       <path id="DejaVuSans-6d" d="M 3328 2828 
Q 3544 3216 3844 3400 
Q 4144 3584 4550 3584 
Q 5097 3584 5394 3201 
Q 5691 2819 5691 2113 
L 5691 0 
L 5113 0 
L 5113 2094 
Q 5113 2597 4934 2840 
Q 4756 3084 4391 3084 
Q 3944 3084 3684 2787 
Q 3425 2491 3425 1978 
L 3425 0 
L 2847 0 
L 2847 2094 
Q 2847 2600 2669 2842 
Q 2491 3084 2119 3084 
Q 1678 3084 1418 2786 
Q 1159 2488 1159 1978 
L 1159 0 
L 581 0 
L 581 3500 
L 1159 3500 
L 1159 2956 
Q 1356 3278 1631 3431 
Q 1906 3584 2284 3584 
Q 2666 3584 2933 3390 
Q 3200 3197 3328 2828 
z
" transform="scale(0.015625)"/>
       <path id="DejaVuSans-65" d="M 3597 1894 
L 3597 1613 
L 953 1613 
Q 991 1019 1311 708 
Q 1631 397 2203 397 
Q 2534 397 2845 478 
Q 3156 559 3463 722 
L 3463 178 
Q 3153 47 2828 -22 
Q 2503 -91 2169 -91 
Q 1331 -91 842 396 
Q 353 884 353 1716 
Q 353 2575 817 3079 
Q 1281 3584 2069 3584 
Q 2775 3584 3186 3129 
Q 3597 2675 3597 1894 
z
M 3022 2063 
Q 3016 2534 2758 2815 
Q 2500 3097 2075 3097 
Q 1594 3097 1305 2825 
Q 1016 2553 972 2059 
L 3022 2063 
z
" transform="scale(0.015625)"/>
       <path id="DejaVuSans-73" d="M 2834 3397 
L 2834 2853 
Q 2591 2978 2328 3040 
Q 2066 3103 1784 3103 
Q 1356 3103 1142 2972 
Q 928 2841 928 2578 
Q 928 2378 1081 2264 
Q 1234 2150 1697 2047 
L 1894 2003 
Q 2506 1872 2764 1633 
Q 3022 1394 3022 966 
Q 3022 478 2636 193 
Q 2250 -91 1575 -91 
Q 1294 -91 989 -36 
Q 684 19 347 128 
L 347 722 
Q 666 556 975 473 
Q 1284 391 1588 391 
Q 1994 391 2212 530 
Q 2431 669 2431 922 
Q 2431 1156 2273 1281 
Q 2116 1406 1581 1522 
L 1381 1569 
Q 847 1681 609 1914 
Q 372 2147 372 2553 
Q 372 3047 722 3315 
Q 1072 3584 1716 3584 
Q 2034 3584 2315 3537 
Q 2597 3491 2834 3397 
z
" transform="scale(0.015625)"/>
       <path id="DejaVuSans-74" d="M 1172 4494 
L 1172 3500 
L 2356 3500 
L 2356 3053 
L 1172 3053 
L 1172 1153 
Q 1172 725 1289 603 
Q 1406 481 1766 481 
L 2356 481 
L 2356 0 
L 1766 0 
Q 1100 0 847 248 
Q 594 497 594 1153 
L 594 3053 
L 172 3053 
L 172 3500 
L 594 3500 
L 594 4494 
L 1172 4494 
z
" transform="scale(0.015625)"/>
       <path id="DejaVuSans-70" d="M 1159 525 
L 1159 -1331 
L 581 -1331 
L 581 3500 
L 1159 3500 
L 1159 2969 
Q 1341 3281 1617 3432 
Q 1894 3584 2278 3584 
Q 2916 3584 3314 3078 
Q 3713 2572 3713 1747 
Q 3713 922 3314 415 
Q 2916 -91 2278 -91 
Q 1894 -91 1617 61 
Q 1341 213 1159 525 
z
M 3116 1747 
Q 3116 2381 2855 2742 
Q 2594 3103 2138 3103 
Q 1681 3103 1420 2742 
Q 1159 2381 1159 1747 
Q 1159 1113 1420 752 
Q 1681 391 2138 391 
Q 2594 391 2855 752 
Q 3116 1113 3116 1747 
z
" transform="scale(0.015625)"/>
      </defs>
      <use xlink:href="#DejaVuSans-54"/>
      <use xlink:href="#DejaVuSans-69" x="57.958984"/>
      <use xlink:href="#DejaVuSans-6d" x="85.742188"/>
      <use xlink:href="#DejaVuSans-65" x="183.154297"/>
      <use xlink:href="#DejaVuSans-73" x="244.677734"/>
      <use xlink:href="#DejaVuSans-74" x="296.777344"/>
      <use xlink:href="#DejaVuSans-65" x="335.986328"/>
      <use xlink:href="#DejaVuSans-70" x="397.509766"/>
      <use xlink:href="#DejaVuSans-73" x="460.986328"/>
     </g>
    </g>
   </g>
   <g id="matplotlib.axis_2">
    <g id="ytick_1">
     <g id="line2d_7">
      <defs>
       <path id="m9e5177b90f" d="M 0 0 
L -3.5 0 
" style="stroke: #000000; stroke-width: 0.8"/>
      </defs>
      <g>
       <use xlink:href="#m9e5177b90f" x="76.7" y="271.61673" style="stroke: #000000; stroke-width: 0.8"/>
      </g>
     </g>
     <g id="text_8">
      <!-- −0.2 -->
      <g transform="translate(35.704062 276.935636) scale(0.14 -0.14)">
       <defs>
        <path id="DejaVuSans-2212" d="M 678 2272 
L 4684 2272 
L 4684 1741 
L 678 1741 
L 678 2272 
z
" transform="scale(0.015625)"/>
        <path id="DejaVuSans-2e" d="M 684 794 
L 1344 794 
L 1344 0 
L 684 0 
L 684 794 
z
" transform="scale(0.015625)"/>
       </defs>
       <use xlink:href="#DejaVuSans-2212"/>
       <use xlink:href="#DejaVuSans-30" x="83.789062"/>
       <use xlink:href="#DejaVuSans-2e" x="147.412109"/>
       <use xlink:href="#DejaVuSans-32" x="179.199219"/>
      </g>
     </g>
    </g>
    <g id="ytick_2">
     <g id="line2d_8">
      <g>
       <use xlink:href="#m9e5177b90f" x="76.7" y="234.300831" style="stroke: #000000; stroke-width: 0.8"/>
      </g>
     </g>
     <g id="text_9">
      <!-- 0.0 -->
      <g transform="translate(47.435625 239.619737) scale(0.14 -0.14)">
       <use xlink:href="#DejaVuSans-30"/>
       <use xlink:href="#DejaVuSans-2e" x="63.623047"/>
       <use xlink:href="#DejaVuSans-30" x="95.410156"/>
      </g>
     </g>
    </g>
    <g id="ytick_3">
     <g id="line2d_9">
      <g>
       <use xlink:href="#m9e5177b90f" x="76.7" y="196.984932" style="stroke: #000000; stroke-width: 0.8"/>
      </g>
     </g>
     <g id="text_10">
      <!-- 0.2 -->
      <g transform="translate(47.435625 202.303838) scale(0.14 -0.14)">
       <use xlink:href="#DejaVuSans-30"/>
       <use xlink:href="#DejaVuSans-2e" x="63.623047"/>
       <use xlink:href="#DejaVuSans-32" x="95.410156"/>
      </g>
     </g>
    </g>
    <g id="ytick_4">
     <g id="line2d_10">
      <g>
       <use xlink:href="#m9e5177b90f" x="76.7" y="159.669033" style="stroke: #000000; stroke-width: 0.8"/>
      </g>
     </g>
     <g id="text_11">
      <!-- 0.4 -->
      <g transform="translate(47.435625 164.987939) scale(0.14 -0.14)">
       <use xlink:href="#DejaVuSans-30"/>
       <use xlink:href="#DejaVuSans-2e" x="63.623047"/>
       <use xlink:href="#DejaVuSans-34" x="95.410156"/>
      </g>
     </g>
    </g>
    <g id="ytick_5">
     <g id="line2d_11">
      <g>
       <use xlink:href="#m9e5177b90f" x="76.7" y="122.353133" style="stroke: #000000; stroke-width: 0.8"/>
      </g>
     </g>
     <g id="text_12">
      <!-- 0.6 -->
      <g transform="translate(47.435625 127.67204) scale(0.14 -0.14)">
       <use xlink:href="#DejaVuSans-30"/>
       <use xlink:href="#DejaVuSans-2e" x="63.623047"/>
       <use xlink:href="#DejaVuSans-36" x="95.410156"/>
      </g>
     </g>
    </g>
    <g id="ytick_6">
     <g id="line2d_12">
      <g>
       <use xlink:href="#m9e5177b90f" x="76.7" y="85.037234" style="stroke: #000000; stroke-width: 0.8"/>
      </g>
     </g>
     <g id="text_13">
      <!-- 0.8 -->
      <g transform="translate(47.435625 90.356141) scale(0.14 -0.14)">
       <use xlink:href="#DejaVuSans-30"/>
       <use xlink:href="#DejaVuSans-2e" x="63.623047"/>
       <use xlink:href="#DejaVuSans-38" x="95.410156"/>
      </g>
     </g>
    </g>
    <g id="ytick_7">
     <g id="line2d_13">
      <g>
       <use xlink:href="#m9e5177b90f" x="76.7" y="47.721335" style="stroke: #000000; stroke-width: 0.8"/>
      </g>
     </g>
     <g id="text_14">
      <!-- 1.0 -->
      <g transform="translate(47.435625 53.040242) scale(0.14 -0.14)">
       <use xlink:href="#DejaVuSans-31"/>
       <use xlink:href="#DejaVuSans-2e" x="63.623047"/>
       <use xlink:href="#DejaVuSans-30" x="95.410156"/>
      </g>
     </g>
    </g>
    <g id="text_15">
     <!-- Orientation -->
     <g transform="translate(27.12875 224.840156) rotate(-90) scale(0.22 -0.22)">
      <defs>
       <path id="DejaVuSans-4f" d="M 2522 4238 
Q 1834 4238 1429 3725 
Q 1025 3213 1025 2328 
Q 1025 1447 1429 934 
Q 1834 422 2522 422 
Q 3209 422 3611 934 
Q 4013 1447 4013 2328 
Q 4013 3213 3611 3725 
Q 3209 4238 2522 4238 
z
M 2522 4750 
Q 3503 4750 4090 4092 
Q 4678 3434 4678 2328 
Q 4678 1225 4090 567 
Q 3503 -91 2522 -91 
Q 1538 -91 948 565 
Q 359 1222 359 2328 
Q 359 3434 948 4092 
Q 1538 4750 2522 4750 
z
" transform="scale(0.015625)"/>
       <path id="DejaVuSans-72" d="M 2631 2963 
Q 2534 3019 2420 3045 
Q 2306 3072 2169 3072 
Q 1681 3072 1420 2755 
Q 1159 2438 1159 1844 
L 1159 0 
L 581 0 
L 581 3500 
L 1159 3500 
L 1159 2956 
Q 1341 3275 1631 3429 
Q 1922 3584 2338 3584 
Q 2397 3584 2469 3576 
Q 2541 3569 2628 3553 
L 2631 2963 
z
" transform="scale(0.015625)"/>
       <path id="DejaVuSans-6e" d="M 3513 2113 
L 3513 0 
L 2938 0 
L 2938 2094 
Q 2938 2591 2744 2837 
Q 2550 3084 2163 3084 
Q 1697 3084 1428 2787 
Q 1159 2491 1159 1978 
L 1159 0 
L 581 0 
L 581 3500 
L 1159 3500 
L 1159 2956 
Q 1366 3272 1645 3428 
Q 1925 3584 2291 3584 
Q 2894 3584 3203 3211 
Q 3513 2838 3513 2113 
z
" transform="scale(0.015625)"/>
       <path id="DejaVuSans-61" d="M 2194 1759 
Q 1497 1759 1228 1600 
Q 959 1441 959 1056 
Q 959 750 1161 570 
Q 1363 391 1709 391 
Q 2188 391 2477 730 
Q 2766 1069 2766 1631 
L 2766 1759 
L 2194 1759 
z
M 3341 1997 
L 3341 0 
L 2766 0 
L 2766 531 
Q 2569 213 2275 61 
Q 1981 -91 1556 -91 
Q 1019 -91 701 211 
Q 384 513 384 1019 
Q 384 1609 779 1909 
Q 1175 2209 1959 2209 
L 2766 2209 
L 2766 2266 
Q 2766 2663 2505 2880 
Q 2244 3097 1772 3097 
Q 1472 3097 1187 3025 
Q 903 2953 641 2809 
L 641 3341 
Q 956 3463 1253 3523 
Q 1550 3584 1831 3584 
Q 2591 3584 2966 3190 
Q 3341 2797 3341 1997 
z
" transform="scale(0.015625)"/>
       <path id="DejaVuSans-6f" d="M 1959 3097 
Q 1497 3097 1228 2736 
Q 959 2375 959 1747 
Q 959 1119 1226 758 
Q 1494 397 1959 397 
Q 2419 397 2687 759 
Q 2956 1122 2956 1747 
Q 2956 2369 2687 2733 
Q 2419 3097 1959 3097 
z
M 1959 3584 
Q 2709 3584 3137 3096 
Q 3566 2609 3566 1747 
Q 3566 888 3137 398 
Q 2709 -91 1959 -91 
Q 1206 -91 779 398 
Q 353 888 353 1747 
Q 353 2609 779 3096 
Q 1206 3584 1959 3584 
z
" transform="scale(0.015625)"/>
      </defs>
      <use xlink:href="#DejaVuSans-4f"/>
      <use xlink:href="#DejaVuSans-72" x="78.710938"/>
      <use xlink:href="#DejaVuSans-69" x="119.824219"/>
      <use xlink:href="#DejaVuSans-65" x="147.607422"/>
      <use xlink:href="#DejaVuSans-6e" x="209.130859"/>
      <use xlink:href="#DejaVuSans-74" x="272.509766"/>
      <use xlink:href="#DejaVuSans-61" x="311.71875"/>
      <use xlink:href="#DejaVuSans-74" x="372.998047"/>
      <use xlink:href="#DejaVuSans-69" x="412.207031"/>
      <use xlink:href="#DejaVuSans-6f" x="439.990234"/>
      <use xlink:href="#DejaVuSans-6e" x="501.171875"/>
     </g>
    </g>
   </g>
   <g id="line2d_14">
    <path d="M 93.52319 215.633451 
L 93.990362 215.705561 
L 94.157209 215.832101 
L 94.724489 216.10429 
L 95.024814 216.286533 
L 95.191661 216.370528 
L 95.458616 216.517148 
L 95.625463 216.589429 
L 95.79231 216.699983 
L 95.992527 216.789403 
L 96.226112 216.940957 
L 96.459698 217.043398 
L 96.626545 217.131802 
L 96.993609 217.360982 
L 97.260564 217.468323 
L 98.828927 218.307692 
L 98.995774 218.385445 
L 99.262729 218.538827 
L 99.496315 218.63558 
L 99.663162 218.746292 
L 99.863379 218.833745 
L 100.230442 219.058065 
L 100.430659 219.12207 
L 100.664244 219.27957 
L 100.9312 219.386788 
L 101.231525 219.585017 
L 101.49848 219.685669 
L 101.698696 219.817486 
L 102.666409 220.332617 
L 102.833256 220.405311 
L 103.066842 220.551522 
L 103.233689 220.630094 
L 103.500645 220.779816 
L 103.667492 220.858058 
L 103.901078 221.006325 
L 104.101294 221.085271 
L 104.33488 221.231027 
L 104.601835 221.335909 
L 104.835421 221.480411 
L 105.069007 221.588074 
L 105.46944 221.831092 
L 105.703026 221.941416 
L 106.03672 222.122338 
L 106.303675 222.215278 
L 106.537261 222.367532 
L 106.704108 222.454118 
L 106.904325 222.552204 
L 107.071172 222.623348 
L 107.371497 222.816794 
L 107.571713 222.893076 
L 107.805299 223.033839 
L 108.072254 223.13817 
L 108.439318 223.357542 
L 108.606165 223.42917 
L 108.806381 223.544175 
L 109.039967 223.649729 
L 109.373661 223.83953 
L 109.607247 223.948995 
L 109.840833 224.099004 
L 110.04105 224.163034 
L 110.274636 224.30362 
L 110.441483 224.403998 
L 112.109953 225.230082 
L 112.2768 225.321652 
L 112.610495 225.489217 
L 112.777342 225.567922 
L 113.044297 225.714165 
L 113.277883 225.819085 
L 113.511469 225.954551 
L 113.711685 226.035021 
L 114.01201 226.21603 
L 114.278965 226.319713 
L 114.646029 226.555288 
L 114.912984 226.653334 
L 115.179939 226.812849 
L 115.413525 226.912705 
L 115.680481 227.04753 
L 115.847328 227.1239 
L 116.147652 227.294815 
L 116.414608 227.402811 
L 116.648194 227.530223 
L 116.88178 227.6329 
L 117.081996 227.745987 
L 117.315582 227.852761 
L 117.549168 227.981423 
L 117.782754 228.091429 
L 118.183187 228.300155 
L 118.450142 228.399565 
L 118.817206 228.605759 
L 119.084161 228.707236 
L 119.517963 228.956678 
L 119.784919 229.052511 
L 120.085243 229.221299 
L 120.352199 229.32531 
L 120.619154 229.471835 
L 120.786001 229.560848 
L 121.086326 229.728447 
L 121.353281 229.826195 
L 121.653606 229.99561 
L 121.920561 230.096483 
L 123.522293 230.868608 
L 123.755879 230.965706 
L 124.022834 231.109464 
L 124.25642 231.20711 
L 124.690222 231.418733 
L 125.891521 231.953853 
L 126.125107 232.094578 
L 126.358693 232.196969 
L 126.625648 232.31801 
L 126.859234 232.416373 
L 127.12619 232.533584 
L 127.293037 232.599527 
L 127.526623 232.734551 
L 127.793578 232.840338 
L 133.099315 235.192931 
L 133.499748 235.353564 
L 133.699964 235.452359 
L 133.93355 235.549652 
L 134.200505 235.672927 
L 134.434091 235.769218 
L 134.834524 235.942833 
L 135.06811 236.044797 
L 135.568651 236.242636 
L 135.802237 236.341543 
L 135.969084 236.438995 
L 136.20267 236.506161 
L 136.369517 236.602066 
L 136.736581 236.756216 
L 137.003536 236.841022 
L 137.303861 237.017422 
L 137.637555 237.122994 
L 137.971249 237.273866 
L 138.772115 237.59574 
L 139.005701 237.727453 
L 139.406134 237.836652 
L 139.572981 237.954029 
L 139.806567 238.033478 
L 139.940044 238.094549 
L 140.17363 238.178341 
L 140.507324 238.35025 
L 140.674172 238.395928 
L 140.974496 238.518725 
L 141.241452 238.621537 
L 141.541776 238.788743 
L 141.87547 238.89926 
L 142.042318 238.978029 
L 142.275903 239.079791 
L 142.776445 239.281645 
L 142.909922 239.34491 
L 143.210247 239.449694 
L 143.477202 239.555001 
L 143.777527 239.65802 
L 143.977744 239.775107 
L 144.311438 239.909872 
L 144.545024 239.983514 
L 144.74524 240.094974 
L 148.549353 241.613694 
L 148.782939 241.712721 
L 149.116633 241.82802 
L 149.350219 241.903905 
L 149.583805 242.029597 
L 149.85076 242.114818 
L 150.217824 242.274972 
L 150.484779 242.350518 
L 150.651626 242.431409 
L 150.918582 242.534105 
L 151.218906 242.646042 
L 151.485862 242.72744 
L 151.652709 242.780513 
L 151.886295 242.883974 
L 152.15325 242.994402 
L 152.453575 243.104191 
L 155.890624 244.365577 
L 156.090841 244.397717 
L 156.324427 244.492839 
L 156.624751 244.622481 
L 157.025184 244.731697 
L 157.358878 244.84915 
L 157.659203 244.940388 
L 157.82605 245.022255 
L 158.159744 245.126701 
L 158.326591 245.191866 
L 158.727024 245.298828 
L 159.194196 245.459059 
L 159.928323 245.700985 
L 160.395495 245.851458 
L 160.69582 245.95605 
L 160.962775 246.029037 
L 161.2631 246.13553 
L 161.663533 246.267848 
L 162.030596 246.357909 
L 162.197443 246.439535 
L 162.531138 246.538887 
L 162.831462 246.653158 
L 163.165156 246.730047 
L 163.332003 246.806415 
L 163.665698 246.907826 
L 164.733519 247.270484 
L 165.067213 247.366895 
L 165.400907 247.466118 
L 165.701232 247.567695 
L 167.002639 247.963088 
L 167.403072 248.070787 
L 167.703397 248.173084 
L 168.10383 248.279715 
L 169.171651 248.543726 
L 169.538714 248.647803 
L 169.872409 248.726543 
L 170.473058 248.831409 
L 170.806752 248.91688 
L 171.47414 249.022561 
L 171.874573 249.083048 
L 172.608701 249.183362 
L 173.042503 249.246194 
L 173.309458 249.263757 
L 173.576414 249.300237 
L 175.51184 249.408947 
L 177.046833 249.410128 
L 179.716386 249.308056 
L 180.083449 249.273983 
L 181.71855 249.171478 
L 182.018875 249.138891 
L 183.553868 249.033459 
L 184.621689 248.946556 
L 200.438792 247.759019 
L 200.805855 247.722611 
L 202.040523 247.600002 
L 203.108345 247.493366 
L 203.575516 247.448848 
L 204.543229 247.353394 
L 204.876924 247.311924 
L 205.67779 247.239099 
L 206.81235 247.132414 
L 207.746693 247.036608 
L 208.847884 246.926456 
L 209.381794 246.867188 
L 210.449616 246.756907 
L 211.584176 246.635648 
L 215.388289 246.22073 
L 216.48948 246.111967 
L 217.357084 246.020827 
L 218.625122 245.912748 
L 221.962063 245.665757 
L 224.097706 245.563151 
L 224.464769 245.541932 
L 225.132158 245.51629 
L 236.110695 245.624635 
L 236.9783 245.681964 
L 238.513293 245.791923 
L 248.92455 246.937069 
L 249.391722 246.999134 
L 250.192587 247.109588 
L 250.726498 247.184999 
L 251.527364 247.29221 
L 252.027905 247.372226 
L 252.795402 247.476945 
L 253.295943 247.555979 
L 254.03007 247.658012 
L 254.497242 247.734043 
L 255.231369 247.834171 
L 255.565063 247.886918 
L 256.29919 247.994847 
L 256.766362 248.075723 
L 257.567228 248.185529 
L 258.0344 248.261437 
L 258.701788 248.362529 
L 259.235699 248.444368 
L 260.036565 248.550614 
L 260.403628 248.610045 
L 264.107633 249.138897 
L 264.84176 249.247519 
L 279.324086 251.010014 
L 280.19169 251.087677 
L 281.126034 251.178735 
L 282.360702 251.283588 
L 283.495262 251.388549 
L 285.89786 251.598269 
L 286.898943 251.690178 
L 288.300458 251.798916 
L 288.867738 251.841107 
L 290.269253 251.945559 
L 290.703056 251.984496 
L 291.770877 252.04671 
L 292.238049 252.075654 
L 293.906519 252.18485 
L 295.508251 252.266345 
L 296.74292 252.315086 
L 297.543786 252.347288 
L 304.951795 252.236856 
L 306.453419 252.154084 
L 308.021781 252.055376 
L 308.555692 252.015516 
L 310.057316 251.911138 
L 310.457749 251.87545 
L 312.09285 251.765654 
L 312.693499 251.714804 
L 314.228492 251.606397 
L 314.762403 251.555745 
L 317.398587 251.36644 
L 317.865759 251.329064 
L 319.50086 251.219517 
L 319.801185 251.189399 
L 324.706488 250.850366 
L 325.040182 250.828394 
L 325.874418 250.771338 
L 327.676366 250.660281 
L 328.210277 250.62265 
L 330.145703 250.511788 
L 330.512766 250.500157 
L 331.046677 250.462106 
L 332.915364 250.357669 
L 333.449275 250.329754 
L 335.685025 250.21961 
L 337.15328 250.150755 
L 338.588164 250.087166 
L 338.955228 250.063631 
L 341.524673 249.952982 
L 342.158692 249.920307 
L 342.559125 249.910102 
L 345.12857 249.801326 
L 345.729219 249.773841 
L 348.198556 249.66737 
L 348.799205 249.651247 
L 351.268542 249.541151 
L 351.769083 249.515527 
L 354.8057 249.405978 
L 355.706674 249.375594 
L 357.07482 249.332148 
L 357.575361 249.306788 
L 358.910137 249.26831 
L 359.243832 249.248772 
L 366.952166 249.01758 
L 367.753032 248.989828 
L 371.457037 248.881851 
L 372.458119 248.845289 
L 372.758444 248.843981 
L 376.696035 248.739297 
L 377.296684 248.723819 
L 381.634708 248.613842 
L 383.570134 248.561615 
L 384.771433 248.541734 
L 385.238605 248.523425 
L 389.643367 248.423827 
L 390.010431 248.405885 
L 391.044883 248.38157 
L 395.282798 248.278006 
L 395.716601 248.260253 
L 399.120281 248.175446 
L 403.124611 248.068568 
L 403.525044 248.060349 
L 407.195679 247.951097 
L 409.297952 247.883658 
L 412.568155 247.776965 
L 413.469129 247.742909 
L 416.739331 247.632833 
L 417.139764 247.617182 
L 420.24312 247.50654 
L 421.37768 247.462366 
L 422.078438 247.438798 
L 426.216245 247.2843 
L 429.019276 247.176686 
L 429.753403 247.141887 
L 429.986989 247.143936 
L 429.986989 247.143936 
" clip-path="url(#p1f6510b834)" style="fill: none; stroke: #ff0000; stroke-width: 1.5; stroke-linecap: square"/>
   </g>
   <g id="line2d_15">
    <path d="M 93.52319 219.390347 
L 94.09047 219.45858 
L 94.490903 219.607094 
L 94.691119 219.691432 
L 94.991444 219.783489 
L 95.22503 219.88786 
L 95.558724 219.987681 
L 95.79231 220.073362 
L 96.059265 220.183397 
L 96.793392 220.436915 
L 97.093717 220.538839 
L 97.52752 220.707094 
L 100.230442 221.669258 
L 100.497397 221.751784 
L 100.797722 221.882323 
L 101.064677 221.966641 
L 101.365002 222.102321 
L 101.698696 222.197894 
L 101.932282 222.311071 
L 102.265976 222.406953 
L 102.566301 222.539096 
L 102.899995 222.647277 
L 103.20032 222.778942 
L 103.534014 222.880674 
L 103.800969 222.99765 
L 104.468358 223.263601 
L 104.802052 223.373368 
L 105.636287 223.678586 
L 105.836504 223.773402 
L 106.07009 223.860027 
L 106.337045 223.952346 
L 106.63737 224.06269 
L 106.837586 224.145803 
L 107.137911 224.253337 
L 107.371497 224.382472 
L 107.705191 224.489773 
L 108.005516 224.616637 
L 108.33921 224.720359 
L 108.639534 224.853151 
L 108.90649 224.929856 
L 109.173445 225.050427 
L 109.507139 225.194985 
L 109.807464 225.298378 
L 110.00768 225.371875 
L 110.241266 225.471542 
L 117.215474 228.289662 
L 117.44906 228.386159 
L 117.849493 228.579042 
L 118.149817 228.680797 
L 118.55025 228.859456 
L 118.783836 228.943454 
L 119.050791 229.063493 
L 119.284377 229.149577 
L 119.618071 229.299469 
L 119.851657 229.395477 
L 120.619154 229.705734 
L 120.81937 229.813929 
L 121.820453 230.226062 
L 122.054039 230.314403 
L 122.454472 230.4935 
L 122.688058 230.586792 
L 123.021752 230.730444 
L 123.255338 230.832852 
L 123.789248 231.069008 
L 124.056204 231.149246 
L 124.289789 231.273419 
L 124.523375 231.372846 
L 124.756961 231.445686 
L 125.124025 231.636174 
L 125.39098 231.731106 
L 125.758044 231.910196 
L 126.024999 231.990011 
L 126.258585 232.134555 
L 126.592279 232.243299 
L 126.892604 232.396027 
L 127.226298 232.504384 
L 127.459884 232.646849 
L 127.793578 232.756977 
L 127.960425 232.843014 
L 128.194011 232.947431 
L 129.829112 233.629027 
L 130.029329 233.725352 
L 130.262914 233.818147 
L 130.4965 233.943554 
L 130.763456 234.034196 
L 130.997042 234.163698 
L 131.263997 234.251947 
L 131.731169 234.497289 
L 131.964755 234.568986 
L 135.702129 236.184107 
L 135.902345 236.289797 
L 136.436256 236.482322 
L 137.537447 236.959214 
L 137.771033 237.066721 
L 138.171466 237.225456 
L 138.405051 237.326789 
L 139.306026 237.694625 
L 139.439503 237.724825 
L 139.673089 237.818823 
L 139.806567 237.884741 
L 140.106892 237.981685 
L 140.340477 238.138772 
L 140.74091 238.246569 
L 141.041235 238.371071 
L 141.374929 238.480361 
L 141.708623 238.647696 
L 142.075687 238.757763 
L 143.243616 239.18016 
L 143.410463 239.24882 
L 143.510572 239.303223 
L 143.543941 239.282622 
L 143.977744 239.426604 
L 144.311438 239.557355 
L 144.611762 239.645052 
L 144.811979 239.732278 
L 145.112304 239.838367 
L 145.846431 240.076992 
L 146.113386 240.130331 
L 146.280233 240.215224 
L 146.613927 240.314425 
L 147.881965 240.713742 
L 148.215659 240.802642 
L 148.415876 240.854625 
L 148.782939 240.951424 
L 149.049894 241.032993 
L 149.483697 241.143494 
L 149.984238 241.263034 
L 151.385753 241.538715 
L 152.019772 241.630422 
L 152.286728 241.678543 
L 153.354549 241.769762 
L 153.521396 241.795952 
L 154.555848 241.841249 
L 154.756064 241.817522 
L 154.956281 241.825657 
L 157.192031 241.726654 
L 157.525725 241.657897 
L 157.792681 241.626542 
L 158.793763 241.520653 
L 159.194196 241.446276 
L 159.995062 241.265498 
L 160.161909 241.25186 
L 160.495603 241.173408 
L 160.729189 241.080316 
L 160.996145 241.051905 
L 161.22973 240.954247 
L 161.696902 240.845649 
L 161.963858 240.767661 
L 162.097335 240.72753 
L 162.431029 240.636904 
L 162.731354 240.528092 
L 162.898201 240.463952 
L 163.231895 240.371359 
L 163.465481 240.282835 
L 163.799175 240.20569 
L 164.032761 240.10005 
L 164.299716 240.004739 
L 164.800258 239.840457 
L 165.067213 239.741299 
L 165.367538 239.63132 
L 165.634493 239.532738 
L 166.235142 239.314545 
L 166.535467 239.205166 
L 166.869161 239.086203 
L 167.202855 238.982524 
L 167.50318 238.846435 
L 167.836874 238.737136 
L 168.971434 238.293035 
L 169.171651 238.251431 
L 169.405237 238.153583 
L 169.672192 238.016117 
L 169.972517 237.922979 
L 170.37295 237.760424 
L 170.673275 237.649478 
L 171.073707 237.464246 
L 171.407402 237.368444 
L 172.04142 237.099622 
L 172.308376 237.004051 
L 172.475223 236.937615 
L 172.675439 236.85246 
L 172.909025 236.715392 
L 173.242719 236.621457 
L 173.910108 236.339654 
L 174.243802 236.250121 
L 174.510757 236.084045 
L 175.979011 235.507407 
L 176.245967 235.407595 
L 176.412814 235.324465 
L 176.6464 235.229595 
L 176.913355 235.068833 
L 177.21368 234.967144 
L 180.884315 233.481024 
L 181.117901 233.37087 
L 181.251379 233.316748 
L 181.484965 233.227066 
L 181.685181 233.15923 
L 181.985506 233.056857 
L 185.522664 231.885949 
L 185.75625 231.808849 
L 185.989835 231.717939 
L 186.390268 231.614327 
L 186.757332 231.504631 
L 187.091026 231.414524 
L 187.391351 231.341267 
L 187.758414 231.222638 
L 188.158847 231.13579 
L 188.359064 231.080587 
L 189.226669 230.826035 
L 189.69384 230.728672 
L 190.094273 230.624907 
L 190.561445 230.514965 
L 190.86177 230.423738 
L 191.39568 230.314499 
L 191.629266 230.228706 
L 192.229916 230.12035 
L 192.396763 230.064724 
L 192.863935 229.957368 
L 193.13089 229.881864 
L 193.564692 229.77764 
L 194.031864 229.665155 
L 194.499036 229.566963 
L 194.699252 229.493243 
L 195.133055 229.39165 
L 196.801525 228.989606 
L 197.268697 228.885012 
L 197.569022 228.773385 
L 199.037276 228.333107 
L 199.270862 228.235167 
L 199.571187 228.14243 
L 199.838142 228.013566 
L 200.138467 227.923481 
L 200.305314 227.838192 
L 201.10618 227.50293 
L 201.439874 227.392047 
L 201.740199 227.242947 
L 202.073893 227.14206 
L 202.274109 227.029936 
L 206.011484 225.475597 
L 206.178331 225.404104 
L 206.512025 225.268536 
L 206.845719 225.120144 
L 207.079305 225.018931 
L 207.412999 224.85563 
L 207.646585 224.776861 
L 207.91354 224.645322 
L 208.247234 224.508321 
L 208.48082 224.402122 
L 208.681037 224.306676 
L 208.914623 224.219465 
L 209.148209 224.085665 
L 209.415164 223.986457 
L 209.748858 223.828516 
L 210.382877 223.573021 
L 210.616463 223.462906 
L 211.250482 223.19363 
L 211.484068 223.062822 
L 211.751023 222.959555 
L 211.951239 222.868749 
L 212.351672 222.668076 
L 212.585258 222.558105 
L 212.852213 222.440273 
L 213.452863 222.148634 
L 213.719818 222.042803 
L 214.053512 221.887575 
L 214.220359 221.821643 
L 214.387207 221.724201 
L 214.620792 221.622406 
L 215.221442 221.350814 
L 215.421658 221.270603 
L 215.588505 221.18713 
L 215.755352 221.105489 
L 216.022308 220.987956 
L 216.255894 220.882406 
L 216.522849 220.757051 
L 216.756435 220.660101 
L 217.156868 220.465127 
L 217.390454 220.362713 
L 218.591753 219.823822 
L 218.825339 219.712773 
L 219.492727 219.396886 
L 219.759682 219.297177 
L 220.060007 219.115348 
L 220.293593 219.044647 
L 220.493809 218.940149 
L 220.727395 218.845651 
L 220.927612 218.740611 
L 221.161198 218.642023 
L 221.661739 218.391226 
L 221.928694 218.28991 
L 222.229019 218.138667 
L 222.495974 218.038468 
L 222.796299 217.885669 
L 222.996515 217.827021 
L 223.163362 217.723126 
L 223.396948 217.619785 
L 223.630534 217.493343 
L 223.897489 217.394581 
L 224.931941 216.904252 
L 225.165527 216.801307 
L 225.499221 216.645417 
L 225.732807 216.556438 
L 225.966393 216.41503 
L 226.300087 216.311343 
L 226.500304 216.198304 
L 226.934106 216.008265 
L 227.935188 215.527025 
L 228.202144 215.430578 
L 228.469099 215.295961 
L 228.802793 215.148416 
L 229.036379 215.037992 
L 229.403443 214.841341 
L 229.670398 214.756794 
L 229.970723 214.583744 
L 230.237678 214.510468 
L 230.471264 214.367364 
L 230.70485 214.261525 
L 230.905066 214.191691 
L 231.071913 214.10158 
L 231.27213 214.025074 
L 232.139735 213.632528 
L 232.40669 213.530645 
L 232.740384 213.357831 
L 233.274295 213.117817 
L 233.54125 213.021763 
L 234.175269 212.719093 
L 237.378733 211.290132 
L 237.679057 211.143933 
L 237.946013 211.041004 
L 238.179599 210.920433 
L 238.446554 210.814175 
L 239.581114 210.302503 
L 239.848069 210.197403 
L 240.115025 210.071774 
L 240.34861 209.962443 
L 241.049368 209.645059 
L 241.282954 209.542454 
L 241.549909 209.425148 
L 241.783495 209.322336 
L 242.117189 209.162182 
L 242.350775 209.058823 
L 242.584361 208.956207 
L 244.386309 208.143978 
L 244.619895 208.039294 
L 244.886851 207.922199 
L 245.120437 207.82051 
L 245.387392 207.705807 
L 245.554239 207.633163 
L 245.787825 207.515315 
L 246.05478 207.420421 
L 246.355105 207.2414 
L 246.855646 207.033635 
L 247.089232 206.939235 
L 247.322818 206.830903 
L 248.89118 206.108077 
L 249.124766 206.000928 
L 249.792154 205.692546 
L 250.05911 205.596501 
L 250.359435 205.446353 
L 250.59302 205.345204 
L 250.859976 205.236371 
L 251.093562 205.130258 
L 251.360517 205.00569 
L 251.594103 204.906845 
L 251.894428 204.758244 
L 252.161383 204.649741 
L 252.495077 204.491365 
L 252.89551 204.305389 
L 253.129096 204.194397 
L 257.567228 202.244159 
L 257.834183 202.108842 
L 258.067769 202.023706 
L 258.301355 201.892131 
L 258.56831 201.791942 
L 258.868635 201.64189 
L 259.13559 201.546967 
L 259.435915 201.394474 
L 259.70287 201.299622 
L 260.003195 201.157023 
L 260.27015 201.050631 
L 260.503736 200.925963 
L 260.770692 200.83368 
L 261.004278 200.704428 
L 261.271233 200.603542 
L 261.571558 200.438426 
L 261.805143 200.34997 
L 262.205576 200.175758 
L 262.439162 200.075134 
L 262.706118 199.961479 
L 262.939704 199.855233 
L 263.206659 199.736877 
L 263.440245 199.646056 
L 263.673831 199.517396 
L 263.940786 199.422247 
L 264.241111 199.266982 
L 264.508066 199.178418 
L 264.741652 199.049369 
L 264.975238 198.957053 
L 265.308932 198.793404 
L 265.542518 198.711647 
L 265.742734 198.609741 
L 265.97632 198.515646 
L 266.243275 198.400375 
L 266.476861 198.296807 
L 266.777186 198.135838 
L 267.044141 198.048438 
L 267.344466 197.897901 
L 267.611421 197.808369 
L 267.845007 197.668938 
L 268.111963 197.577897 
L 268.545765 197.351499 
L 268.81272 197.246456 
L 269.213153 197.078359 
L 269.446739 196.981948 
L 269.713695 196.840717 
L 269.94728 196.75873 
L 270.180866 196.628799 
L 270.447822 196.551529 
L 270.648038 196.428696 
L 271.215318 196.198909 
L 271.415535 196.104957 
L 271.649121 196.001899 
L 271.882706 195.873079 
L 272.149662 195.788521 
L 272.516725 195.585088 
L 272.850419 195.469584 
L 273.150744 195.309034 
L 273.417699 195.233288 
L 273.584546 195.123311 
L 273.851502 195.024859 
L 274.185196 194.865396 
L 274.418782 194.773743 
L 274.952692 194.523974 
L 275.219648 194.415131 
L 276.087253 194.031644 
L 276.354208 193.931185 
L 276.78801 193.721105 
L 276.988227 193.618774 
L 294.006628 186.380883 
L 294.240214 186.280739 
L 294.4738 186.168073 
L 294.740755 186.073957 
L 294.974341 185.962363 
L 295.308035 185.858549 
L 295.541621 185.728232 
L 295.808576 185.634834 
L 296.075531 185.512959 
L 296.843028 185.190726 
L 297.043244 185.088695 
L 298.945301 184.299943 
L 299.212256 184.200395 
L 299.812906 183.932829 
L 300.046492 183.834996 
L 300.446925 183.653221 
L 300.780619 183.551159 
L 301.080943 183.399291 
L 301.347899 183.288432 
L 305.318859 181.616823 
L 305.552445 181.491057 
L 305.8194 181.409861 
L 306.052986 181.26435 
L 306.38668 181.156633 
L 306.620266 181.039119 
L 306.887221 180.940819 
L 307.621349 180.613155 
L 307.854934 180.5215 
L 308.055151 180.440144 
L 308.288737 180.349131 
L 308.522323 180.253376 
L 308.889386 180.084332 
L 309.122972 179.998676 
L 309.389927 179.874544 
L 309.623513 179.778115 
L 310.524488 179.396521 
L 310.824812 179.285763 
L 311.058398 179.155197 
L 311.325353 179.05669 
L 311.792525 178.845758 
L 312.026111 178.761425 
L 312.293066 178.63815 
L 312.526652 178.54882 
L 312.826977 178.398846 
L 313.093932 178.314908 
L 313.327518 178.1948 
L 313.561104 178.114475 
L 313.828059 177.999807 
L 314.061645 177.897797 
L 314.328601 177.787794 
L 314.562187 177.692451 
L 314.895881 177.54295 
L 315.129467 177.442887 
L 315.363053 177.322121 
L 315.630008 177.23059 
L 315.896963 177.115665 
L 316.130549 177.024618 
L 316.364135 176.909112 
L 316.63109 176.821447 
L 316.864676 176.680865 
L 317.19837 176.572166 
L 317.498695 176.421334 
L 317.732281 176.329969 
L 318.199453 176.120862 
L 318.466408 176.030351 
L 318.733363 175.895195 
L 319.267274 175.669227 
L 319.50086 175.571469 
L 320.134879 175.300866 
L 320.368465 175.207247 
L 321.002483 174.940085 
L 321.302808 174.836689 
L 321.536394 174.71146 
L 321.803349 174.621378 
L 322.036935 174.505651 
L 322.303891 174.395688 
L 322.837801 174.183314 
L 323.071387 174.072804 
L 323.405081 173.92851 
L 323.705406 173.818832 
L 323.905622 173.730169 
L 324.139208 173.633913 
L 324.439533 173.4922 
L 324.773227 173.381549 
L 325.106921 173.228893 
L 325.340507 173.141121 
L 325.574093 173.028612 
L 325.841048 172.934075 
L 326.108004 172.809283 
L 326.508437 172.64909 
L 326.742023 172.539469 
L 327.275933 172.307357 
L 327.542889 172.212314 
L 327.843213 172.066108 
L 328.076799 171.985889 
L 328.343754 171.853446 
L 328.644079 171.754248 
L 328.911034 171.632712 
L 329.14462 171.546834 
L 329.378206 171.456392 
L 329.678531 171.30775 
L 329.945486 171.208972 
L 330.179072 171.092567 
L 330.446028 170.999642 
L 330.679613 170.880861 
L 330.946569 170.793856 
L 331.313632 170.616744 
L 331.580588 170.524252 
L 332.081129 170.297563 
L 332.348084 170.206164 
L 332.58167 170.072385 
L 332.848625 169.978949 
L 333.315797 169.794199 
L 333.549383 169.702617 
L 334.016555 169.493977 
L 334.250141 169.390556 
L 334.650574 169.225769 
L 334.917529 169.132006 
L 335.41807 168.917636 
L 335.685025 168.830507 
L 335.918611 168.718694 
L 336.185567 168.61588 
L 336.686108 168.391166 
L 336.953063 168.293994 
L 337.186649 168.173907 
L 337.453604 168.090154 
L 337.820668 167.913522 
L 338.087623 167.8155 
L 338.454687 167.633575 
L 338.721642 167.540822 
L 339.122075 167.370089 
L 339.355661 167.271428 
L 339.622616 167.165756 
L 339.856202 167.076123 
L 340.189896 166.917649 
L 340.456852 166.826712 
L 340.823915 166.660271 
L 341.057501 166.561085 
L 342.692602 165.893051 
L 342.959558 165.800068 
L 343.326621 165.620177 
L 343.593577 165.528568 
L 343.893901 165.386851 
L 344.160857 165.299562 
L 344.394442 165.177022 
L 344.628028 165.087154 
L 344.961722 164.941611 
L 345.195308 164.856966 
L 345.462264 164.742069 
L 345.69585 164.656395 
L 345.896066 164.568117 
L 346.129652 164.475976 
L 346.463346 164.339761 
L 346.696932 164.24345 
L 347.063996 164.07045 
L 347.564537 163.883854 
L 347.864861 163.732801 
L 348.131817 163.647334 
L 348.465511 163.499893 
L 348.699097 163.414678 
L 348.966052 163.299438 
L 349.199638 163.20303 
L 350.033873 162.847058 
L 350.334198 162.753126 
L 350.601153 162.63173 
L 350.834739 162.547753 
L 351.168433 162.402916 
L 351.402019 162.310531 
L 351.769083 162.141076 
L 352.036038 162.054592 
L 352.269624 161.939979 
L 352.536579 161.848192 
L 352.970382 161.644385 
L 353.237337 161.565104 
L 353.537662 161.411161 
L 353.771248 161.324764 
L 354.038203 161.208673 
L 354.305158 161.11708 
L 354.605483 160.971218 
L 354.939177 160.861236 
L 355.37298 160.653875 
L 355.639935 160.562222 
L 355.973629 160.424166 
L 356.207215 160.330398 
L 356.440801 160.213389 
L 356.707756 160.11967 
L 356.941342 160.000785 
L 357.275036 159.890811 
L 357.541991 159.774777 
L 357.775577 159.683395 
L 358.17601 159.511592 
L 358.409596 159.419895 
L 358.810029 159.255102 
L 359.043615 159.158474 
L 359.31057 159.039238 
L 359.610895 158.933648 
L 359.944589 158.778188 
L 360.244914 158.668499 
L 360.4785 158.556536 
L 360.745455 158.474009 
L 361.04578 158.329611 
L 361.279366 158.239603 
L 361.679799 158.070309 
L 361.913385 157.978654 
L 362.547404 157.722589 
L 362.780989 157.625566 
L 363.047945 157.506839 
L 363.348269 157.400334 
L 363.615225 157.278049 
L 363.848811 157.197217 
L 364.115766 157.070994 
L 364.349352 156.98495 
L 364.582938 156.863384 
L 364.849893 156.779994 
L 365.083479 156.658026 
L 365.350434 156.574911 
L 365.61739 156.454238 
L 365.884345 156.337813 
L 366.117931 156.266131 
L 366.318147 156.168375 
L 372.291272 153.740165 
L 372.524858 153.649234 
L 372.791814 153.543555 
L 373.025399 153.460648 
L 373.325724 153.320364 
L 373.659418 153.211101 
L 374.026482 153.01973 
L 374.360176 152.920532 
L 374.627131 152.787737 
L 374.927456 152.68247 
L 375.29452 152.527715 
L 376.128755 152.170758 
L 378.13092 151.372286 
L 378.397875 151.286189 
L 378.631461 151.169129 
L 378.898416 151.078912 
L 379.23211 150.938521 
L 379.632543 150.771985 
L 379.932868 150.671541 
L 380.199823 150.543906 
L 380.500148 150.435445 
L 380.700365 150.34744 
L 380.933951 150.258018 
L 381.267645 150.122281 
L 381.567969 150.01778 
L 381.901664 149.868117 
L 382.66916 149.555877 
L 383.002854 149.445946 
L 383.470026 149.245598 
L 383.703612 149.147589 
L 384.104045 148.984397 
L 384.337631 148.902955 
L 384.604586 148.787754 
L 384.838172 148.704473 
L 385.171866 148.56091 
L 385.405452 148.479978 
L 385.605668 148.395255 
L 385.839254 148.311772 
L 386.206318 148.140227 
L 386.540012 148.032573 
L 386.840337 147.89148 
L 387.174031 147.785228 
L 387.440986 147.661763 
L 387.741311 147.554059 
L 388.075005 147.420199 
L 388.308591 147.313543 
L 388.742393 147.159439 
L 389.47652 146.85052 
L 389.810215 146.741372 
L 390.177278 146.564509 
L 390.510972 146.455081 
L 390.811297 146.315092 
L 391.078252 146.226172 
L 391.378577 146.08612 
L 391.712271 145.97746 
L 392.045965 145.838549 
L 392.279551 145.755559 
L 392.546506 145.649877 
L 392.780092 145.560654 
L 393.113787 145.421202 
L 393.414111 145.324123 
L 393.681067 145.190322 
L 393.981391 145.085951 
L 394.315085 144.948422 
L 394.548671 144.865939 
L 394.815627 144.75558 
L 395.049213 144.670836 
L 395.316168 144.559933 
L 395.616493 144.457061 
L 395.850078 144.366586 
L 396.283881 144.175674 
L 396.617575 144.067254 
L 396.9179 143.930721 
L 397.184855 143.855637 
L 397.418441 143.743199 
L 397.752135 143.636258 
L 398.119199 143.465338 
L 398.452893 143.355011 
L 398.819956 143.185782 
L 399.15365 143.077661 
L 399.620822 142.886877 
L 399.854408 142.813287 
L 400.087994 142.690079 
L 400.421688 142.592185 
L 400.722013 142.448934 
L 401.055707 142.340692 
L 401.289293 142.25928 
L 401.823204 142.042218 
L 402.056789 141.963234 
L 402.290375 141.847201 
L 402.624069 141.744219 
L 402.924394 141.605233 
L 403.258088 141.497608 
L 403.658521 141.33137 
L 403.958846 141.221376 
L 404.29254 141.08796 
L 404.592865 140.986462 
L 404.926559 140.842245 
L 405.226884 140.731673 
L 405.593947 140.59154 
L 406.261336 140.328628 
L 406.494921 140.232698 
L 406.761877 140.149222 
L 406.995463 140.059509 
L 407.329157 139.931667 
L 407.562743 139.842753 
L 408.029914 139.651778 
L 408.363609 139.543705 
L 409.231213 139.193622 
L 409.498169 139.116214 
L 409.731755 138.985436 
L 410.032079 138.897352 
L 410.365773 138.756943 
L 410.666098 138.650073 
L 410.999792 138.516256 
L 411.233378 138.423918 
L 411.70055 138.243031 
L 412.000875 138.136292 
L 412.334569 138.000065 
L 412.634894 137.89464 
L 412.968588 137.759002 
L 413.268912 137.657255 
L 413.535868 137.553332 
L 413.869562 137.44683 
L 414.370103 137.22751 
L 414.703797 137.120522 
L 415.037491 136.992864 
L 415.337816 136.882666 
L 415.70488 136.721092 
L 416.038574 136.615261 
L 416.305529 136.501566 
L 416.83944 136.286121 
L 417.173134 136.179628 
L 417.540197 136.034582 
L 417.840522 135.928207 
L 418.174216 135.791437 
L 418.474541 135.684789 
L 418.808235 135.550667 
L 419.10856 135.444462 
L 419.375515 135.339308 
L 419.609101 135.248983 
L 419.942795 135.119991 
L 420.24312 135.010299 
L 420.543445 134.880554 
L 420.877139 134.77475 
L 421.177463 134.627473 
L 421.511158 134.525166 
L 422.378762 134.194934 
L 422.645718 134.101311 
L 423.379845 133.812714 
L 423.68017 133.705079 
L 423.947125 133.602826 
L 424.24745 133.494899 
L 424.447666 133.417105 
L 424.747991 133.307787 
L 425.014946 133.195918 
L 425.815812 132.906155 
L 426.082767 132.809311 
L 426.349723 132.716667 
L 426.783525 132.530534 
L 427.117219 132.436659 
L 427.384174 132.319074 
L 427.61776 132.24189 
L 427.817977 132.149501 
L 429.586556 131.497003 
L 429.853511 131.387027 
L 429.986989 131.339696 
L 429.986989 131.339696 
" clip-path="url(#p1f6510b834)" style="fill: none; stroke: #008000; stroke-width: 1.5; stroke-linecap: square"/>
   </g>
   <g id="line2d_16">
    <path d="M 93.52319 268.626131 
L 94.357425 268.364834 
L 94.824597 268.126122 
L 94.991444 268.047915 
L 95.291769 267.867012 
L 95.558724 267.764546 
L 95.79231 267.643578 
L 95.992527 267.542813 
L 96.226112 267.39981 
L 96.459698 267.309891 
L 96.726654 267.172774 
L 96.96024 267.067874 
L 97.427411 266.844485 
L 97.560889 266.745862 
L 107.338127 262.001086 
L 107.538344 261.898712 
L 107.705191 261.82678 
L 107.938777 261.714448 
L 108.205732 261.611087 
L 108.439318 261.478685 
L 108.706273 261.380535 
L 108.939859 261.239378 
L 109.173445 261.140202 
L 109.4404 260.995786 
L 109.673986 260.898668 
L 109.907572 260.771748 
L 110.141158 260.661842 
L 110.541591 260.476132 
L 110.808546 260.374457 
L 111.075502 260.237351 
L 111.475935 260.03526 
L 111.70952 259.944516 
L 111.909737 259.826575 
L 112.243431 259.663092 
L 112.477017 259.56452 
L 112.743972 259.425838 
L 112.977558 259.325545 
L 113.311252 259.158134 
L 113.544838 259.060377 
L 113.811793 258.925801 
L 114.045379 258.824594 
L 114.379074 258.656946 
L 114.57929 258.546125 
L 127.559992 252.737864 
L 127.793578 252.637946 
L 128.027164 252.520979 
L 128.294119 252.427702 
L 128.527705 252.304407 
L 128.761291 252.208273 
L 128.994877 252.117795 
L 129.295201 251.979719 
L 129.562157 251.877518 
L 129.92922 251.699737 
L 130.196176 251.612833 
L 130.563239 251.422579 
L 130.830195 251.329729 
L 131.130519 251.18675 
L 131.397475 251.087245 
L 134.467461 249.791255 
L 134.734416 249.71149 
L 134.901263 249.60878 
L 135.168218 249.509843 
L 135.568651 249.309059 
L 135.868976 249.232847 
L 136.035823 249.128052 
L 136.302778 249.040741 
L 136.502995 248.949308 
L 136.870058 248.787296 
L 137.137014 248.703385 
L 137.303861 248.607152 
L 137.570816 248.503043 
L 137.804402 248.382843 
L 138.138096 248.275479 
L 138.304943 248.193789 
L 138.47179 248.114184 
L 138.738746 247.985252 
L 139.03907 247.899063 
L 139.205917 247.809936 
L 139.472873 247.731732 
L 139.60635 247.632203 
L 139.806567 247.548893 
L 140.307108 247.376026 
L 140.440586 247.277607 
L 140.640802 247.199361 
L 140.941127 247.102485 
L 141.074605 247.032967 
L 141.34156 246.922923 
L 141.575146 246.835821 
L 141.708623 246.764518 
L 141.942209 246.671407 
L 142.242534 246.543257 
L 142.509489 246.454227 
L 142.743075 246.33998 
L 143.010031 246.23373 
L 143.143508 246.195617 
L 144.011113 245.802874 
L 144.278068 245.698322 
L 144.478285 245.608617 
L 144.778609 245.469667 
L 145.045565 245.380336 
L 145.245781 245.276622 
L 145.512737 245.147145 
L 145.8798 245.038782 
L 146.013278 244.964817 
L 150.751735 243.018805 
L 150.818473 242.929567 
L 150.885212 242.95599 
L 151.118798 242.88013 
L 151.352384 242.76364 
L 151.619339 242.653097 
L 151.886295 242.504933 
L 152.019772 242.481678 
L 152.15325 242.391611 
L 152.453575 242.314455 
L 152.620422 242.213304 
L 152.887377 242.125809 
L 153.020855 242.023654 
L 153.054224 242.051305 
L 153.221071 241.9523 
L 155.223236 241.082261 
L 155.55693 240.974537 
L 155.690408 240.920439 
L 155.890624 240.796527 
L 156.891707 240.404493 
L 157.025184 240.353887 
L 157.091923 240.361206 
L 157.192031 240.219958 
L 157.225401 240.252622 
L 157.325509 240.258645 
L 157.458987 240.120139 
L 157.592464 240.092485 
L 157.659203 240.013706 
L 157.725942 240.054333 
L 157.959528 239.946408 
L 158.226483 239.852369 
L 158.39333 239.725085 
L 158.560177 239.663853 
L 158.793763 239.562341 
L 159.060719 239.436254 
L 159.56126 239.266845 
L 159.761476 239.13732 
L 160.061801 239.026261 
L 160.495603 238.843542 
L 160.862667 238.665706 
L 161.129622 238.574451 
L 161.296469 238.498692 
L 161.530055 238.395048 
L 161.663533 238.354481 
L 161.897119 238.252981 
L 162.297552 238.073459 
L 162.597876 237.968493 
L 162.764723 237.870872 
L 163.031679 237.776249 
L 163.398742 237.610537 
L 163.565589 237.526251 
L 163.832545 237.424451 
L 164.066131 237.319914 
L 164.433194 237.193774 
L 164.900366 236.98625 
L 165.200691 236.881526 
L 165.467646 236.764122 
L 165.701232 236.659857 
L 166.602206 236.30599 
L 166.735684 236.281267 
L 166.96927 236.174658 
L 168.971434 235.381671 
L 169.038173 235.335189 
L 169.071543 235.395183 
L 169.20502 235.30425 
L 169.371867 235.236652 
L 169.605453 235.166761 
L 169.7723 235.079072 
L 169.905778 235.062332 
L 170.039256 235.015369 
L 170.740013 234.73618 
L 170.873491 234.699126 
L 171.107077 234.621606 
L 171.273924 234.560595 
L 171.540879 234.515675 
L 171.674357 234.39492 
L 171.807835 234.385646 
L 171.941312 234.344688 
L 172.241637 234.244097 
L 172.441853 234.146027 
L 172.575331 234.082961 
L 172.975764 234.004096 
L 173.109242 233.891752 
L 173.175981 233.954255 
L 173.20935 233.891501 
L 173.442936 233.846509 
L 173.576414 233.754575 
L 173.943477 233.675445 
L 174.076955 233.619001 
L 174.310541 233.550259 
L 176.346075 232.877617 
L 176.479553 232.87377 
L 176.579661 232.82789 
L 176.6464 232.75987 
L 176.679769 232.827831 
L 176.879985 232.72533 
L 177.413896 232.595227 
L 177.714221 232.523215 
L 177.881068 232.448763 
L 178.448348 232.29184 
L 178.782042 232.154075 
L 178.848781 232.208685 
L 178.88215 232.154324 
L 179.282583 232.046803 
L 179.816494 231.909106 
L 180.216927 231.847712 
L 180.383774 231.793305 
L 180.784207 231.696261 
L 181.18464 231.590764 
L 181.71855 231.496449 
L 181.852028 231.453134 
L 182.118983 231.428761 
L 182.252461 231.338658 
L 182.352569 231.38412 
L 182.519416 231.302849 
L 183.053327 231.240769 
L 183.186805 231.166097 
L 183.320282 231.152903 
L 183.987671 231.058143 
L 184.121148 231.001388 
L 184.287995 230.954208 
L 185.022122 230.862691 
L 185.1556 230.833863 
L 185.689511 230.764648 
L 185.822988 230.72133 
L 186.32353 230.660582 
L 186.457007 230.622365 
L 186.723963 230.608892 
L 186.924179 230.550344 
L 187.725045 230.443514 
L 188.02537 230.401387 
L 188.158847 230.376053 
L 189.493624 230.214446 
L 191.162095 230.022127 
L 192.163177 229.912157 
L 193.865017 229.724013 
L 194.098603 229.69535 
L 195.066316 229.595555 
L 195.40001 229.552665 
L 196.334354 229.446233 
L 197.10185 229.374339 
L 199.671295 229.066512 
L 199.838142 229.026359 
L 200.50553 228.921135 
L 203.175084 228.555335 
L 203.675625 228.500987 
L 203.975949 228.436951 
L 204.343013 228.400879 
L 205.243987 228.301903 
L 205.611051 228.255015 
L 206.378547 228.164768 
L 206.578764 228.141719 
L 207.679954 228.030915 
L 208.414081 227.955362 
L 208.547559 227.952588 
L 208.747776 227.913437 
L 209.982444 227.811308 
L 210.349507 227.772353 
L 211.650915 227.666513 
L 212.251564 227.62344 
L 213.653079 227.536861 
L 213.819926 227.514188 
L 215.188072 227.420847 
L 215.388289 227.396364 
L 217.256976 227.297644 
L 217.557301 227.272666 
L 217.690778 227.2807 
L 217.890995 227.251628 
L 219.025555 227.217348 
L 219.192402 227.206871 
L 219.559466 227.169737 
L 221.428153 227.082708 
L 221.595 227.075306 
L 223.530426 226.980439 
L 223.697273 226.966979 
L 225.933024 226.852106 
L 226.13324 226.832763 
L 227.968558 226.734528 
L 228.135405 226.720521 
L 229.937353 226.61271 
L 230.237678 226.592591 
L 230.571372 226.584157 
L 230.871697 226.548992 
L 231.071913 226.544261 
L 231.472346 226.5311 
L 233.107448 226.425183 
L 233.908314 226.364566 
L 234.242008 226.35515 
L 234.742549 226.314304 
L 235.376568 226.268478 
L 235.977217 226.217266 
L 237.578949 226.113051 
L 238.212968 226.06125 
L 238.546662 226.037499 
L 240.148394 225.927225 
L 240.515457 225.890672 
L 242.08382 225.781035 
L 243.084902 225.708117 
L 243.518705 225.675739 
L 245.053698 225.570487 
L 245.787825 225.523162 
L 247.322818 225.41878 
L 247.589773 225.38734 
L 248.290531 225.351662 
L 248.824442 225.301283 
L 250.192587 225.211047 
L 250.426173 225.183446 
L 251.794319 225.087744 
L 252.027905 225.059962 
L 253.496159 224.958939 
L 253.929962 224.931017 
L 255.364847 224.822658 
L 255.698541 224.795729 
L 257.300273 224.69023 
L 257.600597 224.66709 
L 259.202329 224.572241 
L 259.435915 224.546092 
L 261.40471 224.437916 
L 262.238946 224.39032 
L 268.912829 224.065667 
L 271.582382 223.956235 
L 272.81705 223.909368 
L 276.187361 223.803069 
L 276.587794 223.784757 
L 280.525385 223.67805 
L 280.925818 223.65186 
L 284.396237 223.550916 
L 284.79667 223.528703 
L 288.700891 223.442025 
L 288.867738 223.425559 
L 293.339239 223.319022 
L 293.639564 223.321697 
L 297.3102 223.224756 
L 297.610524 223.210479 
L 297.910849 223.221255 
L 298.144435 223.201261 
L 298.378021 223.199383 
L 301.548115 223.110312 
L 301.748332 223.091327 
L 307.020699 222.988523 
L 307.254285 222.964718 
L 310.758073 222.856731 
L 311.158506 222.840754 
L 314.061645 222.740833 
L 314.39534 222.736328 
L 317.031523 222.637766 
L 317.265109 222.622212 
L 319.801185 222.535942 
L 321.035853 222.49516 
L 323.838884 222.408687 
L 324.372794 222.392753 
L 328.076799 222.28765 
L 328.377124 222.273765 
L 330.212442 222.220863 
L 330.679613 222.208058 
L 334.116663 222.105147 
L 334.550465 222.093006 
L 338.688273 221.98917 
L 342.959558 221.888888 
L 343.226513 221.873234 
L 349.499963 221.763832 
L 349.900396 221.768094 
L 359.243832 221.66152 
L 359.944589 221.651854 
L 413.936301 221.759435 
L 414.370103 221.764259 
L 420.443336 221.86233 
L 420.710292 221.872585 
L 426.4832 221.976007 
L 426.850264 221.996957 
L 427.117219 221.98541 
L 427.417544 222.000848 
L 427.918085 222.0153 
L 429.986989 222.064039 
L 429.986989 222.064039 
" clip-path="url(#p1f6510b834)" style="fill: none; stroke: #0000ff; stroke-width: 1.5; stroke-linecap: square"/>
   </g>
   <g id="line2d_17">
    <path d="M 93.52319 52.468798 
L 94.65775 52.327819 
L 95.158291 52.229444 
L 95.825679 52.125205 
L 96.526437 51.999743 
L 97.160456 51.895044 
L 97.761105 51.79436 
L 98.428494 51.691659 
L 99.162621 51.571639 
L 99.930117 51.461098 
L 100.964569 51.29952 
L 101.698696 51.195038 
L 102.299346 51.100611 
L 103.033473 50.99832 
L 103.934447 50.867955 
L 104.735313 50.761113 
L 105.436071 50.65986 
L 107.805299 50.358754 
L 108.706273 50.256936 
L 109.373661 50.170172 
L 110.308005 50.066368 
L 110.841916 50.002266 
L 111.842998 49.892801 
L 112.510386 49.814963 
L 113.644946 49.704389 
L 114.57929 49.602177 
L 122.154147 48.968643 
L 123.822618 48.860534 
L 127.059451 48.673332 
L 129.328571 48.56441 
L 130.730086 48.503663 
L 133.866811 48.393496 
L 136.936797 48.313363 
L 202.474326 48.423401 
L 208.247234 48.519062 
L 213.219277 48.628618 
L 215.488397 48.690507 
L 223.964228 48.977516 
L 225.03205 49.023792 
L 229.803876 49.248371 
L 245.620978 50.256352 
L 246.989124 50.365305 
L 248.35727 50.472157 
L 249.358352 50.553007 
L 253.362682 50.893765 
L 254.59735 51.004491 
L 256.566145 51.182145 
L 257.700706 51.28731 
L 258.468202 51.361719 
L 259.636132 51.469603 
L 261.838513 51.684874 
L 263.006442 51.795316 
L 264.307849 51.92553 
L 265.40904 52.034015 
L 267.210988 52.218409 
L 268.24544 52.319587 
L 268.712612 52.374142 
L 269.747064 52.478368 
L 270.280975 52.535604 
L 271.282057 52.640632 
L 272.550095 52.780963 
L 274.018349 52.938881 
L 275.08617 53.046746 
L 275.553342 53.104286 
L 277.455398 53.31523 
L 278.48985 53.421846 
L 279.223977 53.510901 
L 280.22506 53.618668 
L 281.893531 53.809456 
L 282.861244 53.916425 
L 284.496345 54.100978 
L 285.464058 54.210517 
L 287.332745 54.426659 
L 288.300458 54.536716 
L 289.234802 54.647322 
L 290.202515 54.756077 
L 291.203597 54.878514 
L 293.472717 55.142586 
L 294.44043 55.260218 
L 295.708468 55.411365 
L 296.576073 55.514832 
L 297.143353 55.588028 
L 298.41139 55.733302 
L 298.811823 55.787498 
L 299.712797 55.88998 
L 300.313447 55.973839 
L 301.28116 56.082413 
L 301.815071 56.150475 
L 302.749414 56.258856 
L 303.283325 56.331036 
L 304.184299 56.431451 
L 304.618101 56.488739 
L 306.820483 56.756012 
L 307.487871 56.844093 
L 308.355476 56.94942 
L 308.922756 57.015788 
L 310.023946 57.158889 
L 310.891551 57.263797 
L 311.425462 57.33894 
L 312.326436 57.448259 
L 314.161754 57.691498 
L 315.062728 57.800557 
L 315.49653 57.861747 
L 316.09718 57.945038 
L 316.898046 58.053631 
L 329.278098 59.783002 
L 330.012225 59.893891 
L 331.246893 60.080668 
L 331.981021 60.186872 
L 332.681778 60.298631 
L 333.415905 60.40195 
L 334.216771 60.536586 
L 334.984268 60.639059 
L 335.651656 60.743549 
L 336.319044 60.84428 
L 337.11991 60.982119 
L 337.854037 61.086468 
L 338.454687 61.192157 
L 339.155445 61.292574 
L 339.756094 61.393182 
L 340.456852 61.500788 
L 341.157609 61.613838 
L 342.392278 61.815825 
L 343.093035 61.92267 
L 344.127487 62.096331 
L 344.794875 62.199832 
L 345.262047 62.283732 
L 345.929435 62.386705 
L 346.363238 62.470126 
L 346.997257 62.56921 
L 347.431059 62.648785 
L 348.131817 62.756823 
L 348.732466 62.865473 
L 349.433224 62.970084 
L 349.900396 63.059004 
L 350.534415 63.162124 
L 351.235172 63.280239 
L 351.869191 63.388852 
L 352.569949 63.508072 
L 353.237337 63.616164 
L 353.804617 63.729681 
L 354.505375 63.837899 
L 354.972547 63.924286 
L 355.573196 64.025784 
L 356.040368 64.114564 
L 356.641017 64.215453 
L 357.07482 64.295908 
L 357.942424 64.45689 
L 358.543074 64.556717 
L 358.876768 64.627569 
L 359.477417 64.725849 
L 359.87785 64.797617 
L 360.44513 64.906191 
L 387.374247 70.138635 
L 387.707942 70.214421 
L 388.241852 70.323031 
L 388.842502 70.444132 
L 389.376412 70.552566 
L 389.843584 70.658132 
L 390.377495 70.765123 
L 390.878036 70.881373 
L 391.445316 70.990003 
L 391.979226 71.104747 
L 392.479768 71.209307 
L 393.080417 71.345568 
L 393.580958 71.45628 
L 396.784422 72.128309 
L 397.318333 72.232035 
L 398.419523 72.477205 
L 398.953434 72.586163 
L 399.453975 72.708455 
L 399.987886 72.816 
L 400.388319 72.904037 
L 400.922229 73.013669 
L 401.589618 73.165509 
L 402.056789 73.258291 
L 402.423853 73.354235 
L 402.991133 73.460247 
L 403.791999 73.649906 
L 404.32591 73.756689 
L 404.85982 73.885949 
L 405.393731 73.991078 
L 405.894272 74.114919 
L 406.428183 74.221538 
L 406.628399 74.268027 
L 407.095571 74.365561 
L 407.329157 74.42221 
L 407.796329 74.522038 
L 408.2635 74.640716 
L 410.832945 75.223433 
L 411.366856 75.333878 
L 411.70055 75.415928 
L 412.234461 75.526885 
L 412.701632 75.639442 
L 413.202174 75.748277 
L 413.669345 75.861917 
L 414.203256 75.971523 
L 414.53695 76.055142 
L 415.070861 76.164981 
L 415.504663 76.284379 
L 416.038574 76.39391 
L 416.405637 76.49346 
L 416.872809 76.594456 
L 417.206503 76.675196 
L 417.640306 76.769689 
L 418.007369 76.865346 
L 418.474541 76.962769 
L 418.941713 77.080857 
L 419.408885 77.175898 
L 419.709209 77.261701 
L 420.176381 77.362596 
L 420.576814 77.460944 
L 421.010616 77.563232 
L 421.477788 77.682014 
L 421.94496 77.778236 
L 422.312024 77.883379 
L 422.779195 77.975554 
L 423.112889 78.059598 
L 423.546692 78.166416 
L 427.384174 79.081792 
L 427.817977 79.190497 
L 429.986989 79.716781 
L 429.986989 79.716781 
" clip-path="url(#p1f6510b834)" style="fill: none; stroke: #800080; stroke-width: 1.5; stroke-linecap: square"/>
   </g>
   <g id="line2d_18">
    <path d="M 93.52319 234.952304 
L 94.123839 235.074672 
L 94.524272 235.036689 
L 94.624381 235.121327 
L 96.39296 235.019539 
L 97.761105 235.002402 
L 106.63737 234.980729 
L 106.804217 234.927917 
L 107.538344 234.955406 
L 107.805299 234.981454 
L 108.506057 234.991451 
L 108.672904 234.951858 
L 109.974311 234.992894 
L 110.04105 235.000069 
L 110.074419 234.912291 
L 110.141158 235.014023 
L 110.408113 234.965018 
L 110.57496 235.000034 
L 110.942024 234.943499 
L 111.14224 234.963288 
L 111.375826 234.977187 
L 111.609412 234.961171 
L 112.410278 234.961879 
L 112.543756 234.90789 
L 113.144405 234.936231 
L 114.479182 234.963161 
L 115.213309 235.002046 
L 116.114283 235.035341 
L 116.84841 235.042914 
L 117.282213 234.989138 
L 117.44906 235.06547 
L 117.916231 235.082197 
L 118.58362 235.000933 
L 118.783836 235.040472 
L 119.017422 235.037314 
L 119.251008 235.073182 
L 120.652523 235.054812 
L 121.253173 235.026051 
L 121.453389 235.024399 
L 124.056204 235.09089 
L 124.790331 235.042752 
L 124.957178 235.073157 
L 126.058368 235.071274 
L 126.291954 235.069392 
L 127.12619 235.060738 
L 127.326406 235.083805 
L 128.093903 235.065193 
L 128.22738 235.073192 
L 128.527705 235.078764 
L 128.961507 235.04762 
L 129.662265 235.090247 
L 129.829112 235.081277 
L 130.229545 235.079983 
L 130.4965 235.06089 
L 131.530952 235.089373 
L 131.931385 235.084036 
L 132.19834 235.065416 
L 132.999206 235.081346 
L 133.199423 235.077284 
L 133.399639 235.090192 
L 133.633225 235.08014 
L 133.966919 235.06337 
L 134.701046 235.059052 
L 135.835607 235.089452 
L 136.169301 235.048952 
L 138.50516 235.039064 
L 138.705376 235.065882 
L 139.005701 235.052998 
L 140.473955 235.075209 
L 142.175795 235.111962 
L 142.342642 235.120817 
L 143.310355 235.097625 
L 143.977744 235.114082 
L 144.244699 235.096019 
L 144.545024 235.127248 
L 144.711871 235.086939 
L 146.980991 235.089099 
L 147.314685 235.096547 
L 147.848596 235.085803 
L 148.082181 235.08724 
L 148.315767 235.086256 
L 149.750652 235.072892 
L 149.917499 235.105952 
L 150.084346 235.090712 
L 150.284563 235.090583 
L 150.484779 235.073943 
L 150.885212 235.087287 
L 151.085429 235.080214 
L 151.385753 235.093421 
L 152.019772 235.066638 
L 152.253358 235.093357 
L 152.486944 235.099879 
L 153.054224 235.118308 
L 153.254441 235.105646 
L 153.888459 235.12522 
L 156.69149 235.137927 
L 156.925076 235.127408 
L 158.059636 235.125985 
L 158.560177 235.085856 
L 159.995062 235.077349 
L 160.295387 235.092859 
L 160.829297 235.093034 
L 161.396577 235.086416 
L 162.697985 235.082771 
L 162.831462 235.149226 
L 163.098418 235.211116 
L 163.332003 235.131929 
L 163.465481 235.174172 
L 164.399825 235.19034 
L 164.66678 235.167538 
L 165.067213 235.196165 
L 165.267429 235.156967 
L 166.635575 235.188755 
L 166.869161 235.189548 
L 171.140446 235.163339 
L 171.874573 235.160541 
L 174.544127 235.0981 
L 174.777712 235.10264 
L 188.926344 235.091929 
L 188.959713 234.992684 
L 189.026452 235.10853 
L 189.526993 235.149393 
L 189.560363 235.02499 
L 189.627102 235.150558 
L 189.793949 234.98435 
L 189.927426 235.117529 
L 190.094273 235.099851 
L 190.761662 235.114271 
L 190.961878 235.103447 
L 191.39568 235.083217 
L 192.330024 235.094497 
L 193.197629 235.111853 
L 193.69817 235.099723 
L 196.467831 235.13124 
L 197.13522 235.109784 
L 200.705747 235.102908 
L 201.006072 235.074834 
L 201.806938 235.061758 
L 202.474326 235.105656 
L 207.780063 235.062886 
L 207.980279 235.061455 
L 208.51419 235.137554 
L 208.914623 235.080895 
L 209.882336 235.063515 
L 210.249399 235.065442 
L 210.549724 235.054341 
L 212.518519 235.030874 
L 212.752105 235.051881 
L 212.985691 235.025371 
L 213.419494 235.003024 
L 215.488397 234.999624 
L 215.9222 234.983486 
L 216.556218 234.965927 
L 217.724148 234.941776 
L 218.324797 234.953427 
L 218.825339 234.995281 
L 221.56163 234.994471 
L 221.761847 235.011641 
L 227.83508 234.989836 
L 228.135405 234.977245 
L 228.302252 234.980223 
L 229.670398 235.037628 
L 230.13757 235.006852 
L 230.738219 235.101712 
L 230.871697 235.039193 
L 231.205391 235.031383 
L 232.006257 235.089694 
L 232.239843 235.075346 
L 232.40669 235.094522 
L 232.606906 235.084489 
L 232.640276 234.890637 
L 232.707015 235.072192 
L 233.040709 235.083178 
L 233.174186 235.025505 
L 233.307664 235.091535 
L 234.208638 235.024104 
L 236.778083 235.084198 
L 236.9783 235.076271 
L 237.311994 235.025964 
L 238.212968 235.052282 
L 238.913726 235.09021 
L 239.647853 235.066152 
L 239.78133 234.967105 
L 239.948177 234.97067 
L 245.354022 235.026386 
L 245.554239 235.040604 
L 245.721086 235.001585 
L 251.427256 235.054012 
L 251.827689 235.072282 
L 252.194752 234.995323 
L 252.561816 234.97944 
L 254.130178 234.996992 
L 254.297025 235.056744 
L 254.730828 235.068346 
L 256.199082 235.050935 
L 256.365929 235.006237 
L 256.566145 235.041849 
L 256.89984 235.033195 
L 257.033317 235.041762 
L 258.56831 235.038336 
L 258.902004 235.010878 
L 259.202329 235.067712 
L 259.435915 235.043004 
L 259.669501 235.065197 
L 264.040894 235.143748 
L 264.174372 235.036244 
L 266.109798 235.164991 
L 266.476861 235.15332 
L 267.010772 235.146242 
L 267.14425 235.127865 
L 267.811638 235.124192 
L 279.891366 235.180799 
L 280.558754 235.183763 
L 280.992556 235.13233 
L 281.292881 235.1738 
L 281.626575 235.154642 
L 281.860161 235.16053 
L 282.394072 235.137732 
L 283.461893 235.166624 
L 283.662109 235.173002 
L 284.229389 235.135618 
L 289.101324 235.174427 
L 290.46947 235.14186 
L 290.769795 235.141616 
L 291.270336 235.122381 
L 294.774124 235.135081 
L 295.00771 235.074006 
L 295.107818 235.124703 
L 295.141188 235.084889 
L 295.341404 235.13662 
L 296.776289 235.088509 
L 297.710633 235.10365 
L 298.010957 235.110759 
L 298.244543 235.135476 
L 298.644976 235.117723 
L 299.245626 235.097475 
L 299.646059 235.084389 
L 299.846275 235.073811 
L 300.947466 235.06262 
L 301.181052 235.090416 
L 303.55028 235.101016 
L 303.783866 235.076476 
L 304.818318 235.09048 
L 305.051904 235.09992 
L 305.352228 235.091622 
L 305.85277 235.091249 
L 306.186464 235.09381 
L 306.95396 235.139329 
L 307.287654 235.131531 
L 308.722539 235.190848 
L 308.956125 235.181602 
L 310.557857 235.170864 
L 311.058398 235.16032 
L 311.592309 235.125712 
L 311.725786 235.208191 
L 311.759156 235.111884 
L 311.825895 235.207845 
L 312.159589 235.14325 
L 313.294149 235.099992 
L 314.662295 235.143479 
L 314.762403 235.230299 
L 314.795772 235.213757 
L 314.995989 235.201189 
L 324.005731 235.162089 
L 324.306055 235.170269 
L 324.539641 235.155644 
L 324.706488 235.170684 
L 325.040182 235.193814 
L 325.17366 235.096796 
L 325.407246 235.119756 
L 325.607463 235.10712 
L 325.841048 235.092257 
L 326.074634 235.09113 
L 326.374959 235.058539 
L 327.609627 235.063325 
L 328.110169 235.068981 
L 328.310385 235.058704 
L 331.046677 235.081087 
L 331.44711 235.084682 
L 331.814173 235.091767 
L 339.055336 235.028728 
L 339.222183 235.087675 
L 339.489139 235.078385 
L 339.689355 235.087926 
L 340.55696 235.064719 
L 340.857285 235.07268 
L 341.457934 235.058923 
L 343.526838 234.951666 
L 343.760424 234.967273 
L 343.96064 234.956874 
L 344.494551 234.990447 
L 344.728137 234.970395 
L 345.12857 234.993266 
L 345.262047 234.986459 
L 345.66248 234.966207 
L 346.79704 235.0005 
L 346.83041 235.098938 
L 346.897148 235.020562 
L 347.264212 235.181291 
L 347.39769 235.099282 
L 348.365403 234.981164 
L 348.765836 234.975048 
L 349.233007 234.970912 
L 349.366485 235.089158 
L 349.900396 235.062107 
L 361.04578 235.077412 
L 361.279366 235.09168 
L 361.446213 235.059738 
L 362.380556 235.083677 
L 362.614142 235.068217 
L 363.214792 235.092254 
L 363.515117 235.081991 
L 363.681964 235.109406 
L 363.91555 235.061236 
L 366.318147 235.095546 
L 366.71858 235.089164 
L 367.652924 235.089976 
L 369.087809 235.06697 
L 369.321395 235.069781 
L 371.323559 235.082097 
L 372.491489 235.115199 
L 373.192247 235.047925 
L 374.426915 235.084072 
L 374.627131 235.062583 
L 374.827348 235.056542 
L 375.027564 235.089441 
L 379.699282 235.070327 
L 379.899499 235.091211 
L 380.733734 235.055928 
L 381.134167 235.071817 
L 381.334383 235.070372 
L 381.601339 235.074427 
L 381.834925 235.07394 
L 382.535682 235.04586 
L 382.735899 235.028208 
L 386.940445 235.029567 
L 387.2074 235.01613 
L 387.641203 235.016707 
L 388.508807 235.017908 
L 388.842502 235.007795 
L 389.409782 234.972919 
L 389.643367 235.009674 
L 389.876953 235.047511 
L 390.444233 235.059221 
L 390.61108 235.029576 
L 390.978144 235.01604 
L 391.278469 235.03497 
L 391.445316 235.035962 
L 391.945857 235.048369 
L 392.079335 235.040656 
L 392.34629 235.034615 
L 392.679984 235.041859 
L 392.880201 235.028654 
L 393.447481 235.026287 
L 393.914652 235.063822 
L 394.04813 235.075128 
L 394.748888 235.075497 
L 394.848996 235.128703 
L 394.882365 235.109801 
L 395.549754 235.081587 
L 395.78334 235.057907 
L 396.383989 235.10632 
L 396.684314 235.078562 
L 396.9179 235.087337 
L 398.252676 235.059155 
L 398.452893 235.084658 
L 399.253759 235.059357 
L 399.453975 235.078932 
L 400.087994 235.069512 
L 400.32158 235.071422 
L 400.621905 235.079254 
L 400.788752 235.053908 
L 401.389401 235.059995 
L 401.789834 235.041941 
L 404.492757 235.038385 
L 404.659604 235.029202 
L 405.360361 235.051295 
L 405.560578 235.047056 
L 405.894272 235.037696 
L 406.094488 235.037968 
L 406.728507 235.07039 
L 406.928724 235.058937 
L 407.262418 235.066949 
L 407.662851 235.045521 
L 408.063284 235.059985 
L 408.930889 235.054098 
L 409.264583 235.080275 
L 420.877139 235.01578 
L 421.077355 235.033355 
L 421.444419 235.02176 
L 421.711374 235.009676 
L 422.045068 235.005915 
L 423.68017 235.064229 
L 424.21408 235.047394 
L 424.981577 235.083128 
L 425.148424 235.046431 
L 425.749073 235.025915 
L 429.986989 234.999606 
L 429.986989 234.999606 
" clip-path="url(#p1f6510b834)" style="fill: none; stroke-dasharray: 5.55,2.4; stroke-dashoffset: 0; stroke: #ff0000; stroke-width: 1.5"/>
   </g>
   <g id="line2d_19">
    <path d="M 93.52319 277.74 
L 95.124922 276.971498 
L 96.159374 276.474061 
L 96.760023 276.182059 
L 97.627628 275.730397 
L 98.0948 275.548145 
L 98.295016 275.414962 
L 98.461863 275.366639 
L 98.828927 275.170232 
L 99.529684 274.850271 
L 100.597506 274.324695 
L 101.164786 274.03512 
L 105.936612 271.756227 
L 106.670739 271.386804 
L 106.971064 271.244758 
L 107.20465 271.138247 
L 107.438235 271.051522 
L 107.73856 270.883314 
L 108.239101 270.630879 
L 112.410278 268.59556 
L 112.910819 268.384999 
L 113.811793 267.917258 
L 114.312335 267.688998 
L 163.065048 243.81953 
L 163.231895 243.738837 
L 164.399825 243.176769 
L 169.004804 240.87582 
L 169.672192 240.541619 
L 170.573166 240.09037 
L 171.941312 239.432583 
L 189.69384 230.655285 
L 190.027534 230.479015 
L 190.628184 230.179519 
L 191.328942 229.827061 
L 211.417329 219.990971 
L 212.385042 219.508869 
L 220.660656 215.445913 
L 221.094459 215.234373 
L 221.828586 214.863338 
L 223.063254 214.272966 
L 226.199979 212.731389 
L 227.434647 212.135425 
L 228.469099 211.614359 
L 228.769424 211.483847 
L 229.336704 211.205826 
L 230.271047 210.741524 
L 230.67148 210.591638 
L 231.23876 210.292946 
L 231.639193 210.130298 
L 232.573537 209.678294 
L 233.407772 209.249525 
L 234.775918 208.538539 
L 234.942765 208.484894 
L 235.142982 208.35754 
L 235.877109 208.005845 
L 236.077325 207.857958 
L 236.544497 207.658737 
L 255.231369 198.548093 
L 255.331477 198.513642 
L 255.932127 198.232294 
L 256.699623 197.86083 
L 256.833101 197.791829 
L 257.767444 197.320536 
L 258.368094 197.047169 
L 259.202329 196.643003 
L 259.903087 196.347141 
L 260.036565 196.223168 
L 260.136673 196.231783 
L 261.538188 195.493935 
L 263.573722 194.575699 
L 264.708282 194.002361 
L 264.941868 193.910454 
L 265.40904 193.683831 
L 300.246708 177.093543 
L 301.014205 176.736078 
L 301.581485 176.473926 
L 302.048656 176.247297 
L 304.317777 175.202791 
L 304.451254 175.141065 
L 307.154177 173.880394 
L 308.055151 173.509516 
L 308.6558 173.250965 
L 309.323189 172.943501 
L 324.873335 165.778873 
L 325.040182 165.702075 
L 325.20703 165.519691 
L 326.408328 164.958444 
L 332.681778 162.138835 
L 333.849708 161.592247 
L 334.28351 161.404964 
L 335.818503 160.692364 
L 345.829327 156.21495 
L 346.22976 156.024419 
L 355.506457 151.929421 
L 356.173846 151.624685 
L 356.407431 151.511575 
L 357.174928 151.175998 
L 359.644265 150.072613 
L 360.778825 149.570179 
L 361.279366 149.342555 
L 361.579691 149.217294 
L 369.821936 145.611787 
L 370.222369 145.45023 
L 371.089973 145.071833 
L 372.891922 144.282161 
L 373.392463 144.064423 
L 387.040553 138.238156 
L 387.274139 138.116012 
L 387.440986 138.049626 
L 389.009349 137.427575 
L 392.846831 135.805616 
L 393.213895 135.663032 
L 393.414111 135.550968 
L 393.547589 135.498077 
L 429.986989 120.746528 
L 429.986989 120.746528 
" clip-path="url(#p1f6510b834)" style="fill: none; stroke-dasharray: 5.55,2.4; stroke-dashoffset: 0; stroke: #008000; stroke-width: 1.5"/>
   </g>
   <g id="line2d_20">
    <path d="M 93.52319 236.636458 
L 94.257317 236.598022 
L 94.557642 236.607016 
L 94.824597 236.60107 
L 95.658832 236.63982 
L 95.892418 236.642389 
L 97.727736 236.619055 
L 98.561971 236.652453 
L 98.795557 236.62941 
L 132.732251 236.729514 
L 132.965837 236.720476 
L 134.067028 236.742912 
L 134.600938 236.733099 
L 135.335065 236.732541 
L 135.835607 236.731109 
L 136.569734 236.739782 
L 137.137014 236.736264 
L 137.90451 236.752868 
L 138.338313 236.734953 
L 139.272656 236.749379 
L 140.140261 236.748111 
L 142.075687 236.75594 
L 142.409381 236.729079 
L 143.410463 236.755267 
L 143.810896 236.755854 
L 144.478285 236.745996 
L 146.080017 236.768333 
L 149.350219 236.781286 
L 150.45141 236.778364 
L 154.889542 236.783026 
L 155.256605 236.783491 
L 155.957363 236.785538 
L 156.658121 236.782588 
L 157.125293 236.794295 
L 158.693655 236.791629 
L 159.094088 236.805151 
L 159.361043 236.801118 
L 159.761476 236.804359 
L 160.528973 236.803223 
L 161.129622 236.81064 
L 161.2631 236.80218 
L 167.136117 236.792844 
L 167.603288 236.785749 
L 168.170568 236.795589 
L 173.609783 236.814392 
L 173.809999 236.79746 
L 174.844451 236.801594 
L 175.244884 236.813436 
L 175.645317 236.794911 
L 177.146941 236.789573 
L 188.892974 236.794759 
L 189.026452 236.823022 
L 192.697088 236.825193 
L 192.997412 236.83287 
L 221.56163 236.882227 
L 221.861955 236.859982 
L 222.629452 236.872445 
L 223.096624 236.865803 
L 223.697273 236.848483 
L 223.897489 236.853798 
L 224.197814 236.865854 
L 224.965311 236.879481 
L 225.299005 236.873993 
L 225.532591 236.854879 
L 225.799546 236.862003 
L 232.606906 236.810872 
L 232.640276 236.938874 
L 232.707015 236.808403 
L 237.278624 236.86552 
L 237.679057 236.845889 
L 237.912643 236.834576 
L 238.346446 236.847456 
L 239.180681 236.834578 
L 239.614483 236.834039 
L 239.881439 236.849171 
L 240.682305 236.841261 
L 240.94926 236.867971 
L 242.183928 236.877439 
L 242.484253 236.850434 
L 242.951425 236.82774 
L 243.185011 236.850761 
L 243.385227 236.834228 
L 243.585444 236.841093 
L 244.119354 236.841139 
L 244.720004 236.870465 
L 248.290531 236.867009 
L 248.557486 236.851966 
L 249.191505 236.854927 
L 249.45846 236.842233 
L 250.859976 236.839231 
L 251.293778 236.824507 
L 252.361599 236.862941 
L 252.628555 236.858759 
L 252.928879 236.82842 
L 253.629637 236.871703 
L 253.863223 236.853498 
L 254.196917 236.850555 
L 254.397134 236.832364 
L 254.630719 236.820729 
L 254.830936 236.809713 
L 255.231369 236.839678 
L 255.264738 236.775096 
L 255.331477 236.820532 
L 256.399298 236.818703 
L 256.766362 236.823808 
L 257.133426 236.83456 
L 258.935374 236.829084 
L 259.16896 236.819918 
L 259.469284 236.806373 
L 260.069934 236.765334 
L 260.203412 236.766692 
L 260.236781 236.820035 
L 260.30352 236.75931 
L 261.004278 236.80612 
L 261.871882 236.766846 
L 262.072099 236.760991 
L 262.238946 236.788139 
L 262.372423 236.794452 
L 262.806226 236.786164 
L 262.973073 236.772203 
L 263.807308 236.75365 
L 272.24977 236.736006 
L 272.483356 236.727148 
L 272.716942 236.744116 
L 272.950528 236.724115 
L 273.184114 236.74477 
L 273.451069 236.730407 
L 276.053883 236.720702 
L 276.2541 236.712427 
L 276.78801 236.700908 
L 276.988227 236.716927 
L 277.321921 236.756607 
L 278.589959 236.742241 
L 278.890283 236.750972 
L 279.05713 236.710422 
L 282.160486 236.71672 
L 282.327333 236.713534 
L 290.369362 236.693027 
L 290.602948 236.704333 
L 290.836533 236.68972 
L 291.070119 236.70645 
L 291.270336 236.69584 
L 292.071202 236.659576 
L 292.271418 236.662806 
L 292.771959 236.680519 
L 293.339239 236.677589 
L 293.639564 236.710116 
L 293.806411 236.676941 
L 294.073367 236.674412 
L 294.774124 236.674229 
L 295.074449 236.692818 
L 295.308035 236.672847 
L 296.375856 236.724396 
L 296.676181 236.720481 
L 298.144435 236.678721 
L 298.711715 236.717532 
L 298.97867 236.695896 
L 299.512581 236.72162 
L 299.846275 236.716664 
L 300.813988 236.711874 
L 301.080943 236.694785 
L 301.514746 236.67993 
L 301.815071 236.676483 
L 302.048656 236.712627 
L 302.248873 236.694018 
L 302.615936 236.723085 
L 302.749414 236.702227 
L 303.049739 236.688386 
L 304.451254 236.691645 
L 304.851687 236.691516 
L 305.051904 236.697749 
L 305.552445 236.705602 
L 305.919508 236.698197 
L 308.388845 236.662372 
L 308.755909 236.67701 
L 309.022864 236.655976 
L 309.25645 236.670939 
L 309.423297 236.649273 
L 309.656883 236.656215 
L 309.82373 236.63517 
L 310.157424 236.648891 
L 314.228492 236.678909 
L 314.428709 236.653222 
L 325.674201 236.621288 
L 325.841048 236.634102 
L 326.34159 236.62186 
L 326.575176 236.637309 
L 326.90887 236.628982 
L 327.409411 236.651591 
L 327.776474 236.641537 
L 328.343754 236.641402 
L 328.510602 236.640297 
L 330.145703 236.638743 
L 330.345919 236.625068 
L 330.546136 236.632335 
L 330.779722 236.649312 
L 331.213524 236.61478 
L 331.413741 236.614122 
L 334.31688 236.585778 
L 334.550465 236.55626 
L 334.784051 236.601019 
L 334.917529 236.595713 
L 335.151115 236.596244 
L 335.584917 236.639838 
L 335.751764 236.610949 
L 339.055336 236.620285 
L 339.188814 236.571142 
L 340.390113 236.570624 
L 340.623699 236.583153 
L 340.990762 236.577276 
L 341.357826 236.581061 
L 341.591412 236.592238 
L 341.824998 236.547144 
L 341.991845 236.567355 
L 342.125322 236.609982 
L 343.193144 236.59962 
L 343.39336 236.614932 
L 346.79704 236.576977 
L 346.930518 236.555142 
L 349.800287 236.541706 
L 350.734631 236.519308 
L 351.068325 236.541707 
L 351.36865 236.522818 
L 351.835822 236.534654 
L 352.069408 236.536066 
L 352.302994 236.543194 
L 352.436471 236.567706 
L 354.738961 236.529426 
L 354.872438 236.545614 
L 355.039285 236.550445 
L 355.33961 236.571423 
L 355.539827 236.544325 
L 356.173846 236.50226 
L 356.307323 236.522131 
L 357.742208 236.542443 
L 357.909055 236.537168 
L 358.576443 236.479668 
L 359.243832 236.486885 
L 359.510787 236.451267 
L 359.711003 236.452297 
L 360.144806 236.479069 
L 360.345022 236.451071 
L 360.812194 236.478844 
L 362.814359 236.4695 
L 363.148053 236.471584 
L 363.281531 236.451316 
L 363.448378 236.447211 
L 363.815441 236.48266 
L 363.948919 236.477887 
L 364.282613 236.504714 
L 364.416091 236.467499 
L 364.582938 236.493228 
L 364.816524 236.460125 
L 364.950001 236.46178 
L 365.116848 236.478009 
L 365.717498 236.420675 
L 365.884345 236.450023 
L 366.117931 236.424191 
L 366.318147 236.424763 
L 370.923126 236.453231 
L 371.089973 236.436282 
L 372.391381 236.383382 
L 372.658336 236.42987 
L 373.058769 236.433429 
L 373.492571 236.449233 
L 373.659418 236.42322 
L 373.959743 236.456221 
L 374.093221 236.377331 
L 374.527023 236.435374 
L 374.760609 236.404158 
L 374.860717 236.430169 
L 375.027564 236.386892 
L 375.361258 236.385754 
L 375.661583 236.398869 
L 375.795061 236.411521 
L 376.062016 236.420193 
L 376.39571 236.396102 
L 376.829513 236.398384 
L 377.196576 236.391503 
L 377.430162 236.400714 
L 377.597009 236.421568 
L 377.797226 236.41607 
L 390.210648 236.375287 
L 390.344125 236.376998 
L 390.477603 236.412365 
L 390.61108 236.369779 
L 390.744558 236.408108 
L 391.078252 236.379619 
L 391.21173 236.391567 
L 391.445316 236.367627 
L 392.012596 236.376015 
L 392.146074 236.362559 
L 392.279551 236.3631 
L 392.479768 236.388992 
L 392.713354 236.331962 
L 392.746723 236.401845 
L 392.813462 236.368143 
L 392.946939 236.39563 
L 396.31725 236.336759 
L 396.517467 236.312324 
L 397.051377 236.326787 
L 397.418441 236.358189 
L 398.686479 236.357045 
L 398.786587 236.345409 
L 398.920065 236.31644 
L 399.15365 236.316184 
L 399.353867 236.330357 
L 399.520714 236.364399 
L 399.654192 236.33702 
L 400.254841 236.337371 
L 400.388319 236.35363 
L 400.722013 236.303944 
L 401.022338 236.384898 
L 401.155815 236.353352 
L 401.356032 236.3389 
L 401.556248 236.330345 
L 401.723095 236.376106 
L 402.090159 236.338174 
L 402.190267 236.379358 
L 402.223636 236.33937 
L 402.390484 236.361699 
L 402.624069 236.337258 
L 402.824286 236.344773 
L 403.024502 236.350827 
L 404.492757 236.349497 
L 404.592865 236.324754 
L 404.759712 236.388759 
L 404.89319 236.341635 
L 405.093406 236.344887 
L 405.226884 236.362288 
L 405.760794 236.28778 
L 405.894272 236.347129 
L 406.02775 236.32025 
L 406.294705 236.341426 
L 407.362526 236.285029 
L 407.496004 236.321707 
L 409.598277 236.339167 
L 409.831863 236.318786 
L 409.96534 236.286954 
L 410.098818 236.346887 
L 410.265665 236.289146 
L 410.56599 236.349753 
L 411.033162 236.323984 
L 411.633811 236.319671 
L 411.800658 236.33833 
L 412.201091 236.302651 
L 412.735002 236.3295 
L 413.102065 236.289961 
L 413.202174 236.36011 
L 413.235543 236.327482 
L 419.942795 236.398323 
L 420.076273 236.404106 
L 420.20975 236.389429 
L 420.376598 236.393976 
L 420.710292 236.398455 
L 420.843769 236.317733 
L 421.978329 236.31804 
L 422.211915 236.317924 
L 422.378762 236.255392 
L 422.51224 236.304788 
L 422.745826 236.210303 
L 422.779195 236.283538 
L 422.845934 236.216684 
L 423.07952 236.224345 
L 423.479953 236.24867 
L 423.6468 236.251436 
L 424.080602 236.211922 
L 424.21408 236.273481 
L 424.481035 236.259063 
L 424.714621 236.242807 
L 424.914838 236.226623 
L 425.749073 236.283798 
L 429.653295 236.274237 
L 429.953619 236.281154 
L 429.986989 236.288794 
L 429.986989 236.288794 
" clip-path="url(#p1f6510b834)" style="fill: none; stroke-dasharray: 5.55,2.4; stroke-dashoffset: 0; stroke: #0000ff; stroke-width: 1.5"/>
   </g>
   <g id="line2d_21">
    <path d="M 93.52319 52.864707 
L 104.802052 51.645102 
L 107.037803 51.424736 
L 111.609412 50.994539 
L 113.277883 50.843763 
L 122.054039 50.102241 
L 123.12186 50.021944 
L 125.057286 49.873848 
L 126.492171 49.771681 
L 130.029329 49.520319 
L 136.80332 49.090328 
L 146.146755 48.591246 
L 160.595712 48.047143 
L 169.505345 47.847215 
L 188.392433 47.763786 
L 200.705747 47.961318 
L 228.836163 49.145421 
L 242.784578 50.115694 
L 244.753373 50.278061 
L 252.528446 50.949441 
L 255.398216 51.208073 
L 262.672748 51.933092 
L 263.306767 51.989249 
L 270.114127 52.732689 
L 280.425276 53.959982 
L 282.994721 54.287747 
L 307.354393 57.823983 
L 314.662295 59.019139 
L 314.92925 59.049322 
L 320.368465 60.000891 
L 321.936827 60.277525 
L 322.871171 60.430145 
L 323.738775 60.586546 
L 324.940074 60.784446 
L 355.37298 66.878573 
L 359.110354 67.714196 
L 362.080232 68.379851 
L 363.982288 68.811001 
L 364.783154 68.998172 
L 371.723992 70.605127 
L 372.024317 70.671348 
L 373.55931 71.049881 
L 381.334383 72.94291 
L 394.815627 76.386609 
L 395.249429 76.497613 
L 396.550836 76.821791 
L 400.054625 77.76966 
L 420.977247 83.61867 
L 424.981577 84.791802 
L 425.315271 84.882555 
L 429.986989 86.270806 
L 429.986989 86.270806 
" clip-path="url(#p1f6510b834)" style="fill: none; stroke-dasharray: 5.55,2.4; stroke-dashoffset: 0; stroke: #800080; stroke-width: 1.5"/>
   </g>
   <g id="patch_3">
    <path d="M 76.7 289.24 
L 76.7 36.24 
" style="fill: none; stroke: #000000; stroke-width: 0.8; stroke-linejoin: miter; stroke-linecap: square"/>
   </g>
   <g id="patch_4">
    <path d="M 446.810179 289.24 
L 446.810179 36.24 
" style="fill: none; stroke: #000000; stroke-width: 0.8; stroke-linejoin: miter; stroke-linecap: square"/>
   </g>
   <g id="patch_5">
    <path d="M 76.7 289.24 
L 446.810179 289.24 
" style="fill: none; stroke: #000000; stroke-width: 0.8; stroke-linejoin: miter; stroke-linecap: square"/>
   </g>
   <g id="patch_6">
    <path d="M 76.7 36.24 
L 446.810179 36.24 
" style="fill: none; stroke: #000000; stroke-width: 0.8; stroke-linejoin: miter; stroke-linecap: square"/>
   </g>
   <g id="text_16">
    <!-- Orientation (quat) -->
    <g transform="translate(144.533683 30.24) scale(0.26 -0.26)">
     <defs>
      <path id="DejaVuSans-20" transform="scale(0.015625)"/>
      <path id="DejaVuSans-28" d="M 1984 4856 
Q 1566 4138 1362 3434 
Q 1159 2731 1159 2009 
Q 1159 1288 1364 580 
Q 1569 -128 1984 -844 
L 1484 -844 
Q 1016 -109 783 600 
Q 550 1309 550 2009 
Q 550 2706 781 3412 
Q 1013 4119 1484 4856 
L 1984 4856 
z
" transform="scale(0.015625)"/>
      <path id="DejaVuSans-71" d="M 947 1747 
Q 947 1113 1208 752 
Q 1469 391 1925 391 
Q 2381 391 2643 752 
Q 2906 1113 2906 1747 
Q 2906 2381 2643 2742 
Q 2381 3103 1925 3103 
Q 1469 3103 1208 2742 
Q 947 2381 947 1747 
z
M 2906 525 
Q 2725 213 2448 61 
Q 2172 -91 1784 -91 
Q 1150 -91 751 415 
Q 353 922 353 1747 
Q 353 2572 751 3078 
Q 1150 3584 1784 3584 
Q 2172 3584 2448 3432 
Q 2725 3281 2906 2969 
L 2906 3500 
L 3481 3500 
L 3481 -1331 
L 2906 -1331 
L 2906 525 
z
" transform="scale(0.015625)"/>
      <path id="DejaVuSans-75" d="M 544 1381 
L 544 3500 
L 1119 3500 
L 1119 1403 
Q 1119 906 1312 657 
Q 1506 409 1894 409 
Q 2359 409 2629 706 
Q 2900 1003 2900 1516 
L 2900 3500 
L 3475 3500 
L 3475 0 
L 2900 0 
L 2900 538 
Q 2691 219 2414 64 
Q 2138 -91 1772 -91 
Q 1169 -91 856 284 
Q 544 659 544 1381 
z
M 1991 3584 
L 1991 3584 
z
" transform="scale(0.015625)"/>
      <path id="DejaVuSans-29" d="M 513 4856 
L 1013 4856 
Q 1481 4119 1714 3412 
Q 1947 2706 1947 2009 
Q 1947 1309 1714 600 
Q 1481 -109 1013 -844 
L 513 -844 
Q 928 -128 1133 580 
Q 1338 1288 1338 2009 
Q 1338 2731 1133 3434 
Q 928 4138 513 4856 
z
" transform="scale(0.015625)"/>
     </defs>
     <use xlink:href="#DejaVuSans-4f"/>
     <use xlink:href="#DejaVuSans-72" x="78.710938"/>
     <use xlink:href="#DejaVuSans-69" x="119.824219"/>
     <use xlink:href="#DejaVuSans-65" x="147.607422"/>
     <use xlink:href="#DejaVuSans-6e" x="209.130859"/>
     <use xlink:href="#DejaVuSans-74" x="272.509766"/>
     <use xlink:href="#DejaVuSans-61" x="311.71875"/>
     <use xlink:href="#DejaVuSans-74" x="372.998047"/>
     <use xlink:href="#DejaVuSans-69" x="412.207031"/>
     <use xlink:href="#DejaVuSans-6f" x="439.990234"/>
     <use xlink:href="#DejaVuSans-6e" x="501.171875"/>
     <use xlink:href="#DejaVuSans-20" x="564.550781"/>
     <use xlink:href="#DejaVuSans-28" x="596.337891"/>
     <use xlink:href="#DejaVuSans-71" x="635.351562"/>
     <use xlink:href="#DejaVuSans-75" x="698.828125"/>
     <use xlink:href="#DejaVuSans-61" x="762.207031"/>
     <use xlink:href="#DejaVuSans-74" x="823.486328"/>
     <use xlink:href="#DejaVuSans-29" x="862.695312"/>
    </g>
   </g>
   <g id="legend_1">
    <g id="patch_7">
     <path d="M 85.1 182.15375 
L 168.618125 182.15375 
Q 171.018125 182.15375 171.018125 179.75375 
L 171.018125 145.72625 
Q 171.018125 143.32625 168.618125 143.32625 
L 85.1 143.32625 
Q 82.7 143.32625 82.7 145.72625 
L 82.7 179.75375 
Q 82.7 182.15375 85.1 182.15375 
z
" style="fill: #ffffff; opacity: 0.8; stroke: #cccccc; stroke-linejoin: miter"/>
    </g>
    <g id="line2d_22">
     <path d="M 87.5 153.044375 
L 99.5 153.044375 
L 111.5 153.044375 
" style="fill: none; stroke: #000000; stroke-width: 1.5; stroke-linecap: square"/>
    </g>
    <g id="text_17">
     <!-- Gripper -->
     <g transform="translate(121.1 157.244375) scale(0.12 -0.12)">
      <defs>
       <path id="DejaVuSans-47" d="M 3809 666 
L 3809 1919 
L 2778 1919 
L 2778 2438 
L 4434 2438 
L 4434 434 
Q 4069 175 3628 42 
Q 3188 -91 2688 -91 
Q 1594 -91 976 548 
Q 359 1188 359 2328 
Q 359 3472 976 4111 
Q 1594 4750 2688 4750 
Q 3144 4750 3555 4637 
Q 3966 4525 4313 4306 
L 4313 3634 
Q 3963 3931 3569 4081 
Q 3175 4231 2741 4231 
Q 1884 4231 1454 3753 
Q 1025 3275 1025 2328 
Q 1025 1384 1454 906 
Q 1884 428 2741 428 
Q 3075 428 3337 486 
Q 3600 544 3809 666 
z
" transform="scale(0.015625)"/>
      </defs>
      <use xlink:href="#DejaVuSans-47"/>
      <use xlink:href="#DejaVuSans-72" x="77.490234"/>
      <use xlink:href="#DejaVuSans-69" x="118.603516"/>
      <use xlink:href="#DejaVuSans-70" x="146.386719"/>
      <use xlink:href="#DejaVuSans-70" x="209.863281"/>
      <use xlink:href="#DejaVuSans-65" x="273.339844"/>
      <use xlink:href="#DejaVuSans-72" x="334.863281"/>
     </g>
    </g>
    <g id="line2d_23">
     <path d="M 87.5 170.658125 
L 99.5 170.658125 
L 111.5 170.658125 
" style="fill: none; stroke-dasharray: 5.55,2.4; stroke-dashoffset: 0; stroke: #000000; stroke-width: 1.5"/>
    </g>
    <g id="text_18">
     <!-- Target -->
     <g transform="translate(121.1 174.858125) scale(0.12 -0.12)">
      <defs>
       <path id="DejaVuSans-67" d="M 2906 1791 
Q 2906 2416 2648 2759 
Q 2391 3103 1925 3103 
Q 1463 3103 1205 2759 
Q 947 2416 947 1791 
Q 947 1169 1205 825 
Q 1463 481 1925 481 
Q 2391 481 2648 825 
Q 2906 1169 2906 1791 
z
M 3481 434 
Q 3481 -459 3084 -895 
Q 2688 -1331 1869 -1331 
Q 1566 -1331 1297 -1286 
Q 1028 -1241 775 -1147 
L 775 -588 
Q 1028 -725 1275 -790 
Q 1522 -856 1778 -856 
Q 2344 -856 2625 -561 
Q 2906 -266 2906 331 
L 2906 616 
Q 2728 306 2450 153 
Q 2172 0 1784 0 
Q 1141 0 747 490 
Q 353 981 353 1791 
Q 353 2603 747 3093 
Q 1141 3584 1784 3584 
Q 2172 3584 2450 3431 
Q 2728 3278 2906 2969 
L 2906 3500 
L 3481 3500 
L 3481 434 
z
" transform="scale(0.015625)"/>
      </defs>
      <use xlink:href="#DejaVuSans-54"/>
      <use xlink:href="#DejaVuSans-61" x="44.583984"/>
      <use xlink:href="#DejaVuSans-72" x="105.863281"/>
      <use xlink:href="#DejaVuSans-67" x="145.226562"/>
      <use xlink:href="#DejaVuSans-65" x="208.703125"/>
      <use xlink:href="#DejaVuSans-74" x="270.226562"/>
     </g>
    </g>
   </g>
  </g>
 </g>
 <defs>
  <clipPath id="p1f6510b834">
   <rect x="76.7" y="36.24" width="370.110179" height="253"/>
  </clipPath>
 </defs>
</svg>
