<?xml version="1.0" encoding="utf-8" standalone="no"?>
<!DOCTYPE svg PUBLIC "-//W3C//DTD SVG 1.1//EN"
  "http://www.w3.org/Graphics/SVG/1.1/DTD/svg11.dtd">
<svg xmlns:xlink="http://www.w3.org/1999/xlink" width="460.8pt" height="345.6pt" viewBox="0 0 460.8 345.6" xmlns="http://www.w3.org/2000/svg" version="1.1">
 <metadata>
  <rdf:RDF xmlns:dc="http://purl.org/dc/elements/1.1/" xmlns:cc="http://creativecommons.org/ns#" xmlns:rdf="http://www.w3.org/1999/02/22-rdf-syntax-ns#">
   <cc:Work>
    <dc:type rdf:resource="http://purl.org/dc/dcmitype/StillImage"/>
    <dc:date>2024-10-24T15:25:37.004048</dc:date>
    <dc:format>image/svg+xml</dc:format>
    <dc:creator>
     <cc:Agent>
      <dc:title>Matplotlib v3.7.5, https://matplotlib.org/</dc:title>
     </cc:Agent>
    </dc:creator>
   </cc:Work>
  </rdf:RDF>
 </metadata>
 <defs>
  <style type="text/css">*{stroke-linejoin: round; stroke-linecap: butt}</style>
 </defs>
 <g id="figure_1">
  <g id="patch_1">
   <path d="M 0 345.6 
L 460.8 345.6 
L 460.8 0 
L 0 0 
z
" style="fill: #ffffff"/>
  </g>
  <g id="axes_1">
   <g id="patch_2">
    <path d="M 76.7 289.24 
L 450 289.24 
L 450 36.24 
L 76.7 36.24 
z
" style="fill: #ffffff"/>
   </g>
   <g id="matplotlib.axis_1">
    <g id="xtick_1">
     <g id="line2d_1">
      <defs>
       <path id="mcdf84fc8a1" d="M 0 0 
L 0 3.5 
" style="stroke: #000000; stroke-width: 0.8"/>
      </defs>
      <g>
       <use xlink:href="#mcdf84fc8a1" x="93.668182" y="289.24" style="stroke: #000000; stroke-width: 0.8"/>
      </g>
     </g>
     <g id="text_1">
      <!-- 0 -->
      <g transform="translate(89.214432 306.877813) scale(0.14 -0.14)">
       <defs>
        <path id="DejaVuSans-30" d="M 2034 4250 
Q 1547 4250 1301 3770 
Q 1056 3291 1056 2328 
Q 1056 1369 1301 889 
Q 1547 409 2034 409 
Q 2525 409 2770 889 
Q 3016 1369 3016 2328 
Q 3016 3291 2770 3770 
Q 2525 4250 2034 4250 
z
M 2034 4750 
Q 2819 4750 3233 4129 
Q 3647 3509 3647 2328 
Q 3647 1150 3233 529 
Q 2819 -91 2034 -91 
Q 1250 -91 836 529 
Q 422 1150 422 2328 
Q 422 3509 836 4129 
Q 1250 4750 2034 4750 
z
" transform="scale(0.015625)"/>
       </defs>
       <use xlink:href="#DejaVuSans-30"/>
      </g>
     </g>
    </g>
    <g id="xtick_2">
     <g id="line2d_2">
      <g>
       <use xlink:href="#mcdf84fc8a1" x="146.726912" y="289.24" style="stroke: #000000; stroke-width: 0.8"/>
      </g>
     </g>
     <g id="text_2">
      <!-- 250 -->
      <g transform="translate(133.365662 306.877813) scale(0.14 -0.14)">
       <defs>
        <path id="DejaVuSans-32" d="M 1228 531 
L 3431 531 
L 3431 0 
L 469 0 
L 469 531 
Q 828 903 1448 1529 
Q 2069 2156 2228 2338 
Q 2531 2678 2651 2914 
Q 2772 3150 2772 3378 
Q 2772 3750 2511 3984 
Q 2250 4219 1831 4219 
Q 1534 4219 1204 4116 
Q 875 4013 500 3803 
L 500 4441 
Q 881 4594 1212 4672 
Q 1544 4750 1819 4750 
Q 2544 4750 2975 4387 
Q 3406 4025 3406 3419 
Q 3406 3131 3298 2873 
Q 3191 2616 2906 2266 
Q 2828 2175 2409 1742 
Q 1991 1309 1228 531 
z
" transform="scale(0.015625)"/>
        <path id="DejaVuSans-35" d="M 691 4666 
L 3169 4666 
L 3169 4134 
L 1269 4134 
L 1269 2991 
Q 1406 3038 1543 3061 
Q 1681 3084 1819 3084 
Q 2600 3084 3056 2656 
Q 3513 2228 3513 1497 
Q 3513 744 3044 326 
Q 2575 -91 1722 -91 
Q 1428 -91 1123 -41 
Q 819 9 494 109 
L 494 744 
Q 775 591 1075 516 
Q 1375 441 1709 441 
Q 2250 441 2565 725 
Q 2881 1009 2881 1497 
Q 2881 1984 2565 2268 
Q 2250 2553 1709 2553 
Q 1456 2553 1204 2497 
Q 953 2441 691 2322 
L 691 4666 
z
" transform="scale(0.015625)"/>
       </defs>
       <use xlink:href="#DejaVuSans-32"/>
       <use xlink:href="#DejaVuSans-35" x="63.623047"/>
       <use xlink:href="#DejaVuSans-30" x="127.246094"/>
      </g>
     </g>
    </g>
    <g id="xtick_3">
     <g id="line2d_3">
      <g>
       <use xlink:href="#mcdf84fc8a1" x="199.785642" y="289.24" style="stroke: #000000; stroke-width: 0.8"/>
      </g>
     </g>
     <g id="text_3">
      <!-- 500 -->
      <g transform="translate(186.424392 306.877813) scale(0.14 -0.14)">
       <use xlink:href="#DejaVuSans-35"/>
       <use xlink:href="#DejaVuSans-30" x="63.623047"/>
       <use xlink:href="#DejaVuSans-30" x="127.246094"/>
      </g>
     </g>
    </g>
    <g id="xtick_4">
     <g id="line2d_4">
      <g>
       <use xlink:href="#mcdf84fc8a1" x="252.844371" y="289.24" style="stroke: #000000; stroke-width: 0.8"/>
      </g>
     </g>
     <g id="text_4">
      <!-- 750 -->
      <g transform="translate(239.483121 306.877813) scale(0.14 -0.14)">
       <defs>
        <path id="DejaVuSans-37" d="M 525 4666 
L 3525 4666 
L 3525 4397 
L 1831 0 
L 1172 0 
L 2766 4134 
L 525 4134 
L 525 4666 
z
" transform="scale(0.015625)"/>
       </defs>
       <use xlink:href="#DejaVuSans-37"/>
       <use xlink:href="#DejaVuSans-35" x="63.623047"/>
       <use xlink:href="#DejaVuSans-30" x="127.246094"/>
      </g>
     </g>
    </g>
    <g id="xtick_5">
     <g id="line2d_5">
      <g>
       <use xlink:href="#mcdf84fc8a1" x="305.903101" y="289.24" style="stroke: #000000; stroke-width: 0.8"/>
      </g>
     </g>
     <g id="text_5">
      <!-- 1000 -->
      <g transform="translate(288.088101 306.877813) scale(0.14 -0.14)">
       <defs>
        <path id="DejaVuSans-31" d="M 794 531 
L 1825 531 
L 1825 4091 
L 703 3866 
L 703 4441 
L 1819 4666 
L 2450 4666 
L 2450 531 
L 3481 531 
L 3481 0 
L 794 0 
L 794 531 
z
" transform="scale(0.015625)"/>
       </defs>
       <use xlink:href="#DejaVuSans-31"/>
       <use xlink:href="#DejaVuSans-30" x="63.623047"/>
       <use xlink:href="#DejaVuSans-30" x="127.246094"/>
       <use xlink:href="#DejaVuSans-30" x="190.869141"/>
      </g>
     </g>
    </g>
    <g id="xtick_6">
     <g id="line2d_6">
      <g>
       <use xlink:href="#mcdf84fc8a1" x="358.961831" y="289.24" style="stroke: #000000; stroke-width: 0.8"/>
      </g>
     </g>
     <g id="text_6">
      <!-- 1250 -->
      <g transform="translate(341.146831 306.877813) scale(0.14 -0.14)">
       <use xlink:href="#DejaVuSans-31"/>
       <use xlink:href="#DejaVuSans-32" x="63.623047"/>
       <use xlink:href="#DejaVuSans-35" x="127.246094"/>
       <use xlink:href="#DejaVuSans-30" x="190.869141"/>
      </g>
     </g>
    </g>
    <g id="xtick_7">
     <g id="line2d_7">
      <g>
       <use xlink:href="#mcdf84fc8a1" x="412.020561" y="289.24" style="stroke: #000000; stroke-width: 0.8"/>
      </g>
     </g>
     <g id="text_7">
      <!-- 1500 -->
      <g transform="translate(394.205561 306.877813) scale(0.14 -0.14)">
       <use xlink:href="#DejaVuSans-31"/>
       <use xlink:href="#DejaVuSans-35" x="63.623047"/>
       <use xlink:href="#DejaVuSans-30" x="127.246094"/>
       <use xlink:href="#DejaVuSans-30" x="190.869141"/>
      </g>
     </g>
    </g>
    <g id="text_8">
     <!-- Timesteps -->
     <g transform="translate(206.911406 330.505937) scale(0.22 -0.22)">
      <defs>
       <path id="DejaVuSans-54" d="M -19 4666 
L 3928 4666 
L 3928 4134 
L 2272 4134 
L 2272 0 
L 1638 0 
L 1638 4134 
L -19 4134 
L -19 4666 
z
" transform="scale(0.015625)"/>
       <path id="DejaVuSans-69" d="M 603 3500 
L 1178 3500 
L 1178 0 
L 603 0 
L 603 3500 
z
M 603 4863 
L 1178 4863 
L 1178 4134 
L 603 4134 
L 603 4863 
z
" transform="scale(0.015625)"/>
       <path id="DejaVuSans-6d" d="M 3328 2828 
Q 3544 3216 3844 3400 
Q 4144 3584 4550 3584 
Q 5097 3584 5394 3201 
Q 5691 2819 5691 2113 
L 5691 0 
L 5113 0 
L 5113 2094 
Q 5113 2597 4934 2840 
Q 4756 3084 4391 3084 
Q 3944 3084 3684 2787 
Q 3425 2491 3425 1978 
L 3425 0 
L 2847 0 
L 2847 2094 
Q 2847 2600 2669 2842 
Q 2491 3084 2119 3084 
Q 1678 3084 1418 2786 
Q 1159 2488 1159 1978 
L 1159 0 
L 581 0 
L 581 3500 
L 1159 3500 
L 1159 2956 
Q 1356 3278 1631 3431 
Q 1906 3584 2284 3584 
Q 2666 3584 2933 3390 
Q 3200 3197 3328 2828 
z
" transform="scale(0.015625)"/>
       <path id="DejaVuSans-65" d="M 3597 1894 
L 3597 1613 
L 953 1613 
Q 991 1019 1311 708 
Q 1631 397 2203 397 
Q 2534 397 2845 478 
Q 3156 559 3463 722 
L 3463 178 
Q 3153 47 2828 -22 
Q 2503 -91 2169 -91 
Q 1331 -91 842 396 
Q 353 884 353 1716 
Q 353 2575 817 3079 
Q 1281 3584 2069 3584 
Q 2775 3584 3186 3129 
Q 3597 2675 3597 1894 
z
M 3022 2063 
Q 3016 2534 2758 2815 
Q 2500 3097 2075 3097 
Q 1594 3097 1305 2825 
Q 1016 2553 972 2059 
L 3022 2063 
z
" transform="scale(0.015625)"/>
       <path id="DejaVuSans-73" d="M 2834 3397 
L 2834 2853 
Q 2591 2978 2328 3040 
Q 2066 3103 1784 3103 
Q 1356 3103 1142 2972 
Q 928 2841 928 2578 
Q 928 2378 1081 2264 
Q 1234 2150 1697 2047 
L 1894 2003 
Q 2506 1872 2764 1633 
Q 3022 1394 3022 966 
Q 3022 478 2636 193 
Q 2250 -91 1575 -91 
Q 1294 -91 989 -36 
Q 684 19 347 128 
L 347 722 
Q 666 556 975 473 
Q 1284 391 1588 391 
Q 1994 391 2212 530 
Q 2431 669 2431 922 
Q 2431 1156 2273 1281 
Q 2116 1406 1581 1522 
L 1381 1569 
Q 847 1681 609 1914 
Q 372 2147 372 2553 
Q 372 3047 722 3315 
Q 1072 3584 1716 3584 
Q 2034 3584 2315 3537 
Q 2597 3491 2834 3397 
z
" transform="scale(0.015625)"/>
       <path id="DejaVuSans-74" d="M 1172 4494 
L 1172 3500 
L 2356 3500 
L 2356 3053 
L 1172 3053 
L 1172 1153 
Q 1172 725 1289 603 
Q 1406 481 1766 481 
L 2356 481 
L 2356 0 
L 1766 0 
Q 1100 0 847 248 
Q 594 497 594 1153 
L 594 3053 
L 172 3053 
L 172 3500 
L 594 3500 
L 594 4494 
L 1172 4494 
z
" transform="scale(0.015625)"/>
       <path id="DejaVuSans-70" d="M 1159 525 
L 1159 -1331 
L 581 -1331 
L 581 3500 
L 1159 3500 
L 1159 2969 
Q 1341 3281 1617 3432 
Q 1894 3584 2278 3584 
Q 2916 3584 3314 3078 
Q 3713 2572 3713 1747 
Q 3713 922 3314 415 
Q 2916 -91 2278 -91 
Q 1894 -91 1617 61 
Q 1341 213 1159 525 
z
M 3116 1747 
Q 3116 2381 2855 2742 
Q 2594 3103 2138 3103 
Q 1681 3103 1420 2742 
Q 1159 2381 1159 1747 
Q 1159 1113 1420 752 
Q 1681 391 2138 391 
Q 2594 391 2855 752 
Q 3116 1113 3116 1747 
z
" transform="scale(0.015625)"/>
      </defs>
      <use xlink:href="#DejaVuSans-54"/>
      <use xlink:href="#DejaVuSans-69" x="57.958984"/>
      <use xlink:href="#DejaVuSans-6d" x="85.742188"/>
      <use xlink:href="#DejaVuSans-65" x="183.154297"/>
      <use xlink:href="#DejaVuSans-73" x="244.677734"/>
      <use xlink:href="#DejaVuSans-74" x="296.777344"/>
      <use xlink:href="#DejaVuSans-65" x="335.986328"/>
      <use xlink:href="#DejaVuSans-70" x="397.509766"/>
      <use xlink:href="#DejaVuSans-73" x="460.986328"/>
     </g>
    </g>
   </g>
   <g id="matplotlib.axis_2">
    <g id="ytick_1">
     <g id="line2d_8">
      <defs>
       <path id="mf9271efa43" d="M 0 0 
L -3.5 0 
" style="stroke: #000000; stroke-width: 0.8"/>
      </defs>
      <g>
       <use xlink:href="#mf9271efa43" x="76.7" y="284.043571" style="stroke: #000000; stroke-width: 0.8"/>
      </g>
     </g>
     <g id="text_9">
      <!-- −0.4 -->
      <g transform="translate(35.704062 289.362477) scale(0.14 -0.14)">
       <defs>
        <path id="DejaVuSans-2212" d="M 678 2272 
L 4684 2272 
L 4684 1741 
L 678 1741 
L 678 2272 
z
" transform="scale(0.015625)"/>
        <path id="DejaVuSans-2e" d="M 684 794 
L 1344 794 
L 1344 0 
L 684 0 
L 684 794 
z
" transform="scale(0.015625)"/>
        <path id="DejaVuSans-34" d="M 2419 4116 
L 825 1625 
L 2419 1625 
L 2419 4116 
z
M 2253 4666 
L 3047 4666 
L 3047 1625 
L 3713 1625 
L 3713 1100 
L 3047 1100 
L 3047 0 
L 2419 0 
L 2419 1100 
L 313 1100 
L 313 1709 
L 2253 4666 
z
" transform="scale(0.015625)"/>
       </defs>
       <use xlink:href="#DejaVuSans-2212"/>
       <use xlink:href="#DejaVuSans-30" x="83.789062"/>
       <use xlink:href="#DejaVuSans-2e" x="147.412109"/>
       <use xlink:href="#DejaVuSans-34" x="179.199219"/>
      </g>
     </g>
    </g>
    <g id="ytick_2">
     <g id="line2d_9">
      <g>
       <use xlink:href="#mf9271efa43" x="76.7" y="250.284242" style="stroke: #000000; stroke-width: 0.8"/>
      </g>
     </g>
     <g id="text_10">
      <!-- −0.2 -->
      <g transform="translate(35.704062 255.603149) scale(0.14 -0.14)">
       <use xlink:href="#DejaVuSans-2212"/>
       <use xlink:href="#DejaVuSans-30" x="83.789062"/>
       <use xlink:href="#DejaVuSans-2e" x="147.412109"/>
       <use xlink:href="#DejaVuSans-32" x="179.199219"/>
      </g>
     </g>
    </g>
    <g id="ytick_3">
     <g id="line2d_10">
      <g>
       <use xlink:href="#mf9271efa43" x="76.7" y="216.524914" style="stroke: #000000; stroke-width: 0.8"/>
      </g>
     </g>
     <g id="text_11">
      <!-- 0.0 -->
      <g transform="translate(47.435625 221.84382) scale(0.14 -0.14)">
       <use xlink:href="#DejaVuSans-30"/>
       <use xlink:href="#DejaVuSans-2e" x="63.623047"/>
       <use xlink:href="#DejaVuSans-30" x="95.410156"/>
      </g>
     </g>
    </g>
    <g id="ytick_4">
     <g id="line2d_11">
      <g>
       <use xlink:href="#mf9271efa43" x="76.7" y="182.765586" style="stroke: #000000; stroke-width: 0.8"/>
      </g>
     </g>
     <g id="text_12">
      <!-- 0.2 -->
      <g transform="translate(47.435625 188.084492) scale(0.14 -0.14)">
       <use xlink:href="#DejaVuSans-30"/>
       <use xlink:href="#DejaVuSans-2e" x="63.623047"/>
       <use xlink:href="#DejaVuSans-32" x="95.410156"/>
      </g>
     </g>
    </g>
    <g id="ytick_5">
     <g id="line2d_12">
      <g>
       <use xlink:href="#mf9271efa43" x="76.7" y="149.006257" style="stroke: #000000; stroke-width: 0.8"/>
      </g>
     </g>
     <g id="text_13">
      <!-- 0.4 -->
      <g transform="translate(47.435625 154.325163) scale(0.14 -0.14)">
       <use xlink:href="#DejaVuSans-30"/>
       <use xlink:href="#DejaVuSans-2e" x="63.623047"/>
       <use xlink:href="#DejaVuSans-34" x="95.410156"/>
      </g>
     </g>
    </g>
    <g id="ytick_6">
     <g id="line2d_13">
      <g>
       <use xlink:href="#mf9271efa43" x="76.7" y="115.246929" style="stroke: #000000; stroke-width: 0.8"/>
      </g>
     </g>
     <g id="text_14">
      <!-- 0.6 -->
      <g transform="translate(47.435625 120.565835) scale(0.14 -0.14)">
       <defs>
        <path id="DejaVuSans-36" d="M 2113 2584 
Q 1688 2584 1439 2293 
Q 1191 2003 1191 1497 
Q 1191 994 1439 701 
Q 1688 409 2113 409 
Q 2538 409 2786 701 
Q 3034 994 3034 1497 
Q 3034 2003 2786 2293 
Q 2538 2584 2113 2584 
z
M 3366 4563 
L 3366 3988 
Q 3128 4100 2886 4159 
Q 2644 4219 2406 4219 
Q 1781 4219 1451 3797 
Q 1122 3375 1075 2522 
Q 1259 2794 1537 2939 
Q 1816 3084 2150 3084 
Q 2853 3084 3261 2657 
Q 3669 2231 3669 1497 
Q 3669 778 3244 343 
Q 2819 -91 2113 -91 
Q 1303 -91 875 529 
Q 447 1150 447 2328 
Q 447 3434 972 4092 
Q 1497 4750 2381 4750 
Q 2619 4750 2861 4703 
Q 3103 4656 3366 4563 
z
" transform="scale(0.015625)"/>
       </defs>
       <use xlink:href="#DejaVuSans-30"/>
       <use xlink:href="#DejaVuSans-2e" x="63.623047"/>
       <use xlink:href="#DejaVuSans-36" x="95.410156"/>
      </g>
     </g>
    </g>
    <g id="ytick_7">
     <g id="line2d_14">
      <g>
       <use xlink:href="#mf9271efa43" x="76.7" y="81.4876" style="stroke: #000000; stroke-width: 0.8"/>
      </g>
     </g>
     <g id="text_15">
      <!-- 0.8 -->
      <g transform="translate(47.435625 86.806507) scale(0.14 -0.14)">
       <defs>
        <path id="DejaVuSans-38" d="M 2034 2216 
Q 1584 2216 1326 1975 
Q 1069 1734 1069 1313 
Q 1069 891 1326 650 
Q 1584 409 2034 409 
Q 2484 409 2743 651 
Q 3003 894 3003 1313 
Q 3003 1734 2745 1975 
Q 2488 2216 2034 2216 
z
M 1403 2484 
Q 997 2584 770 2862 
Q 544 3141 544 3541 
Q 544 4100 942 4425 
Q 1341 4750 2034 4750 
Q 2731 4750 3128 4425 
Q 3525 4100 3525 3541 
Q 3525 3141 3298 2862 
Q 3072 2584 2669 2484 
Q 3125 2378 3379 2068 
Q 3634 1759 3634 1313 
Q 3634 634 3220 271 
Q 2806 -91 2034 -91 
Q 1263 -91 848 271 
Q 434 634 434 1313 
Q 434 1759 690 2068 
Q 947 2378 1403 2484 
z
M 1172 3481 
Q 1172 3119 1398 2916 
Q 1625 2713 2034 2713 
Q 2441 2713 2670 2916 
Q 2900 3119 2900 3481 
Q 2900 3844 2670 4047 
Q 2441 4250 2034 4250 
Q 1625 4250 1398 4047 
Q 1172 3844 1172 3481 
z
" transform="scale(0.015625)"/>
       </defs>
       <use xlink:href="#DejaVuSans-30"/>
       <use xlink:href="#DejaVuSans-2e" x="63.623047"/>
       <use xlink:href="#DejaVuSans-38" x="95.410156"/>
      </g>
     </g>
    </g>
    <g id="ytick_8">
     <g id="line2d_15">
      <g>
       <use xlink:href="#mf9271efa43" x="76.7" y="47.728272" style="stroke: #000000; stroke-width: 0.8"/>
      </g>
     </g>
     <g id="text_16">
      <!-- 1.0 -->
      <g transform="translate(47.435625 53.047178) scale(0.14 -0.14)">
       <use xlink:href="#DejaVuSans-31"/>
       <use xlink:href="#DejaVuSans-2e" x="63.623047"/>
       <use xlink:href="#DejaVuSans-30" x="95.410156"/>
      </g>
     </g>
    </g>
    <g id="text_17">
     <!-- Orientation -->
     <g transform="translate(27.12875 224.840156) rotate(-90) scale(0.22 -0.22)">
      <defs>
       <path id="DejaVuSans-4f" d="M 2522 4238 
Q 1834 4238 1429 3725 
Q 1025 3213 1025 2328 
Q 1025 1447 1429 934 
Q 1834 422 2522 422 
Q 3209 422 3611 934 
Q 4013 1447 4013 2328 
Q 4013 3213 3611 3725 
Q 3209 4238 2522 4238 
z
M 2522 4750 
Q 3503 4750 4090 4092 
Q 4678 3434 4678 2328 
Q 4678 1225 4090 567 
Q 3503 -91 2522 -91 
Q 1538 -91 948 565 
Q 359 1222 359 2328 
Q 359 3434 948 4092 
Q 1538 4750 2522 4750 
z
" transform="scale(0.015625)"/>
       <path id="DejaVuSans-72" d="M 2631 2963 
Q 2534 3019 2420 3045 
Q 2306 3072 2169 3072 
Q 1681 3072 1420 2755 
Q 1159 2438 1159 1844 
L 1159 0 
L 581 0 
L 581 3500 
L 1159 3500 
L 1159 2956 
Q 1341 3275 1631 3429 
Q 1922 3584 2338 3584 
Q 2397 3584 2469 3576 
Q 2541 3569 2628 3553 
L 2631 2963 
z
" transform="scale(0.015625)"/>
       <path id="DejaVuSans-6e" d="M 3513 2113 
L 3513 0 
L 2938 0 
L 2938 2094 
Q 2938 2591 2744 2837 
Q 2550 3084 2163 3084 
Q 1697 3084 1428 2787 
Q 1159 2491 1159 1978 
L 1159 0 
L 581 0 
L 581 3500 
L 1159 3500 
L 1159 2956 
Q 1366 3272 1645 3428 
Q 1925 3584 2291 3584 
Q 2894 3584 3203 3211 
Q 3513 2838 3513 2113 
z
" transform="scale(0.015625)"/>
       <path id="DejaVuSans-61" d="M 2194 1759 
Q 1497 1759 1228 1600 
Q 959 1441 959 1056 
Q 959 750 1161 570 
Q 1363 391 1709 391 
Q 2188 391 2477 730 
Q 2766 1069 2766 1631 
L 2766 1759 
L 2194 1759 
z
M 3341 1997 
L 3341 0 
L 2766 0 
L 2766 531 
Q 2569 213 2275 61 
Q 1981 -91 1556 -91 
Q 1019 -91 701 211 
Q 384 513 384 1019 
Q 384 1609 779 1909 
Q 1175 2209 1959 2209 
L 2766 2209 
L 2766 2266 
Q 2766 2663 2505 2880 
Q 2244 3097 1772 3097 
Q 1472 3097 1187 3025 
Q 903 2953 641 2809 
L 641 3341 
Q 956 3463 1253 3523 
Q 1550 3584 1831 3584 
Q 2591 3584 2966 3190 
Q 3341 2797 3341 1997 
z
" transform="scale(0.015625)"/>
       <path id="DejaVuSans-6f" d="M 1959 3097 
Q 1497 3097 1228 2736 
Q 959 2375 959 1747 
Q 959 1119 1226 758 
Q 1494 397 1959 397 
Q 2419 397 2687 759 
Q 2956 1122 2956 1747 
Q 2956 2369 2687 2733 
Q 2419 3097 1959 3097 
z
M 1959 3584 
Q 2709 3584 3137 3096 
Q 3566 2609 3566 1747 
Q 3566 888 3137 398 
Q 2709 -91 1959 -91 
Q 1206 -91 779 398 
Q 353 888 353 1747 
Q 353 2609 779 3096 
Q 1206 3584 1959 3584 
z
" transform="scale(0.015625)"/>
      </defs>
      <use xlink:href="#DejaVuSans-4f"/>
      <use xlink:href="#DejaVuSans-72" x="78.710938"/>
      <use xlink:href="#DejaVuSans-69" x="119.824219"/>
      <use xlink:href="#DejaVuSans-65" x="147.607422"/>
      <use xlink:href="#DejaVuSans-6e" x="209.130859"/>
      <use xlink:href="#DejaVuSans-74" x="272.509766"/>
      <use xlink:href="#DejaVuSans-61" x="311.71875"/>
      <use xlink:href="#DejaVuSans-74" x="372.998047"/>
      <use xlink:href="#DejaVuSans-69" x="412.207031"/>
      <use xlink:href="#DejaVuSans-6f" x="439.990234"/>
      <use xlink:href="#DejaVuSans-6e" x="501.171875"/>
     </g>
    </g>
   </g>
   <g id="line2d_16">
    <path d="M 93.668182 277.73245 
L 99.398525 277.730529 
L 101.733109 277.729946 
L 105.977807 277.708385 
L 106.402277 277.605346 
L 113.618264 275.44619 
L 113.830499 275.288775 
L 114.467204 275.169645 
L 115.103909 274.860364 
L 116.801788 274.359424 
L 117.226258 274.146099 
L 118.075198 273.842204 
L 118.711902 273.576518 
L 119.348607 273.397007 
L 119.985312 273.114408 
L 120.834252 272.850851 
L 121.470956 272.576084 
L 122.107661 272.339471 
L 124.65448 271.369597 
L 125.92789 270.860284 
L 128.050239 270.056846 
L 128.474709 269.863069 
L 129.535883 269.432562 
L 131.021528 268.822998 
L 131.233763 268.775424 
L 131.658232 268.502355 
L 132.719407 268.082689 
L 134.841756 267.170154 
L 135.053991 267.153545 
L 135.478461 266.903514 
L 135.690696 266.868678 
L 135.902931 266.662986 
L 136.327401 266.534363 
L 136.75187 266.353866 
L 138.661985 265.496889 
L 140.147629 264.840763 
L 140.996569 264.395178 
L 141.208804 264.369774 
L 141.633274 264.147865 
L 142.057743 264.027611 
L 142.269978 263.831125 
L 142.694448 263.679146 
L 142.906683 263.512301 
L 143.118918 263.508107 
L 143.543388 263.253716 
L 143.755623 263.220646 
L 144.392328 262.900543 
L 144.604563 262.848065 
L 145.029032 262.611308 
L 147.363616 261.519294 
L 148.000321 261.29333 
L 149.273731 260.688684 
L 149.910435 260.433043 
L 151.608315 259.605566 
L 152.032785 259.407785 
L 152.669489 259.069281 
L 153.306194 258.837373 
L 155.004074 258.036341 
L 155.853013 257.634224 
L 156.489718 257.327766 
L 157.126423 257.078871 
L 157.975362 256.629691 
L 158.399832 256.456717 
L 159.461007 255.911948 
L 159.673242 255.872952 
L 160.309947 255.51784 
L 161.583356 254.94496 
L 162.007826 254.671554 
L 162.644531 254.412106 
L 164.34241 253.539554 
L 164.76688 253.334189 
L 166.040289 252.663302 
L 166.464759 252.51197 
L 166.889229 252.264257 
L 167.313699 252.0604 
L 168.162639 251.647668 
L 168.799343 251.271175 
L 169.436048 251.015748 
L 170.284988 250.529158 
L 170.921693 250.244614 
L 172.407337 249.426547 
L 174.105216 248.565068 
L 174.741921 248.187382 
L 175.166391 247.984657 
L 175.803096 247.609005 
L 176.227566 247.395053 
L 176.86427 247.039649 
L 177.28874 246.839341 
L 177.925445 246.456846 
L 178.56215 246.178179 
L 179.411089 245.643741 
L 179.835559 245.446779 
L 180.472264 245.11059 
L 180.896734 244.866166 
L 181.957908 244.259255 
L 182.170143 244.229694 
L 182.806848 243.848718 
L 183.019083 243.770466 
L 183.231318 243.555015 
L 183.868023 243.303834 
L 184.504727 242.939967 
L 185.141432 242.563019 
L 187.900486 241.070906 
L 188.112721 241.040126 
L 188.749426 240.648319 
L 190.65954 239.722802 
L 191.296245 239.380038 
L 191.720715 239.179102 
L 192.357419 238.834394 
L 193.418594 238.369749 
L 194.267534 237.91072 
L 194.904238 237.680219 
L 195.753178 237.222808 
L 196.177648 237.06138 
L 196.814353 236.737098 
L 197.451057 236.522737 
L 198.299997 236.047636 
L 198.936702 235.862681 
L 199.785642 235.430094 
L 200.634581 235.106557 
L 206.577159 232.879697 
L 207.213864 232.707055 
L 208.487273 232.288064 
L 209.336213 232.054722 
L 209.760683 231.912286 
L 211.883032 231.382574 
L 213.156442 231.136207 
L 214.217616 230.90984 
L 215.066556 230.796948 
L 215.915495 230.612472 
L 216.764435 230.524301 
L 223.980422 229.935791 
L 232.045349 229.963447 
L 233.955464 230.0572 
L 239.898041 230.391292 
L 240.534746 230.407056 
L 247.326264 230.867617 
L 248.175203 230.888916 
L 248.811908 230.933954 
L 260.484829 231.367646 
L 260.697064 231.29585 
L 261.121533 231.339771 
L 261.758238 231.324029 
L 263.031648 231.352977 
L 263.456117 231.322584 
L 263.880587 231.313159 
L 275.341273 230.950646 
L 280.647146 230.608755 
L 296.140295 229.114515 
L 296.989235 228.978824 
L 297.413705 228.94932 
L 299.748289 228.652526 
L 300.384993 228.594272 
L 300.597228 228.605307 
L 301.021698 228.483463 
L 301.233933 228.531013 
L 301.658403 228.425008 
L 302.719578 228.335612 
L 304.841927 228.071303 
L 305.266397 228.010623 
L 305.690866 227.976189 
L 306.539806 227.902698 
L 307.600981 227.749635 
L 309.72333 227.599193 
L 309.935565 227.456068 
L 310.360035 227.461219 
L 310.784505 227.421915 
L 310.996739 227.459375 
L 311.208974 227.344229 
L 312.057914 227.30982 
L 312.906854 227.18442 
L 313.755793 227.146846 
L 314.180263 227.037169 
L 314.604733 227.092868 
L 315.029203 226.965672 
L 317.151552 226.768839 
L 318.212727 226.672148 
L 320.547311 226.459074 
L 321.39625 226.442373 
L 331.159057 225.914342 
L 331.371292 225.959281 
L 331.583527 225.861118 
L 332.007996 225.887069 
L 336.677165 225.794312 
L 336.8894 225.833962 
L 337.313869 225.734272 
L 338.162809 225.777591 
L 338.375044 225.705642 
L 338.799514 225.789591 
L 339.860688 225.706085 
L 346.439971 225.683621 
L 346.652206 225.536746 
L 347.076676 225.640403 
L 347.288911 225.510102 
L 347.713381 225.702173 
L 347.925615 225.408468 
L 348.350085 225.624748 
L 348.56232 225.429984 
L 348.98679 225.548651 
L 349.199025 225.44963 
L 349.623495 225.531688 
L 349.83573 225.363414 
L 350.2602 225.51509 
L 350.472434 225.346441 
L 350.896904 225.450874 
L 351.745844 225.350379 
L 352.594784 225.343897 
L 354.292663 225.306028 
L 354.504898 225.213399 
L 354.929368 225.236251 
L 355.566073 225.168794 
L 357.051717 225.101284 
L 357.900657 225.003542 
L 358.537361 225.019913 
L 358.961831 224.907725 
L 359.174066 224.995098 
L 359.386301 224.89745 
L 360.023006 224.8925 
L 360.659711 224.94831 
L 360.871946 224.791643 
L 362.569825 224.770268 
L 362.78206 224.639951 
L 363.20653 224.694446 
L 363.630999 224.617086 
L 364.055469 224.590551 
L 367.026758 224.302047 
L 367.238993 224.365993 
L 367.875698 224.271366 
L 368.724638 224.250677 
L 369.361342 224.127851 
L 370.210282 224.098355 
L 373.393806 223.826379 
L 377.426269 223.517583 
L 381.458733 223.245136 
L 383.156612 223.139498 
L 384.854491 223.037969 
L 386.340136 222.956759 
L 395.678472 222.579791 
L 398.013056 222.514283 
L 408.412568 222.305941 
L 409.898212 222.288374 
L 412.232796 222.248707 
L 413.930675 222.257802 
L 415.628555 222.233957 
L 416.689729 222.235439 
L 418.812079 222.183182 
L 420.297723 222.198099 
L 421.358898 222.191551 
L 432.819583 222.191895 
L 432.819583 222.191895 
" clip-path="url(#p8db42d914a)" style="fill: none; stroke: #ff0000; stroke-width: 1.5; stroke-linecap: square"/>
   </g>
   <g id="line2d_17">
    <path d="M 93.668182 166.264194 
L 104.067693 166.267186 
L 105.977807 166.288213 
L 106.826747 166.86632 
L 107.251217 167.112358 
L 107.887921 167.408836 
L 108.312391 167.747716 
L 109.161331 168.197527 
L 110.646975 169.068551 
L 111.28368 169.435015 
L 115.740613 171.847623 
L 116.377318 172.09015 
L 117.650728 172.68968 
L 121.683191 174.352801 
L 122.532131 174.745371 
L 123.381071 175.051227 
L 124.017775 175.343813 
L 124.442245 175.518324 
L 129.960353 177.745981 
L 130.597058 178.040286 
L 131.233763 178.221752 
L 131.658232 178.457081 
L 133.143877 178.911012 
L 133.568347 179.091095 
L 135.690696 179.678132 
L 135.902931 179.820638 
L 136.327401 179.899141 
L 136.964105 180.077433 
L 142.694448 181.703718 
L 143.331153 181.951107 
L 144.604563 182.283808 
L 145.029032 182.452392 
L 150.54714 184.431713 
L 151.183845 184.712209 
L 151.82055 184.916712 
L 152.669489 185.335054 
L 153.518429 185.637202 
L 154.367369 185.987126 
L 155.004074 186.271692 
L 155.853013 186.652149 
L 156.489718 186.931664 
L 157.126423 187.166906 
L 157.975362 187.592931 
L 158.399832 187.751831 
L 159.461007 188.272831 
L 159.673242 188.303047 
L 160.309947 188.643564 
L 161.583356 189.193 
L 162.220061 189.502587 
L 162.856766 189.815713 
L 176.86427 196.475023 
L 177.71321 196.836199 
L 178.349915 197.16676 
L 178.774385 197.318939 
L 179.623324 197.68493 
L 183.443553 199.335489 
L 184.080258 199.543029 
L 184.504727 199.763121 
L 185.990372 200.34084 
L 186.627077 200.614734 
L 190.871775 201.998235 
L 191.50848 202.131595 
L 192.569654 202.456024 
L 199.148937 204.05069 
L 199.361172 204.032294 
L 199.573407 204.173517 
L 199.997877 204.202077 
L 200.422346 204.305649 
L 203.1814 204.781223 
L 203.60587 204.897816 
L 204.45481 205.036416 
L 206.577159 205.394065 
L 207.213864 205.459655 
L 209.972918 205.860601 
L 211.034092 205.99616 
L 223.343718 207.457609 
L 225.678302 207.673423 
L 226.739476 207.768227 
L 228.012886 207.891726 
L 228.649591 207.973632 
L 229.49853 208.00609 
L 230.135235 208.072756 
L 231.19641 208.115614 
L 240.110276 208.025896 
L 240.534746 207.984248 
L 249.236378 207.097688 
L 249.873083 206.967605 
L 250.934257 206.883505 
L 255.391191 206.601769 
L 258.999184 206.650277 
L 263.031648 206.966556 
L 263.456117 207.054865 
L 263.880587 207.115234 
L 267.700816 207.664468 
L 268.549756 207.857901 
L 270.88434 208.287174 
L 275.341273 209.408458 
L 286.165254 212.767912 
L 286.589724 212.909333 
L 288.712073 213.481047 
L 289.136543 213.631127 
L 289.985482 213.878716 
L 296.989235 215.531154 
L 297.62594 215.627735 
L 299.748289 216.00821 
L 300.384993 216.114631 
L 301.233933 216.22215 
L 301.870638 216.345718 
L 308.025451 217.16716 
L 310.996739 217.462663 
L 311.421209 217.546222 
L 313.331324 217.725046 
L 315.241438 217.909223 
L 316.514847 217.987076 
L 318.424962 218.150181 
L 319.486136 218.189734 
L 320.335076 218.294875 
L 322.881895 218.460849 
L 323.94307 218.514988 
L 324.367539 218.528159 
L 325.640949 218.646871 
L 326.489889 218.691482 
L 338.587279 219.284305 
L 340.709628 219.343843 
L 341.134098 219.407857 
L 343.044212 219.460056 
L 347.076676 219.479383 
L 347.288911 219.544669 
L 347.713381 219.45029 
L 347.925615 219.585348 
L 348.350085 219.487349 
L 348.774555 219.509875 
L 349.623495 219.459601 
L 349.83573 219.529375 
L 350.2602 219.456722 
L 350.684669 219.507542 
L 351.533609 219.504598 
L 353.655958 219.521227 
L 354.292663 219.474496 
L 355.141603 219.469838 
L 355.990542 219.417263 
L 361.50865 219.297106 
L 362.145355 219.321763 
L 363.20653 219.267526 
L 364.904409 219.241748 
L 370.422517 219.208954 
L 373.818276 219.247002 
L 375.091685 219.266415 
L 379.973088 219.343539 
L 382.944377 219.399735 
L 386.340136 219.447498 
L 390.797069 219.521924 
L 398.225291 219.635853 
L 401.62105 219.669189 
L 411.171621 219.75575 
L 416.26526 219.767969 
L 420.722193 219.793811 
L 423.693482 219.799779 
L 427.08924 219.817406 
L 431.121704 219.80004 
L 432.819583 219.801658 
L 432.819583 219.801658 
" clip-path="url(#p8db42d914a)" style="fill: none; stroke: #008000; stroke-width: 1.5; stroke-linecap: square"/>
   </g>
   <g id="line2d_18">
    <path d="M 93.668182 237.357359 
L 98.125115 237.349082 
L 101.520874 237.357211 
L 107.038982 237.15852 
L 108.100156 236.961824 
L 116.801788 235.01741 
L 117.438493 234.778061 
L 118.075198 234.622439 
L 120.622017 233.851677 
L 121.683191 233.572079 
L 122.107661 233.397223 
L 123.80554 232.927442 
L 124.017775 232.782314 
L 124.23001 232.793432 
L 124.65448 232.624361 
L 126.140125 232.120263 
L 126.776829 231.965575 
L 127.838004 231.606867 
L 131.445997 230.35085 
L 132.082702 230.127861 
L 132.719407 229.949789 
L 133.143877 229.795758 
L 133.780582 229.538321 
L 135.902931 228.723437 
L 136.327401 228.537295 
L 137.813045 228.008444 
L 138.237515 227.816073 
L 139.510924 227.267225 
L 139.723159 227.251682 
L 140.147629 227.053261 
L 147.788086 224.096465 
L 148.424791 223.870884 
L 153.730664 221.901551 
L 154.791839 221.540705 
L 155.428543 221.283247 
L 157.338658 220.586927 
L 157.975362 220.353828 
L 158.612067 220.128795 
L 160.946651 219.269674 
L 161.795591 218.988549 
L 162.856766 218.602092 
L 164.76688 217.92417 
L 165.403585 217.697466 
L 165.828054 217.516608 
L 166.889229 217.172873 
L 167.950404 216.880197 
L 168.799343 216.527501 
L 169.436048 216.385005 
L 170.072753 216.15827 
L 171.558397 215.737122 
L 174.529686 214.99304 
L 177.71321 214.375147 
L 178.349915 214.222643 
L 178.56215 214.246744 
L 179.198854 214.062296 
L 180.260029 213.950978 
L 181.108969 213.769829 
L 182.170143 213.633424 
L 185.141432 213.232325 
L 187.900486 212.916061 
L 188.537191 212.835035 
L 190.65954 212.661893 
L 191.296245 212.587511 
L 191.93295 212.520761 
L 196.602118 212.170985 
L 198.299997 212.037309 
L 199.361172 211.995532 
L 200.634581 211.870338 
L 201.695756 211.812652 
L 206.364924 211.537868 
L 207.001629 211.492859 
L 209.336213 211.400846 
L 209.760683 211.380414 
L 210.397388 211.303614 
L 211.034092 211.315009 
L 211.670797 211.253292 
L 213.580911 211.159942 
L 214.217616 211.087699 
L 216.12773 210.948839 
L 216.764435 210.861809 
L 217.82561 210.791474 
L 223.131483 210.29581 
L 224.617127 210.185218 
L 225.253832 210.101315 
L 225.890537 210.092755 
L 231.833114 209.657625 
L 233.318759 209.593052 
L 235.441108 209.465376 
L 236.926753 209.419459 
L 238.624632 209.324483 
L 239.685806 209.319346 
L 241.171451 209.25688 
L 241.808156 209.274155 
L 243.506035 209.232541 
L 255.391191 209.385558 
L 259.211419 209.480372 
L 260.909298 209.524329 
L 268.337521 209.8172 
L 268.974225 209.792567 
L 269.398695 209.823257 
L 270.247635 209.839248 
L 271.308809 209.832803 
L 271.733279 209.839646 
L 272.369984 209.8957 
L 273.006689 209.892454 
L 274.280098 209.915302 
L 274.704568 209.910674 
L 277.039152 209.886132 
L 277.675857 209.94139 
L 278.100327 209.880428 
L 280.859381 209.844095 
L 305.690866 208.923963 
L 307.600981 208.87005 
L 310.996739 208.770642 
L 312.057914 208.770984 
L 313.119089 208.740125 
L 315.029203 208.691538 
L 317.788257 208.60991 
L 322.24519 208.532031 
L 323.730835 208.498842 
L 324.792009 208.487314 
L 325.640949 208.482218 
L 332.856936 208.396777 
L 341.558568 208.460604 
L 343.680917 208.486047 
L 345.591031 208.475498 
L 349.623495 208.4609 
L 350.047965 208.516443 
L 350.896904 208.519163 
L 351.745844 208.519223 
L 352.382549 208.527416 
L 353.231488 208.5553 
L 354.717133 208.559796 
L 355.778307 208.521994 
L 355.990542 208.580968 
L 356.415012 208.577127 
L 357.051717 208.543835 
L 357.900657 208.561171 
L 358.537361 208.532573 
L 360.235241 208.527702 
L 360.871946 208.547398 
L 367.238993 208.433938 
L 368.087933 208.433583 
L 372.332631 208.347916 
L 377.001799 208.267012 
L 383.156612 208.125692 
L 385.915666 208.077438 
L 388.25025 208.032282 
L 394.192828 207.934946 
L 416.053025 207.718035 
L 419.448783 207.714248 
L 426.877006 207.682286 
L 430.272764 207.680228 
L 432.819583 207.679725 
L 432.819583 207.679725 
" clip-path="url(#p8db42d914a)" style="fill: none; stroke: #0000ff; stroke-width: 1.5; stroke-linecap: square"/>
   </g>
   <g id="line2d_19">
    <path d="M 93.668182 68.924734 
L 101.308639 68.924803 
L 106.190042 68.804167 
L 109.161331 67.831512 
L 116.165083 65.517668 
L 116.801788 65.379098 
L 117.226258 65.198348 
L 118.499667 64.84043 
L 119.136372 64.608464 
L 119.773077 64.475374 
L 120.622017 64.203307 
L 121.683191 63.925806 
L 122.532131 63.6529 
L 123.381071 63.442056 
L 124.017775 63.240161 
L 124.65448 63.063355 
L 127.201299 62.335489 
L 128.050239 62.12743 
L 128.686944 61.923824 
L 129.535883 61.71599 
L 131.021528 61.311874 
L 131.658232 61.11201 
L 133.143877 60.783102 
L 133.568347 60.641198 
L 135.053991 60.317911 
L 135.478461 60.181757 
L 136.115166 60.048143 
L 137.388575 59.74322 
L 138.237515 59.547595 
L 139.510924 59.224075 
L 142.057743 58.694022 
L 142.694448 58.520329 
L 143.331153 58.346423 
L 145.877972 57.796863 
L 167.738169 53.26824 
L 168.587108 53.129346 
L 169.648283 52.931054 
L 172.407337 52.452437 
L 189.8106 50.09137 
L 208.275038 48.904482 
L 215.278791 48.71093 
L 242.657095 48.692023 
L 247.114029 48.744816 
L 255.81566 48.819043 
L 291.471127 48.402421 
L 297.413705 48.34837 
L 336.04046 48.198148 
L 354.292663 48.170926 
L 362.78206 48.13656 
L 368.724638 48.121056 
L 382.095437 48.092416 
L 414.99185 48.085836 
L 432.819583 48.087337 
L 432.819583 48.087337 
" clip-path="url(#p8db42d914a)" style="fill: none; stroke: #800080; stroke-width: 1.5; stroke-linecap: square"/>
   </g>
   <g id="line2d_20">
    <path d="M 93.668182 217.52314 
L 110.43474 217.50166 
L 110.646975 217.456349 
L 111.071445 217.502523 
L 111.920385 217.562858 
L 112.344855 217.497125 
L 112.981559 217.554422 
L 114.254969 217.493336 
L 114.891674 217.549802 
L 115.952848 217.552928 
L 120.622017 217.504614 
L 121.046486 217.555243 
L 121.683191 217.518714 
L 122.956601 217.563759 
L 123.80554 217.512216 
L 124.65448 217.545639 
L 125.50342 217.545568 
L 125.92789 217.571352 
L 126.776829 217.522091 
L 127.625769 217.54999 
L 128.262474 217.527563 
L 128.899178 217.573219 
L 129.111413 217.614933 
L 129.535883 217.500052 
L 130.809293 217.568135 
L 131.658232 217.495027 
L 132.082702 217.560399 
L 133.992817 217.52998 
L 134.629521 217.560376 
L 135.053991 217.52071 
L 135.690696 217.535243 
L 136.75187 217.539203 
L 137.388575 217.537689 
L 138.02528 217.563577 
L 138.44975 217.541766 
L 139.086455 217.526719 
L 140.996569 217.528531 
L 142.906683 217.544855 
L 143.543388 217.556776 
L 145.241267 217.529155 
L 146.302442 217.508896 
L 147.363616 217.565162 
L 149.061496 217.540318 
L 152.881724 217.561547 
L 153.306194 217.589946 
L 155.004074 217.598745 
L 155.428543 217.580741 
L 156.065248 217.569728 
L 156.489718 217.558074 
L 157.126423 217.586903 
L 158.399832 217.545868 
L 159.461007 217.540243 
L 161.158886 217.517447 
L 161.583356 217.634467 
L 164.554645 217.582142 
L 165.403585 217.587147 
L 167.101464 217.555324 
L 167.738169 217.593065 
L 168.374874 217.541643 
L 169.011578 217.575736 
L 171.558397 217.542391 
L 171.982867 217.588889 
L 172.407337 217.575956 
L 174.317451 217.595344 
L 174.954156 217.570676 
L 176.652035 217.615754 
L 177.076505 217.559579 
L 177.28874 217.667308 
L 177.71321 217.623802 
L 178.349915 217.586627 
L 179.835559 217.622042 
L 180.260029 217.580022 
L 181.321204 217.588073 
L 181.745673 217.611508 
L 182.170143 217.541948 
L 184.929197 217.599477 
L 185.565902 217.562926 
L 186.627077 217.609228 
L 187.263781 217.596931 
L 189.173896 217.494425 
L 189.598365 217.562705 
L 192.994124 217.522194 
L 193.418594 217.565372 
L 194.904238 217.5896 
L 195.328708 217.578553 
L 195.753178 217.590423 
L 196.177648 217.526221 
L 196.602118 217.540239 
L 197.026588 217.521412 
L 197.451057 217.555141 
L 197.663292 217.666929 
L 198.087762 217.616993 
L 198.936702 217.52406 
L 199.148937 217.636874 
L 200.846816 217.555507 
L 204.45481 217.582078 
L 205.091515 217.598018 
L 205.728219 217.671457 
L 207.426099 217.669977 
L 207.638334 217.682016 
L 208.062803 217.57741 
L 208.487273 217.642182 
L 209.336213 217.698666 
L 209.548448 217.58996 
L 209.972918 217.580729 
L 215.915495 217.686676 
L 216.12773 217.552129 
L 218.037845 217.634496 
L 222.494778 217.633062 
L 225.041597 217.623216 
L 225.678302 217.590471 
L 226.102772 217.670447 
L 226.527241 217.627855 
L 227.163946 217.617714 
L 281.496086 217.614225 
L 281.920555 217.55271 
L 283.193965 217.6384 
L 283.618435 217.60546 
L 284.679609 217.581847 
L 285.316314 217.560592 
L 287.863133 217.616983 
L 288.499838 217.579123 
L 289.348778 217.615913 
L 293.169006 217.587368 
L 294.442416 217.611114 
L 294.654651 217.449472 
L 296.35253 217.63504 
L 296.777 217.552252 
L 297.413705 217.606121 
L 297.62594 217.6265 
L 298.050409 217.535225 
L 299.536054 217.63929 
L 299.960524 217.536211 
L 300.597228 217.581727 
L 301.021698 217.53526 
L 301.446168 217.564193 
L 302.507343 217.549206 
L 302.719578 217.67165 
L 303.568517 217.581211 
L 303.992987 217.54438 
L 304.417457 217.614719 
L 304.629692 217.644548 
L 305.054162 217.57222 
L 305.478632 217.672801 
L 307.176511 217.629197 
L 307.388746 217.502446 
L 307.813216 217.61381 
L 309.086625 217.622732 
L 309.935565 217.5713 
L 312.482384 217.622912 
L 312.694619 217.525364 
L 312.906854 217.662754 
L 313.543558 217.574077 
L 314.180263 217.626892 
L 315.029203 217.587336 
L 315.665908 217.646089 
L 316.302612 217.649517 
L 316.727082 217.639184 
L 317.363787 217.649427 
L 317.576022 217.551545 
L 317.788257 217.668622 
L 319.273901 217.576814 
L 319.486136 217.696029 
L 320.335076 217.607064 
L 321.184016 217.671311 
L 321.82072 217.606462 
L 322.66966 217.628233 
L 322.881895 217.582361 
L 323.09413 217.698756 
L 323.5186 217.7076 
L 323.730835 217.45968 
L 323.94307 217.66553 
L 325.853184 217.696446 
L 326.489889 217.639639 
L 327.551063 217.660412 
L 328.187768 217.593251 
L 328.612238 217.617538 
L 329.461177 217.615404 
L 329.885647 217.60741 
L 332.007996 217.711678 
L 332.432466 217.530459 
L 333.918111 217.621198 
L 336.8894 217.542767 
L 337.313869 217.74248 
L 338.162809 217.60635 
L 340.497393 217.647723 
L 342.407508 217.66051 
L 343.256447 217.679883 
L 343.468682 217.565329 
L 344.317622 217.741218 
L 344.742092 217.676156 
L 345.378796 217.634682 
L 346.652206 217.701089 
L 348.774555 217.666396 
L 348.98679 217.758289 
L 350.047965 217.653043 
L 350.472434 217.658806 
L 353.019254 217.64735 
L 353.231488 217.564512 
L 354.080428 217.709166 
L 354.929368 217.646123 
L 355.566073 217.689521 
L 355.990542 217.595236 
L 357.263952 217.668458 
L 357.476187 217.59888 
L 357.688422 217.737543 
L 358.537361 217.646527 
L 358.961831 217.687216 
L 361.720885 217.586764 
L 362.145355 217.657153 
L 362.569825 217.63528 
L 364.267704 217.608628 
L 368.087933 217.592353 
L 368.300168 217.505206 
L 369.149107 217.601215 
L 381.670968 217.66442 
L 386.764606 217.666932 
L 389.311425 217.655829 
L 394.405063 217.668582 
L 399.074231 217.663409 
L 402.682225 217.672641 
L 405.865748 217.664631 
L 410.322682 217.670641 
L 415.628555 217.667772 
L 418.812079 217.667955 
L 421.995602 217.668374 
L 433.031818 217.662287 
L 433.031818 217.662287 
" clip-path="url(#p8db42d914a)" style="fill: none; stroke-dasharray: 5.55,2.4; stroke-dashoffset: 0; stroke: #ff0000; stroke-width: 1.5"/>
   </g>
   <g id="line2d_21">
    <path d="M 93.668182 217.525324 
L 203.818105 217.562921 
L 205.728219 217.567692 
L 207.850569 217.577048 
L 213.580911 217.552552 
L 214.005381 217.583053 
L 216.764435 217.551184 
L 218.462315 217.578495 
L 219.947959 217.53616 
L 221.221368 217.5512 
L 228.012886 217.520871 
L 229.07406 217.518534 
L 233.743229 217.512852 
L 234.592168 217.519596 
L 241.595921 217.554741 
L 245.840619 217.560642 
L 247.114029 217.572559 
L 248.175203 217.565931 
L 252.207667 217.547861 
L 253.905546 217.590076 
L 255.391191 217.545883 
L 260.060359 217.529884 
L 260.909298 217.538882 
L 262.394943 217.549294 
L 264.941762 217.551583 
L 265.790702 217.550134 
L 268.125286 217.539666 
L 268.974225 217.531478 
L 270.45987 217.529646 
L 293.169006 217.523475 
L 296.777 217.527419 
L 298.899349 217.537194 
L 300.172759 217.495608 
L 301.658403 217.542078 
L 302.507343 217.497673 
L 302.931812 217.531315 
L 304.205222 217.503689 
L 304.629692 217.527996 
L 306.327571 217.523174 
L 306.964276 217.569489 
L 307.388746 217.525956 
L 311.633444 217.486267 
L 315.241438 217.506094 
L 316.727082 217.495513 
L 319.061666 217.465545 
L 319.910606 217.493046 
L 328.187768 217.494542 
L 328.824473 217.493068 
L 329.673412 217.496953 
L 330.097882 217.485524 
L 334.342581 217.469231 
L 337.526104 217.47929 
L 338.799514 217.477451 
L 340.497393 217.514301 
L 341.134098 217.484696 
L 342.831977 217.47516 
L 344.317622 217.497404 
L 346.439971 217.484368 
L 349.83573 217.454957 
L 350.684669 217.48981 
L 352.170314 217.450346 
L 353.443723 217.473511 
L 353.868193 217.48666 
L 355.778307 217.450404 
L 433.031818 217.419147 
L 433.031818 217.419147 
" clip-path="url(#p8db42d914a)" style="fill: none; stroke-dasharray: 5.55,2.4; stroke-dashoffset: 0; stroke: #008000; stroke-width: 1.5"/>
   </g>
   <g id="line2d_22">
    <path d="M 93.668182 218.057592 
L 100.247464 218.060285 
L 101.096404 218.049703 
L 104.067693 218.057801 
L 104.492163 218.037154 
L 106.190042 218.058192 
L 119.773077 218.029168 
L 120.197547 218.043523 
L 121.895426 218.026202 
L 123.80554 218.057061 
L 125.291185 218.044247 
L 127.625769 218.028115 
L 134.205051 218.025238 
L 136.115166 218.049642 
L 137.17634 217.98015 
L 137.813045 218.011261 
L 140.359864 217.972873 
L 141.633274 217.992988 
L 142.482213 218.016641 
L 143.755623 218.008703 
L 144.180093 218.012835 
L 176.4398 218.011748 
L 178.774385 217.990571 
L 180.472264 218.006579 
L 185.353667 218.008088 
L 186.414842 218.01725 
L 191.93295 218.022078 
L 192.569654 218.022476 
L 208.062803 218.008474 
L 209.123978 218.026973 
L 209.972918 218.032883 
L 211.458562 218.043786 
L 213.368676 218.033197 
L 236.077813 218.04428 
L 236.502283 218.021931 
L 237.351222 218.052976 
L 237.775692 218.003313 
L 238.412397 218.043069 
L 241.171451 218.017546 
L 242.86933 218.046301 
L 243.71827 218.007696 
L 244.14274 218.038559 
L 244.991679 218.002794 
L 246.265089 218.024044 
L 259.848124 218.018919 
L 260.697064 218.007743 
L 265.790702 218.013036 
L 266.427406 218.069941 
L 270.88434 218.005119 
L 271.521044 218.010198 
L 272.794454 218.012706 
L 282.98173 217.992648 
L 283.4062 218.019501 
L 284.25514 218.001029 
L 288.924308 218.02883 
L 289.561013 217.96861 
L 290.834422 217.990418 
L 292.320067 217.975 
L 293.381241 217.983068 
L 294.230181 217.978008 
L 295.07912 217.998705 
L 298.474879 218.015641 
L 299.111584 217.983058 
L 299.960524 218.035792 
L 300.597228 218.012492 
L 301.233933 217.98613 
L 301.870638 218.036693 
L 302.507343 217.976235 
L 332.644701 217.987274 
L 333.069171 217.934851 
L 334.979285 217.937765 
L 335.403755 217.972702 
L 336.04046 217.974841 
L 336.46493 217.929306 
L 337.526104 217.954863 
L 339.011749 217.926964 
L 339.436219 217.98651 
L 339.648454 218.011609 
L 340.072923 217.940331 
L 340.285158 217.904091 
L 340.709628 218.015397 
L 341.134098 217.91098 
L 341.770803 217.9996 
L 342.195273 217.956068 
L 342.831977 217.970521 
L 344.317622 217.919875 
L 344.954327 217.993032 
L 345.591031 217.888587 
L 346.015501 217.973134 
L 347.288911 218.007427 
L 347.713381 217.935145 
L 348.13785 217.958863 
L 348.56232 218.038554 
L 348.98679 217.926314 
L 351.109139 218.022048 
L 351.321374 217.90574 
L 352.382549 218.00745 
L 352.807019 217.936223 
L 365.753349 217.98407 
L 366.177819 217.945889 
L 433.031818 217.966019 
L 433.031818 217.966019 
" clip-path="url(#p8db42d914a)" style="fill: none; stroke-dasharray: 5.55,2.4; stroke-dashoffset: 0; stroke: #0000ff; stroke-width: 1.5"/>
   </g>
   <g id="line2d_23">
    <path d="M 93.668182 47.741147 
L 433.031818 47.740625 
L 433.031818 47.740625 
" clip-path="url(#p8db42d914a)" style="fill: none; stroke-dasharray: 5.55,2.4; stroke-dashoffset: 0; stroke: #800080; stroke-width: 1.5"/>
   </g>
   <g id="patch_3">
    <path d="M 76.7 289.24 
L 76.7 36.24 
" style="fill: none; stroke: #000000; stroke-width: 0.8; stroke-linejoin: miter; stroke-linecap: square"/>
   </g>
   <g id="patch_4">
    <path d="M 450 289.24 
L 450 36.24 
" style="fill: none; stroke: #000000; stroke-width: 0.8; stroke-linejoin: miter; stroke-linecap: square"/>
   </g>
   <g id="patch_5">
    <path d="M 76.7 289.24 
L 450 289.24 
" style="fill: none; stroke: #000000; stroke-width: 0.8; stroke-linejoin: miter; stroke-linecap: square"/>
   </g>
   <g id="patch_6">
    <path d="M 76.7 36.24 
L 450 36.24 
" style="fill: none; stroke: #000000; stroke-width: 0.8; stroke-linejoin: miter; stroke-linecap: square"/>
   </g>
   <g id="text_18">
    <!-- Orientation (quat) -->
    <g transform="translate(146.128594 30.24) scale(0.26 -0.26)">
     <defs>
      <path id="DejaVuSans-20" transform="scale(0.015625)"/>
      <path id="DejaVuSans-28" d="M 1984 4856 
Q 1566 4138 1362 3434 
Q 1159 2731 1159 2009 
Q 1159 1288 1364 580 
Q 1569 -128 1984 -844 
L 1484 -844 
Q 1016 -109 783 600 
Q 550 1309 550 2009 
Q 550 2706 781 3412 
Q 1013 4119 1484 4856 
L 1984 4856 
z
" transform="scale(0.015625)"/>
      <path id="DejaVuSans-71" d="M 947 1747 
Q 947 1113 1208 752 
Q 1469 391 1925 391 
Q 2381 391 2643 752 
Q 2906 1113 2906 1747 
Q 2906 2381 2643 2742 
Q 2381 3103 1925 3103 
Q 1469 3103 1208 2742 
Q 947 2381 947 1747 
z
M 2906 525 
Q 2725 213 2448 61 
Q 2172 -91 1784 -91 
Q 1150 -91 751 415 
Q 353 922 353 1747 
Q 353 2572 751 3078 
Q 1150 3584 1784 3584 
Q 2172 3584 2448 3432 
Q 2725 3281 2906 2969 
L 2906 3500 
L 3481 3500 
L 3481 -1331 
L 2906 -1331 
L 2906 525 
z
" transform="scale(0.015625)"/>
      <path id="DejaVuSans-75" d="M 544 1381 
L 544 3500 
L 1119 3500 
L 1119 1403 
Q 1119 906 1312 657 
Q 1506 409 1894 409 
Q 2359 409 2629 706 
Q 2900 1003 2900 1516 
L 2900 3500 
L 3475 3500 
L 3475 0 
L 2900 0 
L 2900 538 
Q 2691 219 2414 64 
Q 2138 -91 1772 -91 
Q 1169 -91 856 284 
Q 544 659 544 1381 
z
M 1991 3584 
L 1991 3584 
z
" transform="scale(0.015625)"/>
      <path id="DejaVuSans-29" d="M 513 4856 
L 1013 4856 
Q 1481 4119 1714 3412 
Q 1947 2706 1947 2009 
Q 1947 1309 1714 600 
Q 1481 -109 1013 -844 
L 513 -844 
Q 928 -128 1133 580 
Q 1338 1288 1338 2009 
Q 1338 2731 1133 3434 
Q 928 4138 513 4856 
z
" transform="scale(0.015625)"/>
     </defs>
     <use xlink:href="#DejaVuSans-4f"/>
     <use xlink:href="#DejaVuSans-72" x="78.710938"/>
     <use xlink:href="#DejaVuSans-69" x="119.824219"/>
     <use xlink:href="#DejaVuSans-65" x="147.607422"/>
     <use xlink:href="#DejaVuSans-6e" x="209.130859"/>
     <use xlink:href="#DejaVuSans-74" x="272.509766"/>
     <use xlink:href="#DejaVuSans-61" x="311.71875"/>
     <use xlink:href="#DejaVuSans-74" x="372.998047"/>
     <use xlink:href="#DejaVuSans-69" x="412.207031"/>
     <use xlink:href="#DejaVuSans-6f" x="439.990234"/>
     <use xlink:href="#DejaVuSans-6e" x="501.171875"/>
     <use xlink:href="#DejaVuSans-20" x="564.550781"/>
     <use xlink:href="#DejaVuSans-28" x="596.337891"/>
     <use xlink:href="#DejaVuSans-71" x="635.351562"/>
     <use xlink:href="#DejaVuSans-75" x="698.828125"/>
     <use xlink:href="#DejaVuSans-61" x="762.207031"/>
     <use xlink:href="#DejaVuSans-74" x="823.486328"/>
     <use xlink:href="#DejaVuSans-29" x="862.695312"/>
    </g>
   </g>
   <g id="legend_1">
    <g id="patch_7">
     <path d="M 358.081875 283.24 
L 441.6 283.24 
Q 444 283.24 444 280.84 
L 444 246.8125 
Q 444 244.4125 441.6 244.4125 
L 358.081875 244.4125 
Q 355.681875 244.4125 355.681875 246.8125 
L 355.681875 280.84 
Q 355.681875 283.24 358.081875 283.24 
z
" style="fill: #ffffff; opacity: 0.8; stroke: #cccccc; stroke-linejoin: miter"/>
    </g>
    <g id="line2d_24">
     <path d="M 360.481875 254.130625 
L 372.481875 254.130625 
L 384.481875 254.130625 
" style="fill: none; stroke: #000000; stroke-width: 1.5; stroke-linecap: square"/>
    </g>
    <g id="text_19">
     <!-- Gripper -->
     <g transform="translate(394.081875 258.330625) scale(0.12 -0.12)">
      <defs>
       <path id="DejaVuSans-47" d="M 3809 666 
L 3809 1919 
L 2778 1919 
L 2778 2438 
L 4434 2438 
L 4434 434 
Q 4069 175 3628 42 
Q 3188 -91 2688 -91 
Q 1594 -91 976 548 
Q 359 1188 359 2328 
Q 359 3472 976 4111 
Q 1594 4750 2688 4750 
Q 3144 4750 3555 4637 
Q 3966 4525 4313 4306 
L 4313 3634 
Q 3963 3931 3569 4081 
Q 3175 4231 2741 4231 
Q 1884 4231 1454 3753 
Q 1025 3275 1025 2328 
Q 1025 1384 1454 906 
Q 1884 428 2741 428 
Q 3075 428 3337 486 
Q 3600 544 3809 666 
z
" transform="scale(0.015625)"/>
      </defs>
      <use xlink:href="#DejaVuSans-47"/>
      <use xlink:href="#DejaVuSans-72" x="77.490234"/>
      <use xlink:href="#DejaVuSans-69" x="118.603516"/>
      <use xlink:href="#DejaVuSans-70" x="146.386719"/>
      <use xlink:href="#DejaVuSans-70" x="209.863281"/>
      <use xlink:href="#DejaVuSans-65" x="273.339844"/>
      <use xlink:href="#DejaVuSans-72" x="334.863281"/>
     </g>
    </g>
    <g id="line2d_25">
     <path d="M 360.481875 271.744375 
L 372.481875 271.744375 
L 384.481875 271.744375 
" style="fill: none; stroke-dasharray: 5.55,2.4; stroke-dashoffset: 0; stroke: #000000; stroke-width: 1.5"/>
    </g>
    <g id="text_20">
     <!-- Target -->
     <g transform="translate(394.081875 275.944375) scale(0.12 -0.12)">
      <defs>
       <path id="DejaVuSans-67" d="M 2906 1791 
Q 2906 2416 2648 2759 
Q 2391 3103 1925 3103 
Q 1463 3103 1205 2759 
Q 947 2416 947 1791 
Q 947 1169 1205 825 
Q 1463 481 1925 481 
Q 2391 481 2648 825 
Q 2906 1169 2906 1791 
z
M 3481 434 
Q 3481 -459 3084 -895 
Q 2688 -1331 1869 -1331 
Q 1566 -1331 1297 -1286 
Q 1028 -1241 775 -1147 
L 775 -588 
Q 1028 -725 1275 -790 
Q 1522 -856 1778 -856 
Q 2344 -856 2625 -561 
Q 2906 -266 2906 331 
L 2906 616 
Q 2728 306 2450 153 
Q 2172 0 1784 0 
Q 1141 0 747 490 
Q 353 981 353 1791 
Q 353 2603 747 3093 
Q 1141 3584 1784 3584 
Q 2172 3584 2450 3431 
Q 2728 3278 2906 2969 
L 2906 3500 
L 3481 3500 
L 3481 434 
z
" transform="scale(0.015625)"/>
      </defs>
      <use xlink:href="#DejaVuSans-54"/>
      <use xlink:href="#DejaVuSans-61" x="44.583984"/>
      <use xlink:href="#DejaVuSans-72" x="105.863281"/>
      <use xlink:href="#DejaVuSans-67" x="145.226562"/>
      <use xlink:href="#DejaVuSans-65" x="208.703125"/>
      <use xlink:href="#DejaVuSans-74" x="270.226562"/>
     </g>
    </g>
   </g>
  </g>
 </g>
 <defs>
  <clipPath id="p8db42d914a">
   <rect x="76.7" y="36.24" width="373.3" height="253"/>
  </clipPath>
 </defs>
</svg>
