<?xml version="1.0" encoding="utf-8" standalone="no"?>
<!DOCTYPE svg PUBLIC "-//W3C//DTD SVG 1.1//EN"
  "http://www.w3.org/Graphics/SVG/1.1/DTD/svg11.dtd">
<svg xmlns:xlink="http://www.w3.org/1999/xlink" width="720pt" height="432pt" viewBox="0 0 720 432" xmlns="http://www.w3.org/2000/svg" version="1.1">
 <metadata>
  <rdf:RDF xmlns:dc="http://purl.org/dc/elements/1.1/" xmlns:cc="http://creativecommons.org/ns#" xmlns:rdf="http://www.w3.org/1999/02/22-rdf-syntax-ns#">
   <cc:Work>
    <dc:type rdf:resource="http://purl.org/dc/dcmitype/StillImage"/>
    <dc:date>2024-10-17T20:59:42.303330</dc:date>
    <dc:format>image/svg+xml</dc:format>
    <dc:creator>
     <cc:Agent>
      <dc:title>Matplotlib v3.7.5, https://matplotlib.org/</dc:title>
     </cc:Agent>
    </dc:creator>
   </cc:Work>
  </rdf:RDF>
 </metadata>
 <defs>
  <style type="text/css">*{stroke-linejoin: round; stroke-linecap: butt}</style>
 </defs>
 <g id="figure_1">
  <g id="patch_1">
   <path d="M 0 432 
L 720 432 
L 720 0 
L 0 0 
z
" style="fill: #ffffff"/>
  </g>
  <g id="axes_1">
   <g id="patch_2">
    <path d="M 54.92 382.84 
L 709.2 382.84 
L 709.2 33.36 
L 54.92 33.36 
z
" style="fill: #ffffff"/>
   </g>
   <g id="matplotlib.axis_1">
    <g id="xtick_1">
     <g id="line2d_1">
      <defs>
       <path id="m4f385fc56c" d="M 0 0 
L 0 3.5 
" style="stroke: #000000; stroke-width: 0.8"/>
      </defs>
      <g>
       <use xlink:href="#m4f385fc56c" x="84.66" y="382.84" style="stroke: #000000; stroke-width: 0.8"/>
      </g>
     </g>
     <g id="text_1">
      <!-- 0 -->
      <g transform="translate(81.47875 397.438438) scale(0.1 -0.1)">
       <defs>
        <path id="DejaVuSans-30" d="M 2034 4250 
Q 1547 4250 1301 3770 
Q 1056 3291 1056 2328 
Q 1056 1369 1301 889 
Q 1547 409 2034 409 
Q 2525 409 2770 889 
Q 3016 1369 3016 2328 
Q 3016 3291 2770 3770 
Q 2525 4250 2034 4250 
z
M 2034 4750 
Q 2819 4750 3233 4129 
Q 3647 3509 3647 2328 
Q 3647 1150 3233 529 
Q 2819 -91 2034 -91 
Q 1250 -91 836 529 
Q 422 1150 422 2328 
Q 422 3509 836 4129 
Q 1250 4750 2034 4750 
z
" transform="scale(0.015625)"/>
       </defs>
       <use xlink:href="#DejaVuSans-30"/>
      </g>
     </g>
    </g>
    <g id="xtick_2">
     <g id="line2d_2">
      <g>
       <use xlink:href="#m4f385fc56c" x="202.64076" y="382.84" style="stroke: #000000; stroke-width: 0.8"/>
      </g>
     </g>
     <g id="text_2">
      <!-- 2000 -->
      <g transform="translate(189.91576 397.438438) scale(0.1 -0.1)">
       <defs>
        <path id="DejaVuSans-32" d="M 1228 531 
L 3431 531 
L 3431 0 
L 469 0 
L 469 531 
Q 828 903 1448 1529 
Q 2069 2156 2228 2338 
Q 2531 2678 2651 2914 
Q 2772 3150 2772 3378 
Q 2772 3750 2511 3984 
Q 2250 4219 1831 4219 
Q 1534 4219 1204 4116 
Q 875 4013 500 3803 
L 500 4441 
Q 881 4594 1212 4672 
Q 1544 4750 1819 4750 
Q 2544 4750 2975 4387 
Q 3406 4025 3406 3419 
Q 3406 3131 3298 2873 
Q 3191 2616 2906 2266 
Q 2828 2175 2409 1742 
Q 1991 1309 1228 531 
z
" transform="scale(0.015625)"/>
       </defs>
       <use xlink:href="#DejaVuSans-32"/>
       <use xlink:href="#DejaVuSans-30" x="63.623047"/>
       <use xlink:href="#DejaVuSans-30" x="127.246094"/>
       <use xlink:href="#DejaVuSans-30" x="190.869141"/>
      </g>
     </g>
    </g>
    <g id="xtick_3">
     <g id="line2d_3">
      <g>
       <use xlink:href="#m4f385fc56c" x="320.621519" y="382.84" style="stroke: #000000; stroke-width: 0.8"/>
      </g>
     </g>
     <g id="text_3">
      <!-- 4000 -->
      <g transform="translate(307.896519 397.438438) scale(0.1 -0.1)">
       <defs>
        <path id="DejaVuSans-34" d="M 2419 4116 
L 825 1625 
L 2419 1625 
L 2419 4116 
z
M 2253 4666 
L 3047 4666 
L 3047 1625 
L 3713 1625 
L 3713 1100 
L 3047 1100 
L 3047 0 
L 2419 0 
L 2419 1100 
L 313 1100 
L 313 1709 
L 2253 4666 
z
" transform="scale(0.015625)"/>
       </defs>
       <use xlink:href="#DejaVuSans-34"/>
       <use xlink:href="#DejaVuSans-30" x="63.623047"/>
       <use xlink:href="#DejaVuSans-30" x="127.246094"/>
       <use xlink:href="#DejaVuSans-30" x="190.869141"/>
      </g>
     </g>
    </g>
    <g id="xtick_4">
     <g id="line2d_4">
      <g>
       <use xlink:href="#m4f385fc56c" x="438.602279" y="382.84" style="stroke: #000000; stroke-width: 0.8"/>
      </g>
     </g>
     <g id="text_4">
      <!-- 6000 -->
      <g transform="translate(425.877279 397.438438) scale(0.1 -0.1)">
       <defs>
        <path id="DejaVuSans-36" d="M 2113 2584 
Q 1688 2584 1439 2293 
Q 1191 2003 1191 1497 
Q 1191 994 1439 701 
Q 1688 409 2113 409 
Q 2538 409 2786 701 
Q 3034 994 3034 1497 
Q 3034 2003 2786 2293 
Q 2538 2584 2113 2584 
z
M 3366 4563 
L 3366 3988 
Q 3128 4100 2886 4159 
Q 2644 4219 2406 4219 
Q 1781 4219 1451 3797 
Q 1122 3375 1075 2522 
Q 1259 2794 1537 2939 
Q 1816 3084 2150 3084 
Q 2853 3084 3261 2657 
Q 3669 2231 3669 1497 
Q 3669 778 3244 343 
Q 2819 -91 2113 -91 
Q 1303 -91 875 529 
Q 447 1150 447 2328 
Q 447 3434 972 4092 
Q 1497 4750 2381 4750 
Q 2619 4750 2861 4703 
Q 3103 4656 3366 4563 
z
" transform="scale(0.015625)"/>
       </defs>
       <use xlink:href="#DejaVuSans-36"/>
       <use xlink:href="#DejaVuSans-30" x="63.623047"/>
       <use xlink:href="#DejaVuSans-30" x="127.246094"/>
       <use xlink:href="#DejaVuSans-30" x="190.869141"/>
      </g>
     </g>
    </g>
    <g id="xtick_5">
     <g id="line2d_5">
      <g>
       <use xlink:href="#m4f385fc56c" x="556.583039" y="382.84" style="stroke: #000000; stroke-width: 0.8"/>
      </g>
     </g>
     <g id="text_5">
      <!-- 8000 -->
      <g transform="translate(543.858039 397.438438) scale(0.1 -0.1)">
       <defs>
        <path id="DejaVuSans-38" d="M 2034 2216 
Q 1584 2216 1326 1975 
Q 1069 1734 1069 1313 
Q 1069 891 1326 650 
Q 1584 409 2034 409 
Q 2484 409 2743 651 
Q 3003 894 3003 1313 
Q 3003 1734 2745 1975 
Q 2488 2216 2034 2216 
z
M 1403 2484 
Q 997 2584 770 2862 
Q 544 3141 544 3541 
Q 544 4100 942 4425 
Q 1341 4750 2034 4750 
Q 2731 4750 3128 4425 
Q 3525 4100 3525 3541 
Q 3525 3141 3298 2862 
Q 3072 2584 2669 2484 
Q 3125 2378 3379 2068 
Q 3634 1759 3634 1313 
Q 3634 634 3220 271 
Q 2806 -91 2034 -91 
Q 1263 -91 848 271 
Q 434 634 434 1313 
Q 434 1759 690 2068 
Q 947 2378 1403 2484 
z
M 1172 3481 
Q 1172 3119 1398 2916 
Q 1625 2713 2034 2713 
Q 2441 2713 2670 2916 
Q 2900 3119 2900 3481 
Q 2900 3844 2670 4047 
Q 2441 4250 2034 4250 
Q 1625 4250 1398 4047 
Q 1172 3844 1172 3481 
z
" transform="scale(0.015625)"/>
       </defs>
       <use xlink:href="#DejaVuSans-38"/>
       <use xlink:href="#DejaVuSans-30" x="63.623047"/>
       <use xlink:href="#DejaVuSans-30" x="127.246094"/>
       <use xlink:href="#DejaVuSans-30" x="190.869141"/>
      </g>
     </g>
    </g>
    <g id="xtick_6">
     <g id="line2d_6">
      <g>
       <use xlink:href="#m4f385fc56c" x="674.563798" y="382.84" style="stroke: #000000; stroke-width: 0.8"/>
      </g>
     </g>
     <g id="text_6">
      <!-- 10000 -->
      <g transform="translate(658.657548 397.438438) scale(0.1 -0.1)">
       <defs>
        <path id="DejaVuSans-31" d="M 794 531 
L 1825 531 
L 1825 4091 
L 703 3866 
L 703 4441 
L 1819 4666 
L 2450 4666 
L 2450 531 
L 3481 531 
L 3481 0 
L 794 0 
L 794 531 
z
" transform="scale(0.015625)"/>
       </defs>
       <use xlink:href="#DejaVuSans-31"/>
       <use xlink:href="#DejaVuSans-30" x="63.623047"/>
       <use xlink:href="#DejaVuSans-30" x="127.246094"/>
       <use xlink:href="#DejaVuSans-30" x="190.869141"/>
       <use xlink:href="#DejaVuSans-30" x="254.492188"/>
      </g>
     </g>
    </g>
    <g id="text_7">
     <!-- Timesteps -->
     <g transform="translate(335.882969 417.195312) scale(0.18 -0.18)">
      <defs>
       <path id="DejaVuSans-54" d="M -19 4666 
L 3928 4666 
L 3928 4134 
L 2272 4134 
L 2272 0 
L 1638 0 
L 1638 4134 
L -19 4134 
L -19 4666 
z
" transform="scale(0.015625)"/>
       <path id="DejaVuSans-69" d="M 603 3500 
L 1178 3500 
L 1178 0 
L 603 0 
L 603 3500 
z
M 603 4863 
L 1178 4863 
L 1178 4134 
L 603 4134 
L 603 4863 
z
" transform="scale(0.015625)"/>
       <path id="DejaVuSans-6d" d="M 3328 2828 
Q 3544 3216 3844 3400 
Q 4144 3584 4550 3584 
Q 5097 3584 5394 3201 
Q 5691 2819 5691 2113 
L 5691 0 
L 5113 0 
L 5113 2094 
Q 5113 2597 4934 2840 
Q 4756 3084 4391 3084 
Q 3944 3084 3684 2787 
Q 3425 2491 3425 1978 
L 3425 0 
L 2847 0 
L 2847 2094 
Q 2847 2600 2669 2842 
Q 2491 3084 2119 3084 
Q 1678 3084 1418 2786 
Q 1159 2488 1159 1978 
L 1159 0 
L 581 0 
L 581 3500 
L 1159 3500 
L 1159 2956 
Q 1356 3278 1631 3431 
Q 1906 3584 2284 3584 
Q 2666 3584 2933 3390 
Q 3200 3197 3328 2828 
z
" transform="scale(0.015625)"/>
       <path id="DejaVuSans-65" d="M 3597 1894 
L 3597 1613 
L 953 1613 
Q 991 1019 1311 708 
Q 1631 397 2203 397 
Q 2534 397 2845 478 
Q 3156 559 3463 722 
L 3463 178 
Q 3153 47 2828 -22 
Q 2503 -91 2169 -91 
Q 1331 -91 842 396 
Q 353 884 353 1716 
Q 353 2575 817 3079 
Q 1281 3584 2069 3584 
Q 2775 3584 3186 3129 
Q 3597 2675 3597 1894 
z
M 3022 2063 
Q 3016 2534 2758 2815 
Q 2500 3097 2075 3097 
Q 1594 3097 1305 2825 
Q 1016 2553 972 2059 
L 3022 2063 
z
" transform="scale(0.015625)"/>
       <path id="DejaVuSans-73" d="M 2834 3397 
L 2834 2853 
Q 2591 2978 2328 3040 
Q 2066 3103 1784 3103 
Q 1356 3103 1142 2972 
Q 928 2841 928 2578 
Q 928 2378 1081 2264 
Q 1234 2150 1697 2047 
L 1894 2003 
Q 2506 1872 2764 1633 
Q 3022 1394 3022 966 
Q 3022 478 2636 193 
Q 2250 -91 1575 -91 
Q 1294 -91 989 -36 
Q 684 19 347 128 
L 347 722 
Q 666 556 975 473 
Q 1284 391 1588 391 
Q 1994 391 2212 530 
Q 2431 669 2431 922 
Q 2431 1156 2273 1281 
Q 2116 1406 1581 1522 
L 1381 1569 
Q 847 1681 609 1914 
Q 372 2147 372 2553 
Q 372 3047 722 3315 
Q 1072 3584 1716 3584 
Q 2034 3584 2315 3537 
Q 2597 3491 2834 3397 
z
" transform="scale(0.015625)"/>
       <path id="DejaVuSans-74" d="M 1172 4494 
L 1172 3500 
L 2356 3500 
L 2356 3053 
L 1172 3053 
L 1172 1153 
Q 1172 725 1289 603 
Q 1406 481 1766 481 
L 2356 481 
L 2356 0 
L 1766 0 
Q 1100 0 847 248 
Q 594 497 594 1153 
L 594 3053 
L 172 3053 
L 172 3500 
L 594 3500 
L 594 4494 
L 1172 4494 
z
" transform="scale(0.015625)"/>
       <path id="DejaVuSans-70" d="M 1159 525 
L 1159 -1331 
L 581 -1331 
L 581 3500 
L 1159 3500 
L 1159 2969 
Q 1341 3281 1617 3432 
Q 1894 3584 2278 3584 
Q 2916 3584 3314 3078 
Q 3713 2572 3713 1747 
Q 3713 922 3314 415 
Q 2916 -91 2278 -91 
Q 1894 -91 1617 61 
Q 1341 213 1159 525 
z
M 3116 1747 
Q 3116 2381 2855 2742 
Q 2594 3103 2138 3103 
Q 1681 3103 1420 2742 
Q 1159 2381 1159 1747 
Q 1159 1113 1420 752 
Q 1681 391 2138 391 
Q 2594 391 2855 752 
Q 3116 1113 3116 1747 
z
" transform="scale(0.015625)"/>
      </defs>
      <use xlink:href="#DejaVuSans-54"/>
      <use xlink:href="#DejaVuSans-69" x="57.958984"/>
      <use xlink:href="#DejaVuSans-6d" x="85.742188"/>
      <use xlink:href="#DejaVuSans-65" x="183.154297"/>
      <use xlink:href="#DejaVuSans-73" x="244.677734"/>
      <use xlink:href="#DejaVuSans-74" x="296.777344"/>
      <use xlink:href="#DejaVuSans-65" x="335.986328"/>
      <use xlink:href="#DejaVuSans-70" x="397.509766"/>
      <use xlink:href="#DejaVuSans-73" x="460.986328"/>
     </g>
    </g>
   </g>
   <g id="matplotlib.axis_2">
    <g id="ytick_1">
     <g id="line2d_7">
      <defs>
       <path id="mfcb5c90038" d="M 0 0 
L -3.5 0 
" style="stroke: #000000; stroke-width: 0.8"/>
      </defs>
      <g>
       <use xlink:href="#mfcb5c90038" x="54.92" y="366.954545" style="stroke: #000000; stroke-width: 0.8"/>
      </g>
     </g>
     <g id="text_8">
      <!-- 0.0 -->
      <g transform="translate(32.016875 370.753764) scale(0.1 -0.1)">
       <defs>
        <path id="DejaVuSans-2e" d="M 684 794 
L 1344 794 
L 1344 0 
L 684 0 
L 684 794 
z
" transform="scale(0.015625)"/>
       </defs>
       <use xlink:href="#DejaVuSans-30"/>
       <use xlink:href="#DejaVuSans-2e" x="63.623047"/>
       <use xlink:href="#DejaVuSans-30" x="95.410156"/>
      </g>
     </g>
    </g>
    <g id="ytick_2">
     <g id="line2d_8">
      <g>
       <use xlink:href="#mfcb5c90038" x="54.92" y="313.849965" style="stroke: #000000; stroke-width: 0.8"/>
      </g>
     </g>
     <g id="text_9">
      <!-- 0.5 -->
      <g transform="translate(32.016875 317.649184) scale(0.1 -0.1)">
       <defs>
        <path id="DejaVuSans-35" d="M 691 4666 
L 3169 4666 
L 3169 4134 
L 1269 4134 
L 1269 2991 
Q 1406 3038 1543 3061 
Q 1681 3084 1819 3084 
Q 2600 3084 3056 2656 
Q 3513 2228 3513 1497 
Q 3513 744 3044 326 
Q 2575 -91 1722 -91 
Q 1428 -91 1123 -41 
Q 819 9 494 109 
L 494 744 
Q 775 591 1075 516 
Q 1375 441 1709 441 
Q 2250 441 2565 725 
Q 2881 1009 2881 1497 
Q 2881 1984 2565 2268 
Q 2250 2553 1709 2553 
Q 1456 2553 1204 2497 
Q 953 2441 691 2322 
L 691 4666 
z
" transform="scale(0.015625)"/>
       </defs>
       <use xlink:href="#DejaVuSans-30"/>
       <use xlink:href="#DejaVuSans-2e" x="63.623047"/>
       <use xlink:href="#DejaVuSans-35" x="95.410156"/>
      </g>
     </g>
    </g>
    <g id="ytick_3">
     <g id="line2d_9">
      <g>
       <use xlink:href="#mfcb5c90038" x="54.92" y="260.745385" style="stroke: #000000; stroke-width: 0.8"/>
      </g>
     </g>
     <g id="text_10">
      <!-- 1.0 -->
      <g transform="translate(32.016875 264.544604) scale(0.1 -0.1)">
       <use xlink:href="#DejaVuSans-31"/>
       <use xlink:href="#DejaVuSans-2e" x="63.623047"/>
       <use xlink:href="#DejaVuSans-30" x="95.410156"/>
      </g>
     </g>
    </g>
    <g id="ytick_4">
     <g id="line2d_10">
      <g>
       <use xlink:href="#mfcb5c90038" x="54.92" y="207.640805" style="stroke: #000000; stroke-width: 0.8"/>
      </g>
     </g>
     <g id="text_11">
      <!-- 1.5 -->
      <g transform="translate(32.016875 211.440023) scale(0.1 -0.1)">
       <use xlink:href="#DejaVuSans-31"/>
       <use xlink:href="#DejaVuSans-2e" x="63.623047"/>
       <use xlink:href="#DejaVuSans-35" x="95.410156"/>
      </g>
     </g>
    </g>
    <g id="ytick_5">
     <g id="line2d_11">
      <g>
       <use xlink:href="#mfcb5c90038" x="54.92" y="154.536224" style="stroke: #000000; stroke-width: 0.8"/>
      </g>
     </g>
     <g id="text_12">
      <!-- 2.0 -->
      <g transform="translate(32.016875 158.335443) scale(0.1 -0.1)">
       <use xlink:href="#DejaVuSans-32"/>
       <use xlink:href="#DejaVuSans-2e" x="63.623047"/>
       <use xlink:href="#DejaVuSans-30" x="95.410156"/>
      </g>
     </g>
    </g>
    <g id="ytick_6">
     <g id="line2d_12">
      <g>
       <use xlink:href="#mfcb5c90038" x="54.92" y="101.431644" style="stroke: #000000; stroke-width: 0.8"/>
      </g>
     </g>
     <g id="text_13">
      <!-- 2.5 -->
      <g transform="translate(32.016875 105.230863) scale(0.1 -0.1)">
       <use xlink:href="#DejaVuSans-32"/>
       <use xlink:href="#DejaVuSans-2e" x="63.623047"/>
       <use xlink:href="#DejaVuSans-35" x="95.410156"/>
      </g>
     </g>
    </g>
    <g id="ytick_7">
     <g id="line2d_13">
      <g>
       <use xlink:href="#mfcb5c90038" x="54.92" y="48.327064" style="stroke: #000000; stroke-width: 0.8"/>
      </g>
     </g>
     <g id="text_14">
      <!-- 3.0 -->
      <g transform="translate(32.016875 52.126283) scale(0.1 -0.1)">
       <defs>
        <path id="DejaVuSans-33" d="M 2597 2516 
Q 3050 2419 3304 2112 
Q 3559 1806 3559 1356 
Q 3559 666 3084 287 
Q 2609 -91 1734 -91 
Q 1441 -91 1130 -33 
Q 819 25 488 141 
L 488 750 
Q 750 597 1062 519 
Q 1375 441 1716 441 
Q 2309 441 2620 675 
Q 2931 909 2931 1356 
Q 2931 1769 2642 2001 
Q 2353 2234 1838 2234 
L 1294 2234 
L 1294 2753 
L 1863 2753 
Q 2328 2753 2575 2939 
Q 2822 3125 2822 3475 
Q 2822 3834 2567 4026 
Q 2313 4219 1838 4219 
Q 1578 4219 1281 4162 
Q 984 4106 628 3988 
L 628 4550 
Q 988 4650 1302 4700 
Q 1616 4750 1894 4750 
Q 2613 4750 3031 4423 
Q 3450 4097 3450 3541 
Q 3450 3153 3228 2886 
Q 3006 2619 2597 2516 
z
" transform="scale(0.015625)"/>
       </defs>
       <use xlink:href="#DejaVuSans-33"/>
       <use xlink:href="#DejaVuSans-2e" x="63.623047"/>
       <use xlink:href="#DejaVuSans-30" x="95.410156"/>
      </g>
     </g>
    </g>
    <g id="text_15">
     <!-- rad -->
     <g transform="translate(24.273438 223.02875) rotate(-90) scale(0.18 -0.18)">
      <defs>
       <path id="DejaVuSans-72" d="M 2631 2963 
Q 2534 3019 2420 3045 
Q 2306 3072 2169 3072 
Q 1681 3072 1420 2755 
Q 1159 2438 1159 1844 
L 1159 0 
L 581 0 
L 581 3500 
L 1159 3500 
L 1159 2956 
Q 1341 3275 1631 3429 
Q 1922 3584 2338 3584 
Q 2397 3584 2469 3576 
Q 2541 3569 2628 3553 
L 2631 2963 
z
" transform="scale(0.015625)"/>
       <path id="DejaVuSans-61" d="M 2194 1759 
Q 1497 1759 1228 1600 
Q 959 1441 959 1056 
Q 959 750 1161 570 
Q 1363 391 1709 391 
Q 2188 391 2477 730 
Q 2766 1069 2766 1631 
L 2766 1759 
L 2194 1759 
z
M 3341 1997 
L 3341 0 
L 2766 0 
L 2766 531 
Q 2569 213 2275 61 
Q 1981 -91 1556 -91 
Q 1019 -91 701 211 
Q 384 513 384 1019 
Q 384 1609 779 1909 
Q 1175 2209 1959 2209 
L 2766 2209 
L 2766 2266 
Q 2766 2663 2505 2880 
Q 2244 3097 1772 3097 
Q 1472 3097 1187 3025 
Q 903 2953 641 2809 
L 641 3341 
Q 956 3463 1253 3523 
Q 1550 3584 1831 3584 
Q 2591 3584 2966 3190 
Q 3341 2797 3341 1997 
z
" transform="scale(0.015625)"/>
       <path id="DejaVuSans-64" d="M 2906 2969 
L 2906 4863 
L 3481 4863 
L 3481 0 
L 2906 0 
L 2906 525 
Q 2725 213 2448 61 
Q 2172 -91 1784 -91 
Q 1150 -91 751 415 
Q 353 922 353 1747 
Q 353 2572 751 3078 
Q 1150 3584 1784 3584 
Q 2172 3584 2448 3432 
Q 2725 3281 2906 2969 
z
M 947 1747 
Q 947 1113 1208 752 
Q 1469 391 1925 391 
Q 2381 391 2643 752 
Q 2906 1113 2906 1747 
Q 2906 2381 2643 2742 
Q 2381 3103 1925 3103 
Q 1469 3103 1208 2742 
Q 947 2381 947 1747 
z
" transform="scale(0.015625)"/>
      </defs>
      <use xlink:href="#DejaVuSans-72"/>
      <use xlink:href="#DejaVuSans-61" x="41.113281"/>
      <use xlink:href="#DejaVuSans-64" x="102.392578"/>
     </g>
    </g>
   </g>
   <g id="line2d_14">
    <path d="M 84.66 90.743011 
L 86.19375 90.21867 
L 87.845481 89.535604 
L 88.140432 89.4376 
L 88.435384 89.268747 
L 88.730336 89.177 
L 89.37923 88.939202 
L 89.615192 88.834861 
L 90.146105 88.616065 
L 93.803509 87.130881 
L 94.157451 86.991275 
L 95.868172 86.337461 
L 96.281105 86.132132 
L 96.871009 85.940245 
L 97.283941 85.751054 
L 97.460912 85.696855 
L 97.755864 85.596554 
L 98.286778 85.388544 
L 98.876682 85.16351 
L 115.511969 79.079183 
L 116.042882 78.905197 
L 116.455815 78.754794 
L 117.104709 78.530056 
L 125.363362 75.970494 
L 139.992976 71.907705 
L 140.346919 71.821486 
L 141.585717 71.536936 
L 142.293601 71.380772 
L 144.830187 70.768871 
L 145.479082 70.626873 
L 146.127976 70.481302 
L 146.894851 70.314818 
L 149.077495 69.849536 
L 149.84437 69.673004 
L 150.198312 69.622901 
L 150.788216 69.501087 
L 152.321966 69.211637 
L 152.97086 69.07099 
L 153.737735 68.897861 
L 154.032687 68.841373 
L 156.15634 68.473934 
L 156.628263 68.363637 
L 157.572109 68.206755 
L 158.044033 68.100221 
L 158.692927 68.005597 
L 160.75759 67.616095 
L 160.993552 67.580841 
L 162.999224 67.260973 
L 163.707109 67.112291 
L 167.069561 66.552455 
L 167.600474 66.469259 
L 167.954416 66.415284 
L 168.603311 66.306806 
L 169.665137 66.139234 
L 172.260714 65.664049 
L 172.496676 65.651442 
L 172.732637 65.584292 
L 173.027589 65.568351 
L 173.381531 65.456049 
L 173.558502 65.46464 
L 174.502349 65.267949 
L 175.092252 65.174102 
L 175.859127 65.0454 
L 176.27206 65.003898 
L 176.684993 64.929955 
L 177.274896 64.820392 
L 177.746819 64.745462 
L 177.982781 64.729919 
L 178.336723 64.648395 
L 178.572685 64.616993 
L 179.870473 64.38917 
L 180.165425 64.34759 
L 182.171098 63.998665 
L 183.232925 63.806377 
L 183.527877 63.768702 
L 186.831338 63.081146 
L 187.12629 63.012783 
L 187.362251 62.95971 
L 187.539222 62.917613 
L 189.072972 62.552026 
L 189.898838 62.345102 
L 190.370761 62.216076 
L 191.078645 62.005124 
L 191.373597 61.937482 
L 192.140472 61.745472 
L 194.382107 61.092665 
L 194.97201 60.872099 
L 198.334462 59.81339 
L 198.629414 59.721417 
L 199.278308 59.483024 
L 200.399125 59.10443 
L 201.10701 58.846298 
L 201.578933 58.677186 
L 201.873885 58.596121 
L 202.404798 58.397996 
L 202.994702 58.175021 
L 203.643596 57.93505 
L 203.997538 57.806971 
L 208.83475 56.028266 
L 209.129701 55.897542 
L 210.191528 55.54004 
L 210.781432 55.345984 
L 211.194365 55.187524 
L 211.725278 55.0285 
L 214.497826 54.109918 
L 214.674797 54.069049 
L 223.464364 51.77821 
L 224.349219 51.620707 
L 224.644171 51.536291 
L 225.764989 51.292678 
L 226.590854 51.131801 
L 233.374748 49.860202 
L 233.669699 49.837939 
L 234.141623 49.772959 
L 236.619218 49.486374 
L 237.209122 49.436688 
L 239.450757 49.289144 
L 239.804699 49.285775 
L 240.099651 49.265596 
L 240.394603 49.268003 
L 241.102487 49.245455 
L 242.577247 49.322284 
L 242.872199 49.298287 
L 243.462103 49.315702 
L 244.052006 49.308902 
L 244.464939 49.361626 
L 244.936862 49.387709 
L 245.113833 49.447362 
L 246.11667 49.535842 
L 250.010035 49.960859 
L 250.8359 50.099141 
L 251.307823 50.179984 
L 252.251669 50.338617 
L 252.723592 50.396626 
L 253.136525 50.467761 
L 254.847246 50.917415 
L 254.906236 50.797733 
L 254.965227 50.842756 
L 255.378159 50.940757 
L 256.086044 51.080717 
L 256.616957 51.204979 
L 257.501813 51.407037 
L 258.150707 51.54793 
L 258.858592 51.695711 
L 259.684457 51.881207 
L 259.979409 51.96491 
L 269.594841 54.751108 
L 269.889793 54.846478 
L 270.538687 55.061237 
L 272.249408 55.695403 
L 272.54436 55.809978 
L 273.016283 56.016721 
L 273.783158 56.321321 
L 274.07811 56.458557 
L 274.550033 56.648779 
L 275.198927 56.978101 
L 275.493879 57.104681 
L 276.142773 57.360892 
L 276.437725 57.516449 
L 276.791667 57.65447 
L 278.443398 58.360606 
L 278.79734 58.505067 
L 279.446234 58.824026 
L 280.2721 59.183692 
L 280.567051 59.343421 
L 281.451907 59.74492 
L 281.746859 59.855642 
L 282.336763 60.142129 
L 283.162628 60.538493 
L 283.693542 60.834823 
L 284.637388 61.26383 
L 285.109311 61.496044 
L 285.345272 61.625688 
L 286.053157 61.942833 
L 286.348109 62.099289 
L 286.761041 62.302452 
L 287.350945 62.587055 
L 287.645897 62.744815 
L 288.11782 62.968207 
L 288.294791 63.057772 
L 288.589743 63.225508 
L 288.884695 63.383827 
L 289.356618 63.643005 
L 289.65157 63.773982 
L 290.064503 64.002981 
L 291.008349 64.461118 
L 291.598253 64.79284 
L 293.662916 65.877311 
L 293.898877 66.01765 
L 294.488781 66.342933 
L 295.550608 66.912695 
L 296.022531 67.153796 
L 296.553444 67.486013 
L 298.028204 68.238186 
L 298.264165 68.391192 
L 299.325992 69.009405 
L 299.620944 69.161778 
L 300.210848 69.499983 
L 300.682771 69.739541 
L 302.747434 70.873488 
L 303.278348 71.145255 
L 303.514309 71.291688 
L 304.576136 71.906577 
L 304.930078 72.069497 
L 305.991905 72.690092 
L 306.404838 72.922595 
L 306.75878 73.115814 
L 306.935751 73.199363 
L 307.230703 73.395893 
L 307.820607 73.686428 
L 308.23354 73.956209 
L 308.646472 74.161564 
L 309.118395 74.443697 
L 309.472338 74.638487 
L 310.416184 75.175193 
L 310.829116 75.42763 
L 311.124068 75.588348 
L 311.713972 75.943881 
L 311.890943 76.022603 
L 312.126905 76.172024 
L 314.781472 77.679411 
L 315.017433 77.830625 
L 315.489356 78.137497 
L 318.143923 79.642736 
L 318.438875 79.853109 
L 318.851808 80.099517 
L 319.323731 80.343122 
L 319.618683 80.533815 
L 320.916471 81.312723 
L 321.211423 81.464691 
L 321.447385 81.615304 
L 322.33224 82.11794 
L 322.627192 82.320991 
L 322.804163 82.416833 
L 324.573875 83.454663 
L 324.868827 83.652068 
L 325.045798 83.684624 
L 325.34075 83.885499 
L 325.871663 84.265402 
L 326.343586 84.436607 
L 326.520557 84.586038 
L 326.756519 84.730293 
L 326.99248 84.84605 
L 327.346423 85.112634 
L 327.700365 85.27567 
L 327.936326 85.46661 
L 330.531903 86.905542 
L 330.590894 87.121725 
L 330.649884 87.040002 
L 331.298778 87.374257 
L 331.53474 87.577569 
L 331.770701 87.685931 
L 332.183634 87.926221 
L 333.363441 88.704273 
L 333.658393 88.864946 
L 334.012336 89.094667 
L 334.543249 89.394038 
L 334.838201 89.603157 
L 335.192143 89.783636 
L 335.605076 90.07931 
L 336.018009 90.311619 
L 336.31296 90.462552 
L 336.489932 90.624 
L 336.725893 90.769671 
L 337.079835 90.994024 
L 337.315797 91.081832 
L 337.669739 91.33386 
L 338.436614 91.767882 
L 338.613585 91.912472 
L 339.203489 92.285268 
L 339.911374 92.684516 
L 340.324306 92.932892 
L 342.742912 94.398921 
L 343.273825 94.771743 
L 343.509787 94.904192 
L 344.984546 95.79967 
L 345.397479 96.081985 
L 345.63344 96.202849 
L 345.928392 96.412494 
L 346.105363 96.455989 
L 346.341325 96.595185 
L 346.636277 96.797811 
L 346.931229 96.998595 
L 347.344161 97.252828 
L 348.523969 97.922676 
L 348.936902 98.20616 
L 349.290844 98.392831 
L 349.467815 98.574183 
L 349.585796 98.603194 
L 349.880748 98.752754 
L 350.057719 98.863063 
L 350.352671 99.074434 
L 350.529642 99.153773 
L 350.824594 99.362359 
L 351.296517 99.632629 
L 351.532478 99.82436 
L 352.122382 100.17727 
L 352.299353 100.269086 
L 352.594305 100.489026 
L 352.712286 100.521739 
L 353.066228 100.70289 
L 354.658969 101.715138 
L 355.779786 102.380012 
L 356.192718 102.698167 
L 356.664641 102.939519 
L 356.841613 103.041384 
L 357.254545 103.280448 
L 357.726468 103.597682 
L 357.96243 103.745514 
L 358.257382 103.93596 
L 358.552334 104.154216 
L 359.142237 104.490943 
L 359.437189 104.671912 
L 359.732141 104.829542 
L 360.145074 105.060967 
L 361.678824 106.06133 
L 362.209737 106.372054 
L 362.504689 106.555127 
L 363.684497 107.295892 
L 363.979449 107.44871 
L 364.2744 107.658732 
L 364.569352 107.833765 
L 365.74916 108.631692 
L 366.103102 108.799195 
L 366.516035 109.035209 
L 366.751996 109.212608 
L 366.987958 109.381026 
L 367.459881 109.636218 
L 367.990794 109.994811 
L 368.403727 110.236389 
L 368.639689 110.360018 
L 368.87565 110.513463 
L 369.524544 110.889254 
L 370.46839 111.503821 
L 370.940313 111.741262 
L 371.235265 111.94073 
L 371.648198 112.195869 
L 372.710025 112.872459 
L 372.886996 112.965306 
L 373.181948 113.111206 
L 373.417909 113.303498 
L 374.243775 113.818108 
L 374.420746 113.901207 
L 374.597717 114.068456 
L 374.892669 114.244019 
L 375.12863 114.375989 
L 375.423582 114.537054 
L 376.131467 114.988973 
L 376.367428 115.115206 
L 376.66238 115.350185 
L 377.016323 115.571775 
L 377.311274 115.73307 
L 377.606226 115.908704 
L 377.901178 116.061134 
L 378.25512 116.304025 
L 378.786034 116.553649 
L 378.963005 116.755365 
L 379.316947 116.879541 
L 379.493918 117.017037 
L 379.67089 117.096653 
L 379.847861 117.323563 
L 379.906851 117.249728 
L 379.965842 117.316756 
L 380.260793 117.512978 
L 380.319784 117.48284 
L 380.496755 117.686497 
L 380.909688 117.91542 
L 381.381611 118.258682 
L 381.676563 118.427829 
L 381.971514 118.589199 
L 382.148486 118.649244 
L 382.738389 119.031047 
L 383.033341 119.209094 
L 383.328293 119.430704 
L 383.918197 119.738984 
L 384.213149 119.925903 
L 384.685072 120.161365 
L 385.156995 120.487576 
L 385.746899 120.845558 
L 386.100841 121.071825 
L 386.336803 121.306509 
L 386.572764 121.454609 
L 387.162668 121.735844 
L 387.45762 121.941622 
L 387.870552 122.177585 
L 388.696418 122.683768 
L 388.99137 122.871219 
L 389.935216 123.43484 
L 390.171177 123.555388 
L 390.702091 123.916977 
L 391.291994 124.267892 
L 391.940889 124.673162 
L 392.412812 124.917124 
L 392.707764 125.134173 
L 393.179687 125.393525 
L 393.7106 125.78995 
L 394.005552 125.945048 
L 394.359494 126.138734 
L 394.772427 126.31059 
L 395.126369 126.521832 
L 395.539302 126.752951 
L 396.83709 127.703571 
L 397.191032 127.907548 
L 399.137715 129.074022 
L 399.432667 129.240125 
L 399.90459 129.59731 
L 400.376513 129.846673 
L 400.907426 130.158639 
L 401.202378 130.38311 
L 404.151897 132.162785 
L 404.56483 132.409292 
L 404.800791 132.567415 
L 405.567666 133.018784 
L 405.803628 133.187011 
L 426.33228 145.590089 
L 426.568242 145.740221 
L 427.158145 146.108397 
L 427.571078 146.327854 
L 428.043001 146.607264 
L 428.396943 146.831183 
L 429.694732 147.620062 
L 430.166655 147.914793 
L 430.579587 148.1279 
L 431.05151 148.424048 
L 431.877376 148.901517 
L 432.939203 149.577785 
L 433.116174 149.647442 
L 433.352135 149.797709 
L 435.298818 150.981198 
L 435.65276 151.158183 
L 435.888722 151.284945 
L 436.596606 151.726181 
L 437.009539 151.982431 
L 437.835404 152.496034 
L 438.248337 152.751398 
L 440.784923 154.241465 
L 441.079875 154.451583 
L 441.256846 154.522543 
L 441.78776 154.847746 
L 446.094057 157.419558 
L 446.860932 157.852573 
L 447.155884 158.053672 
L 447.509826 158.237443 
L 448.04074 158.582171 
L 448.394682 158.771987 
L 448.807615 159.053097 
L 449.043576 159.189591 
L 449.751461 159.599634 
L 450.341365 159.940706 
L 450.636317 160.114129 
L 450.990259 160.315143 
L 451.285211 160.492064 
L 451.521172 160.648796 
L 451.934105 160.863459 
L 452.170066 160.999158 
L 452.877951 161.427832 
L 453.467855 161.751161 
L 453.762807 161.970154 
L 454.057759 162.134064 
L 454.470691 162.389759 
L 454.647662 162.496575 
L 455.82747 163.180911 
L 456.181412 163.38448 
L 456.830306 163.784085 
L 457.184249 163.969523 
L 457.833143 164.408506 
L 458.95396 165.048326 
L 459.425883 165.34503 
L 459.897806 165.610645 
L 460.192758 165.773568 
L 460.605691 166.038625 
L 461.077614 166.27877 
L 461.608527 166.60691 
L 461.96247 166.760849 
L 462.257421 166.968462 
L 462.670354 167.204047 
L 463.496219 167.6872 
L 464.440065 168.17657 
L 464.794008 168.379503 
L 465.08896 168.535114 
L 465.678863 168.926133 
L 465.973815 169.040328 
L 466.62271 169.442267 
L 466.917661 169.591417 
L 467.389584 169.886741 
L 467.684536 170.04044 
L 468.156459 170.322595 
L 468.451411 170.489476 
L 468.687373 170.63042 
L 470.044152 171.430022 
L 470.221123 171.589736 
L 470.398094 171.685478 
L 470.457084 171.811073 
L 470.516075 171.750754 
L 470.811026 171.914592 
L 470.987998 172.114811 
L 471.28295 172.263266 
L 471.754873 172.558822 
L 472.403767 172.936356 
L 472.93468 173.24544 
L 473.701555 173.706379 
L 474.173478 173.956287 
L 474.46843 174.170227 
L 475.058334 174.488575 
L 475.353286 174.688484 
L 475.94319 174.935036 
L 476.356122 175.229417 
L 476.474103 175.310359 
L 476.710064 175.508257 
L 477.181988 175.776691 
L 478.184824 176.350805 
L 478.302805 176.359791 
L 478.479776 176.483924 
L 478.597757 176.612674 
L 479.06968 176.863104 
L 479.364632 177.088726 
L 479.718574 177.30012 
L 480.544439 177.767292 
L 480.957372 178.044686 
L 481.311314 178.218307 
L 481.606266 178.4066 
L 481.901218 178.570563 
L 482.19617 178.749457 
L 490.04189 183.342494 
L 490.336842 183.535847 
L 490.749775 183.785213 
L 490.985736 183.939888 
L 491.870592 184.441717 
L 492.224534 184.600235 
L 492.519486 184.799565 
L 492.932419 185.020477 
L 493.286361 185.239772 
L 493.699294 185.467285 
L 495.881938 186.899568 
L 496.17689 187.107298 
L 496.707803 187.39944 
L 497.002755 187.612434 
L 497.356697 187.800881 
L 498.005592 188.197408 
L 498.831457 188.661143 
L 499.36237 189.017429 
L 499.598332 189.120628 
L 499.893284 189.328768 
L 500.247226 189.52069 
L 500.719149 189.77493 
L 501.132082 190.048086 
L 501.309053 190.13484 
L 501.780976 190.420157 
L 502.311889 190.726411 
L 503.019774 191.171169 
L 503.96362 191.718314 
L 504.317562 191.927729 
L 504.612514 192.097582 
L 505.438379 192.6047 
L 505.969293 192.901705 
L 506.382226 193.170434 
L 506.736168 193.346544 
L 507.385062 193.773179 
L 507.621024 193.864028 
L 507.856985 194.012415 
L 508.859821 194.618889 
L 509.272754 194.897664 
L 509.744677 195.155104 
L 510.452562 195.580039 
L 510.629533 195.672098 
L 510.983475 195.878318 
L 511.927321 196.436802 
L 512.399244 196.676148 
L 512.635206 196.833226 
L 513.461071 197.3814 
L 513.874004 197.585942 
L 514.404917 197.935228 
L 514.758859 198.126491 
L 515.230783 198.457969 
L 528.444628 206.325733 
L 528.680589 206.47395 
L 529.093522 206.700818 
L 529.447464 206.917613 
L 529.919387 207.212018 
L 530.450301 207.51064 
L 530.804243 207.746117 
L 531.099195 207.934282 
L 532.573954 208.896109 
L 532.750925 209.003343 
L 533.045877 209.174145 
L 533.871743 209.649941 
L 534.225685 209.8675 
L 534.815589 210.213502 
L 535.228521 210.462155 
L 535.582464 210.672286 
L 535.877415 210.841775 
L 536.231358 211.038977 
L 536.52631 211.194403 
L 536.939242 211.455588 
L 537.411165 211.715199 
L 538.590973 212.3878 
L 538.885925 212.547882 
L 539.357848 212.841258 
L 540.419675 213.460915 
L 540.714627 213.660387 
L 541.009578 213.813094 
L 541.30453 214.021453 
L 541.776453 214.268122 
L 542.484338 214.698107 
L 542.77929 214.862465 
L 543.192223 215.131612 
L 543.605155 215.349755 
L 544.077078 215.656536 
L 544.607992 215.981191 
L 544.843953 216.128882 
L 545.138905 216.283344 
L 545.551838 216.567996 
L 545.84679 216.720291 
L 546.259722 216.960706 
L 546.613665 217.179369 
L 546.908616 217.343299 
L 547.203568 217.554202 
L 547.49852 217.718245 
L 548.088424 218.07591 
L 548.678328 218.402648 
L 549.091261 218.72696 
L 549.386212 218.862537 
L 549.976116 219.271577 
L 550.153087 219.328716 
L 550.50703 219.553236 
L 551.037943 219.851281 
L 551.509866 220.141406 
L 551.922799 220.373935 
L 552.217751 220.585432 
L 552.748664 220.892797 
L 553.63352 221.44435 
L 554.046452 221.688071 
L 554.400395 221.917978 
L 554.990299 222.265213 
L 555.403231 222.492195 
L 555.875154 222.835176 
L 556.642029 223.24814 
L 557.113952 223.543917 
L 558.29376 224.240174 
L 558.706692 224.499939 
L 559.119625 224.754208 
L 559.82751 225.184635 
L 560.181452 225.369327 
L 560.712365 225.738394 
L 560.889337 225.823316 
L 561.243279 226.052369 
L 561.597221 226.247363 
L 562.541067 226.795838 
L 562.954 227.085264 
L 563.425923 227.330931 
L 563.720875 227.540484 
L 564.310779 227.884702 
L 564.60573 228.096626 
L 565.195634 228.421794 
L 565.549577 228.66309 
L 566.0215 228.942298 
L 566.316451 229.100093 
L 566.847365 229.448429 
L 567.083326 229.528196 
L 567.319288 229.730417 
L 569.501932 231.021374 
L 570.209817 231.451174 
L 570.68174 231.723187 
L 571.625586 232.304551 
L 581.241018 238.093053 
L 581.535969 238.301668 
L 586.491161 241.277584 
L 586.963084 241.544621 
L 587.729959 242.031422 
L 588.968757 242.784312 
L 589.145728 242.873559 
L 589.676642 243.228208 
L 589.912603 243.371476 
L 590.502507 243.684527 
L 590.738469 243.829931 
L 593.039094 245.26223 
L 593.275055 245.377287 
L 603.539381 251.533076 
L 603.716352 251.668451 
L 603.893323 251.78485 
L 604.247266 252.010562 
L 604.542218 252.16378 
L 604.89616 252.360164 
L 605.132121 252.468754 
L 605.486064 252.712136 
L 605.722025 252.87868 
L 606.311929 253.220534 
L 606.724862 253.430609 
L 607.137794 253.696068 
L 607.727698 254.07264 
L 608.258612 254.378218 
L 608.848515 254.76414 
L 610.028323 255.436078 
L 610.382265 255.634395 
L 611.031159 256.064243 
L 611.621063 256.426144 
L 612.151977 256.735083 
L 612.387938 256.905797 
L 612.68289 257.056273 
L 613.272794 257.406878 
L 613.449765 257.503895 
L 613.862698 257.762824 
L 614.334621 258.032599 
L 616.517265 259.390913 
L 617.107169 259.695819 
L 617.40212 259.961813 
L 617.992024 260.256582 
L 618.286976 260.452095 
L 618.699909 260.672655 
L 619.053851 260.916676 
L 619.702745 261.257556 
L 619.938707 261.413171 
L 620.233659 261.578655 
L 621.118514 262.137629 
L 621.354476 262.274006 
L 623.301158 263.467116 
L 623.714091 263.673194 
L 624.127024 263.94248 
L 624.539956 264.177039 
L 625.188851 264.554681 
L 625.483802 264.787225 
L 625.955725 265.040874 
L 626.66361 265.485007 
L 627.076543 265.716883 
L 627.784427 266.125333 
L 628.964235 266.810719 
L 629.613129 267.270899 
L 630.321014 267.666321 
L 630.792937 267.962827 
L 631.087889 268.079889 
L 631.32385 268.250337 
L 631.677792 268.480581 
L 632.031735 268.666369 
L 632.680629 269.088217 
L 632.79861 269.153855 
L 634.096398 269.913565 
L 634.804282 270.356601 
L 635.217215 270.605119 
L 635.748129 270.931807 
L 636.573994 271.38613 
L 637.045917 271.684322 
L 637.222888 271.766836 
L 637.753801 272.103735 
L 637.930773 272.220062 
L 638.166734 272.343737 
L 638.461686 272.499156 
L 638.874619 272.783923 
L 639.11058 272.91155 
L 639.877455 273.363337 
L 640.231397 273.544174 
L 640.64433 273.811927 
L 640.880292 273.974911 
L 642.414041 274.873207 
L 642.708993 275.015478 
L 643.416878 275.527257 
L 643.77082 275.731225 
L 679.46 297.216652 
L 679.46 297.216652 
" clip-path="url(#p05a4a0b465)" style="fill: none; stroke: #0000ff; stroke-width: 1.5; stroke-linecap: square"/>
   </g>
   <g id="line2d_15">
    <path d="M 54.92 366.954545 
L 709.2 366.954545 
" clip-path="url(#p05a4a0b465)" style="fill: none; stroke-dasharray: 0.37,0.16; stroke-dashoffset: 0; stroke: #000000; stroke-width: 0.1"/>
   </g>
   <g id="patch_3">
    <path d="M 54.92 382.84 
L 54.92 33.36 
" style="fill: none; stroke: #000000; stroke-width: 0.8; stroke-linejoin: miter; stroke-linecap: square"/>
   </g>
   <g id="patch_4">
    <path d="M 709.2 382.84 
L 709.2 33.36 
" style="fill: none; stroke: #000000; stroke-width: 0.8; stroke-linejoin: miter; stroke-linecap: square"/>
   </g>
   <g id="patch_5">
    <path d="M 54.92 382.84 
L 709.2 382.84 
" style="fill: none; stroke: #000000; stroke-width: 0.8; stroke-linejoin: miter; stroke-linecap: square"/>
   </g>
   <g id="patch_6">
    <path d="M 54.92 33.36 
L 709.2 33.36 
" style="fill: none; stroke: #000000; stroke-width: 0.8; stroke-linejoin: miter; stroke-linecap: square"/>
   </g>
   <g id="text_16">
    <!-- Quaternion Differences -->
    <g transform="translate(254.453125 27.36) scale(0.22 -0.22)">
     <defs>
      <path id="DejaVuSans-51" d="M 2522 4238 
Q 1834 4238 1429 3725 
Q 1025 3213 1025 2328 
Q 1025 1447 1429 934 
Q 1834 422 2522 422 
Q 3209 422 3611 934 
Q 4013 1447 4013 2328 
Q 4013 3213 3611 3725 
Q 3209 4238 2522 4238 
z
M 3406 84 
L 4238 -825 
L 3475 -825 
L 2784 -78 
Q 2681 -84 2626 -87 
Q 2572 -91 2522 -91 
Q 1538 -91 948 567 
Q 359 1225 359 2328 
Q 359 3434 948 4092 
Q 1538 4750 2522 4750 
Q 3503 4750 4090 4092 
Q 4678 3434 4678 2328 
Q 4678 1516 4351 937 
Q 4025 359 3406 84 
z
" transform="scale(0.015625)"/>
      <path id="DejaVuSans-75" d="M 544 1381 
L 544 3500 
L 1119 3500 
L 1119 1403 
Q 1119 906 1312 657 
Q 1506 409 1894 409 
Q 2359 409 2629 706 
Q 2900 1003 2900 1516 
L 2900 3500 
L 3475 3500 
L 3475 0 
L 2900 0 
L 2900 538 
Q 2691 219 2414 64 
Q 2138 -91 1772 -91 
Q 1169 -91 856 284 
Q 544 659 544 1381 
z
M 1991 3584 
L 1991 3584 
z
" transform="scale(0.015625)"/>
      <path id="DejaVuSans-6e" d="M 3513 2113 
L 3513 0 
L 2938 0 
L 2938 2094 
Q 2938 2591 2744 2837 
Q 2550 3084 2163 3084 
Q 1697 3084 1428 2787 
Q 1159 2491 1159 1978 
L 1159 0 
L 581 0 
L 581 3500 
L 1159 3500 
L 1159 2956 
Q 1366 3272 1645 3428 
Q 1925 3584 2291 3584 
Q 2894 3584 3203 3211 
Q 3513 2838 3513 2113 
z
" transform="scale(0.015625)"/>
      <path id="DejaVuSans-6f" d="M 1959 3097 
Q 1497 3097 1228 2736 
Q 959 2375 959 1747 
Q 959 1119 1226 758 
Q 1494 397 1959 397 
Q 2419 397 2687 759 
Q 2956 1122 2956 1747 
Q 2956 2369 2687 2733 
Q 2419 3097 1959 3097 
z
M 1959 3584 
Q 2709 3584 3137 3096 
Q 3566 2609 3566 1747 
Q 3566 888 3137 398 
Q 2709 -91 1959 -91 
Q 1206 -91 779 398 
Q 353 888 353 1747 
Q 353 2609 779 3096 
Q 1206 3584 1959 3584 
z
" transform="scale(0.015625)"/>
      <path id="DejaVuSans-20" transform="scale(0.015625)"/>
      <path id="DejaVuSans-44" d="M 1259 4147 
L 1259 519 
L 2022 519 
Q 2988 519 3436 956 
Q 3884 1394 3884 2338 
Q 3884 3275 3436 3711 
Q 2988 4147 2022 4147 
L 1259 4147 
z
M 628 4666 
L 1925 4666 
Q 3281 4666 3915 4102 
Q 4550 3538 4550 2338 
Q 4550 1131 3912 565 
Q 3275 0 1925 0 
L 628 0 
L 628 4666 
z
" transform="scale(0.015625)"/>
      <path id="DejaVuSans-66" d="M 2375 4863 
L 2375 4384 
L 1825 4384 
Q 1516 4384 1395 4259 
Q 1275 4134 1275 3809 
L 1275 3500 
L 2222 3500 
L 2222 3053 
L 1275 3053 
L 1275 0 
L 697 0 
L 697 3053 
L 147 3053 
L 147 3500 
L 697 3500 
L 697 3744 
Q 697 4328 969 4595 
Q 1241 4863 1831 4863 
L 2375 4863 
z
" transform="scale(0.015625)"/>
      <path id="DejaVuSans-63" d="M 3122 3366 
L 3122 2828 
Q 2878 2963 2633 3030 
Q 2388 3097 2138 3097 
Q 1578 3097 1268 2742 
Q 959 2388 959 1747 
Q 959 1106 1268 751 
Q 1578 397 2138 397 
Q 2388 397 2633 464 
Q 2878 531 3122 666 
L 3122 134 
Q 2881 22 2623 -34 
Q 2366 -91 2075 -91 
Q 1284 -91 818 406 
Q 353 903 353 1747 
Q 353 2603 823 3093 
Q 1294 3584 2113 3584 
Q 2378 3584 2631 3529 
Q 2884 3475 3122 3366 
z
" transform="scale(0.015625)"/>
     </defs>
     <use xlink:href="#DejaVuSans-51"/>
     <use xlink:href="#DejaVuSans-75" x="78.710938"/>
     <use xlink:href="#DejaVuSans-61" x="142.089844"/>
     <use xlink:href="#DejaVuSans-74" x="203.369141"/>
     <use xlink:href="#DejaVuSans-65" x="242.578125"/>
     <use xlink:href="#DejaVuSans-72" x="304.101562"/>
     <use xlink:href="#DejaVuSans-6e" x="343.464844"/>
     <use xlink:href="#DejaVuSans-69" x="406.84375"/>
     <use xlink:href="#DejaVuSans-6f" x="434.626953"/>
     <use xlink:href="#DejaVuSans-6e" x="495.808594"/>
     <use xlink:href="#DejaVuSans-20" x="559.1875"/>
     <use xlink:href="#DejaVuSans-44" x="590.974609"/>
     <use xlink:href="#DejaVuSans-69" x="667.976562"/>
     <use xlink:href="#DejaVuSans-66" x="695.759766"/>
     <use xlink:href="#DejaVuSans-66" x="730.964844"/>
     <use xlink:href="#DejaVuSans-65" x="766.169922"/>
     <use xlink:href="#DejaVuSans-72" x="827.693359"/>
     <use xlink:href="#DejaVuSans-65" x="866.556641"/>
     <use xlink:href="#DejaVuSans-6e" x="928.080078"/>
     <use xlink:href="#DejaVuSans-63" x="991.458984"/>
     <use xlink:href="#DejaVuSans-65" x="1046.439453"/>
     <use xlink:href="#DejaVuSans-73" x="1107.962891"/>
    </g>
   </g>
  </g>
 </g>
 <defs>
  <clipPath id="p05a4a0b465">
   <rect x="54.92" y="33.36" width="654.28" height="349.48"/>
  </clipPath>
 </defs>
</svg>
