<?xml version="1.0" encoding="utf-8" standalone="no"?>
<!DOCTYPE svg PUBLIC "-//W3C//DTD SVG 1.1//EN"
  "http://www.w3.org/Graphics/SVG/1.1/DTD/svg11.dtd">
<svg xmlns:xlink="http://www.w3.org/1999/xlink" width="460.8pt" height="345.6pt" viewBox="0 0 460.8 345.6" xmlns="http://www.w3.org/2000/svg" version="1.1">
 <metadata>
  <rdf:RDF xmlns:dc="http://purl.org/dc/elements/1.1/" xmlns:cc="http://creativecommons.org/ns#" xmlns:rdf="http://www.w3.org/1999/02/22-rdf-syntax-ns#">
   <cc:Work>
    <dc:type rdf:resource="http://purl.org/dc/dcmitype/StillImage"/>
    <dc:date>2024-10-17T21:02:49.951153</dc:date>
    <dc:format>image/svg+xml</dc:format>
    <dc:creator>
     <cc:Agent>
      <dc:title>Matplotlib v3.7.5, https://matplotlib.org/</dc:title>
     </cc:Agent>
    </dc:creator>
   </cc:Work>
  </rdf:RDF>
 </metadata>
 <defs>
  <style type="text/css">*{stroke-linejoin: round; stroke-linecap: butt}</style>
 </defs>
 <g id="figure_1">
  <g id="patch_1">
   <path d="M 0 345.6 
L 460.8 345.6 
L 460.8 0 
L 0 0 
z
" style="fill: #ffffff"/>
  </g>
  <g id="axes_1">
   <g id="patch_2">
    <path d="M 65.09 289.24 
L 446.810179 289.24 
L 446.810179 36.24 
L 65.09 36.24 
z
" style="fill: #ffffff"/>
   </g>
   <g id="matplotlib.axis_1">
    <g id="xtick_1">
     <g id="line2d_1">
      <defs>
       <path id="md8cef4605b" d="M 0 0 
L 0 3.5 
" style="stroke: #000000; stroke-width: 0.8"/>
      </defs>
      <g>
       <use xlink:href="#md8cef4605b" x="82.440917" y="289.24" style="stroke: #000000; stroke-width: 0.8"/>
      </g>
     </g>
     <g id="text_1">
      <!-- 0 -->
      <g transform="translate(77.987167 306.877813) scale(0.14 -0.14)">
       <defs>
        <path id="DejaVuSans-30" d="M 2034 4250 
Q 1547 4250 1301 3770 
Q 1056 3291 1056 2328 
Q 1056 1369 1301 889 
Q 1547 409 2034 409 
Q 2525 409 2770 889 
Q 3016 1369 3016 2328 
Q 3016 3291 2770 3770 
Q 2525 4250 2034 4250 
z
M 2034 4750 
Q 2819 4750 3233 4129 
Q 3647 3509 3647 2328 
Q 3647 1150 3233 529 
Q 2819 -91 2034 -91 
Q 1250 -91 836 529 
Q 422 1150 422 2328 
Q 422 3509 836 4129 
Q 1250 4750 2034 4750 
z
" transform="scale(0.015625)"/>
       </defs>
       <use xlink:href="#DejaVuSans-30"/>
      </g>
     </g>
    </g>
    <g id="xtick_2">
     <g id="line2d_2">
      <g>
       <use xlink:href="#md8cef4605b" x="151.273277" y="289.24" style="stroke: #000000; stroke-width: 0.8"/>
      </g>
     </g>
     <g id="text_2">
      <!-- 2000 -->
      <g transform="translate(133.458277 306.877813) scale(0.14 -0.14)">
       <defs>
        <path id="DejaVuSans-32" d="M 1228 531 
L 3431 531 
L 3431 0 
L 469 0 
L 469 531 
Q 828 903 1448 1529 
Q 2069 2156 2228 2338 
Q 2531 2678 2651 2914 
Q 2772 3150 2772 3378 
Q 2772 3750 2511 3984 
Q 2250 4219 1831 4219 
Q 1534 4219 1204 4116 
Q 875 4013 500 3803 
L 500 4441 
Q 881 4594 1212 4672 
Q 1544 4750 1819 4750 
Q 2544 4750 2975 4387 
Q 3406 4025 3406 3419 
Q 3406 3131 3298 2873 
Q 3191 2616 2906 2266 
Q 2828 2175 2409 1742 
Q 1991 1309 1228 531 
z
" transform="scale(0.015625)"/>
       </defs>
       <use xlink:href="#DejaVuSans-32"/>
       <use xlink:href="#DejaVuSans-30" x="63.623047"/>
       <use xlink:href="#DejaVuSans-30" x="127.246094"/>
       <use xlink:href="#DejaVuSans-30" x="190.869141"/>
      </g>
     </g>
    </g>
    <g id="xtick_3">
     <g id="line2d_3">
      <g>
       <use xlink:href="#md8cef4605b" x="220.105638" y="289.24" style="stroke: #000000; stroke-width: 0.8"/>
      </g>
     </g>
     <g id="text_3">
      <!-- 4000 -->
      <g transform="translate(202.290638 306.877813) scale(0.14 -0.14)">
       <defs>
        <path id="DejaVuSans-34" d="M 2419 4116 
L 825 1625 
L 2419 1625 
L 2419 4116 
z
M 2253 4666 
L 3047 4666 
L 3047 1625 
L 3713 1625 
L 3713 1100 
L 3047 1100 
L 3047 0 
L 2419 0 
L 2419 1100 
L 313 1100 
L 313 1709 
L 2253 4666 
z
" transform="scale(0.015625)"/>
       </defs>
       <use xlink:href="#DejaVuSans-34"/>
       <use xlink:href="#DejaVuSans-30" x="63.623047"/>
       <use xlink:href="#DejaVuSans-30" x="127.246094"/>
       <use xlink:href="#DejaVuSans-30" x="190.869141"/>
      </g>
     </g>
    </g>
    <g id="xtick_4">
     <g id="line2d_4">
      <g>
       <use xlink:href="#md8cef4605b" x="288.937998" y="289.24" style="stroke: #000000; stroke-width: 0.8"/>
      </g>
     </g>
     <g id="text_4">
      <!-- 6000 -->
      <g transform="translate(271.122998 306.877813) scale(0.14 -0.14)">
       <defs>
        <path id="DejaVuSans-36" d="M 2113 2584 
Q 1688 2584 1439 2293 
Q 1191 2003 1191 1497 
Q 1191 994 1439 701 
Q 1688 409 2113 409 
Q 2538 409 2786 701 
Q 3034 994 3034 1497 
Q 3034 2003 2786 2293 
Q 2538 2584 2113 2584 
z
M 3366 4563 
L 3366 3988 
Q 3128 4100 2886 4159 
Q 2644 4219 2406 4219 
Q 1781 4219 1451 3797 
Q 1122 3375 1075 2522 
Q 1259 2794 1537 2939 
Q 1816 3084 2150 3084 
Q 2853 3084 3261 2657 
Q 3669 2231 3669 1497 
Q 3669 778 3244 343 
Q 2819 -91 2113 -91 
Q 1303 -91 875 529 
Q 447 1150 447 2328 
Q 447 3434 972 4092 
Q 1497 4750 2381 4750 
Q 2619 4750 2861 4703 
Q 3103 4656 3366 4563 
z
" transform="scale(0.015625)"/>
       </defs>
       <use xlink:href="#DejaVuSans-36"/>
       <use xlink:href="#DejaVuSans-30" x="63.623047"/>
       <use xlink:href="#DejaVuSans-30" x="127.246094"/>
       <use xlink:href="#DejaVuSans-30" x="190.869141"/>
      </g>
     </g>
    </g>
    <g id="xtick_5">
     <g id="line2d_5">
      <g>
       <use xlink:href="#md8cef4605b" x="357.770358" y="289.24" style="stroke: #000000; stroke-width: 0.8"/>
      </g>
     </g>
     <g id="text_5">
      <!-- 8000 -->
      <g transform="translate(339.955358 306.877813) scale(0.14 -0.14)">
       <defs>
        <path id="DejaVuSans-38" d="M 2034 2216 
Q 1584 2216 1326 1975 
Q 1069 1734 1069 1313 
Q 1069 891 1326 650 
Q 1584 409 2034 409 
Q 2484 409 2743 651 
Q 3003 894 3003 1313 
Q 3003 1734 2745 1975 
Q 2488 2216 2034 2216 
z
M 1403 2484 
Q 997 2584 770 2862 
Q 544 3141 544 3541 
Q 544 4100 942 4425 
Q 1341 4750 2034 4750 
Q 2731 4750 3128 4425 
Q 3525 4100 3525 3541 
Q 3525 3141 3298 2862 
Q 3072 2584 2669 2484 
Q 3125 2378 3379 2068 
Q 3634 1759 3634 1313 
Q 3634 634 3220 271 
Q 2806 -91 2034 -91 
Q 1263 -91 848 271 
Q 434 634 434 1313 
Q 434 1759 690 2068 
Q 947 2378 1403 2484 
z
M 1172 3481 
Q 1172 3119 1398 2916 
Q 1625 2713 2034 2713 
Q 2441 2713 2670 2916 
Q 2900 3119 2900 3481 
Q 2900 3844 2670 4047 
Q 2441 4250 2034 4250 
Q 1625 4250 1398 4047 
Q 1172 3844 1172 3481 
z
" transform="scale(0.015625)"/>
       </defs>
       <use xlink:href="#DejaVuSans-38"/>
       <use xlink:href="#DejaVuSans-30" x="63.623047"/>
       <use xlink:href="#DejaVuSans-30" x="127.246094"/>
       <use xlink:href="#DejaVuSans-30" x="190.869141"/>
      </g>
     </g>
    </g>
    <g id="xtick_6">
     <g id="line2d_6">
      <g>
       <use xlink:href="#md8cef4605b" x="426.602718" y="289.24" style="stroke: #000000; stroke-width: 0.8"/>
      </g>
     </g>
     <g id="text_6">
      <!-- 10000 -->
      <g transform="translate(404.333968 306.877813) scale(0.14 -0.14)">
       <defs>
        <path id="DejaVuSans-31" d="M 794 531 
L 1825 531 
L 1825 4091 
L 703 3866 
L 703 4441 
L 1819 4666 
L 2450 4666 
L 2450 531 
L 3481 531 
L 3481 0 
L 794 0 
L 794 531 
z
" transform="scale(0.015625)"/>
       </defs>
       <use xlink:href="#DejaVuSans-31"/>
       <use xlink:href="#DejaVuSans-30" x="63.623047"/>
       <use xlink:href="#DejaVuSans-30" x="127.246094"/>
       <use xlink:href="#DejaVuSans-30" x="190.869141"/>
       <use xlink:href="#DejaVuSans-30" x="254.492188"/>
      </g>
     </g>
    </g>
    <g id="text_7">
     <!-- Timesteps -->
     <g transform="translate(199.511496 330.505937) scale(0.22 -0.22)">
      <defs>
       <path id="DejaVuSans-54" d="M -19 4666 
L 3928 4666 
L 3928 4134 
L 2272 4134 
L 2272 0 
L 1638 0 
L 1638 4134 
L -19 4134 
L -19 4666 
z
" transform="scale(0.015625)"/>
       <path id="DejaVuSans-69" d="M 603 3500 
L 1178 3500 
L 1178 0 
L 603 0 
L 603 3500 
z
M 603 4863 
L 1178 4863 
L 1178 4134 
L 603 4134 
L 603 4863 
z
" transform="scale(0.015625)"/>
       <path id="DejaVuSans-6d" d="M 3328 2828 
Q 3544 3216 3844 3400 
Q 4144 3584 4550 3584 
Q 5097 3584 5394 3201 
Q 5691 2819 5691 2113 
L 5691 0 
L 5113 0 
L 5113 2094 
Q 5113 2597 4934 2840 
Q 4756 3084 4391 3084 
Q 3944 3084 3684 2787 
Q 3425 2491 3425 1978 
L 3425 0 
L 2847 0 
L 2847 2094 
Q 2847 2600 2669 2842 
Q 2491 3084 2119 3084 
Q 1678 3084 1418 2786 
Q 1159 2488 1159 1978 
L 1159 0 
L 581 0 
L 581 3500 
L 1159 3500 
L 1159 2956 
Q 1356 3278 1631 3431 
Q 1906 3584 2284 3584 
Q 2666 3584 2933 3390 
Q 3200 3197 3328 2828 
z
" transform="scale(0.015625)"/>
       <path id="DejaVuSans-65" d="M 3597 1894 
L 3597 1613 
L 953 1613 
Q 991 1019 1311 708 
Q 1631 397 2203 397 
Q 2534 397 2845 478 
Q 3156 559 3463 722 
L 3463 178 
Q 3153 47 2828 -22 
Q 2503 -91 2169 -91 
Q 1331 -91 842 396 
Q 353 884 353 1716 
Q 353 2575 817 3079 
Q 1281 3584 2069 3584 
Q 2775 3584 3186 3129 
Q 3597 2675 3597 1894 
z
M 3022 2063 
Q 3016 2534 2758 2815 
Q 2500 3097 2075 3097 
Q 1594 3097 1305 2825 
Q 1016 2553 972 2059 
L 3022 2063 
z
" transform="scale(0.015625)"/>
       <path id="DejaVuSans-73" d="M 2834 3397 
L 2834 2853 
Q 2591 2978 2328 3040 
Q 2066 3103 1784 3103 
Q 1356 3103 1142 2972 
Q 928 2841 928 2578 
Q 928 2378 1081 2264 
Q 1234 2150 1697 2047 
L 1894 2003 
Q 2506 1872 2764 1633 
Q 3022 1394 3022 966 
Q 3022 478 2636 193 
Q 2250 -91 1575 -91 
Q 1294 -91 989 -36 
Q 684 19 347 128 
L 347 722 
Q 666 556 975 473 
Q 1284 391 1588 391 
Q 1994 391 2212 530 
Q 2431 669 2431 922 
Q 2431 1156 2273 1281 
Q 2116 1406 1581 1522 
L 1381 1569 
Q 847 1681 609 1914 
Q 372 2147 372 2553 
Q 372 3047 722 3315 
Q 1072 3584 1716 3584 
Q 2034 3584 2315 3537 
Q 2597 3491 2834 3397 
z
" transform="scale(0.015625)"/>
       <path id="DejaVuSans-74" d="M 1172 4494 
L 1172 3500 
L 2356 3500 
L 2356 3053 
L 1172 3053 
L 1172 1153 
Q 1172 725 1289 603 
Q 1406 481 1766 481 
L 2356 481 
L 2356 0 
L 1766 0 
Q 1100 0 847 248 
Q 594 497 594 1153 
L 594 3053 
L 172 3053 
L 172 3500 
L 594 3500 
L 594 4494 
L 1172 4494 
z
" transform="scale(0.015625)"/>
       <path id="DejaVuSans-70" d="M 1159 525 
L 1159 -1331 
L 581 -1331 
L 581 3500 
L 1159 3500 
L 1159 2969 
Q 1341 3281 1617 3432 
Q 1894 3584 2278 3584 
Q 2916 3584 3314 3078 
Q 3713 2572 3713 1747 
Q 3713 922 3314 415 
Q 2916 -91 2278 -91 
Q 1894 -91 1617 61 
Q 1341 213 1159 525 
z
M 3116 1747 
Q 3116 2381 2855 2742 
Q 2594 3103 2138 3103 
Q 1681 3103 1420 2742 
Q 1159 2381 1159 1747 
Q 1159 1113 1420 752 
Q 1681 391 2138 391 
Q 2594 391 2855 752 
Q 3116 1113 3116 1747 
z
" transform="scale(0.015625)"/>
      </defs>
      <use xlink:href="#DejaVuSans-54"/>
      <use xlink:href="#DejaVuSans-69" x="57.958984"/>
      <use xlink:href="#DejaVuSans-6d" x="85.742188"/>
      <use xlink:href="#DejaVuSans-65" x="183.154297"/>
      <use xlink:href="#DejaVuSans-73" x="244.677734"/>
      <use xlink:href="#DejaVuSans-74" x="296.777344"/>
      <use xlink:href="#DejaVuSans-65" x="335.986328"/>
      <use xlink:href="#DejaVuSans-70" x="397.509766"/>
      <use xlink:href="#DejaVuSans-73" x="460.986328"/>
     </g>
    </g>
   </g>
   <g id="matplotlib.axis_2">
    <g id="ytick_1">
     <g id="line2d_7">
      <defs>
       <path id="md52c1258f1" d="M 0 0 
L -3.5 0 
" style="stroke: #000000; stroke-width: 0.8"/>
      </defs>
      <g>
       <use xlink:href="#md52c1258f1" x="65.09" y="277.74" style="stroke: #000000; stroke-width: 0.8"/>
      </g>
     </g>
     <g id="text_8">
      <!-- 0.0 -->
      <g transform="translate(35.825625 283.058906) scale(0.14 -0.14)">
       <defs>
        <path id="DejaVuSans-2e" d="M 684 794 
L 1344 794 
L 1344 0 
L 684 0 
L 684 794 
z
" transform="scale(0.015625)"/>
       </defs>
       <use xlink:href="#DejaVuSans-30"/>
       <use xlink:href="#DejaVuSans-2e" x="63.623047"/>
       <use xlink:href="#DejaVuSans-30" x="95.410156"/>
      </g>
     </g>
    </g>
    <g id="ytick_2">
     <g id="line2d_8">
      <g>
       <use xlink:href="#md52c1258f1" x="65.09" y="239.295858" style="stroke: #000000; stroke-width: 0.8"/>
      </g>
     </g>
     <g id="text_9">
      <!-- 0.5 -->
      <g transform="translate(35.825625 244.614764) scale(0.14 -0.14)">
       <defs>
        <path id="DejaVuSans-35" d="M 691 4666 
L 3169 4666 
L 3169 4134 
L 1269 4134 
L 1269 2991 
Q 1406 3038 1543 3061 
Q 1681 3084 1819 3084 
Q 2600 3084 3056 2656 
Q 3513 2228 3513 1497 
Q 3513 744 3044 326 
Q 2575 -91 1722 -91 
Q 1428 -91 1123 -41 
Q 819 9 494 109 
L 494 744 
Q 775 591 1075 516 
Q 1375 441 1709 441 
Q 2250 441 2565 725 
Q 2881 1009 2881 1497 
Q 2881 1984 2565 2268 
Q 2250 2553 1709 2553 
Q 1456 2553 1204 2497 
Q 953 2441 691 2322 
L 691 4666 
z
" transform="scale(0.015625)"/>
       </defs>
       <use xlink:href="#DejaVuSans-30"/>
       <use xlink:href="#DejaVuSans-2e" x="63.623047"/>
       <use xlink:href="#DejaVuSans-35" x="95.410156"/>
      </g>
     </g>
    </g>
    <g id="ytick_3">
     <g id="line2d_9">
      <g>
       <use xlink:href="#md52c1258f1" x="65.09" y="200.851716" style="stroke: #000000; stroke-width: 0.8"/>
      </g>
     </g>
     <g id="text_10">
      <!-- 1.0 -->
      <g transform="translate(35.825625 206.170622) scale(0.14 -0.14)">
       <use xlink:href="#DejaVuSans-31"/>
       <use xlink:href="#DejaVuSans-2e" x="63.623047"/>
       <use xlink:href="#DejaVuSans-30" x="95.410156"/>
      </g>
     </g>
    </g>
    <g id="ytick_4">
     <g id="line2d_10">
      <g>
       <use xlink:href="#md52c1258f1" x="65.09" y="162.407573" style="stroke: #000000; stroke-width: 0.8"/>
      </g>
     </g>
     <g id="text_11">
      <!-- 1.5 -->
      <g transform="translate(35.825625 167.72648) scale(0.14 -0.14)">
       <use xlink:href="#DejaVuSans-31"/>
       <use xlink:href="#DejaVuSans-2e" x="63.623047"/>
       <use xlink:href="#DejaVuSans-35" x="95.410156"/>
      </g>
     </g>
    </g>
    <g id="ytick_5">
     <g id="line2d_11">
      <g>
       <use xlink:href="#md52c1258f1" x="65.09" y="123.963431" style="stroke: #000000; stroke-width: 0.8"/>
      </g>
     </g>
     <g id="text_12">
      <!-- 2.0 -->
      <g transform="translate(35.825625 129.282338) scale(0.14 -0.14)">
       <use xlink:href="#DejaVuSans-32"/>
       <use xlink:href="#DejaVuSans-2e" x="63.623047"/>
       <use xlink:href="#DejaVuSans-30" x="95.410156"/>
      </g>
     </g>
    </g>
    <g id="ytick_6">
     <g id="line2d_12">
      <g>
       <use xlink:href="#md52c1258f1" x="65.09" y="85.519289" style="stroke: #000000; stroke-width: 0.8"/>
      </g>
     </g>
     <g id="text_13">
      <!-- 2.5 -->
      <g transform="translate(35.825625 90.838195) scale(0.14 -0.14)">
       <use xlink:href="#DejaVuSans-32"/>
       <use xlink:href="#DejaVuSans-2e" x="63.623047"/>
       <use xlink:href="#DejaVuSans-35" x="95.410156"/>
      </g>
     </g>
    </g>
    <g id="ytick_7">
     <g id="line2d_13">
      <g>
       <use xlink:href="#md52c1258f1" x="65.09" y="47.075147" style="stroke: #000000; stroke-width: 0.8"/>
      </g>
     </g>
     <g id="text_14">
      <!-- 3.0 -->
      <g transform="translate(35.825625 52.394053) scale(0.14 -0.14)">
       <defs>
        <path id="DejaVuSans-33" d="M 2597 2516 
Q 3050 2419 3304 2112 
Q 3559 1806 3559 1356 
Q 3559 666 3084 287 
Q 2609 -91 1734 -91 
Q 1441 -91 1130 -33 
Q 819 25 488 141 
L 488 750 
Q 750 597 1062 519 
Q 1375 441 1716 441 
Q 2309 441 2620 675 
Q 2931 909 2931 1356 
Q 2931 1769 2642 2001 
Q 2353 2234 1838 2234 
L 1294 2234 
L 1294 2753 
L 1863 2753 
Q 2328 2753 2575 2939 
Q 2822 3125 2822 3475 
Q 2822 3834 2567 4026 
Q 2313 4219 1838 4219 
Q 1578 4219 1281 4162 
Q 984 4106 628 3988 
L 628 4550 
Q 988 4650 1302 4700 
Q 1616 4750 1894 4750 
Q 2613 4750 3031 4423 
Q 3450 4097 3450 3541 
Q 3450 3153 3228 2886 
Q 3006 2619 2597 2516 
z
" transform="scale(0.015625)"/>
       </defs>
       <use xlink:href="#DejaVuSans-33"/>
       <use xlink:href="#DejaVuSans-2e" x="63.623047"/>
       <use xlink:href="#DejaVuSans-30" x="95.410156"/>
      </g>
     </g>
    </g>
    <g id="text_15">
     <!-- rad -->
     <g transform="translate(27.250313 180.98625) rotate(-90) scale(0.22 -0.22)">
      <defs>
       <path id="DejaVuSans-72" d="M 2631 2963 
Q 2534 3019 2420 3045 
Q 2306 3072 2169 3072 
Q 1681 3072 1420 2755 
Q 1159 2438 1159 1844 
L 1159 0 
L 581 0 
L 581 3500 
L 1159 3500 
L 1159 2956 
Q 1341 3275 1631 3429 
Q 1922 3584 2338 3584 
Q 2397 3584 2469 3576 
Q 2541 3569 2628 3553 
L 2631 2963 
z
" transform="scale(0.015625)"/>
       <path id="DejaVuSans-61" d="M 2194 1759 
Q 1497 1759 1228 1600 
Q 959 1441 959 1056 
Q 959 750 1161 570 
Q 1363 391 1709 391 
Q 2188 391 2477 730 
Q 2766 1069 2766 1631 
L 2766 1759 
L 2194 1759 
z
M 3341 1997 
L 3341 0 
L 2766 0 
L 2766 531 
Q 2569 213 2275 61 
Q 1981 -91 1556 -91 
Q 1019 -91 701 211 
Q 384 513 384 1019 
Q 384 1609 779 1909 
Q 1175 2209 1959 2209 
L 2766 2209 
L 2766 2266 
Q 2766 2663 2505 2880 
Q 2244 3097 1772 3097 
Q 1472 3097 1187 3025 
Q 903 2953 641 2809 
L 641 3341 
Q 956 3463 1253 3523 
Q 1550 3584 1831 3584 
Q 2591 3584 2966 3190 
Q 3341 2797 3341 1997 
z
" transform="scale(0.015625)"/>
       <path id="DejaVuSans-64" d="M 2906 2969 
L 2906 4863 
L 3481 4863 
L 3481 0 
L 2906 0 
L 2906 525 
Q 2725 213 2448 61 
Q 2172 -91 1784 -91 
Q 1150 -91 751 415 
Q 353 922 353 1747 
Q 353 2572 751 3078 
Q 1150 3584 1784 3584 
Q 2172 3584 2448 3432 
Q 2725 3281 2906 2969 
z
M 947 1747 
Q 947 1113 1208 752 
Q 1469 391 1925 391 
Q 2381 391 2643 752 
Q 2906 1113 2906 1747 
Q 2906 2381 2643 2742 
Q 2381 3103 1925 3103 
Q 1469 3103 1208 2742 
Q 947 2381 947 1747 
z
" transform="scale(0.015625)"/>
      </defs>
      <use xlink:href="#DejaVuSans-72"/>
      <use xlink:href="#DejaVuSans-61" x="41.113281"/>
      <use xlink:href="#DejaVuSans-64" x="102.392578"/>
     </g>
    </g>
   </g>
   <g id="line2d_14">
    <path d="M 82.440917 77.781438 
L 83.6799 77.257285 
L 84.196142 76.954787 
L 85.194212 76.475602 
L 85.400709 76.371238 
L 85.813703 76.138623 
L 86.123448 75.98207 
L 86.536443 75.787991 
L 86.846188 75.640388 
L 87.19035 75.449049 
L 87.431263 75.335398 
L 87.91309 75.094555 
L 88.188419 74.963656 
L 88.601413 74.785422 
L 88.876743 74.64418 
L 89.461818 74.35033 
L 89.874812 74.12366 
L 90.081309 74.05575 
L 90.52872 73.84055 
L 90.941714 73.639764 
L 91.285876 73.472943 
L 91.526789 73.364927 
L 91.870951 73.190102 
L 92.180696 73.060173 
L 92.456026 72.914317 
L 92.937852 72.682053 
L 93.31643 72.516 
L 94.383332 72.004226 
L 94.865158 71.798138 
L 95.312569 71.581836 
L 96.172973 71.188976 
L 96.930129 70.872137 
L 97.411956 70.62746 
L 97.652869 70.529683 
L 98.27236 70.251904 
L 98.71977 70.075782 
L 99.167181 69.859128 
L 99.855504 69.567538 
L 100.750325 69.211658 
L 101.094487 69.05697 
L 102.677631 68.414337 
L 104.329608 67.74862 
L 104.501689 67.722088 
L 104.983515 67.520182 
L 106.635492 66.906346 
L 110.558936 65.500333 
L 121.193536 62.350755 
L 121.537698 62.278993 
L 122.019524 62.157081 
L 124.290992 61.612569 
L 124.876067 61.472122 
L 125.254645 61.389582 
L 125.83972 61.257917 
L 126.11505 61.204207 
L 126.665709 61.07851 
L 127.698194 60.867952 
L 127.904691 60.822233 
L 128.352102 60.728074 
L 128.558599 60.674387 
L 131.415142 60.09127 
L 132.378795 59.865374 
L 132.516459 59.858216 
L 132.791789 59.781024 
L 133.101534 59.711176 
L 133.41128 59.664134 
L 133.824274 59.568219 
L 134.030771 59.5312 
L 135.717164 59.169469 
L 136.061326 59.108738 
L 137.403557 58.828639 
L 137.575638 58.788436 
L 137.850967 58.747193 
L 140.432181 58.172253 
L 141.327001 57.929025 
L 141.499082 57.878055 
L 142.290654 57.662851 
L 142.497152 57.630404 
L 142.738065 57.56323 
L 146.179683 56.421083 
L 146.627093 56.235152 
L 146.83359 56.144611 
L 149.827798 54.93426 
L 151.06678 54.381711 
L 151.583023 54.149533 
L 152.994086 53.506254 
L 153.613578 53.240894 
L 154.40515 52.847486 
L 154.921393 52.647281 
L 155.265554 52.464214 
L 155.712965 52.289432 
L 155.988294 52.175137 
L 157.124028 51.674095 
L 157.399358 51.564874 
L 164.523507 49.282747 
L 164.76442 49.222052 
L 165.48716 49.035933 
L 165.831322 48.955177 
L 166.072235 48.883576 
L 166.932639 48.659731 
L 167.758628 48.460803 
L 167.896292 48.426484 
L 169.238523 48.196004 
L 172.576893 47.773216 
L 172.886639 47.781591 
L 173.161968 47.768568 
L 174.160037 47.764907 
L 174.573031 47.795619 
L 174.813945 47.775159 
L 177.842569 48.108274 
L 178.152314 48.146596 
L 179.253632 48.32373 
L 179.838707 48.437993 
L 180.836776 48.688886 
L 180.871192 48.750411 
L 180.940025 48.699651 
L 181.662765 48.868178 
L 181.731597 48.950387 
L 181.766013 48.863745 
L 182.006926 48.953976 
L 182.970579 49.219803 
L 183.280325 49.30484 
L 183.762152 49.423192 
L 184.003065 49.487522 
L 184.656972 49.687394 
L 185.138799 49.83571 
L 186.274533 50.219774 
L 186.825192 50.401166 
L 187.892093 50.767898 
L 188.305087 50.914876 
L 190.025896 51.573122 
L 190.886301 51.950235 
L 199.421513 56.612233 
L 199.731259 56.818681 
L 200.35075 57.192388 
L 200.935825 57.564355 
L 201.830646 58.118443 
L 202.105976 58.307235 
L 203.344958 59.097306 
L 203.654704 59.302916 
L 206.02942 60.902735 
L 206.304749 61.093096 
L 206.545663 61.248497 
L 207.027489 61.591345 
L 207.268403 61.750806 
L 207.819061 62.147773 
L 208.163223 62.357257 
L 208.438553 62.541096 
L 208.920379 62.885881 
L 209.333373 63.15093 
L 209.746368 63.447704 
L 209.987281 63.593982 
L 210.228194 63.769888 
L 211.157431 64.41164 
L 211.501593 64.670558 
L 211.776922 64.865135 
L 212.258749 65.170129 
L 212.499662 65.36848 
L 212.740575 65.507399 
L 213.119153 65.777587 
L 213.532147 66.077957 
L 213.841893 66.30307 
L 214.117222 66.500231 
L 214.426968 66.704043 
L 214.908795 67.067864 
L 215.115292 67.221145 
L 215.528286 67.477226 
L 215.906864 67.767109 
L 216.251026 68.002556 
L 216.526355 68.219637 
L 216.836101 68.433739 
L 217.214679 68.724132 
L 217.524424 68.943489 
L 218.143915 69.385026 
L 218.384829 69.570175 
L 219.45173 70.328146 
L 219.761476 70.589616 
L 220.17447 70.865478 
L 220.484216 71.116858 
L 220.690713 71.234258 
L 221.275788 71.684463 
L 221.413453 71.776212 
L 222.583603 72.648073 
L 222.721267 72.685982 
L 223.375175 73.223643 
L 223.581672 73.372508 
L 223.857001 73.564766 
L 224.304412 73.897102 
L 224.545325 74.069721 
L 224.958319 74.315441 
L 225.405729 74.670054 
L 225.681059 74.852401 
L 226.128469 75.227631 
L 226.266134 75.286699 
L 226.472631 75.489871 
L 226.679128 75.618526 
L 227.160955 76.042667 
L 227.505116 76.28462 
L 228.296689 76.846152 
L 228.503186 77.032112 
L 228.744099 77.184215 
L 228.985012 77.405742 
L 229.260342 77.578404 
L 229.466839 77.781764 
L 230.223995 78.319241 
L 230.705821 78.718854 
L 231.084399 78.967868 
L 231.53181 79.333842 
L 231.97922 79.661789 
L 233.631197 80.891168 
L 234.113023 81.234329 
L 234.353936 81.484279 
L 234.629266 81.673158 
L 234.904595 81.868694 
L 235.48967 82.325013 
L 235.868248 82.637094 
L 236.281242 82.908699 
L 236.522156 83.080044 
L 236.93515 83.45068 
L 237.003982 83.471681 
L 237.313728 83.709677 
L 237.554641 83.870264 
L 237.82997 84.101607 
L 238.070884 84.292404 
L 238.380629 84.551563 
L 238.724791 84.784942 
L 238.931288 84.90648 
L 239.309866 85.244685 
L 239.860525 85.667461 
L 240.067022 85.810275 
L 241.443669 86.845812 
L 241.718999 87.04273 
L 242.097577 87.38366 
L 242.372906 87.563786 
L 242.61382 87.776943 
L 242.992398 88.028337 
L 243.267727 88.235752 
L 243.50864 88.458822 
L 243.852802 88.738687 
L 243.956051 88.782871 
L 244.334629 89.084086 
L 244.609958 89.278102 
L 245.367114 89.868317 
L 245.539195 89.998309 
L 247.672998 91.662566 
L 247.982744 91.893332 
L 248.326905 92.143127 
L 248.636651 92.365962 
L 249.393807 92.951443 
L 249.737969 93.193364 
L 250.082131 93.484011 
L 250.323044 93.686886 
L 250.495125 93.801669 
L 250.632789 93.882024 
L 250.942535 94.146487 
L 251.045784 94.213426 
L 251.458778 94.530037 
L 251.768523 94.794586 
L 252.043853 94.991296 
L 252.353599 95.224048 
L 252.766593 95.585855 
L 253.041922 95.767209 
L 253.282835 95.950296 
L 253.523749 96.110055 
L 253.833494 96.342346 
L 254.177656 96.622569 
L 254.315321 96.689976 
L 254.487402 96.819276 
L 254.659483 97.023969 
L 254.693899 96.970517 
L 254.762731 97.068522 
L 255.175725 97.389471 
L 255.451055 97.605885 
L 255.795217 97.880437 
L 256.001714 97.983672 
L 256.621205 98.493657 
L 257.034199 98.772571 
L 257.343945 98.996039 
L 257.825771 99.361405 
L 258.169933 99.626684 
L 258.342014 99.807741 
L 258.755008 100.13231 
L 258.858257 100.2037 
L 259.030337 100.302698 
L 259.271251 100.482819 
L 259.753077 100.859981 
L 259.99399 101.040099 
L 260.923227 101.744807 
L 261.542719 102.199184 
L 261.852464 102.454574 
L 262.196626 102.692791 
L 262.540788 102.979828 
L 262.781701 103.163359 
L 263.194695 103.466075 
L 263.676522 103.744148 
L 264.123932 104.193828 
L 264.468094 104.445804 
L 264.77784 104.686062 
L 266.911643 106.309172 
L 267.083724 106.441351 
L 267.56555 106.811033 
L 267.772047 106.947976 
L 268.081793 107.198489 
L 268.322706 107.380704 
L 268.494787 107.502246 
L 268.838949 107.766567 
L 269.217527 108.059492 
L 270.112347 108.758653 
L 270.559758 109.07924 
L 274.758532 112.227898 
L 275.378023 112.694785 
L 275.722185 112.979825 
L 275.963098 113.141965 
L 276.30726 113.400713 
L 276.582589 113.616744 
L 276.926751 113.85561 
L 277.546242 114.338796 
L 277.855988 114.553014 
L 278.613144 115.143342 
L 278.957306 115.374058 
L 279.714462 115.936616 
L 280.024207 116.168012 
L 280.574866 116.588333 
L 281.056693 116.942991 
L 281.538519 117.3122 
L 281.779433 117.487031 
L 281.98593 117.646174 
L 282.398924 117.966176 
L 282.811918 118.236568 
L 283.052831 118.457998 
L 283.465825 118.746322 
L 283.913236 119.094843 
L 284.119733 119.230654 
L 284.463895 119.484517 
L 284.842473 119.750267 
L 285.117802 119.967627 
L 285.461964 120.21887 
L 285.771709 120.482775 
L 286.047039 120.645689 
L 286.356784 120.897576 
L 286.700946 121.140688 
L 287.045108 121.402681 
L 287.286021 121.583104 
L 289.454241 123.175126 
L 289.763986 123.425896 
L 290.039316 123.618463 
L 292.06987 125.134093 
L 293.24002 125.998813 
L 293.584182 126.25675 
L 293.825096 126.432796 
L 294.444587 126.892425 
L 294.719916 127.081866 
L 295.029662 127.332156 
L 295.683569 127.791524 
L 295.993315 128.04368 
L 296.337477 128.275058 
L 296.543974 128.42468 
L 296.716055 128.543923 
L 296.956968 128.729822 
L 297.163465 128.873655 
L 297.576459 129.171066 
L 297.920621 129.445893 
L 298.574528 129.907345 
L 303.771372 133.657974 
L 303.977869 133.817697 
L 305.04477 134.557083 
L 305.354516 134.788458 
L 305.836342 135.119852 
L 306.077256 135.331239 
L 306.559082 135.651033 
L 306.93766 135.934203 
L 307.625984 136.476694 
L 307.935729 136.752256 
L 309.415625 137.841333 
L 309.690955 138.02225 
L 309.966284 138.244481 
L 320.119057 145.671294 
L 320.291138 145.78807 
L 320.600884 146.019699 
L 320.945045 146.245907 
L 321.495704 146.760226 
L 321.80545 146.972196 
L 322.149612 147.248717 
L 322.390525 147.405721 
L 322.9756 147.876884 
L 323.69834 148.395074 
L 323.939253 148.567404 
L 324.489912 148.985964 
L 324.86849 149.259591 
L 325.797727 149.940983 
L 326.279553 150.288827 
L 326.589299 150.552847 
L 326.795796 150.679684 
L 327.105542 150.924014 
L 327.380871 151.093389 
L 327.621784 151.297955 
L 327.965946 151.53848 
L 328.723102 152.094407 
L 328.895183 152.222839 
L 329.239345 152.487723 
L 329.617923 152.75522 
L 329.962085 153.024165 
L 330.237414 153.247465 
L 330.891322 153.682469 
L 331.201067 153.922846 
L 331.545229 154.15135 
L 331.923807 154.460518 
L 332.267969 154.713085 
L 332.612131 154.980455 
L 332.921876 155.185514 
L 333.33487 155.505182 
L 333.6102 155.725127 
L 334.126442 156.099946 
L 334.33294 156.252737 
L 334.608269 156.437653 
L 334.986847 156.733972 
L 335.331009 156.991846 
L 335.812835 157.357187 
L 336.294662 157.686048 
L 336.604407 157.95288 
L 336.914153 158.15704 
L 337.39598 158.512256 
L 337.740141 158.79515 
L 341.560337 161.614239 
L 341.766834 161.772534 
L 342.110996 162.004392 
L 342.936985 162.65093 
L 343.177898 162.809283 
L 343.694141 163.279924 
L 344.451297 163.805504 
L 344.726626 164.019551 
L 345.346117 164.489707 
L 345.552614 164.611611 
L 346.103273 165.019887 
L 346.516267 165.290713 
L 346.757181 165.471619 
L 346.963678 165.633948 
L 348.168244 166.507059 
L 348.546822 166.772794 
L 348.856568 167.026733 
L 349.200729 167.254394 
L 349.544891 167.516585 
L 349.785804 167.692145 
L 350.336463 168.098867 
L 350.508544 168.228423 
L 350.921538 168.55237 
L 351.093619 168.66419 
L 351.437781 168.928902 
L 351.919608 169.274612 
L 352.43585 169.687073 
L 352.848844 169.978797 
L 353.124174 170.187452 
L 353.330671 170.353191 
L 354.122243 170.968949 
L 354.363156 171.128763 
L 354.776151 171.413478 
L 355.154729 171.728579 
L 355.567723 172.033547 
L 355.980717 172.365027 
L 356.600208 172.798327 
L 356.875538 173.007032 
L 357.426196 173.444123 
L 357.701526 173.655306 
L 358.183352 173.991386 
L 358.424266 174.183161 
L 358.596347 174.307695 
L 367.854299 181.232488 
L 368.301709 181.550933 
L 368.645871 181.834718 
L 368.886784 182.00982 
L 369.230946 182.268802 
L 369.403027 182.405676 
L 369.953686 182.809957 
L 370.194599 182.98034 
L 370.538761 183.248199 
L 370.848507 183.490541 
L 371.399166 183.892528 
L 371.640079 184.07669 
L 371.915408 184.285253 
L 372.328402 184.603975 
L 376.320679 187.580556 
L 376.596009 187.799933 
L 376.836922 187.973915 
L 377.525246 188.488325 
L 377.834991 188.697393 
L 378.179153 188.988937 
L 382.412343 192.163284 
L 382.61884 192.291644 
L 383.375996 192.886676 
L 383.78899 193.162839 
L 384.236401 193.517351 
L 384.339649 193.559636 
L 384.546146 193.743414 
L 384.683811 193.83237 
L 385.062389 194.125417 
L 386.335788 195.045925 
L 386.542285 195.21127 
L 388.022181 196.308516 
L 388.263094 196.521697 
L 389.261163 197.225936 
L 389.570909 197.497666 
L 389.983903 197.79594 
L 390.396897 198.129299 
L 390.809891 198.415238 
L 391.532631 198.926481 
L 391.739128 199.103907 
L 392.633949 199.789938 
L 393.322272 200.33379 
L 393.494353 200.43575 
L 393.804099 200.65149 
L 394.251509 200.99258 
L 396.109983 202.365702 
L 396.282064 202.482791 
L 396.729474 202.832999 
L 397.073636 203.08167 
L 397.555462 203.445944 
L 397.865208 203.683879 
L 398.20937 203.948746 
L 398.450283 204.127287 
L 398.794445 204.388077 
L 399.173023 204.644266 
L 399.723682 205.071592 
L 400.136676 205.353509 
L 400.377589 205.575749 
L 400.99708 206.014169 
L 401.27241 206.226652 
L 401.375658 206.284796 
L 401.650988 206.494962 
L 401.926317 206.685437 
L 402.304895 206.995392 
L 402.408144 207.054078 
L 402.683473 207.276244 
L 403.1653 207.63567 
L 403.268548 207.697975 
L 403.750375 208.067763 
L 404.060121 208.277095 
L 405.092606 209.037179 
L 405.574432 209.404031 
L 405.849762 209.589706 
L 406.090675 209.775107 
L 406.22834 209.885559 
L 406.641334 210.169758 
L 407.019912 210.481941 
L 407.811484 211.036387 
L 408.190062 211.336516 
L 408.603056 211.65885 
L 408.912802 211.886065 
L 409.188131 212.067599 
L 409.566709 212.375851 
L 409.842039 212.573083 
L 410.771276 213.264464 
L 412.147923 214.287231 
L 412.698582 214.699321 
L 413.111576 214.992177 
L 413.52457 215.301945 
L 414.075229 215.684476 
L 414.384975 215.945947 
L 414.69472 216.170251 
L 415.692789 216.951107 
L 416.071367 217.219669 
L 417.861009 218.542656 
L 418.377251 218.933814 
L 418.790246 219.264496 
L 419.065575 219.45504 
L 419.788315 219.963569 
L 420.751968 220.746656 
L 420.958465 220.908269 
L 421.887702 221.604541 
L 422.507193 222.06608 
L 422.71369 222.230919 
L 423.195517 222.570581 
L 423.470846 222.799571 
L 426.568302 225.080124 
L 426.843632 225.299215 
L 427.084545 225.490519 
L 429.459261 227.254458 
L 429.459261 227.254458 
" clip-path="url(#pe99984f752)" style="fill: none; stroke: #0000ff; stroke-width: 1.5; stroke-linecap: square"/>
   </g>
   <g id="line2d_15">
    <path d="M 65.09 277.74 
L 446.810179 277.74 
" clip-path="url(#pe99984f752)" style="fill: none; stroke-dasharray: 0.37,0.16; stroke-dashoffset: 0; stroke: #000000; stroke-width: 0.1"/>
   </g>
   <g id="patch_3">
    <path d="M 65.09 289.24 
L 65.09 36.24 
" style="fill: none; stroke: #000000; stroke-width: 0.8; stroke-linejoin: miter; stroke-linecap: square"/>
   </g>
   <g id="patch_4">
    <path d="M 446.810179 289.24 
L 446.810179 36.24 
" style="fill: none; stroke: #000000; stroke-width: 0.8; stroke-linejoin: miter; stroke-linecap: square"/>
   </g>
   <g id="patch_5">
    <path d="M 65.09 289.24 
L 446.810179 289.24 
" style="fill: none; stroke: #000000; stroke-width: 0.8; stroke-linejoin: miter; stroke-linecap: square"/>
   </g>
   <g id="patch_6">
    <path d="M 65.09 36.24 
L 446.810179 36.24 
" style="fill: none; stroke: #000000; stroke-width: 0.8; stroke-linejoin: miter; stroke-linecap: square"/>
   </g>
   <g id="text_16">
    <!-- Quaternion Differences -->
    <g transform="translate(105.141964 30.24) scale(0.26 -0.26)">
     <defs>
      <path id="DejaVuSans-51" d="M 2522 4238 
Q 1834 4238 1429 3725 
Q 1025 3213 1025 2328 
Q 1025 1447 1429 934 
Q 1834 422 2522 422 
Q 3209 422 3611 934 
Q 4013 1447 4013 2328 
Q 4013 3213 3611 3725 
Q 3209 4238 2522 4238 
z
M 3406 84 
L 4238 -825 
L 3475 -825 
L 2784 -78 
Q 2681 -84 2626 -87 
Q 2572 -91 2522 -91 
Q 1538 -91 948 567 
Q 359 1225 359 2328 
Q 359 3434 948 4092 
Q 1538 4750 2522 4750 
Q 3503 4750 4090 4092 
Q 4678 3434 4678 2328 
Q 4678 1516 4351 937 
Q 4025 359 3406 84 
z
" transform="scale(0.015625)"/>
      <path id="DejaVuSans-75" d="M 544 1381 
L 544 3500 
L 1119 3500 
L 1119 1403 
Q 1119 906 1312 657 
Q 1506 409 1894 409 
Q 2359 409 2629 706 
Q 2900 1003 2900 1516 
L 2900 3500 
L 3475 3500 
L 3475 0 
L 2900 0 
L 2900 538 
Q 2691 219 2414 64 
Q 2138 -91 1772 -91 
Q 1169 -91 856 284 
Q 544 659 544 1381 
z
M 1991 3584 
L 1991 3584 
z
" transform="scale(0.015625)"/>
      <path id="DejaVuSans-6e" d="M 3513 2113 
L 3513 0 
L 2938 0 
L 2938 2094 
Q 2938 2591 2744 2837 
Q 2550 3084 2163 3084 
Q 1697 3084 1428 2787 
Q 1159 2491 1159 1978 
L 1159 0 
L 581 0 
L 581 3500 
L 1159 3500 
L 1159 2956 
Q 1366 3272 1645 3428 
Q 1925 3584 2291 3584 
Q 2894 3584 3203 3211 
Q 3513 2838 3513 2113 
z
" transform="scale(0.015625)"/>
      <path id="DejaVuSans-6f" d="M 1959 3097 
Q 1497 3097 1228 2736 
Q 959 2375 959 1747 
Q 959 1119 1226 758 
Q 1494 397 1959 397 
Q 2419 397 2687 759 
Q 2956 1122 2956 1747 
Q 2956 2369 2687 2733 
Q 2419 3097 1959 3097 
z
M 1959 3584 
Q 2709 3584 3137 3096 
Q 3566 2609 3566 1747 
Q 3566 888 3137 398 
Q 2709 -91 1959 -91 
Q 1206 -91 779 398 
Q 353 888 353 1747 
Q 353 2609 779 3096 
Q 1206 3584 1959 3584 
z
" transform="scale(0.015625)"/>
      <path id="DejaVuSans-20" transform="scale(0.015625)"/>
      <path id="DejaVuSans-44" d="M 1259 4147 
L 1259 519 
L 2022 519 
Q 2988 519 3436 956 
Q 3884 1394 3884 2338 
Q 3884 3275 3436 3711 
Q 2988 4147 2022 4147 
L 1259 4147 
z
M 628 4666 
L 1925 4666 
Q 3281 4666 3915 4102 
Q 4550 3538 4550 2338 
Q 4550 1131 3912 565 
Q 3275 0 1925 0 
L 628 0 
L 628 4666 
z
" transform="scale(0.015625)"/>
      <path id="DejaVuSans-66" d="M 2375 4863 
L 2375 4384 
L 1825 4384 
Q 1516 4384 1395 4259 
Q 1275 4134 1275 3809 
L 1275 3500 
L 2222 3500 
L 2222 3053 
L 1275 3053 
L 1275 0 
L 697 0 
L 697 3053 
L 147 3053 
L 147 3500 
L 697 3500 
L 697 3744 
Q 697 4328 969 4595 
Q 1241 4863 1831 4863 
L 2375 4863 
z
" transform="scale(0.015625)"/>
      <path id="DejaVuSans-63" d="M 3122 3366 
L 3122 2828 
Q 2878 2963 2633 3030 
Q 2388 3097 2138 3097 
Q 1578 3097 1268 2742 
Q 959 2388 959 1747 
Q 959 1106 1268 751 
Q 1578 397 2138 397 
Q 2388 397 2633 464 
Q 2878 531 3122 666 
L 3122 134 
Q 2881 22 2623 -34 
Q 2366 -91 2075 -91 
Q 1284 -91 818 406 
Q 353 903 353 1747 
Q 353 2603 823 3093 
Q 1294 3584 2113 3584 
Q 2378 3584 2631 3529 
Q 2884 3475 3122 3366 
z
" transform="scale(0.015625)"/>
     </defs>
     <use xlink:href="#DejaVuSans-51"/>
     <use xlink:href="#DejaVuSans-75" x="78.710938"/>
     <use xlink:href="#DejaVuSans-61" x="142.089844"/>
     <use xlink:href="#DejaVuSans-74" x="203.369141"/>
     <use xlink:href="#DejaVuSans-65" x="242.578125"/>
     <use xlink:href="#DejaVuSans-72" x="304.101562"/>
     <use xlink:href="#DejaVuSans-6e" x="343.464844"/>
     <use xlink:href="#DejaVuSans-69" x="406.84375"/>
     <use xlink:href="#DejaVuSans-6f" x="434.626953"/>
     <use xlink:href="#DejaVuSans-6e" x="495.808594"/>
     <use xlink:href="#DejaVuSans-20" x="559.1875"/>
     <use xlink:href="#DejaVuSans-44" x="590.974609"/>
     <use xlink:href="#DejaVuSans-69" x="667.976562"/>
     <use xlink:href="#DejaVuSans-66" x="695.759766"/>
     <use xlink:href="#DejaVuSans-66" x="730.964844"/>
     <use xlink:href="#DejaVuSans-65" x="766.169922"/>
     <use xlink:href="#DejaVuSans-72" x="827.693359"/>
     <use xlink:href="#DejaVuSans-65" x="866.556641"/>
     <use xlink:href="#DejaVuSans-6e" x="928.080078"/>
     <use xlink:href="#DejaVuSans-63" x="991.458984"/>
     <use xlink:href="#DejaVuSans-65" x="1046.439453"/>
     <use xlink:href="#DejaVuSans-73" x="1107.962891"/>
    </g>
   </g>
  </g>
 </g>
 <defs>
  <clipPath id="pe99984f752">
   <rect x="65.09" y="36.24" width="381.720179" height="253"/>
  </clipPath>
 </defs>
</svg>
