<?xml version="1.0" encoding="utf-8" standalone="no"?>
<!DOCTYPE svg PUBLIC "-//W3C//DTD SVG 1.1//EN"
  "http://www.w3.org/Graphics/SVG/1.1/DTD/svg11.dtd">
<svg xmlns:xlink="http://www.w3.org/1999/xlink" width="460.8pt" height="345.6pt" viewBox="0 0 460.8 345.6" xmlns="http://www.w3.org/2000/svg" version="1.1">
 <metadata>
  <rdf:RDF xmlns:dc="http://purl.org/dc/elements/1.1/" xmlns:cc="http://creativecommons.org/ns#" xmlns:rdf="http://www.w3.org/1999/02/22-rdf-syntax-ns#">
   <cc:Work>
    <dc:type rdf:resource="http://purl.org/dc/dcmitype/StillImage"/>
    <dc:date>2024-10-17T20:59:41.042379</dc:date>
    <dc:format>image/svg+xml</dc:format>
    <dc:creator>
     <cc:Agent>
      <dc:title>Matplotlib v3.7.5, https://matplotlib.org/</dc:title>
     </cc:Agent>
    </dc:creator>
   </cc:Work>
  </rdf:RDF>
 </metadata>
 <defs>
  <style type="text/css">*{stroke-linejoin: round; stroke-linecap: butt}</style>
 </defs>
 <g id="figure_1">
  <g id="patch_1">
   <path d="M 0 345.6 
L 460.8 345.6 
L 460.8 0 
L 0 0 
z
" style="fill: #ffffff"/>
  </g>
  <g id="axes_1">
   <g id="patch_2">
    <path d="M 65 289.24 
L 446.810179 289.24 
L 446.810179 36.24 
L 65 36.24 
z
" style="fill: #ffffff"/>
   </g>
   <g id="matplotlib.axis_1">
    <g id="xtick_1">
     <g id="line2d_1">
      <defs>
       <path id="mc532726ebd" d="M 0 0 
L 0 3.5 
" style="stroke: #000000; stroke-width: 0.8"/>
      </defs>
      <g>
       <use xlink:href="#mc532726ebd" x="82.355008" y="289.24" style="stroke: #000000; stroke-width: 0.8"/>
      </g>
     </g>
     <g id="text_1">
      <!-- 0 -->
      <g transform="translate(77.901258 306.877813) scale(0.14 -0.14)">
       <defs>
        <path id="DejaVuSans-30" d="M 2034 4250 
Q 1547 4250 1301 3770 
Q 1056 3291 1056 2328 
Q 1056 1369 1301 889 
Q 1547 409 2034 409 
Q 2525 409 2770 889 
Q 3016 1369 3016 2328 
Q 3016 3291 2770 3770 
Q 2525 4250 2034 4250 
z
M 2034 4750 
Q 2819 4750 3233 4129 
Q 3647 3509 3647 2328 
Q 3647 1150 3233 529 
Q 2819 -91 2034 -91 
Q 1250 -91 836 529 
Q 422 1150 422 2328 
Q 422 3509 836 4129 
Q 1250 4750 2034 4750 
z
" transform="scale(0.015625)"/>
       </defs>
       <use xlink:href="#DejaVuSans-30"/>
      </g>
     </g>
    </g>
    <g id="xtick_2">
     <g id="line2d_2">
      <g>
       <use xlink:href="#mc532726ebd" x="151.203597" y="289.24" style="stroke: #000000; stroke-width: 0.8"/>
      </g>
     </g>
     <g id="text_2">
      <!-- 2000 -->
      <g transform="translate(133.388597 306.877813) scale(0.14 -0.14)">
       <defs>
        <path id="DejaVuSans-32" d="M 1228 531 
L 3431 531 
L 3431 0 
L 469 0 
L 469 531 
Q 828 903 1448 1529 
Q 2069 2156 2228 2338 
Q 2531 2678 2651 2914 
Q 2772 3150 2772 3378 
Q 2772 3750 2511 3984 
Q 2250 4219 1831 4219 
Q 1534 4219 1204 4116 
Q 875 4013 500 3803 
L 500 4441 
Q 881 4594 1212 4672 
Q 1544 4750 1819 4750 
Q 2544 4750 2975 4387 
Q 3406 4025 3406 3419 
Q 3406 3131 3298 2873 
Q 3191 2616 2906 2266 
Q 2828 2175 2409 1742 
Q 1991 1309 1228 531 
z
" transform="scale(0.015625)"/>
       </defs>
       <use xlink:href="#DejaVuSans-32"/>
       <use xlink:href="#DejaVuSans-30" x="63.623047"/>
       <use xlink:href="#DejaVuSans-30" x="127.246094"/>
       <use xlink:href="#DejaVuSans-30" x="190.869141"/>
      </g>
     </g>
    </g>
    <g id="xtick_3">
     <g id="line2d_3">
      <g>
       <use xlink:href="#mc532726ebd" x="220.052187" y="289.24" style="stroke: #000000; stroke-width: 0.8"/>
      </g>
     </g>
     <g id="text_3">
      <!-- 4000 -->
      <g transform="translate(202.237187 306.877813) scale(0.14 -0.14)">
       <defs>
        <path id="DejaVuSans-34" d="M 2419 4116 
L 825 1625 
L 2419 1625 
L 2419 4116 
z
M 2253 4666 
L 3047 4666 
L 3047 1625 
L 3713 1625 
L 3713 1100 
L 3047 1100 
L 3047 0 
L 2419 0 
L 2419 1100 
L 313 1100 
L 313 1709 
L 2253 4666 
z
" transform="scale(0.015625)"/>
       </defs>
       <use xlink:href="#DejaVuSans-34"/>
       <use xlink:href="#DejaVuSans-30" x="63.623047"/>
       <use xlink:href="#DejaVuSans-30" x="127.246094"/>
       <use xlink:href="#DejaVuSans-30" x="190.869141"/>
      </g>
     </g>
    </g>
    <g id="xtick_4">
     <g id="line2d_4">
      <g>
       <use xlink:href="#mc532726ebd" x="288.900776" y="289.24" style="stroke: #000000; stroke-width: 0.8"/>
      </g>
     </g>
     <g id="text_4">
      <!-- 6000 -->
      <g transform="translate(271.085776 306.877813) scale(0.14 -0.14)">
       <defs>
        <path id="DejaVuSans-36" d="M 2113 2584 
Q 1688 2584 1439 2293 
Q 1191 2003 1191 1497 
Q 1191 994 1439 701 
Q 1688 409 2113 409 
Q 2538 409 2786 701 
Q 3034 994 3034 1497 
Q 3034 2003 2786 2293 
Q 2538 2584 2113 2584 
z
M 3366 4563 
L 3366 3988 
Q 3128 4100 2886 4159 
Q 2644 4219 2406 4219 
Q 1781 4219 1451 3797 
Q 1122 3375 1075 2522 
Q 1259 2794 1537 2939 
Q 1816 3084 2150 3084 
Q 2853 3084 3261 2657 
Q 3669 2231 3669 1497 
Q 3669 778 3244 343 
Q 2819 -91 2113 -91 
Q 1303 -91 875 529 
Q 447 1150 447 2328 
Q 447 3434 972 4092 
Q 1497 4750 2381 4750 
Q 2619 4750 2861 4703 
Q 3103 4656 3366 4563 
z
" transform="scale(0.015625)"/>
       </defs>
       <use xlink:href="#DejaVuSans-36"/>
       <use xlink:href="#DejaVuSans-30" x="63.623047"/>
       <use xlink:href="#DejaVuSans-30" x="127.246094"/>
       <use xlink:href="#DejaVuSans-30" x="190.869141"/>
      </g>
     </g>
    </g>
    <g id="xtick_5">
     <g id="line2d_5">
      <g>
       <use xlink:href="#mc532726ebd" x="357.749365" y="289.24" style="stroke: #000000; stroke-width: 0.8"/>
      </g>
     </g>
     <g id="text_5">
      <!-- 8000 -->
      <g transform="translate(339.934365 306.877813) scale(0.14 -0.14)">
       <defs>
        <path id="DejaVuSans-38" d="M 2034 2216 
Q 1584 2216 1326 1975 
Q 1069 1734 1069 1313 
Q 1069 891 1326 650 
Q 1584 409 2034 409 
Q 2484 409 2743 651 
Q 3003 894 3003 1313 
Q 3003 1734 2745 1975 
Q 2488 2216 2034 2216 
z
M 1403 2484 
Q 997 2584 770 2862 
Q 544 3141 544 3541 
Q 544 4100 942 4425 
Q 1341 4750 2034 4750 
Q 2731 4750 3128 4425 
Q 3525 4100 3525 3541 
Q 3525 3141 3298 2862 
Q 3072 2584 2669 2484 
Q 3125 2378 3379 2068 
Q 3634 1759 3634 1313 
Q 3634 634 3220 271 
Q 2806 -91 2034 -91 
Q 1263 -91 848 271 
Q 434 634 434 1313 
Q 434 1759 690 2068 
Q 947 2378 1403 2484 
z
M 1172 3481 
Q 1172 3119 1398 2916 
Q 1625 2713 2034 2713 
Q 2441 2713 2670 2916 
Q 2900 3119 2900 3481 
Q 2900 3844 2670 4047 
Q 2441 4250 2034 4250 
Q 1625 4250 1398 4047 
Q 1172 3844 1172 3481 
z
" transform="scale(0.015625)"/>
       </defs>
       <use xlink:href="#DejaVuSans-38"/>
       <use xlink:href="#DejaVuSans-30" x="63.623047"/>
       <use xlink:href="#DejaVuSans-30" x="127.246094"/>
       <use xlink:href="#DejaVuSans-30" x="190.869141"/>
      </g>
     </g>
    </g>
    <g id="xtick_6">
     <g id="line2d_6">
      <g>
       <use xlink:href="#mc532726ebd" x="426.597954" y="289.24" style="stroke: #000000; stroke-width: 0.8"/>
      </g>
     </g>
     <g id="text_6">
      <!-- 10000 -->
      <g transform="translate(404.329204 306.877813) scale(0.14 -0.14)">
       <defs>
        <path id="DejaVuSans-31" d="M 794 531 
L 1825 531 
L 1825 4091 
L 703 3866 
L 703 4441 
L 1819 4666 
L 2450 4666 
L 2450 531 
L 3481 531 
L 3481 0 
L 794 0 
L 794 531 
z
" transform="scale(0.015625)"/>
       </defs>
       <use xlink:href="#DejaVuSans-31"/>
       <use xlink:href="#DejaVuSans-30" x="63.623047"/>
       <use xlink:href="#DejaVuSans-30" x="127.246094"/>
       <use xlink:href="#DejaVuSans-30" x="190.869141"/>
       <use xlink:href="#DejaVuSans-30" x="254.492188"/>
      </g>
     </g>
    </g>
    <g id="text_7">
     <!-- Timesteps -->
     <g transform="translate(199.466496 330.505937) scale(0.22 -0.22)">
      <defs>
       <path id="DejaVuSans-54" d="M -19 4666 
L 3928 4666 
L 3928 4134 
L 2272 4134 
L 2272 0 
L 1638 0 
L 1638 4134 
L -19 4134 
L -19 4666 
z
" transform="scale(0.015625)"/>
       <path id="DejaVuSans-69" d="M 603 3500 
L 1178 3500 
L 1178 0 
L 603 0 
L 603 3500 
z
M 603 4863 
L 1178 4863 
L 1178 4134 
L 603 4134 
L 603 4863 
z
" transform="scale(0.015625)"/>
       <path id="DejaVuSans-6d" d="M 3328 2828 
Q 3544 3216 3844 3400 
Q 4144 3584 4550 3584 
Q 5097 3584 5394 3201 
Q 5691 2819 5691 2113 
L 5691 0 
L 5113 0 
L 5113 2094 
Q 5113 2597 4934 2840 
Q 4756 3084 4391 3084 
Q 3944 3084 3684 2787 
Q 3425 2491 3425 1978 
L 3425 0 
L 2847 0 
L 2847 2094 
Q 2847 2600 2669 2842 
Q 2491 3084 2119 3084 
Q 1678 3084 1418 2786 
Q 1159 2488 1159 1978 
L 1159 0 
L 581 0 
L 581 3500 
L 1159 3500 
L 1159 2956 
Q 1356 3278 1631 3431 
Q 1906 3584 2284 3584 
Q 2666 3584 2933 3390 
Q 3200 3197 3328 2828 
z
" transform="scale(0.015625)"/>
       <path id="DejaVuSans-65" d="M 3597 1894 
L 3597 1613 
L 953 1613 
Q 991 1019 1311 708 
Q 1631 397 2203 397 
Q 2534 397 2845 478 
Q 3156 559 3463 722 
L 3463 178 
Q 3153 47 2828 -22 
Q 2503 -91 2169 -91 
Q 1331 -91 842 396 
Q 353 884 353 1716 
Q 353 2575 817 3079 
Q 1281 3584 2069 3584 
Q 2775 3584 3186 3129 
Q 3597 2675 3597 1894 
z
M 3022 2063 
Q 3016 2534 2758 2815 
Q 2500 3097 2075 3097 
Q 1594 3097 1305 2825 
Q 1016 2553 972 2059 
L 3022 2063 
z
" transform="scale(0.015625)"/>
       <path id="DejaVuSans-73" d="M 2834 3397 
L 2834 2853 
Q 2591 2978 2328 3040 
Q 2066 3103 1784 3103 
Q 1356 3103 1142 2972 
Q 928 2841 928 2578 
Q 928 2378 1081 2264 
Q 1234 2150 1697 2047 
L 1894 2003 
Q 2506 1872 2764 1633 
Q 3022 1394 3022 966 
Q 3022 478 2636 193 
Q 2250 -91 1575 -91 
Q 1294 -91 989 -36 
Q 684 19 347 128 
L 347 722 
Q 666 556 975 473 
Q 1284 391 1588 391 
Q 1994 391 2212 530 
Q 2431 669 2431 922 
Q 2431 1156 2273 1281 
Q 2116 1406 1581 1522 
L 1381 1569 
Q 847 1681 609 1914 
Q 372 2147 372 2553 
Q 372 3047 722 3315 
Q 1072 3584 1716 3584 
Q 2034 3584 2315 3537 
Q 2597 3491 2834 3397 
z
" transform="scale(0.015625)"/>
       <path id="DejaVuSans-74" d="M 1172 4494 
L 1172 3500 
L 2356 3500 
L 2356 3053 
L 1172 3053 
L 1172 1153 
Q 1172 725 1289 603 
Q 1406 481 1766 481 
L 2356 481 
L 2356 0 
L 1766 0 
Q 1100 0 847 248 
Q 594 497 594 1153 
L 594 3053 
L 172 3053 
L 172 3500 
L 594 3500 
L 594 4494 
L 1172 4494 
z
" transform="scale(0.015625)"/>
       <path id="DejaVuSans-70" d="M 1159 525 
L 1159 -1331 
L 581 -1331 
L 581 3500 
L 1159 3500 
L 1159 2969 
Q 1341 3281 1617 3432 
Q 1894 3584 2278 3584 
Q 2916 3584 3314 3078 
Q 3713 2572 3713 1747 
Q 3713 922 3314 415 
Q 2916 -91 2278 -91 
Q 1894 -91 1617 61 
Q 1341 213 1159 525 
z
M 3116 1747 
Q 3116 2381 2855 2742 
Q 2594 3103 2138 3103 
Q 1681 3103 1420 2742 
Q 1159 2381 1159 1747 
Q 1159 1113 1420 752 
Q 1681 391 2138 391 
Q 2594 391 2855 752 
Q 3116 1113 3116 1747 
z
" transform="scale(0.015625)"/>
      </defs>
      <use xlink:href="#DejaVuSans-54"/>
      <use xlink:href="#DejaVuSans-69" x="57.958984"/>
      <use xlink:href="#DejaVuSans-6d" x="85.742188"/>
      <use xlink:href="#DejaVuSans-65" x="183.154297"/>
      <use xlink:href="#DejaVuSans-73" x="244.677734"/>
      <use xlink:href="#DejaVuSans-74" x="296.777344"/>
      <use xlink:href="#DejaVuSans-65" x="335.986328"/>
      <use xlink:href="#DejaVuSans-70" x="397.509766"/>
      <use xlink:href="#DejaVuSans-73" x="460.986328"/>
     </g>
    </g>
   </g>
   <g id="matplotlib.axis_2">
    <g id="ytick_1">
     <g id="line2d_7">
      <defs>
       <path id="m2e93a65eea" d="M 0 0 
L -3.5 0 
" style="stroke: #000000; stroke-width: 0.8"/>
      </defs>
      <g>
       <use xlink:href="#m2e93a65eea" x="65" y="273.684341" style="stroke: #000000; stroke-width: 0.8"/>
      </g>
     </g>
     <g id="text_8">
      <!-- 0.0 -->
      <g transform="translate(35.735625 279.003247) scale(0.14 -0.14)">
       <defs>
        <path id="DejaVuSans-2e" d="M 684 794 
L 1344 794 
L 1344 0 
L 684 0 
L 684 794 
z
" transform="scale(0.015625)"/>
       </defs>
       <use xlink:href="#DejaVuSans-30"/>
       <use xlink:href="#DejaVuSans-2e" x="63.623047"/>
       <use xlink:href="#DejaVuSans-30" x="95.410156"/>
      </g>
     </g>
    </g>
    <g id="ytick_2">
     <g id="line2d_8">
      <g>
       <use xlink:href="#m2e93a65eea" x="65" y="239.095095" style="stroke: #000000; stroke-width: 0.8"/>
      </g>
     </g>
     <g id="text_9">
      <!-- 0.2 -->
      <g transform="translate(35.735625 244.414001) scale(0.14 -0.14)">
       <use xlink:href="#DejaVuSans-30"/>
       <use xlink:href="#DejaVuSans-2e" x="63.623047"/>
       <use xlink:href="#DejaVuSans-32" x="95.410156"/>
      </g>
     </g>
    </g>
    <g id="ytick_3">
     <g id="line2d_9">
      <g>
       <use xlink:href="#m2e93a65eea" x="65" y="204.505848" style="stroke: #000000; stroke-width: 0.8"/>
      </g>
     </g>
     <g id="text_10">
      <!-- 0.4 -->
      <g transform="translate(35.735625 209.824754) scale(0.14 -0.14)">
       <use xlink:href="#DejaVuSans-30"/>
       <use xlink:href="#DejaVuSans-2e" x="63.623047"/>
       <use xlink:href="#DejaVuSans-34" x="95.410156"/>
      </g>
     </g>
    </g>
    <g id="ytick_4">
     <g id="line2d_10">
      <g>
       <use xlink:href="#m2e93a65eea" x="65" y="169.916601" style="stroke: #000000; stroke-width: 0.8"/>
      </g>
     </g>
     <g id="text_11">
      <!-- 0.6 -->
      <g transform="translate(35.735625 175.235508) scale(0.14 -0.14)">
       <use xlink:href="#DejaVuSans-30"/>
       <use xlink:href="#DejaVuSans-2e" x="63.623047"/>
       <use xlink:href="#DejaVuSans-36" x="95.410156"/>
      </g>
     </g>
    </g>
    <g id="ytick_5">
     <g id="line2d_11">
      <g>
       <use xlink:href="#m2e93a65eea" x="65" y="135.327355" style="stroke: #000000; stroke-width: 0.8"/>
      </g>
     </g>
     <g id="text_12">
      <!-- 0.8 -->
      <g transform="translate(35.735625 140.646261) scale(0.14 -0.14)">
       <use xlink:href="#DejaVuSans-30"/>
       <use xlink:href="#DejaVuSans-2e" x="63.623047"/>
       <use xlink:href="#DejaVuSans-38" x="95.410156"/>
      </g>
     </g>
    </g>
    <g id="ytick_6">
     <g id="line2d_12">
      <g>
       <use xlink:href="#m2e93a65eea" x="65" y="100.738108" style="stroke: #000000; stroke-width: 0.8"/>
      </g>
     </g>
     <g id="text_13">
      <!-- 1.0 -->
      <g transform="translate(35.735625 106.057014) scale(0.14 -0.14)">
       <use xlink:href="#DejaVuSans-31"/>
       <use xlink:href="#DejaVuSans-2e" x="63.623047"/>
       <use xlink:href="#DejaVuSans-30" x="95.410156"/>
      </g>
     </g>
    </g>
    <g id="ytick_7">
     <g id="line2d_13">
      <g>
       <use xlink:href="#m2e93a65eea" x="65" y="66.148861" style="stroke: #000000; stroke-width: 0.8"/>
      </g>
     </g>
     <g id="text_14">
      <!-- 1.2 -->
      <g transform="translate(35.735625 71.467768) scale(0.14 -0.14)">
       <use xlink:href="#DejaVuSans-31"/>
       <use xlink:href="#DejaVuSans-2e" x="63.623047"/>
       <use xlink:href="#DejaVuSans-32" x="95.410156"/>
      </g>
     </g>
    </g>
    <g id="text_15">
     <!-- meter -->
     <g transform="translate(27.160313 195.825937) rotate(-90) scale(0.22 -0.22)">
      <defs>
       <path id="DejaVuSans-72" d="M 2631 2963 
Q 2534 3019 2420 3045 
Q 2306 3072 2169 3072 
Q 1681 3072 1420 2755 
Q 1159 2438 1159 1844 
L 1159 0 
L 581 0 
L 581 3500 
L 1159 3500 
L 1159 2956 
Q 1341 3275 1631 3429 
Q 1922 3584 2338 3584 
Q 2397 3584 2469 3576 
Q 2541 3569 2628 3553 
L 2631 2963 
z
" transform="scale(0.015625)"/>
      </defs>
      <use xlink:href="#DejaVuSans-6d"/>
      <use xlink:href="#DejaVuSans-65" x="97.412109"/>
      <use xlink:href="#DejaVuSans-74" x="158.935547"/>
      <use xlink:href="#DejaVuSans-65" x="198.144531"/>
      <use xlink:href="#DejaVuSans-72" x="259.667969"/>
     </g>
    </g>
   </g>
   <g id="line2d_14">
    <path d="M 82.355008 273.752898 
L 82.630402 273.73413 
L 82.836948 273.448951 
L 83.077918 273.345119 
L 83.25004 273.224739 
L 83.353313 273.147706 
L 83.525434 273.048645 
L 83.97295 272.701485 
L 84.145071 272.61098 
L 84.386042 272.455734 
L 85.005679 272.016346 
L 85.1778 271.935465 
L 85.384346 271.77668 
L 86.589196 270.950312 
L 86.761318 270.870286 
L 87.036712 270.667751 
L 87.208834 270.573962 
L 87.518652 270.328537 
L 87.725198 270.229241 
L 87.966168 270.056107 
L 88.069441 269.99803 
L 88.275987 269.85669 
L 88.37926 269.799428 
L 88.551381 269.68393 
L 88.654654 269.624742 
L 88.826776 269.504582 
L 89.893929 268.78512 
L 90.06605 268.677312 
L 90.54799 268.34523 
L 90.720112 268.248306 
L 91.02993 268.00537 
L 91.236476 267.918802 
L 91.477446 267.738794 
L 91.580719 267.683419 
L 91.787265 267.524316 
L 91.959386 267.422694 
L 92.269205 267.189248 
L 92.441326 267.091281 
L 92.716721 266.896376 
L 92.888842 266.807239 
L 93.095388 266.651749 
L 93.26751 266.556028 
L 93.577328 266.304329 
L 93.783874 266.207007 
L 94.024844 266.042948 
L 94.128117 265.994369 
L 94.300238 265.835224 
L 94.506784 265.742766 
L 94.678906 265.573931 
L 94.851027 265.510915 
L 95.023149 265.375049 
L 95.401816 265.075269 
L 95.608362 265.007651 
L 95.849332 264.820187 
L 95.952604 264.756728 
L 96.15915 264.623283 
L 96.262423 264.569365 
L 96.503393 264.360629 
L 97.639395 263.650211 
L 97.880365 263.452222 
L 98.086911 263.362366 
L 98.327881 263.166618 
L 98.500002 263.074215 
L 98.775397 262.878765 
L 98.87867 262.811063 
L 99.11964 262.639239 
L 99.291761 262.549556 
L 99.60158 262.333432 
L 100.32449 261.87826 
L 100.634309 261.631434 
L 100.840854 261.530044 
L 101.081824 261.346126 
L 101.185097 261.291993 
L 101.391643 261.136137 
L 101.494916 261.086157 
L 101.667037 260.94507 
L 101.839159 260.845976 
L 102.114553 260.648781 
L 102.286675 260.544843 
L 102.562069 260.362489 
L 102.734191 260.262212 
L 103.044009 260.015378 
L 103.250555 259.915644 
L 103.560374 259.69338 
L 103.766919 259.590678 
L 104.145587 259.283095 
L 104.283284 259.239448 
L 104.455405 259.071101 
L 104.661951 258.977127 
L 104.868497 258.815836 
L 105.556983 258.331342 
L 105.729104 258.223142 
L 106.004499 258.02662 
L 106.727409 257.567797 
L 106.830682 257.525462 
L 107.002803 257.379664 
L 107.174925 257.287529 
L 107.450319 257.058827 
L 107.62244 256.983233 
L 107.86341 256.798002 
L 108.069956 256.695408 
L 108.242078 256.557356 
L 108.414199 256.459217 
L 108.689593 256.254193 
L 108.861715 256.16569 
L 109.171534 255.913038 
L 109.378079 255.826004 
L 109.550201 255.669786 
L 109.722322 255.574852 
L 109.928868 255.423204 
L 110.10099 255.339307 
L 110.307535 255.193362 
L 110.410808 255.146944 
L 110.617354 254.963781 
L 111.099294 254.63547 
L 111.271416 254.52442 
L 111.477961 254.390047 
L 111.753356 254.187027 
L 111.925477 254.099733 
L 112.132023 253.952685 
L 112.304144 253.857509 
L 112.545114 253.652281 
L 112.75166 253.552096 
L 113.130327 253.263217 
L 113.336873 253.173339 
L 113.577843 252.995462 
L 113.749965 252.895294 
L 113.956511 252.754153 
L 114.128632 252.663122 
L 114.300754 252.495227 
L 114.507299 252.384759 
L 115.436755 251.791299 
L 115.677725 251.588903 
L 115.884271 251.514133 
L 116.125241 251.302932 
L 116.297363 251.220946 
L 116.503908 251.065214 
L 116.67603 250.961897 
L 116.882576 250.823753 
L 117.054697 250.716384 
L 117.812032 250.201697 
L 117.984153 250.105786 
L 118.190699 249.966112 
L 118.36282 249.864184 
L 118.60379 249.670113 
L 118.775912 249.57977 
L 118.948033 249.483823 
L 119.429973 249.141924 
L 119.602095 249.046613 
L 119.774216 248.911741 
L 119.946338 248.809154 
L 120.221732 248.603857 
L 120.393854 248.52907 
L 120.600399 248.382208 
L 120.703672 248.328954 
L 120.944642 248.127128 
L 121.116764 248.04285 
L 121.357734 247.874241 
L 121.80525 247.544164 
L 122.011795 247.464276 
L 122.28719 247.252459 
L 124.146102 246.017605 
L 124.283799 245.968878 
L 124.45592 245.830882 
L 124.559193 245.776596 
L 124.731315 245.637011 
L 124.869012 245.566774 
L 125.178831 245.333622 
L 125.385376 245.222713 
L 125.867316 244.881288 
L 125.970589 244.86265 
L 126.142711 244.683861 
L 126.314832 244.606887 
L 126.590227 244.4096 
L 126.762348 244.321544 
L 126.93447 244.177833 
L 127.106591 244.068278 
L 127.381985 243.88569 
L 127.554107 243.799379 
L 127.760653 243.621933 
L 127.932774 243.542965 
L 128.104896 243.405361 
L 128.277017 243.298362 
L 128.449139 243.205869 
L 129.34417 242.592466 
L 129.516292 242.50367 
L 129.722837 242.340164 
L 129.894959 242.270962 
L 130.06708 242.115158 
L 130.273626 242.027693 
L 130.445748 241.887988 
L 130.549021 241.832623 
L 130.721142 241.678983 
L 130.824415 241.608092 
L 131.030961 241.47911 
L 131.203082 241.374217 
L 131.444052 241.187077 
L 131.650598 241.095161 
L 131.891568 240.900666 
L 131.994841 240.836266 
L 132.132538 240.7374 
L 132.30466 240.681207 
L 132.476781 240.538612 
L 132.580054 240.47265 
L 132.752175 240.395586 
L 132.993145 240.202011 
L 133.096418 240.132745 
L 133.371813 239.960736 
L 133.475086 239.918104 
L 133.647207 239.802894 
L 133.75048 239.743862 
L 133.922601 239.576611 
L 134.197996 239.416842 
L 134.370117 239.322626 
L 134.47339 239.247828 
L 134.645512 239.120255 
L 135.058603 238.853274 
L 135.402846 238.603432 
L 135.574968 238.517387 
L 135.747089 238.383204 
L 135.884786 238.305668 
L 136.125756 238.126114 
L 136.229029 238.08347 
L 136.401151 237.961484 
L 136.504424 237.903259 
L 136.710969 237.732279 
L 136.951939 237.638085 
L 137.124061 237.483522 
L 138.948548 236.274894 
L 139.086246 236.219841 
L 139.292791 236.074079 
L 139.637034 235.827162 
L 139.809156 235.750098 
L 140.222247 235.454539 
L 140.394369 235.378985 
L 140.635339 235.19045 
L 140.738612 235.141681 
L 140.945158 234.985013 
L 141.117279 234.902901 
L 141.392673 234.706449 
L 144.146617 232.923952 
L 144.318738 232.827798 
L 146.728439 231.30454 
L 146.831712 231.281736 
L 147.003833 231.084738 
L 147.141531 231.07393 
L 147.313652 230.888509 
L 147.485773 230.799269 
L 147.692319 230.660205 
L 147.795592 230.568723 
L 148.208684 230.347795 
L 148.380805 230.243579 
L 148.587351 230.103892 
L 148.931594 229.8835 
L 149.103715 229.773457 
L 149.447958 229.574806 
L 149.62008 229.465603 
L 149.792201 229.337604 
L 149.964323 229.268462 
L 150.136444 229.111342 
L 150.308566 229.042363 
L 150.480687 228.918461 
L 150.618384 228.915894 
L 150.790506 228.692749 
L 150.962627 228.643458 
L 151.134749 228.538746 
L 151.341294 228.417187 
L 151.444567 228.355115 
L 151.685537 228.190134 
L 152.546145 227.723377 
L 152.752691 227.613703 
L 153.716571 227.085437 
L 153.888692 226.98903 
L 154.577178 226.617173 
L 154.783724 226.507848 
L 154.955845 226.433384 
L 155.127967 226.357095 
L 155.334513 226.236454 
L 155.506634 226.174806 
L 155.678756 226.091483 
L 155.850877 225.993453 
L 156.057423 225.910432 
L 156.229544 225.853864 
L 156.401666 225.753116 
L 156.539363 225.700648 
L 156.67706 225.611192 
L 156.883606 225.521448 
L 157.055727 225.453114 
L 157.331122 225.373087 
L 157.572092 225.232769 
L 157.813062 225.160893 
L 157.985183 225.097469 
L 162.253796 223.826894 
L 162.77016 223.721788 
L 162.907857 223.692203 
L 163.320949 223.616927 
L 163.768465 223.51295 
L 163.906162 223.472308 
L 164.456951 223.410397 
L 164.594648 223.368189 
L 164.732345 223.355004 
L 164.904467 223.343815 
L 167.279743 223.090872 
L 168.105926 223.028197 
L 168.243623 222.966703 
L 168.415745 223.029132 
L 168.691139 222.93208 
L 168.897685 222.930076 
L 171.410658 222.820087 
L 176.195635 222.763413 
L 176.333332 222.768277 
L 176.987394 222.773851 
L 177.159515 222.747966 
L 182.460857 222.85548 
L 182.942797 222.885605 
L 183.28704 222.878413 
L 185.627892 222.988765 
L 189.86208 223.203351 
L 190.894809 223.303784 
L 191.273476 223.364487 
L 191.755416 223.397027 
L 194.165117 223.690551 
L 194.371663 223.706297 
L 195.197846 223.814233 
L 195.920756 223.916679 
L 196.127302 223.962873 
L 196.919061 224.019201 
L 197.607546 224.118355 
L 198.055062 224.188544 
L 198.984518 224.290092 
L 199.191064 224.316079 
L 199.776277 224.407532 
L 200.017247 224.450432 
L 200.568036 224.530571 
L 201.32537 224.63652 
L 201.738462 224.687962 
L 202.495796 224.788623 
L 202.667918 224.835978 
L 203.356404 224.934566 
L 203.769495 224.992733 
L 204.320284 225.084768 
L 204.492405 225.096222 
L 205.043194 225.206181 
L 206.179196 225.365382 
L 206.798833 225.458385 
L 207.039803 225.516302 
L 207.590592 225.601018 
L 207.762713 225.652113 
L 208.451199 225.757532 
L 208.623321 225.783235 
L 223.666737 227.786594 
L 223.804435 227.795125 
L 223.976556 227.818239 
L 225.181406 227.921131 
L 225.353528 227.932246 
L 226.558378 228.035274 
L 226.833773 228.053932 
L 228.038623 228.16209 
L 228.554987 228.226914 
L 228.761533 228.222807 
L 229.036927 228.236836 
L 230.172929 228.334775 
L 230.482748 228.373001 
L 231.687598 228.462185 
L 231.85972 228.478264 
L 233.959602 228.630256 
L 235.198876 228.713036 
L 236.541424 228.823495 
L 236.816818 228.855744 
L 238.228214 228.964167 
L 238.572457 228.996449 
L 239.846156 229.09879 
L 240.259247 229.141174 
L 241.601795 229.246008 
L 241.842765 229.272319 
L 243.047615 229.374749 
L 243.529555 229.413057 
L 244.183617 229.457548 
L 245.629437 229.562422 
L 245.904832 229.581729 
L 247.729319 229.691348 
L 248.142411 229.714673 
L 250.276717 229.823813 
L 250.552112 229.839819 
L 252.824115 229.94926 
L 256.23212 230.06984 
L 258.676245 230.177505 
L 259.054912 230.213373 
L 260.982673 230.321565 
L 261.223643 230.349228 
L 262.015402 230.415443 
L 262.221947 230.429506 
L 264.562799 230.743768 
L 264.838194 230.78405 
L 265.388982 230.887129 
L 266.559409 231.127878 
L 266.765954 231.163001 
L 267.179046 231.255568 
L 267.626562 231.348753 
L 267.833107 231.402031 
L 268.280623 231.510097 
L 268.796988 231.623471 
L 269.278928 231.724932 
L 270.621475 232.074126 
L 271.103415 232.166742 
L 271.413234 232.254468 
L 271.757477 232.346866 
L 272.032871 232.422027 
L 272.652509 232.584233 
L 273.237722 232.725353 
L 273.444267 232.800654 
L 273.650813 232.853954 
L 273.926208 232.931817 
L 274.339299 233.028761 
L 274.717966 233.130216 
L 275.062209 233.227528 
L 275.819544 233.448485 
L 276.198211 233.547452 
L 277.127667 233.7919 
L 277.47191 233.893384 
L 277.71288 233.983619 
L 278.091547 234.078534 
L 278.332517 234.14126 
L 278.848882 234.298644 
L 279.571792 234.499516 
L 279.950459 234.640629 
L 280.363551 234.749747 
L 280.604521 234.850903 
L 281.017612 234.960189 
L 281.293007 235.046762 
L 281.602825 235.15344 
L 281.912644 235.263809 
L 282.256887 235.365813 
L 282.635554 235.508638 
L 283.048646 235.6091 
L 283.220767 235.684091 
L 283.496161 235.753142 
L 283.668283 235.8173 
L 284.012526 235.926516 
L 284.184647 235.990128 
L 284.460042 236.061913 
L 284.632163 236.132488 
L 284.907558 236.206005 
L 285.079679 236.2765 
L 285.423922 236.378925 
L 285.596043 236.47003 
L 286.009135 236.56849 
L 286.250105 236.698637 
L 286.663197 236.78199 
L 286.835318 236.847561 
L 287.110712 236.927071 
L 287.351682 237.026703 
L 287.592653 237.106172 
L 287.799198 237.174334 
L 288.109017 237.265765 
L 288.384411 237.366619 
L 288.69423 237.469204 
L 288.900776 237.53184 
L 289.245019 237.650542 
L 289.485989 237.730452 
L 289.726959 237.837261 
L 290.071202 237.941467 
L 291.895689 238.564077 
L 292.102235 238.634458 
L 292.343205 238.742582 
L 292.721872 238.876436 
L 292.997267 238.963463 
L 293.272661 239.084812 
L 293.58248 239.191149 
L 293.926723 239.311467 
L 294.167693 239.399376 
L 294.511936 239.564827 
L 294.821754 239.661458 
L 295.097149 239.775845 
L 295.338119 239.865513 
L 295.51024 239.971504 
L 295.785635 240.068424 
L 296.061029 240.200776 
L 296.301999 240.276619 
L 296.474121 240.354631 
L 296.749515 240.448005 
L 297.024909 240.569983 
L 297.300304 240.655247 
L 297.541274 240.740559 
L 297.851092 240.826172 
L 298.092062 240.957112 
L 298.505154 241.054512 
L 298.7117 241.139658 
L 299.262488 241.321416 
L 299.606731 241.41749 
L 299.91655 241.527876 
L 300.260793 241.630176 
L 300.501763 241.724305 
L 300.914855 241.829635 
L 301.982008 242.135063 
L 302.395099 242.23054 
L 302.773766 242.34741 
L 303.186858 242.441394 
L 303.531101 242.532112 
L 303.978617 242.636789 
L 304.185162 242.687841 
L 304.632678 242.791838 
L 304.908073 242.87601 
L 305.355589 242.964066 
L 305.562134 243.028636 
L 305.940802 243.122435 
L 306.285044 243.201572 
L 306.663712 243.305529 
L 307.730865 243.572818 
L 308.143956 243.657573 
L 308.384926 243.732656 
L 308.798018 243.822817 
L 309.107837 243.925238 
L 309.520928 244.02119 
L 309.830747 244.114006 
L 310.243838 244.20837 
L 310.519233 244.290178 
L 311.276567 244.472877 
L 311.551962 244.557472 
L 312.068326 244.689573 
L 312.446993 244.796653 
L 312.997782 244.949495 
L 313.342025 245.041518 
L 313.755116 245.14761 
L 314.064935 245.249365 
L 314.478027 245.35109 
L 314.994391 245.499856 
L 315.682877 245.695063 
L 316.095968 245.799992 
L 316.646757 245.969156 
L 317.059849 246.062633 
L 317.266394 246.132711 
L 318.19585 246.399491 
L 318.43682 246.48022 
L 319.607246 246.8111 
L 319.917065 246.92066 
L 320.330157 247.026532 
L 321.87925 247.483992 
L 322.223493 247.592132 
L 323.152949 247.87167 
L 323.531616 247.976232 
L 324.151253 248.166197 
L 324.495496 248.26221 
L 324.943012 248.400226 
L 325.287255 248.502757 
L 325.631498 248.616614 
L 325.941317 248.708476 
L 326.113438 248.749965 
L 326.388833 248.844105 
L 326.664227 248.929685 
L 327.042894 249.036243 
L 327.24944 249.10365 
L 327.559259 249.199939 
L 327.834653 249.281578 
L 328.21332 249.388305 
L 328.488714 249.482119 
L 328.798533 249.566944 
L 329.005079 249.65315 
L 331.862295 250.484953 
L 332.068841 250.560974 
L 332.447508 250.653061 
L 332.791751 250.774083 
L 333.10157 250.864941 
L 333.445813 250.966415 
L 333.755632 251.059581 
L 334.099875 251.170061 
L 334.512966 251.276418 
L 334.857209 251.390854 
L 335.167028 251.484361 
L 335.545695 251.620179 
L 335.958786 251.727018 
L 336.165332 251.789393 
L 336.475151 251.887189 
L 336.957091 252.035321 
L 337.301334 252.118291 
L 337.50788 252.183092 
L 338.747154 252.558332 
L 339.056973 252.650104 
L 339.332367 252.741304 
L 339.67661 252.827588 
L 339.883156 252.89927 
L 340.124126 252.987521 
L 340.537218 253.098226 
L 340.812612 253.205288 
L 341.191279 253.306637 
L 342.120735 253.588363 
L 342.499402 253.694512 
L 342.843645 253.811171 
L 343.256737 253.913972 
L 344.392739 254.269938 
L 344.771406 254.380109 
L 344.977952 254.440255 
L 345.28777 254.535368 
L 345.563165 254.622915 
L 345.976256 254.719719 
L 346.389348 254.867012 
L 346.768015 254.958532 
L 346.940136 255.029313 
L 347.422077 255.16488 
L 348.213835 255.396269 
L 348.592503 255.505121 
L 349.349837 255.735172 
L 349.762929 255.84401 
L 350.210444 256.005973 
L 350.554687 256.101946 
L 350.830082 256.184844 
L 351.208749 256.29089 
L 351.690689 256.435696 
L 352.103781 256.535357 
L 352.379175 256.630513 
L 352.654569 256.713683 
L 352.964388 256.817379 
L 354.10039 257.178517 
L 354.513481 257.279847 
L 354.857724 257.394724 
L 355.236391 257.505083 
L 355.615059 257.609994 
L 356.26912 257.803691 
L 356.544515 257.894451 
L 356.923182 257.991695 
L 357.267425 258.115581 
L 357.611668 258.220075 
L 358.300154 258.394911 
L 358.541124 258.478121 
L 358.885367 258.561559 
L 359.126337 258.658072 
L 359.539428 258.760216 
L 360.021368 258.915525 
L 360.43446 259.023406 
L 360.813127 259.156526 
L 361.226219 259.257339 
L 361.570462 259.374297 
L 361.949129 259.474271 
L 363.222828 259.856683 
L 363.567071 259.936669 
L 363.773616 260.018058 
L 364.221132 260.123449 
L 364.530951 260.23902 
L 364.944042 260.332456 
L 365.219437 260.416951 
L 365.666953 260.54345 
L 367.801259 261.148778 
L 368.21435 261.245473 
L 368.558593 261.372136 
L 368.868412 261.461716 
L 369.109382 261.542499 
L 369.522474 261.638382 
L 369.729019 261.704919 
L 369.969989 261.786282 
L 373.997632 262.888573 
L 374.341875 262.988701 
L 374.686118 263.076046 
L 374.995936 263.162546 
L 375.305755 263.259677 
L 375.718847 263.359276 
L 375.994241 263.445503 
L 376.372908 263.538487 
L 376.717151 263.638862 
L 377.095818 263.743297 
L 377.784304 263.934373 
L 378.162972 264.042205 
L 378.817033 264.219114 
L 379.230125 264.318289 
L 379.539943 264.416913 
L 380.021883 264.518321 
L 380.262854 264.613109 
L 380.675945 264.719567 
L 380.951339 264.800526 
L 381.364431 264.901705 
L 382.018493 265.089177 
L 382.293887 265.158103 
L 382.534857 265.237355 
L 383.016797 265.343545 
L 383.188919 265.391932 
L 384.393769 265.721675 
L 384.772436 265.823467 
L 385.082255 265.897073 
L 385.770741 266.077912 
L 386.080559 266.16617 
L 386.355954 266.243386 
L 386.734621 266.343215 
L 387.52638 266.568303 
L 388.00832 266.676265 
L 388.180441 266.751903 
L 388.593533 266.859134 
L 388.834503 266.932361 
L 389.316443 267.041688 
L 389.660686 267.1428 
L 390.039353 267.231702 
L 390.245899 267.305112 
L 390.624566 267.387025 
L 390.831112 267.464271 
L 391.209779 267.562459 
L 391.829417 267.739617 
L 392.242508 267.832085 
L 392.41463 267.889501 
L 392.827721 267.994804 
L 392.965418 268.035009 
L 393.344086 268.136754 
L 393.550631 268.204005 
L 393.929299 268.298896 
L 394.135844 268.336683 
L 394.514512 268.438141 
L 394.789906 268.534124 
L 395.237422 268.641401 
L 395.581665 268.738916 
L 396.02918 268.848683 
L 398.129062 269.404574 
L 398.438881 269.492478 
L 398.611003 269.546232 
L 399.024094 269.648228 
L 399.815853 269.879473 
L 400.19452 269.952931 
L 400.332217 270.000153 
L 401.1584 270.205374 
L 401.468219 270.310371 
L 401.881311 270.415006 
L 402.191129 270.499726 
L 402.363251 270.561766 
L 402.776342 270.664625 
L 407.458046 271.92581 
L 408.112108 272.085992 
L 408.525199 272.180377 
L 408.731745 272.25184 
L 409.454655 272.439943 
L 409.798898 272.54487 
L 410.177566 272.636416 
L 410.418536 272.721693 
L 410.831627 272.80825 
L 411.107022 272.888187 
L 411.554537 272.99458 
L 411.726659 273.050959 
L 413.172479 273.407134 
L 413.413449 273.490351 
L 413.826541 273.585429 
L 414.101935 273.660914 
L 414.480602 273.756164 
L 414.652724 273.812646 
L 415.065815 273.918956 
L 415.891998 274.156618 
L 416.30509 274.262293 
L 417.578789 274.594944 
L 417.854183 274.673816 
L 418.301699 274.775219 
L 418.508245 274.851057 
L 418.955761 274.960076 
L 420.160611 275.29501 
L 420.573703 275.389206 
L 420.814673 275.466564 
L 421.227764 275.573877 
L 421.606431 275.692408 
L 422.088371 275.779267 
L 422.329342 275.874665 
L 422.811282 275.98537 
L 424.463648 276.403365 
L 424.876739 276.506858 
L 425.220982 276.607228 
L 425.59965 276.696394 
L 425.84062 276.764168 
L 426.184863 276.833927 
L 426.56353 276.926935 
L 426.770076 276.99842 
L 427.148743 277.108456 
L 427.974926 277.300701 
L 428.147047 277.367695 
L 428.697836 277.478532 
L 428.938806 277.562865 
L 429.351898 277.658615 
L 429.455171 277.69551 
L 429.455171 277.69551 
" clip-path="url(#p9136900370)" style="fill: none; stroke: #ff0000; stroke-width: 1.5; stroke-linecap: square"/>
   </g>
   <g id="line2d_15">
    <path d="M 82.355008 274.816145 
L 82.699251 274.724411 
L 82.871373 274.483509 
L 83.00907 274.450812 
L 83.215615 274.226695 
L 83.353313 274.197265 
L 83.525434 274.082984 
L 83.766404 273.889378 
L 83.938526 273.782598 
L 84.110647 273.646442 
L 84.248344 273.593646 
L 84.420466 273.448974 
L 84.661436 273.348672 
L 84.867982 273.148403 
L 85.040103 273.039248 
L 85.728589 272.559612 
L 85.90071 272.45108 
L 86.176105 272.251276 
L 86.348226 272.160377 
L 88.103865 270.949123 
L 88.310411 270.856159 
L 88.516957 270.672209 
L 89.756231 269.862417 
L 89.962777 269.689571 
L 90.134899 269.602548 
L 90.30702 269.464046 
L 90.479142 269.359298 
L 90.685687 269.200934 
L 90.857809 269.133581 
L 91.098779 268.960482 
L 108.620745 257.446929 
L 108.792866 257.360564 
L 108.964988 257.207243 
L 109.068261 257.154077 
L 109.205958 257.051371 
L 109.378079 256.976293 
L 109.550201 256.823864 
L 109.722322 256.735883 
L 109.86002 256.622328 
L 110.032141 256.528401 
L 118.328396 251.392652 
L 118.500517 251.322127 
L 118.672639 251.159558 
L 118.879185 251.0527 
L 119.223428 250.826246 
L 120.841369 249.871354 
L 121.08234 249.710089 
L 121.288885 249.655639 
L 121.461007 249.479109 
L 121.633128 249.40043 
L 121.874098 249.185419 
L 122.149493 249.12637 
L 122.321614 248.955361 
L 122.493736 248.898089 
L 122.665857 248.731905 
L 124.490345 247.74562 
L 124.731315 247.522614 
L 125.006709 247.428956 
L 125.178831 247.305239 
L 125.385376 247.233484 
L 125.557498 247.092522 
L 125.764044 246.995374 
L 125.936165 246.789914 
L 126.108287 246.728636 
L 126.245984 246.671754 
L 126.486954 246.513686 
L 126.624651 246.47646 
L 126.762348 246.409797 
L 126.93447 246.213093 
L 127.106591 246.169031 
L 127.278713 246.030959 
L 127.485258 245.941764 
L 128.001623 245.654147 
L 128.173744 245.557769 
L 128.277017 245.452543 
L 129.068776 245.095837 
L 129.172049 245.065554 
L 129.309746 244.93803 
L 129.447443 244.882797 
L 129.516292 244.907479 
L 129.653989 244.771595 
L 129.757262 244.716585 
L 129.929383 244.584773 
L 129.963808 244.584773 
L 130.101505 244.437185 
L 130.170353 244.459427 
L 130.342475 244.274809 
L 130.549021 244.206237 
L 131.616174 243.577638 
L 131.994841 243.475282 
L 132.098114 243.267059 
L 132.132538 243.285916 
L 132.30466 243.248439 
L 132.442357 243.169035 
L 132.683327 243.022161 
L 132.821024 242.978425 
L 132.958721 242.856251 
L 133.130843 242.776982 
L 133.337388 242.688134 
L 133.647207 242.530094 
L 133.75048 242.476823 
L 133.888177 242.30632 
L 134.129147 242.268367 
L 134.266844 242.119724 
L 134.71436 241.920536 
L 134.920906 241.928708 
L 135.058603 241.733965 
L 135.402846 241.527787 
L 135.574968 241.422409 
L 135.815938 241.343419 
L 135.953635 241.272578 
L 136.125756 241.199009 
L 136.160181 241.199009 
L 136.297878 240.961353 
L 136.573272 240.963136 
L 136.607696 240.963136 
L 136.745394 240.758395 
L 136.883091 240.678969 
L 136.951939 240.705773 
L 137.089637 240.552322 
L 137.399455 240.445766 
L 137.67485 240.308016 
L 137.743698 240.140647 
L 137.812547 240.171727 
L 137.91582 240.157199 
L 138.087941 239.960813 
L 138.260063 239.884141 
L 138.432184 239.759531 
L 138.63873 239.694594 
L 138.845276 239.498712 
L 139.155094 239.310332 
L 139.774732 238.995825 
L 139.878004 238.986121 
L 140.015702 238.81784 
L 140.291096 238.707415 
L 140.463217 238.604791 
L 140.635339 238.464412 
L 140.979582 238.410849 
L 141.117279 238.283055 
L 141.186128 238.318467 
L 141.220552 238.239197 
L 141.392673 238.183251 
L 141.530371 238.062743 
L 141.633643 238.039119 
L 141.771341 237.93543 
L 141.909038 237.910894 
L 142.046735 237.745279 
L 142.081159 237.762479 
L 142.287705 237.662296 
L 142.666372 237.493161 
L 142.804069 237.477137 
L 142.941767 237.346188 
L 143.217161 237.147881 
L 143.354858 237.227552 
L 143.389282 237.177727 
L 143.52698 237.107539 
L 143.699101 237.020231 
L 143.802374 236.980639 
L 143.940071 236.879596 
L 144.181041 236.680035 
L 144.525284 236.588848 
L 144.73183 236.370114 
L 144.869527 236.375675 
L 144.903951 236.375675 
L 145.041649 236.257071 
L 145.21377 236.245707 
L 145.248194 236.245707 
L 145.317043 236.109675 
L 145.385892 236.133205 
L 145.523589 236.029452 
L 145.69571 235.975417 
L 145.867832 235.8837 
L 145.971105 235.824775 
L 146.108802 235.658529 
L 146.143226 235.695229 
L 146.556318 235.611198 
L 146.625166 235.415628 
L 146.694015 235.460698 
L 146.831712 235.508862 
L 147.003833 235.28196 
L 147.141531 235.25005 
L 147.348076 235.061564 
L 147.416925 235.08464 
L 147.451349 235.006205 
L 147.589046 234.942634 
L 147.657895 234.877523 
L 147.692319 234.933014 
L 147.761168 234.885798 
L 147.864441 234.737189 
L 147.898865 234.774923 
L 148.002138 234.740503 
L 148.139835 234.594229 
L 148.449654 234.54209 
L 148.587351 234.4393 
L 148.828321 234.131984 
L 148.862745 234.173419 
L 149.172564 234.165157 
L 149.344685 233.933193 
L 150.205293 233.449831 
L 150.274141 233.518587 
L 150.446263 233.242703 
L 150.618384 233.228401 
L 150.790506 233.021921 
L 150.928203 233.049554 
L 151.100324 232.870143 
L 151.30687 232.807631 
L 151.444567 232.696594 
L 151.582265 232.701171 
L 151.754386 232.613076 
L 151.857659 232.591554 
L 151.995356 232.459093 
L 152.236326 232.364202 
L 152.614993 232.12835 
L 152.959236 232.028494 
L 153.028085 231.871414 
L 153.096934 231.912651 
L 153.406752 231.819955 
L 153.578874 231.652819 
L 153.750995 231.613204 
L 153.923117 231.372435 
L 154.129662 231.355505 
L 154.198511 231.238245 
L 154.26736 231.273982 
L 155.127967 230.747736 
L 155.265664 230.654012 
L 155.368937 230.666374 
L 155.541058 230.504174 
L 155.71318 230.426706 
L 155.919726 230.325792 
L 156.160696 230.217454 
L 157.262273 229.697431 
L 157.39997 229.549249 
L 157.606516 229.400289 
L 157.64094 229.470086 
L 157.744213 229.455954 
L 157.88191 229.30704 
L 158.122881 229.201519 
L 158.295002 229.033584 
L 158.501548 228.940691 
L 158.811366 228.745085 
L 159.017912 228.709382 
L 159.190034 228.553102 
L 159.396579 228.455983 
L 159.499852 228.347111 
L 159.534277 228.3726 
L 159.740822 228.290735 
L 160.153914 228.196754 
L 160.188338 228.196754 
L 160.257187 228.020973 
L 160.326035 228.049363 
L 160.463733 227.974012 
L 160.567005 227.925566 
L 160.739127 227.753898 
L 161.152218 227.711845 
L 161.32434 227.523358 
L 161.668583 227.412547 
L 162.253796 227.028251 
L 162.391493 227.095991 
L 162.52919 226.917569 
L 162.701312 226.896073 
L 162.839009 226.740497 
L 162.976706 226.776366 
L 163.183252 226.56481 
L 163.355373 226.533724 
L 163.49307 226.320948 
L 163.699616 226.359085 
L 163.768465 226.265504 
L 163.837313 226.298835 
L 163.940586 226.225569 
L 164.215981 225.93372 
L 164.319254 225.997002 
L 164.525799 225.817056 
L 164.594648 225.856516 
L 164.732345 225.740229 
L 164.938891 225.65758 
L 165.317558 225.565428 
L 165.455255 225.562107 
L 165.696225 225.458424 
L 165.833923 225.254711 
L 165.97162 225.271899 
L 166.109317 225.103339 
L 166.350287 225.184037 
L 166.522408 224.94008 
L 166.9355 224.830705 
L 167.073197 224.632111 
L 167.107621 224.64377 
L 167.314167 224.5858 
L 167.451864 224.48894 
L 167.589562 224.51104 
L 167.727259 224.317959 
L 167.796107 224.260739 
L 167.968229 224.156665 
L 168.174775 224.033139 
L 168.38132 224.018043 
L 168.484593 223.919466 
L 168.62229 223.787567 
L 168.759988 223.811096 
L 168.932109 223.655719 
L 169.379625 223.568841 
L 169.586171 223.328535 
L 169.655019 223.345431 
L 169.689444 223.258584 
L 170.033686 223.309379 
L 170.171384 223.149249 
L 170.550051 223.035715 
L 170.687748 222.94231 
L 170.756597 222.946518 
L 170.928718 222.689302 
L 171.272961 222.667229 
L 171.410658 222.472671 
L 171.617204 222.510797 
L 171.754901 222.32434 
L 171.995871 222.291321 
L 172.133568 222.123459 
L 172.890903 221.910028 
L 173.0286 221.632629 
L 173.26957 221.573408 
L 173.407267 221.468987 
L 173.820359 221.30454 
L 173.889207 221.18685 
L 173.958056 221.218083 
L 174.130178 221.184951 
L 174.267875 221.055307 
L 174.405572 220.997571 
L 174.577693 220.897882 
L 174.646542 220.826678 
L 174.680966 220.869744 
L 174.784239 220.828783 
L 174.921936 220.765161 
L 175.197331 220.642769 
L 175.438301 220.56278 
L 175.575998 220.498338 
L 175.679271 220.494384 
L 175.816968 220.351804 
L 175.954665 220.359621 
L 176.023514 220.238418 
L 176.092362 220.279082 
L 176.539878 220.174492 
L 176.677575 220.09364 
L 176.780848 220.004943 
L 177.19394 219.933738 
L 177.331637 219.797676 
L 177.641456 219.736166 
L 177.779153 219.647709 
L 177.91685 219.59418 
L 178.226669 219.436586 
L 178.502063 219.404055 
L 178.63976 219.307545 
L 178.949579 219.213338 
L 179.224973 219.110457 
L 179.465943 219.011876 
L 179.638065 218.939217 
L 179.913459 218.899662 
L 180.051156 218.768704 
L 180.188853 218.751658 
L 180.326551 218.721225 
L 180.670793 218.580393 
L 181.049461 218.469923 
L 181.290431 218.428785 
L 190.550566 215.49799 
L 190.722688 215.406794 
L 191.032506 215.314651 
L 191.652143 215.020407 
L 191.755416 214.931195 
L 191.996386 214.801406 
L 192.684872 214.372049 
L 192.960267 214.265827 
L 193.201237 214.081655 
L 193.442207 213.978956 
L 193.579904 213.850807 
L 193.820874 213.775354 
L 194.199541 213.599419 
L 194.337238 213.538031 
L 194.50936 213.395833 
L 194.75033 213.290257 
L 195.95518 212.682341 
L 196.127302 212.608394 
L 196.402696 212.41258 
L 196.643666 212.319161 
L 196.850212 212.26115 
L 196.953485 212.151659 
L 197.779668 211.747943 
L 197.951789 211.652315 
L 198.192759 211.465735 
L 198.537002 211.332891 
L 198.571427 211.332891 
L 198.709124 211.198248 
L 200.017247 210.515471 
L 200.189369 210.354105 
L 200.36149 210.251203 
L 203.081009 208.780822 
L 203.218706 208.718852 
L 203.390828 208.572368 
L 203.631798 208.471808 
L 203.769495 208.366544 
L 203.941617 208.28274 
L 204.182587 208.128169 
L 204.389132 208.074578 
L 204.595678 207.906838 
L 204.733375 207.889456 
L 204.905497 207.733627 
L 205.043194 207.705329 
L 205.180891 207.616054 
L 208.692169 205.628296 
L 208.829866 205.538137 
L 209.208534 205.349149 
L 211.893629 203.861913 
L 212.06575 203.786243 
L 212.582115 203.511162 
L 212.891933 203.243954 
L 213.132903 203.135585 
L 213.339449 203.034513 
L 213.511571 202.971988 
L 213.683692 202.813983 
L 213.959086 202.70372 
L 214.200056 202.569251 
L 214.303329 202.543895 
L 214.441026 202.457841 
L 214.854118 202.179688 
L 215.026239 202.115875 
L 215.232785 201.993667 
L 215.336058 201.948257 
L 215.50818 201.80345 
L 215.74915 201.720846 
L 216.23109 201.407048 
L 216.47206 201.301811 
L 216.609757 201.166164 
L 216.781879 201.10144 
L 216.954 200.97252 
L 217.126121 200.890328 
L 217.401516 200.707454 
L 217.504789 200.650982 
L 217.711334 200.511149 
L 217.91788 200.439309 
L 218.021153 200.333195 
L 218.812912 199.923041 
L 219.019458 199.766107 
L 219.363701 199.595167 
L 219.466973 199.536133 
L 219.707944 199.34744 
L 219.983338 199.252278 
L 220.224308 199.095393 
L 220.396429 198.9866 
L 220.534127 198.901913 
L 220.706248 198.849187 
L 220.912794 198.685747 
L 221.463583 198.406417 
L 221.635704 198.308678 
L 221.979947 198.075077 
L 222.152068 198.00319 
L 222.427463 197.801346 
L 222.668433 197.66856 
L 223.322494 197.291399 
L 223.52904 197.192006 
L 259.227034 176.231189 
L 259.43358 176.075117 
L 259.605701 175.994062 
L 259.91552 175.797889 
L 260.053217 175.744079 
L 260.225338 175.601153 
L 260.39746 175.509771 
L 260.604006 175.391429 
L 260.776127 175.2985 
L 261.258067 174.984095 
L 261.430189 174.893851 
L 261.60231 174.757624 
L 261.774432 174.66119 
L 262.049826 174.475515 
L 262.290796 174.372593 
L 262.462917 174.268603 
L 262.635039 174.151808 
L 262.80716 174.072079 
L 262.979282 173.94863 
L 263.357949 173.672616 
L 263.633343 173.567975 
L 264.252981 173.159018 
L 264.425102 173.062293 
L 266.180741 171.988347 
L 266.387287 171.881578 
L 266.662681 171.69393 
L 266.903651 171.594434 
L 267.075773 171.418569 
L 267.282319 171.327438 
L 267.833107 170.977725 
L 268.005229 170.894047 
L 268.17735 170.756355 
L 268.383896 170.671698 
L 268.728139 170.462192 
L 268.900261 170.35231 
L 269.141231 170.152256 
L 269.347776 170.047755 
L 270.173959 169.537479 
L 270.311657 169.475401 
L 270.552627 169.277164 
L 270.724748 169.19803 
L 271.206688 168.882022 
L 271.37881 168.805311 
L 271.688628 168.609315 
L 272.170569 168.296636 
L 272.34269 168.227357 
L 272.514811 168.071836 
L 272.721357 167.984691 
L 272.962327 167.796067 
L 273.168873 167.710473 
L 273.478692 167.488743 
L 273.650813 167.389722 
L 273.822935 167.307232 
L 274.063905 167.106409 
L 274.236026 167.043496 
L 274.408148 166.923034 
L 274.683542 166.760851 
L 278.67676 164.321949 
L 278.883306 164.193559 
L 279.055427 164.130148 
L 279.227549 163.98361 
L 279.39967 163.897452 
L 279.537368 163.802022 
L 279.709489 163.718006 
L 280.053732 163.481233 
L 280.225853 163.419487 
L 280.432399 163.252312 
L 280.776642 163.067649 
L 280.948764 162.985469 
L 281.293007 162.783126 
L 281.465128 162.697293 
L 281.774947 162.481023 
L 281.947068 162.384657 
L 282.153614 162.27002 
L 282.256887 162.238916 
L 282.394584 162.124968 
L 283.255191 161.59357 
L 283.496161 161.489788 
L 283.737132 161.29811 
L 283.943677 161.195938 
L 284.838709 160.689374 
L 285.045255 160.584969 
L 285.217376 160.459512 
L 285.423922 160.375751 
L 285.630468 160.216355 
L 285.837013 160.150089 
L 285.974711 160.032308 
L 286.077984 159.999417 
L 286.215681 159.890611 
L 286.491075 159.733059 
L 286.663197 159.64015 
L 288.69423 158.478211 
L 288.831927 158.357347 
L 289.210594 158.10877 
L 289.451564 158.012263 
L 289.554837 157.910546 
L 289.761383 157.801488 
L 290.002353 157.706963 
L 290.14005 157.561978 
L 290.415445 157.465546 
L 290.449869 157.465546 
L 290.587566 157.336301 
L 291.930114 156.563031 
L 292.102235 156.485679 
L 292.274357 156.387524 
L 292.756297 156.126891 
L 292.85957 156.040456 
L 293.272661 155.815926 
L 293.375934 155.752794 
L 293.548055 155.627643 
L 293.789026 155.549507 
L 293.995571 155.362465 
L 294.236541 155.277075 
L 294.408663 155.101945 
L 294.684057 155.027964 
L 294.856179 154.904133 
L 295.062724 154.802393 
L 297.438001 153.571491 
L 297.575698 153.522813 
L 297.747819 153.372043 
L 297.988789 153.291913 
L 298.22976 153.196535 
L 298.436305 153.085595 
L 298.987094 152.818527 
L 299.228064 152.745553 
L 299.365761 152.651715 
L 300.605036 152.177235 
L 300.742733 152.090167 
L 301.052552 151.994162 
L 301.60334 151.798909 
L 301.775462 151.699867 
L 302.119705 151.615371 
L 302.463948 151.509969 
L 302.636069 151.428146 
L 302.945888 151.343475 
L 303.186858 151.270992 
L 304.391708 150.941966 
L 304.873648 150.839012 
L 305.04577 150.772618 
L 305.493286 150.668175 
L 305.975226 150.550077 
L 306.526015 150.442675 
L 309.658625 149.900091 
L 310.17499 149.802632 
L 310.312687 149.833595 
L 311.483113 149.629352 
L 311.758507 149.605576 
L 312.58469 149.502788 
L 312.963358 149.446287 
L 314.030511 149.339786 
L 315.407483 149.187606 
L 315.889423 149.12966 
L 316.887727 149.027044 
L 317.163122 149.028654 
L 318.127002 148.920819 
L 318.299123 148.90956 
L 318.367972 148.966033 
L 318.402396 148.920932 
L 319.297428 148.817989 
L 319.607246 148.780608 
L 321.603856 148.613931 
L 322.36119 148.503136 
L 322.705433 148.450766 
L 324.323375 148.352739 
L 324.633193 148.321573 
L 325.287255 148.257235 
L 325.528225 148.247387 
L 326.52653 148.144966 
L 327.077318 148.105902 
L 328.282169 148.005494 
L 328.764109 147.970302 
L 330.106656 147.859393 
L 333.273691 147.600416 
L 333.411389 147.616225 
L 333.927753 147.568357 
L 334.926058 147.460677 
L 335.270301 147.474305 
L 336.199756 147.381635 
L 336.440727 147.340363 
L 337.817698 147.232563 
L 338.609457 147.203246 
L 339.504489 147.110743 
L 339.711035 147.077773 
L 341.260128 146.973625 
L 341.673219 146.943951 
L 342.946918 146.84138 
L 343.187888 146.85001 
L 344.358314 146.750244 
L 344.599284 146.722375 
L 345.838559 146.621345 
L 346.148378 146.602657 
L 347.353228 146.496891 
L 347.697471 146.481428 
L 349.315413 146.373993 
L 350.003899 146.316139 
L 351.518568 146.208513 
L 351.759538 146.164771 
L 353.549601 146.060384 
L 354.203663 146.006519 
L 355.236391 145.904534 
L 355.821604 145.840183 
L 357.267425 145.73592 
L 357.955911 145.684546 
L 359.22961 145.592152 
L 359.401731 145.559353 
L 362.981858 145.274559 
L 363.326101 145.229011 
L 364.737497 145.133704 
L 364.978467 145.117733 
L 366.321014 145.013876 
L 366.561984 144.997151 
L 367.560289 144.896359 
L 367.97338 144.873456 
L 369.384776 144.77105 
L 369.866717 144.737224 
L 370.899445 144.635762 
L 371.243688 144.601135 
L 372.276417 144.492898 
L 374.995936 144.236936 
L 375.305755 144.225524 
L 376.30406 144.116516 
L 376.923697 144.05569 
L 378.266244 143.957364 
L 378.610487 143.917007 
L 379.815338 143.819296 
L 380.228429 143.758588 
L 380.400551 143.772161 
L 380.710369 143.720917 
L 381.846371 143.615036 
L 382.15619 143.605241 
L 382.706978 143.543652 
L 383.980677 143.433612 
L 384.359345 143.403729 
L 385.426498 143.311568 
L 385.667468 143.29527 
L 387.216561 143.15594 
L 388.077168 143.049231 
L 388.524684 143.028031 
L 389.316443 142.95506 
L 389.867232 142.892834 
L 391.209779 142.784647 
L 391.519598 142.757074 
L 400.504339 141.932076 
L 400.710885 141.924987 
L 400.883006 141.874929 
L 402.259978 141.764592 
L 402.535372 141.732138 
L 408.731745 141.144502 
L 408.938291 141.132352 
L 413.619995 140.699979 
L 414.067511 140.647297 
L 414.928118 140.584085 
L 415.960847 140.481961 
L 417.062424 140.373673 
L 422.15722 139.879228 
L 422.432614 139.867481 
L 423.60304 139.773427 
L 423.775162 139.748823 
L 427.733956 139.366601 
L 428.25032 139.301321 
L 428.49129 139.278784 
L 429.455171 139.183388 
L 429.455171 139.183388 
" clip-path="url(#p9136900370)" style="fill: none; stroke: #008000; stroke-width: 1.5; stroke-linecap: square"/>
   </g>
   <g id="line2d_16">
    <path d="M 82.355008 101.411873 
L 83.00907 101.326171 
L 83.215615 101.23873 
L 83.353313 101.218487 
L 83.559858 101.163764 
L 83.938526 101.073199 
L 84.282769 100.988402 
L 84.730284 100.893969 
L 85.005679 100.798587 
L 85.487619 100.714478 
L 85.728589 100.630907 
L 86.107256 100.538628 
L 86.313802 100.471208 
L 86.761318 100.366126 
L 87.449804 100.168717 
L 87.931744 100.059525 
L 88.241562 99.960032 
L 88.654654 99.861784 
L 88.8612 99.795654 
L 89.239867 99.687497 
L 90.995506 99.169172 
L 91.236476 99.102545 
L 92.131508 98.812938 
L 92.544599 98.710848 
L 92.819994 98.619044 
L 93.301934 98.463718 
L 93.611752 98.358676 
L 96.40012 97.487648 
L 96.572242 97.406417 
L 96.847636 97.32091 
L 97.088606 97.247768 
L 97.364001 97.159443 
L 97.673819 97.052466 
L 98.018062 96.971285 
L 98.259032 96.868383 
L 98.568851 96.774215 
L 98.913094 96.639096 
L 99.291761 96.537826 
L 100.290066 96.214575 
L 100.599884 96.125374 
L 100.840854 96.048485 
L 101.357219 95.866408 
L 101.77031 95.766165 
L 102.045705 95.67489 
L 102.527645 95.570018 
L 103.044009 95.42201 
L 103.629222 95.316693 
L 104.007889 95.208905 
L 104.558678 95.116927 
L 104.834072 95.047283 
L 105.45371 94.950941 
L 105.763528 94.887422 
L 106.589712 94.779531 
L 107.484743 94.655285 
L 113.405722 94.277988 
L 114.266329 94.310454 
L 115.230209 94.341113 
L 115.643301 94.376622 
L 116.021968 94.404339 
L 116.366211 94.428914 
L 117.261243 94.527653 
L 117.605486 94.56389 
L 118.431669 94.664804 
L 118.638215 94.718061 
L 118.948033 94.740326 
L 119.120155 94.796657 
L 119.739792 94.893599 
L 120.049611 94.958734 
L 121.357734 95.245868 
L 121.633128 95.310286 
L 122.183917 95.419365 
L 122.424887 95.518923 
L 123.182222 95.752667 
L 123.319919 95.796755 
L 124.593618 96.244224 
L 124.937861 96.346652 
L 125.247679 96.498034 
L 125.523074 96.587645 
L 125.729619 96.670977 
L 125.970589 96.774239 
L 126.142711 96.879272 
L 126.383681 96.951805 
L 126.555802 97.047372 
L 126.762348 97.128416 
L 127.037743 97.250647 
L 127.17544 97.308832 
L 127.41641 97.409336 
L 127.588531 97.509626 
L 127.795077 97.597336 
L 127.967198 97.66951 
L 128.070471 97.711036 
L 128.242593 97.830465 
L 128.449139 97.910133 
L 128.758957 98.078801 
L 128.931079 98.183714 
L 129.172049 98.305325 
L 129.309746 98.389105 
L 129.688413 98.518239 
L 129.860535 98.678798 
L 130.101505 98.781837 
L 130.239202 98.871514 
L 130.480172 98.962632 
L 130.721142 99.146908 
L 130.927688 99.195581 
L 131.099809 99.349451 
L 131.340779 99.44033 
L 131.478477 99.546186 
L 131.650598 99.63133 
L 131.891568 99.827547 
L 132.166962 99.931573 
L 132.339084 100.022034 
L 132.442357 100.08872 
L 132.683327 100.274677 
L 132.958721 100.380081 
L 133.371813 100.646247 
L 133.543934 100.714224 
L 133.784904 100.887544 
L 133.922601 100.926897 
L 134.060299 101.089577 
L 134.404542 101.273091 
L 134.611087 101.365031 
L 134.71436 101.429896 
L 134.95533 101.578106 
L 135.127452 101.677547 
L 135.265149 101.771312 
L 135.43727 101.859555 
L 135.609392 102.007396 
L 135.781513 102.096625 
L 135.919211 102.172028 
L 136.091332 102.282687 
L 136.607696 102.621586 
L 136.745394 102.647943 
L 136.951939 102.847036 
L 137.192909 102.93143 
L 137.330607 103.014261 
L 137.571577 103.193567 
L 137.743698 103.254856 
L 137.91582 103.400212 
L 138.122365 103.519411 
L 138.363335 103.668815 
L 138.501033 103.754794 
L 138.810851 103.957167 
L 138.914124 104.01625 
L 139.12067 104.151424 
L 139.292791 104.248068 
L 139.464913 104.3963 
L 139.740307 104.494415 
L 139.912429 104.618232 
L 140.015702 104.680965 
L 140.222247 104.831662 
L 140.394369 104.928518 
L 140.80746 105.22728 
L 142.322129 106.099174 
L 142.425402 106.19691 
L 142.597524 106.338233 
L 142.700797 106.389854 
L 142.872918 106.487199 
L 143.045039 106.605275 
L 143.217161 106.6904 
L 143.389282 106.853735 
L 143.595828 106.939576 
L 143.76795 107.095777 
L 143.940071 107.166898 
L 144.181041 107.358058 
L 144.387587 107.462261 
L 144.559708 107.594693 
L 144.73183 107.695193 
L 144.903951 107.802765 
L 145.179346 107.959019 
L 145.351467 108.107651 
L 145.489164 108.15823 
L 145.661286 108.26453 
L 145.833407 108.354757 
L 146.17765 108.601407 
L 146.349772 108.662698 
L 146.521893 108.818688 
L 146.65959 108.921673 
L 146.866136 109.042123 
L 147.003833 109.064145 
L 147.141531 109.23403 
L 147.451349 109.466229 
L 147.657895 109.491769 
L 147.830016 109.673853 
L 148.002138 109.767862 
L 148.484078 110.081617 
L 148.587351 110.182285 
L 148.793897 110.276638 
L 148.966018 110.369746 
L 149.13814 110.528871 
L 149.413534 110.634953 
L 149.62008 110.784391 
L 150.170868 111.109353 
L 150.205293 111.109353 
L 150.34299 111.258323 
L 151.203597 111.777619 
L 151.478992 111.977807 
L 151.651113 112.069904 
L 151.892083 112.207217 
L 152.02978 112.275361 
L 152.27075 112.45567 
L 152.442872 112.543811 
L 152.649418 112.670117 
L 152.821539 112.767223 
L 152.993661 112.851515 
L 153.096934 112.934064 
L 153.372328 113.116867 
L 153.544449 113.193633 
L 153.785419 113.394391 
L 153.957541 113.451502 
L 154.129662 113.554123 
L 154.26736 113.646946 
L 154.50833 113.793522 
L 154.714875 113.889122 
L 155.403361 114.317397 
L 155.575483 114.388732 
L 155.816453 114.549659 
L 156.022999 114.64484 
L 156.229544 114.768888 
L 157.227849 115.352011 
L 157.468819 115.459496 
L 157.950759 115.731099 
L 158.191729 115.828519 
L 158.467123 116.003829 
L 158.639245 116.089078 
L 158.914639 116.23359 
L 159.086761 116.316538 
L 159.362155 116.459547 
L 159.534277 116.566019 
L 159.775247 116.706884 
L 160.050641 116.806484 
L 160.222762 116.908299 
L 160.429308 116.971645 
L 160.60143 117.110862 
L 160.773551 117.200203 
L 160.980097 117.302752 
L 161.152218 117.390068 
L 161.496461 117.574749 
L 161.737431 117.652494 
L 161.978402 117.821028 
L 162.253796 117.915324 
L 162.391493 118.029434 
L 162.52919 118.069642 
L 162.735736 118.176892 
L 162.976706 118.283658 
L 163.148828 118.381351 
L 163.424222 118.489276 
L 163.975011 118.790136 
L 164.215981 118.878134 
L 164.353678 118.977802 
L 164.594648 119.065611 
L 165.145437 119.341995 
L 165.386407 119.403403 
L 165.558528 119.504452 
L 165.696225 119.542288 
L 165.902771 119.684539 
L 170.515627 121.422782 
L 170.756597 121.532526 
L 171.376234 121.69223 
L 171.858174 121.796425 
L 172.030296 121.860791 
L 172.271266 121.93648 
L 172.443387 121.990382 
L 172.649933 122.01771 
L 172.856479 122.099582 
L 173.407267 122.178296 
L 173.613813 122.24293 
L 175.059633 122.517969 
L 175.610422 122.623115 
L 176.298908 122.740897 
L 177.056243 122.842856 
L 177.641456 122.922587 
L 178.054547 122.980281 
L 179.190549 123.08373 
L 179.569216 123.133535 
L 180.980612 123.236479 
L 181.256006 123.265892 
L 182.8051 123.374086 
L 183.872253 123.424651 
L 192.856994 123.323221 
L 193.201237 123.285311 
L 194.406087 123.182503 
L 195.025724 123.130713 
L 195.920756 123.034247 
L 196.264999 122.975965 
L 197.160031 122.866305 
L 197.573122 122.813886 
L 198.399305 122.703744 
L 200.636884 122.340664 
L 201.256522 122.239614 
L 201.876159 122.116989 
L 202.495796 122.008533 
L 203.425252 121.820475 
L 204.079314 121.694911 
L 204.630103 121.585603 
L 205.112043 121.485286 
L 205.800529 121.32621 
L 206.282469 121.217607 
L 207.211925 121.00777 
L 207.41847 120.951864 
L 207.797138 120.864445 
L 208.072532 120.78676 
L 208.451199 120.694554 
L 208.864291 120.581909 
L 209.277382 120.481703 
L 209.449504 120.432166 
L 209.862595 120.322129 
L 210.034717 120.268593 
L 210.447808 120.16373 
L 210.792051 120.06354 
L 211.170718 119.95583 
L 211.514961 119.843935 
L 211.893629 119.734535 
L 212.169023 119.632646 
L 212.478842 119.551491 
L 212.685387 119.466298 
L 213.064055 119.355879 
L 213.339449 119.262526 
L 213.649268 119.182276 
L 213.855813 119.101054 
L 214.165632 119.004989 
L 214.406602 118.914248 
L 214.681997 118.83439 
L 214.922967 118.730287 
L 215.163937 118.638552 
L 215.50818 118.509094 
L 215.817998 118.420746 
L 216.024544 118.341788 
L 216.265514 118.261473 
L 216.540908 118.133963 
L 217.849032 117.658659 
L 218.193275 117.525016 
L 218.434245 117.449509 
L 218.64079 117.352117 
L 218.950609 117.246356 
L 219.226003 117.106116 
L 219.535822 117.006122 
L 219.811216 116.880332 
L 220.121035 116.772987 
L 220.602975 116.559114 
L 220.843945 116.476264 
L 221.084915 116.353943 
L 221.36031 116.260759 
L 221.60128 116.13038 
L 221.84225 116.04518 
L 222.014371 115.972872 
L 222.32419 115.835242 
L 222.56516 115.729251 
L 222.80613 115.626147 
L 231.343355 111.717788 
L 231.515477 111.578206 
L 231.756447 111.489666 
L 232.10069 111.3171 
L 232.272811 111.237563 
L 232.548205 111.098962 
L 232.720327 111.015344 
L 233.06457 110.845237 
L 233.30554 110.746842 
L 233.580934 110.592987 
L 233.753056 110.521253 
L 233.994026 110.372145 
L 234.166147 110.282565 
L 235.026755 109.83963 
L 235.302149 109.735715 
L 235.611968 109.569111 
L 238.813427 107.918943 
L 239.019973 107.795965 
L 239.192094 107.733895 
L 239.39864 107.605712 
L 240.12155 107.223512 
L 240.293672 107.152263 
L 240.534642 107.00373 
L 240.706763 106.923904 
L 240.913309 106.81455 
L 241.085431 106.727729 
L 241.773916 106.351006 
L 241.946038 106.279132 
L 242.255857 106.076744 
L 242.531251 105.967221 
L 242.772221 105.814393 
L 243.047615 105.705636 
L 243.426283 105.45975 
L 243.667253 105.360114 
L 243.873798 105.23173 
L 244.04592 105.154353 
L 244.321314 105.004457 
L 244.665557 104.827165 
L 244.837679 104.745141 
L 245.078649 104.580697 
L 245.285194 104.487636 
L 245.663862 104.261872 
L 245.835983 104.17933 
L 246.249075 103.958198 
L 246.421196 103.871328 
L 246.696591 103.707156 
L 246.868712 103.6548 
L 247.040833 103.514715 
L 247.281804 103.405018 
L 247.763744 103.151237 
L 247.935865 103.067312 
L 248.280108 102.882428 
L 248.521078 102.778465 
L 248.727624 102.656312 
L 248.899745 102.57592 
L 249.140715 102.42552 
L 249.312837 102.337045 
L 249.588231 102.196903 
L 249.760353 102.113137 
L 249.966899 101.991413 
L 250.13902 101.913725 
L 250.37999 101.766997 
L 250.586536 101.678957 
L 250.827506 101.52062 
L 251.068476 101.413036 
L 251.34387 101.241593 
L 251.58484 101.139741 
L 251.791386 101.026238 
L 251.963508 100.955705 
L 252.273326 100.754608 
L 252.479872 100.669463 
L 252.720842 100.514399 
L 252.892964 100.437088 
L 253.099509 100.309705 
L 253.340479 100.208702 
L 253.615874 100.043012 
L 253.856844 99.942409 
L 254.166662 99.747949 
L 254.442057 99.653911 
L 254.751875 99.450312 
L 254.958421 99.372169 
L 255.337088 99.147614 
L 255.543634 99.054544 
L 255.784604 98.909502 
L 255.956726 98.827011 
L 256.23212 98.660055 
L 256.47309 98.567463 
L 256.679636 98.44426 
L 256.95503 98.282579 
L 257.196 98.177949 
L 257.540243 97.976982 
L 257.712365 97.901289 
L 258.022183 97.704365 
L 258.297578 97.596965 
L 258.607396 97.394542 
L 258.813942 97.335895 
L 259.020488 97.203405 
L 259.364731 97.005508 
L 259.605701 96.895311 
L 259.91552 96.712944 
L 260.122065 96.611782 
L 260.741703 96.269265 
L 260.913824 96.200501 
L 261.12037 96.078569 
L 261.292491 96.007835 
L 261.567886 95.836247 
L 263.323525 94.907898 
L 263.530071 94.835723 
L 263.702192 94.750741 
L 263.874314 94.639501 
L 264.046435 94.552533 
L 264.287405 94.433109 
L 266.111893 93.50564 
L 266.284014 93.386326 
L 266.559409 93.277914 
L 266.800379 93.140649 
L 266.9725 93.034344 
L 267.385592 92.823776 
L 267.626562 92.736266 
L 267.798683 92.62379 
L 268.349472 92.349615 
L 268.521593 92.278917 
L 268.728139 92.161982 
L 268.900261 92.079464 
L 269.244503 91.88458 
L 269.485474 91.780689 
L 269.795292 91.617909 
L 270.380505 91.346528 
L 270.552627 91.240018 
L 270.793597 91.154872 
L 271.000143 91.033209 
L 271.241113 90.924832 
L 274.373723 89.444457 
L 274.614693 89.34263 
L 274.821239 89.278167 
L 274.958936 89.177588 
L 278.401366 87.807647 
L 279.055427 87.585575 
L 279.296398 87.473371 
L 279.64064 87.368764 
L 279.950459 87.251647 
L 280.363551 87.152765 
L 280.570096 87.061332 
L 280.776642 86.993329 
L 281.086461 86.897845 
L 281.361855 86.822571 
L 281.671674 86.724077 
L 281.981492 86.619279 
L 282.394584 86.521299 
L 282.738827 86.404506 
L 283.117494 86.329189 
L 283.32404 86.258715 
L 283.702707 86.161624 
L 283.978102 86.103988 
L 284.391193 86.001962 
L 284.701012 85.909843 
L 285.182952 85.806345 
L 285.389498 85.768916 
L 285.837013 85.658477 
L 286.009135 85.598367 
L 286.422226 85.533609 
L 286.628772 85.471549 
L 287.24841 85.362771 
L 287.48938 85.28553 
L 288.177866 85.185853 
L 288.522108 85.094202 
L 289.141746 85.012383 
L 289.313867 84.961825 
L 290.002353 84.861549 
L 290.208899 84.807543 
L 290.656415 84.757246 
L 290.86296 84.709558 
L 291.620295 84.618012 
L 291.792416 84.580113 
L 292.480902 84.476098 
L 293.272661 84.367635 
L 294.167693 84.258792 
L 294.649633 84.173632 
L 295.475816 84.062769 
L 295.647937 84.047868 
L 296.095453 83.970132 
L 296.23315 83.926975 
L 296.439696 83.91236 
L 296.611818 83.856034 
L 297.059334 83.763168 
L 297.575698 83.637373 
L 297.782244 83.556226 
L 298.023214 83.484326 
L 301.155825 82.511395 
L 301.431219 82.418212 
L 301.741038 82.291775 
L 302.085281 82.200145 
L 302.429523 82.079006 
L 302.739342 81.975795 
L 303.083585 81.84575 
L 303.393404 81.742928 
L 303.737647 81.60558 
L 304.047465 81.518359 
L 304.32286 81.410077 
L 304.632678 81.303854 
L 305.183467 81.117648 
L 305.424437 81.022224 
L 306.078499 80.798261 
L 306.388317 80.715631 
L 306.594863 80.620349 
L 309.314382 79.709678 
L 309.658625 79.608829 
L 310.17499 79.429521 
L 310.381536 79.388298 
L 310.622506 79.280475 
L 311.035597 79.170206 
L 311.37984 79.057896 
L 311.689659 78.965122 
L 311.965053 78.865568 
L 312.378145 78.756206 
L 312.756812 78.63748 
L 313.101055 78.532863 
L 313.410873 78.422124 
L 313.755116 78.323777 
L 314.581299 78.065274 
L 314.994391 77.955742 
L 315.54518 77.788888 
L 315.820574 77.709692 
L 316.164817 77.615399 
L 316.50906 77.507034 
L 316.887727 77.397738 
L 317.23197 77.303399 
L 317.610637 77.201104 
L 317.817183 77.146335 
L 318.127002 77.057817 
L 318.299123 77.021401 
L 318.781063 76.890855 
L 318.987609 76.806287 
L 319.435125 76.697797 
L 319.848217 76.567105 
L 320.261308 76.467161 
L 320.743248 76.334222 
L 321.121915 76.237213 
L 321.982523 75.993471 
L 322.36119 75.899241 
L 322.567736 75.855073 
L 322.946403 75.761915 
L 323.290646 75.65718 
L 323.772586 75.552247 
L 324.357799 75.384139 
L 324.770891 75.291639 
L 324.977436 75.210476 
L 325.734771 75.019653 
L 325.975741 74.949057 
L 326.319984 74.871987 
L 326.52653 74.790213 
L 328.523139 74.272519 
L 328.867382 74.179726 
L 329.727989 73.94843 
L 330.175505 73.839887 
L 340.468369 71.161326 
L 340.64049 71.106402 
L 341.122431 70.996774 
L 341.363401 70.910624 
L 341.845341 70.808236 
L 342.120735 70.711448 
L 342.568251 70.605569 
L 342.774797 70.557974 
L 343.153464 70.455378 
L 344.840254 69.999937 
L 345.28777 69.89931 
L 345.494316 69.828933 
L 345.907408 69.730765 
L 346.836864 69.485263 
L 347.284379 69.378901 
L 347.835168 69.233531 
L 348.24826 69.134322 
L 348.558078 69.046284 
L 348.97117 68.950989 
L 349.349837 68.841554 
L 349.762929 68.744842 
L 350.003899 68.663 
L 350.485839 68.553024 
L 351.346446 68.326935 
L 351.793962 68.219085 
L 352.000508 68.153652 
L 352.448024 68.054706 
L 352.688994 67.980172 
L 357.990335 66.586467 
L 358.437851 66.478334 
L 359.057488 66.305659 
L 359.539428 66.203171 
L 359.814823 66.119934 
L 360.19349 66.026893 
L 360.572157 65.914368 
L 363.911314 65.04756 
L 364.358829 64.936675 
L 365.047315 64.751077 
L 365.529255 64.643939 
L 367.353743 64.175959 
L 367.594713 64.081073 
L 368.007805 63.993688 
L 368.317623 63.906042 
L 368.661866 63.818795 
L 368.971685 63.722126 
L 369.384776 63.615431 
L 370.073262 63.405429 
L 370.486354 63.323794 
L 370.727324 63.242315 
L 371.105991 63.155701 
L 371.381386 63.055862 
L 371.794477 62.950561 
L 372.345266 62.780715 
L 372.827206 62.707278 
L 373.033752 62.59979 
L 374.789391 62.140196 
L 374.995936 62.066136 
L 378.920306 60.992076 
L 379.161276 60.927617 
L 380.021883 60.693935 
L 380.366126 60.59276 
L 380.744794 60.483512 
L 381.020188 60.398273 
L 381.43328 60.309748 
L 381.777523 60.192879 
L 385.047831 59.33232 
L 385.357649 59.236738 
L 385.701892 59.141612 
L 386.080559 59.044638 
L 386.562499 58.913581 
L 386.906742 58.842723 
L 387.078864 58.765534 
L 387.491955 58.658482 
L 387.939471 58.522348 
L 388.214866 58.456476 
L 388.386987 58.389342 
L 388.73123 58.303642 
L 388.9722 58.253158 
L 389.385292 58.15127 
L 389.557413 58.090246 
L 389.970505 57.993348 
L 390.590142 57.817109 
L 391.003233 57.712762 
L 391.622871 57.546862 
L 391.932689 57.438958 
L 393.481783 57.034535 
L 393.722753 56.991728 
L 407.320349 53.434618 
L 407.630168 53.355615 
L 407.802289 53.289576 
L 408.008835 53.247779 
L 408.490775 53.115272 
L 408.869442 53.027832 
L 409.144837 52.960694 
L 409.523504 52.863311 
L 409.73005 52.824031 
L 410.108717 52.733988 
L 410.384111 52.637891 
L 410.866051 52.510338 
L 411.279143 52.418394 
L 411.588962 52.327522 
L 412.070902 52.238343 
L 412.277448 52.175204 
L 412.656115 52.082085 
L 412.862661 52.01988 
L 413.310176 51.918927 
L 413.516722 51.857468 
L 413.895389 51.769987 
L 414.101935 51.714003 
L 414.480602 51.615608 
L 414.755997 51.536609 
L 415.203513 51.428032 
L 415.410058 51.353618 
L 416.580484 51.077822 
L 416.821454 51.010382 
L 417.303395 50.914618 
L 417.544365 50.814152 
L 418.026305 50.706726 
L 419.954065 50.210466 
L 420.332732 50.104398 
L 420.608127 50.034365 
L 420.917945 49.949305 
L 421.124491 49.900326 
L 421.503158 49.807315 
L 421.709704 49.742989 
L 422.15722 49.637729 
L 422.983403 49.424337 
L 423.396495 49.321565 
L 423.671889 49.227087 
L 424.119405 49.137256 
L 424.360375 49.032242 
L 424.704618 48.967847 
L 425.530801 48.757437 
L 425.806195 48.679687 
L 426.288135 48.570404 
L 426.56353 48.50022 
L 427.079894 48.365657 
L 427.252016 48.308591 
L 427.733956 48.208902 
L 428.043774 48.073404 
L 428.456866 47.986519 
L 428.663412 47.952607 
L 429.042079 47.860383 
L 429.283049 47.771953 
L 429.455171 47.74 
L 429.455171 47.74 
" clip-path="url(#p9136900370)" style="fill: none; stroke: #0000ff; stroke-width: 1.5; stroke-linecap: square"/>
   </g>
   <g id="line2d_17">
    <path d="M 82.355008 183.745613 
L 84.351617 184.279018 
L 85.65974 184.641159 
L 92.510175 186.565085 
L 93.095388 186.710628 
L 94.059268 186.99161 
L 94.816603 187.18536 
L 95.298543 187.32708 
L 95.642786 187.412423 
L 96.124726 187.558349 
L 216.781879 220.494787 
L 217.057273 220.568945 
L 218.330972 220.927461 
L 218.744063 221.025096 
L 219.088306 221.128515 
L 219.948914 221.358787 
L 220.327581 221.465739 
L 220.843945 221.606972 
L 234.785785 225.394785 
L 235.302149 225.5311 
L 240.224823 226.834568 
L 240.637915 226.951181 
L 303.014736 243.70884 
L 303.909768 243.92112 
L 304.56383 244.103981 
L 305.940802 244.463592 
L 308.040683 245.063683 
L 308.281654 245.128111 
L 308.901291 245.313223 
L 309.21111 245.379936 
L 311.37984 245.963108 
L 311.758507 246.080824 
L 314.305905 246.754669 
L 314.684572 246.860633 
L 315.854998 247.176331 
L 323.0841 249.145116 
L 323.979132 249.388158 
L 324.357799 249.48522 
L 325.080709 249.669562 
L 329.211625 250.787838 
L 329.900111 250.950681 
L 330.795142 251.177358 
L 331.242658 251.311724 
L 331.483628 251.350657 
L 331.793447 251.452 
L 332.13769 251.558385 
L 332.550781 251.664508 
L 333.10157 251.807403 
L 333.996602 252.04158 
L 347.422077 255.621528 
L 354.375784 257.499118 
L 354.651178 257.570468 
L 355.270816 257.72974 
L 355.54621 257.81925 
L 356.131423 257.974808 
L 357.233 258.265407 
L 358.369002 258.563143 
L 358.747669 258.693595 
L 359.401731 258.854731 
L 360.400036 259.128893 
L 362.878585 259.779084 
L 363.635919 259.982004 
L 364.496527 260.205556 
L 365.425983 260.443533 
L 365.873498 260.582843 
L 367.181622 260.937413 
L 425.565225 276.692998 
L 425.84062 276.751289 
L 427.940502 277.318279 
L 428.456866 277.453399 
L 429.455171 277.74 
L 429.455171 277.74 
" clip-path="url(#p9136900370)" style="fill: none; stroke-dasharray: 5.55,2.4; stroke-dashoffset: 0; stroke: #ff0000; stroke-width: 1.5"/>
   </g>
   <g id="line2d_18">
    <path d="M 82.355008 130.505147 
L 83.904101 130.472632 
L 84.93683 130.410757 
L 98.190184 129.764716 
L 98.431154 129.740688 
L 98.775397 129.733366 
L 100.255641 129.659774 
L 100.909703 129.635314 
L 101.804735 129.591117 
L 105.109467 129.455119 
L 107.966683 129.316309 
L 108.310926 129.292786 
L 108.930564 129.271437 
L 118.431669 128.818686 
L 118.948033 128.787523 
L 119.498822 128.761994 
L 123.354343 128.56671 
L 123.73301 128.552736 
L 126.280408 128.420472 
L 126.727924 128.398051 
L 127.347561 128.345446 
L 128.104896 128.320081 
L 128.86223 128.283177 
L 130.686718 128.197851 
L 135.643816 127.926802 
L 135.884786 127.929393 
L 137.950244 127.828383 
L 138.569881 127.806606 
L 139.051821 127.770006 
L 139.84358 127.734332 
L 140.32552 127.70087 
L 141.392673 127.653868 
L 154.095238 126.975954 
L 154.26736 126.963424 
L 154.7493 126.953101 
L 155.093543 126.931957 
L 155.885301 126.885488 
L 156.229544 126.843498 
L 156.401666 126.845044 
L 158.226153 126.73478 
L 162.357069 126.508825 
L 162.873433 126.502846 
L 164.353678 126.399011 
L 165.111012 126.357362 
L 165.558528 126.340579 
L 166.625681 126.28059 
L 166.969924 126.277654 
L 167.486289 126.239907 
L 169.758292 126.106399 
L 172.581084 125.984035 
L 180.223278 125.543512 
L 180.739642 125.515479 
L 181.049461 125.4809 
L 181.496977 125.480826 
L 181.772371 125.441695 
L 182.219887 125.422283 
L 183.700131 125.335707 
L 184.939406 125.277814 
L 185.765589 125.222798 
L 187.176985 125.147852 
L 190.034202 124.99017 
L 190.378445 124.967805 
L 191.961962 124.886824 
L 192.443902 124.855083 
L 193.097964 124.820855 
L 195.783059 124.674308 
L 199.948398 124.44436 
L 200.774582 124.422378 
L 201.0844 124.385329 
L 201.531916 124.378749 
L 202.04828 124.332451 
L 203.287555 124.255066 
L 204.836648 124.165046 
L 213.580419 123.671009 
L 214.441026 123.627711 
L 215.26721 123.591323 
L 219.570246 123.352517 
L 219.776792 123.355838 
L 222.496311 123.197426 
L 223.0471 123.172354 
L 223.563465 123.147713 
L 223.77001 123.148548 
L 223.976556 123.107215 
L 224.286375 123.105741 
L 224.733891 123.113088 
L 225.043709 123.094918 
L 225.835468 123.042118 
L 225.869892 122.967457 
L 225.938741 123.035638 
L 227.625531 122.928695 
L 228.314017 122.89336 
L 232.961297 122.642944 
L 233.236691 122.590329 
L 233.512086 122.606986 
L 234.407117 122.528681 
L 236.231605 122.462978 
L 236.506999 122.444113 
L 237.092212 122.399917 
L 240.706763 122.199776 
L 240.982158 122.173899 
L 245.354043 121.942099 
L 245.801559 121.905949 
L 252.479872 121.550456 
L 252.858539 121.487945 
L 258.263154 121.242683 
L 258.435275 121.191509 
L 259.123761 121.169352 
L 261.051521 121.094574 
L 261.292491 121.073966 
L 262.944858 120.958753 
L 263.116979 120.97643 
L 263.702192 120.967062 
L 265.148012 120.855585 
L 265.492255 120.851064 
L 266.593833 120.776555 
L 271.791901 120.480096 
L 271.998447 120.44878 
L 273.409843 120.377853 
L 273.581965 120.369892 
L 273.857359 120.366306 
L 274.580269 120.324891 
L 275.027785 120.300241 
L 275.544149 120.268346 
L 275.819544 120.251434 
L 276.129362 120.227737 
L 276.680151 120.210701 
L 278.332517 120.119971 
L 278.504639 120.11414 
L 279.606216 120.034622 
L 279.812762 120.027898 
L 280.432399 119.986704 
L 283.461737 119.840604 
L 283.771556 119.810716 
L 284.460042 119.757921 
L 285.217376 119.708843 
L 285.802589 119.678399 
L 287.282834 119.601917 
L 287.833623 119.555017 
L 289.141746 119.478924 
L 291.276052 119.345985 
L 291.723568 119.310205 
L 298.057638 118.953149 
L 298.195335 118.949466 
L 298.539578 118.907303 
L 298.780548 118.905101 
L 299.43461 118.850603 
L 301.190249 118.76125 
L 301.500068 118.74448 
L 302.463948 118.693433 
L 302.842615 118.67161 
L 308.281654 118.358994 
L 308.557048 118.362338 
L 310.002868 118.243758 
L 310.484808 118.24801 
L 310.65693 118.251 
L 311.13887 118.190651 
L 312.10275 118.130217 
L 312.997782 118.072231 
L 313.273176 118.057988 
L 314.133784 118.009949 
L 314.443602 118.002581 
L 341.294552 116.369714 
L 341.983038 116.316762 
L 342.292857 116.295348 
L 342.843645 116.265497 
L 343.153464 116.225674 
L 344.117344 116.225092 
L 344.461587 116.150451 
L 346.148378 116.052741 
L 346.664742 116.026227 
L 347.215531 115.983272 
L 349.762929 115.831734 
L 350.17602 115.82492 
L 350.485839 115.775007 
L 352.413599 115.647307 
L 352.757842 115.640831 
L 352.929964 115.62989 
L 354.444633 115.530156 
L 358.678821 115.295156 
L 358.885367 115.276463 
L 359.057488 115.263217 
L 359.22961 115.262151 
L 360.262338 115.195352 
L 360.985249 115.162572 
L 361.191794 115.140303 
L 361.708159 115.112312 
L 379.849762 113.984507 
L 380.021883 113.96343 
L 380.366126 113.944441 
L 380.675945 113.911915 
L 381.123461 113.876667 
L 381.880795 113.835931 
L 382.121765 113.844563 
L 382.362736 113.795051 
L 383.154494 113.753278 
L 383.705283 113.743613 
L 383.946253 113.692158 
L 384.152799 113.723357 
L 384.531466 113.689481 
L 384.738012 113.677889 
L 385.116679 113.635203 
L 385.495346 113.60069 
L 386.355954 113.563031 
L 386.665772 113.554603 
L 387.905047 113.494825 
L 388.077168 113.453036 
L 388.765654 113.404279 
L 389.901656 113.33879 
L 390.073778 113.341634 
L 390.211475 113.309616 
L 390.41802 113.292464 
L 390.762263 113.26273 
L 391.244204 113.238661 
L 391.485174 113.240576 
L 392.070387 113.198423 
L 392.449054 113.16395 
L 392.758872 113.169753 
L 393.103115 113.155616 
L 393.37851 113.122234 
L 394.996452 113.024803 
L 395.168573 113.024877 
L 396.511121 112.917441 
L 398.129062 112.818884 
L 398.301184 112.800259 
L 399.402761 112.724372 
L 399.609307 112.743821 
L 400.848582 112.620108 
L 401.227249 112.633614 
L 401.433795 112.582011 
L 402.191129 112.568578 
L 402.363251 112.506216 
L 405.186043 112.357374 
L 405.495861 112.33378 
L 405.908953 112.306695 
L 406.356469 112.285543 
L 406.52859 112.251339 
L 407.044955 112.21551 
L 407.389198 112.235879 
L 407.595743 112.208512 
L 411.967629 111.910586 
L 412.13975 111.87354 
L 412.587266 111.838891 
L 412.931509 111.806919 
L 413.172479 111.823468 
L 414.996967 111.682946 
L 415.272361 111.65707 
L 415.719877 111.628322 
L 416.270666 111.595739 
L 416.54606 111.574353 
L 423.775162 111.097443 
L 423.981708 111.099884 
L 424.119405 111.086794 
L 424.325951 111.075555 
L 424.670194 111.042096 
L 425.358679 110.986954 
L 426.184863 110.935136 
L 426.391408 110.918735 
L 426.735651 110.917878 
L 428.628987 110.751936 
L 428.801109 110.770491 
L 429.455171 110.688457 
L 429.455171 110.688457 
" clip-path="url(#p9136900370)" style="fill: none; stroke-dasharray: 5.55,2.4; stroke-dashoffset: 0; stroke: #008000; stroke-width: 1.5"/>
   </g>
   <g id="line2d_19">
    <path d="M 82.355008 139.180609 
L 85.935135 138.263328 
L 86.244953 138.184534 
L 86.589196 138.077758 
L 89.859504 137.252007 
L 93.129812 136.410274 
L 99.050791 134.912247 
L 99.395034 134.808517 
L 99.60158 134.753597 
L 100.737581 134.467598 
L 101.701462 134.216034 
L 104.524254 133.475554 
L 105.178315 133.309466 
L 105.93565 133.100166 
L 106.555287 132.936333 
L 126.762348 127.775758 
L 127.347561 127.626341 
L 127.932774 127.476768 
L 128.345866 127.375556 
L 129.206473 127.154375 
L 130.686718 126.761726 
L 131.340779 126.598647 
L 132.889873 126.186924 
L 134.197996 125.873507 
L 134.645512 125.75632 
L 138.845276 124.690172 
L 139.60261 124.505438 
L 140.394369 124.296243 
L 140.635339 124.231226 
L 141.771341 123.949753 
L 142.253281 123.829664 
L 143.010615 123.634197 
L 143.974495 123.382393 
L 145.592437 122.964508 
L 151.685537 121.418453 
L 152.098629 121.324891 
L 153.096934 121.054409 
L 153.510025 120.971189 
L 153.923117 120.844382 
L 154.198511 120.778207 
L 161.221067 118.993355 
L 161.668583 118.869181 
L 162.116099 118.7617 
L 162.873433 118.556724 
L 163.148828 118.490854 
L 164.250405 118.216618 
L 164.904467 118.054199 
L 166.69453 117.597615 
L 168.105926 117.244989 
L 168.415745 117.157639 
L 168.828836 117.05603 
L 169.241928 116.937799 
L 284.391193 88.06827 
L 286.732045 87.485145 
L 287.110712 87.378377 
L 287.454955 87.30817 
L 287.833623 87.209329 
L 288.384411 87.079537 
L 290.931809 86.448715 
L 291.276052 86.373285 
L 292.067811 86.178099 
L 292.687448 86.014786 
L 293.444783 85.828874 
L 294.06442 85.678282 
L 294.993876 85.448743 
L 296.783939 85.001788 
L 297.197031 84.9167 
L 297.472425 84.818289 
L 298.22976 84.650808 
L 298.987094 84.46012 
L 391.519598 61.94265 
L 391.898265 61.855867 
L 392.827721 61.606902 
L 393.103115 61.55565 
L 393.309661 61.501467 
L 393.516207 61.462222 
L 394.273541 61.28893 
L 394.82433 61.138835 
L 395.581665 60.970742 
L 395.960332 60.893818 
L 398.955246 60.169015 
L 399.23064 60.088127 
L 399.678156 59.963161 
L 401.468219 59.53928 
L 401.743613 59.484287 
L 402.087856 59.384188 
L 402.294402 59.349598 
L 402.673069 59.275522 
L 404.015617 58.941224 
L 404.291011 58.867849 
L 405.289316 58.624878 
L 406.184347 58.41755 
L 407.320349 58.136952 
L 407.595743 58.063915 
L 408.146532 57.941529 
L 408.731745 57.806124 
L 411.623386 57.114586 
L 412.002053 57.027725 
L 412.724963 56.850926 
L 413.344601 56.700318 
L 413.585571 56.64523 
L 414.308481 56.467005 
L 415.719877 56.135168 
L 416.06412 56.053629 
L 417.50994 55.693622 
L 427.906077 53.164851 
L 428.49129 53.038123 
L 429.455171 52.79264 
L 429.455171 52.79264 
" clip-path="url(#p9136900370)" style="fill: none; stroke-dasharray: 5.55,2.4; stroke-dashoffset: 0; stroke: #0000ff; stroke-width: 1.5"/>
   </g>
   <g id="patch_3">
    <path d="M 65 289.24 
L 65 36.24 
" style="fill: none; stroke: #000000; stroke-width: 0.8; stroke-linejoin: miter; stroke-linecap: square"/>
   </g>
   <g id="patch_4">
    <path d="M 446.810179 289.24 
L 446.810179 36.24 
" style="fill: none; stroke: #000000; stroke-width: 0.8; stroke-linejoin: miter; stroke-linecap: square"/>
   </g>
   <g id="patch_5">
    <path d="M 65 289.24 
L 446.810179 289.24 
" style="fill: none; stroke: #000000; stroke-width: 0.8; stroke-linejoin: miter; stroke-linecap: square"/>
   </g>
   <g id="patch_6">
    <path d="M 65 36.24 
L 446.810179 36.24 
" style="fill: none; stroke: #000000; stroke-width: 0.8; stroke-linejoin: miter; stroke-linecap: square"/>
   </g>
   <g id="text_16">
    <!-- Position -->
    <g transform="translate(205.298527 30.24) scale(0.26 -0.26)">
     <defs>
      <path id="DejaVuSans-50" d="M 1259 4147 
L 1259 2394 
L 2053 2394 
Q 2494 2394 2734 2622 
Q 2975 2850 2975 3272 
Q 2975 3691 2734 3919 
Q 2494 4147 2053 4147 
L 1259 4147 
z
M 628 4666 
L 2053 4666 
Q 2838 4666 3239 4311 
Q 3641 3956 3641 3272 
Q 3641 2581 3239 2228 
Q 2838 1875 2053 1875 
L 1259 1875 
L 1259 0 
L 628 0 
L 628 4666 
z
" transform="scale(0.015625)"/>
      <path id="DejaVuSans-6f" d="M 1959 3097 
Q 1497 3097 1228 2736 
Q 959 2375 959 1747 
Q 959 1119 1226 758 
Q 1494 397 1959 397 
Q 2419 397 2687 759 
Q 2956 1122 2956 1747 
Q 2956 2369 2687 2733 
Q 2419 3097 1959 3097 
z
M 1959 3584 
Q 2709 3584 3137 3096 
Q 3566 2609 3566 1747 
Q 3566 888 3137 398 
Q 2709 -91 1959 -91 
Q 1206 -91 779 398 
Q 353 888 353 1747 
Q 353 2609 779 3096 
Q 1206 3584 1959 3584 
z
" transform="scale(0.015625)"/>
      <path id="DejaVuSans-6e" d="M 3513 2113 
L 3513 0 
L 2938 0 
L 2938 2094 
Q 2938 2591 2744 2837 
Q 2550 3084 2163 3084 
Q 1697 3084 1428 2787 
Q 1159 2491 1159 1978 
L 1159 0 
L 581 0 
L 581 3500 
L 1159 3500 
L 1159 2956 
Q 1366 3272 1645 3428 
Q 1925 3584 2291 3584 
Q 2894 3584 3203 3211 
Q 3513 2838 3513 2113 
z
" transform="scale(0.015625)"/>
     </defs>
     <use xlink:href="#DejaVuSans-50"/>
     <use xlink:href="#DejaVuSans-6f" x="56.677734"/>
     <use xlink:href="#DejaVuSans-73" x="117.859375"/>
     <use xlink:href="#DejaVuSans-69" x="169.958984"/>
     <use xlink:href="#DejaVuSans-74" x="197.742188"/>
     <use xlink:href="#DejaVuSans-69" x="236.951172"/>
     <use xlink:href="#DejaVuSans-6f" x="264.734375"/>
     <use xlink:href="#DejaVuSans-6e" x="325.916016"/>
    </g>
   </g>
   <g id="legend_1">
    <g id="patch_7">
     <path d="M 72 73.59625 
L 141.598438 73.59625 
Q 143.598438 73.59625 143.598438 71.59625 
L 143.598438 43.24 
Q 143.598438 41.24 141.598438 41.24 
L 72 41.24 
Q 70 41.24 70 43.24 
L 70 71.59625 
Q 70 73.59625 72 73.59625 
z
" style="fill: #ffffff; opacity: 0.8; stroke: #cccccc; stroke-linejoin: miter"/>
    </g>
    <g id="line2d_20">
     <path d="M 74 49.338437 
L 84 49.338437 
L 94 49.338437 
" style="fill: none; stroke: #000000; stroke-width: 1.5; stroke-linecap: square"/>
    </g>
    <g id="text_17">
     <!-- Gripper -->
     <g transform="translate(102 52.838437) scale(0.1 -0.1)">
      <defs>
       <path id="DejaVuSans-47" d="M 3809 666 
L 3809 1919 
L 2778 1919 
L 2778 2438 
L 4434 2438 
L 4434 434 
Q 4069 175 3628 42 
Q 3188 -91 2688 -91 
Q 1594 -91 976 548 
Q 359 1188 359 2328 
Q 359 3472 976 4111 
Q 1594 4750 2688 4750 
Q 3144 4750 3555 4637 
Q 3966 4525 4313 4306 
L 4313 3634 
Q 3963 3931 3569 4081 
Q 3175 4231 2741 4231 
Q 1884 4231 1454 3753 
Q 1025 3275 1025 2328 
Q 1025 1384 1454 906 
Q 1884 428 2741 428 
Q 3075 428 3337 486 
Q 3600 544 3809 666 
z
" transform="scale(0.015625)"/>
      </defs>
      <use xlink:href="#DejaVuSans-47"/>
      <use xlink:href="#DejaVuSans-72" x="77.490234"/>
      <use xlink:href="#DejaVuSans-69" x="118.603516"/>
      <use xlink:href="#DejaVuSans-70" x="146.386719"/>
      <use xlink:href="#DejaVuSans-70" x="209.863281"/>
      <use xlink:href="#DejaVuSans-65" x="273.339844"/>
      <use xlink:href="#DejaVuSans-72" x="334.863281"/>
     </g>
    </g>
    <g id="line2d_21">
     <path d="M 74 64.016562 
L 84 64.016562 
L 94 64.016562 
" style="fill: none; stroke-dasharray: 5.55,2.4; stroke-dashoffset: 0; stroke: #000000; stroke-width: 1.5"/>
    </g>
    <g id="text_18">
     <!-- Target -->
     <g transform="translate(102 67.516562) scale(0.1 -0.1)">
      <defs>
       <path id="DejaVuSans-61" d="M 2194 1759 
Q 1497 1759 1228 1600 
Q 959 1441 959 1056 
Q 959 750 1161 570 
Q 1363 391 1709 391 
Q 2188 391 2477 730 
Q 2766 1069 2766 1631 
L 2766 1759 
L 2194 1759 
z
M 3341 1997 
L 3341 0 
L 2766 0 
L 2766 531 
Q 2569 213 2275 61 
Q 1981 -91 1556 -91 
Q 1019 -91 701 211 
Q 384 513 384 1019 
Q 384 1609 779 1909 
Q 1175 2209 1959 2209 
L 2766 2209 
L 2766 2266 
Q 2766 2663 2505 2880 
Q 2244 3097 1772 3097 
Q 1472 3097 1187 3025 
Q 903 2953 641 2809 
L 641 3341 
Q 956 3463 1253 3523 
Q 1550 3584 1831 3584 
Q 2591 3584 2966 3190 
Q 3341 2797 3341 1997 
z
" transform="scale(0.015625)"/>
       <path id="DejaVuSans-67" d="M 2906 1791 
Q 2906 2416 2648 2759 
Q 2391 3103 1925 3103 
Q 1463 3103 1205 2759 
Q 947 2416 947 1791 
Q 947 1169 1205 825 
Q 1463 481 1925 481 
Q 2391 481 2648 825 
Q 2906 1169 2906 1791 
z
M 3481 434 
Q 3481 -459 3084 -895 
Q 2688 -1331 1869 -1331 
Q 1566 -1331 1297 -1286 
Q 1028 -1241 775 -1147 
L 775 -588 
Q 1028 -725 1275 -790 
Q 1522 -856 1778 -856 
Q 2344 -856 2625 -561 
Q 2906 -266 2906 331 
L 2906 616 
Q 2728 306 2450 153 
Q 2172 0 1784 0 
Q 1141 0 747 490 
Q 353 981 353 1791 
Q 353 2603 747 3093 
Q 1141 3584 1784 3584 
Q 2172 3584 2450 3431 
Q 2728 3278 2906 2969 
L 2906 3500 
L 3481 3500 
L 3481 434 
z
" transform="scale(0.015625)"/>
      </defs>
      <use xlink:href="#DejaVuSans-54"/>
      <use xlink:href="#DejaVuSans-61" x="44.583984"/>
      <use xlink:href="#DejaVuSans-72" x="105.863281"/>
      <use xlink:href="#DejaVuSans-67" x="145.226562"/>
      <use xlink:href="#DejaVuSans-65" x="208.703125"/>
      <use xlink:href="#DejaVuSans-74" x="270.226562"/>
     </g>
    </g>
   </g>
  </g>
 </g>
 <defs>
  <clipPath id="p9136900370">
   <rect x="65" y="36.24" width="381.810179" height="253"/>
  </clipPath>
 </defs>
</svg>
