<?xml version="1.0" encoding="utf-8" standalone="no"?>
<!DOCTYPE svg PUBLIC "-//W3C//DTD SVG 1.1//EN"
  "http://www.w3.org/Graphics/SVG/1.1/DTD/svg11.dtd">
<svg xmlns:xlink="http://www.w3.org/1999/xlink" width="460.8pt" height="345.6pt" viewBox="0 0 460.8 345.6" xmlns="http://www.w3.org/2000/svg" version="1.1">
 <metadata>
  <rdf:RDF xmlns:dc="http://purl.org/dc/elements/1.1/" xmlns:cc="http://creativecommons.org/ns#" xmlns:rdf="http://www.w3.org/1999/02/22-rdf-syntax-ns#">
   <cc:Work>
    <dc:type rdf:resource="http://purl.org/dc/dcmitype/StillImage"/>
    <dc:date>2024-10-24T15:25:36.806631</dc:date>
    <dc:format>image/svg+xml</dc:format>
    <dc:creator>
     <cc:Agent>
      <dc:title>Matplotlib v3.7.5, https://matplotlib.org/</dc:title>
     </cc:Agent>
    </dc:creator>
   </cc:Work>
  </rdf:RDF>
 </metadata>
 <defs>
  <style type="text/css">*{stroke-linejoin: round; stroke-linecap: butt}</style>
 </defs>
 <g id="figure_1">
  <g id="patch_1">
   <path d="M 0 345.6 
L 460.8 345.6 
L 460.8 0 
L 0 0 
z
" style="fill: #ffffff"/>
  </g>
  <g id="axes_1">
   <g id="patch_2">
    <path d="M 76.7 289.24 
L 450 289.24 
L 450 36.24 
L 76.7 36.24 
z
" style="fill: #ffffff"/>
   </g>
   <g id="matplotlib.axis_1">
    <g id="xtick_1">
     <g id="line2d_1">
      <defs>
       <path id="mc003ed737f" d="M 0 0 
L 0 3.5 
" style="stroke: #000000; stroke-width: 0.8"/>
      </defs>
      <g>
       <use xlink:href="#mc003ed737f" x="93.668182" y="289.24" style="stroke: #000000; stroke-width: 0.8"/>
      </g>
     </g>
     <g id="text_1">
      <!-- 0 -->
      <g transform="translate(89.214432 306.877813) scale(0.14 -0.14)">
       <defs>
        <path id="DejaVuSans-30" d="M 2034 4250 
Q 1547 4250 1301 3770 
Q 1056 3291 1056 2328 
Q 1056 1369 1301 889 
Q 1547 409 2034 409 
Q 2525 409 2770 889 
Q 3016 1369 3016 2328 
Q 3016 3291 2770 3770 
Q 2525 4250 2034 4250 
z
M 2034 4750 
Q 2819 4750 3233 4129 
Q 3647 3509 3647 2328 
Q 3647 1150 3233 529 
Q 2819 -91 2034 -91 
Q 1250 -91 836 529 
Q 422 1150 422 2328 
Q 422 3509 836 4129 
Q 1250 4750 2034 4750 
z
" transform="scale(0.015625)"/>
       </defs>
       <use xlink:href="#DejaVuSans-30"/>
      </g>
     </g>
    </g>
    <g id="xtick_2">
     <g id="line2d_2">
      <g>
       <use xlink:href="#mc003ed737f" x="146.726912" y="289.24" style="stroke: #000000; stroke-width: 0.8"/>
      </g>
     </g>
     <g id="text_2">
      <!-- 250 -->
      <g transform="translate(133.365662 306.877813) scale(0.14 -0.14)">
       <defs>
        <path id="DejaVuSans-32" d="M 1228 531 
L 3431 531 
L 3431 0 
L 469 0 
L 469 531 
Q 828 903 1448 1529 
Q 2069 2156 2228 2338 
Q 2531 2678 2651 2914 
Q 2772 3150 2772 3378 
Q 2772 3750 2511 3984 
Q 2250 4219 1831 4219 
Q 1534 4219 1204 4116 
Q 875 4013 500 3803 
L 500 4441 
Q 881 4594 1212 4672 
Q 1544 4750 1819 4750 
Q 2544 4750 2975 4387 
Q 3406 4025 3406 3419 
Q 3406 3131 3298 2873 
Q 3191 2616 2906 2266 
Q 2828 2175 2409 1742 
Q 1991 1309 1228 531 
z
" transform="scale(0.015625)"/>
        <path id="DejaVuSans-35" d="M 691 4666 
L 3169 4666 
L 3169 4134 
L 1269 4134 
L 1269 2991 
Q 1406 3038 1543 3061 
Q 1681 3084 1819 3084 
Q 2600 3084 3056 2656 
Q 3513 2228 3513 1497 
Q 3513 744 3044 326 
Q 2575 -91 1722 -91 
Q 1428 -91 1123 -41 
Q 819 9 494 109 
L 494 744 
Q 775 591 1075 516 
Q 1375 441 1709 441 
Q 2250 441 2565 725 
Q 2881 1009 2881 1497 
Q 2881 1984 2565 2268 
Q 2250 2553 1709 2553 
Q 1456 2553 1204 2497 
Q 953 2441 691 2322 
L 691 4666 
z
" transform="scale(0.015625)"/>
       </defs>
       <use xlink:href="#DejaVuSans-32"/>
       <use xlink:href="#DejaVuSans-35" x="63.623047"/>
       <use xlink:href="#DejaVuSans-30" x="127.246094"/>
      </g>
     </g>
    </g>
    <g id="xtick_3">
     <g id="line2d_3">
      <g>
       <use xlink:href="#mc003ed737f" x="199.785642" y="289.24" style="stroke: #000000; stroke-width: 0.8"/>
      </g>
     </g>
     <g id="text_3">
      <!-- 500 -->
      <g transform="translate(186.424392 306.877813) scale(0.14 -0.14)">
       <use xlink:href="#DejaVuSans-35"/>
       <use xlink:href="#DejaVuSans-30" x="63.623047"/>
       <use xlink:href="#DejaVuSans-30" x="127.246094"/>
      </g>
     </g>
    </g>
    <g id="xtick_4">
     <g id="line2d_4">
      <g>
       <use xlink:href="#mc003ed737f" x="252.844371" y="289.24" style="stroke: #000000; stroke-width: 0.8"/>
      </g>
     </g>
     <g id="text_4">
      <!-- 750 -->
      <g transform="translate(239.483121 306.877813) scale(0.14 -0.14)">
       <defs>
        <path id="DejaVuSans-37" d="M 525 4666 
L 3525 4666 
L 3525 4397 
L 1831 0 
L 1172 0 
L 2766 4134 
L 525 4134 
L 525 4666 
z
" transform="scale(0.015625)"/>
       </defs>
       <use xlink:href="#DejaVuSans-37"/>
       <use xlink:href="#DejaVuSans-35" x="63.623047"/>
       <use xlink:href="#DejaVuSans-30" x="127.246094"/>
      </g>
     </g>
    </g>
    <g id="xtick_5">
     <g id="line2d_5">
      <g>
       <use xlink:href="#mc003ed737f" x="305.903101" y="289.24" style="stroke: #000000; stroke-width: 0.8"/>
      </g>
     </g>
     <g id="text_5">
      <!-- 1000 -->
      <g transform="translate(288.088101 306.877813) scale(0.14 -0.14)">
       <defs>
        <path id="DejaVuSans-31" d="M 794 531 
L 1825 531 
L 1825 4091 
L 703 3866 
L 703 4441 
L 1819 4666 
L 2450 4666 
L 2450 531 
L 3481 531 
L 3481 0 
L 794 0 
L 794 531 
z
" transform="scale(0.015625)"/>
       </defs>
       <use xlink:href="#DejaVuSans-31"/>
       <use xlink:href="#DejaVuSans-30" x="63.623047"/>
       <use xlink:href="#DejaVuSans-30" x="127.246094"/>
       <use xlink:href="#DejaVuSans-30" x="190.869141"/>
      </g>
     </g>
    </g>
    <g id="xtick_6">
     <g id="line2d_6">
      <g>
       <use xlink:href="#mc003ed737f" x="358.961831" y="289.24" style="stroke: #000000; stroke-width: 0.8"/>
      </g>
     </g>
     <g id="text_6">
      <!-- 1250 -->
      <g transform="translate(341.146831 306.877813) scale(0.14 -0.14)">
       <use xlink:href="#DejaVuSans-31"/>
       <use xlink:href="#DejaVuSans-32" x="63.623047"/>
       <use xlink:href="#DejaVuSans-35" x="127.246094"/>
       <use xlink:href="#DejaVuSans-30" x="190.869141"/>
      </g>
     </g>
    </g>
    <g id="xtick_7">
     <g id="line2d_7">
      <g>
       <use xlink:href="#mc003ed737f" x="412.020561" y="289.24" style="stroke: #000000; stroke-width: 0.8"/>
      </g>
     </g>
     <g id="text_7">
      <!-- 1500 -->
      <g transform="translate(394.205561 306.877813) scale(0.14 -0.14)">
       <use xlink:href="#DejaVuSans-31"/>
       <use xlink:href="#DejaVuSans-35" x="63.623047"/>
       <use xlink:href="#DejaVuSans-30" x="127.246094"/>
       <use xlink:href="#DejaVuSans-30" x="190.869141"/>
      </g>
     </g>
    </g>
    <g id="text_8">
     <!-- Timesteps -->
     <g transform="translate(206.911406 330.505937) scale(0.22 -0.22)">
      <defs>
       <path id="DejaVuSans-54" d="M -19 4666 
L 3928 4666 
L 3928 4134 
L 2272 4134 
L 2272 0 
L 1638 0 
L 1638 4134 
L -19 4134 
L -19 4666 
z
" transform="scale(0.015625)"/>
       <path id="DejaVuSans-69" d="M 603 3500 
L 1178 3500 
L 1178 0 
L 603 0 
L 603 3500 
z
M 603 4863 
L 1178 4863 
L 1178 4134 
L 603 4134 
L 603 4863 
z
" transform="scale(0.015625)"/>
       <path id="DejaVuSans-6d" d="M 3328 2828 
Q 3544 3216 3844 3400 
Q 4144 3584 4550 3584 
Q 5097 3584 5394 3201 
Q 5691 2819 5691 2113 
L 5691 0 
L 5113 0 
L 5113 2094 
Q 5113 2597 4934 2840 
Q 4756 3084 4391 3084 
Q 3944 3084 3684 2787 
Q 3425 2491 3425 1978 
L 3425 0 
L 2847 0 
L 2847 2094 
Q 2847 2600 2669 2842 
Q 2491 3084 2119 3084 
Q 1678 3084 1418 2786 
Q 1159 2488 1159 1978 
L 1159 0 
L 581 0 
L 581 3500 
L 1159 3500 
L 1159 2956 
Q 1356 3278 1631 3431 
Q 1906 3584 2284 3584 
Q 2666 3584 2933 3390 
Q 3200 3197 3328 2828 
z
" transform="scale(0.015625)"/>
       <path id="DejaVuSans-65" d="M 3597 1894 
L 3597 1613 
L 953 1613 
Q 991 1019 1311 708 
Q 1631 397 2203 397 
Q 2534 397 2845 478 
Q 3156 559 3463 722 
L 3463 178 
Q 3153 47 2828 -22 
Q 2503 -91 2169 -91 
Q 1331 -91 842 396 
Q 353 884 353 1716 
Q 353 2575 817 3079 
Q 1281 3584 2069 3584 
Q 2775 3584 3186 3129 
Q 3597 2675 3597 1894 
z
M 3022 2063 
Q 3016 2534 2758 2815 
Q 2500 3097 2075 3097 
Q 1594 3097 1305 2825 
Q 1016 2553 972 2059 
L 3022 2063 
z
" transform="scale(0.015625)"/>
       <path id="DejaVuSans-73" d="M 2834 3397 
L 2834 2853 
Q 2591 2978 2328 3040 
Q 2066 3103 1784 3103 
Q 1356 3103 1142 2972 
Q 928 2841 928 2578 
Q 928 2378 1081 2264 
Q 1234 2150 1697 2047 
L 1894 2003 
Q 2506 1872 2764 1633 
Q 3022 1394 3022 966 
Q 3022 478 2636 193 
Q 2250 -91 1575 -91 
Q 1294 -91 989 -36 
Q 684 19 347 128 
L 347 722 
Q 666 556 975 473 
Q 1284 391 1588 391 
Q 1994 391 2212 530 
Q 2431 669 2431 922 
Q 2431 1156 2273 1281 
Q 2116 1406 1581 1522 
L 1381 1569 
Q 847 1681 609 1914 
Q 372 2147 372 2553 
Q 372 3047 722 3315 
Q 1072 3584 1716 3584 
Q 2034 3584 2315 3537 
Q 2597 3491 2834 3397 
z
" transform="scale(0.015625)"/>
       <path id="DejaVuSans-74" d="M 1172 4494 
L 1172 3500 
L 2356 3500 
L 2356 3053 
L 1172 3053 
L 1172 1153 
Q 1172 725 1289 603 
Q 1406 481 1766 481 
L 2356 481 
L 2356 0 
L 1766 0 
Q 1100 0 847 248 
Q 594 497 594 1153 
L 594 3053 
L 172 3053 
L 172 3500 
L 594 3500 
L 594 4494 
L 1172 4494 
z
" transform="scale(0.015625)"/>
       <path id="DejaVuSans-70" d="M 1159 525 
L 1159 -1331 
L 581 -1331 
L 581 3500 
L 1159 3500 
L 1159 2969 
Q 1341 3281 1617 3432 
Q 1894 3584 2278 3584 
Q 2916 3584 3314 3078 
Q 3713 2572 3713 1747 
Q 3713 922 3314 415 
Q 2916 -91 2278 -91 
Q 1894 -91 1617 61 
Q 1341 213 1159 525 
z
M 3116 1747 
Q 3116 2381 2855 2742 
Q 2594 3103 2138 3103 
Q 1681 3103 1420 2742 
Q 1159 2381 1159 1747 
Q 1159 1113 1420 752 
Q 1681 391 2138 391 
Q 2594 391 2855 752 
Q 3116 1113 3116 1747 
z
" transform="scale(0.015625)"/>
      </defs>
      <use xlink:href="#DejaVuSans-54"/>
      <use xlink:href="#DejaVuSans-69" x="57.958984"/>
      <use xlink:href="#DejaVuSans-6d" x="85.742188"/>
      <use xlink:href="#DejaVuSans-65" x="183.154297"/>
      <use xlink:href="#DejaVuSans-73" x="244.677734"/>
      <use xlink:href="#DejaVuSans-74" x="296.777344"/>
      <use xlink:href="#DejaVuSans-65" x="335.986328"/>
      <use xlink:href="#DejaVuSans-70" x="397.509766"/>
      <use xlink:href="#DejaVuSans-73" x="460.986328"/>
     </g>
    </g>
   </g>
   <g id="matplotlib.axis_2">
    <g id="ytick_1">
     <g id="line2d_8">
      <defs>
       <path id="m028dd9a150" d="M 0 0 
L -3.5 0 
" style="stroke: #000000; stroke-width: 0.8"/>
      </defs>
      <g>
       <use xlink:href="#m028dd9a150" x="76.7" y="266.191936" style="stroke: #000000; stroke-width: 0.8"/>
      </g>
     </g>
     <g id="text_9">
      <!-- −0.2 -->
      <g transform="translate(35.704062 271.510842) scale(0.14 -0.14)">
       <defs>
        <path id="DejaVuSans-2212" d="M 678 2272 
L 4684 2272 
L 4684 1741 
L 678 1741 
L 678 2272 
z
" transform="scale(0.015625)"/>
        <path id="DejaVuSans-2e" d="M 684 794 
L 1344 794 
L 1344 0 
L 684 0 
L 684 794 
z
" transform="scale(0.015625)"/>
       </defs>
       <use xlink:href="#DejaVuSans-2212"/>
       <use xlink:href="#DejaVuSans-30" x="83.789062"/>
       <use xlink:href="#DejaVuSans-2e" x="147.412109"/>
       <use xlink:href="#DejaVuSans-32" x="179.199219"/>
      </g>
     </g>
    </g>
    <g id="ytick_2">
     <g id="line2d_9">
      <g>
       <use xlink:href="#m028dd9a150" x="76.7" y="234.812757" style="stroke: #000000; stroke-width: 0.8"/>
      </g>
     </g>
     <g id="text_10">
      <!-- 0.0 -->
      <g transform="translate(47.435625 240.131663) scale(0.14 -0.14)">
       <use xlink:href="#DejaVuSans-30"/>
       <use xlink:href="#DejaVuSans-2e" x="63.623047"/>
       <use xlink:href="#DejaVuSans-30" x="95.410156"/>
      </g>
     </g>
    </g>
    <g id="ytick_3">
     <g id="line2d_10">
      <g>
       <use xlink:href="#m028dd9a150" x="76.7" y="203.433578" style="stroke: #000000; stroke-width: 0.8"/>
      </g>
     </g>
     <g id="text_11">
      <!-- 0.2 -->
      <g transform="translate(47.435625 208.752484) scale(0.14 -0.14)">
       <use xlink:href="#DejaVuSans-30"/>
       <use xlink:href="#DejaVuSans-2e" x="63.623047"/>
       <use xlink:href="#DejaVuSans-32" x="95.410156"/>
      </g>
     </g>
    </g>
    <g id="ytick_4">
     <g id="line2d_11">
      <g>
       <use xlink:href="#m028dd9a150" x="76.7" y="172.054399" style="stroke: #000000; stroke-width: 0.8"/>
      </g>
     </g>
     <g id="text_12">
      <!-- 0.4 -->
      <g transform="translate(47.435625 177.373305) scale(0.14 -0.14)">
       <defs>
        <path id="DejaVuSans-34" d="M 2419 4116 
L 825 1625 
L 2419 1625 
L 2419 4116 
z
M 2253 4666 
L 3047 4666 
L 3047 1625 
L 3713 1625 
L 3713 1100 
L 3047 1100 
L 3047 0 
L 2419 0 
L 2419 1100 
L 313 1100 
L 313 1709 
L 2253 4666 
z
" transform="scale(0.015625)"/>
       </defs>
       <use xlink:href="#DejaVuSans-30"/>
       <use xlink:href="#DejaVuSans-2e" x="63.623047"/>
       <use xlink:href="#DejaVuSans-34" x="95.410156"/>
      </g>
     </g>
    </g>
    <g id="ytick_5">
     <g id="line2d_12">
      <g>
       <use xlink:href="#m028dd9a150" x="76.7" y="140.67522" style="stroke: #000000; stroke-width: 0.8"/>
      </g>
     </g>
     <g id="text_13">
      <!-- 0.6 -->
      <g transform="translate(47.435625 145.994126) scale(0.14 -0.14)">
       <defs>
        <path id="DejaVuSans-36" d="M 2113 2584 
Q 1688 2584 1439 2293 
Q 1191 2003 1191 1497 
Q 1191 994 1439 701 
Q 1688 409 2113 409 
Q 2538 409 2786 701 
Q 3034 994 3034 1497 
Q 3034 2003 2786 2293 
Q 2538 2584 2113 2584 
z
M 3366 4563 
L 3366 3988 
Q 3128 4100 2886 4159 
Q 2644 4219 2406 4219 
Q 1781 4219 1451 3797 
Q 1122 3375 1075 2522 
Q 1259 2794 1537 2939 
Q 1816 3084 2150 3084 
Q 2853 3084 3261 2657 
Q 3669 2231 3669 1497 
Q 3669 778 3244 343 
Q 2819 -91 2113 -91 
Q 1303 -91 875 529 
Q 447 1150 447 2328 
Q 447 3434 972 4092 
Q 1497 4750 2381 4750 
Q 2619 4750 2861 4703 
Q 3103 4656 3366 4563 
z
" transform="scale(0.015625)"/>
       </defs>
       <use xlink:href="#DejaVuSans-30"/>
       <use xlink:href="#DejaVuSans-2e" x="63.623047"/>
       <use xlink:href="#DejaVuSans-36" x="95.410156"/>
      </g>
     </g>
    </g>
    <g id="ytick_6">
     <g id="line2d_13">
      <g>
       <use xlink:href="#m028dd9a150" x="76.7" y="109.296041" style="stroke: #000000; stroke-width: 0.8"/>
      </g>
     </g>
     <g id="text_14">
      <!-- 0.8 -->
      <g transform="translate(47.435625 114.614947) scale(0.14 -0.14)">
       <defs>
        <path id="DejaVuSans-38" d="M 2034 2216 
Q 1584 2216 1326 1975 
Q 1069 1734 1069 1313 
Q 1069 891 1326 650 
Q 1584 409 2034 409 
Q 2484 409 2743 651 
Q 3003 894 3003 1313 
Q 3003 1734 2745 1975 
Q 2488 2216 2034 2216 
z
M 1403 2484 
Q 997 2584 770 2862 
Q 544 3141 544 3541 
Q 544 4100 942 4425 
Q 1341 4750 2034 4750 
Q 2731 4750 3128 4425 
Q 3525 4100 3525 3541 
Q 3525 3141 3298 2862 
Q 3072 2584 2669 2484 
Q 3125 2378 3379 2068 
Q 3634 1759 3634 1313 
Q 3634 634 3220 271 
Q 2806 -91 2034 -91 
Q 1263 -91 848 271 
Q 434 634 434 1313 
Q 434 1759 690 2068 
Q 947 2378 1403 2484 
z
M 1172 3481 
Q 1172 3119 1398 2916 
Q 1625 2713 2034 2713 
Q 2441 2713 2670 2916 
Q 2900 3119 2900 3481 
Q 2900 3844 2670 4047 
Q 2441 4250 2034 4250 
Q 1625 4250 1398 4047 
Q 1172 3844 1172 3481 
z
" transform="scale(0.015625)"/>
       </defs>
       <use xlink:href="#DejaVuSans-30"/>
       <use xlink:href="#DejaVuSans-2e" x="63.623047"/>
       <use xlink:href="#DejaVuSans-38" x="95.410156"/>
      </g>
     </g>
    </g>
    <g id="ytick_7">
     <g id="line2d_14">
      <g>
       <use xlink:href="#m028dd9a150" x="76.7" y="77.916862" style="stroke: #000000; stroke-width: 0.8"/>
      </g>
     </g>
     <g id="text_15">
      <!-- 1.0 -->
      <g transform="translate(47.435625 83.235768) scale(0.14 -0.14)">
       <use xlink:href="#DejaVuSans-31"/>
       <use xlink:href="#DejaVuSans-2e" x="63.623047"/>
       <use xlink:href="#DejaVuSans-30" x="95.410156"/>
      </g>
     </g>
    </g>
    <g id="ytick_8">
     <g id="line2d_15">
      <g>
       <use xlink:href="#m028dd9a150" x="76.7" y="46.537683" style="stroke: #000000; stroke-width: 0.8"/>
      </g>
     </g>
     <g id="text_16">
      <!-- 1.2 -->
      <g transform="translate(47.435625 51.85659) scale(0.14 -0.14)">
       <use xlink:href="#DejaVuSans-31"/>
       <use xlink:href="#DejaVuSans-2e" x="63.623047"/>
       <use xlink:href="#DejaVuSans-32" x="95.410156"/>
      </g>
     </g>
    </g>
    <g id="text_17">
     <!-- meter -->
     <g transform="translate(27.12875 195.825937) rotate(-90) scale(0.22 -0.22)">
      <defs>
       <path id="DejaVuSans-72" d="M 2631 2963 
Q 2534 3019 2420 3045 
Q 2306 3072 2169 3072 
Q 1681 3072 1420 2755 
Q 1159 2438 1159 1844 
L 1159 0 
L 581 0 
L 581 3500 
L 1159 3500 
L 1159 2956 
Q 1341 3275 1631 3429 
Q 1922 3584 2338 3584 
Q 2397 3584 2469 3576 
Q 2541 3569 2628 3553 
L 2631 2963 
z
" transform="scale(0.015625)"/>
      </defs>
      <use xlink:href="#DejaVuSans-6d"/>
      <use xlink:href="#DejaVuSans-65" x="97.412109"/>
      <use xlink:href="#DejaVuSans-74" x="158.935547"/>
      <use xlink:href="#DejaVuSans-65" x="198.144531"/>
      <use xlink:href="#DejaVuSans-72" x="259.667969"/>
     </g>
    </g>
   </g>
   <g id="line2d_16">
    <path d="M 93.668182 234.966225 
L 105.765572 234.899356 
L 105.977807 234.654742 
L 106.190042 234.037803 
L 106.614512 233.702063 
L 107.038982 233.593994 
L 107.251217 233.242047 
L 107.887921 232.773265 
L 108.312391 232.29435 
L 108.949096 231.86381 
L 109.373566 231.44294 
L 110.222506 230.673781 
L 110.646975 230.38066 
L 111.071445 229.952352 
L 114.254969 227.164922 
L 114.467204 227.044175 
L 115.103909 226.34098 
L 116.589553 225.087156 
L 116.801788 224.948684 
L 117.226258 224.488495 
L 117.438493 224.402312 
L 117.650728 224.059021 
L 117.862963 223.963825 
L 118.924137 222.991909 
L 121.895426 220.540859 
L 122.532131 219.97352 
L 123.168836 219.525801 
L 123.80554 218.933175 
L 124.23001 218.699073 
L 125.07895 217.889121 
L 125.715655 217.44452 
L 126.140125 216.970435 
L 126.352359 216.865661 
L 126.564594 216.595841 
L 126.776829 216.544461 
L 127.625769 215.746363 
L 128.050239 215.462391 
L 128.474709 215.016773 
L 129.323648 214.442103 
L 129.748118 214.038082 
L 130.384823 213.573721 
L 131.021528 213.029033 
L 131.233763 212.88865 
L 131.445997 212.570395 
L 131.870467 212.351668 
L 132.082702 212.102098 
L 132.294937 212.056702 
L 132.719407 211.625956 
L 133.780582 210.940343 
L 133.992817 210.630838 
L 134.417286 210.434662 
L 134.841756 210.130347 
L 135.053991 210.125542 
L 135.266226 209.779457 
L 135.690696 209.685605 
L 135.902931 209.371793 
L 136.327401 209.270437 
L 136.539636 208.9548 
L 136.75187 208.957238 
L 137.17634 208.595922 
L 137.60081 208.474995 
L 137.813045 208.183335 
L 138.237515 208.111988 
L 138.44975 207.882568 
L 139.086455 207.641975 
L 139.935394 207.251561 
L 140.147629 207.204697 
L 140.359864 207.021671 
L 140.784334 206.904863 
L 140.996569 206.781556 
L 141.208804 206.790797 
L 141.633274 206.548075 
L 142.057743 206.54459 
L 142.269978 206.298547 
L 142.694448 206.281992 
L 143.543388 205.994598 
L 143.755623 206.068382 
L 144.180093 205.866839 
L 144.604563 205.85352 
L 144.816797 205.718913 
L 145.453502 205.687376 
L 146.302442 205.518985 
L 146.514677 205.547482 
L 146.939147 205.470965 
L 148.212556 205.252841 
L 149.698201 205.032459 
L 156.914188 204.438048 
L 159.248772 204.245779 
L 164.76688 203.753052 
L 171.133927 203.94101 
L 174.954156 204.491677 
L 177.500975 204.997718 
L 178.56215 205.183702 
L 178.986619 205.347882 
L 182.170143 206.105989 
L 182.594613 206.269165 
L 183.019083 206.333473 
L 183.655788 206.534361 
L 187.900486 207.777536 
L 188.324956 207.904999 
L 191.720715 208.793359 
L 193.206359 209.210587 
L 195.540943 209.883537 
L 195.965413 209.925505 
L 196.389883 210.063073 
L 197.451057 210.368528 
L 197.875527 210.463514 
L 198.299997 210.60237 
L 198.512232 210.626091 
L 198.724467 210.791709 
L 199.148937 210.841502 
L 200.634581 211.388065 
L 200.846816 211.353485 
L 201.271286 211.533053 
L 201.695756 211.596496 
L 201.907991 211.774596 
L 202.332461 211.800193 
L 203.393635 212.061412 
L 203.60587 212.258647 
L 204.242575 212.361097 
L 204.667045 212.519134 
L 205.940454 212.87916 
L 206.152689 212.876986 
L 206.789394 213.119639 
L 208.275038 213.535058 
L 208.911743 213.727467 
L 209.336213 213.843017 
L 209.548448 213.966982 
L 209.760683 213.950868 
L 210.397388 214.185124 
L 211.670797 214.560453 
L 212.095267 214.77249 
L 213.156442 214.993074 
L 213.368676 215.136514 
L 213.793146 215.237668 
L 214.005381 215.250728 
L 214.642086 215.546239 
L 216.12773 216.011868 
L 216.764435 216.2638 
L 216.97667 216.275725 
L 217.40114 216.461818 
L 218.674549 216.910032 
L 219.311254 217.129427 
L 220.584664 217.592233 
L 221.009134 217.756596 
L 221.645838 217.980534 
L 222.282543 218.234155 
L 222.707013 218.419816 
L 222.919248 218.576837 
L 223.555953 218.707417 
L 224.829362 219.289906 
L 225.041597 219.287668 
L 225.890537 219.643259 
L 228.437356 220.62863 
L 228.649591 220.800308 
L 229.07406 220.934892 
L 230.559705 221.531641 
L 231.19641 221.88682 
L 232.045349 222.230011 
L 239.261337 226.0116 
L 239.898041 226.380532 
L 240.110276 226.421049 
L 240.322511 226.666269 
L 240.534746 226.681232 
L 241.171451 227.122003 
L 241.595921 227.34983 
L 243.081565 228.126852 
L 243.506035 228.432798 
L 243.930505 228.580398 
L 244.14274 228.835224 
L 244.354975 228.830745 
L 244.779445 229.145849 
L 245.203914 229.367355 
L 245.628384 229.625731 
L 245.840619 229.657327 
L 246.052854 229.876038 
L 246.265089 229.857578 
L 246.689559 230.163615 
L 247.326264 230.550746 
L 252.207667 233.162554 
L 252.419902 233.440156 
L 252.844371 233.692417 
L 253.268841 233.929917 
L 253.693311 234.220944 
L 254.117781 234.37223 
L 254.542251 234.706527 
L 254.754486 234.732858 
L 255.391191 235.152952 
L 255.603425 235.244646 
L 256.027895 235.56128 
L 256.6646 235.870087 
L 257.08907 236.124187 
L 258.362479 236.999151 
L 258.574714 237.01099 
L 259.211419 237.462044 
L 259.423654 237.630245 
L 259.635889 237.652857 
L 260.272594 238.087413 
L 260.697064 238.352536 
L 260.909298 238.622444 
L 261.546003 238.823648 
L 261.758238 239.057905 
L 262.182708 239.266086 
L 262.394943 239.460218 
L 262.607178 239.494183 
L 263.668352 240.157589 
L 264.305057 240.39795 
L 264.729527 240.595943 
L 264.941762 240.910099 
L 265.790702 241.265044 
L 266.002936 241.461683 
L 266.215171 241.486452 
L 266.427406 241.759195 
L 267.276346 242.010024 
L 267.700816 242.364874 
L 268.125286 242.499127 
L 268.974225 243.004103 
L 269.18646 242.952271 
L 269.61093 243.316875 
L 270.672105 243.778978 
L 270.88434 244.008091 
L 271.096575 243.989167 
L 271.733279 244.422853 
L 272.157749 244.588192 
L 273.855629 245.329846 
L 274.067863 245.541687 
L 274.280098 245.509439 
L 274.492333 245.702554 
L 274.704568 245.659679 
L 275.765743 246.12824 
L 276.190213 246.25858 
L 277.039152 246.60644 
L 277.675857 246.747063 
L 277.888092 246.966859 
L 278.949267 247.257452 
L 279.373736 247.452932 
L 279.798206 247.615329 
L 280.434911 247.860747 
L 280.859381 247.839176 
L 281.071616 247.996131 
L 281.496086 248.040394 
L 281.708321 248.237118 
L 282.13279 248.334958 
L 282.98173 248.645106 
L 283.4062 248.69648 
L 283.83067 248.92095 
L 285.104079 249.385676 
L 286.589724 249.818607 
L 286.801959 250.015296 
L 287.014194 249.982038 
L 287.863133 250.373119 
L 288.287603 250.429107 
L 288.499838 250.470977 
L 288.712073 250.701292 
L 288.924308 250.663033 
L 289.561013 250.909559 
L 289.773247 250.905531 
L 289.985482 251.06805 
L 290.409952 251.205495 
L 291.471127 251.637437 
L 291.683362 251.629987 
L 291.895597 251.768393 
L 292.107832 251.744323 
L 292.532301 252.085109 
L 292.744536 252.061508 
L 293.169006 252.250211 
L 294.017946 252.501206 
L 297.413705 253.782805 
L 298.262644 254.011148 
L 298.687114 254.222772 
L 299.111584 254.255428 
L 299.536054 254.455324 
L 300.172759 254.597339 
L 300.597228 254.817333 
L 301.021698 254.901287 
L 301.233933 255.114743 
L 301.658403 255.155491 
L 303.568517 255.702328 
L 303.992987 255.974141 
L 304.417457 256.085348 
L 306.115336 256.630599 
L 306.752041 256.847237 
L 308.237685 257.315568 
L 308.662155 257.494714 
L 309.086625 257.628908 
L 309.511095 257.696561 
L 309.72333 257.87937 
L 309.935565 257.852078 
L 310.360035 258.078951 
L 310.57227 258.04269 
L 310.996739 258.277552 
L 311.208974 258.253001 
L 311.633444 258.443673 
L 312.270149 258.576807 
L 316.302612 259.996738 
L 316.939317 260.194118 
L 318.000492 260.583294 
L 320.971781 261.539994 
L 321.184016 261.717791 
L 322.032955 261.912847 
L 323.306365 262.319323 
L 323.5186 262.322278 
L 324.367539 262.79191 
L 324.792009 262.878974 
L 326.277654 263.377826 
L 326.702123 263.517875 
L 327.126593 263.728152 
L 329.673412 264.565994 
L 329.885647 264.739066 
L 330.097882 264.719831 
L 330.310117 264.913641 
L 331.583527 265.236961 
L 331.795762 265.397329 
L 332.432466 265.541458 
L 333.069171 265.895281 
L 333.281406 265.867544 
L 333.705876 266.016485 
L 333.918111 265.993685 
L 334.342581 266.347297 
L 335.19152 266.494869 
L 335.403755 266.569766 
L 335.61599 266.779011 
L 336.46493 266.966245 
L 336.677165 267.220845 
L 338.375044 267.710174 
L 338.799514 267.969966 
L 339.223984 267.997347 
L 339.648454 268.211037 
L 340.285158 268.341401 
L 340.497393 268.590771 
L 342.195273 269.018365 
L 342.407508 269.267231 
L 343.044212 269.452625 
L 343.468682 269.560575 
L 343.680917 269.627902 
L 343.893152 269.896854 
L 344.105387 269.752607 
L 344.317622 269.81286 
L 344.529857 270.038197 
L 344.742092 269.956239 
L 345.166561 270.259973 
L 345.378796 270.233267 
L 345.591031 270.496794 
L 346.652206 270.711366 
L 347.076676 271.050755 
L 347.288911 271.012771 
L 347.501146 271.302773 
L 347.713381 271.39305 
L 347.925615 271.227702 
L 348.350085 271.517758 
L 348.56232 271.473497 
L 348.98679 271.725553 
L 349.199025 271.659236 
L 349.623495 271.917744 
L 349.83573 271.846154 
L 350.2602 272.148454 
L 350.472434 272.080089 
L 351.109139 272.306685 
L 351.958079 272.667058 
L 353.443723 273.118541 
L 353.655958 273.146835 
L 354.080428 273.315644 
L 354.929368 273.56314 
L 355.141603 273.566345 
L 355.353838 273.730684 
L 355.990542 273.845054 
L 357.263952 274.182273 
L 357.900657 274.286011 
L 358.749596 274.613483 
L 359.386301 274.703026 
L 360.235241 274.941083 
L 360.447476 274.922727 
L 360.659711 275.071724 
L 360.871946 274.980866 
L 361.08418 275.011727 
L 361.296415 275.159232 
L 361.720885 275.141448 
L 361.93312 275.288613 
L 362.145355 275.23033 
L 362.569825 275.40705 
L 362.78206 275.369689 
L 363.20653 275.517532 
L 363.630999 275.532218 
L 364.055469 275.636851 
L 372.120396 276.676259 
L 372.757101 276.720394 
L 373.818276 276.771598 
L 376.365095 276.947673 
L 377.638504 277.002027 
L 379.760853 277.117816 
L 384.854491 277.306606 
L 387.82578 277.385294 
L 392.070479 277.471407 
L 395.041768 277.504831 
L 409.261507 277.585426 
L 414.14291 277.610361 
L 414.99185 277.6475 
L 427.93818 277.665838 
L 428.999355 277.679024 
L 432.819583 277.524669 
L 432.819583 277.524669 
" clip-path="url(#p54b544dd6a)" style="fill: none; stroke: #ff0000; stroke-width: 1.5; stroke-linecap: square"/>
   </g>
   <g id="line2d_17">
    <path d="M 93.668182 235.008588 
L 97.48841 235.000289 
L 105.977807 234.930666 
L 107.251217 233.458878 
L 108.949096 232.473873 
L 110.222506 231.328885 
L 110.646975 231.183614 
L 110.85921 230.849135 
L 111.28368 230.562528 
L 112.344855 229.547292 
L 112.55709 229.526362 
L 112.981559 229.091628 
L 113.193794 229.030342 
L 113.830499 228.296689 
L 114.042734 228.285421 
L 114.254969 228.000521 
L 114.467204 227.971117 
L 115.103909 227.164963 
L 115.528379 227.089222 
L 115.740613 226.732167 
L 115.952848 226.619811 
L 116.377318 226.236202 
L 116.589553 226.083438 
L 116.801788 226.108204 
L 117.014023 225.660829 
L 117.226258 225.595938 
L 119.136372 223.950873 
L 119.348607 223.897948 
L 119.985312 223.260212 
L 120.197547 223.172548 
L 120.622017 222.800142 
L 120.834252 222.719122 
L 121.046486 222.449274 
L 121.258721 222.432585 
L 121.470956 222.11328 
L 121.683191 222.04286 
L 122.956601 220.944269 
L 124.65448 219.710947 
L 125.07895 219.346756 
L 125.715655 218.985904 
L 126.140125 218.642468 
L 126.352359 218.603488 
L 126.564594 218.305821 
L 126.776829 218.258535 
L 127.201299 217.690407 
L 128.050239 217.130846 
L 128.262474 216.861171 
L 128.686944 216.694099 
L 129.535883 216.116324 
L 129.748118 215.770605 
L 131.233763 214.998432 
L 131.445997 214.490741 
L 131.870467 214.226087 
L 132.082702 213.977151 
L 132.294937 213.99994 
L 132.719407 213.610971 
L 133.143877 213.531646 
L 133.568347 212.846543 
L 134.205051 212.380458 
L 134.841756 211.966192 
L 135.053991 211.974313 
L 135.478461 211.509615 
L 135.690696 211.47917 
L 135.902931 211.166373 
L 136.115166 211.131447 
L 136.75187 210.527486 
L 138.237515 209.473256 
L 138.661985 209.348949 
L 139.29869 208.517183 
L 140.359864 207.781933 
L 140.572099 207.75433 
L 141.845509 206.63438 
L 142.057743 206.593216 
L 142.269978 206.254996 
L 142.482213 206.22619 
L 143.543388 205.133888 
L 143.755623 205.095539 
L 143.967858 204.760887 
L 144.604563 204.335776 
L 145.029032 203.928938 
L 145.453502 203.751774 
L 145.665737 203.403062 
L 145.877972 203.353265 
L 146.514677 202.814722 
L 147.151382 202.359495 
L 147.363616 202.022852 
L 147.575851 201.991711 
L 148.000321 201.67708 
L 149.698201 200.271717 
L 149.910435 200.243565 
L 150.54714 199.572413 
L 151.183845 199.000894 
L 151.608315 198.744407 
L 152.032785 198.427188 
L 152.24502 198.113147 
L 152.457255 198.112384 
L 153.093959 197.496059 
L 154.155134 196.560367 
L 154.367369 196.514172 
L 154.579604 196.222515 
L 155.004074 196.009476 
L 155.428543 195.680559 
L 156.489718 194.709377 
L 157.126423 194.426822 
L 157.550893 193.847632 
L 157.763128 193.783226 
L 158.187597 193.463019 
L 158.399832 193.402495 
L 158.824302 192.911268 
L 159.461007 192.42207 
L 159.885477 192.144895 
L 161.158886 191.150428 
L 161.795591 190.675461 
L 162.220061 190.622102 
L 162.432296 190.343335 
L 162.644531 190.298735 
L 164.34241 188.74749 
L 164.76688 188.641848 
L 164.979115 188.367627 
L 165.403585 188.147109 
L 165.61582 188.01954 
L 166.040289 187.440943 
L 166.676994 187.323107 
L 166.889229 186.955107 
L 167.101464 186.85333 
L 167.525934 186.42821 
L 167.738169 186.193948 
L 167.950404 186.215091 
L 168.162639 185.887573 
L 168.587108 185.880693 
L 169.223813 185.138631 
L 169.648283 184.936325 
L 169.860518 184.640341 
L 170.072753 184.600869 
L 170.284988 184.295699 
L 170.497223 184.236857 
L 170.709458 183.943913 
L 171.558397 183.475922 
L 171.770632 183.143372 
L 171.982867 183.099458 
L 172.195102 182.898591 
L 172.619572 182.773366 
L 172.831807 182.58376 
L 173.256277 181.911004 
L 174.529686 181.292997 
L 174.741921 180.929582 
L 175.166391 180.602345 
L 175.378626 180.362563 
L 175.590861 180.339199 
L 175.803096 180.055578 
L 176.227566 179.895699 
L 176.652035 179.442317 
L 177.28874 179.077693 
L 177.500975 178.639209 
L 177.71321 178.632627 
L 179.411089 177.306177 
L 180.472264 176.517847 
L 180.684499 176.466253 
L 181.957908 175.431635 
L 182.170143 175.363122 
L 182.806848 174.729297 
L 183.019083 174.692875 
L 183.231318 174.355687 
L 184.080258 174.014876 
L 184.929197 173.195877 
L 185.565902 172.836168 
L 186.627077 172.127028 
L 187.263781 171.481426 
L 188.112721 171.022623 
L 188.537191 170.451075 
L 189.8106 169.614961 
L 190.871775 168.845875 
L 191.08401 168.763904 
L 191.93295 167.859586 
L 192.145184 167.855049 
L 193.206359 167.06952 
L 194.479769 166.235308 
L 194.692004 165.923174 
L 194.904238 165.922305 
L 195.328708 165.509047 
L 195.540943 165.395978 
L 195.753178 165.113999 
L 196.177648 164.986037 
L 196.389883 164.703039 
L 196.602118 164.633052 
L 197.026588 164.284418 
L 197.451057 164.050111 
L 197.663292 163.810882 
L 197.875527 163.792708 
L 198.087762 163.641641 
L 198.299997 163.283628 
L 198.936702 162.96911 
L 199.148937 162.72037 
L 199.361172 162.71613 
L 199.573407 162.280285 
L 199.997877 162.146762 
L 200.422346 161.748717 
L 200.846816 161.50397 
L 201.059051 161.252008 
L 201.271286 161.194302 
L 201.695756 160.804039 
L 203.1814 159.859821 
L 203.60587 159.334622 
L 203.818105 159.34018 
L 204.242575 158.994134 
L 205.091515 158.345235 
L 205.30375 158.300835 
L 205.515984 157.956158 
L 205.728219 157.914324 
L 206.364924 157.310174 
L 207.850569 156.326043 
L 208.062803 156.081044 
L 208.275038 156.019612 
L 208.487273 155.74886 
L 209.123978 155.392098 
L 209.336213 155.230758 
L 209.548448 154.876058 
L 210.185153 154.617835 
L 210.609622 154.269329 
L 211.670797 153.391343 
L 212.095267 153.235232 
L 212.519737 152.790832 
L 212.944207 152.634442 
L 213.368676 152.220385 
L 214.005381 151.870761 
L 214.217616 151.640342 
L 214.642086 151.44957 
L 214.854321 151.130211 
L 215.066556 151.07383 
L 215.278791 150.77269 
L 215.491026 150.74433 
L 216.12773 150.302484 
L 216.339965 149.983441 
L 216.97667 149.538305 
L 217.82561 148.864908 
L 218.037845 148.853863 
L 218.25008 148.572818 
L 218.462315 148.55342 
L 219.099019 147.97093 
L 220.796899 146.836658 
L 221.009134 146.728649 
L 221.433603 146.259116 
L 221.858073 146.118753 
L 222.919248 145.363221 
L 223.131483 145.26937 
L 223.343718 144.931258 
L 223.980422 144.633624 
L 224.617127 144.04906 
L 225.253832 143.576686 
L 225.466067 143.551923 
L 226.951711 142.475637 
L 227.376181 142.134598 
L 227.588416 142.047678 
L 228.225121 141.423779 
L 228.437356 141.427838 
L 228.649591 141.142319 
L 228.861826 141.089546 
L 229.286295 140.719388 
L 229.49853 140.670638 
L 229.710765 140.437176 
L 229.923 140.41383 
L 230.135235 140.138565 
L 230.34747 140.071268 
L 230.984175 139.453279 
L 231.408645 139.218595 
L 231.833114 139.018309 
L 232.045349 138.73816 
L 232.257584 138.696941 
L 232.682054 138.30958 
L 233.106524 138.033778 
L 233.318759 138.019917 
L 233.743229 137.620838 
L 235.016638 136.730874 
L 235.228873 136.664062 
L 235.653343 136.281446 
L 235.865578 136.218802 
L 236.077813 135.980732 
L 236.290048 135.961843 
L 237.138987 135.31473 
L 237.351222 135.267118 
L 237.775692 134.869376 
L 238.200162 134.545514 
L 238.412397 134.509491 
L 239.685806 133.523353 
L 240.110276 133.31135 
L 240.746981 132.811072 
L 241.171451 132.624625 
L 241.595921 132.25374 
L 242.020391 131.908996 
L 242.44486 131.787076 
L 242.657095 131.551791 
L 242.86933 131.483261 
L 243.081565 131.159731 
L 244.14274 130.634552 
L 244.56721 130.238997 
L 244.779445 130.230113 
L 244.991679 129.929355 
L 245.203914 129.832043 
L 245.416149 129.860258 
L 245.628384 129.509279 
L 246.052854 129.319605 
L 246.477324 128.901412 
L 246.901794 128.576725 
L 248.387438 127.577153 
L 248.599673 127.606335 
L 249.024143 127.115254 
L 250.085318 126.49011 
L 251.570962 125.564599 
L 251.995432 125.167915 
L 253.268841 124.445843 
L 253.905546 123.862301 
L 254.117781 123.781386 
L 254.330016 123.83682 
L 254.966721 123.15937 
L 255.178956 123.10854 
L 255.391191 122.9093 
L 255.81566 122.7538 
L 256.452365 122.288668 
L 256.6646 122.216115 
L 256.876835 121.959093 
L 257.08907 121.940746 
L 258.999184 120.636441 
L 259.423654 120.397343 
L 260.272594 119.902801 
L 260.484829 119.991586 
L 260.697064 119.744422 
L 260.909298 119.669522 
L 261.546003 119.029467 
L 262.182708 118.657667 
L 262.394943 118.742122 
L 262.607178 118.670024 
L 262.819413 118.395069 
L 263.031648 118.331082 
L 263.456117 117.917869 
L 263.668352 117.961712 
L 263.880587 117.596892 
L 264.092822 117.486479 
L 264.517292 117.462031 
L 264.729527 117.061118 
L 265.153997 117.237998 
L 266.215171 116.354948 
L 266.639641 116.319742 
L 266.851876 115.967138 
L 267.064111 116.061787 
L 267.276346 115.988296 
L 267.488581 115.651489 
L 267.700816 115.615532 
L 267.913051 115.171695 
L 268.337521 115.131329 
L 268.76199 114.729987 
L 268.974225 114.709844 
L 269.398695 114.397093 
L 269.61093 114.46713 
L 270.0354 114.098174 
L 271.521044 113.159786 
L 271.733279 113.23073 
L 271.945514 112.909278 
L 272.157749 112.858507 
L 272.582219 112.521151 
L 272.794454 112.518338 
L 273.006689 112.108695 
L 273.218924 112.057266 
L 273.431159 111.821166 
L 273.643394 111.812232 
L 273.855629 111.521459 
L 274.067863 111.550539 
L 274.280098 111.292044 
L 274.492333 111.248539 
L 274.916803 110.964904 
L 275.341273 110.792534 
L 276.402448 110.03241 
L 276.614682 110.047968 
L 277.039152 109.750612 
L 277.251387 109.73225 
L 277.463622 109.509684 
L 277.888092 109.329988 
L 278.100327 109.109996 
L 278.524797 108.972063 
L 279.161502 108.651251 
L 279.585971 108.434279 
L 279.798206 108.271045 
L 280.010441 108.281064 
L 280.222676 107.990898 
L 280.434911 108.057921 
L 280.859381 107.613599 
L 281.283851 107.516589 
L 281.496086 107.262716 
L 281.920555 107.173797 
L 282.13279 106.982391 
L 282.345025 107.085173 
L 282.55726 106.712488 
L 282.98173 106.61287 
L 283.193965 106.280634 
L 284.042905 106.090603 
L 284.25514 105.84931 
L 285.104079 105.680474 
L 285.316314 105.382953 
L 286.165254 105.111957 
L 286.589724 104.776158 
L 286.801959 104.847266 
L 287.226428 104.505463 
L 287.438663 104.60463 
L 287.863133 104.349211 
L 288.075368 104.349456 
L 288.499838 104.024457 
L 288.712073 104.14192 
L 288.924308 103.828687 
L 289.136543 103.882176 
L 289.773247 103.440732 
L 290.197717 103.457865 
L 290.409952 103.225791 
L 291.046657 103.187292 
L 291.683362 102.82033 
L 292.320067 102.517472 
L 292.532301 102.656036 
L 292.744536 102.42908 
L 293.169006 102.435194 
L 293.381241 102.27293 
L 293.805711 102.158398 
L 294.017946 101.969567 
L 294.654651 101.90657 
L 295.291355 101.605843 
L 295.715825 101.622927 
L 295.92806 101.423121 
L 296.140295 101.402716 
L 296.35253 101.241021 
L 296.564765 101.342719 
L 296.989235 101.053768 
L 297.20147 101.101959 
L 297.62594 100.949664 
L 297.838174 100.856591 
L 298.050409 100.592397 
L 298.262644 100.561115 
L 298.687114 100.735743 
L 298.899349 100.533724 
L 299.323819 100.579123 
L 299.536054 100.304755 
L 299.748289 100.346745 
L 300.172759 100.073914 
L 300.597228 100.234884 
L 301.021698 100.024765 
L 301.233933 100.096775 
L 301.658403 99.838794 
L 302.507343 99.648103 
L 302.719578 99.779856 
L 302.931812 99.778482 
L 303.144047 99.625171 
L 303.568517 99.526319 
L 303.780752 99.400034 
L 303.992987 99.462999 
L 304.205222 99.186182 
L 304.417457 99.318253 
L 304.629692 99.22166 
L 305.054162 99.42824 
L 305.478632 98.896922 
L 305.903101 98.842203 
L 306.115336 98.739042 
L 306.539806 98.823561 
L 306.752041 98.643375 
L 307.176511 98.69554 
L 307.388746 98.42009 
L 307.813216 98.479993 
L 308.237685 98.443014 
L 308.662155 98.339723 
L 308.87439 98.084245 
L 309.086625 98.093577 
L 309.29886 97.898091 
L 309.511095 97.936271 
L 309.72333 98.172256 
L 309.935565 97.825213 
L 310.1478 97.950739 
L 310.996739 97.885854 
L 311.208974 97.50347 
L 311.633444 97.603052 
L 312.057914 97.627598 
L 312.694619 97.185338 
L 313.755793 97.132125 
L 313.968028 96.899467 
L 314.180263 96.835503 
L 314.604733 97.109141 
L 315.029203 96.625848 
L 315.241438 96.582103 
L 315.665908 96.72828 
L 316.302612 96.574769 
L 316.727082 96.470382 
L 316.939317 96.284113 
L 317.151552 96.285146 
L 317.576022 96.44585 
L 318.000492 96.33665 
L 318.637197 95.999759 
L 318.849431 96.031905 
L 319.061666 95.915545 
L 319.486136 96.148443 
L 319.698371 95.954143 
L 320.547311 95.80558 
L 320.759546 95.780347 
L 320.971781 95.525864 
L 321.184016 95.697904 
L 322.24519 95.362196 
L 322.881895 95.453834 
L 323.306365 95.246188 
L 323.730835 95.099071 
L 323.94307 95.147782 
L 324.155304 94.979973 
L 324.367539 95.218048 
L 324.792009 95.054962 
L 325.004244 95.074126 
L 325.216479 94.845473 
L 326.065419 94.811923 
L 326.489889 94.676805 
L 326.702123 94.765749 
L 327.126593 94.772624 
L 327.338828 94.822894 
L 327.551063 94.675313 
L 327.763298 94.744196 
L 327.975533 94.635883 
L 328.187768 94.378091 
L 328.612238 94.487273 
L 328.824473 94.480673 
L 329.036708 94.591556 
L 329.673412 94.147936 
L 329.885647 94.238646 
L 330.097882 94.088785 
L 330.310117 94.327114 
L 330.522352 94.251145 
L 330.734587 93.888574 
L 330.946822 93.993809 
L 331.159057 93.878447 
L 331.371292 93.906557 
L 331.583527 93.624483 
L 331.795762 93.818313 
L 332.432466 93.814824 
L 332.644701 93.615705 
L 332.856936 93.867698 
L 333.281406 93.566746 
L 334.554816 93.431155 
L 334.979285 93.494503 
L 335.19152 93.160745 
L 335.403755 93.083611 
L 335.828225 93.166849 
L 336.04046 92.857229 
L 336.46493 92.880528 
L 336.677165 93.227159 
L 336.8894 93.357061 
L 337.738339 92.690433 
L 338.162809 92.621351 
L 338.375044 92.309784 
L 338.799514 92.787441 
L 339.011749 92.812728 
L 340.285158 92.311724 
L 340.709628 92.660203 
L 341.134098 92.321679 
L 341.346333 92.35771 
L 341.770803 91.973702 
L 341.983038 91.992783 
L 342.195273 91.738505 
L 342.407508 92.046892 
L 342.619742 92.055576 
L 342.831977 91.862639 
L 343.256447 92.057578 
L 343.468682 91.833752 
L 343.680917 91.908376 
L 343.893152 92.218427 
L 344.105387 91.547793 
L 344.317622 91.443751 
L 344.529857 91.619014 
L 344.742092 91.386795 
L 344.954327 91.426513 
L 345.166561 91.690438 
L 345.378796 91.361661 
L 345.591031 91.669741 
L 345.803266 91.62748 
L 346.015501 91.332428 
L 346.439971 91.572181 
L 346.652206 91.222784 
L 347.076676 91.367321 
L 347.288911 91.144987 
L 347.501146 91.65264 
L 347.713381 91.838906 
L 347.925615 91.087265 
L 348.350085 91.17735 
L 348.56232 90.650507 
L 348.98679 90.942008 
L 349.199025 90.756274 
L 349.623495 91.172303 
L 349.83573 90.78153 
L 350.2602 91.038402 
L 350.472434 90.655704 
L 350.896904 90.894136 
L 351.321374 90.403478 
L 351.533609 90.496641 
L 351.745844 90.419769 
L 352.170314 90.710404 
L 352.382549 90.531764 
L 352.807019 90.645126 
L 353.231488 90.529444 
L 353.655958 89.966998 
L 354.292663 90.206001 
L 354.504898 90.069538 
L 355.353838 90.291129 
L 355.990542 89.892393 
L 356.839482 89.899122 
L 357.051717 90.000535 
L 357.476187 89.765709 
L 357.688422 89.82519 
L 357.900657 89.678688 
L 358.537361 90.08129 
L 358.749596 89.983048 
L 358.961831 89.744736 
L 359.174066 89.788683 
L 359.386301 89.458375 
L 359.598536 89.502274 
L 360.023006 89.460515 
L 360.447476 89.353547 
L 360.659711 89.566644 
L 360.871946 89.197061 
L 361.08418 89.111031 
L 361.296415 89.362704 
L 361.50865 89.302982 
L 361.720885 89.045881 
L 361.93312 89.321487 
L 362.145355 89.048923 
L 362.35759 89.256185 
L 362.569825 89.306044 
L 362.78206 89.022126 
L 363.20653 89.124314 
L 363.630999 89.118008 
L 363.843234 89.31137 
L 364.267704 89.08563 
L 364.904409 88.988191 
L 365.116644 89.061879 
L 365.328879 88.870829 
L 365.541114 89.029681 
L 365.965584 88.900248 
L 366.177819 88.979332 
L 366.390053 88.851586 
L 366.602288 88.963813 
L 367.026758 88.73702 
L 367.238993 88.987366 
L 367.663463 88.749546 
L 368.087933 88.779547 
L 368.300168 88.818772 
L 368.512403 88.664365 
L 368.724638 88.738353 
L 368.936872 88.66979 
L 369.149107 88.740648 
L 369.361342 88.604325 
L 370.210282 88.630185 
L 371.271457 88.527455 
L 371.483692 88.667003 
L 372.120396 88.608002 
L 372.332631 88.429132 
L 372.757101 88.608191 
L 372.969336 88.462706 
L 373.393806 88.398049 
L 373.818276 88.332703 
L 374.030511 88.398171 
L 374.242745 88.300185 
L 374.667215 88.355775 
L 375.30392 88.332056 
L 375.72839 88.316427 
L 375.940625 88.345378 
L 376.15286 88.248603 
L 376.57733 88.30479 
L 378.487444 88.252368 
L 379.973088 88.262766 
L 380.185323 88.175035 
L 380.822028 88.242937 
L 381.246498 88.190821 
L 382.307672 88.242133 
L 382.732142 88.182492 
L 389.52366 88.132357 
L 390.372599 88.151237 
L 391.646009 88.144727 
L 392.919418 88.12288 
L 393.343888 88.173166 
L 397.588587 88.143334 
L 401.408815 88.133622 
L 402.46999 88.124312 
L 407.775863 88.178636 
L 407.988098 88.075341 
L 409.049272 88.120873 
L 410.959387 88.073459 
L 411.596091 88.190074 
L 412.657266 88.166286 
L 417.326434 88.152009 
L 417.750904 87.952514 
L 417.963139 88.23849 
L 421.571133 88.143179 
L 422.844542 88.146223 
L 427.51371 88.181226 
L 427.93818 88.21438 
L 429.636059 88.105565 
L 432.819583 88.052685 
L 432.819583 88.052685 
" clip-path="url(#p54b544dd6a)" style="fill: none; stroke: #008000; stroke-width: 1.5; stroke-linecap: square"/>
   </g>
   <g id="line2d_18">
    <path d="M 93.668182 78.446693 
L 100.459699 78.443716 
L 104.916633 78.442059 
L 105.977807 78.401173 
L 106.190042 78.275141 
L 106.614512 78.254703 
L 107.463452 78.129895 
L 107.887921 78.142 
L 109.585801 77.869371 
L 110.010271 77.876883 
L 111.70815 77.715706 
L 111.920385 77.697039 
L 112.13262 77.527822 
L 112.55709 77.594836 
L 112.981559 77.509951 
L 113.193794 77.55227 
L 113.406029 77.455781 
L 113.618264 77.50916 
L 113.830499 77.374272 
L 114.467204 77.492524 
L 114.679439 77.30792 
L 117.650728 76.947856 
L 117.862963 76.868201 
L 118.075198 76.929671 
L 118.287432 76.833906 
L 118.711902 76.873517 
L 120.409782 76.615338 
L 127.838004 76.418458 
L 128.050239 76.494058 
L 128.474709 76.38985 
L 129.960353 76.52007 
L 130.172588 76.46119 
L 130.384823 76.556571 
L 131.021528 76.552771 
L 131.233763 76.59032 
L 131.445997 76.511006 
L 131.870467 76.6244 
L 132.719407 76.644343 
L 133.143877 76.766279 
L 133.356112 76.643694 
L 133.780582 76.750076 
L 134.205051 76.685254 
L 134.417286 76.786374 
L 134.841756 76.795187 
L 135.053991 76.84547 
L 135.266226 76.693287 
L 135.690696 76.891032 
L 135.902931 76.730836 
L 136.327401 76.833748 
L 136.539636 76.754322 
L 136.964105 76.850536 
L 137.388575 76.800777 
L 137.60081 76.802571 
L 137.813045 76.68034 
L 138.02528 76.81375 
L 139.510924 76.712612 
L 139.935394 76.761053 
L 140.784334 76.685393 
L 141.421039 76.620479 
L 141.633274 76.582973 
L 142.057743 76.6903 
L 142.269978 76.526147 
L 142.694448 76.609176 
L 142.906683 76.515906 
L 143.331153 76.490592 
L 143.967858 76.509131 
L 144.392328 76.444383 
L 145.241267 76.513377 
L 166.464759 75.209075 
L 170.072753 75.374221 
L 170.921693 75.413747 
L 172.831807 75.621622 
L 173.680746 75.705525 
L 176.4398 76.130631 
L 177.076505 76.209957 
L 177.500975 76.262047 
L 187.263781 78.093188 
L 187.688251 78.1544 
L 188.324956 78.309193 
L 189.173896 78.39397 
L 192.569654 78.841794 
L 192.781889 78.909774 
L 193.206359 78.922255 
L 197.875527 79.447849 
L 198.087762 79.576869 
L 198.299997 79.464664 
L 201.483521 79.754309 
L 201.695756 79.766916 
L 201.907991 79.905407 
L 202.75693 79.88891 
L 203.1814 80.005352 
L 203.393635 79.950575 
L 203.818105 80.074389 
L 204.45481 80.100468 
L 206.577159 80.17944 
L 207.213864 80.235909 
L 210.185153 80.411463 
L 210.609622 80.386554 
L 212.731972 80.49974 
L 213.156442 80.477597 
L 226.739476 80.898587 
L 231.408645 81.311382 
L 232.682054 81.538063 
L 233.106524 81.56254 
L 234.167699 81.749722 
L 234.379933 81.732086 
L 234.592168 81.826245 
L 234.804403 81.789019 
L 235.228873 81.917079 
L 237.775692 82.425133 
L 238.412397 82.6386 
L 238.836867 82.673584 
L 241.595921 83.308005 
L 242.44486 83.433814 
L 243.081565 83.600704 
L 243.506035 83.752325 
L 243.930505 83.762208 
L 244.14274 83.934504 
L 244.354975 83.878274 
L 245.416149 84.203606 
L 245.840619 84.201269 
L 246.052854 84.324802 
L 246.265089 84.242093 
L 246.689559 84.410107 
L 247.114029 84.524403 
L 247.962968 84.70786 
L 248.175203 84.68151 
L 248.599673 84.847756 
L 249.024143 84.92682 
L 254.117781 86.171464 
L 254.330016 86.340137 
L 255.391191 86.538105 
L 257.51354 87.186155 
L 258.362479 87.472298 
L 258.574714 87.470897 
L 259.211419 87.711796 
L 260.484829 88.137211 
L 262.182708 88.589783 
L 262.394943 88.740939 
L 262.819413 88.800653 
L 263.668352 89.157898 
L 264.092822 89.164091 
L 266.639641 89.980936 
L 266.851876 89.950217 
L 267.700816 90.274608 
L 267.913051 90.228108 
L 268.974225 90.566354 
L 269.398695 90.596293 
L 269.61093 90.75234 
L 269.823165 90.733128 
L 270.247635 90.969986 
L 270.672105 90.947489 
L 270.88434 91.056722 
L 271.308809 91.101346 
L 272.157749 91.30449 
L 274.492333 91.822678 
L 274.916803 91.838138 
L 284.042905 94.246595 
L 284.679609 94.471742 
L 285.953019 94.901009 
L 286.165254 94.993112 
L 286.589724 95.004406 
L 286.801959 95.150096 
L 287.226428 95.206092 
L 287.650898 95.406587 
L 288.499838 95.513042 
L 288.712073 95.747442 
L 289.136543 95.790066 
L 289.561013 95.941068 
L 289.773247 95.909218 
L 289.985482 96.127364 
L 290.622187 96.271027 
L 291.471127 96.568965 
L 291.683362 96.559356 
L 291.895597 96.697601 
L 292.107832 96.665379 
L 293.169006 97.079089 
L 293.805711 97.263308 
L 294.442416 97.490229 
L 295.07912 97.66204 
L 295.291355 97.671742 
L 295.92806 97.91682 
L 296.35253 98.020752 
L 296.564765 98.17169 
L 296.989235 98.203169 
L 297.413705 98.394801 
L 298.474879 98.613704 
L 298.899349 98.73147 
L 299.111584 98.747331 
L 299.323819 98.913893 
L 299.748289 98.974153 
L 301.021698 99.302631 
L 301.233933 99.51118 
L 301.658403 99.522139 
L 303.356282 99.965089 
L 303.568517 99.940515 
L 303.992987 100.165061 
L 304.205222 100.154313 
L 305.054162 100.49479 
L 305.478632 100.438723 
L 305.903101 100.592079 
L 306.115336 100.595085 
L 306.539806 100.779073 
L 307.813216 101.112888 
L 308.025451 101.102446 
L 308.662155 101.422575 
L 309.511095 101.543223 
L 309.72333 101.734347 
L 309.935565 101.66573 
L 310.360035 101.888623 
L 310.57227 101.860357 
L 310.996739 102.136222 
L 311.208974 102.035518 
L 312.057914 102.385747 
L 313.119089 102.571155 
L 313.755793 102.852444 
L 314.180263 102.851971 
L 314.604733 103.091988 
L 315.029203 103.056484 
L 317.151552 103.568868 
L 317.576022 103.755164 
L 323.5186 105.170539 
L 324.792009 105.497443 
L 326.277654 105.77163 
L 326.702123 105.854579 
L 327.338828 106.053524 
L 327.551063 106.062569 
L 327.763298 106.220063 
L 328.187768 106.197583 
L 329.036708 106.600892 
L 330.097882 106.728287 
L 330.310117 106.927641 
L 331.159057 107.010034 
L 334.76705 107.812172 
L 334.979285 107.974247 
L 335.19152 107.892482 
L 336.04046 108.036734 
L 336.46493 108.129718 
L 336.8894 108.446361 
L 337.526104 108.4996 
L 338.375044 108.507022 
L 338.587279 108.733083 
L 339.648454 108.972338 
L 340.285158 108.972375 
L 340.709628 109.300813 
L 340.921863 109.204643 
L 341.983038 109.467328 
L 342.195273 109.411769 
L 342.407508 109.639055 
L 342.831977 109.572959 
L 343.256447 109.789408 
L 343.680917 109.776705 
L 343.893152 110.02332 
L 344.105387 109.850474 
L 344.529857 110.067099 
L 344.742092 109.934982 
L 345.378796 110.124155 
L 345.591031 110.358423 
L 346.227736 110.421574 
L 346.439971 110.541561 
L 346.652206 110.367979 
L 347.076676 110.638716 
L 347.288911 110.558201 
L 347.713381 110.951977 
L 347.925615 110.656621 
L 348.350085 110.922066 
L 348.56232 110.664476 
L 348.98679 110.877696 
L 349.199025 110.77676 
L 349.623495 111.05601 
L 349.83573 110.947478 
L 350.047965 111.18305 
L 350.2602 111.239441 
L 350.472434 111.116916 
L 350.896904 111.349903 
L 351.321374 111.273075 
L 352.170314 111.522897 
L 352.382549 111.50838 
L 353.019254 111.86063 
L 353.443723 111.77776 
L 353.655958 111.740788 
L 353.868193 111.869249 
L 354.717133 111.909648 
L 355.778307 112.076591 
L 356.627247 112.166446 
L 357.051717 112.291909 
L 358.325126 112.386934 
L 358.749596 112.481296 
L 358.961831 112.473304 
L 359.174066 112.599987 
L 359.598536 112.610986 
L 360.447476 112.636485 
L 360.659711 112.809259 
L 361.08418 112.773091 
L 361.50865 112.877512 
L 361.720885 112.815735 
L 361.93312 112.947513 
L 362.145355 112.860263 
L 362.569825 113.00251 
L 362.78206 112.876852 
L 363.20653 112.994727 
L 363.630999 113.009826 
L 363.843234 113.133688 
L 364.692174 113.096003 
L 365.116644 113.216692 
L 365.328879 113.160814 
L 365.753349 113.243826 
L 366.814523 113.316011 
L 367.026758 113.28269 
L 367.238993 113.431824 
L 367.875698 113.411623 
L 368.724638 113.518492 
L 369.998047 113.583485 
L 371.271457 113.615093 
L 371.695926 113.718242 
L 372.969336 113.7439 
L 374.030511 113.796272 
L 374.45498 113.820491 
L 376.15286 113.854574 
L 376.57733 113.892111 
L 378.487444 113.965487 
L 381.458733 114.048315 
L 386.976841 114.133198 
L 406.502453 114.241499 
L 418.599844 114.285329 
L 419.661018 114.294832 
L 421.783367 114.272319 
L 425.179126 114.271454 
L 432.819583 114.326105 
L 432.819583 114.326105 
" clip-path="url(#p54b544dd6a)" style="fill: none; stroke: #0000ff; stroke-width: 1.5; stroke-linecap: square"/>
   </g>
   <g id="line2d_19">
    <path d="M 93.668182 176.93155 
L 94.304887 177.006968 
L 94.941591 177.497962 
L 95.578296 177.597732 
L 96.215001 177.892255 
L 98.549585 178.727905 
L 99.61076 179.072765 
L 100.035229 179.282142 
L 100.459699 179.372815 
L 101.308639 179.707391 
L 102.157579 179.987777 
L 103.855458 180.643805 
L 104.704398 180.902447 
L 105.765572 181.329551 
L 106.614512 181.616377 
L 107.251217 181.841367 
L 108.312391 182.209818 
L 110.43474 183.003168 
L 111.071445 183.243499 
L 113.406029 184.071607 
L 115.952848 184.979781 
L 120.834252 186.727105 
L 121.683191 187.048806 
L 122.532131 187.337454 
L 123.593305 187.728288 
L 131.870467 190.686118 
L 133.356112 191.28056 
L 133.992817 191.446664 
L 135.902931 192.193243 
L 136.327401 192.351366 
L 137.388575 192.717621 
L 139.935394 193.604594 
L 140.784334 193.937765 
L 142.057743 194.381946 
L 143.331153 194.811385 
L 145.241267 195.519499 
L 147.575851 196.383535 
L 153.942899 198.640182 
L 154.791839 198.979826 
L 155.640778 199.279941 
L 156.701953 199.638865 
L 160.309947 200.930068 
L 163.281235 202.015749 
L 163.91794 202.252732 
L 164.76688 202.55582 
L 166.040289 203.023328 
L 168.162639 203.800918 
L 168.799343 204.044687 
L 173.256277 205.651437 
L 174.105216 205.945233 
L 177.71321 207.242292 
L 201.271286 215.563479 
L 202.969165 216.142861 
L 340.921863 264.398501 
L 349.83573 267.011843 
L 350.896904 267.257276 
L 352.382549 267.612074 
L 354.080428 267.934374 
L 355.141603 268.146473 
L 358.112892 268.653702 
L 362.145355 269.180827 
L 367.026758 269.601639 
L 369.573577 269.733829 
L 374.45498 269.901663 
L 378.699679 269.982286 
L 408.412568 270.070003 
L 411.808326 270.055418 
L 431.121704 270.063349 
L 433.031818 270.069628 
L 433.031818 270.069628 
" clip-path="url(#p54b544dd6a)" style="fill: none; stroke-dasharray: 5.55,2.4; stroke-dashoffset: 0; stroke: #ff0000; stroke-width: 1.5"/>
   </g>
   <g id="line2d_20">
    <path d="M 93.668182 104.612628 
L 94.729356 104.529717 
L 94.941591 104.321675 
L 95.578296 104.276675 
L 96.215001 104.182996 
L 97.276175 104.024743 
L 97.700645 103.94667 
L 126.564594 99.247842 
L 126.989064 99.160916 
L 127.838004 99.016722 
L 129.535883 98.72944 
L 134.417286 97.933376 
L 135.266226 97.81035 
L 136.115166 97.600438 
L 136.964105 97.508616 
L 139.086455 97.179456 
L 140.147629 96.965514 
L 140.572099 96.926621 
L 141.633274 96.72322 
L 145.241267 96.157116 
L 145.665737 96.074228 
L 146.939147 95.907184 
L 147.363616 95.784312 
L 149.485966 95.465891 
L 150.334905 95.331733 
L 151.82055 95.08879 
L 152.24502 94.998532 
L 153.942899 94.716828 
L 155.428543 94.472007 
L 156.065248 94.358811 
L 169.223813 92.179163 
L 169.648283 92.088208 
L 180.047794 90.341328 
L 185.990372 89.313875 
L 187.051546 89.147681 
L 188.961661 88.806565 
L 192.357419 88.295186 
L 198.936702 87.206553 
L 199.573407 87.078924 
L 200.846816 86.890495 
L 202.332461 86.629248 
L 202.969165 86.542779 
L 205.728219 86.102505 
L 207.850569 85.733717 
L 210.397388 85.340286 
L 215.915495 84.436632 
L 216.339965 84.310863 
L 220.160194 83.703005 
L 222.282543 83.336479 
L 223.131483 83.20254 
L 223.555953 83.117557 
L 228.012886 82.393048 
L 229.49853 82.138104 
L 230.34747 81.992017 
L 231.408645 81.817596 
L 234.804403 81.231433 
L 236.502283 80.967839 
L 238.200162 80.657801 
L 240.322511 80.325201 
L 264.517292 76.162329 
L 267.913051 75.539632 
L 268.549756 75.451875 
L 271.521044 74.896381 
L 271.945514 74.850651 
L 272.582219 74.732671 
L 273.643394 74.535219 
L 276.614682 74.027947 
L 280.010441 73.479025 
L 280.434911 73.394062 
L 281.071616 73.286511 
L 326.277654 65.255586 
L 327.126593 65.100392 
L 331.159057 64.283403 
L 331.371292 64.351568 
L 331.795762 64.185077 
L 332.007996 64.232557 
L 332.432466 64.077082 
L 334.979285 63.601908 
L 335.19152 63.640156 
L 335.61599 63.412113 
L 335.828225 63.413781 
L 336.04046 63.293893 
L 336.252695 63.377537 
L 338.799514 62.83014 
L 339.011749 62.877024 
L 339.648454 62.595757 
L 339.860688 62.686757 
L 340.072923 62.581495 
L 340.285158 62.627794 
L 340.497393 62.485504 
L 341.134098 62.468819 
L 341.346333 62.293103 
L 341.770803 62.237077 
L 343.044212 62.058843 
L 343.468682 61.87761 
L 343.893152 61.93985 
L 344.954327 61.671485 
L 345.166561 61.693453 
L 345.378796 61.545639 
L 345.591031 61.65664 
L 346.015501 61.546807 
L 347.076676 61.361456 
L 347.288911 61.239234 
L 347.501146 61.333767 
L 348.13785 61.169347 
L 349.199025 61.033878 
L 351.109139 60.660055 
L 351.321374 60.743485 
L 351.533609 60.623669 
L 351.745844 60.759916 
L 351.958079 60.566721 
L 352.170314 60.620865 
L 352.382549 60.503011 
L 352.594784 60.57282 
L 352.807019 60.460257 
L 353.019254 60.477135 
L 353.443723 60.388302 
L 354.080428 60.421419 
L 354.292663 60.273097 
L 354.504898 60.364102 
L 354.717133 60.234549 
L 355.566073 60.200464 
L 356.202777 60.003533 
L 356.415012 60.10257 
L 357.476187 59.854886 
L 357.688422 60.014625 
L 357.900657 59.891734 
L 358.325126 59.907383 
L 358.961831 59.848291 
L 361.720885 59.547779 
L 361.93312 59.649645 
L 362.35759 59.570084 
L 363.418765 59.487858 
L 364.692174 59.446799 
L 365.753349 59.332208 
L 365.965584 59.430965 
L 366.602288 59.332632 
L 367.238993 59.344441 
L 373.393806 59.169721 
L 373.818276 59.176753 
L 377.426269 59.147227 
L 389.52366 59.125526 
L 433.031818 59.176185 
L 433.031818 59.176185 
" clip-path="url(#p54b544dd6a)" style="fill: none; stroke-dasharray: 5.55,2.4; stroke-dashoffset: 0; stroke: #008000; stroke-width: 1.5"/>
   </g>
   <g id="line2d_21">
    <path d="M 93.668182 47.74005 
L 94.304887 47.81271 
L 95.153826 48.218734 
L 102.582048 50.197091 
L 104.279928 50.660208 
L 105.553337 51.048369 
L 107.887921 51.675589 
L 109.373566 52.080182 
L 111.28368 52.637492 
L 177.076505 70.785154 
L 178.349915 71.140942 
L 181.957908 72.141418 
L 183.655788 72.598968 
L 208.275038 79.122695 
L 209.972918 79.578661 
L 213.156442 80.402043 
L 214.854321 80.882742 
L 243.506035 88.516163 
L 252.632137 90.95049 
L 253.693311 91.264182 
L 254.330016 91.388238 
L 255.603425 91.742866 
L 257.51354 92.219479 
L 259.848124 92.846265 
L 261.333768 93.223611 
L 263.668352 93.863992 
L 264.517292 94.093388 
L 271.096575 95.851054 
L 273.218924 96.416958 
L 275.341273 96.973923 
L 280.647146 98.397888 
L 281.283851 98.548238 
L 282.345025 98.828547 
L 285.316314 99.649758 
L 287.650898 100.255325 
L 289.136543 100.678557 
L 290.622187 101.032075 
L 291.258892 101.240508 
L 292.320067 101.47886 
L 310.57227 106.250407 
L 310.996739 106.425265 
L 316.090378 107.77148 
L 316.514847 107.840863 
L 320.759546 108.947859 
L 321.184016 109.041602 
L 321.82072 109.229012 
L 322.032955 109.231206 
L 322.457425 109.374817 
L 324.155304 109.838659 
L 325.853184 110.267464 
L 326.702123 110.5081 
L 327.338828 110.676224 
L 341.983038 114.446415 
L 345.166561 115.192918 
L 345.803266 115.378846 
L 346.439971 115.466287 
L 347.501146 115.672709 
L 349.623495 116.098571 
L 350.2602 116.194769 
L 351.109139 116.35041 
L 355.566073 117.026375 
L 355.990542 117.143502 
L 368.300168 118.10935 
L 371.271457 118.166474 
L 377.850739 118.258106 
L 384.430022 118.288334 
L 390.372599 118.296222 
L 433.031818 118.277937 
L 433.031818 118.277937 
" clip-path="url(#p54b544dd6a)" style="fill: none; stroke-dasharray: 5.55,2.4; stroke-dashoffset: 0; stroke: #0000ff; stroke-width: 1.5"/>
   </g>
   <g id="patch_3">
    <path d="M 76.7 289.24 
L 76.7 36.24 
" style="fill: none; stroke: #000000; stroke-width: 0.8; stroke-linejoin: miter; stroke-linecap: square"/>
   </g>
   <g id="patch_4">
    <path d="M 450 289.24 
L 450 36.24 
" style="fill: none; stroke: #000000; stroke-width: 0.8; stroke-linejoin: miter; stroke-linecap: square"/>
   </g>
   <g id="patch_5">
    <path d="M 76.7 289.24 
L 450 289.24 
" style="fill: none; stroke: #000000; stroke-width: 0.8; stroke-linejoin: miter; stroke-linecap: square"/>
   </g>
   <g id="patch_6">
    <path d="M 76.7 36.24 
L 450 36.24 
" style="fill: none; stroke: #000000; stroke-width: 0.8; stroke-linejoin: miter; stroke-linecap: square"/>
   </g>
   <g id="text_18">
    <!-- Position -->
    <g transform="translate(212.743438 30.24) scale(0.26 -0.26)">
     <defs>
      <path id="DejaVuSans-50" d="M 1259 4147 
L 1259 2394 
L 2053 2394 
Q 2494 2394 2734 2622 
Q 2975 2850 2975 3272 
Q 2975 3691 2734 3919 
Q 2494 4147 2053 4147 
L 1259 4147 
z
M 628 4666 
L 2053 4666 
Q 2838 4666 3239 4311 
Q 3641 3956 3641 3272 
Q 3641 2581 3239 2228 
Q 2838 1875 2053 1875 
L 1259 1875 
L 1259 0 
L 628 0 
L 628 4666 
z
" transform="scale(0.015625)"/>
      <path id="DejaVuSans-6f" d="M 1959 3097 
Q 1497 3097 1228 2736 
Q 959 2375 959 1747 
Q 959 1119 1226 758 
Q 1494 397 1959 397 
Q 2419 397 2687 759 
Q 2956 1122 2956 1747 
Q 2956 2369 2687 2733 
Q 2419 3097 1959 3097 
z
M 1959 3584 
Q 2709 3584 3137 3096 
Q 3566 2609 3566 1747 
Q 3566 888 3137 398 
Q 2709 -91 1959 -91 
Q 1206 -91 779 398 
Q 353 888 353 1747 
Q 353 2609 779 3096 
Q 1206 3584 1959 3584 
z
" transform="scale(0.015625)"/>
      <path id="DejaVuSans-6e" d="M 3513 2113 
L 3513 0 
L 2938 0 
L 2938 2094 
Q 2938 2591 2744 2837 
Q 2550 3084 2163 3084 
Q 1697 3084 1428 2787 
Q 1159 2491 1159 1978 
L 1159 0 
L 581 0 
L 581 3500 
L 1159 3500 
L 1159 2956 
Q 1366 3272 1645 3428 
Q 1925 3584 2291 3584 
Q 2894 3584 3203 3211 
Q 3513 2838 3513 2113 
z
" transform="scale(0.015625)"/>
     </defs>
     <use xlink:href="#DejaVuSans-50"/>
     <use xlink:href="#DejaVuSans-6f" x="56.677734"/>
     <use xlink:href="#DejaVuSans-73" x="117.859375"/>
     <use xlink:href="#DejaVuSans-69" x="169.958984"/>
     <use xlink:href="#DejaVuSans-74" x="197.742188"/>
     <use xlink:href="#DejaVuSans-69" x="236.951172"/>
     <use xlink:href="#DejaVuSans-6f" x="264.734375"/>
     <use xlink:href="#DejaVuSans-6e" x="325.916016"/>
    </g>
   </g>
   <g id="legend_1">
    <g id="patch_7">
     <path d="M 85.1 283.24 
L 168.618125 283.24 
Q 171.018125 283.24 171.018125 280.84 
L 171.018125 246.8125 
Q 171.018125 244.4125 168.618125 244.4125 
L 85.1 244.4125 
Q 82.7 244.4125 82.7 246.8125 
L 82.7 280.84 
Q 82.7 283.24 85.1 283.24 
z
" style="fill: #ffffff; opacity: 0.8; stroke: #cccccc; stroke-linejoin: miter"/>
    </g>
    <g id="line2d_22">
     <path d="M 87.5 254.130625 
L 99.5 254.130625 
L 111.5 254.130625 
" style="fill: none; stroke: #000000; stroke-width: 1.5; stroke-linecap: square"/>
    </g>
    <g id="text_19">
     <!-- Gripper -->
     <g transform="translate(121.1 258.330625) scale(0.12 -0.12)">
      <defs>
       <path id="DejaVuSans-47" d="M 3809 666 
L 3809 1919 
L 2778 1919 
L 2778 2438 
L 4434 2438 
L 4434 434 
Q 4069 175 3628 42 
Q 3188 -91 2688 -91 
Q 1594 -91 976 548 
Q 359 1188 359 2328 
Q 359 3472 976 4111 
Q 1594 4750 2688 4750 
Q 3144 4750 3555 4637 
Q 3966 4525 4313 4306 
L 4313 3634 
Q 3963 3931 3569 4081 
Q 3175 4231 2741 4231 
Q 1884 4231 1454 3753 
Q 1025 3275 1025 2328 
Q 1025 1384 1454 906 
Q 1884 428 2741 428 
Q 3075 428 3337 486 
Q 3600 544 3809 666 
z
" transform="scale(0.015625)"/>
      </defs>
      <use xlink:href="#DejaVuSans-47"/>
      <use xlink:href="#DejaVuSans-72" x="77.490234"/>
      <use xlink:href="#DejaVuSans-69" x="118.603516"/>
      <use xlink:href="#DejaVuSans-70" x="146.386719"/>
      <use xlink:href="#DejaVuSans-70" x="209.863281"/>
      <use xlink:href="#DejaVuSans-65" x="273.339844"/>
      <use xlink:href="#DejaVuSans-72" x="334.863281"/>
     </g>
    </g>
    <g id="line2d_23">
     <path d="M 87.5 271.744375 
L 99.5 271.744375 
L 111.5 271.744375 
" style="fill: none; stroke-dasharray: 5.55,2.4; stroke-dashoffset: 0; stroke: #000000; stroke-width: 1.5"/>
    </g>
    <g id="text_20">
     <!-- Target -->
     <g transform="translate(121.1 275.944375) scale(0.12 -0.12)">
      <defs>
       <path id="DejaVuSans-61" d="M 2194 1759 
Q 1497 1759 1228 1600 
Q 959 1441 959 1056 
Q 959 750 1161 570 
Q 1363 391 1709 391 
Q 2188 391 2477 730 
Q 2766 1069 2766 1631 
L 2766 1759 
L 2194 1759 
z
M 3341 1997 
L 3341 0 
L 2766 0 
L 2766 531 
Q 2569 213 2275 61 
Q 1981 -91 1556 -91 
Q 1019 -91 701 211 
Q 384 513 384 1019 
Q 384 1609 779 1909 
Q 1175 2209 1959 2209 
L 2766 2209 
L 2766 2266 
Q 2766 2663 2505 2880 
Q 2244 3097 1772 3097 
Q 1472 3097 1187 3025 
Q 903 2953 641 2809 
L 641 3341 
Q 956 3463 1253 3523 
Q 1550 3584 1831 3584 
Q 2591 3584 2966 3190 
Q 3341 2797 3341 1997 
z
" transform="scale(0.015625)"/>
       <path id="DejaVuSans-67" d="M 2906 1791 
Q 2906 2416 2648 2759 
Q 2391 3103 1925 3103 
Q 1463 3103 1205 2759 
Q 947 2416 947 1791 
Q 947 1169 1205 825 
Q 1463 481 1925 481 
Q 2391 481 2648 825 
Q 2906 1169 2906 1791 
z
M 3481 434 
Q 3481 -459 3084 -895 
Q 2688 -1331 1869 -1331 
Q 1566 -1331 1297 -1286 
Q 1028 -1241 775 -1147 
L 775 -588 
Q 1028 -725 1275 -790 
Q 1522 -856 1778 -856 
Q 2344 -856 2625 -561 
Q 2906 -266 2906 331 
L 2906 616 
Q 2728 306 2450 153 
Q 2172 0 1784 0 
Q 1141 0 747 490 
Q 353 981 353 1791 
Q 353 2603 747 3093 
Q 1141 3584 1784 3584 
Q 2172 3584 2450 3431 
Q 2728 3278 2906 2969 
L 2906 3500 
L 3481 3500 
L 3481 434 
z
" transform="scale(0.015625)"/>
      </defs>
      <use xlink:href="#DejaVuSans-54"/>
      <use xlink:href="#DejaVuSans-61" x="44.583984"/>
      <use xlink:href="#DejaVuSans-72" x="105.863281"/>
      <use xlink:href="#DejaVuSans-67" x="145.226562"/>
      <use xlink:href="#DejaVuSans-65" x="208.703125"/>
      <use xlink:href="#DejaVuSans-74" x="270.226562"/>
     </g>
    </g>
   </g>
  </g>
 </g>
 <defs>
  <clipPath id="p54b544dd6a">
   <rect x="76.7" y="36.24" width="373.3" height="253"/>
  </clipPath>
 </defs>
</svg>
